<svg width="262" height="96" viewBox="0 0 262 96" fill="none" xmlns="http://www.w3.org/2000/svg">
<path fill-rule="evenodd" clip-rule="evenodd" d="M49.1126 36.046C47.2593 36.3151 45.5227 37.0397 44.0257 38.1686C43.3857 38.6511 42.326 39.7305 41.8188 40.4164C39.8061 43.1383 39.0641 46.1962 39.4636 50.1226C39.6465 51.9203 40.0738 53.4495 40.7986 54.9003C41.1892 55.6821 41.5205 56.2078 42.0344 56.8607C43.7653 59.0604 46.4912 60.594 49.2931 60.9447C49.8574 61.0153 51.1598 61.0037 51.7786 60.9225C53.7803 60.6599 55.8297 59.727 57.4015 58.363C59.3885 56.6387 60.7462 54.2887 61.2614 51.6817C61.456 50.6977 61.4892 50.2518 61.4892 48.624C61.4892 46.9676 61.4473 46.4659 61.2092 45.2693C60.8221 43.3237 60.0187 41.5693 58.8315 40.0767C58.381 39.5104 57.4777 38.6227 56.9244 38.2026C55.5312 37.1451 53.9008 36.439 52.1044 36.1152C51.3883 35.9862 49.7809 35.949 49.1126 36.046ZM19 37.1747L19.2612 37.1756C19.5792 37.1768 20.0571 37.2437 20.4534 37.3426C21.3215 37.5592 21.8767 38.0488 22.1323 38.823C22.3796 39.5722 22.3719 39.3001 22.3934 48.0492C22.4069 53.549 22.3978 56.3491 22.3647 56.7886C22.2556 58.2408 21.8809 58.9815 21.0438 59.3998C20.6964 59.5733 20.003 59.7492 19.6586 59.7511C19.5586 59.7517 19.3696 59.7652 19.2384 59.7811L19 59.8101V60.556L29.6662 60.5582L29.6925 60.4249C29.707 60.3516 29.7188 60.1848 29.7188 60.0542V59.8169L29.0035 59.762C27.7959 59.6694 27.1577 59.4557 26.7338 59.0018C26.3161 58.5548 26.1262 58.0187 26.0423 57.05C26.0145 56.7301 25.9952 54.8534 25.9949 52.4497L25.9945 48.3896L29.3441 48.4051C32.3378 48.4189 32.7216 48.4289 32.9557 48.4989C33.3207 48.6081 33.6106 48.7653 33.8644 48.992C34.4163 49.4847 34.6419 50.1402 34.6993 51.4173L34.7288 52.0725H35.6459V43.2902H34.7281L34.7021 43.9684C34.6381 45.6432 34.1169 46.4646 32.8981 46.8114C32.6271 46.8886 32.332 46.8967 29.2987 46.9113L25.9945 46.9271V37.8049L29.6393 37.833C34.074 37.8673 34.5913 37.9003 35.4094 38.2009C36.1201 38.4621 36.736 38.9962 37.0626 39.6347C37.2612 40.0231 37.6041 41.0782 37.7387 41.7153L37.8188 42.0947L38.0268 42.0897C38.1412 42.087 38.3474 42.0714 38.4851 42.0552L38.7354 42.0257L38.4996 39.2439C38.3699 37.7139 38.2624 36.4465 38.2607 36.4275C38.2589 36.4086 33.9246 36.3931 28.6288 36.3931H19V37.1747ZM61.8298 37.1747L62.1137 37.175C62.4615 37.1753 63.1732 37.2823 63.5103 37.3849C64.2762 37.6179 64.7971 38.1371 65.0391 38.9086C65.2316 39.5221 65.2417 40.0675 65.2269 49.0378L65.213 57.4753L65.1104 57.8431C64.9752 58.3279 64.8299 58.6192 64.5797 58.9075C64.103 59.4568 63.5174 59.6691 62.1818 59.7768L61.8298 59.8052V60.5595L72.2665 60.559L72.294 60.3557C72.3091 60.2438 72.3215 60.0749 72.3215 59.9803V59.8082L71.9241 59.7779C70.9308 59.7022 70.3208 59.5438 69.883 59.2477C69.5626 59.0312 69.3635 58.7904 69.1866 58.4057C68.8494 57.6721 68.8259 57.3145 68.825 52.9117L68.8243 49.3137H70.9925L79.0662 60.576L102.5 60.556L103.464 57.5213C103.994 55.8522 104.429 54.4623 104.43 54.4328C104.432 54.3804 103.795 54.1404 103.66 54.143C103.614 54.1438 103.544 54.2972 103.443 54.6143C103.168 55.4817 102.648 56.466 102.099 57.1575C101.244 58.2338 100.05 58.7909 98.0966 59.0248C97.7344 59.0681 96.7976 59.0842 94.6902 59.0832C92.0669 59.082 91.7549 59.074 91.4908 59.0014C91.1488 58.9074 90.9395 58.7607 90.8377 58.5435C90.6751 58.1965 90.6638 57.8307 90.6792 53.396C90.6963 48.4605 90.6691 48.7963 91.0665 48.6106C91.2834 48.5092 91.2895 48.509 94.1452 48.509C96.7439 48.509 97.042 48.5167 97.3926 48.5929C98.1382 48.755 98.6637 49.1265 98.967 49.7059C99.1718 50.0971 99.2473 50.4362 99.305 51.2219C99.3352 51.6334 99.3765 51.9252 99.4074 51.9454C99.4359 51.964 99.6176 51.9795 99.8112 51.9799L100.163 51.9806V43.658H99.3595L99.33 44.1813C99.2448 45.6907 98.5754 46.6106 97.3861 46.8527C96.7059 46.9912 96.0877 47.0236 93.7137 47.0448C90.9842 47.0693 90.9502 47.0663 90.7859 46.7832C90.6947 46.626 90.6934 46.5656 90.6934 42.5085C90.6934 38.4842 90.6954 38.3892 90.7842 38.2123C90.8342 38.1127 90.9283 37.9919 90.9934 37.9439C91.1072 37.8598 91.233 37.8566 94.2847 37.8622C96.2037 37.8658 97.5921 37.8871 97.7979 37.916C98.5082 38.016 99.1841 38.2995 99.7638 38.7406C100.33 39.1714 100.711 39.7813 100.998 40.7153C101.131 41.1466 101.299 41.9208 101.299 42.1007C101.299 42.1227 101.493 42.1407 101.73 42.1407H102.162L102.162 42.0142C102.162 41.8305 101.848 36.9203 101.817 36.6345L101.792 36.3931H83.6762V37.1747L83.9828 37.1749C84.3958 37.1751 85.0593 37.2883 85.4161 37.4195C85.8198 37.5678 86.0876 37.7353 86.3458 38.0008C86.7807 38.4482 86.9562 38.9605 87.0349 40.0131C87.0938 40.8017 87.0981 55.9383 87.0396 56.9005C86.9912 57.6983 86.9453 57.9102 86.7151 58.4016C86.1358 59.6378 84.9937 60.0272 83.6953 59.4312C83.1117 59.1633 82.3802 58.5816 81.6442 57.8002C81.1265 57.2505 80.692 56.6959 79.8587 55.5211C79.5268 55.0532 78.2879 53.3421 77.1055 51.7186C75.9232 50.095 74.9558 48.7476 74.9558 48.7243C74.9558 48.701 75.0825 48.6567 75.2374 48.6258C75.5997 48.5537 76.0708 48.3631 76.7371 48.0192C78.1792 47.2749 79.077 46.4518 79.6628 45.3368C80.0754 44.5516 80.2213 43.9333 80.2543 42.8304C80.2905 41.6188 80.1301 40.757 79.6986 39.8446C79.4027 39.2189 79.1238 38.8173 78.6583 38.3472C77.7607 37.4405 76.5008 36.8119 75.0012 36.5228C74.4821 36.4227 74.4399 36.4219 68.1544 36.4059L61.8298 36.3897V37.1747ZM104.614 37.1747H104.915C105.582 37.1747 106.531 37.4022 106.931 37.6578C107.185 37.8204 107.569 38.2742 107.711 38.5812C108.01 39.2263 107.99 38.6346 108.018 47.9113C108.032 52.5392 108.029 56.6051 108.011 56.9465C107.96 57.9274 107.767 58.4878 107.316 58.9659C107.005 59.2961 106.652 59.4919 106.153 59.6113C105.833 59.6878 104.975 59.7971 104.694 59.7973C104.624 59.7973 104.614 59.8461 104.614 60.1785V60.5598L115.106 60.5593V59.8071L114.686 59.7765C113.438 59.6857 112.795 59.4505 112.296 58.9022C111.884 58.4492 111.711 57.8383 111.653 56.6246C111.631 56.1568 111.611 54.32 111.61 52.543L111.609 49.312L113.807 49.3367L121.859 60.556L127.778 60.5796V60.1655C127.778 59.7549 127.777 59.7513 127.665 59.7513C127.471 59.7513 126.729 59.4882 126.306 59.2694C125.204 58.7004 124.566 58.0911 123.344 56.4406C122.427 55.2025 117.779 48.798 117.76 48.7462C117.748 48.7123 117.893 48.6555 118.16 48.5902C118.68 48.4626 119.881 47.8788 120.532 47.4369C121.061 47.0772 121.674 46.5027 122.026 46.0354C122.743 45.0834 123.07 44.0045 123.067 42.6005C123.064 41.4624 122.851 40.5052 122.407 39.6405C121.494 37.863 119.543 36.6805 117.13 36.4421C116.807 36.4102 114.539 36.3931 110.624 36.3931H104.614V37.1747ZM124.508 37.1622L125.178 37.1874C125.571 37.2022 125.96 37.2431 126.12 37.2866C126.995 37.5243 127.509 38.0545 127.705 38.922C127.856 39.586 127.869 40.1586 127.869 46.4103C127.87 52.8336 127.887 53.5806 128.055 54.5988C128.191 55.4265 128.332 55.8808 128.663 56.5557C129.135 57.5212 129.807 58.3507 130.662 59.0257L131.071 59.3483L131.082 47.9091C131.088 41.6175 131.088 36.4657 131.082 36.4606C131.076 36.4556 129.594 36.4372 127.789 36.4197L124.508 36.388V37.1622ZM51.4744 37.566C54.5727 38.2534 56.6118 40.9955 57.2184 45.2903C57.3997 46.5738 57.4456 47.4078 57.4463 49.4286C57.4469 51.3633 57.4222 51.7713 57.2405 52.8312C56.7596 55.6357 55.3552 57.7662 53.3015 58.8068C51.8147 59.5601 50.2924 59.6903 48.7643 59.1947C47.244 58.7017 46.0526 57.7357 45.1892 56.296C43.9576 54.2422 43.4259 51.5753 43.4169 47.4055C43.4149 46.4842 43.4356 45.7364 43.4724 45.4053C43.7856 42.5831 44.5538 40.7104 45.9623 39.3355C46.9195 38.401 48.1478 37.7539 49.4078 37.5204C49.8715 37.4344 50.9927 37.4592 51.4744 37.566ZM72.049 37.7476C73.2314 37.9093 74.099 38.3181 74.823 39.0547C75.4146 39.6566 75.809 40.3565 76.0306 41.1981C76.1412 41.6179 76.1521 41.7358 76.1556 42.5545C76.1597 43.5114 76.1226 43.8185 75.9259 44.4554C75.3643 46.2748 73.9793 47.4 71.8133 47.7962C71.1416 47.9191 69.8304 48.0034 69.2671 47.9599L68.8243 47.9257V38.1371L69.04 38.0434C69.3337 37.916 69.8549 37.7747 70.1982 37.7295C70.6587 37.6689 71.5366 37.6775 72.049 37.7476ZM115.178 37.7924C116.238 38.0023 117.036 38.431 117.72 39.158C118.246 39.7166 118.594 40.3479 118.813 41.138C118.915 41.5062 118.934 41.6845 118.954 42.4165C118.979 43.3601 118.927 43.8017 118.712 44.4919C118.347 45.664 117.513 46.6636 116.443 47.2113C116.102 47.3861 115.359 47.6378 114.875 47.7428C114.071 47.917 112.853 48.0113 112.089 47.9585L111.608 47.9254L111.631 38.1319L111.904 38.0195C112.245 37.8788 112.595 37.7862 112.998 37.7297C113.44 37.6678 114.737 37.7051 115.178 37.7924Z" fill="black"/>
<path fill-rule="evenodd" clip-rule="evenodd" d="M131.624 36.4274L130.999 36.4416V59.366L131.363 59.5848C132.453 60.2413 133.727 60.666 135.269 60.8871C135.996 60.9913 138.543 61.0049 139.22 60.9082C139.997 60.7971 140.776 60.6202 141.395 60.4143C144.27 59.4579 145.989 57.4383 146.462 54.4633C146.619 53.4724 146.636 52.8051 146.667 46.141C146.698 39.658 146.701 39.4867 146.792 39.0829C146.843 38.8553 146.938 38.5501 147.002 38.4046C147.151 38.0649 147.53 37.6599 147.853 37.4948C148.316 37.2581 148.62 37.2 149.371 37.204C149.955 37.2072 150.117 37.225 150.507 37.3292C151.595 37.6204 152.398 38.1855 153.128 39.1749L153.434 39.5887L153.435 48.008C153.436 53.3335 153.419 56.6397 153.39 57.0051C153.308 58.0244 153.12 58.5515 152.675 59.0071C152.301 59.3912 151.663 59.6453 150.87 59.7264C150.72 59.7417 150.49 59.7654 150.359 59.7791L150.121 59.8039V60.5587L158.614 60.556V60.1766C158.614 59.814 158.609 59.7973 158.512 59.7972C158.203 59.7967 157.334 59.6876 157.047 59.6133C156.196 59.393 155.646 58.8727 155.362 58.0191C155.257 57.7042 155.237 57.5442 155.201 56.7396C155.178 56.2338 155.165 52.589 155.172 48.64L155.185 41.4601L171.49 60.8729L171.515 50.4148C171.537 40.9388 171.546 39.915 171.615 39.514C171.805 38.3997 172.213 37.8645 173.064 37.6142C174.226 37.2721 175.75 37.6021 176.746 38.4118C177.138 38.7303 177.319 38.9208 177.662 39.375L177.917 39.7132L177.916 48.2723C177.916 53.7625 177.899 56.9799 177.87 57.2454C177.777 58.0755 177.592 58.5541 177.2 58.979C176.762 59.4526 176.161 59.6619 174.908 59.7766L174.601 59.8046V60.5594L183.094 60.556V59.8056L182.697 59.7759C181.437 59.6819 180.819 59.4538 180.343 58.9065C180.111 58.6394 179.912 58.2484 179.803 57.8431C179.755 57.6649 179.714 57.2336 179.688 56.6246C179.638 55.459 179.629 41.4969 179.678 41.4969C179.698 41.4969 183.382 45.864 187.865 51.2015L196.016 60.906L196.04 50.2014C196.064 39.5202 196.064 39.4958 196.16 39.0791C196.284 38.5359 196.46 38.1798 196.752 37.876C197.023 37.5944 197.492 37.3514 197.924 37.2691C198.382 37.1817 199.385 37.1557 199.878 37.2186C200.715 37.3252 201.21 37.5344 201.66 37.9716C202.139 38.4369 202.332 38.9938 202.39 40.0715C202.406 40.3876 202.409 44.4535 202.396 49.1068C202.374 57.0154 202.367 57.5852 202.292 57.8431C202.001 58.8467 201.419 59.4161 200.467 59.6299C200.206 59.6886 199.315 59.7971 199.093 59.7973C199.052 59.7973 199.036 59.9062 199.036 60.1882V60.5792L217.858 60.556L218.825 57.5004C219.357 55.8199 219.793 54.4301 219.793 54.412C219.793 54.3741 219.125 54.1417 219.016 54.1417C218.965 54.1417 218.92 54.2303 218.865 54.4362C218.751 54.8621 218.394 55.6746 218.071 56.2451C217.206 57.7697 216.169 58.5128 214.4 58.8742C213.459 59.0666 213.084 59.0846 210.05 59.0832C207.427 59.082 207.115 59.074 206.851 59.0014C206.343 58.8617 206.157 58.6419 206.07 58.0756C206.042 57.8951 206.031 56.1316 206.04 53.4229C206.053 49.1677 206.056 49.0563 206.144 48.8769C206.205 48.7542 206.296 48.6623 206.417 48.601C206.591 48.5128 206.705 48.5084 209.165 48.4946C210.765 48.4856 211.922 48.4988 212.239 48.5297C212.792 48.5836 213.26 48.7093 213.554 48.8832C213.866 49.068 214.198 49.4418 214.364 49.7943C214.556 50.2046 214.609 50.4678 214.663 51.2651C214.691 51.6857 214.725 51.9188 214.763 51.9427C214.794 51.9627 214.978 51.9795 215.171 51.9799L215.523 51.9806V43.658H214.706L214.705 43.8764C214.703 45.2091 214.202 46.2429 213.361 46.6492C212.7 46.9686 211.933 47.0347 208.868 47.0363C206.101 47.0378 206.242 47.0558 206.102 46.6832C206.035 46.5052 206.029 46.0918 206.041 42.4625C206.053 38.5444 206.056 38.4344 206.144 38.2566C206.195 38.1552 206.306 38.0324 206.394 37.9807C206.549 37.8899 206.634 37.8871 209.642 37.8739C211.716 37.8649 212.857 37.8772 213.116 37.9114C213.873 38.0113 214.692 38.3701 215.268 38.8547C215.943 39.4217 216.418 40.5022 216.637 41.9682L216.663 42.1407H217.092C217.507 42.1407 217.522 42.1372 217.522 42.0372C217.522 41.8802 217.21 37.01 217.178 36.6767L217.15 36.3856L190.861 36.4147V37.1626L191.576 37.1869C193.258 37.2441 193.919 37.7236 194.234 39.1146C194.33 39.5386 194.331 39.6021 194.346 45.7272C194.355 49.1286 194.355 52.2185 194.348 52.5936L194.336 53.2756L180.301 36.396L166.335 36.3931V37.1747H166.897C168.726 37.1747 169.465 37.7184 169.771 39.2898C169.84 39.6423 169.849 40.3478 169.865 46.4785C169.877 51.2049 169.868 53.2673 169.835 53.2466C169.809 53.2303 166.639 49.4315 162.79 44.805L155.793 36.3931H141.446V37.1623L142.002 37.1884C142.903 37.2307 143.635 37.4752 144.066 37.8778C144.488 38.2711 144.693 38.7274 144.836 39.5912C144.915 40.0629 144.92 40.4834 144.92 46.2789C144.92 50.9482 144.906 52.6493 144.861 53.222C144.704 55.2277 144.164 56.5185 143.02 57.6254C140.815 59.7582 136.618 60.0425 133.929 58.2413C133.507 57.9585 132.753 57.1914 132.477 56.7638C132.063 56.1212 131.794 55.4174 131.624 54.5325C131.529 54.0328 131.527 53.944 131.511 47.1986C131.493 40.0888 131.502 39.6791 131.684 39.0142C132.003 37.8455 132.847 37.2677 134.349 37.1882L134.86 37.1611V36.3931L133.554 36.4031C132.836 36.4087 131.967 36.4196 131.624 36.4274ZM219.974 37.1747L220.281 37.1749C220.642 37.1751 221.356 37.2843 221.678 37.3884C222.516 37.6595 223.07 38.2853 223.279 39.1979C223.353 39.5195 223.358 40.1456 223.358 48.486C223.358 56.9714 223.354 57.4475 223.275 57.7858C223.156 58.2999 222.932 58.7222 222.618 59.0257C222.294 59.3383 221.996 59.4958 221.507 59.6128C221.192 59.6881 220.333 59.7971 220.054 59.7973C219.985 59.7973 219.974 59.8461 219.974 60.1783V60.5593H230.466V60.1783C230.466 59.8139 230.462 59.7973 230.364 59.7972C230.308 59.7971 230.03 59.775 229.746 59.7481C228.756 59.6542 228.147 59.4208 227.726 58.9737C227.431 58.6603 227.326 58.4623 227.171 57.9269C227.001 57.3363 226.972 56.5793 226.971 52.6809L226.969 49.312L229.165 49.3367L237.216 60.556L243.138 60.5717V59.7638L242.945 59.7365C242.451 59.6665 241.637 59.3024 240.913 58.8273C240.281 58.4135 239.596 57.6636 238.565 56.2568C237.032 54.1669 233.14 48.8 233.122 48.7512C233.107 48.7109 233.229 48.6615 233.518 48.5909C234.226 48.4174 235.557 47.7191 236.302 47.1302C237.755 45.9826 238.43 44.5426 238.424 42.6005C238.419 40.8188 237.895 39.4401 236.807 38.3455C235.74 37.2725 234.251 36.616 232.491 36.4421C232.168 36.4102 229.9 36.3931 225.984 36.3931H219.974V37.1747ZM230.549 37.7944C232.421 38.1648 233.739 39.412 234.202 41.2529C234.293 41.6149 234.304 41.7651 234.301 42.6694C234.298 43.6055 234.289 43.7139 234.18 44.1212C233.921 45.0993 233.506 45.8277 232.859 46.4453C232.232 47.0429 231.505 47.421 230.471 47.687C229.663 47.8948 228.27 48.0186 227.427 47.9576L226.968 47.9243L226.992 38.1319L227.264 38.0195C227.605 37.8788 227.955 37.7862 228.359 37.7297C228.806 37.667 230.097 37.7051 230.549 37.7944Z" fill="black"/>
</svg>
