<svg width="262" height="95" viewBox="0 0 262 95" fill="none" xmlns="http://www.w3.org/2000/svg">
<path fill-rule="evenodd" clip-rule="evenodd" d="M184.081 46.2833C184.625 46.5266 185.094 46.9256 185.435 47.4352C185.831 48.076 186.028 48.8316 185.997 49.5962C186.014 50.3756 185.809 51.1423 185.408 51.7975C184.999 52.4229 184.421 52.9042 183.749 53.1792C182.921 53.5044 182.04 53.6552 181.157 53.6232H180.209L179.388 53.44C178.847 53.3189 178.321 53.1291 177.823 52.8749C177.335 52.6237 176.878 52.3109 176.461 51.9435L176.352 51.8441L177.647 50.1644L177.761 50.27C178.216 50.6913 178.742 51.0189 179.312 51.2356C179.905 51.4505 180.529 51.5555 181.157 51.5461C181.876 51.5919 182.592 51.4137 183.216 51.0338C183.668 50.7342 183.934 50.2026 183.914 49.6397C183.933 49.2717 183.823 48.909 183.605 48.6213C183.379 48.3606 183.093 48.1668 182.775 48.0593C182.322 47.9021 181.859 47.7817 181.389 47.6992H181.357C181.323 47.7037 181.288 47.7037 181.254 47.6992L181.142 47.6743C180.432 47.5578 179.731 47.3824 179.047 47.1496C178.476 46.9358 177.978 46.5492 177.614 46.0381C177.229 45.5009 177.026 44.7309 177.026 43.756C177.003 42.9762 177.195 42.2062 177.579 41.5391C177.966 40.9097 178.527 40.4209 179.185 40.1389C180.418 39.6409 181.762 39.533 183.052 39.8284C183.509 39.9404 183.955 40.1017 184.381 40.3096C184.833 40.5306 185.264 40.7968 185.667 41.1045L185.788 41.1945L184.611 42.9394L184.49 42.8494C184.06 42.5064 183.585 42.2294 183.081 42.0266C182.636 41.8492 182.165 41.7567 181.689 41.7534C181.009 41.7099 180.332 41.8911 179.753 42.2719C179.316 42.5971 179.067 43.1363 179.094 43.7001C179.07 44.0632 179.189 44.4206 179.424 44.6875C179.66 44.9507 179.954 45.148 180.28 45.2619C180.781 45.4199 181.29 45.5485 181.804 45.6469C181.823 45.6492 181.841 45.6492 181.86 45.6469L181.942 45.6655H182.025L182.125 45.6841C182.793 45.8186 183.448 46.0192 184.081 46.2833ZM148.971 40.3091C150.479 39.4602 152.288 39.4602 153.796 40.3091C154.494 40.7261 155.061 41.3501 155.426 42.1037C155.819 42.9295 156.015 43.8439 155.997 44.7677V46.1276C156.015 47.0514 155.819 47.9658 155.426 48.7916C155.063 49.5444 154.498 50.1683 153.802 50.5862C152.293 51.4308 150.486 51.4308 148.977 50.5862C148.281 50.1683 147.716 49.5444 147.352 48.7916C146.954 47.9674 146.752 47.0529 146.764 46.1276V44.7677C146.752 43.8424 146.954 42.9279 147.352 42.1037C147.715 41.3518 148.277 40.728 148.971 40.3091ZM103 39.8152H105.074V51.4243H111.447V53.5201H103V39.8152ZM152.693 48.7078C151.876 49.1755 150.891 49.1755 150.074 48.7078C149.699 48.4714 149.398 48.1251 149.206 47.711C148.991 47.2376 148.884 46.7175 148.894 46.1926V44.7021C148.884 44.1772 148.991 43.6572 149.206 43.1837C149.398 42.7696 149.699 42.4233 150.074 42.1869C150.891 41.7192 151.876 41.7192 152.693 42.1869C153.073 42.4209 153.38 42.7675 153.575 43.1837C153.79 43.6572 153.897 44.1772 153.887 44.7021V46.1926C153.897 46.7175 153.791 47.2376 153.575 47.711C153.38 48.1272 153.073 48.4738 152.693 48.7078ZM169.246 49.4404L163.479 39.8152H161.537V53.5109H162.026V43.6591H163.465L169.446 53.5109H171.306V39.8152H169.246V49.4404ZM124.753 53.5201L116.208 53.5232V39.8152H124.753V41.9141H116.696V45.6648H123.679V47.7637H116.696V51.4243H124.753V53.5201ZM139.114 40.0729L139.099 44.0254L136.463 50.2724L135.724 48.7355L131.958 39.8152H130.046V53.5201H132.079V45.0438L134.874 51.6603H136.178L136.375 51.7534L139.099 45.2984V53.5201H141.132V39.8152H139.223L139.114 40.0729ZM154.776 53.0954H147.991V53.6156H154.776V53.0954Z" fill="black"/>
<path fill-rule="evenodd" clip-rule="evenodd" d="M46 45.0362C46 45.0362 46.2107 41.4263 48.8976 39.7525C48.8976 39.7525 51.7249 30 68.3259 30C84.9268 30 89.6507 43.0533 89.6507 43.0533C89.6507 43.0533 94 44.5897 94 47.1754C94 49.761 89.6624 51.3068 89.6624 51.3068C89.6624 51.3068 84.9151 64.3663 68.3259 64.3663C51.7366 64.3663 48.8976 54.6139 48.8976 54.6139C46.2107 52.94 46 49.3301 46 49.3301V45.0362ZM81.1881 44.3836C82.7038 52.0929 78.1221 59.664 70.9546 61.2943C63.7871 62.9245 56.748 57.9964 55.2324 50.2872C53.7167 42.5779 58.2985 35.0068 65.4659 33.3766C72.6334 31.7464 79.6725 36.6744 81.1881 44.3836ZM76 47.1818L63 39.6655V54.7013L76 47.1818ZM59.4636 32.1478C59.6096 32.1467 59.733 32.267 59.7505 32.4275C59.7505 32.58 59.5841 32.6404 59.4636 32.6404C59.3431 32.6404 59.1767 32.5768 59.1767 32.4275C59.1767 32.2781 59.3288 32.1478 59.4636 32.1478ZM56.8758 35.0162C56.8758 34.8639 56.7581 34.8259 56.6204 34.8259C56.4827 34.8259 56.4512 34.8639 56.4512 35.0162C56.4512 35.1686 56.4856 35.2415 56.6204 35.2415C56.7553 35.2415 56.8758 35.1654 56.8758 35.0162ZM54.001 39.9674C54.001 39.8152 53.8375 39.6947 53.6998 39.6947C53.5558 39.6932 53.433 39.8098 53.4129 39.9674C53.4241 40.1399 53.5444 40.2795 53.6998 40.3003C53.8568 40.2774 53.9803 40.1409 54.001 39.9674ZM55.5847 36.8553C55.5847 36.706 55.3982 36.6647 55.2605 36.6647C55.1228 36.6647 55.0826 36.706 55.0826 36.8553C55.0826 37.0046 55.1228 37.0904 55.2605 37.0904C55.3982 37.0904 55.5847 36.9919 55.5847 36.8553ZM53.453 57.0233C53.6883 57.0233 53.9035 57.1501 53.9035 57.4134C53.9035 57.6861 53.6883 57.7654 53.453 57.7654C53.2178 57.7654 53.1374 57.6766 53.1374 57.4134C53.1374 57.1501 53.2178 57.0233 53.453 57.0233ZM51.9468 42.8044C51.9468 42.5446 51.6599 42.4559 51.4304 42.4559C51.2008 42.4559 51 42.5446 51 42.8044C51 43.0642 51.1922 43.1212 51.4304 43.1212C51.6685 43.1212 51.9468 43.0642 51.9468 42.8044ZM86.4841 50.4992C86.7456 50.5171 86.9628 50.7279 87.0121 51.0115C86.9687 51.3013 86.75 51.5201 86.4841 51.5396C86.2489 51.5396 86.1169 51.2708 86.1169 51.0115C86.1169 50.7522 86.2489 50.4992 86.4841 50.4992ZM86.3751 42.3326C86.3751 42.0733 86.3063 41.7539 86.071 41.7539C85.8126 41.8019 85.6206 42.0439 85.612 42.3326C85.6272 42.5985 85.8292 42.8044 86.071 42.8005C86.2919 42.8005 86.3751 42.5918 86.3751 42.3326ZM81.6757 58.2443C81.948 58.3012 82.153 58.5506 82.1777 58.8552C82.1777 59.118 81.9109 59.2256 81.6757 59.2256C81.4404 59.2256 81.3113 59.1148 81.3113 58.8552C81.3113 58.5957 81.4404 58.2443 81.6757 58.2443ZM91 45.4615C91 45.2018 90.891 44.8535 90.6557 44.8535C90.4205 44.8535 90.2741 45.2018 90.2741 45.4615C90.2741 45.7211 90.4205 46.0568 90.6557 46.0568C90.891 46.0568 91 45.7116 91 45.4615ZM83.0126 55.6254C83.2622 55.6254 83.5864 55.8312 83.5864 56.0909C83.5864 56.3505 83.2479 56.4455 83.0126 56.4455C82.7774 56.4455 82.6855 56.3505 82.6855 56.0909C82.6855 55.8312 82.763 55.6254 83.0126 55.6254ZM52.3857 49.6489C52.3857 49.3892 52.0988 49.3322 51.8607 49.3322C51.6226 49.3322 51.3873 49.3955 51.3873 49.6489C51.3996 49.7737 51.4564 49.888 51.5453 49.9665C51.6341 50.0449 51.7476 50.0811 51.8607 50.0668C52.096 50.0668 52.3857 49.9117 52.3857 49.6489ZM58.0033 60.2588C58.2632 60.2606 58.4828 60.4719 58.5197 60.7558C58.5197 61.0153 58.2414 61.1451 58.0033 61.1451C57.7652 61.1451 57.5098 61.0027 57.5098 60.7431C57.539 60.4668 57.7512 60.2586 58.0033 60.2588ZM55.6564 55.376C55.6635 55.2541 55.6253 55.1342 55.5506 55.0441C55.4759 54.9539 55.3712 54.9011 55.2605 54.8979C55.0193 54.8979 54.822 55.1099 54.8158 55.376C54.8158 55.6577 55.0023 55.8972 55.2548 55.9394C55.4958 55.9394 55.6564 55.6387 55.6564 55.376ZM83.6986 39.2249C83.7525 39.2739 83.7865 39.3446 83.793 39.4215C83.793 39.5709 83.6381 39.6599 83.5061 39.6599C83.3741 39.6599 83.2192 39.5741 83.2192 39.4215C83.2192 39.2689 83.3712 39.1609 83.5061 39.1609C83.5754 39.1529 83.6447 39.176 83.6986 39.2249ZM88.854 47.5742C88.854 47.422 88.8195 47.2794 88.6847 47.2794C88.5499 47.2794 88.3662 47.422 88.3662 47.5742C88.3662 47.7263 88.547 47.8721 88.6847 47.8721C88.8224 47.8721 88.854 47.7263 88.854 47.5742ZM83.5061 43.1996C83.6627 43.2296 83.7809 43.3731 83.793 43.548C83.793 43.7001 83.6409 43.7824 83.5061 43.7824C83.3713 43.7824 83.3225 43.6969 83.3225 43.548C83.3225 43.3992 83.3713 43.1996 83.5061 43.1996ZM84.5246 47.0277C84.5246 46.8785 84.4154 46.7575 84.2807 46.7575C84.146 46.7575 84.0369 46.8785 84.0369 47.0277C84.0554 47.1611 84.159 47.2596 84.2807 47.2596C84.4025 47.2596 84.5061 47.1611 84.5246 47.0277ZM71.8773 38.6334C71.9622 38.6893 72.0093 38.7911 71.9985 38.8957C71.9841 39.0351 71.872 39.1407 71.7385 39.1407C71.605 39.1407 71.4929 39.0351 71.4785 38.8957C71.4678 38.7911 71.5148 38.6893 71.5997 38.6334C71.6846 38.5776 71.7924 38.5776 71.8773 38.6334ZM59.2584 49.9014C59.4012 49.9014 59.5169 50.0234 59.5169 50.1738C59.4973 50.3082 59.3875 50.4075 59.2584 50.4075C59.1294 50.4075 59.0196 50.3082 59 50.1738C59 50.0234 59.1157 49.9014 59.2584 49.9014ZM77.6202 32.3462C77.6202 32.1926 77.532 32.1478 77.3909 32.1478C77.2498 32.1478 77.141 32.1926 77.141 32.3462C77.1413 32.4152 77.1689 32.4808 77.2167 32.5261C77.2646 32.5714 77.328 32.5921 77.3909 32.5829C77.4515 32.5906 77.5122 32.5687 77.5564 32.5229C77.6007 32.4772 77.6241 32.4125 77.6202 32.3462ZM49.516 48.1248C49.4969 47.958 49.3758 47.8266 49.222 47.8059C49.0809 47.8059 49.0016 47.9718 49.0016 48.1248C48.9941 48.1937 49.0138 48.2627 49.0558 48.315C49.0977 48.3672 49.1581 48.3977 49.222 48.3991C49.3696 48.4006 49.4953 48.2833 49.516 48.1248ZM86.92 47.666C86.9689 47.7131 86.9978 47.7799 87 47.8507C87.0011 48.013 86.8898 48.1502 86.7413 48.1697C86.5822 48.1616 86.4548 48.0234 86.4474 47.8507C86.4657 47.6943 86.597 47.5832 86.7413 47.602C86.8064 47.5958 86.871 47.619 86.92 47.666ZM85.0159 52.4537C85.0159 52.3036 84.8777 52.2397 84.7219 52.2397C84.5661 52.2397 84.4897 52.3036 84.4897 52.4537C84.4897 52.6039 84.5808 52.7732 84.7219 52.7732C84.8805 52.7637 85.0071 52.6261 85.0159 52.4537ZM49.5013 44.7578C49.6394 44.7578 49.8246 44.8442 49.8246 44.9979C49.8246 45.1515 49.6424 45.2475 49.5013 45.2475C49.3602 45.2475 49.3131 45.1515 49.3131 44.9979C49.3131 44.8442 49.3631 44.7578 49.5013 44.7578ZM51.4002 53.5909C51.3722 53.4233 51.2394 53.3004 51.0827 53.297C50.9416 53.297 50.8711 53.4376 50.8711 53.5909C50.8629 53.6539 50.8827 53.7174 50.9244 53.7621C50.9661 53.8068 51.0248 53.8274 51.0827 53.8177C51.2238 53.8177 51.4002 53.7283 51.4002 53.5909ZM79.9306 33.8629C80.0717 33.8629 80.1216 33.9746 80.1216 34.1276C80.1216 34.2775 80.0717 34.4466 79.9306 34.4466C79.7895 34.4466 79.7131 34.2775 79.7131 34.1276C79.7044 34.06 79.7236 33.9917 79.7654 33.9408C79.8073 33.8898 79.8677 33.8614 79.9306 33.8629ZM77.9318 59.8488C77.9318 59.6952 77.7848 59.628 77.6378 59.628C77.4908 59.628 77.3056 59.6952 77.3056 59.8488C77.3056 60.0023 77.4967 60.0727 77.6378 60.0727C77.7789 60.0727 77.9318 59.9991 77.9318 59.8488ZM76 53.0782C76 52.7075 75.7653 52.553 75.5305 52.553C75.2958 52.553 75 52.7075 75 53.0782C75 53.449 75.3099 53.6267 75.5305 53.6267C75.7512 53.6267 76 53.4413 76 53.0782ZM64.0147 32.3838C64.0147 32.2386 63.873 32.1491 63.7254 32.1491C63.6621 32.1422 63.5989 32.1635 63.5508 32.2079C63.5026 32.2523 63.4737 32.3159 63.4708 32.3838C63.4708 32.532 63.5866 32.7234 63.7254 32.7234C63.885 32.6974 64.0056 32.5558 64.0147 32.3838ZM80.4095 37.4696C80.5484 37.4696 80.7249 37.6086 80.7249 37.7537C80.7249 37.9019 80.5484 38.0316 80.4095 38.0316C80.2604 38.0324 80.1351 37.9121 80.1202 37.7537C80.1323 37.5929 80.2584 37.4691 80.4095 37.4696ZM81.9462 52.7447C81.9881 52.7984 82.0068 52.8686 81.9978 52.9379C81.9978 53.0867 81.9168 53.1331 81.7779 53.1331C81.639 53.1331 81.5117 53.0743 81.5117 52.9255C81.518 52.7734 81.6358 52.6541 81.7779 52.6559C81.8432 52.6588 81.9043 52.691 81.9462 52.7447ZM52.2025 53.137C52.3612 53.1733 52.4788 53.3165 52.4918 53.4892C52.4778 53.6572 52.3585 53.7935 52.2025 53.8198C52.0636 53.8198 52 53.6375 52 53.4892C52 53.3409 52.0636 53.137 52.2025 53.137ZM55.1013 58.6878C55.1086 58.6189 55.0898 58.5497 55.049 58.4957C55.0082 58.4417 54.949 58.4074 54.8843 58.4004C54.7316 58.4059 54.6041 58.5265 54.5806 58.6878C54.6064 58.8515 54.7301 58.9773 54.8843 58.9969C55.0232 59.0124 55.1013 58.8238 55.1013 58.6878Z" fill="black"/>
</svg>
