<svg width="263" height="95" viewBox="0 0 263 95" fill="none" xmlns="http://www.w3.org/2000/svg">
<path d="M89.7102 20C89.8429 20.4688 89.9601 20.8796 90.0751 21.2927C90.0806 21.3551 90.0806 21.4178 90.0751 21.4802C89.9982 21.509 89.9191 21.5314 89.8385 21.5472C88.8895 21.68 87.9943 22.0714 87.249 22.6791C86.2718 23.4477 85.4048 24.3493 84.6728 25.3582C82.9523 27.6578 81.6432 30.1851 80.5154 32.8129C79.1037 36.032 78.0584 39.4024 77.3996 42.8595C76.8889 45.4778 76.9107 48.1735 77.4637 50.783C77.6208 51.536 77.9027 52.2568 78.2974 52.9152C79.005 54.0783 80.0488 54.6789 81.3756 54.8575C82.6681 55.0336 83.9784 54.7037 85.0376 53.9355C86.1244 53.1628 87.0886 52.2279 87.8969 51.1626C89.6107 49.0037 90.9309 46.6014 92.0853 44.1053C92.5695 43.0538 92.9985 41.9777 93.4475 40.9105C93.516 40.7497 93.5602 40.5801 93.6199 40.397C93.5204 40.3367 93.4519 40.2854 93.3745 40.2474C91.4649 39.2921 89.9697 37.6617 89.1729 35.6661C87.6249 31.9444 87.866 28.3097 89.9247 24.8403C90.6276 23.6219 91.6899 22.6555 92.9632 22.0763C95.3028 21.0181 97.6999 21.6075 98.9869 24.2174C99.576 25.4638 99.8727 26.8306 99.8538 28.2115C99.8845 31.7164 99.4008 35.2066 98.4186 38.5685C98.3722 38.7225 98.3279 38.8766 98.2881 39.0306C98.2829 39.0796 98.2829 39.129 98.2881 39.178C99.0355 39.2683 99.7929 39.2214 100.524 39.0396C101.877 38.7294 103.118 38.0435 104.106 37.0593C104.202 36.9451 104.33 36.8628 104.474 36.823C104.617 36.7832 104.768 36.7877 104.909 36.836C106.236 37.1888 107.24 38.8453 107.189 39.7763C107.138 40.759 106.913 41.7246 106.525 42.6274C106.083 43.641 105.59 44.6367 105.119 45.6257C104.52 46.8983 103.898 48.162 103.332 49.4479C102.951 50.3349 102.726 51.2824 102.669 52.2476C102.646 52.5128 102.656 52.7799 102.7 53.0424C102.824 53.7122 103.273 54.085 103.94 54.0181C104.307 53.9743 104.661 53.8598 104.984 53.6809C105.701 53.3014 106.24 52.7008 106.753 52.0802C107.847 50.7202 108.777 49.235 109.526 47.6552C110.066 46.5523 110.535 45.4226 111.048 44.3063C111.108 44.1803 111.139 44.0417 111.136 43.9017C111.134 43.7617 111.099 43.6242 111.034 43.5003C110.345 41.9619 110.154 40.2431 110.488 38.5886C110.624 38.0732 110.821 37.5762 111.074 37.1084C111.246 36.7686 111.538 36.5064 111.892 36.3739C112.171 36.241 112.491 36.2254 112.781 36.3305C113.072 36.4356 113.309 36.6528 113.44 36.9342C113.625 37.3375 113.737 37.7706 113.772 38.2135C113.877 39.8007 113.674 41.3932 113.175 42.902C112.954 43.6119 113.142 44.0518 113.617 44.5005C114.246 45.098 115.012 45.5277 115.846 45.7508C115.93 45.5431 116.012 45.3489 116.09 45.1547C117.206 42.326 119.015 40.0934 121.645 38.5573C122.593 37.9971 123.648 37.647 124.74 37.5303C125.34 37.4662 125.946 37.5116 126.529 37.6643C128.124 38.0863 128.86 39.2628 128.553 40.8926C128.199 42.7524 127.191 44.2058 125.78 45.3935C124.404 46.5314 122.752 47.2769 120.994 47.5525C120.331 47.6663 119.668 47.7244 118.962 47.8137C118.792 49.18 118.686 50.5419 118.984 51.9038C119.013 52.0254 119.047 52.1454 119.088 52.2632C119.577 53.7077 120.652 54.3016 122.122 53.9355C122.912 53.7234 123.647 53.3427 124.278 52.8192C125.308 51.9696 126.207 50.9704 126.945 49.8543C128.468 47.5939 129.738 45.1702 130.731 42.6274C131.262 41.3258 131.726 39.9951 132.219 38.6779C132.268 38.5462 132.319 38.4145 132.372 38.2693H142.259C142.12 38.506 142.02 38.6846 141.91 38.8587C140.362 41.3392 138.951 43.8955 137.907 46.6393C137.372 48.0414 136.91 49.4703 136.874 50.9907C136.851 51.5606 136.898 52.1314 137.014 52.6897C137.317 54.0114 138.59 54.5338 139.736 53.806C140.107 53.5612 140.439 53.26 140.72 52.9129C141.509 51.9797 142.027 50.879 142.46 49.7426C142.543 49.4153 142.592 49.0801 142.606 48.7424C143.163 44.8309 144.919 41.5825 147.936 39.0552C148.865 38.2444 150.001 37.7123 151.215 37.5192C151.846 37.4205 152.491 37.457 153.108 37.6263C154.318 37.959 155.012 38.8498 155.134 40.2095C155.153 40.4327 155.156 40.6359 155.169 40.9551C155.525 40.5086 155.675 40.0331 155.901 39.6156C156.126 39.1981 156.332 38.7605 156.54 38.3497H159.658C159.55 38.5931 159.47 38.7851 159.382 38.9704C158.022 41.8549 156.653 44.7349 155.306 47.6261C154.785 48.7428 154.459 49.9424 154.344 51.1715C154.277 51.7414 154.335 52.3192 154.514 52.8638C154.82 53.7368 155.574 54.1632 156.449 53.8863C156.917 53.7283 157.357 53.497 157.754 53.2009C158.681 52.5312 159.362 51.6046 160.114 50.7451C160.649 50.14 160.744 49.5529 160.604 48.7648C160.299 46.9114 160.273 45.0221 160.527 43.1609C161.089 38.7858 162.481 34.5608 164.625 30.7165C165.302 29.4579 166.118 28.2806 167.057 27.2068C167.593 26.5652 168.228 26.0162 168.939 25.5815C169.363 25.3168 169.85 25.174 170.348 25.1685C170.713 25.151 171.075 25.2521 171.38 25.4569C171.685 25.6618 171.917 25.9597 172.042 26.3071C172.292 26.9594 172.381 27.6639 172.3 28.3588C172.159 29.8993 171.721 31.3706 171.221 32.824C169.607 37.4003 167.543 41.8019 165.06 45.9629C164.574 46.7934 164.059 47.6038 163.534 48.4187C163.373 48.6516 163.299 48.9351 163.327 49.218C163.383 50.1409 163.563 51.0518 163.862 51.9261C164.045 52.4496 164.337 52.9276 164.718 53.3282C165.412 54.0404 166.829 54.4266 167.851 53.7747C168.308 53.5039 168.73 53.1769 169.107 52.8013C169.782 52.0735 170.388 51.2787 171.022 50.5129C171.093 50.4343 171.141 50.3374 171.161 50.2329C171.18 50.1284 171.17 50.0205 171.133 49.9213C170.361 47.4364 170.317 44.9046 170.626 42.3416C171.059 38.6656 172.071 35.0832 173.625 31.7301C174.423 30.011 175.348 28.3611 176.663 26.9836C177.165 26.4836 177.715 26.0349 178.304 25.644C178.808 25.3017 179.409 25.1354 180.016 25.1707C180.777 25.2042 181.358 25.5547 181.617 26.287C181.783 26.7528 181.877 27.2414 181.895 27.7359C181.92 29.3436 181.728 30.9471 181.325 32.5025C179.895 38.5955 177.403 44.3832 173.966 49.5953C173.858 49.7327 173.789 49.8965 173.765 50.0699C173.74 50.2434 173.762 50.4201 173.828 50.5821C174.142 51.4461 174.51 52.2722 175.168 52.9286C176.203 53.96 177.426 54.2391 178.773 53.6943C179.354 53.4341 179.908 53.117 180.427 52.7477C181.183 52.2521 181.889 51.6783 182.658 51.205C183.565 50.6225 184.579 50.2329 185.639 50.0601C186.7 49.8874 187.784 49.9351 188.826 50.2003C191.017 50.7361 192.247 52.2655 192.72 54.4199C193.26 56.8758 192.992 59.287 192.15 61.6357C190.942 64.9846 188.755 67.5766 185.891 69.6083C183.388 71.3944 180.606 72.5508 177.672 73.3702C175.318 74.0202 172.912 74.4646 170.483 74.6986C168.333 74.9219 166.179 75 164.019 75C132.884 75 101.749 75 70.6129 75H70.0202C69.9428 74.7589 70.1065 74.6138 70.1905 74.4552C71.9802 71.1034 73.7759 67.7612 75.5774 64.4287C75.9555 63.7232 76.3536 63.0266 76.7074 62.3055C76.7644 62.1485 76.875 62.0172 77.0193 61.9354C77.1637 61.8535 77.3323 61.8264 77.4947 61.8589C77.6891 61.8712 77.884 61.8712 78.0785 61.8589H175.624C178.661 61.8778 181.659 61.162 184.366 59.7715C185.35 59.2811 186.247 58.6285 187.019 57.8403C187.683 57.1348 188.238 56.3422 188.408 55.3599C188.491 54.9047 188.504 54.4394 188.448 53.9801C188.306 52.9375 187.563 52.2789 186.506 52.1739C185.726 52.0862 184.939 52.2528 184.259 52.6495C183.678 52.9888 183.114 53.3594 182.557 53.7368C181.48 54.4668 180.381 55.1455 179.096 55.4358C177.612 55.7707 176.148 55.7818 174.753 55.054C173.844 54.5611 173.074 53.8437 172.515 52.9687C172.36 52.7455 172.207 52.5021 172.073 52.3124C171.787 52.5602 171.509 52.7767 171.261 53.0246C170.58 53.7262 169.825 54.3513 169.01 54.8888C166.814 56.3132 163.979 55.6255 162.522 53.7435C162.153 53.2211 161.817 52.6769 161.513 52.1137C161.425 51.9663 161.361 51.8011 161.259 51.5935C161.062 51.8167 160.914 52.0221 160.742 52.1985C160.007 52.9442 159.275 53.6921 158.53 54.4199C158.288 54.6283 158.03 54.8172 157.758 54.9848C156.686 55.7349 155.518 55.8019 154.306 55.4447C152.951 55.0406 152.144 54.0873 151.759 52.741C151.697 52.5178 151.653 52.2945 151.582 52.0154L151.016 52.7098C150.156 53.7457 149.2 54.6588 147.982 55.2594C147.211 55.6364 146.338 55.747 145.499 55.5742C144.276 55.3509 143.488 54.5829 143.046 53.4376C142.911 53.0915 142.814 52.7299 142.681 52.3213C142.564 52.4575 142.46 52.5646 142.372 52.6807C141.718 53.5501 140.931 54.3077 140.039 54.9245C139.492 55.2929 138.871 55.5328 138.22 55.6263C137.569 55.7198 136.906 55.6646 136.279 55.4648C134.769 55.0384 134.068 53.902 133.814 52.4218C133.548 50.8991 133.827 49.4345 134.283 47.9945C135.052 45.5387 136.198 43.277 137.458 41.0601C137.624 40.7654 137.796 40.4729 137.962 40.167C137.976 40.1425 137.962 40.1001 137.962 40.0286H134.325C134.269 40.2251 134.214 40.4082 134.163 40.5957C133.007 44.9266 130.803 48.8998 127.75 52.1583C126.637 53.3866 125.281 54.3661 123.77 55.0339C122.293 55.6635 120.767 55.8689 119.21 55.3956C117.235 54.7972 116.087 53.3862 115.579 51.4193C115.293 50.2185 115.234 48.9739 115.406 47.7512C115.42 47.6462 115.428 47.5413 115.442 47.3939C114.274 47.0416 113.211 46.4044 112.346 45.5387C112.156 45.9852 112.003 46.3647 111.837 46.7353C110.862 48.93 109.674 50.9907 108.06 52.779C107.288 53.6663 106.37 54.4125 105.347 54.9848C104.473 55.4686 103.482 55.6916 102.488 55.6278C100.76 55.5161 99.5508 54.4534 99.2191 52.7254C98.9692 51.4216 99.1793 50.1691 99.6061 48.93C100.137 47.4029 100.933 46.0097 101.736 44.6255C102.326 43.6097 102.941 42.6162 103.489 41.5669C103.781 40.9582 104.039 40.3336 104.261 39.696C104.298 39.5406 104.322 39.3822 104.332 39.2226C102.242 40.6493 99.9776 41.1873 97.5672 41.1806C97.4744 41.4039 97.3925 41.5713 97.3218 41.7522C95.8733 45.3132 93.9494 48.5549 91.2914 51.3233C89.5643 53.1228 87.6161 54.6142 85.2765 55.5273C83.4758 56.263 81.4939 56.4189 79.6021 55.9738C77.0192 55.3599 75.2081 53.7747 74.0427 51.4015C73.3096 49.8693 72.8828 48.2064 72.7867 46.5076C72.4284 41.3726 73.6712 36.5592 75.9445 31.9957C77.3808 29.0782 79.2939 26.426 81.6034 24.1504C82.8478 22.9012 84.2708 21.8476 85.8249 21.0248C86.8367 20.4688 87.9475 20.1205 89.0933 20C89.2835 20 89.4758 20 89.7102 20ZM153.678 40.7631C153.678 40.5622 153.663 40.3166 153.641 40.0643C153.625 39.922 153.596 39.7814 153.555 39.6446C153.52 39.4912 153.453 39.347 153.359 39.2219C153.265 39.0968 153.145 38.9935 153.007 38.9192C152.87 38.8449 152.719 38.8013 152.563 38.7912C152.408 38.7812 152.252 38.805 152.106 38.861C151.835 38.9396 151.578 39.0625 151.345 39.2249C150.913 39.5335 150.506 39.8778 150.129 40.2541C148.398 42.0558 147.237 44.2058 146.445 46.5679C145.853 48.2541 145.571 50.035 145.611 51.8234C145.629 52.2825 145.724 52.7353 145.89 53.163C145.939 53.3175 146.019 53.4604 146.124 53.5826C146.23 53.7048 146.359 53.8038 146.504 53.8735C146.649 53.9432 146.807 53.9821 146.968 53.9877C147.128 53.9934 147.288 53.9657 147.438 53.9064C147.876 53.7711 148.284 53.5545 148.643 53.2679C149.102 52.8779 149.516 52.436 149.875 51.9507C151.042 50.4013 151.808 48.6353 152.438 46.8157C153.138 44.8691 153.556 42.8305 153.678 40.7631ZM173.304 46.6304C173.393 46.5634 173.428 46.5478 173.444 46.521C173.548 46.3357 173.665 46.1504 173.753 45.9606C175.382 42.8362 176.793 39.6008 177.975 36.2779C178.839 33.8622 179.622 31.422 180.04 28.8813C180.133 28.3362 180.182 27.7844 180.186 27.2314C180.186 26.6531 179.775 26.4321 179.286 26.7424C179.019 26.9154 178.784 27.1345 178.592 27.3899C178.262 27.8251 177.962 28.2823 177.694 28.7585C177.005 30.0246 176.421 31.3464 175.949 32.7102C174.787 35.9292 173.985 39.2689 173.556 42.6675C173.369 43.976 173.285 45.2973 173.304 46.6192V46.6304ZM94.5664 37.738C94.6217 37.5795 94.6526 37.4969 94.6792 37.4142C95.3346 35.4183 95.8518 33.3787 96.2271 31.3103C96.5611 29.4283 96.7601 27.5328 96.5699 25.615C96.5491 25.0607 96.4031 24.5185 96.1431 24.0298C96.041 23.8514 95.9006 23.6983 95.7322 23.5818C95.5637 23.4653 95.3716 23.3884 95.1699 23.3567C94.9682 23.325 94.762 23.3393 94.5665 23.3986C94.371 23.4579 94.1911 23.5607 94.0401 23.6994C93.8005 23.9096 93.6031 24.1643 93.4585 24.4496C93.1793 25.004 92.9513 25.5832 92.7774 26.1798C92.1671 28.4411 92.0166 30.8038 92.3351 33.1254C92.4727 34.3171 92.865 35.4643 93.485 36.4877C93.7642 36.9696 94.1311 37.3938 94.5664 37.738ZM94.3453 71.7337V67.878C94.5178 68.1013 94.6151 68.2196 94.6991 68.3446L96.6473 71.2805C96.7114 71.3879 96.7816 71.4915 96.8574 71.5908C97.0277 71.8029 97.1537 71.8141 97.3262 71.6087C97.4057 71.5111 97.4795 71.409 97.5473 71.3028L99.5243 68.387C99.6194 68.2486 99.7255 68.1191 99.825 67.9852L99.94 68.0187V71.7337H102.521V65.0069C101.857 65.0069 101.216 65.0225 100.584 65.0069C100.446 64.9892 100.306 65.0156 100.183 65.0825C100.061 65.1494 99.963 65.2534 99.9024 65.3797C99.4226 66.1924 98.914 66.9872 98.412 67.7865C98.3434 67.8981 98.255 67.9963 98.1466 68.1392C98.0161 67.9428 97.9255 67.7999 97.8237 67.6503C97.3306 66.8689 96.8308 66.0875 96.351 65.2971C96.3038 65.2033 96.2301 65.1258 96.1391 65.0745C96.0481 65.0232 95.944 65.0004 95.8402 65.0091C95.0264 65.0203 94.2126 65.0091 93.4077 65.0091C93.3156 65.0178 93.2249 65.038 93.1379 65.0694V71.7672C93.4099 71.7672 93.6354 71.7672 93.8632 71.7672C93.9959 71.756 94.1352 71.7449 94.3541 71.7337H94.3453ZM163.366 45.5543C163.466 45.4828 163.501 45.4695 163.517 45.4427C163.592 45.3199 163.661 45.1971 163.738 45.0721C165.585 41.699 167.196 38.1993 168.559 34.5989C169.317 32.5896 170.02 30.5423 170.392 28.408C170.463 27.986 170.502 27.559 170.507 27.1309C170.505 27.0464 170.486 26.9632 170.451 26.8865C170.416 26.8097 170.366 26.7409 170.303 26.6844C170.127 26.5527 169.925 26.6844 169.784 26.8228C169.586 27.0005 169.408 27.1997 169.253 27.4167C168.824 28.0865 168.369 28.7562 168.015 29.4707C166.37 32.73 165.123 36.1784 164.3 39.7406C163.831 41.6494 163.519 43.5938 163.366 45.5543ZM120.466 65.0069V71.7047C121.109 71.8163 122.677 71.794 123.064 71.6712C123.126 70.9724 123.007 70.2624 123.097 69.5659H123.737C124.066 70.3115 124.384 71.0394 124.692 71.7359H127.345L126.169 69.1886C126.217 69.1401 126.268 69.0946 126.322 69.0524C127.124 68.5545 127.399 67.811 127.277 66.9001C127.155 65.9892 126.563 65.4467 125.729 65.2078C125.287 65.0879 124.831 65.0235 124.373 65.0158C123.314 64.989 122.255 65.0158 121.193 65.0158L120.466 65.0069ZM140.147 71.7248C139.251 69.4542 138.378 67.2462 137.509 65.027H134.82C134.008 67.2596 133.172 69.4542 132.372 71.7248H133.666L134.013 70.8072H136.854L137.23 71.7158L140.147 71.7248ZM156.854 70.6085L156.456 71.3631C156.712 71.4768 156.973 71.5774 157.239 71.6645C158.338 71.9504 159.484 72.0014 160.604 71.8141C160.97 71.7547 161.328 71.652 161.67 71.5082C162.922 70.9836 163.393 69.3337 162.113 68.3603C161.65 68.0075 161.137 67.7217 160.644 67.4069C160.348 67.2149 160.038 67.0408 159.76 66.8309C159.558 66.6836 159.373 66.4916 159.461 66.2013C159.507 66.0739 159.59 65.9639 159.7 65.8863C159.811 65.8088 159.942 65.7675 160.076 65.7682C160.622 65.7001 161.176 65.7651 161.692 65.958C161.836 66.0116 161.984 66.0562 162.155 66.112L162.511 65.4244C162.45 65.3709 162.384 65.3238 162.314 65.2837C162.186 65.2219 162.054 65.1696 161.918 65.1275C160.929 64.8329 159.89 64.747 158.866 64.8752C158.283 64.9184 157.716 65.0947 157.21 65.3909C156.237 66.0093 156.104 67.1904 156.956 67.974C157.252 68.2257 157.57 68.4498 157.907 68.6438C158.28 68.8805 158.678 69.0792 159.052 69.3136C159.249 69.4342 159.427 69.5848 159.578 69.7601C159.651 69.8337 159.703 69.9244 159.732 70.0239C159.761 70.1235 159.764 70.2286 159.742 70.3299C159.72 70.4311 159.673 70.5251 159.606 70.6034C159.539 70.6818 159.453 70.7418 159.357 70.7782C159.15 70.8766 158.922 70.9225 158.694 70.9121C158.09 70.8451 157.506 70.7246 156.847 70.6129L156.854 70.6085ZM119.303 46.0499C119.511 46.0499 119.615 46.0499 119.718 46.0298C121.358 45.8073 122.892 45.0853 124.115 43.9602C125.057 43.1437 125.748 42.0713 126.105 40.8703C126.219 40.4776 126.271 40.0693 126.26 39.6602C126.231 38.9168 125.698 38.4881 124.968 38.6042C124.602 38.6565 124.249 38.7793 123.929 38.9659C123.429 39.266 122.963 39.6193 122.538 40.0197C121.103 41.4084 120.198 43.1297 119.586 45.0185C119.484 45.3444 119.404 45.6749 119.296 46.0566L119.303 46.0499ZM108.104 65.027C108.104 65.4311 108.104 65.7682 108.104 66.1053C108.104 67.1055 108.084 68.1147 108.127 69.1037C108.182 70.3897 108.898 71.2827 110.117 71.6422C111.021 71.9095 111.977 71.9418 112.896 71.7359C114.146 71.4613 114.847 70.6196 114.94 69.3381C114.957 69.0702 114.962 68.8023 114.964 68.5344C114.964 67.465 114.982 66.3933 114.984 65.3239C114.975 65.2232 114.956 65.1237 114.926 65.027H113.878C113.878 65.1944 113.858 65.3306 113.858 65.4735C113.858 66.5898 113.858 67.724 113.858 68.847C113.858 69.1477 113.823 69.4473 113.754 69.74C113.696 70.0505 113.536 70.3322 113.301 70.5399C113.065 70.7476 112.767 70.8693 112.454 70.8853C112.134 70.9186 111.812 70.8423 111.539 70.6686C111.267 70.4949 111.06 70.2339 110.953 69.9275C110.84 69.5717 110.784 69.2004 110.785 68.8269C110.767 67.7106 110.785 66.5786 110.785 65.4534C110.785 65.3172 110.769 65.1788 110.758 65.0248L108.104 65.027ZM145.333 65.027V71.7136H151.093V70.8206H147.916V65.0158L145.333 65.027Z" fill="black"/>
<path d="M123.096 68.603V65.9239C123.675 65.8502 124.213 65.8078 124.604 66.3257C124.931 66.7589 124.956 67.6229 124.662 68.1118C124.299 68.7079 123.737 68.6566 123.096 68.603Z" fill="black"/>
<path d="M136.588 69.9129H134.319C134.614 68.872 134.988 67.8554 135.438 66.8721L136.588 69.9129Z" fill="black"/>
</svg>
