<svg width="262" height="95" viewBox="0 0 262 95" fill="none" xmlns="http://www.w3.org/2000/svg">
<g clip-path="url(#clip0_803_5217)">
<path d="M87.8508 49.358L79.3143 62.7279C77.8388 61.4405 76.712 59.8274 75.8697 58.3799C73.9917 55.1482 58.405 24.8992 58.405 24.8992C70.0749 24.8992 81.659 39.9142 87.8508 49.358Z" fill="black"/>
<path d="M126.751 65.1083V65.5303H108.116C108.116 65.5303 97.5623 65.0656 92.3847 56.7702C92.0627 56.2521 90.4209 53.2875 87.8508 49.3562L104.038 24C126.391 30.5006 88.3337 63.4524 103.62 62.726C109.227 62.4536 111.014 61.2731 113.187 60.7924C118.101 59.6867 126.751 65.1083 126.751 65.1083Z" fill="black"/>
<path d="M92.3848 56.7724C92.0629 56.2543 90.421 53.2898 87.851 49.3584L79.3145 62.7282C79.3252 62.7389 79.3413 62.7496 79.3521 62.7603H79.3574C79.3789 62.7816 79.4003 62.7976 79.4218 62.819C79.4594 62.8457 79.4969 62.8778 79.5291 62.9152L79.5345 62.9205C83.4727 66.3231 86.7296 67.8668 89.6323 68.3795C89.7021 68.3902 89.7665 68.4009 89.8362 68.4116C96.3714 69.4692 101.152 65.3295 108.095 65.5378C108.106 65.5325 108.116 65.5325 108.116 65.5325C108.116 65.5325 97.5625 65.0678 92.3848 56.7724Z" fill="black"/>
<path d="M89.6322 68.3763C76.755 66.4213 55.2072 70.999 55.2072 70.999L54 69.8025L79.3358 62.757H79.3573C79.3787 62.7784 79.4002 62.7944 79.4216 62.8158C79.4592 62.8425 79.4968 62.8745 79.529 62.9119L79.5343 62.9173C83.4726 66.3198 86.7294 67.8635 89.6322 68.3763Z" fill="black"/>
<path d="M138.195 42.9469V46.6325C138.769 45.9221 139.542 45.5642 140.524 45.5642C141.506 45.5642 142.273 45.9221 142.836 46.6325C143.4 47.343 143.679 48.2457 143.679 49.3354C143.679 50.5105 143.378 51.4613 142.772 52.1877C142.166 52.9142 141.377 53.2774 140.406 53.2774C139.386 53.2774 138.614 52.9035 138.093 52.1557L137.621 53.0798H136.178V42.9469H138.195ZM139.891 47.1133C139.349 47.1133 138.919 47.3163 138.598 47.7169C138.281 48.1175 138.12 48.6677 138.12 49.3621C138.12 50.0725 138.276 50.6333 138.592 51.0393C138.909 51.4452 139.338 51.6482 139.891 51.6482C140.416 51.6482 140.835 51.4399 141.157 51.0233C141.473 50.6066 141.634 50.0458 141.634 49.346C141.634 48.673 141.473 48.1335 141.157 47.7276C140.84 47.3163 140.416 47.1133 139.891 47.1133Z" fill="black"/>
<path d="M154.732 42.9469V53.0691H152.703V42.9469H154.732Z" fill="black"/>
<path d="M162.968 53.0736H160.913C160.848 52.8866 160.8 52.6462 160.768 52.3631C160.151 52.9774 159.351 53.2872 158.38 53.2872C157.559 53.2872 156.921 53.0896 156.454 52.6997C155.987 52.3044 155.751 51.7649 155.751 51.0705C155.751 50.7553 155.794 50.4829 155.874 50.2479C155.955 50.0129 156.089 49.8099 156.277 49.6497C156.465 49.4894 156.636 49.3559 156.803 49.249C156.969 49.1422 157.2 49.0621 157.495 48.9926C157.79 48.9285 158.026 48.8751 158.208 48.8431C158.391 48.811 158.643 48.7736 158.965 48.7363C159.678 48.6401 160.156 48.544 160.403 48.4371C160.644 48.3303 160.768 48.138 160.768 47.8549C160.768 47.2032 160.322 46.8721 159.437 46.8721C158.97 46.8721 158.627 46.9575 158.407 47.1231C158.187 47.2887 158.047 47.5825 157.978 47.9991H156.078C156.191 46.3486 157.328 45.526 159.491 45.526C161.632 45.526 162.705 46.3219 162.705 47.9137V51.0865C162.71 52.0106 162.796 52.6729 162.968 53.0736ZM160.757 49.5001C160.521 49.6443 160.043 49.7725 159.33 49.8847C158.729 49.9808 158.337 50.0983 158.16 50.2372C157.951 50.4188 157.843 50.6645 157.843 50.9743C157.843 51.2788 157.94 51.5192 158.139 51.6955C158.332 51.8717 158.605 51.9572 158.96 51.9572C159.501 51.9572 159.936 51.813 160.269 51.5245C160.596 51.2361 160.762 50.8355 160.762 50.3227V49.5001H160.757Z" fill="black"/>
<path d="M170.168 45.7331V47.1967L166.283 51.4753H170.425V53.067H163.638V51.5287L167.539 47.2768H163.939V45.7278H170.168V45.7331Z" fill="black"/>
<path d="M174.75 45.5214C175.882 45.5214 176.794 45.8792 177.487 46.5897C178.179 47.3001 178.522 48.2402 178.522 49.4046C178.522 50.5798 178.179 51.5252 177.487 52.2356C176.794 52.9461 175.877 53.304 174.723 53.304C173.57 53.304 172.647 52.9461 171.955 52.2356C171.257 51.5252 170.914 50.5798 170.914 49.4046C170.914 48.2402 171.268 47.3001 171.971 46.5897C172.668 45.8792 173.602 45.5214 174.75 45.5214ZM174.696 47.0597C174.155 47.0597 173.725 47.268 173.409 47.6847C173.092 48.1013 172.937 48.6729 172.937 49.4046C172.937 50.1525 173.092 50.7347 173.409 51.1513C173.725 51.568 174.16 51.7763 174.723 51.7763C175.287 51.7763 175.721 51.568 176.032 51.146C176.344 50.724 176.499 50.1364 176.499 49.3886C176.499 48.6568 176.338 48.0853 176.022 47.674C175.694 47.2627 175.254 47.0597 174.696 47.0597Z" fill="black"/>
<path d="M184.344 45.606V47.4702C184.059 47.4114 183.796 47.3847 183.56 47.3847C182.895 47.3847 182.401 47.593 182.09 48.015C181.773 48.437 181.618 49.0032 181.618 49.7136V53.0681H179.59V45.7342H181.516V47.0856C181.999 46.0707 182.798 45.5632 183.904 45.5632C183.995 45.5632 184.14 45.5793 184.344 45.606Z" fill="black"/>
<path d="M138.581 59.1694V59.8958H137.068V64.5322C137.068 64.778 137.074 64.9542 137.084 65.0504C137.095 65.1519 137.122 65.2694 137.175 65.4083C137.229 65.5471 137.32 65.6379 137.454 65.686C137.589 65.7341 137.771 65.7555 137.996 65.7555C138.131 65.7555 138.324 65.7394 138.581 65.7127V66.4819C138.286 66.5193 138.023 66.5407 137.798 66.5407C136.913 66.5407 136.403 66.2629 136.269 65.702C136.21 65.467 136.183 64.9275 136.183 64.0942V59.9012V59.1747V56.942H137.068V59.1747H138.581V59.1694Z" fill="black"/>
<path d="M152.505 63.8578C152.381 64.7124 152.049 65.3962 151.512 65.9143C150.976 66.4324 150.273 66.6888 149.404 66.6888C148.373 66.6888 147.553 66.3416 146.93 65.6525C146.313 64.9581 146.002 64.0394 146.002 62.891C146.002 61.6945 146.313 60.7437 146.935 60.0279C147.558 59.3122 148.39 58.9543 149.425 58.9543C150.273 58.9543 150.96 59.1786 151.491 59.622C152.017 60.0653 152.333 60.6849 152.44 61.4701H151.528C151.292 60.2843 150.595 59.6914 149.441 59.6914C148.669 59.6914 148.057 59.9745 147.606 60.5354C147.155 61.1016 146.93 61.8601 146.93 62.8162C146.93 63.7723 147.15 64.5362 147.585 65.097C148.025 65.6632 148.615 65.941 149.355 65.941C149.972 65.941 150.477 65.7594 150.868 65.3908C151.26 65.0276 151.502 64.5095 151.598 63.8471H152.505V63.8578Z" fill="black"/>
<path d="M154.292 56.35C154.292 58.775 154.286 60.1745 154.276 60.5431C154.801 59.5015 155.649 58.978 156.819 58.978C157.667 58.978 158.305 59.2077 158.74 59.6671C159.174 60.1264 159.389 60.7834 159.389 61.6381V66.4722H158.487V61.7502C158.487 60.4042 157.86 59.7312 156.604 59.7312C155.815 59.7312 155.231 59.9982 154.855 60.5324C154.479 61.0665 154.292 61.7609 154.292 62.6156V66.4668H153.406V56.35H154.292Z" fill="black"/>
<path d="M161.546 59.1681V60.5462C161.852 60.0067 162.206 59.6061 162.608 59.3497C163.01 59.0933 163.526 58.9651 164.143 58.9651C164.904 58.9651 165.516 59.1735 165.983 59.5901C166.45 60.0067 166.68 60.6424 166.68 61.497V66.4753H165.779V61.7855C165.779 60.4287 165.157 59.7504 163.906 59.7504C163.204 59.7504 162.64 59.9854 162.222 60.4554C161.803 60.9255 161.594 61.6145 161.594 62.5226V66.4753H160.693V59.1681H161.546Z" fill="black"/>
<path d="M171.139 58.9543C172.196 58.9543 173.039 59.3068 173.661 60.0066C174.283 60.7063 174.595 61.6571 174.595 62.8482C174.595 64.0341 174.283 64.9688 173.666 65.6579C173.049 66.3469 172.207 66.6888 171.139 66.6888C170.071 66.6888 169.224 66.3416 168.591 65.6419C167.957 64.9421 167.641 64.002 167.641 62.8215C167.641 61.6464 167.957 60.7063 168.591 60.0066C169.224 59.3015 170.077 58.9543 171.139 58.9543ZM172.996 60.5514C172.529 59.9852 171.906 59.7074 171.123 59.7074C170.34 59.7074 169.717 59.9905 169.25 60.5514C168.784 61.1176 168.548 61.8708 168.548 62.8215C168.548 63.7884 168.778 64.5522 169.24 65.1131C169.701 65.6739 170.334 65.9517 171.145 65.9517C171.923 65.9517 172.545 65.6739 173.001 65.1131C173.457 64.5522 173.688 63.7937 173.688 62.8376C173.688 61.8814 173.462 61.1176 172.996 60.5514Z" fill="black"/>
<path d="M176.499 56.35V66.4722H175.614V56.35H176.499Z" fill="black"/>
<path d="M181.012 58.9543C182.069 58.9543 182.911 59.3068 183.533 60.0066C184.156 60.7063 184.467 61.6571 184.467 62.8482C184.467 64.0341 184.156 64.9688 183.539 65.6579C182.922 66.3469 182.079 66.6888 181.012 66.6888C179.944 66.6888 179.096 66.3416 178.463 65.6419C177.83 64.9421 177.513 64.002 177.513 62.8215C177.513 61.6464 177.83 60.7063 178.463 60.0066C179.096 59.3015 179.949 58.9543 181.012 58.9543ZM182.868 60.5514C182.401 59.9852 181.779 59.7074 180.996 59.7074C180.212 59.7074 179.59 59.9905 179.123 60.5514C178.656 61.1176 178.425 61.8708 178.425 62.8215C178.425 63.7884 178.656 64.5522 179.118 65.1131C179.579 65.6739 180.212 65.9517 181.022 65.9517C181.8 65.9517 182.423 65.6739 182.879 65.1131C183.335 64.5522 183.566 63.7937 183.566 62.8376C183.566 61.8814 183.335 61.1176 182.868 60.5514Z" fill="black"/>
<path d="M191.705 59.1681V66.08C191.705 68.2594 190.61 69.3491 188.421 69.3491C187.525 69.3491 186.817 69.1568 186.291 68.7722C185.765 68.3876 185.481 67.8427 185.433 67.143H186.334C186.479 68.1472 187.187 68.6493 188.464 68.6493C189.333 68.6493 189.945 68.425 190.315 67.9816C190.68 67.5383 190.868 66.8759 190.868 66.0053V64.7821C190.374 65.8557 189.527 66.3899 188.325 66.3899C187.354 66.3899 186.581 66.0587 186.002 65.4017C185.427 64.7447 185.138 63.8633 185.138 62.763C185.138 61.6145 185.433 60.6958 186.028 60.0014C186.624 59.3123 187.413 58.9651 188.395 58.9651C189.553 58.9651 190.39 59.4886 190.895 60.5409V59.1628H191.705V59.1681ZM190.192 60.5088C189.752 59.9907 189.167 59.7343 188.437 59.7343C187.702 59.7343 187.123 60.0014 186.688 60.5302C186.254 61.059 186.039 61.7801 186.039 62.6935C186.039 63.5856 186.254 64.296 186.683 64.8248C187.112 65.3536 187.686 65.6207 188.411 65.6207C189.162 65.6207 189.757 65.3483 190.197 64.8034C190.637 64.2586 190.852 63.5215 190.852 62.592C190.847 61.7214 190.632 61.027 190.192 60.5088Z" fill="black"/>
<path d="M193.948 56.3116V57.7752H193.046V56.3116H193.948ZM193.948 59.1693V66.4765H193.046V59.1693H193.948Z" fill="black"/>
<path d="M207.742 61.2996H206.873C206.787 60.2367 206.127 59.7079 204.888 59.7079C204.362 59.7079 203.949 59.8147 203.638 60.0337C203.327 60.2527 203.176 60.5465 203.176 60.915C203.176 61.0967 203.209 61.2516 203.278 61.3851C203.343 61.5186 203.423 61.6255 203.504 61.7056C203.59 61.7857 203.74 61.8658 203.954 61.9406C204.169 62.0154 204.357 62.0742 204.512 62.1169C204.668 62.1596 204.926 62.2184 205.274 62.2932C205.591 62.3679 205.843 62.432 206.031 62.4801C206.219 62.5282 206.455 62.6083 206.739 62.7312C207.018 62.8487 207.243 62.9769 207.404 63.1158C207.565 63.2546 207.705 63.4362 207.828 63.6713C207.946 63.9063 208.005 64.168 208.005 64.4618C208.005 65.1348 207.737 65.6797 207.201 66.091C206.664 66.5023 205.961 66.7106 205.092 66.7106C204.148 66.7106 203.418 66.4809 202.892 66.0269C202.366 65.5728 202.098 64.9265 202.077 64.0932H202.946C202.946 64.7022 203.134 65.1669 203.514 65.4874C203.895 65.8079 204.427 65.9735 205.113 65.9735C205.714 65.9735 206.197 65.8453 206.562 65.5835C206.927 65.3218 207.115 64.9799 207.115 64.5526C207.115 64.3229 207.056 64.1253 206.938 63.9544C206.82 63.7834 206.659 63.6499 206.46 63.5484C206.262 63.4469 206.063 63.3668 205.87 63.308C205.677 63.2439 205.468 63.1905 205.248 63.1425C205.183 63.1318 205.135 63.1211 205.103 63.1158C205.038 63.0997 204.883 63.0623 204.647 63.0089C204.411 62.9555 204.239 62.9181 204.148 62.8967C204.051 62.8754 203.901 62.8273 203.692 62.7632C203.482 62.6991 203.332 62.635 203.235 62.5763C203.139 62.5175 203.021 62.4374 202.871 62.3359C202.726 62.2291 202.613 62.1222 202.543 61.9994C202.474 61.8819 202.409 61.743 202.356 61.5774C202.302 61.4171 202.275 61.2355 202.275 61.0379C202.275 60.4023 202.517 59.9002 202.994 59.5316C203.477 59.163 204.132 58.9761 204.974 58.9761C205.811 58.9761 206.482 59.1737 206.986 59.5743C207.49 59.9643 207.742 60.5411 207.742 61.2996Z" fill="black"/>
<path d="M149.779 50.9207C149.151 51.4922 148.867 51.8608 148.153 51.8608C147.612 51.8608 147.188 51.6952 146.887 51.364C146.587 51.0329 146.431 50.5468 146.426 49.9111H151.711V49.7135C151.711 48.4262 151.383 47.4006 150.724 46.6475C150.069 45.8943 149.178 45.5151 148.068 45.5151C146.989 45.5151 146.104 45.8836 145.412 46.6261C144.714 47.3632 144.371 48.3033 144.371 49.4411C144.371 50.5949 144.714 51.5243 145.406 52.2294C146.098 52.9291 147.011 53.2816 148.143 53.2816C148.99 53.2816 149.72 53.0626 150.337 52.63C150.568 52.4644 150.761 52.2667 150.938 52.0531L149.779 50.9207ZM146.957 47.4273C147.252 47.1336 147.622 46.984 148.073 46.984C148.551 46.984 148.921 47.1389 149.189 47.4434C149.457 47.7532 149.613 48.1484 149.661 48.6292H146.431C146.485 48.1217 146.662 47.7211 146.957 47.4273Z" fill="black"/>
<path d="M200.725 64.2127C200.531 64.5653 200.344 64.8591 200.145 65.1475C199.748 65.7137 199.147 65.9968 198.348 65.9968C197.521 65.9968 196.899 65.7137 196.486 65.1528C196.073 64.5866 195.863 63.8869 195.863 63.0429H201.535V62.7812C201.535 61.7022 201.256 60.7942 200.698 60.0677C200.14 59.3359 199.346 58.9727 198.305 58.9727C197.312 58.9727 196.507 59.3413 195.885 60.0731C195.262 60.8049 194.951 61.7556 194.951 62.9094C194.951 64.0685 195.257 64.9926 195.874 65.6817C196.491 66.3761 197.307 66.7179 198.326 66.7179C199.174 66.7179 199.871 66.4829 200.413 66.0128C200.8 65.6763 201.057 65.2116 201.283 64.7309L200.725 64.2127ZM196.582 60.4363C196.969 59.9556 197.532 59.7098 198.272 59.7098C198.959 59.7098 199.512 59.9395 199.93 60.3989C200.349 60.8583 200.585 61.4939 200.633 62.3112H195.863C195.955 61.542 196.196 60.917 196.582 60.4363Z" fill="black"/>
<path d="M144.591 64.2127C144.398 64.5653 144.21 64.8591 144.011 65.1475C143.614 65.7137 143.013 65.9968 142.214 65.9968C141.388 65.9968 140.765 65.7137 140.352 65.1528C139.939 64.5866 139.73 63.8869 139.73 63.0429H145.401V62.7812C145.401 61.7022 145.122 60.7942 144.564 60.0677C144.006 59.3359 143.212 58.9727 142.171 58.9727C141.178 58.9727 140.373 59.3413 139.751 60.0731C139.129 60.8102 138.818 61.7556 138.818 62.9094C138.818 64.0685 139.123 64.9926 139.74 65.6817C140.357 66.3761 141.173 66.7179 142.192 66.7179C143.04 66.7179 143.738 66.4829 144.28 66.0128C144.666 65.6763 144.923 65.2116 145.149 64.7309L144.591 64.2127ZM140.449 60.4363C140.835 59.9556 141.398 59.7098 142.139 59.7098C142.826 59.7098 143.378 59.9395 143.797 60.3989C144.215 60.8583 144.451 61.4939 144.5 62.3112H139.73C139.821 61.542 140.062 60.917 140.449 60.4363Z" fill="black"/>
</g>
<defs>
<clipPath id="clip0_803_5217">
<rect width="154" height="47" fill="white" transform="translate(54 24)"/>
</clipPath>
</defs>
</svg>
