<svg width="262" height="95" viewBox="0 0 262 95" fill="none" xmlns="http://www.w3.org/2000/svg">
<path d="M156.393 37.8141C156.393 39.0559 155.613 39.6402 154.596 39.6402C154.433 39.6411 154.269 39.6289 154.107 39.6037V38.6841C154.222 38.7006 154.337 38.7089 154.453 38.7089C155.012 38.7089 155.37 38.4572 155.37 37.6941V31.0549H156.393V37.8141ZM155.155 28.7279C155.156 28.6314 155.176 28.536 155.213 28.4471C155.251 28.3583 155.305 28.2777 155.374 28.2101C155.442 28.1425 155.524 28.0891 155.613 28.0531C155.702 28.017 155.797 27.999 155.894 28C155.988 27.9997 156.082 28.0183 156.17 28.0549C156.257 28.0915 156.337 28.1453 156.403 28.2131C156.47 28.2809 156.522 28.3614 156.557 28.4498C156.592 28.5382 156.609 28.6328 156.607 28.7279C156.611 28.8235 156.596 28.919 156.561 29.0083C156.527 29.0976 156.475 29.1789 156.408 29.2471C156.341 29.3154 156.261 29.3691 156.172 29.405C156.084 29.4409 155.989 29.4581 155.894 29.4557C155.797 29.4587 155.701 29.442 155.611 29.4067C155.52 29.3713 155.438 29.3181 155.369 29.2501C155.3 29.182 155.246 29.1007 155.209 29.011C155.172 28.9212 155.154 28.8249 155.155 28.7279Z" fill="black"/>
<path d="M157.607 34.0412C157.607 32.3208 158.916 30.9368 160.727 30.9368C161.338 30.942 161.933 31.1284 162.439 31.4726C162.944 31.8169 163.336 32.3035 163.567 32.8712C163.797 33.4389 163.854 34.0622 163.732 34.6627C163.61 35.2631 163.313 35.8139 162.879 36.2454C162.446 36.677 161.894 36.9701 161.295 37.0877C160.695 37.2054 160.075 37.1424 159.511 36.9067C158.947 36.671 158.465 36.2731 158.126 35.7632C157.788 35.2532 157.607 34.6541 157.607 34.0412ZM162.783 34.0412C162.783 32.8464 161.962 31.8916 160.724 31.8916C159.487 31.8916 158.653 32.8464 158.653 34.0412C158.653 35.236 159.487 36.1895 160.724 36.1895C161.962 36.1895 162.783 35.2347 162.783 34.0412Z" fill="black"/>
<path d="M165.046 37.0263V28.0718H166.069V31.9771C166.485 31.261 167.187 30.9336 167.96 30.9336C169.294 30.9336 170.21 31.8649 170.21 33.3453V37.0223H169.198V33.5006C169.198 32.4975 168.639 31.8766 167.794 31.8766C166.842 31.8766 166.069 32.6592 166.069 34.0614V37.0223L165.046 37.0263Z" fill="black"/>
<path d="M171.804 31.0561H172.829V31.9692C173.245 31.2531 173.947 30.9257 174.72 30.9257C176.054 30.9257 176.969 31.857 176.969 33.3374V37.0145H175.958V33.4927C175.958 32.4896 175.399 31.8687 174.554 31.8687C173.602 31.8687 172.829 32.6513 172.829 34.0535V37.0145H171.804V31.0561Z" fill="black"/>
<path d="M178.06 35.2943H179.108C179.238 36.0221 179.888 36.2725 180.487 36.2725C181.137 36.2725 181.63 36.0117 181.63 35.4899C181.63 35.0125 181.357 34.7256 180.642 34.5352L179.785 34.3082C178.745 34.0329 178.251 33.4121 178.251 32.5525C178.251 31.5625 179.119 30.9416 180.309 30.9416C181.57 30.9416 182.38 31.6929 182.475 32.649H181.452C181.385 32.3989 181.235 32.1789 181.028 32.0249C180.82 31.8709 180.567 31.792 180.309 31.8012C179.738 31.8012 179.286 32.0751 179.286 32.5408C179.286 32.9829 179.56 33.2216 180.196 33.4003L181.149 33.6508C182.148 33.9025 182.671 34.5103 182.671 35.4182C182.671 36.613 181.719 37.1504 180.482 37.1504C179.197 37.1504 178.161 36.4982 178.066 35.2995" fill="black"/>
<path d="M183.396 34.0412C183.396 32.3208 184.705 30.9368 186.516 30.9368C187.337 30.9368 188.124 31.2639 188.704 31.8461C189.284 32.4283 189.61 33.2179 189.61 34.0412C189.61 34.8646 189.284 35.6542 188.704 36.2364C188.124 36.8186 187.337 37.1456 186.516 37.1456C184.707 37.1456 183.396 35.7604 183.396 34.0412ZM188.573 34.0412C188.573 32.8464 187.753 31.8916 186.515 31.8916C185.277 31.8916 184.444 32.8464 184.444 34.0412C184.444 35.236 185.277 36.1895 186.515 36.1895C187.753 36.1895 188.573 35.2347 188.573 34.0412Z" fill="black"/>
<path d="M190.835 31.0561H191.858V31.9692C192.275 31.2531 192.977 30.9257 193.751 30.9257C195.084 30.9257 196 31.857 196 33.3374V37.0145H194.989V33.4927C194.989 32.4896 194.43 31.8687 193.585 31.8687C192.632 31.8687 191.858 32.6513 191.858 34.0535V37.0145H190.835V31.0561Z" fill="black"/>
<path d="M156.298 47.7178V50.7035H155.275V41.7477H156.298V47.0617L158.893 44.7334H160.249L157.321 47.3722L160.904 50.7035H159.523L156.298 47.7178Z" fill="black"/>
<path d="M160.595 47.7172C160.595 45.9628 161.749 44.6128 163.617 44.6128C165.485 44.6128 166.607 46.1415 166.477 47.9924H161.633C161.646 48.5066 161.86 48.995 162.231 49.3507C162.601 49.7064 163.097 49.9004 163.609 49.8903C164.358 49.8903 164.965 49.6033 165.334 48.8872H166.381C166.096 49.9385 165.108 50.8216 163.598 50.8216C161.859 50.8216 160.598 49.4963 160.598 47.7172H160.595ZM161.681 47.1798H165.394C165.203 46.0698 164.478 45.5206 163.585 45.5206C162.741 45.5206 161.871 46.0098 161.681 47.1798Z" fill="black"/>
<path d="M167.699 44.7319H168.722V45.6515C169.139 44.9341 169.841 44.608 170.615 44.608C171.947 44.608 172.864 45.5393 172.864 47.0197V50.6981H171.852V47.1763C171.852 46.1732 171.293 45.5523 170.448 45.5523C169.496 45.5523 168.722 46.3415 168.722 47.7385V50.6994H167.699V44.7319Z" fill="black"/>
<path d="M173.995 47.7187C173.995 46.0113 175.244 44.6143 176.911 44.6143C177.821 44.6143 178.613 45.0799 179.005 45.6578V41.7525H180.028V50.7083H179.005V49.7953C178.615 50.3679 177.814 50.8388 176.911 50.8388C175.244 50.8388 173.995 49.4418 173.995 47.7344V47.7187ZM179.088 47.7344C179.088 46.5291 178.255 45.573 177.066 45.573C175.876 45.573 175.031 46.5291 175.031 47.7344C175.031 48.9396 175.863 49.8957 177.066 49.8957C178.268 49.8957 179.088 48.9409 179.088 47.7344Z" fill="black"/>
<path d="M181.244 47.7172C181.244 46.0097 182.493 44.6128 184.158 44.6128C185.068 44.6128 185.86 45.0784 186.252 45.6563V44.7367H187.277V50.7068H186.25V49.7937C185.86 50.3664 185.06 50.8372 184.155 50.8372C182.49 50.8372 181.241 49.4402 181.241 47.7328L181.244 47.7172ZM186.333 47.7328C186.333 46.5276 185.501 45.5715 184.31 45.5715C183.119 45.5715 182.276 46.5276 182.276 47.7328C182.276 48.9381 183.109 49.8941 184.31 49.8941C185.511 49.8941 186.333 48.9394 186.333 47.7328Z" fill="black"/>
<path d="M189.979 41.7477H188.955V50.7022H189.979V41.7477Z" fill="black"/>
<path d="M192.691 41.7477H191.668V50.7022H192.691V41.7477Z" fill="black"/>
<path d="M156.393 65.1721C156.393 66.4125 155.613 66.9982 154.596 66.9982C154.433 66.9995 154.269 66.9877 154.107 66.963V66.0499C154.222 66.0652 154.338 66.073 154.453 66.0734C155.012 66.0734 155.37 65.823 155.37 65.0586V58.4206H156.393V65.1721ZM155.155 56.0858C155.156 55.9893 155.176 55.8938 155.213 55.8049C155.251 55.716 155.305 55.6353 155.374 55.5676C155.442 55.4999 155.524 55.4464 155.613 55.4102C155.702 55.374 155.797 55.3558 155.894 55.3567C155.988 55.3565 156.082 55.3753 156.17 55.4121C156.258 55.4488 156.337 55.5027 156.403 55.5706C156.47 55.6385 156.522 55.7191 156.557 55.8076C156.592 55.896 156.609 55.9907 156.607 56.0858C156.611 56.1815 156.596 56.2769 156.561 56.3662C156.527 56.4555 156.475 56.5368 156.408 56.6051C156.341 56.6733 156.261 56.727 156.172 56.7629C156.084 56.7988 155.989 56.8161 155.894 56.8137C155.797 56.8167 155.701 56.8 155.611 56.7646C155.52 56.7293 155.438 56.676 155.369 56.608C155.3 56.54 155.246 56.4586 155.209 56.3689C155.172 56.2792 155.154 56.1829 155.155 56.0858Z" fill="black"/>
<path d="M157.607 61.3977C157.604 60.7797 157.783 60.1744 158.122 59.6587C158.462 59.143 158.946 58.7399 159.514 58.5005C160.082 58.2611 160.708 58.1962 161.312 58.314C161.917 58.4318 162.473 58.727 162.911 59.1621C163.348 59.5973 163.647 60.153 163.769 60.7587C163.892 61.3644 163.832 61.993 163.599 62.5648C163.365 63.1365 162.967 63.6259 162.456 63.9707C161.945 64.3156 161.343 64.5005 160.727 64.5021C160.317 64.5118 159.909 64.4383 159.528 64.2861C159.147 64.1338 158.8 63.9059 158.509 63.6161C158.217 63.3262 157.987 62.9803 157.832 62.5991C157.678 62.218 157.601 61.8093 157.607 61.3977ZM162.784 61.3977C162.784 60.2042 161.962 59.2481 160.725 59.2481C159.487 59.2481 158.654 60.2042 158.654 61.3977C158.654 62.5912 159.487 63.5473 160.725 63.5473C161.962 63.5473 162.784 62.5912 162.784 61.3977Z" fill="black"/>
<path d="M165.046 64.3813V55.4268H166.069V59.3308C166.485 58.6147 167.187 58.2873 167.96 58.2873C169.294 58.2873 170.21 59.2186 170.21 60.6991V64.3761H169.198V60.8543C169.198 59.8512 168.639 59.2304 167.794 59.2304C166.842 59.2304 166.069 60.013 166.069 61.4152V64.3761L165.046 64.3813Z" fill="black"/>
<path d="M171.804 58.4143H172.829V59.3274C173.245 58.6113 173.947 58.2839 174.72 58.2839C176.054 58.2839 176.969 59.2152 176.969 60.6957V64.3727H175.958V60.8509C175.958 59.8479 175.399 59.227 174.554 59.227C173.602 59.227 172.829 60.0096 172.829 61.4118V64.3727H171.804V58.4143Z" fill="black"/>
<path d="M178.06 62.6509H179.108C179.238 63.3801 179.888 63.6305 180.487 63.6305C181.137 63.6305 181.63 63.3696 181.63 62.8479C181.63 62.3692 181.357 62.0835 180.642 61.8918L179.785 61.6648C178.745 61.3909 178.251 60.77 178.251 59.9104C178.251 58.9191 179.119 58.2983 180.309 58.2983C181.57 58.2983 182.38 59.0509 182.475 60.0057H181.452C181.385 59.7555 181.235 59.5355 181.028 59.3815C180.82 59.2275 180.567 59.1487 180.309 59.1578C179.738 59.1578 179.286 59.4331 179.286 59.8987C179.286 60.3396 179.56 60.5783 180.196 60.7583L181.149 61.0087C182.148 61.2592 182.671 61.8683 182.671 62.7761C182.671 63.9696 181.719 64.507 180.482 64.507C179.197 64.507 178.161 63.8627 178.066 62.6561" fill="black"/>
<path d="M183.396 61.3963C183.396 59.6771 184.705 58.2919 186.516 58.2919C187.337 58.2919 188.124 58.619 188.704 59.2011C189.284 59.7833 189.61 60.5729 189.61 61.3963C189.61 62.2196 189.284 63.0092 188.704 63.5914C188.124 64.1736 187.337 64.5007 186.516 64.5007C184.707 64.5007 183.396 63.1154 183.396 61.3963ZM188.573 61.3963C188.573 60.2028 187.753 59.2467 186.515 59.2467C185.277 59.2467 184.444 60.2028 184.444 61.3963C184.444 62.5898 185.277 63.5407 186.51 63.5407C187.742 63.5407 188.568 62.5846 188.568 61.3911" fill="black"/>
<path d="M190.835 58.4143H191.858V59.3274C192.275 58.6113 192.977 58.2839 193.751 58.2839C195.084 58.2839 196 59.2152 196 60.6957V64.3727H194.989V60.8509C194.989 59.8479 194.43 59.227 193.585 59.227C192.632 59.227 191.858 60.0096 191.858 61.4118V64.3727H190.835V58.4143Z" fill="black"/>
<path d="M66 60.2988V58.6227C68.9393 58.6196 71.7574 57.4466 73.8358 55.3612C75.9143 53.2758 77.0833 50.4482 77.0864 47.499V28H78.7569V47.499C78.7531 50.8926 77.4079 54.146 75.0163 56.5456C72.6247 58.9452 69.3822 60.295 66 60.2988Z" fill="black"/>
<path d="M66 66.998V65.3232C75.7955 65.3232 83.7645 57.3274 83.7645 47.499V28H85.4337V47.499C85.4337 58.2509 76.7159 66.998 66 66.998Z" fill="black"/>
<path d="M126.06 60.2988V58.6227C128.999 58.6196 131.818 57.4466 133.896 55.3612C135.974 53.2758 137.143 50.4482 137.147 47.499V28H138.816V47.499C138.812 50.8923 137.467 54.1456 135.076 56.5452C132.684 58.9447 129.442 60.2946 126.06 60.2988Z" fill="black"/>
<path d="M126.06 66.998V65.3232C135.854 65.3232 143.825 57.3274 143.825 47.499V28H145.494V47.499C145.494 58.2509 136.776 66.998 126.06 66.998Z" fill="black"/>
<path d="M94.2021 28.0654H92.5472V66.9982H94.2021V28.0654Z" fill="black"/>
<path d="M100.787 44.7594C100.841 44.7594 100.899 44.7594 100.953 44.7594C107.921 44.672 113.563 38.9654 113.563 31.9648V28.0048H111.908V31.9648C111.902 34.8657 110.771 37.6503 108.754 39.7288C106.738 41.8073 103.994 43.0165 101.104 43.1002H101.073C101.032 43.1002 100.993 43.1002 100.953 43.1002V28.1H99.2995V44.7463C99.7987 44.7463 100.294 44.7464 100.787 44.7555V44.7594Z" fill="black"/>
<path d="M120.197 32.0579V28H118.543V32.0579C118.543 34.8468 117.89 37.5967 116.635 40.0853C115.381 42.574 113.56 44.7316 111.321 46.3838C110.848 46.7363 110.355 47.0629 109.847 47.362C110.178 47.5968 110.497 47.8434 110.814 48.0964C110.957 48.2138 111.099 48.3334 111.24 48.4551L111.313 48.5203C113.538 50.2124 115.342 52.398 116.584 54.9062C117.826 57.4145 118.473 60.1771 118.474 62.9779V66.9341H120.129V62.9792C120.13 59.9932 119.457 57.0456 118.162 54.3575C116.866 51.6693 114.981 49.3103 112.647 47.4573C114.996 45.6416 116.899 43.309 118.208 40.6391C119.517 37.9692 120.198 35.0334 120.197 32.0579Z" fill="black"/>
<path d="M106.773 51.4636C106.42 51.2874 106.057 51.1298 105.688 50.9915C104.322 50.4709 102.874 50.2057 101.413 50.2089H99.2995V67H100.953V51.8693H101.413C104.179 51.8683 106.833 52.9691 108.79 54.9299C110.748 56.8907 111.85 59.551 111.854 62.3264V66.9935H113.509V62.3264C113.506 60.066 112.874 57.8511 111.684 55.9317C110.494 54.0124 108.793 52.4648 106.773 51.4636Z" fill="black"/>
</svg>
