<svg width="263" height="95" viewBox="0 0 263 95" fill="none" xmlns="http://www.w3.org/2000/svg">
<path d="M69.6482 42.1891V52.7836L60.4797 47.4999L69.6482 42.1891Z" fill="black"/>
<path d="M69.6482 42.1891L60.4797 47.4999V36.9055L69.6482 42.1891Z" fill="black"/>
<path d="M69.6482 52.7836L60.4797 58.0945V47.4999L69.6482 52.7836Z" fill="black"/>
<path d="M60.4772 58.0942V68.7158L51.3087 63.405L60.4772 58.0942Z" fill="black"/>
<path d="M60.4772 36.9054V47.4999L51.3087 42.1891L60.4772 36.9054Z" fill="black"/>
<path d="M60.4772 26.2834V36.9054L51.3087 31.5942L60.4772 26.2834Z" fill="black"/>
<path d="M60.4772 26.2834L51.3087 31.5942V21L60.4772 26.2834Z" fill="black"/>
<path d="M60.4772 68.7158L51.3087 73.9998V63.405L60.4772 68.7158Z" fill="black"/>
<path d="M51.3135 63.4055V74L42.145 68.7163L51.3135 63.4055Z" fill="black"/>
<path d="M51.3135 21V31.5945L42.145 26.2837L51.3135 21Z" fill="black"/>
<path d="M51.3135 31.5945L42.145 36.9052V26.2837L51.3135 31.5945Z" fill="black"/>
<path d="M51.3135 52.7837L42.145 58.0945V47.5L51.3135 52.7837Z" fill="black"/>
<path d="M51.3135 63.4055L42.145 68.7163V58.0945L51.3135 63.4055Z" fill="black"/>
<path d="M42.1414 47.4998V58.0943L33 52.7835L42.1414 47.4998Z" fill="black"/>
<path d="M42.1414 36.9054V47.4998L33 42.1891L42.1414 36.9054Z" fill="black"/>
<path d="M42.1414 47.4998L33 52.7835V42.1891L42.1414 47.4998Z" fill="black"/>
<path d="M90.0913 58.1755C88.4144 58.1755 87.0081 57.8504 85.8181 57.2272C84.6281 56.5769 83.6274 55.7098 82.816 54.5989L84.6551 53.0544C85.3853 54.0299 86.1967 54.7615 87.0622 55.2492C87.9547 55.764 88.9824 56.0079 90.1724 56.0079C91.6329 56.0079 92.7688 55.6556 93.5531 54.9511C94.3374 54.2466 94.7161 53.2983 94.7161 52.1061C94.7161 51.1306 94.4186 50.3719 93.8236 49.83C93.2286 49.2881 92.2549 48.8816 90.9026 48.5565L89.2258 48.1771C87.3326 47.7436 85.8992 47.0933 84.8985 46.2262C83.8978 45.3592 83.411 44.1127 83.411 42.5141C83.411 41.6199 83.5733 40.807 83.9249 40.1025C84.2765 39.398 84.7362 38.8019 85.3312 38.3413C85.9262 37.8807 86.6565 37.5013 87.4949 37.2575C88.3333 37.0136 89.2529 36.8781 90.2535 36.8781C91.7951 36.8781 93.1474 37.1762 94.2563 37.7452C95.3652 38.3142 96.3118 39.1542 97.069 40.2651L95.2029 41.6199C94.6349 40.8341 93.9588 40.2109 93.1474 39.7503C92.3361 39.2897 91.3354 39.0729 90.1454 39.0729C88.8201 39.0729 87.7924 39.3438 87.0351 39.9129C86.2778 40.4819 85.8992 41.3219 85.8992 42.4328C85.8992 43.4082 86.2237 44.1669 86.8458 44.6547C87.4949 45.1695 88.4415 45.5488 89.7397 45.8469L91.4165 46.2262C93.4449 46.6869 94.9054 47.3643 95.7979 48.2855C96.6904 49.2068 97.1502 50.4532 97.1502 51.9706C97.1502 52.9189 96.9879 53.7589 96.6634 54.5447C96.3388 55.3034 95.879 55.9537 95.257 56.4956C94.6349 57.0375 93.9047 57.444 93.0392 57.742C92.1738 58.013 91.1731 58.1755 90.0913 58.1755Z" fill="black"/>
<path d="M101.182 42.5954H103.535V45.034H103.643C104.022 44.0856 104.617 43.3811 105.374 42.9205C106.131 42.4599 107.051 42.2431 108.105 42.2431C109.052 42.2431 109.89 42.4328 110.675 42.8121C111.432 43.1915 112.081 43.7063 112.622 44.4108C113.163 45.0882 113.569 45.9282 113.866 46.9307C114.164 47.9062 114.299 49.0171 114.299 50.2364C114.299 51.4558 114.164 52.5667 113.866 53.5421C113.569 54.5176 113.163 55.3576 112.622 56.0621C112.081 56.7395 111.432 57.2814 110.675 57.6607C109.917 58.0401 109.052 58.2297 108.105 58.2297C106.05 58.2297 104.562 57.2814 103.67 55.4118H103.562V62.4025L101.209 63.7573V42.5954H101.182ZM107.456 56.0892C108.782 56.0892 109.836 55.6556 110.621 54.8157C111.378 53.9757 111.757 52.8647 111.757 51.5099V48.9087C111.757 47.5539 111.378 46.443 110.621 45.603C109.863 44.763 108.809 44.3295 107.456 44.3295C106.915 44.3295 106.429 44.4108 105.942 44.5463C105.455 44.6818 105.049 44.8985 104.698 45.1424C104.346 45.3863 104.076 45.7114 103.859 46.0637C103.643 46.443 103.562 46.8223 103.562 47.2288V52.9189C103.562 53.4067 103.67 53.8673 103.859 54.2466C104.076 54.626 104.346 54.9511 104.698 55.2221C105.049 55.4931 105.455 55.6827 105.942 55.8182C106.429 56.0079 106.942 56.0892 107.456 56.0892Z" fill="black"/>
<path d="M119.437 39.0188C118.923 39.0188 118.544 38.8833 118.328 38.6394C118.112 38.3956 117.976 38.0704 117.976 37.6911V37.3117C117.976 36.9053 118.085 36.6073 118.328 36.3634C118.544 36.1195 118.923 35.984 119.437 35.984C119.951 35.984 120.329 36.1195 120.546 36.3634C120.762 36.6073 120.897 36.9324 120.897 37.3117V37.6911C120.897 38.0975 120.789 38.3956 120.546 38.6394C120.302 38.8833 119.951 39.0188 119.437 39.0188ZM118.274 42.5955H120.627V57.8234H118.274V42.5955Z" fill="black"/>
<path d="M125.631 57.8231V42.5951H127.984V45.386H128.12C128.39 44.6544 128.877 44.0041 129.58 43.4351C130.283 42.8661 131.257 42.568 132.501 42.568H133.42V44.9254H132.041C130.77 44.9254 129.769 45.1693 129.039 45.657C128.309 46.1447 127.957 46.7408 127.957 47.4724V57.796H125.631V57.8231Z" fill="black"/>
<path d="M147.375 57.8237C146.483 57.8237 145.861 57.5798 145.482 57.1192C145.104 56.6586 144.86 56.0625 144.752 55.358H144.617C144.292 56.3063 143.724 57.0108 142.967 57.4715C142.21 57.9321 141.29 58.176 140.235 58.176C138.613 58.176 137.369 57.7695 136.476 56.9295C135.584 56.0896 135.124 54.9786 135.124 53.5696C135.124 52.1335 135.638 51.0226 136.692 50.2639C137.747 49.5052 139.37 49.1259 141.588 49.1259H144.59V47.6085C144.59 46.5247 144.292 45.7118 143.697 45.1157C143.102 44.5196 142.21 44.2486 140.993 44.2486C140.073 44.2486 139.289 44.4654 138.694 44.8718C138.072 45.2783 137.558 45.8473 137.152 46.5247L135.746 45.197C136.152 44.357 136.828 43.6796 137.72 43.0835C138.613 42.5145 139.776 42.2164 141.128 42.2164C142.967 42.2164 144.4 42.6771 145.428 43.5712C146.456 44.4654 146.97 45.7389 146.97 47.3376V55.7102H148.701V57.7966H147.375V57.8237ZM140.587 56.1709C141.182 56.1709 141.723 56.0896 142.21 55.9541C142.697 55.8186 143.129 55.6289 143.481 55.358C143.832 55.1141 144.103 54.8161 144.319 54.4638C144.509 54.1387 144.617 53.7593 144.617 53.38V50.8871H141.507C140.154 50.8871 139.154 51.0768 138.559 51.4832C137.964 51.8897 137.639 52.4587 137.639 53.1903V53.8135C137.639 54.5722 137.909 55.1412 138.45 55.5476C138.937 55.9541 139.667 56.1709 140.587 56.1709Z" fill="black"/>
<path d="M154.572 57.8234C153.734 57.8234 153.111 57.5795 152.706 57.1189C152.273 56.6583 152.084 56.0622 152.084 55.3577V37.5014L154.437 35.984V55.737H156.682V57.8234H154.572Z" fill="black"/>
<path d="M166.092 58.1752C164.415 58.1752 163.008 57.8501 161.818 57.2269C160.628 56.5766 159.628 55.7095 158.816 54.5986L160.655 53.0541C161.386 54.0296 162.197 54.7611 163.062 55.2489C163.955 55.7637 164.983 56.0076 166.173 56.0076C167.633 56.0076 168.769 55.6553 169.553 54.9508C170.338 54.2463 170.716 53.298 170.716 52.1057C170.716 51.1303 170.419 50.3716 169.824 49.8297C169.229 49.2878 168.255 48.8813 166.903 48.5562L165.226 48.1768C163.333 47.7433 161.9 47.093 160.899 46.2259C159.898 45.3588 159.411 44.1124 159.411 42.5138C159.411 41.6196 159.574 40.8067 159.925 40.1022C160.25 39.3977 160.737 38.8016 161.332 38.341C161.927 37.8804 162.657 37.501 163.495 37.2571C164.334 37.0133 165.253 36.8778 166.254 36.8778C167.795 36.8778 169.148 37.1759 170.257 37.7449C171.365 38.3139 172.312 39.1539 173.069 40.2648L171.203 41.6196C170.635 40.8338 169.959 40.2106 169.148 39.75C168.336 39.2893 167.336 39.0726 166.146 39.0726C164.82 39.0726 163.793 39.3435 163.035 39.9125C162.278 40.4816 161.9 41.3215 161.9 42.4325C161.9 43.4079 162.224 44.1666 162.846 44.6543C163.495 45.1692 164.442 45.5485 165.74 45.8466L167.417 46.2259C169.445 46.6865 170.906 47.3639 171.798 48.2852C172.691 49.2065 173.15 50.4529 173.15 51.9703C173.15 52.9186 172.988 53.7586 172.664 54.5444C172.339 55.3031 171.879 55.9534 171.257 56.4953C170.635 57.0372 169.905 57.4436 169.04 57.7417C168.174 58.0127 167.173 58.1752 166.092 58.1752Z" fill="black"/>
<path d="M182.833 58.1754C181.778 58.1754 180.832 57.9858 179.966 57.6064C179.101 57.2271 178.398 56.7123 177.83 56.0078C177.262 55.3304 176.802 54.4904 176.504 53.4878C176.207 52.5124 176.045 51.4014 176.045 50.1821C176.045 48.9628 176.207 47.8519 176.504 46.8764C176.802 45.901 177.262 45.061 177.83 44.3565C178.398 43.6791 179.128 43.1372 179.966 42.7578C180.805 42.3785 181.751 42.1888 182.833 42.1888C184.348 42.1888 185.565 42.514 186.457 43.1643C187.377 43.8146 188.053 44.6816 188.513 45.7384L186.538 46.7409C186.268 45.9551 185.808 45.3319 185.186 44.8984C184.564 44.4649 183.78 44.2481 182.833 44.2481C182.13 44.2481 181.508 44.3565 180.967 44.6004C180.426 44.8171 179.993 45.1423 179.642 45.5487C179.29 45.9552 179.02 46.4429 178.857 46.9848C178.668 47.5538 178.587 48.1499 178.587 48.8273V51.4285C178.587 52.7562 178.938 53.8672 179.669 54.7071C180.372 55.5742 181.454 55.9807 182.833 55.9807C184.726 55.9807 186.106 55.0865 186.944 53.3253L188.648 54.4633C188.161 55.5742 187.431 56.4413 186.457 57.0916C185.511 57.8503 184.293 58.1754 182.833 58.1754Z" fill="black"/>
<path d="M197.574 58.1756C196.546 58.1756 195.626 57.9859 194.788 57.6065C193.949 57.2272 193.219 56.6853 192.624 56.0079C192.029 55.3305 191.569 54.4634 191.218 53.488C190.893 52.5125 190.704 51.4287 190.704 50.2093C190.704 49.0171 190.866 47.9062 191.218 46.9307C191.542 45.9553 192.029 45.1153 192.624 44.4108C193.219 43.7063 193.949 43.1644 194.788 42.8121C195.626 42.4328 196.573 42.2431 197.574 42.2431C198.601 42.2431 199.521 42.4328 200.359 42.8121C201.198 43.1915 201.928 43.7334 202.523 44.4108C203.118 45.1153 203.605 45.9553 203.929 46.9307C204.254 47.9062 204.443 49.0171 204.443 50.2093C204.443 51.4287 204.281 52.5125 203.929 53.488C203.578 54.4634 203.118 55.3034 202.523 56.0079C201.901 56.7124 201.198 57.2543 200.359 57.6065C199.521 57.9859 198.601 58.1756 197.574 58.1756ZM197.574 56.0892C198.845 56.0892 199.9 55.6827 200.684 54.8969C201.495 54.1112 201.901 52.9189 201.901 51.2932V49.0984C201.901 47.4726 201.495 46.2804 200.684 45.4946C199.872 44.7089 198.845 44.3024 197.574 44.3024C196.302 44.3024 195.248 44.7089 194.463 45.4946C193.652 46.2804 193.246 47.4726 193.246 49.0984V51.2932C193.246 52.9189 193.652 54.1112 194.463 54.8969C195.248 55.6827 196.302 56.0892 197.574 56.0892Z" fill="black"/>
<path d="M217.695 55.3573H217.56C217.397 55.7096 217.208 56.0618 216.992 56.387C216.775 56.7392 216.478 57.0373 216.153 57.2812C215.829 57.5521 215.423 57.7418 214.936 57.9044C214.476 58.0669 213.909 58.1482 213.286 58.1482C211.718 58.1482 210.474 57.6334 209.554 56.6308C208.635 55.6283 208.175 54.1922 208.175 52.3497V42.5951H210.528V51.9703C210.528 54.707 211.691 56.0889 214.017 56.0889C214.476 56.0889 214.936 56.0347 215.396 55.8993C215.829 55.7909 216.234 55.6012 216.586 55.3573C216.938 55.1135 217.208 54.8154 217.397 54.4632C217.614 54.1109 217.695 53.6503 217.695 53.1355V42.568H220.048V57.796H217.695V55.3573Z" fill="black"/>
<path d="M226.809 57.8227C225.997 57.8227 225.348 57.5789 224.942 57.1182C224.537 56.6576 224.32 56.0615 224.32 55.3028V39.7768L226.673 38.3678V42.5948H230V44.6812H226.673V55.7092H229.757V57.7956H226.809V57.8227Z" fill="black"/>
</svg>
