<svg width="262" height="95" viewBox="0 0 262 95" fill="none" xmlns="http://www.w3.org/2000/svg">
<path fill-rule="evenodd" clip-rule="evenodd" d="M141.082 42.7091L126.844 27.3973L113.027 42.6848H118.104C118.203 42.5141 118.376 42.4653 118.574 42.4897C118.846 42.5385 119.119 42.636 119.416 42.636C119.639 42.636 119.862 42.6116 120.084 42.6116C120.084 42.5385 120.084 42.4409 120.084 42.3678V41.1487H116.544L126.869 29.7379L137.492 41.1731H133.53V47.5855V60.508C133.53 62.044 133.035 63.4582 132.094 64.6285C131.153 65.7745 129.84 66.5791 128.305 66.896C128.058 66.9448 127.81 66.9935 127.562 67.0423C127.463 67.0667 127.364 67.0667 127.265 67.0911H126.423C126.349 67.0667 126.225 67.0423 126.101 67.0179C123.452 66.7985 121.1 64.8723 120.357 62.361C120.109 61.5076 120.109 60.6055 120.109 59.6546C120.109 59.5814 120.109 59.4839 120.109 59.4108C120.109 57.0457 120.109 54.6563 120.109 52.2669C120.06 52.2669 120.01 52.2669 119.961 52.2669C119.515 52.1693 119.069 52.1449 118.624 52.1449C118.599 52.1449 118.549 52.1449 118.524 52.1449C118.524 54.5588 118.524 56.997 118.524 59.4108C118.524 59.4839 118.524 59.5814 118.524 59.6546C118.524 60.6786 118.524 61.7271 118.822 62.7755C119.267 64.3115 120.183 65.7013 121.496 66.7497C122.783 67.7982 124.319 68.4321 125.928 68.554C125.928 68.554 125.953 68.554 125.978 68.554C126.002 68.554 126.052 68.5784 126.101 68.5784L126.201 68.6028H127.414L127.488 68.5784C127.612 68.554 127.736 68.5296 127.835 68.5052C128.107 68.4565 128.38 68.4077 128.652 68.3589C130.534 67.9444 132.143 66.9936 133.332 65.555C134.496 64.1165 135.139 62.361 135.139 60.4592V47.5368V42.6848H141.082V42.7091Z" fill="black"/>
<path d="M137.07 68.5784H135.856L135.757 68.554C135.707 68.5296 135.658 68.5296 135.633 68.5296C135.633 68.5296 135.608 68.5296 135.583 68.5296C133.972 68.3833 132.436 67.7738 131.147 66.7253C129.858 65.6769 128.941 64.3115 128.471 62.7511C128.148 61.6783 128.173 60.6299 128.173 59.6302C128.173 59.5571 128.173 59.4595 128.173 59.3864C128.173 55.1683 128.173 50.8771 128.173 46.7078C128.173 45.3668 128.173 44.0258 128.173 42.6848H122.671L136.5 27.3973L150.726 42.7091H144.728V47.5611V60.4836C144.728 62.3854 144.109 64.1409 142.919 65.5794C141.754 67.0179 140.119 67.9932 138.235 68.3833C137.963 68.4321 137.69 68.4808 137.417 68.5296C137.293 68.554 137.17 68.5784 137.07 68.6028V68.5784ZM136.079 67.0179H136.922C137.021 66.9935 137.12 66.9936 137.219 66.9692C137.467 66.9204 137.715 66.8716 137.963 66.8229C139.499 66.5059 140.788 65.7013 141.754 64.5554C142.696 63.4094 143.192 61.9709 143.192 60.4348V47.5124V41.0999H147.157L136.525 29.6648L126.19 41.0755H129.759V42.2946C129.759 43.7576 129.759 45.2205 129.759 46.6834C129.759 50.8283 129.759 55.1195 129.759 59.362C129.759 59.4351 129.759 59.5327 129.759 59.6058C129.759 60.5567 129.759 61.4588 130.007 62.3122C130.751 64.8236 133.105 66.7497 135.757 66.9692C135.906 66.9692 136.005 66.9935 136.079 67.0179Z" fill="black"/>
<path d="M120.041 41.4247H118.288V43.1781H120.041V41.4247Z" fill="black"/>
<path d="M120.041 51.9452H118.288V53.6986H120.041V51.9452Z" fill="black"/>
<path d="M131 75.6164C127.261 75.6164 123.668 74.8832 120.247 73.4413C116.947 72.0483 114.015 70.0687 111.473 67.527C108.931 64.9853 106.952 62.0282 105.559 58.7533C104.117 55.3562 103.384 51.7392 103.384 48C103.384 44.2608 104.117 40.6682 105.559 37.2467C106.952 33.9474 108.931 31.0147 111.473 28.473C114.015 25.9313 116.972 23.9517 120.247 22.5586C123.644 21.1167 127.261 20.3835 131 20.3835C134.739 20.3835 138.332 21.1167 141.753 22.5586C145.053 23.9517 147.985 25.9313 150.527 28.473C153.069 31.0147 155.048 33.9718 156.441 37.2467C157.883 40.6437 158.616 44.2608 158.616 48C158.616 51.7392 157.883 55.3318 156.441 58.7533C155.048 62.0526 153.069 64.9853 150.527 67.527C147.985 70.0687 145.028 72.0483 141.753 73.4413C138.356 74.8832 134.739 75.6164 131 75.6164ZM131 21.9477C127.481 21.9477 124.059 22.632 120.858 24.0006C117.754 25.3203 114.968 27.2021 112.573 29.5727C110.178 31.9678 108.296 34.7539 107.001 37.8577C105.632 41.0592 104.948 44.4807 104.948 48C104.948 51.5192 105.632 54.9408 107.001 58.1423C108.32 61.2461 110.202 64.0322 112.573 66.4272C114.968 68.8223 117.754 70.7041 120.858 71.9994C124.059 73.368 127.481 74.0523 131 74.0523C134.519 74.0523 137.941 73.368 141.142 71.9994C144.246 70.6797 147.032 68.7979 149.427 66.4272C151.822 64.0322 153.704 61.2461 154.999 58.1423C156.368 54.9408 157.052 51.5192 157.052 48C157.052 44.4807 156.368 41.0592 154.999 37.8577C153.68 34.7539 151.798 31.9678 149.427 29.5727C147.032 27.1777 144.246 25.2958 141.142 24.0006C137.941 22.632 134.519 21.9477 131 21.9477Z" fill="black"/>
<path d="M131 80C126.688 80 122.497 79.1522 118.549 77.4807C114.746 75.8577 111.33 73.5564 108.375 70.6253C105.444 67.6942 103.142 64.2544 101.519 60.4512C99.8478 56.5026 99 52.3119 99 48C99 43.6881 99.8478 39.4974 101.519 35.5488C103.142 31.7456 105.444 28.3301 108.375 25.3747C111.306 22.4436 114.746 20.1423 118.549 18.5193C122.497 16.8478 126.688 16 131 16C135.312 16 139.503 16.8478 143.451 18.5193C147.254 20.1423 150.67 22.4436 153.625 25.3747C156.556 28.3058 158.858 31.7456 160.481 35.5488C162.152 39.4974 163 43.6881 163 48C163 52.3119 162.152 56.5026 160.481 60.4512C158.858 64.2544 156.556 67.6699 153.625 70.6253C150.694 73.5564 147.254 75.8577 143.451 77.4807C139.503 79.1522 135.312 80 131 80ZM131 17.5503C126.882 17.5503 122.909 18.3497 119.154 19.9485C115.521 21.4746 112.275 23.679 109.465 26.4648C106.679 29.2506 104.475 32.5208 102.949 36.1544C101.35 39.9092 100.55 43.9061 100.55 48C100.55 52.0939 101.35 56.0908 102.949 59.8456C104.475 63.4792 106.679 66.7252 109.465 69.5352C112.251 72.321 115.521 74.5254 119.154 76.0515C122.909 77.6503 126.906 78.4497 131 78.4497C135.094 78.4497 139.091 77.6503 142.846 76.0515C146.479 74.5254 149.725 72.321 152.535 69.5352C155.321 66.7494 157.525 63.4792 159.051 59.8456C160.65 56.0908 161.45 52.0939 161.45 48C161.45 43.9061 160.65 39.9092 159.051 36.1544C157.525 32.5208 155.321 29.2748 152.535 26.4648C149.749 23.679 146.479 21.4746 142.846 19.9485C139.091 18.374 135.118 17.5503 131 17.5503Z" fill="black"/>
</svg>
