<svg width="263" height="96" viewBox="0 0 263 96" fill="none" xmlns="http://www.w3.org/2000/svg">
<path fill-rule="evenodd" clip-rule="evenodd" d="M72.0955 36.8671C72.6983 37.894 75.919 43.3858 79.2533 49.0717C82.5875 54.7575 85.8251 59.9914 86.4475 60.7019C88.784 63.3697 88.702 63.4696 100.25 43.9027L105.334 35.2877L98.53 35.1257C94.7879 35.0367 91.6065 35.0867 91.4598 35.2366C91.3132 35.3859 91.7441 36.2991 92.4166 37.2645C93.3739 38.6395 94.0587 39.0208 95.5676 39.0208C96.6283 39.0208 97.4957 39.2006 97.4957 39.42C97.4957 40.077 88.8172 55.0901 88.4335 55.0964C88.2385 55.0993 85.9779 51.4195 83.4094 46.9179C76.0702 34.0569 76.8505 35.016 73.714 35.0074L71 35.0005L72.0955 36.8671ZM112.529 35.8178C107.166 37.7745 104.653 41.2521 104.327 47.1718C103.983 53.3889 106.375 58.0841 111.225 60.7111C113.565 61.9786 123.044 62.3887 126.584 61.375C132.371 59.7186 136.08 53.8564 135.585 47.1488C135.16 41.3957 132.469 37.6648 127.412 35.8201C124.669 34.819 115.27 34.8179 112.529 35.8178ZM139.943 36.2772C139.218 37.3352 139.068 39.6428 139.068 49.7741V61.9941H141.315H143.562V52.5177C143.562 47.3056 143.743 43.0412 143.963 43.0412C144.183 43.0412 148.561 47.3056 153.692 52.5177C163.203 62.1808 164.776 63.2485 166.014 60.8834C166.354 60.235 166.596 55.4508 166.596 49.3967V39.0208H171.933H177.27V50.5075V61.9941H179.517H181.764V50.5075V39.0208H186.22C190.498 39.0208 190.723 38.9542 191.838 37.353C192.477 36.4352 193 35.5306 193 35.3428C193 35.1544 186.048 35.0005 177.551 35.0005H162.102L162.089 44.9077L162.076 54.815L160.249 52.8048C154.968 46.9949 142.476 35.0005 141.706 35.0005C141.217 35.0005 140.424 35.5748 139.943 36.2772ZM127.307 41.0787C130.947 43.229 132.286 48.6978 130.178 52.814C129.548 54.0454 128.198 55.3267 126.667 56.1463C124.476 57.3196 123.564 57.4529 118.991 57.2691C113.143 57.0331 111.43 56.2014 109.716 52.764C107.259 47.8397 109.266 42.0723 114.069 40.2568C116.803 39.223 125.028 39.7336 127.307 41.0787Z" fill="black"/>
</svg>
