<svg width="262" height="96" viewBox="0 0 262 96" fill="none" xmlns="http://www.w3.org/2000/svg">
<path d="M29.0031 29.9948C30.3098 29.9917 31.6165 29.9917 32.9233 29.9917C32.9171 42.6572 32.9171 55.3226 32.9233 67.9881C31.6165 67.9912 30.3067 67.9912 29 67.9881C29.0061 55.3226 29 42.6572 29.0031 29.9948Z" fill="black"/>
<path d="M230.064 29.9979C231.374 29.9886 232.687 29.9917 234 29.9917C233.997 42.6572 234 55.3226 233.997 67.9912C232.684 67.9881 231.371 67.9943 230.061 67.985C230.064 55.3226 230.061 42.6603 230.064 29.9979Z" fill="black"/>
<path d="M56.346 36.524C57.8649 36.1187 59.4576 36.3338 61.0103 36.287C63.8943 36.3182 66.7845 36.206 69.6685 36.34C71.9346 36.4086 74.0776 37.8273 75.0584 39.904C76.0669 41.8901 75.6149 44.1881 75.7256 46.3302C75.947 49.2144 74.219 52.0175 71.7439 53.3614C69.8868 54.4278 67.6762 54.144 65.6315 54.1752C65.0627 54.1284 64.2879 54.2376 63.9159 53.7044C63.6238 52.638 63.6422 51.4687 63.9374 50.4055C66.0435 49.5667 68.6047 50.7859 70.5448 49.3953C71.9008 48.3912 71.7378 46.5641 71.7286 45.0612C71.6702 43.9044 71.8915 42.6104 71.1844 41.6033C70.5264 40.565 69.2289 40.2095 68.0759 40.2656C65.61 40.275 63.1441 40.2033 60.6813 40.2937C59.9741 40.2625 59.845 41.0545 59.8819 41.6002C59.8573 48.0919 59.8758 54.5837 59.8758 61.0723C59.7804 61.2188 59.5929 61.5088 59.4976 61.6523C58.3231 61.7021 57.1362 61.7084 55.9863 61.4465C55.9033 53.801 55.9832 46.1587 55.9433 38.5133C55.9802 37.8398 55.8449 37.0603 56.346 36.524Z" fill="black"/>
<path d="M82.4407 37.8897C82.4438 37.3503 82.496 36.4866 83.1848 36.4336C84.1502 36.1498 85.1618 36.3338 86.1426 36.4554C86.2932 37.0229 86.4408 37.6028 86.4285 38.1984C86.4347 45.3792 86.4101 52.5569 86.4255 59.7347C86.4009 60.3115 86.4501 60.96 86.0503 61.4277C85.1587 61.8175 84.1287 61.699 83.1909 61.5805C82.4376 61.5306 82.5299 60.5859 82.4622 60.0371C82.4468 52.6536 82.4868 45.2701 82.4407 37.8897Z" fill="black"/>
<path d="M93.3219 36.4803C95.0376 36.1748 96.7809 36.2777 98.515 36.2683C102.109 36.2746 105.704 36.312 109.298 36.2496C109.956 36.2434 110.602 36.3899 111.247 36.5271C111.499 37.6496 111.499 38.8095 111.303 39.9445C109.181 40.6523 106.903 39.9694 104.738 40.3467C104.302 40.4901 104.102 40.8799 104.123 41.3258C104.028 44.977 103.997 48.6251 104.016 52.2763C103.917 55.3507 104.375 58.4407 103.908 61.4963C102.927 61.6834 101.916 61.777 100.926 61.6367C100.246 61.4558 100.185 60.6358 100.145 60.0496C100.077 53.9102 100.218 47.7676 100.142 41.6282C100.098 41.148 100.111 40.434 99.5081 40.3311C97.5342 40.0973 95.5234 40.4714 93.5587 40.1409C92.83 39.1151 93.3004 37.6683 93.3219 36.4803Z" fill="black"/>
<path d="M119.715 37.5561C120.763 36.4772 122.328 36.3089 123.743 36.2683C126.7 36.2434 129.658 36.3057 132.616 36.2714C133.492 36.2434 134.372 36.3432 135.233 36.5178C135.306 37.6091 135.432 38.7253 135.217 39.8042C134.91 40.2438 134.366 40.2438 133.895 40.2563C130.599 40.2844 127.3 40.2282 124.004 40.2719C123.057 40.1534 122.288 41.3725 122.995 42.1209C126.113 45.5881 129.394 48.912 132.576 52.32C133.468 53.299 134.655 54.1565 134.962 55.5284C135.26 57.446 134.652 59.5975 133.142 60.8572C132.127 61.6616 130.774 61.5743 129.566 61.6398C126.396 61.6928 123.229 61.6554 120.062 61.6803C119.49 61.6647 118.888 61.7146 118.362 61.4527C117.885 60.2897 118.19 58.9832 118.344 57.7796C122.07 57.5926 125.809 57.7547 129.541 57.6923C130.359 57.7485 130.925 56.6727 130.461 56.0055C129.84 55.095 129.006 54.3654 128.272 53.5516C125.329 50.4055 122.304 47.3373 119.355 44.2006C117.606 42.3766 117.861 39.2024 119.715 37.5561Z" fill="black"/>
<path d="M142.36 36.5365C145.64 35.9222 149.013 36.4024 152.328 36.3993C154.957 36.4585 157.619 35.9472 160.223 36.4991C160.442 37.4812 160.562 38.5039 160.383 39.5017C160.257 39.8665 160.048 40.2719 159.605 40.2251C157.61 40.3966 155.593 40.0754 153.607 40.3436C153.109 40.7053 153.093 41.3601 153.084 41.9213C153.056 47.9672 153.149 54.0162 153.109 60.062C153.084 60.5235 153.112 61.0318 152.826 61.4215C152.017 61.8643 151.046 61.6865 150.169 61.6678C149.496 61.6865 149.176 60.9725 149.201 60.3863C149.102 53.7761 149.315 47.1534 149.096 40.5431C147.076 39.9725 144.961 40.4215 142.904 40.2251C142.495 40.2313 142.243 39.8135 142.264 39.4362C142.166 38.4697 142.224 37.4968 142.36 36.5365Z" fill="black"/>
<path d="M171.855 36.5864C173.918 36.0656 176.061 36.3026 178.164 36.2652C179.892 36.2901 181.749 36.128 183.32 37.0135C185.313 38.1111 186.905 40.2095 186.939 42.573C186.97 46.0091 186.939 49.442 186.939 52.8781C186.93 54.0474 187.028 55.2291 186.841 56.3921C186.435 58.344 185.042 59.9779 183.354 60.9445C181.383 62.0264 179.08 61.5681 176.94 61.6616C175.145 61.6024 173.306 61.8674 171.547 61.3934C169.063 60.7168 167.231 58.2286 167.224 55.6344C167.209 51.291 167.194 46.9507 167.221 42.6104C167.243 39.8603 169.232 37.2786 171.855 36.5864ZM173.371 40.5619C171.984 41.1137 171.099 42.6104 171.145 44.1039C171.111 47.5463 171.102 50.9917 171.151 54.434C171.102 55.8745 172.107 57.3088 173.543 57.5458C175.176 57.8108 176.836 57.6923 178.481 57.7142C179.763 57.7017 181.27 57.6892 182.183 56.6197C182.924 55.8963 183.025 54.805 183.013 53.8197C183.001 50.4803 183.031 47.1378 183.01 43.7984C183.053 42.5231 182.34 41.2665 181.214 40.6959C179.984 40.0536 178.558 40.3093 177.233 40.2532C175.947 40.3155 174.594 40.0754 173.371 40.5619Z" fill="black"/>
<path d="M194.048 36.4492C194.9 36.3587 195.757 36.3057 196.615 36.259C199.896 36.3244 203.18 36.2558 206.46 36.2839C207.758 36.3182 209.117 36.4554 210.254 37.1538C212.262 38.2545 213.535 40.5712 213.452 42.8786C213.424 44.6371 213.541 46.4051 213.372 48.1605C212.874 50.6144 211.091 52.7534 208.803 53.695C207.174 54.3436 205.399 54.1534 203.693 54.1814C203.041 54.1596 202.337 54.2344 201.762 53.8696C201.461 52.7565 201.255 51.3222 201.873 50.312C203.715 49.8037 205.685 50.4086 207.521 49.838C208.613 49.4576 209.317 48.3507 209.464 47.222C209.661 45.7939 209.618 44.3378 209.424 42.9129C209.298 41.9369 208.689 40.9953 207.776 40.6117C206.78 40.1565 205.667 40.2844 204.609 40.2563C202.555 40.2844 200.498 40.1939 198.445 40.2937C197.744 40.2843 197.587 41.0483 197.633 41.6095C197.605 48.2073 197.642 54.8019 197.599 61.3997C196.342 61.8175 194.976 61.8955 193.731 61.3872C193.633 53.7667 193.728 46.1463 193.685 38.5227C193.636 37.8086 193.802 37.1133 194.048 36.4492Z" fill="black"/>
</svg>
