<svg width="32" height="33" viewBox="0 0 32 33" xmlns="http://www.w3.org/2000/svg">
<path d="M7.7168 10.166H24.3235V11.5933H7.7168V10.166Z"/>
<path d="M5.64066 23.7239C4.11216 23.7239 2.87305 22.4461 2.87305 20.8695V13.0204C2.87305 11.4439 4.11216 10.166 5.64066 10.166C7.16941 10.166 8.40853 11.4439 8.40853 13.0204V20.8695C8.40853 22.4461 7.16941 23.7239 5.64066 23.7239ZM5.64066 11.5933C4.87641 11.5933 4.25685 12.2322 4.25685 13.0204V20.8695C4.25685 21.6577 4.87641 22.2969 5.64066 22.2969C6.40516 22.2969 7.02472 21.6577 7.02472 20.8695V13.0204C7.02472 12.2322 6.40516 11.5933 5.64066 11.5933Z"/>
<path d="M26.4004 23.7239C24.8719 23.7239 23.6328 22.4461 23.6328 20.8695V13.0204C23.6328 11.4439 24.8719 10.166 26.4004 10.166C27.9292 10.166 29.1683 11.4439 29.1683 13.0204V20.8695C29.1683 22.4461 27.9292 23.7239 26.4004 23.7239ZM26.4004 11.5933C25.6362 11.5933 25.0166 12.2322 25.0166 13.0204V20.8695C25.0166 21.6577 25.6362 22.2969 26.4004 22.2969C27.1649 22.2969 27.7845 21.6577 27.7845 20.8695V13.0204C27.7845 12.2322 27.1649 11.5933 26.4004 11.5933Z"/>
<path d="M19.4804 33.0007C17.9517 33.0007 16.7125 31.7226 16.7125 30.1464V26.5786H15.3287V30.1464C15.3287 31.7226 14.0896 33.0007 12.5609 33.0007C11.0324 33.0007 9.793 31.7226 9.793 30.1464V26.5786H9.10123C7.9546 26.5786 7.02539 25.6201 7.02539 24.4379V10.88C7.02539 5.75688 11.0526 1.60352 16.0205 1.60352C20.9886 1.60352 25.0159 5.75688 25.0159 10.88V24.4379C25.0159 25.6201 24.0864 26.5786 22.9401 26.5786H22.248V30.1464C22.248 31.7226 21.0089 33.0007 19.4804 33.0007ZM13.9447 25.1513H18.0963V30.1464C18.0963 30.9345 18.7162 31.5734 19.4804 31.5734C20.2447 31.5734 20.8642 30.9345 20.8642 30.1464V25.1513H22.9401C23.3222 25.1513 23.6321 24.832 23.6321 24.4379V10.88C23.6321 6.54501 20.2244 3.03083 16.0205 3.03083C11.8169 3.03083 8.4092 6.54501 8.4092 10.88V24.4379C8.4092 24.832 8.7191 25.1513 9.10123 25.1513H11.1771V30.1464C11.1771 30.9345 11.7966 31.5734 12.5609 31.5734C13.3251 31.5734 13.9447 30.9345 13.9447 30.1464V25.1513Z"/>
<path d="M13.2532 6.59863H11.8691V8.02568H13.2532V6.59863Z"/>
<path d="M20.1709 6.59863H18.7871V8.02568H20.1709V6.59863Z"/>
<path d="M9.56836 0.816478L10.7168 0.0205078L12.6335 2.96189L11.4848 3.75786L9.56836 0.816478Z"/>
<path d="M19.3926 2.93903L21.3078 0L22.4569 0.796493L20.5417 3.73552L19.3926 2.93903Z"/>
</svg>
