<svg width="127" height="21" viewBox="0 0 127 21" fill="none" xmlns="http://www.w3.org/2000/svg">
<g clip-path="url(#clip0_14_82)">
<path d="M22.1 5.78002H26.78V8.00002H26.87C27.2625 7.22922 27.8653 6.58535 28.6086 6.14291C29.3519 5.70048 30.2053 5.47758 31.07 5.50002C31.4071 5.48013 31.7452 5.51732 32.07 5.61002V9.61002H31.95C28.95 9.21002 27.04 10.61 27.04 13.75V20.29H22.1V5.78002Z" />
<path d="M32.58 13.07C32.58 8.71 35.76 5.38 40.58 5.38C44.76 5.38 47.43 7.67 47.86 10.95H43.2C43.1208 10.3413 42.8178 9.78398 42.3501 9.38651C41.8824 8.98905 41.2834 8.77996 40.67 8.8C38.57 8.8 37.52 10.44 37.52 13.07C37.52 15.7 38.52 17.3 40.67 17.3C41.0121 17.319 41.3546 17.2682 41.6765 17.1509C41.9985 17.0335 42.2932 16.852 42.5429 16.6172C42.7926 16.3825 42.992 16.0995 43.129 15.7854C43.266 15.4713 43.3378 15.1327 43.34 14.79H48C47.88 18.16 45.07 20.79 40.73 20.79C35.79 20.77 32.58 17.43 32.58 13.07Z" />
<path d="M49.59 0H54.47V7.56H54.56C55.0725 6.84241 55.7564 6.26434 56.5493 5.87837C57.3422 5.49239 58.219 5.31077 59.1 5.35C62.46 5.35 64.44 7.61 64.44 10.87V20.31H59.56V11.78C59.6047 11.4469 59.5753 11.1081 59.4738 10.7877C59.3723 10.4673 59.2013 10.1734 58.9729 9.92683C58.7445 9.6803 58.4645 9.4873 58.1528 9.36164C57.8411 9.23599 57.5055 9.18079 57.17 9.2C56.7854 9.20745 56.4067 9.29489 56.0578 9.45675C55.7089 9.61862 55.3976 9.85136 55.1436 10.1402C54.8896 10.4289 54.6985 10.7675 54.5826 11.1342C54.4666 11.5009 54.4282 11.8877 54.47 12.27V20.27H49.59V0Z" />
<path d="M66.66 0H71.54V3.74H66.66V0ZM66.66 5.78H71.54V20.31H66.66V5.78Z" />
<path d="M74.1801 1.09561e-05H83.84C85.9583 -0.140692 88.0504 0.531652 89.6901 1.88001C90.3925 2.50587 90.9497 3.2776 91.3228 4.14124C91.6959 5.00488 91.8758 5.93958 91.8501 6.88001C91.8501 10.78 89.0101 13.52 84.6101 13.52H79.6101V20.3H74.2101V1.09561e-05H74.1801ZM83.5001 9.55001C85.4301 9.55001 86.5001 8.47001 86.5001 6.86001C86.5001 5.25001 85.3901 4.25001 83.5001 4.25001H79.5801V9.55001H83.5001Z" />
<path d="M93.4399 5.78001H98.1299V8.00001H98.2099C98.6032 7.22765 99.2076 6.58273 99.9528 6.1402C100.698 5.69766 101.554 5.47566 102.42 5.50001C102.757 5.47854 103.095 5.51576 103.42 5.61001V9.61001H103.31C100.31 9.21001 98.3899 10.61 98.3899 13.75V20.29H93.4699V5.78001H93.4399Z" />
<path d="M103.92 13.07C103.92 8.72 107.22 5.38 112.13 5.38C117.04 5.38 120.31 8.69 120.31 13.07C120.31 17.45 117.07 20.77 112.13 20.77C107.19 20.77 103.92 17.43 103.92 13.07ZM115.37 13.07C115.37 10.44 114.23 8.64001 112.1 8.64001C109.97 8.64001 108.86 10.41 108.86 13.07C108.86 15.73 109.97 17.48 112.1 17.48C114.23 17.48 115.37 15.71 115.37 13.07Z" />
<path d="M121.33 15.55H126.45V20.31H121.33V15.55Z" />
<path d="M5.34 20.31H0L7.7 0H13.15L20.88 20.31H15.31L14.06 16.65L10.31 5.27L5.34 20.31Z" />
</g>
<defs>
<clipPath id="clip0_14_82">
<rect width="126.45" height="20.77" fill="white"/>
</clipPath>
</defs>
</svg>
