<svg width="81" height="34" viewBox="0 0 81 34" fill="none" xmlns="http://www.w3.org/2000/svg">
<g clip-path="url(#clip0_14_70)">
<path d="M40.24 18.86L44.87 6.99999L49.5 18.86H40.24ZM19.24 18.86H9.93L14.56 6.99999L19.24 18.86ZM74.47 6.99999C73.4274 4.97223 71.8007 3.3037 69.8 2.20999C67.6677 1.08008 65.2827 0.51221 62.87 0.559987C60.4546 0.509387 58.0672 1.0847 55.94 2.22999C53.9373 3.34251 52.3088 5.02316 51.26 7.05999C51.0096 7.54261 50.7891 8.04022 50.6 8.54999L48.6 3.87999C48.2253 3.02464 47.6097 2.29686 46.8284 1.78545C46.0471 1.27404 45.1338 1.00112 44.2 0.999987H42.37L32.49 24.4V4.99999H39.07L40.78 0.999987H15.17C14.2523 0.99883 13.3546 1.26868 12.5897 1.77569C11.8247 2.28271 11.2265 3.00431 10.87 3.84999L0 29.51H5.78L8.37 22.86H20.75L23.37 29.51H29.16L18.76 4.99999H27V20.56L30.74 29.56H36.11L38.7 22.91H51.06L53.68 29.56H62.92C62.92 29.56 65.1 29.44 65.92 29.27L67.43 33.12H73.18L68.86 22.64L68.59 23.01C67.9038 23.8389 67.0319 24.4945 66.0451 24.9236C65.0583 25.3528 63.9842 25.5434 62.91 25.48C61.8324 25.539 60.7559 25.3455 59.7663 24.9149C58.7767 24.4844 57.9014 23.8286 57.21 23C55.85 21.31 55.16 18.91 55.16 15.82V14.14C55.16 11.14 55.88 8.75999 57.24 7.13999C57.9196 6.31505 58.7825 5.66031 59.76 5.228C60.7375 4.79568 61.8025 4.59775 62.87 4.64999C63.9497 4.5894 65.0285 4.78419 66.0189 5.21856C67.0092 5.65292 67.8832 6.31463 68.57 7.14999C69.9033 8.80999 70.57 11.2033 70.57 14.33V15.8C70.6183 17.569 70.3403 19.3317 69.75 21L72 26.32C73.0326 25.3761 73.8834 24.2508 74.51 23C75.6298 20.7468 76.1857 18.2554 76.13 15.74V14.2C76.1683 11.7009 75.5987 9.22999 74.47 6.99999V6.99999Z" />
<path d="M78.27 0.290002C78.0321 0.291097 77.7969 0.340399 77.5786 0.434931C77.3604 0.529462 77.1635 0.667261 77 0.840002C76.8256 1.01011 76.6877 1.21404 76.5948 1.4393C76.502 1.66455 76.4561 1.90639 76.46 2.15C76.4553 2.39521 76.5008 2.63878 76.5937 2.86577C76.6865 3.09275 76.8248 3.29837 77 3.47C77.1712 3.64355 77.3751 3.78136 77.6 3.87542C77.8249 3.96947 78.0662 4.01791 78.31 4.01791C78.5537 4.01791 78.7951 3.96947 79.02 3.87542C79.2448 3.78136 79.4488 3.64355 79.62 3.47C79.792 3.29649 79.9275 3.09031 80.0185 2.8636C80.1095 2.6369 80.1542 2.39426 80.15 2.15C80.1482 1.90449 80.0968 1.66187 79.9989 1.43674C79.9009 1.2116 79.7584 1.00862 79.58 0.840002C79.4111 0.663291 79.2076 0.523259 78.9822 0.428633C78.7569 0.334008 78.5144 0.286817 78.27 0.290002V0.290002ZM80.42 2.15C80.4252 2.43456 80.372 2.71717 80.2637 2.98034C80.1553 3.24351 79.9941 3.48165 79.79 3.68C79.391 4.07571 78.8519 4.29775 78.29 4.29775C77.7281 4.29775 77.1889 4.07571 76.79 3.68C76.5872 3.48115 76.4275 3.2427 76.3209 2.97948C76.2142 2.71627 76.1628 2.43392 76.17 2.15C76.1613 1.87087 76.208 1.59278 76.3076 1.33185C76.4071 1.07093 76.5575 0.832371 76.75 0.630002C77.1514 0.239061 77.6896 0.0202942 78.25 0.0202942C78.8103 0.0202942 79.3485 0.239061 79.75 0.630002C79.961 0.822975 80.1296 1.05778 80.245 1.31948C80.3603 1.58117 80.4199 1.86401 80.42 2.15ZM78.83 1.68C78.8392 1.6125 78.829 1.54378 78.8007 1.48183C78.7723 1.41987 78.727 1.36723 78.67 1.33C78.5119 1.26374 78.3412 1.23302 78.17 1.24H77.82V2.1H78.19C78.3253 2.11066 78.4614 2.09365 78.59 2.05C78.6653 2.02367 78.7298 1.97303 78.7733 1.90606C78.8167 1.83908 78.8367 1.75956 78.83 1.68V1.68ZM78.23 1C78.4471 0.988801 78.6644 1.01935 78.87 1.09C78.988 1.13687 79.0878 1.22057 79.1544 1.32867C79.2211 1.43677 79.2511 1.56349 79.24 1.69C79.2459 1.7813 79.2266 1.87246 79.1843 1.95357C79.142 2.03468 79.0782 2.10262 79 2.15C78.8949 2.21027 78.7796 2.25093 78.66 2.27C78.7409 2.27633 78.8195 2.30018 78.8903 2.3399C78.9611 2.37961 79.0224 2.43424 79.07 2.5C79.1522 2.60602 79.1978 2.73585 79.2 2.87V3.21C79.1959 3.25324 79.1959 3.29676 79.2 3.34V3.34H78.81V3C78.8242 2.89858 78.8114 2.79519 78.7728 2.70035C78.7341 2.6055 78.6711 2.52257 78.59 2.46C78.442 2.39583 78.2808 2.36839 78.12 2.38H77.8V3.32H77.4V1H78.23Z" />
</g>
<defs>
<clipPath id="clip0_14_70">
<rect width="80.42" height="33.09" fill="white"/>
</clipPath>
</defs>
</svg>
