<svg width="23" height="27" viewBox="0 0 23 27" xmlns="http://www.w3.org/2000/svg">
<path d="M21.1248 1.4773C20.2049 0.818726 19.061 0.552502 17.9447 0.737169C16.8285 0.921837 15.8313 1.54228 15.1725 2.46205L4.40846 17.4892C4.16353 17.8137 3.98602 18.184 3.88639 18.5782C3.78676 18.9723 3.76702 19.3825 3.82835 19.7844C3.88967 20.1863 4.03082 20.5719 4.24346 20.9184C4.45611 21.2649 4.73596 21.5654 5.06652 21.8021C5.39709 22.0388 5.77168 22.2069 6.16823 22.2966C6.56479 22.3863 6.97528 22.3957 7.37553 22.3243C7.77577 22.2529 8.15768 22.1021 8.49875 21.8808C8.83982 21.6595 9.13315 21.3722 9.36146 21.0358L16.9616 10.4266L15.9707 9.71605L8.37184 20.3277C8.0893 20.7212 7.66231 20.9867 7.18441 21.066C6.7065 21.1452 6.21667 21.0318 5.82221 20.7506C5.4284 20.4677 5.16294 20.04 5.0841 19.5615C5.00527 19.0831 5.11951 18.5929 5.40174 18.1985L16.1633 3.17136H16.1657L16.1633 3.16892C16.6352 2.51308 17.3478 2.07097 18.145 1.9394C18.9422 1.80782 19.7591 1.99751 20.4167 2.46692C21.0726 2.93886 21.5147 3.65144 21.6463 4.44865C21.7778 5.24585 21.5882 6.06271 21.1187 6.72036V6.71792L9.32125 23.1905C8.66173 24.1094 7.66484 24.7292 6.54907 24.9143C5.4333 25.0993 4.28968 24.8345 3.36887 24.1777C2.4502 23.5174 1.8308 22.5198 1.64644 21.4036C1.46208 20.2874 1.72779 19.1436 2.38534 18.2229L10.9592 6.25236L9.9684 5.54305L1.3945 17.5136C0.975092 18.099 0.675175 18.7614 0.511886 19.4628C0.348598 20.1642 0.32514 20.8909 0.442853 21.6013C0.560566 22.3118 0.817142 22.9921 1.19792 23.6034C1.57869 24.2146 2.07619 24.7448 2.66199 25.1637C3.24707 25.5835 3.90915 25.8839 4.61039 26.0476C5.31162 26.2114 6.03826 26.2353 6.74875 26.1181C7.45924 26.0008 8.13965 25.7446 8.75107 25.3642C9.3625 24.9838 9.89295 24.4866 10.3121 23.9011L22.1096 7.42845C22.7675 6.50826 23.0331 5.36447 22.848 4.24851C22.6629 3.13255 22.0422 2.13577 21.1224 1.4773H21.1248Z" />
</svg>
