<svg width="123" height="20" viewBox="0 0 123 20" fill="none" xmlns="http://www.w3.org/2000/svg">
  <g clip-path="url(#clip0_322_974)">
  <path d="M12.1234 12.5637L6.06168 6.35486L12.1234 0.145996H6.06168L0 6.35486L3.03084 9.49415L9.09252 15.6332L12.1234 12.5637Z" fill="black"/>
  <path d="M16.4343 9.49399L13.4035 6.3547L10.3726 3.28516L7.40915 6.3547L13.4035 12.5635L7.3418 18.7724H13.4035L16.4343 15.7029L19.4652 12.5635L16.4343 9.49399Z" fill="black"/>
  <path d="M27.0079 6.35467C26.1323 6.35467 25.3914 6.6337 24.8527 7.26157C24.3138 7.88944 24.0444 8.72661 24.0444 9.8428C24.0444 10.959 24.3138 11.7962 24.7853 12.424C25.3242 13.0519 25.9976 13.3309 26.9405 13.3309C27.5467 13.3309 28.1529 13.1914 28.8938 12.9821V13.889C28.2876 14.0983 27.6141 14.2378 26.8059 14.2378C25.5935 14.2378 24.6506 13.889 23.9771 13.1216C23.3036 12.3542 22.9668 11.238 22.9668 9.8428C22.9668 8.9359 23.1015 8.16848 23.4383 7.54061C23.7751 6.9128 24.2465 6.35467 24.7853 6.00586C25.3242 5.65704 26.065 5.44775 26.9405 5.44775C27.8162 5.44775 28.557 5.58728 29.2305 5.9361L28.8264 6.77325C28.2876 6.56396 27.6814 6.35467 27.0079 6.35467Z" fill="black"/>
  <path d="M35.4273 11.8663C35.4273 12.6337 35.1579 13.1918 34.6191 13.6104C34.0803 14.029 33.4067 14.2383 32.4638 14.2383C31.4536 14.2383 30.7127 14.0987 30.1738 13.8197V12.843C30.5106 12.9825 30.9147 13.1221 31.2515 13.1918C31.5882 13.2616 32.0597 13.3314 32.4638 13.3314C33.1373 13.3314 33.6088 13.1918 33.8782 12.9825C34.215 12.7035 34.3497 12.3546 34.3497 11.9361C34.3497 11.657 34.2823 11.378 34.1476 11.2385C34.0129 11.0292 33.8109 10.8897 33.5414 10.6804C33.272 10.5408 32.868 10.3315 32.3291 10.1223C31.5882 9.84322 30.9821 9.49439 30.7127 9.07581C30.3759 8.65722 30.2412 8.1689 30.2412 7.54103C30.2412 6.91323 30.5106 6.3551 30.9821 5.93652C31.4536 5.51794 32.1271 5.37842 32.868 5.37842C33.6762 5.37842 34.4171 5.51794 35.1579 5.86675L34.8885 6.70393C34.215 6.42486 33.5414 6.28533 32.868 6.28533C32.3291 6.28533 31.9923 6.42486 31.6556 6.63413C31.3862 6.84342 31.2515 7.19226 31.2515 7.61084C31.2515 7.88987 31.3189 8.1689 31.3862 8.30845C31.5209 8.51774 31.6556 8.65722 31.925 8.79677C32.1944 8.93632 32.5312 9.14561 33.07 9.3549C33.9456 9.70368 34.5518 10.0525 34.8885 10.4013C35.2926 10.8199 35.4273 11.3083 35.4273 11.8663Z" fill="black"/>
  <path d="M41.8257 11.8663C41.8257 12.6337 41.5563 13.1918 41.0175 13.6104C40.4787 14.029 39.8052 14.2383 38.8623 14.2383C37.8519 14.2383 37.1111 14.0987 36.5723 13.8197V12.843C36.909 12.9825 37.3132 13.1221 37.6499 13.1918C37.9867 13.2616 38.4581 13.3314 38.8623 13.3314C39.5358 13.3314 40.0072 13.1918 40.2767 12.9825C40.6134 12.7035 40.7481 12.3546 40.7481 11.9361C40.7481 11.657 40.6808 11.378 40.5461 11.2385C40.4114 11.0292 40.2093 10.8897 39.9399 10.6804C39.6705 10.5408 39.2663 10.3315 38.7276 10.1223C37.9867 9.84322 37.3805 9.49439 37.1111 9.07581C36.7743 8.65722 36.6396 8.1689 36.6396 7.54103C36.6396 6.91323 36.909 6.3551 37.3805 5.93652C37.8519 5.51794 38.5255 5.37842 39.2663 5.37842C40.0746 5.37842 40.8154 5.51794 41.5563 5.86675L41.2869 6.70393C40.6134 6.42486 39.9399 6.28533 39.2663 6.28533C38.7276 6.28533 38.3908 6.42486 38.054 6.63413C37.7846 6.84342 37.6499 7.19226 37.6499 7.61084C37.6499 7.88987 37.7172 8.1689 37.7846 8.30845C37.9193 8.51774 38.054 8.65722 38.3234 8.79677C38.5928 8.93632 38.9296 9.14561 39.4684 9.3549C40.344 9.70368 40.9501 10.0525 41.2869 10.4013C41.6237 10.8199 41.8257 11.3083 41.8257 11.8663Z" fill="black"/>
  <path d="M50.2448 9.70337C50.2448 11.0987 49.8407 12.2149 49.0998 12.9822C48.3589 13.7496 47.2813 14.1682 45.8669 14.1682H43.1729V5.5874H46.0016C47.3487 5.5874 48.3589 5.93622 49.0998 6.63382C49.8407 7.33143 50.2448 8.37789 50.2448 9.70337ZM47.9548 9.77318C47.9548 9.00576 47.8201 8.37789 47.4834 8.02911C47.2139 7.68027 46.7425 7.47098 46.1363 7.47098H45.4628V12.2846H45.9343C46.6078 12.2846 47.0792 12.0753 47.416 11.6567C47.8201 11.2381 47.9548 10.6103 47.9548 9.77318Z" fill="black"/>
  <path d="M54.6898 14.3078C53.6122 14.3078 52.804 14.0288 52.1978 13.4009C51.5916 12.8429 51.3223 12.0057 51.3223 10.8895C51.3223 9.7733 51.5916 8.93614 52.1305 8.30827C52.6693 7.6804 53.4775 7.40137 54.4878 7.40137C55.4307 7.40137 56.1716 7.6804 56.7104 8.16872C57.2492 8.65705 57.5186 9.42446 57.5186 10.4011V11.4476H53.5448C53.5448 11.7964 53.6796 12.0754 53.949 12.3545C54.2184 12.5638 54.5551 12.7033 54.9592 12.7033C55.3634 12.7033 55.7001 12.6336 56.0368 12.5638C56.3736 12.494 56.7104 12.3545 57.1145 12.1452V13.8195C56.7777 14.0288 56.441 14.0985 56.0368 14.1683C55.6328 14.2381 55.2287 14.3078 54.6898 14.3078ZM54.5551 9.00588C54.2858 9.00588 54.0837 9.07563 53.8816 9.28492C53.6796 9.42446 53.6122 9.7035 53.5448 10.0523H55.4307C55.4307 9.7035 55.3634 9.49421 55.1613 9.28492C55.0939 9.07563 54.8919 9.00588 54.5551 9.00588Z" fill="black"/>
  <path d="M63.7154 12.1453C63.7154 12.843 63.5134 13.4011 63.042 13.7499C62.5705 14.0987 61.897 14.308 61.0214 14.308C60.55 14.308 60.1458 14.308 59.8091 14.2382C59.4723 14.1685 59.0682 14.0987 58.7314 13.9592V12.1453C59.0682 12.2849 59.4723 12.4244 59.8764 12.5639C60.2805 12.6337 60.6173 12.7035 60.954 12.7035C61.4255 12.7035 61.6949 12.5639 61.6949 12.3546C61.6949 12.2151 61.6276 12.1453 61.4929 12.0756C61.3582 12.0059 60.954 11.7966 60.3479 11.5175C59.7417 11.2384 59.3376 10.9594 59.1355 10.6804C58.9335 10.3315 58.7988 9.98276 58.7988 9.49437C58.7988 8.8665 59.0009 8.37818 59.4723 8.0294C59.9438 7.68056 60.55 7.54102 61.4255 7.54102C61.8296 7.54102 62.2337 7.61082 62.6378 7.68056C63.042 7.75031 63.3787 7.88985 63.7828 8.09914L63.1767 9.56418C62.9073 9.42463 62.5705 9.28508 62.2337 9.21534C61.897 9.1456 61.6276 9.07579 61.4255 9.07579C61.0887 9.07579 60.8867 9.1456 60.8867 9.35489C60.8867 9.49437 60.954 9.56418 61.0887 9.63392C61.2234 9.70366 61.5602 9.84321 62.1664 10.1222C62.6378 10.3315 62.9746 10.4711 63.1767 10.6804C63.3787 10.8897 63.5808 11.099 63.6482 11.3082C63.6482 11.4477 63.7154 11.7966 63.7154 12.1453Z" fill="black"/>
  <path d="M64.9268 5.86675C64.9268 5.51793 64.9945 5.23889 65.1964 5.09936C65.3984 4.95984 65.668 4.82031 66.0719 4.82031C66.4758 4.82031 66.8126 4.89007 66.9474 5.09936C67.1493 5.23889 67.2171 5.51793 67.2171 5.86675C67.2171 6.56438 66.8126 6.84341 66.0048 6.84341C65.2635 6.91322 64.9268 6.56438 64.9268 5.86675ZM67.1493 14.1685H64.9268V7.54102H67.1493V14.1685Z" fill="black"/>
  <path d="M74.7605 7.54085V8.65705L73.885 9.00588C74.0199 9.21517 74.087 9.49421 74.087 9.7733C74.087 10.4709 73.8179 11.029 73.3463 11.4476C72.8747 11.8661 72.1341 12.0057 71.1908 12.0057C70.9218 12.0057 70.787 12.0057 70.6521 11.9359C70.585 12.0057 70.585 12.1452 70.585 12.215C70.585 12.3545 70.6521 12.4243 70.8541 12.494C71.056 12.5638 71.2586 12.5638 71.5276 12.5638H72.605C74.0199 12.5638 74.7605 13.1916 74.7605 14.4474C74.7605 15.2845 74.4237 15.9124 73.7502 16.331C73.0766 16.7495 72.1341 17.0286 70.9218 17.0286C70.0457 17.0286 69.305 16.889 68.8334 16.5402C68.3625 16.2612 68.0928 15.7729 68.0928 15.2147C68.0928 14.4474 68.5644 13.8892 69.507 13.6799C69.305 13.6102 69.1702 13.4707 68.9683 13.2614C68.8334 13.0521 68.7663 12.9126 68.7663 12.7033C68.7663 12.494 68.8334 12.2847 68.9012 12.1452C69.036 12.0057 69.2379 11.7964 69.5747 11.5871C69.2379 11.4476 68.9683 11.1685 68.7663 10.8895C68.5644 10.5407 68.4966 10.1918 68.4966 9.7035C68.4966 9.00588 68.7663 8.44782 69.2379 8.02924C69.7089 7.61066 70.3824 7.40137 71.2586 7.40137C71.3928 7.40137 71.5954 7.40137 71.8644 7.47111C72.1341 7.47111 72.336 7.54085 72.4708 7.54085H74.7605ZM69.9115 15.0054C69.9115 15.2147 69.9786 15.3543 70.1805 15.4938C70.3825 15.6333 70.6521 15.6333 70.9889 15.6333C71.5276 15.6333 71.9321 15.5636 72.2683 15.424C72.605 15.2845 72.7399 15.0752 72.7399 14.8659C72.7399 14.6567 72.6728 14.5869 72.4708 14.5171C72.2683 14.4474 71.9992 14.3776 71.5954 14.3776H70.7192C70.4502 14.3776 70.3154 14.4474 70.1134 14.5171C69.9786 14.6567 69.9115 14.7961 69.9115 15.0054ZM70.585 9.7035C70.585 10.4011 70.787 10.7499 71.2586 10.7499C71.4605 10.7499 71.6625 10.6802 71.7295 10.4709C71.8644 10.3314 71.9321 10.0523 71.9321 9.7035C71.9321 9.00588 71.7295 8.65705 71.2586 8.65705C70.8541 8.65705 70.585 9.00588 70.585 9.7035Z" fill="black"/>
  <path d="M79.7441 10.5408C79.7441 10.1222 79.677 9.77347 79.5422 9.56418C79.4074 9.35489 79.2054 9.21534 78.9364 9.21534C78.5319 9.21534 78.2628 9.35489 78.128 9.70366C77.9932 9.98276 77.8583 10.5408 77.8583 11.3082V14.2382H75.6357V7.61082H77.3196L77.5893 8.44798H77.7241C77.9261 8.16889 78.1951 7.88985 78.5319 7.75031C78.8686 7.61082 79.2732 7.54102 79.677 7.54102C80.4177 7.54102 80.957 7.75031 81.3609 8.16889C81.7648 8.58747 81.9667 9.21534 81.9667 9.98276V14.308H79.7441V10.5408Z" fill="black"/>
  <path d="M89.0393 14.1682L88.0289 11.4474H84.7289L83.7186 14.1682H82.7754L86.076 5.5874H86.8838L90.1167 14.1682H89.0393ZM87.6922 10.5405L86.7496 7.88956C86.6147 7.54073 86.4799 7.12214 86.3451 6.63382C86.278 6.98266 86.1431 7.40124 86.0083 7.88956L85.0657 10.5405H87.6922Z" fill="black"/>
  <path d="M96.1117 14.1682L94.9665 10.401C94.8988 10.1917 94.7646 9.63363 94.562 8.86621H94.4949C94.3601 9.56389 94.2252 10.0522 94.091 10.4708L92.9459 14.238H91.8684L90.1846 7.81982H91.1949C91.5988 9.42434 91.8684 10.6801 92.1375 11.5172C92.3394 12.3543 92.4743 12.9125 92.4743 13.1915H92.542C92.6091 12.9822 92.6762 12.7032 92.7439 12.3543C92.811 12.0056 92.9459 11.7265 93.013 11.5172L94.1581 7.81982H95.1684L96.2459 11.5172C96.4484 12.2149 96.5826 12.7729 96.6504 13.1915H96.7175C96.7175 13.052 96.7846 12.8427 96.8523 12.5636C96.9194 12.2846 97.3239 10.6801 97.9975 7.81982H98.9401L97.2562 14.238H96.1117V14.1682Z" fill="black"/>
  <path d="M103.857 14.1685L103.655 13.2615H103.588C103.251 13.6801 102.982 13.9592 102.645 14.0987C102.308 14.2383 101.971 14.308 101.5 14.308C100.894 14.308 100.422 14.1685 100.086 13.8197C99.7488 13.4708 99.5469 13.0523 99.5469 12.4245C99.5469 11.099 100.557 10.4711 102.578 10.4013L103.655 10.3315V9.91297C103.655 9.42465 103.52 9.00607 103.318 8.79678C103.117 8.58749 102.78 8.448 102.308 8.448C101.769 8.448 101.231 8.58749 100.557 8.93632L100.288 8.1689C100.624 8.02942 100.894 7.88987 101.298 7.75032C101.635 7.68058 102.038 7.61084 102.375 7.61084C103.117 7.61084 103.655 7.75032 103.992 8.09916C104.329 8.448 104.531 9.00607 104.531 9.70368V14.0987H103.857V14.1685ZM101.702 13.4708C102.308 13.4708 102.712 13.3314 103.049 12.9825C103.386 12.6337 103.52 12.2152 103.52 11.5873V11.0292L102.578 11.099C101.837 11.099 101.298 11.2385 100.961 11.4477C100.624 11.657 100.489 12.0059 100.489 12.4245C100.489 12.7732 100.624 13.0523 100.826 13.1918C101.096 13.4011 101.365 13.4708 101.702 13.4708Z" fill="black"/>
  <path d="M109.312 7.61084C109.582 7.61084 109.851 7.61084 110.053 7.68058L109.919 8.58749C109.649 8.51774 109.447 8.51774 109.245 8.51774C108.774 8.51774 108.302 8.72703 107.965 9.14561C107.629 9.56419 107.427 10.1223 107.427 10.7501V14.1685H106.483V7.75032H107.225L107.36 8.93632H107.427C107.629 8.51774 107.965 8.1689 108.235 7.95961C108.572 7.75032 108.909 7.61084 109.312 7.61084Z" fill="black"/>
  <path d="M115.441 13.331C114.97 13.9589 114.296 14.3077 113.421 14.3077C112.612 14.3077 112.006 14.0287 111.535 13.4705C111.063 12.9125 110.861 12.0753 110.861 11.0289C110.861 9.98247 111.063 9.1453 111.535 8.58717C112.006 8.02911 112.612 7.68027 113.421 7.68027C114.229 7.68027 114.903 8.02911 115.374 8.65692H115.441L115.374 8.16859V5.0293H116.317V14.1682H115.576L115.441 13.331ZM113.556 13.4705C114.229 13.4705 114.633 13.2612 114.97 12.9125C115.239 12.5636 115.374 11.9358 115.374 11.1684V10.9591C115.374 10.0522 115.239 9.42434 114.903 9.00576C114.633 8.58717 114.162 8.44769 113.488 8.44769C112.949 8.44769 112.545 8.65692 112.208 9.1453C111.939 9.56388 111.737 10.1917 111.737 11.0289C111.737 11.866 111.872 12.4939 112.141 12.9125C112.545 13.2612 112.949 13.4705 113.556 13.4705Z" fill="black"/>
  <path d="M122.311 12.4245C122.311 13.0523 122.109 13.4708 121.638 13.8197C121.234 14.1685 120.628 14.308 119.82 14.308C119.011 14.308 118.338 14.1685 117.866 13.8894V12.9825C118.136 13.1221 118.473 13.2616 118.809 13.3314C119.146 13.4011 119.483 13.4708 119.82 13.4708C120.291 13.4708 120.695 13.4011 120.965 13.2615C121.234 13.1221 121.369 12.843 121.369 12.4942C121.369 12.2152 121.234 12.0059 121.032 11.8663C120.83 11.657 120.426 11.4477 119.82 11.2385C119.213 11.0292 118.809 10.8199 118.608 10.6804C118.338 10.5408 118.203 10.3315 118.069 10.1223C117.934 9.91297 117.866 9.63394 117.866 9.3549C117.866 8.86652 118.069 8.448 118.473 8.09916C118.877 7.75032 119.415 7.61084 120.157 7.61084C120.83 7.61084 121.504 7.75032 122.109 8.02942L121.773 8.79678C121.167 8.51774 120.56 8.3782 120.089 8.3782C119.618 8.3782 119.281 8.448 119.078 8.58749C118.877 8.72703 118.742 8.93632 118.742 9.21536C118.742 9.3549 118.809 9.56419 118.877 9.63394C118.944 9.77349 119.078 9.84323 119.281 9.98278C119.483 10.1223 119.82 10.2618 120.358 10.4711C121.099 10.7501 121.571 11.0292 121.84 11.3083C122.177 11.657 122.311 12.0059 122.311 12.4245Z" fill="black"/>
  </g>
  <defs>
  <clipPath id="clip0_322_974">
  <rect width="122.581" height="20" fill="white"/>
  </clipPath>
  </defs>
</svg>
  