<svg width="100" height="20" viewBox="0 0 100 20" fill="none" xmlns="http://www.w3.org/2000/svg">
  <g clip-path="url(#clip0_77_523)">
    <path d="M9.10282 0.226562C9.94684 0.226562 10.7259 0.294369 11.4401 0.495104C12.1543 0.629375 12.7386 0.897917 13.258 1.23359C13.7774 1.56927 14.167 2.03922 14.4267 2.64411C14.6864 3.24766 14.8162 3.98682 14.8162 4.79244C14.8162 5.73167 14.6214 6.53797 14.167 7.14218C13.7774 7.74573 13.1282 8.28282 12.3491 8.68563C13.4528 9.02131 14.2968 9.62485 14.8162 10.4312C15.3356 11.2368 15.6602 12.2438 15.6602 13.3851C15.6602 14.3243 15.4655 15.1306 15.1408 15.802C14.8162 16.4733 14.2968 17.0776 13.7125 17.4804C13.1282 17.8839 12.414 18.2195 11.6349 18.4203C10.8558 18.621 10.0767 18.7559 9.29759 18.7559H0.597656V0.226562H9.10282ZM8.58342 7.74573C9.29759 7.74573 9.88192 7.54433 10.3364 7.20865C10.7909 6.87297 10.9856 6.26875 10.9856 5.53026C10.9856 5.12745 10.9207 4.72464 10.7909 4.4561C10.661 4.18755 10.4662 3.98615 10.2065 3.78474C9.94684 3.65047 9.68714 3.5162 9.36252 3.44906C9.03789 3.38193 8.71327 3.38193 8.32372 3.38193H4.55808V7.74573H8.58342ZM8.77819 15.6677C9.16774 15.6677 9.55729 15.6006 9.88192 15.5341C10.2065 15.4663 10.5312 15.332 10.7909 15.1306C11.0506 14.9292 11.2453 14.7278 11.4401 14.3921C11.57 14.0565 11.6998 13.653 11.6998 13.1837C11.6998 12.2438 11.4401 11.5725 10.9207 11.1018C10.4013 10.699 9.68714 10.4983 8.84312 10.4983H4.55808V15.6677H8.77819ZM21.3087 15.6006C21.8281 16.1377 22.6072 16.4062 23.646 16.4062C24.3602 16.4062 25.0094 16.2048 25.5288 15.8691C26.0482 15.4656 26.3728 15.0635 26.5027 14.66H29.684C29.1646 16.2713 28.3855 17.4132 27.3467 18.1511C26.3079 18.8224 25.0743 19.2259 23.5811 19.2259C22.5423 19.2259 21.6333 19.0238 20.7893 18.6881C19.9453 18.3525 19.296 17.8832 18.7117 17.2118C18.1274 16.6076 17.6729 15.8691 17.4132 14.9957C17.0886 14.1229 16.9587 13.1837 16.9587 12.1089C16.9587 11.1018 17.0886 10.1626 17.4132 9.28918C17.7378 8.41642 18.1923 7.6786 18.7766 7.00724C19.361 6.40302 20.0751 5.86594 20.8542 5.53026C21.6982 5.19459 22.5423 4.99318 23.5811 4.99318C24.6848 4.99318 25.6587 5.19459 26.5027 5.66453C27.3467 6.13448 27.996 6.67157 28.5154 7.47719C29.0348 8.21568 29.4243 9.08777 29.684 10.0283C29.8139 10.9682 29.8788 11.9081 29.8139 12.9823H20.3998C20.3998 14.0565 20.7893 15.0635 21.3087 15.6006ZM25.399 8.55136C24.9445 8.08141 24.2303 7.81287 23.3863 7.81287C22.802 7.81287 22.3475 7.94647 21.958 8.14855C21.5684 8.34995 21.3087 8.61782 21.049 8.88704C20.7893 9.15625 20.6595 9.49125 20.5945 9.82693C20.5296 10.1626 20.4647 10.4305 20.4647 10.6997H26.3079C26.1781 9.69266 25.8534 9.02131 25.399 8.55136ZM34.878 0.226562V7.20865H34.9429C35.3974 6.40302 35.9817 5.86594 36.6959 5.53026C37.4101 5.19459 38.0593 4.99318 38.7735 4.99318C39.7474 4.99318 40.5265 5.12745 41.1108 5.39599C41.6951 5.66453 42.2145 6.06735 42.5391 6.53729C42.8638 7.00724 43.1235 7.61146 43.2533 8.28282C43.3832 8.95417 43.4481 9.69333 43.4481 10.5654V18.8231H39.8772V11.2368C39.8772 10.0955 39.6824 9.28985 39.3578 8.75276C39.0332 8.21568 38.4489 7.94714 37.6049 7.94714C36.631 7.94714 35.9168 8.28282 35.5273 8.82057C35.0728 9.42412 34.878 10.4312 34.878 11.7739V18.8231H31.3071V0.226562H34.878ZM46.0451 7.34292C46.4346 6.7387 46.8891 6.33589 47.4734 5.9324C48.0578 5.59673 48.707 5.32886 49.4212 5.19391C50.1354 5.05964 50.8489 4.99251 51.5637 4.99251C52.213 4.99251 52.8622 5.05964 53.577 5.12678C54.2263 5.19391 54.8755 5.39465 55.3943 5.66386C55.9786 5.93173 56.3681 6.33522 56.7583 6.80516C57.0823 7.27578 57.2771 7.94714 57.2771 8.75276V15.802C57.2771 16.4062 57.342 17.0104 57.4069 17.5482C57.4725 18.0853 57.666 18.5552 57.8614 18.8231H54.2256C54.0951 18.6888 54.0302 18.4203 53.9659 18.2195C53.901 18.0175 53.901 17.7496 53.901 17.5482C53.3167 18.1517 52.6674 18.5552 51.8883 18.8231C51.1092 19.0916 50.3301 19.1588 49.551 19.1588C48.9018 19.1588 48.3824 19.0916 47.7981 18.8909C47.2787 18.7566 46.8242 18.4874 46.3697 18.1517C45.9802 17.816 45.6555 17.4132 45.3958 16.8768C45.2011 16.3391 45.0712 15.802 45.0712 15.0635C45.0712 14.3243 45.2011 13.653 45.4608 13.1837C45.7205 12.7138 46.0451 12.3109 46.4346 11.9753C46.8242 11.7074 47.3436 11.4382 47.863 11.3039C48.3824 11.1703 48.9018 11.036 49.4861 10.9682L51.0443 10.7668C51.5637 10.6997 52.0182 10.6326 52.4077 10.5654C52.7973 10.4312 53.1219 10.2969 53.3816 10.0955C53.6413 9.89407 53.7062 9.62552 53.7062 9.22271C53.7062 8.8199 53.6413 8.48422 53.5115 8.28282C53.3816 8.08141 53.1868 7.88 52.9921 7.74573C52.7966 7.61146 52.5376 7.54433 52.2779 7.47786C52.0182 7.41006 51.6936 7.41006 51.3689 7.41006C50.6548 7.41006 50.1354 7.54433 49.7458 7.88C49.3563 8.21568 49.0966 8.75276 49.0316 9.42412H45.4608C45.4608 8.61849 45.7205 7.88 46.0451 7.34292ZM53.1213 12.5795C52.9271 12.6466 52.6674 12.7138 52.4071 12.7809C52.1474 12.8487 51.8877 12.8487 51.5631 12.9152C51.304 12.9823 50.9794 12.9823 50.719 13.0494L49.9399 13.2508C49.6802 13.318 49.4205 13.4522 49.2907 13.5865C49.0959 13.7208 48.9661 13.9222 48.8362 14.1236C48.6421 14.3921 48.6421 14.6607 48.6421 14.9964C48.6421 15.332 48.707 15.6006 48.8369 15.802C48.9667 16.0034 49.0966 16.2055 49.2913 16.3391C49.4861 16.4733 49.7458 16.5411 50.0055 16.6076C50.2652 16.6741 50.5243 16.6747 50.8489 16.6747C51.5637 16.6747 52.0825 16.5411 52.472 16.3391C52.8622 16.0712 53.1213 15.802 53.3167 15.4663C53.5114 15.1306 53.6413 14.795 53.6413 14.4593C53.7062 14.1236 53.7062 13.8557 53.7062 13.6537V12.2438C53.5115 12.3781 53.3167 12.513 53.1213 12.5795ZM62.6665 5.32886V7.20865H62.7314C63.1853 6.40302 63.7702 5.86594 64.4838 5.53026C65.1986 5.19459 65.9777 4.99318 66.6912 4.99318C67.6651 4.99318 68.4442 5.12745 69.0285 5.39599C69.6777 5.66453 70.1329 6.06735 70.4575 6.53729C70.7821 7.00724 71.0412 7.61146 71.236 8.28282C71.3658 8.95417 71.4314 9.69333 71.4314 10.5654V18.8231H67.8605V11.2368C67.8605 10.0955 67.6651 9.28985 67.3405 8.75276C67.0158 8.21568 66.4315 7.88 65.5226 7.88C64.5487 7.88 63.8339 8.28282 63.38 8.88704C62.9256 9.49125 62.7308 10.4983 62.7308 11.841V18.8902H59.1599V5.32886H62.6665ZM79.4158 7.74573C78.8322 7.74573 78.377 7.88 77.9881 8.14922C77.5986 8.41709 77.274 8.75276 77.0143 9.22338C76.7546 9.6262 76.6247 10.0961 76.4942 10.6332C76.365 11.171 76.365 11.6403 76.365 12.178C76.365 12.6473 76.4299 13.185 76.4942 13.6543C76.6247 14.1921 76.7539 14.5942 77.0143 14.997C77.274 15.4005 77.5337 15.7362 77.9232 16.0041C78.3128 16.2726 78.7666 16.4075 79.3509 16.4075C80.1956 16.4075 80.8448 16.139 81.3636 15.6684C81.8187 15.1991 82.1433 14.5278 82.2083 13.6543H85.6493C85.3902 15.467 84.741 16.8097 83.636 17.7503C82.5329 18.6895 81.1045 19.1601 79.3509 19.1601C78.377 19.1601 77.4681 18.9587 76.689 18.623C75.8443 18.2873 75.1951 17.8174 74.6114 17.2132C74.0277 16.609 73.5719 15.8705 73.2473 15.0648C72.9227 14.1921 72.7935 13.3186 72.7935 12.3116C72.7935 11.2374 72.9227 10.2976 73.2473 9.42479C73.5719 8.55203 73.9622 7.7464 74.5458 7.07505C75.1301 6.4037 75.8443 5.93375 76.6241 5.53093C77.4674 5.19526 78.3764 4.99385 79.4152 4.99385C80.1949 4.99385 80.9091 5.12812 81.6226 5.32953C82.3362 5.53093 82.9861 5.86661 83.5055 6.26875C84.0898 6.67224 84.5443 7.20865 84.8689 7.88C85.1935 8.48422 85.3889 9.28985 85.4532 10.1626H81.9473C81.8194 8.55136 80.9747 7.74573 79.4158 7.74573ZM19.6856 1.50214H26.9572V3.31479H19.6856V1.50214ZM91.038 15.6006C91.5581 16.1377 92.4015 16.4062 93.3753 16.4062C94.0902 16.4062 94.7394 16.2048 95.2582 15.8691C95.7782 15.4656 96.1028 15.0635 96.232 14.66H99.3491C98.829 16.2713 98.0506 17.4132 97.0111 18.1511C95.9717 18.8224 94.7388 19.2259 93.2455 19.2259C92.2067 19.2259 91.2977 19.0238 90.4531 18.6881C89.6539 18.38 88.9406 17.873 88.3761 17.2118C87.7918 16.6076 87.3373 15.8691 87.0776 14.9957C86.753 14.1229 86.6232 13.1837 86.6232 12.1089C86.6232 11.1018 86.753 10.1626 87.0776 9.28918C87.3903 8.44719 87.8528 7.6732 88.441 7.00724C89.0254 6.40302 89.7395 5.86594 90.5186 5.53026C91.3627 5.19459 92.2716 4.99318 93.2455 4.99318C94.3486 4.99318 95.3224 5.19459 96.1022 5.66453C96.9456 6.13448 97.5948 6.67157 98.1149 7.47719C98.6343 8.21568 99.0238 9.08777 99.2835 10.0283C99.5426 10.9676 99.6081 11.9746 99.5426 13.0494H90.1284C90.1284 14.0565 90.5186 15.0635 91.038 15.6006ZM95.1932 8.55136C94.7388 8.08141 94.0239 7.81287 93.1806 7.81287C92.5962 7.81287 92.1411 7.94647 91.7516 8.14855C91.362 8.34995 91.0374 8.61782 90.8433 8.88704C90.6491 9.15625 90.4531 9.49125 90.3888 9.82693C90.3245 10.1626 90.2596 10.4305 90.2596 10.6997H96.1028C95.9074 9.69266 95.5828 9.02131 95.1932 8.55136Z" fill="curentColor"/>
  </g>
  <defs>
    <clipPath id="clip0_77_523">
      <rect width="99" height="19" fill="white" transform="translate(0.582031 0.226562)"/>
    </clipPath>
  </defs>
</svg>
