<svg width="105" height="31" viewBox="0 0 105 31" fill="none" xmlns="http://www.w3.org/2000/svg">
  <g clip-path="url(#clip0_77_547)">
    <path d="M15.4364 0.976562H16.4963C20.1421 1.07177 23.7478 2.40838 26.4669 4.76969C26.9289 5.13171 27.2952 5.60773 27.8077 5.90712V5.94345C27.6213 6.06496 27.4505 6.20651 27.2913 6.35809C25.8444 7.77738 24.3845 9.18289 22.9337 10.5984C22.2051 9.99838 21.5062 9.35325 20.6818 8.87598C19.2543 8.02416 17.5692 7.58572 15.8932 7.61829C13.6478 7.60701 11.3377 8.35487 9.73155 9.91195C8.37652 11.1822 7.56893 12.9459 7.37221 14.7523C7.14314 16.7428 7.51975 18.8348 8.62889 20.5447C9.69401 22.2158 11.4321 23.4572 13.3851 23.9771C15.7858 24.6235 18.4804 24.3579 20.6067 23.0639C21.4622 22.5766 22.1546 21.8813 22.8975 21.255C24.4867 22.7933 26.1161 24.2928 27.6834 25.8511C27.7145 25.8711 27.7766 25.9112 27.8077 25.9325V25.9839C27.4194 26.1906 27.1412 26.5351 26.8124 26.8157C24.3987 29.0053 21.2577 30.4422 17.9666 30.8004C17.5032 30.8405 17.0412 30.8794 16.5779 30.9157H15.4312C12.2164 30.8105 9.00809 29.8146 6.45204 27.9017C3.43396 25.7045 1.41241 22.3323 0.779548 18.7421C0.577652 17.6986 0.547885 16.6338 0.5 15.5766V15.1093C0.642362 12.9459 1.13028 10.7826 2.1527 8.84216C3.66562 5.85326 6.34721 3.46063 9.52059 2.19166C11.3881 1.41751 13.4148 1.06676 15.4364 0.976562Z" fill="curentColor"/>
    <path d="M14.6202 11.0303C16.1888 10.6896 17.9036 11.1242 19.1072 12.154C20.8207 13.5657 21.3604 16.1137 20.3703 18.0679C19.7155 19.4471 18.3669 20.4968 16.8346 20.8188C15.4459 21.1232 13.9291 20.8463 12.7669 20.0459C10.6677 18.6955 9.92612 15.783 11.1181 13.6371C11.7975 12.3143 13.128 11.3334 14.6202 11.0303Z" fill="curentColor"/>
  </g>
  <path d="M37.127 27.4386V25.8848H39.0664V21.5863C38.5598 21.919 37.9133 22.0853 37.127 22.0853V20.5768C38.1931 20.5239 38.8925 20.161 39.2252 19.488H40.745V25.8848H42.6164V27.4386H37.127Z" fill="curentColor"/>
  <path d="M47.7123 25.3404C47.9694 24.8791 48.098 24.2516 48.098 23.4576C48.098 22.6562 47.9694 22.0324 47.7123 21.5863C47.4628 21.1326 47.0999 20.9058 46.6235 20.9058C46.1547 20.9058 45.788 21.1326 45.5234 21.5863C45.2739 22.0399 45.1491 22.6637 45.1491 23.4576C45.1491 24.2516 45.2739 24.8791 45.5234 25.3404C45.788 25.794 46.1547 26.0209 46.6235 26.0209C47.0999 26.0209 47.4628 25.794 47.7123 25.3404ZM49.7765 23.4576C49.7765 24.675 49.4968 25.6655 48.9372 26.4292C48.3853 27.1853 47.614 27.5634 46.6235 27.5634C45.633 27.5634 44.8618 27.1853 44.3098 26.4292C43.7503 25.6655 43.4705 24.675 43.4705 23.4576C43.4705 22.2403 43.7503 21.2536 44.3098 20.4975C44.8618 19.7413 45.633 19.3633 46.6235 19.3633C47.614 19.3633 48.3853 19.7413 48.9372 20.4975C49.4968 21.2611 49.7765 22.2479 49.7765 23.4576Z" fill="curentColor"/>
  <path d="M60.7637 27.4386H58.8469L57.2817 24.8867H55.9321V27.4386H54.2422V19.488H57.5313C58.4235 19.488 59.1494 19.7187 59.7089 20.1799C60.2835 20.6411 60.5709 21.2763 60.5709 22.0853C60.5709 22.6373 60.431 23.1325 60.1512 23.5711C59.8714 24.0096 59.4896 24.3423 59.0057 24.5691L60.7637 27.4386ZM57.2364 21.0419H55.9321V23.3442H57.2364C58.3403 23.3442 58.8923 22.9548 58.8923 22.176C58.8923 21.4199 58.3403 21.0419 57.2364 21.0419Z" fill="curentColor"/>
  <path d="M67.7814 27.4386H61.9178V19.488H67.7814V21.0419H63.6077V22.6184H67.5886V24.1495H63.6077V25.8848H67.7814V27.4386Z" fill="curentColor"/>
  <path d="M70.2816 19.488L72.1757 25.2496L74.0357 19.488H75.7597L73.0376 27.4386H71.291L68.569 19.488H70.2816Z" fill="curentColor"/>
  <path d="M78.3289 27.4386H76.6503V19.488H78.3289V27.4386Z" fill="curentColor"/>
  <path d="M85.9238 27.4386H80.0601V19.488H85.9238V21.0419H81.75V22.6184H85.731V24.1495H81.75V25.8848H85.9238V27.4386Z" fill="curentColor"/>
  <path d="M86.8361 19.488H88.6394L89.8643 24.5805L91.146 19.488H92.9493L94.2309 24.5805L95.4558 19.488H97.2591L95.1382 27.4386H93.4143L92.0533 22.1874L90.6809 27.4386H88.957L86.8361 19.488Z" fill="curentColor"/>
  <path d="M101.325 24.3196L100.35 24.1495C99.5561 24.0134 98.9399 23.745 98.5013 23.3442C98.0628 22.9359 97.8435 22.4104 97.8435 21.7677C97.8435 21.0343 98.1308 20.4521 98.7055 20.0211C99.2801 19.5826 99.972 19.3633 100.781 19.3633C102.021 19.3633 103.042 19.7867 103.843 20.6336L102.709 21.8244C102.104 21.212 101.431 20.9058 100.69 20.9058C100.335 20.9058 100.051 20.9776 99.8397 21.1213C99.6279 21.2649 99.5221 21.4539 99.5221 21.6883C99.5221 22.1118 99.9001 22.3915 100.656 22.5276L101.439 22.6524C103.223 22.9397 104.115 23.7677 104.115 25.1362C104.115 25.8621 103.824 26.4481 103.242 26.8942C102.66 27.3403 101.896 27.5634 100.951 27.5634C100.271 27.5634 99.6431 27.4273 99.0684 27.1551C98.4938 26.8753 98.0212 26.5048 97.6507 26.0436L98.8076 24.8754C99.3973 25.639 100.146 26.0209 101.053 26.0209C101.477 26.0209 101.813 25.9415 102.063 25.7827C102.312 25.6239 102.437 25.416 102.437 25.1589C102.437 24.7355 102.066 24.4557 101.325 24.3196Z" fill="curentColor"/>
  <path d="M46.9085 7.91452C46.8704 7.8008 46.7689 7.71793 46.6466 7.70076L43.2131 7.21782L41.6775 4.20632C41.6229 4.09911 41.5101 4.03125 41.3866 4.03125C41.263 4.03125 41.1502 4.09911 41.0956 4.20632L39.5599 7.21782L36.1265 7.70076C36.0043 7.71793 35.9027 7.8008 35.8645 7.9145C35.8263 8.02822 35.8582 8.15303 35.9466 8.23647L38.4311 10.5806L37.8447 13.8906C37.8238 14.0084 37.8738 14.1275 37.9737 14.1978C38.0303 14.2375 38.0972 14.2578 38.1645 14.2578C38.2162 14.2578 38.268 14.2458 38.3155 14.2217L41.3865 12.6589L44.4575 14.2217C44.5668 14.2773 44.6993 14.268 44.7992 14.1978C44.8991 14.1275 44.9492 14.0084 44.9283 13.8906L44.3417 10.5806L46.8264 8.23645C46.9149 8.15303 46.9467 8.02822 46.9085 7.91452Z" fill="curentColor"/>
  <path d="M61.4281 7.91452C61.3899 7.8008 61.2884 7.71793 61.1662 7.70076L57.7326 7.21782L56.197 4.20632C56.1424 4.09911 56.0296 4.03125 55.9061 4.03125C55.7826 4.03125 55.6698 4.09911 55.6151 4.20632L54.0795 7.21782L50.646 7.70076C50.5238 7.71793 50.4222 7.8008 50.3841 7.9145C50.3459 8.02822 50.3777 8.15303 50.4662 8.23647L52.9506 10.5806L52.3642 13.8906C52.3433 14.0084 52.3934 14.1275 52.4933 14.1978C52.5498 14.2375 52.6168 14.2578 52.684 14.2578C52.7357 14.2578 52.7875 14.2458 52.835 14.2217L55.9061 12.6589L58.977 14.2217C59.0864 14.2773 59.2188 14.268 59.3187 14.1978C59.4187 14.1275 59.4687 14.0084 59.4479 13.8906L58.8613 10.5806L61.346 8.23645C61.4344 8.15303 61.4663 8.02822 61.4281 7.91452Z" fill="curentColor"/>
  <path d="M75.9466 7.91452C75.9085 7.8008 75.8069 7.71793 75.6847 7.70076L72.2512 7.21782L70.7156 4.20632C70.661 4.09911 70.5481 4.03125 70.4246 4.03125C70.3011 4.03125 70.1883 4.09911 70.1337 4.20632L68.598 7.21782L65.1645 7.70076C65.0423 7.71793 64.9408 7.8008 64.9026 7.9145C64.8644 8.02822 64.8963 8.15303 64.9847 8.23647L67.4692 10.5806L66.8828 13.8906C66.8619 14.0084 66.9119 14.1275 67.0118 14.1978C67.0684 14.2375 67.1353 14.2578 67.2026 14.2578C67.2542 14.2578 67.3061 14.2458 67.3535 14.2217L70.4246 12.6589L73.4956 14.2217C73.6049 14.2773 73.7374 14.268 73.8373 14.1978C73.9372 14.1275 73.9873 14.0084 73.9664 13.8906L73.3798 10.5806L75.8645 8.23645C75.953 8.15303 75.9848 8.02822 75.9466 7.91452Z" fill="curentColor"/>
  <path d="M90.4671 7.91452C90.429 7.8008 90.3274 7.71793 90.2052 7.70076L86.7717 7.21782L85.2361 4.20632C85.1815 4.09911 85.0686 4.03125 84.9451 4.03125C84.8216 4.03125 84.7088 4.09911 84.6542 4.20632L83.1185 7.21782L79.685 7.70076C79.5628 7.71793 79.4613 7.8008 79.4231 7.9145C79.3849 8.02822 79.4168 8.15303 79.5052 8.23647L81.9897 10.5806L81.4033 13.8906C81.3824 14.0084 81.4324 14.1275 81.5323 14.1978C81.5889 14.2375 81.6558 14.2578 81.7231 14.2578C81.7748 14.2578 81.8266 14.2458 81.874 14.2217L84.9451 12.6589L88.0161 14.2217C88.1254 14.2773 88.2579 14.268 88.3578 14.1978C88.4577 14.1275 88.5078 14.0084 88.4869 13.8906L87.9003 10.5806L90.385 8.23645C90.4735 8.15303 90.5053 8.02822 90.4671 7.91452Z" fill="curentColor"/>
  <path d="M104.984 7.91452C104.946 7.8008 104.844 7.71793 104.722 7.70076L101.288 7.21782L99.7527 4.20632C99.6981 4.09911 99.5852 4.03125 99.4617 4.03125C99.3382 4.03125 99.2254 4.09911 99.1708 4.20632L97.6351 7.21782L94.2016 7.70076C94.0794 7.71793 93.9779 7.8008 93.9397 7.9145C93.9015 8.02822 93.9334 8.15303 94.0218 8.23647L96.5063 10.5806L95.9199 13.8906C95.899 14.0084 95.949 14.1275 96.0489 14.1978C96.1055 14.2375 96.1724 14.2578 96.2397 14.2578C96.2914 14.2578 96.3432 14.2458 96.3906 14.2217L99.4617 12.6589L102.533 14.2217C102.642 14.2773 102.774 14.268 102.874 14.1978C102.974 14.1275 103.024 14.0084 103.004 13.8906L102.417 10.5806L104.902 8.23645C104.99 8.15303 105.022 8.02822 104.984 7.91452Z" fill="curentColor"/>
  <defs>
    <clipPath id="clip0_77_547">
      <rect width="27.3077" height="29.9391" fill="white" transform="translate(0.5 0.976562)"/>
    </clipPath>
  </defs>
</svg>
