<svg width="118" height="20" viewBox="0 0 118 20" fill="none" xmlns="http://www.w3.org/2000/svg">
  <path d="M0.5 9.28009C0.916667 7.10694 2.83333 5.60245 5.5 5.60245C8.58333 5.60245 11 6.93977 11 11.1189V18.8921H8.33333L8 17.2204C7.08333 18.3906 5.83333 19.1429 4 19.1429C1.75 19.1429 0 17.7219 0 15.1309C0 12.5398 2.33333 10.8682 5.58333 10.8682H7.75V10.2831C7.75 8.77859 6.66667 8.36068 5.41667 8.36068C4.5 8.36068 3.58333 8.69501 3.16667 9.86517L0.5 9.28009ZM4.75 16.3846C6.25 16.3846 7.75 15.3816 7.75 13.71V13.4592H5.66667C4.25 13.3756 3.41667 13.9607 3.41667 15.1309C3.41667 15.716 3.91667 16.3846 4.75 16.3846Z" fill="curentColor"/>
  <path d="M63.3333 9.28009C63.75 7.10694 65.6667 5.60245 68.3333 5.60245C71.4167 5.60245 73.8333 6.93977 73.8333 11.1189V18.8921H71.1667L70.8333 17.2204C69.9167 18.3906 68.6667 19.1429 66.8333 19.1429C64.5833 19.1429 62.8333 17.7219 62.8333 15.1309C62.8333 12.5398 65.1667 10.8682 68.4167 10.8682H70.5833V10.2831C70.5833 8.77859 69.5 8.36068 68.25 8.36068C67.3333 8.36068 66.4167 8.69501 66 9.86517L63.3333 9.28009ZM67.5833 16.3846C69.0833 16.3846 70.5833 15.3816 70.5833 13.71V13.4592H68.4167C67 13.4592 66.1667 13.9607 66.1667 15.1309C66.25 15.716 66.75 16.3846 67.5833 16.3846Z" fill="curentColor"/>
  <path d="M76.75 18.9757V5.76962H80V7.94277C80.9167 6.3547 82.4167 5.60245 83.8333 5.60245C84.4167 5.60245 84.9167 5.68603 85.4167 5.8532L84.8333 8.86218C84.4167 8.61143 84 8.44426 83.5 8.44426C81.5833 8.44426 80 10.0323 80 14.2115V18.8921L76.75 18.9757Z" fill="curentColor"/>
  <path d="M92.3333 5.60245C93.6667 5.60245 94.9167 6.27111 95.5 7.02336V0.503906H98.75V18.9757H95.5V17.6384C95.0833 18.307 93.9167 19.2264 92.3333 19.2264C88.4167 19.2264 86.4167 16.4682 86.4167 12.4562C86.4167 8.44426 88.4167 5.60245 92.3333 5.60245ZM92.8333 16.3846C94.5 16.3846 95.8333 14.9637 95.8333 12.3727C95.8333 9.78159 94.5 8.36068 92.8333 8.36068C91.1667 8.36068 89.8333 9.78159 89.8333 12.3727C89.8333 14.9637 91.1667 16.3846 92.8333 16.3846Z" fill="curentColor"/>
  <path d="M110.417 7.69202L108.5 9.44726C107.917 8.61143 107 8.2771 106.333 8.2771C105.667 8.2771 105.083 8.69501 105.083 9.36367C105.083 9.94875 105.583 10.3667 106.333 10.6174C108.167 11.2861 111.083 11.8712 111.083 14.6294C111.083 17.0533 109.25 18.9757 106.417 18.9757C103.667 18.9757 101.833 17.0533 101.25 15.4652L103.833 14.0443C104.333 15.298 105.167 16.2175 106.5 16.2175C107.5 16.2175 108.167 15.716 108.167 14.7966C108.167 13.71 106.5 13.4592 104.917 12.7906C103.5 12.2055 102.25 11.2861 102.25 9.28009C102.25 7.27411 103.917 5.43529 106.417 5.43529C108.083 5.51887 109.667 6.43828 110.417 7.69202Z" fill="curentColor"/>
  <path d="M43.25 5.76962L40.9167 14.8801L38.6667 5.76962H35.6667L33.5 14.8801L31.6667 9.61442L31.4167 10.1995L30.4167 13.6264L32.0833 18.9757H34.9167L37.1667 10.4502L39.4167 18.9757H42.3333L46.5 5.76962H43.25Z" fill="curentColor"/>
  <path d="M58.8333 5.76962L56.5 14.8801L54.25 5.76962H51.25L49.0833 14.8801L47.25 9.61442L47 10.1995L45.9167 13.6264L47.6667 18.9757H50.5L52.75 10.4502L55 18.9757H57.8333L62.0833 5.76962H58.8333Z" fill="curentColor"/>
  <path d="M30.9167 5.76962L26.75 18.8921H23.9167L21.6667 10.4502L19.4167 18.9757H16.5833L12.4167 5.8532H15.6667L18 14.8801L20.25 5.8532H23.25L25.5 14.8801L27.8333 5.8532L30.9167 5.76962Z" fill="curentColor"/>
  <path d="M115.333 14.713C116.583 14.713 117.5 15.6324 117.5 16.8861C117.5 18.1399 116.583 19.0593 115.333 19.0593C114.083 19.0593 113.167 18.1399 113.167 16.8861C113.167 15.6324 114.083 14.713 115.333 14.713Z" fill="curentColor"/>
</svg>
