<svg width="126" height="40" viewBox="0 0 126 40" fill="none" xmlns="http://www.w3.org/2000/svg">
<g clip-path="url(#clip0_14_34)">
<path d="M31.0001 23.48C31.0001 24.36 29.8701 30.48 19.3101 30.48H17.2301C16.7401 30.48 15.6001 30.48 15.0601 30.48H0.0600586L6.61006 36.27H17.2401C22.1201 36.08 25.3201 34.93 27.4101 33.42C32.5801 29.56 31.0001 23.48 31.0001 23.48Z" />
<path d="M31 27.91C31 27.03 29.87 20.91 19.31 20.91H16.37L9.88 15.2H14.13C14.86 15.2 16.22 15.2 16.93 15.2H17.14C22.05 15.37 25.28 16.52 27.39 18.06C32.58 21.82 31 27.91 31 27.91Z" />
<path d="M28.86 16.05C28.2777 16.8198 27.5794 17.4946 26.79 18.05C24.72 19.58 21.54 20.71 16.72 20.92C16.6105 20.935 16.4995 20.935 16.39 20.92L9.88 15.2H14.13C14.86 15.2 15.62 15.2 16.32 15.2H16.54H18.71C19.04 15.2 19.36 15.2 19.71 15.2C29.36 14.85 30.37 9.12001 30.4 8.26001C30.6925 9.5946 30.7067 10.9752 30.4417 12.3155C30.1767 13.6558 29.6383 14.9271 28.86 16.05V16.05Z" />
<path d="M30.38 12.73C30.38 11.85 29.25 5.73 18.71 5.73H6.60005L0.0500488 0H15.05C33.7 0 30.38 12.73 30.38 12.73Z" />
<path d="M0 0L6.65 5.85V36.23L0 30.42V0Z" />
<path d="M49.4999 11.12C51.8599 11.12 53.4999 12.44 53.4999 14.34C53.5064 14.9314 53.332 15.5106 52.9999 16C52.6849 16.4919 52.2331 16.8812 51.6999 17.12C52.3145 17.3298 52.8443 17.7333 53.2099 18.27C53.5823 18.8032 53.7782 19.4397 53.7699 20.09C53.7699 22.24 52.1199 23.58 49.5199 23.58H44.3199V11.12H49.4999ZM46.7899 16.42H49.2899C49.5136 16.4488 49.7409 16.4275 49.9552 16.3576C50.1696 16.2877 50.3658 16.171 50.5295 16.0159C50.6932 15.8608 50.8203 15.6712 50.9017 15.4609C50.9831 15.2506 51.0166 15.0249 50.9999 14.8C51.0089 14.574 50.9686 14.3487 50.8818 14.1398C50.795 13.9309 50.6639 13.7433 50.4974 13.5902C50.3309 13.437 50.1331 13.3219 49.9177 13.2528C49.7023 13.1837 49.4745 13.1623 49.2499 13.19H46.7899V16.42ZM46.7899 21.54H49.3899C50.5899 21.54 51.2599 20.91 51.2599 19.83C51.2599 18.75 50.6099 18.18 49.3499 18.18H46.7899V21.54Z" />
<path d="M73.54 23.58C72.6883 23.7099 71.8218 23.7099 70.97 23.58L69.9 20.82H64.9L63.83 23.58C62.9816 23.71 62.1184 23.71 61.27 23.58L66.37 11.12C67.0529 10.9799 67.7571 10.9799 68.44 11.12L73.54 23.58ZM69.11 18.73L67.39 14.32L65.67 18.73H69.11Z" />
<path d="M88.79 11.86C88.9489 12.6454 88.9489 13.4546 88.79 14.24C87.788 13.4726 86.5875 13.0077 85.33 12.9C84.16 12.9 83.45 13.51 83.45 14.39C83.45 15.27 84.24 15.68 86.03 16.24C87.82 16.8 89.63 17.54 89.63 20.05C89.63 22.56 87.63 23.87 85.17 23.87C83.8431 23.8821 82.5374 23.5367 81.39 22.87C81.2297 22.0814 81.2297 21.2686 81.39 20.48C82.4648 21.2766 83.7453 21.7486 85.08 21.84C86.4 21.84 87.08 21.18 87.08 20.28C87.08 19.38 86.29 18.96 84.45 18.38C82.8 17.79 81 16.95 81 14.64C81 12.64 82.55 10.83 85.36 10.83C86.5793 10.8314 87.7716 11.1894 88.79 11.86V11.86Z" />
<path d="M106.72 21.51C106.85 22.1939 106.85 22.8961 106.72 23.58H98.17V11.12H106.72C106.85 11.8039 106.85 12.5061 106.72 13.19H100.65V16.19H106.11C106.24 16.8739 106.24 17.5761 106.11 18.26H100.65V21.48L106.72 21.51Z" />
<path d="M125.69 14.21C125.71 14.8225 125.55 15.4273 125.23 15.95C124.91 16.4707 124.449 16.8902 123.9 17.16C124.533 17.3913 125.077 17.8164 125.454 18.3749C125.831 18.9333 126.022 19.5965 126 20.27C126 22.53 124 23.89 121.51 23.89C120.191 23.9168 118.891 23.5701 117.76 22.89C117.6 22.1081 117.6 21.3019 117.76 20.52C118.792 21.2816 120.013 21.7451 121.29 21.86C122.46 21.86 123.48 21.26 123.48 20C123.48 19 122.88 18.31 121.56 18.31H120C119.865 17.6501 119.865 16.9699 120 16.31H121.51C121.737 16.3244 121.964 16.2907 122.176 16.2112C122.389 16.1316 122.582 16.008 122.744 15.8484C122.905 15.6888 123.031 15.4968 123.113 15.2851C123.195 15.0734 123.232 14.8468 123.22 14.62C123.222 14.3694 123.169 14.1213 123.065 13.8933C122.961 13.6652 122.808 13.4626 122.618 13.2998C122.427 13.1369 122.203 13.0176 121.962 12.9503C121.721 12.8829 121.467 12.8692 121.22 12.91C119.97 13.0179 118.778 13.4869 117.79 14.26C117.64 13.4738 117.64 12.6662 117.79 11.88C118.836 11.1843 120.074 10.8345 121.33 10.88C124.07 10.83 125.69 12.25 125.69 14.21Z" />
<path d="M46.2999 33.54C46.5462 33.5011 46.7979 33.5159 47.0379 33.5833C47.2779 33.6507 47.5005 33.7692 47.6904 33.9306C47.8803 34.0921 48.0331 34.2927 48.1383 34.5187C48.2436 34.7447 48.2987 34.9907 48.2999 35.24C48.3122 35.6317 48.1765 36.0137 47.9199 36.31C47.6687 36.6138 47.3111 36.8105 46.9199 36.86L48.4499 38.92C48.2227 38.9699 47.9872 38.9699 47.7599 38.92L46.2999 36.92H44.9399V38.92C44.7363 38.97 44.5236 38.97 44.3199 38.92V33.54H46.2999ZM44.9399 36.42H46.2999C46.4647 36.4352 46.6308 36.4158 46.7877 36.3631C46.9445 36.3104 47.0887 36.2257 47.2109 36.1141C47.3332 36.0026 47.4308 35.8669 47.4976 35.7155C47.5644 35.5641 47.5989 35.4005 47.5989 35.235C47.5989 35.0695 47.5644 34.9059 47.4976 34.7545C47.4308 34.6032 47.3332 34.4674 47.2109 34.3559C47.0887 34.2443 46.9445 34.1596 46.7877 34.1069C46.6308 34.0542 46.4647 34.0349 46.2999 34.05H44.9399V36.42Z" />
<path d="M54.94 38.42C54.99 38.5897 54.99 38.7703 54.94 38.94H51.33V33.54H54.94C54.99 33.7097 54.99 33.8903 54.94 34.06H52V35.91H54.74C54.78 36.081 54.78 36.259 54.74 36.43H52V38.43L54.94 38.42Z" />
<path d="M62.51 38.92C62.2962 38.9699 62.0738 38.9699 61.86 38.92L61.24 37.42H58.73L58.1 38.92C57.893 38.9701 57.677 38.9701 57.47 38.92L59.72 33.54C59.8934 33.4923 60.0765 33.4923 60.25 33.54L62.51 38.92ZM61.05 36.92L60 34.33L58.94 36.89L61.05 36.92Z" />
<path d="M68.83 38.42C68.87 38.591 68.87 38.769 68.83 38.94H65.35V33.54C65.5536 33.49 65.7663 33.49 65.97 33.54V38.42H68.83Z" />
<path d="M77.75 38.42C77.8 38.5897 77.8 38.7703 77.75 38.94H74.14V33.54H77.75C77.8 33.7097 77.8 33.8903 77.75 34.06H74.75V35.91H77.5C77.5401 36.081 77.5401 36.259 77.5 36.43H74.77V38.43L77.75 38.42Z" />
<path d="M83.82 33.91C83.87 34.1103 83.87 34.3197 83.82 34.52C83.3872 34.1577 82.8442 33.9532 82.28 33.94C81.55 33.94 81.13 34.35 81.13 34.85C81.13 35.35 81.54 35.6 82.52 35.91C83.33 36.18 84.12 36.49 84.12 37.51C84.12 38.53 83.33 39.04 82.29 39.04C81.6976 39.0436 81.1182 38.8656 80.63 38.53C80.58 38.3297 80.58 38.1203 80.63 37.92C81.1021 38.2905 81.6802 38.5007 82.28 38.52C83.02 38.52 83.5 38.12 83.5 37.52C83.5 36.92 83 36.71 82.1 36.42C81.2 36.13 80.5 35.82 80.5 34.89C80.5133 34.674 80.5708 34.4629 80.669 34.27C80.7672 34.0771 80.904 33.9065 81.0709 33.7687C81.2378 33.6308 81.4313 33.5288 81.6393 33.4688C81.8472 33.4088 82.0653 33.3922 82.28 33.42C82.8333 33.4091 83.3747 33.5814 83.82 33.91Z" />
<path d="M90.48 33.54C90.53 33.7097 90.53 33.8903 90.48 34.06H88.71V38.92C88.5063 38.97 88.2936 38.97 88.09 38.92V34.06H86.32C86.27 33.8903 86.27 33.7097 86.32 33.54H90.48Z" />
<path d="M97.06 38.92C96.8496 38.9702 96.6304 38.9702 96.42 38.92L95.8 37.42H93.29L92.66 38.91C92.4496 38.9602 92.2304 38.9602 92.02 38.91L94.28 33.53C94.4535 33.4823 94.6366 33.4823 94.81 33.53L97.06 38.92ZM95.6 36.92L94.53 34.36L93.47 36.92H95.6Z" />
<path d="M102.75 33.54C102.8 33.7097 102.8 33.8903 102.75 34.06H101V38.92C100.796 38.97 100.584 38.97 100.38 38.92V34.06H98.59C98.54 33.8903 98.54 33.7097 98.59 33.54H102.75Z" />
<path d="M109.25 38.42C109.3 38.5897 109.3 38.7703 109.25 38.94H105.64V33.54H109.25C109.3 33.7097 109.3 33.8903 109.25 34.06H106.25V35.91H109C109.04 36.081 109.04 36.259 109 36.43H106.27V38.43L109.25 38.42Z" />
</g>
<defs>
<clipPath id="clip0_14_34">
<rect width="126" height="39.05" fill="white"/>
</clipPath>
</defs>
</svg>
