<svg width="140" height="31" viewBox="0 0 140 31" fill="none" xmlns="http://www.w3.org/2000/svg">
<g clip-path="url(#clip0_14_58)">
<path d="M43.45 4.58002C45.1599 4.4698 46.86 4.91147 48.3 5.84002C48.8911 6.31499 49.3556 6.92871 49.6522 7.62658C49.9488 8.32445 50.0683 9.08482 50 9.84002C50.0139 10.8018 49.7079 11.741 49.13 12.51C48.5319 13.2773 47.6998 13.8285 46.76 14.08C47.9328 14.2783 48.9964 14.8881 49.76 15.8C50.5116 16.6882 50.9197 17.8165 50.91 18.98C50.9566 19.7514 50.8237 20.5231 50.5218 21.2345C50.2199 21.9458 49.7572 22.5776 49.17 23.08C47.8381 24.093 46.1913 24.603 44.52 24.52H35.39V23.28L37.64 23.11V5.97002L35.39 5.84002V4.58002H43.45ZM39.25 13.52H43.86C45.0621 13.5865 46.2499 13.233 47.22 12.52C47.6247 12.1804 47.9428 11.7493 48.148 11.2625C48.3532 10.7756 48.4396 10.2469 48.4 9.72002C48.439 9.17861 48.3435 8.63595 48.1219 8.14042C47.9003 7.6449 47.5596 7.2119 47.13 6.88002C46.0387 6.17295 44.7472 5.83955 43.45 5.93002H39.24V13.48L39.25 13.52ZM39.25 14.88V23.11H44.52C45.7754 23.1805 47.0132 22.7892 48 22.01C48.4214 21.6358 48.7541 21.1724 48.9738 20.6534C49.1935 20.1345 49.2947 19.573 49.27 19.01C49.2878 18.4676 49.195 17.9272 48.9973 17.4218C48.7996 16.9163 48.5011 16.4564 48.12 16.07C47.678 15.6489 47.1547 15.3226 46.582 15.1111C46.0094 14.8996 45.3996 14.8074 44.79 14.84L39.25 14.88Z" />
<path d="M52 4.38V3.16H55.87V23.16L58.12 23.34V24.55H52V23.3L54.24 23.12V4.55L52 4.38Z" />
<path d="M70.06 22.05C69.617 22.8812 68.9524 23.5734 68.14 24.05C67.2619 24.5337 66.2723 24.7785 65.27 24.76C64.5774 24.7936 63.8863 24.6677 63.25 24.392C62.6137 24.1163 62.0492 23.6983 61.6 23.17C60.6094 21.7297 60.1434 19.9928 60.28 18.25V11.09L58.44 10.92V9.71002H61.92V18.31C61.8049 19.6684 62.1273 21.0279 62.84 22.19C63.1545 22.58 63.5566 22.8901 64.0136 23.0951C64.4707 23.3002 64.9697 23.3944 65.47 23.37C66.5326 23.4304 67.5859 23.1425 68.47 22.55C69.2064 21.9734 69.7418 21.1789 70 20.28V11.11L67.88 10.94V9.73002H71.66V23.14L73.66 23.31V24.52H70.21L70.06 22.05Z" />
<path d="M79 5.84002L77 5.99002L80.09 18.84L80.7 21.84H80.79L81.54 18.84L85.92 4.58002H87.47L91.85 18.84L92.58 21.92H92.67L93.31 18.84L96.42 5.92002L94.42 5.77002V4.58002H99.64V5.84002L98.14 5.94002L93.45 24.49H91.9L87.24 9.20002L86.72 7.11002H86.63L86.14 9.20002L81.45 24.49H79.9L75.24 5.90002L73.74 5.80002V4.58002H79V5.84002Z" />
<path d="M109.33 24.49C109.23 23.99 109.14 23.56 109.1 23.19C109.051 22.822 109.028 22.4512 109.03 22.08C108.455 22.8803 107.706 23.5402 106.84 24.01C105.891 24.5207 104.828 24.7821 103.75 24.77C102.519 24.8506 101.305 24.4448 100.37 23.64C99.9693 23.2532 99.6552 22.7858 99.4483 22.2687C99.2415 21.7515 99.1466 21.1965 99.17 20.64C99.1576 19.9803 99.3205 19.3291 99.642 18.7528C99.9635 18.1766 100.432 17.696 101 17.36C102.446 16.4846 104.122 16.0631 105.81 16.15H109.1V14.21C109.127 13.7469 109.051 13.2836 108.878 12.8532C108.706 12.4228 108.44 12.0358 108.1 11.72C107.292 11.0654 106.267 10.7404 105.23 10.81C104.464 10.8022 103.702 10.9135 102.97 11.14C102.348 11.3317 101.771 11.6444 101.27 12.06L101.13 14.06H99.69V11.22C100.44 10.6639 101.273 10.2317 102.16 9.93999C103.146 9.6108 104.18 9.44857 105.22 9.45999C106.659 9.3795 108.079 9.81966 109.22 10.7C109.723 11.1427 110.119 11.6943 110.377 12.3129C110.636 12.9315 110.749 13.6008 110.71 14.27V21.54C110.71 21.83 110.71 22.13 110.71 22.41C110.725 22.6815 110.755 22.9519 110.8 23.22L112.28 23.32V24.53H109.28L109.33 24.49ZM103.92 23.33C105.023 23.3461 106.111 23.0664 107.07 22.52C107.931 22.0303 108.627 21.2959 109.07 20.41V17.41H105.77C104.512 17.3537 103.265 17.674 102.19 18.33C101.786 18.5736 101.451 18.9164 101.216 19.3259C100.982 19.7355 100.856 20.1981 100.85 20.67C100.837 21.0316 100.904 21.3917 101.048 21.7239C101.191 22.056 101.407 22.352 101.68 22.59C102.314 23.0977 103.109 23.3604 103.92 23.33V23.33Z" />
<path d="M117.14 10.92L115.28 11.06L119 20.84L119.49 22.57H119.58L120.1 20.84L123.75 11.1L121.89 10.96V9.71002H126.89V10.92L125.43 11.04L120.17 24.49H118.85L113.57 11.04L112.11 10.92V9.71002H117.11V10.92H117.14Z" />
<path d="M133.49 24.84C132.612 24.8594 131.741 24.6858 130.937 24.3316C130.134 23.9774 129.418 23.4512 128.84 22.79C127.573 21.3386 126.914 19.4547 127 17.53V16.84C126.932 14.9166 127.584 13.0372 128.83 11.57C129.364 10.911 130.039 10.3808 130.806 10.019C131.573 9.65714 132.412 9.47291 133.26 9.48001C134.06 9.43669 134.859 9.56913 135.602 9.86802C136.345 10.1669 137.013 10.625 137.56 11.21C138.645 12.4857 139.203 14.1272 139.12 15.8V17.18H128.62V17.58C128.594 19.071 129.081 20.5256 130 21.7C130.407 22.2424 130.939 22.6796 131.549 22.9753C132.16 23.271 132.832 23.4166 133.51 23.4C134.398 23.4221 135.283 23.2797 136.12 22.98C136.821 22.7175 137.456 22.3045 137.98 21.77L138.67 22.9C138.076 23.513 137.351 23.9846 136.55 24.28C135.578 24.6687 134.537 24.8591 133.49 24.84V24.84ZM133.28 10.84C132.7 10.8358 132.125 10.958 131.597 11.198C131.069 11.4381 130.599 11.7902 130.22 12.23C129.366 13.1982 128.856 14.4218 128.77 15.71V15.78H137.48V15.36C137.518 14.1799 137.107 13.0294 136.33 12.14C135.947 11.7147 135.475 11.3781 134.948 11.1536C134.422 10.9291 133.852 10.8221 133.28 10.84V10.84Z" />
<path fill-rule="evenodd" clip-rule="evenodd" d="M15.18 8.12218e-06C12.8228 -0.0054637 10.4963 0.535237 8.38307 1.5797C6.26984 2.62417 4.42732 4.14401 3 6.02001C17.24 -1.62999 26.7 15.51 14.8 18.07L15.03 17.77C22 8.25001 3.55 4.84001 0 15.3C0.0238382 17.1693 0.396912 19.0178 1.1 20.75C1.58 17.84 4 8.39001 14.47 13.01C2 11.75 1.6 28 15.53 30.22C15.6231 30.2299 15.7169 30.2299 15.81 30.22C17.24 30.22 8.45 28.84 7.86 21.31C13.76 28.72 21.57 28.85 22.35 28.44C25.3436 26.8629 27.7202 24.3255 29.0983 21.2353C30.4764 18.1451 30.7759 14.6814 29.9487 11.4005C29.1216 8.11957 27.2158 5.21185 24.5374 3.14431C21.859 1.07677 18.5634 -0.030615 15.18 8.12218e-06V8.12218e-06Z" />
</g>
<defs>
<clipPath id="clip0_14_58">
<rect width="139.12" height="30.22" fill="white"/>
</clipPath>
</defs>
</svg>
