<svg width="113" height="25" viewBox="0 0 113 25" fill="none" xmlns="http://www.w3.org/2000/svg">
<path d="M42.7 5.88V19.67H56.32V14.99L61.32 16.04V18.61C61.32 22.7 60.01 23.75 55.93 23.75H43C38.92 23.75 37.62 22.75 37.62 18.61V7.15C37.62 3.06 38.92 2 43 2H56C60.08 2 61.39 3.06 61.39 7.15V9.21L56.39 10.01V5.88H42.7Z" />
<path d="M68 5.88V19.67H81.6V14.99L86.6 16.04V18.61C86.6 22.7 85.3 23.75 81.22 23.75H68.22C64.14 23.75 62.84 22.75 62.84 18.61V7.15C62.84 3.06 64.14 2 68.22 2H81.22C85.3 2 86.61 3.06 86.61 7.15V9.21L81.56 10.01V5.88H68Z" />
<path d="M93.25 5.79999V10.48H106.79C110.87 10.48 112.22 11.48 112.22 15.63V18.63C112.22 22.72 110.87 23.77 106.79 23.77H93.38C89.3 23.77 87.95 22.72 87.95 18.63V18.04L92.41 17.11V19.68H107.76V14.68H94.21C90.14 14.68 88.83 13.62 88.83 9.52999V7.12999C88.83 3.04999 90.14 1.98999 94.21 1.98999H106.54C110.41 1.98999 111.92 2.98999 111.92 6.75999V7.21999L107.46 8.26999V5.79999H93.25Z" />
<path fill-rule="evenodd" clip-rule="evenodd" d="M0 14.46C0 16.29 1.06 17.2 3.19 17.2H12.66V14.46H5.41C3.5 14.46 3.19 13.51 3.19 12.57V7.05999C3.19 5.95999 3.92 5.05999 5.55 5.05999H16V2.28999H3.19C2.40524 2.23737 1.63121 2.49504 1.03457 3.00751C0.437925 3.51999 0.0664028 4.24628 0 5.02999L0 14.46ZM20.34 11.46C20.34 9.62999 19.28 8.71999 17.14 8.71999H7.69V11.38H14.8C16.19 11.38 17.15 11.93 17.14 13.14V18.93C17.14 19.99 16.68 20.79 14.77 20.81C12.86 20.83 3.77 20.81 3.77 20.81V23.54L17.12 23.59C17.9064 23.6453 18.683 23.3889 19.2819 22.8762C19.8807 22.3634 20.2536 21.6356 20.32 20.85L20.34 11.46Z" />
<path d="M30 2H28V24H30V2Z" />
</svg>
