<svg xmlns="http://www.w3.org/2000/svg" viewBox="0 0 105 118">
  <g stroke="none">
    <path d="M81.6 82.8C75.6 87.6 67.2 91.2 58.8 91.2C39.6 91.2 26.4 76.8 26.4 57.6C26.4 38.4 39.6 25.2 58.8 25.2C67.2 25.2 75.6 27.6 81.6 33.6L85.2 37.2L104.4 19.2L99.6 15.6C88.8 5.99998 74.4 0 58.8 0C25.2 0 0 25.2 0 58.8C0 92.4 25.2 117.6 58.8 117.6C74.4 117.6 88.8 111.6 99.6 102L104.4 98.4L85.2 79.2L81.6 82.8Z"/>
    <path d="M57.6004 77.9996C68.2043 77.9996 76.8004 69.4035 76.8004 58.7996C76.8004 48.1958 68.2043 39.5996 57.6004 39.5996C46.9965 39.5996 38.4004 48.1958 38.4004 58.7996C38.4004 69.4035 46.9965 77.9996 57.6004 77.9996Z"/>
  </g>
</svg>