<svg width="71" height="20" viewBox="0 0 71 20" fill="none" xmlns="http://www.w3.org/2000/svg">
<g clip-path="url(#clip0_322_929)">
<path d="M18.3242 0H21.5661V20H18.3242V0Z" fill="black"/>
<path d="M32.8419 13.6621C32.8419 16.7607 30.3048 17.0424 29.4591 17.0424C27.4857 17.0424 27.2038 15.2114 27.2038 14.2255V6.479H23.9619V14.0846C23.9619 15.9157 24.5257 17.6058 25.6533 18.5917C26.64 19.5776 27.9086 20.0001 29.4591 20.0001C30.5867 20.0001 31.9962 19.7185 32.8419 18.8734V20.0001H36.0838V6.479H32.8419V13.6621Z" fill="black"/>
<path d="M42.4262 1.54932H39.1843V6.47888H36.7881V9.57748H39.1843V20H42.4262V9.57748H44.8224V6.47888H42.4262V1.54932Z" fill="black"/>
<path d="M54.9715 15.9156C54.2667 16.4789 53.2801 16.9015 52.2934 16.9015C50.0382 16.9015 48.4877 15.2113 48.4877 12.9578C48.4877 10.7043 50.0382 9.155 52.2934 9.155C53.2801 9.155 54.2667 9.43667 54.9715 10.1409L55.3943 10.5635L57.6496 8.45078L57.0858 8.02824C55.8172 6.90148 54.1258 6.19727 52.2934 6.19727C48.3467 6.19727 45.3867 9.155 45.3867 13.0987C45.3867 17.0423 48.3467 20.0001 52.2934 20.0001C54.1258 20.0001 55.8172 19.2959 57.0858 18.1691L57.6496 17.7466L55.3943 15.493L54.9715 15.9156Z" fill="black"/>
<path d="M69.0669 7.60562C68.0802 6.61973 67.0935 6.19719 65.5431 6.19719C64.4154 6.19719 63.2878 6.47886 62.4421 7.32395V0H59.2002V20H62.4421V12.5352C62.4421 9.43665 64.5564 9.15492 65.4021 9.15492C67.3754 9.15492 67.2345 10.9859 67.2345 11.9718V19.8591H70.4764V12.1127C70.4764 10.2817 70.0535 8.59157 69.0669 7.60562Z" fill="black"/>
<path d="M52.1527 15.3522C53.3982 15.3522 54.4079 14.3433 54.4079 13.0987C54.4079 11.8541 53.3982 10.8452 52.1527 10.8452C50.9072 10.8452 49.8975 11.8541 49.8975 13.0987C49.8975 14.3433 50.9072 15.3522 52.1527 15.3522Z" fill="black"/>
<path d="M13.8133 15.0703C12.6857 16.1971 10.9943 16.9013 9.1619 16.9013C5.6381 16.9013 3.10095 14.0844 3.10095 10.2816C3.10095 6.47874 5.6381 3.66185 9.30286 3.66185C10.9943 3.66185 12.6857 4.36608 13.9543 5.63366L14.3771 6.0562L16.4914 3.94354L16.0686 3.521C14.2362 1.69002 11.84 0.704104 9.30286 0.704104C3.94667 0.563256 0 4.78861 0 10.2816C0 15.7745 3.94667 19.9999 9.1619 19.9999C11.699 19.9999 14.2362 19.014 15.9276 17.183L16.3505 16.7604L14.2362 14.6478L13.8133 15.0703Z" fill="black"/>
</g>
<defs>
<clipPath id="clip0_322_929">
<rect width="70.4762" height="20" fill="white"/>
</clipPath>
</defs>
</svg>
