<svg width="54" height="54" viewBox="0 0 54 54" xmlns="http://www.w3.org/2000/svg">
  <path d="M32.811 27.457H22.691C22.783 28.7143 23.266 29.734 24.14 30.516C25.014 31.2827 26.118 31.666 27.452 31.666C28.2033 31.666 28.8933 31.5357 29.522 31.275C30.1507 30.999 30.695 30.6003 31.155 30.079L32.075 31.137C31.5383 31.781 30.8637 32.2717 30.051 32.609C29.2537 32.9463 28.372 33.115 27.406 33.115C26.164 33.115 25.06 32.8543 24.094 32.333C23.1433 31.7963 22.3997 31.0603 21.863 30.125C21.3263 29.1897 21.058 28.1317 21.058 26.951C21.058 25.7703 21.311 24.7123 21.817 23.777C22.3383 22.8417 23.0437 22.1133 23.933 21.592C24.8377 21.0707 25.8497 20.81 26.969 20.81C28.0883 20.81 29.0927 21.0707 29.982 21.592C30.8713 22.1133 31.569 22.8417 32.075 23.777C32.581 24.697 32.834 25.755 32.834 26.951L32.811 27.457ZM26.969 22.213C25.8037 22.213 24.8223 22.5887 24.025 23.34C23.243 24.076 22.7983 25.042 22.691 26.238H31.27C31.1627 25.042 30.7103 24.076 29.913 23.34C29.131 22.5887 28.1497 22.213 26.969 22.213ZM34.3889 33.09C34.1249 33.09 33.8969 32.994 33.7049 32.802C33.5249 32.61 33.4349 32.376 33.4349 32.1C33.4349 31.824 33.5249 31.596 33.7049 31.416C33.8969 31.224 34.1249 31.128 34.3889 31.128C34.6529 31.128 34.8809 31.224 35.0729 31.416C35.2649 31.596 35.3609 31.824 35.3609 32.1C35.3609 32.376 35.2649 32.61 35.0729 32.802C34.8809 32.994 34.6529 33.09 34.3889 33.09Z"/>
  <circle cx="27" cy="27" r="25" fill="none" stroke="currentColor" stroke-width="1.5"/>
</svg>