<svg xmlns="http://www.w3.org/2000/svg" viewBox="0 0 109.42 18">
  <path d="M10.45 11.23v.92H2.73a2.9 2.9 0 0 0 .89 2 3 3 0 0 0 2.07.73 3.34 3.34 0 0 0 2.9-1.58l1.77 1.7a5.62 5.62 0 0 1-4.67 2.3 5.38 5.38 0 0 1-4.09-1.66A5.84 5.84 0 0 1 0 11.43a6.49 6.49 0 0 1 1.46-4.25A4.78 4.78 0 0 1 5.3 5.45a4.53 4.53 0 0 1 3.85 1.71 6.48 6.48 0 0 1 1.3 4.07zM5.33 7.85a2.22 2.22 0 0 0-1.63.62 3.07 3.07 0 0 0-.84 1.58h4.81a2.26 2.26 0 0 0-.62-1.57 2.26 2.26 0 0 0-1.72-.63zM18 .88h1v2.44a5 5 0 0 0-.6 0 2.56 2.56 0 0 0-1.81.54A2.38 2.38 0 0 0 16 5.59v.14h2.71v2.35H16V17h-2.56V8.08h-1.65V5.73h1.65v-.57C13.44 2.3 15 .88 18 .88zM22.32 4a1.59 1.59 0 0 1-1.17-.48 1.63 1.63 0 0 1-.48-1.18 1.53 1.53 0 0 1 .48-1.15 1.59 1.59 0 0 1 1.17-.52 1.63 1.63 0 0 1 1.18.48A1.53 1.53 0 0 1 24 2.3 1.64 1.64 0 0 1 22.32 4zm1.29 13H21V5.73h2.62zM33.84 5.59v2.49a1.82 1.82 0 0 0-.41 0 3.15 3.15 0 0 0-2.69 1.06 6 6 0 0 0-.74 3.44V17h-2.66V5.73h2.57V7a4.21 4.21 0 0 1 3.43-1.38zM51.21 17h-2.6v-6.74a2.67 2.67 0 0 0-.55-1.78 1.88 1.88 0 0 0-1.52-.66 2.08 2.08 0 0 0-1.71.74 3 3 0 0 0-.61 2V17H41.6V5.73h2.57v1a4 4 0 0 1 6.07.21 4.5 4.5 0 0 1 3.52-1.48 4.27 4.27 0 0 1 3.35 1.28 5.41 5.41 0 0 1 1.14 3.72V17h-2.62v-6.74a2.67 2.67 0 0 0-.56-1.78 1.85 1.85 0 0 0-1.51-.66 2.12 2.12 0 0 0-1.73.75 3.07 3.07 0 0 0-.62 2zM71 11.23v.92h-7.72a2.9 2.9 0 0 0 .9 2 3 3 0 0 0 2.07.73 3.34 3.34 0 0 0 2.9-1.58l1.77 1.7a5.63 5.63 0 0 1-4.67 2.3 5.36 5.36 0 0 1-4.09-1.61 5.81 5.81 0 0 1-1.57-4.21A6.5 6.5 0 0 1 62 7.18a4.77 4.77 0 0 1 3.84-1.73 4.53 4.53 0 0 1 3.85 1.71A6.48 6.48 0 0 1 71 11.23zm-5.12-3.38a2.19 2.19 0 0 0-1.62.62 3.07 3.07 0 0 0-.84 1.58h4.81a2.15 2.15 0 0 0-2.35-2.2zM78.74 5.45a4.59 4.59 0 0 1 3.15 1.11V.88h2.62V17h-2.57v-1a4.22 4.22 0 0 1-3.2 1.26 5.23 5.23 0 0 1-4-1.65 6 6 0 0 1-1.54-4.23 6.06 6.06 0 0 1 1.54-4.24 5.14 5.14 0 0 1 4-1.69zm2.39 3.34a2.91 2.91 0 0 0-4.41 0 4 4 0 0 0-.81 2.58 4 4 0 0 0 .81 2.57 2.91 2.91 0 0 0 4.41 0 4 4 0 0 0 .81-2.57 4 4 0 0 0-.81-2.58zM89.27 4a1.59 1.59 0 0 1-1.17-.48 1.63 1.63 0 0 1-.48-1.18 1.53 1.53 0 0 1 .48-1.15 1.59 1.59 0 0 1 1.17-.52 1.61 1.61 0 0 1 1.18.48 1.53 1.53 0 0 1 .48 1.15 1.63 1.63 0 0 1-.48 1.18 1.61 1.61 0 0 1-1.18.52zm1.29 13h-2.62V5.73h2.62zM97.05 17.25a4 4 0 0 1-2.72-.92 3.15 3.15 0 0 1-1.08-2.5A3.31 3.31 0 0 1 94.54 11a5.43 5.43 0 0 1 3.4-1 7.21 7.21 0 0 1 2.28.4v-.71a1.68 1.68 0 0 0-.62-1.35 2.41 2.41 0 0 0-1.6-.52 2.86 2.86 0 0 0-2.66 1.64L93.57 7.8a4.28 4.28 0 0 1 1.83-1.74 5.89 5.89 0 0 1 2.6-.61 5.18 5.18 0 0 1 3.51 1.11 3.9 3.9 0 0 1 1.29 3.15V17h-2.57v-.87a4.68 4.68 0 0 1-3.18 1.12zm-1.17-3.61a1.13 1.13 0 0 0 .44.94 1.91 1.91 0 0 0 1.26.37 3.63 3.63 0 0 0 2.64-1V12.7a6.69 6.69 0 0 0-2.34-.46 2.51 2.51 0 0 0-1.46.37 1.15 1.15 0 0 0-.54 1.03zM106.11 15.62a1.66 1.66 0 0 1 1.66-1.62 1.62 1.62 0 0 1 1.17.49 1.64 1.64 0 0 1 0 2.32 1.68 1.68 0 0 1-2.35 0 1.58 1.58 0 0 1-.48-1.19z"/>
</svg>