<svg width="40" height="39" viewBox="0 0 40 39" fill="none" xmlns="http://www.w3.org/2000/svg">
  <path d="M19.7 0C23.3 0 26.6 0.866666 29.6 2.6C32.6 4.33333 34.9667 6.7 36.7 9.7C38.5 12.6333 39.4 15.8667 39.4 19.4C39.4 23 38.5333 26.3 36.8 29.3C35.0667 32.3 32.6667 34.6667 29.6 36.4C26.6 38.1333 23.3 39 19.7 39C16.1 39 12.7667 38.1333 9.7 36.4C6.7 34.6667 4.33333 32.3 2.6 29.3C0.866667 26.3 0 23 0 19.4C0 15.8667 0.866667 12.6333 2.6 9.7C4.4 6.7 6.8 4.33333 9.8 2.6C12.8 0.866666 16.1 0 19.7 0ZM19.7 35.3C22.6333 35.3 25.3 34.6 27.7 33.2C30.1667 31.8 32.1 29.9 33.5 27.5C34.9 25.0333 35.6 22.3333 35.6 19.4C35.6 16.5333 34.9 13.9 33.5 11.5C32.1 9.1 30.1667 7.2 27.7 5.8C25.3 4.4 22.6333 3.7 19.7 3.7C16.7667 3.7 14.0667 4.4 11.6 5.8C9.2 7.2 7.3 9.1 5.9 11.5C4.5 13.9 3.8 16.5333 3.8 19.4C3.8 22.3333 4.5 25.0333 5.9 27.5C7.3 29.9 9.2 31.8 11.6 33.2C14.0667 34.6 16.7667 35.3 19.7 35.3Z" fill="black"/>
  <path d="M25.8008 26.4004C25.8008 26.4004 23.5499 28.4004 19.8008 28.4004C16.0499 28.4004 13.8008 26.4004 13.8008 26.4004" stroke="black" stroke-width="3" stroke-linecap="round" stroke-linejoin="round"/>
  <circle cx="13.8008" cy="15.4004" r="2" fill="black"/>
  <circle cx="25.8008" cy="15.4004" r="2" fill="black"/>
</svg>
