<?xml version="1.0" encoding="utf-8"?>
<!-- Generator: Adobe Illustrator 22.1.0, SVG Export Plug-In . SVG Version: 6.00 Build 0)  -->
<svg version="1.1" id="Слой_1" xmlns="http://www.w3.org/2000/svg" xmlns:xlink="http://www.w3.org/1999/xlink" x="0px" y="0px"
	 viewBox="0 0 40 39" style="enable-background:new 0 0 40 39;" xml:space="preserve">
<g>
	<path d="M36.8,9.7c-1.7-3-4.1-5.4-7.1-7.1S23.4,0,19.8,0c-3.6,0-6.9,0.9-9.9,2.6S4.5,6.7,2.7,9.7c-1.7,2.9-2.6,6.2-2.6,9.7
		c0,3.6,0.9,6.9,2.6,9.9s4.1,5.4,7.1,7.1c3.1,1.7,6.4,2.6,10,2.6c3.6,0,6.9-0.9,9.9-2.6c3.1-1.7,5.5-4.1,7.2-7.1s2.6-6.3,2.6-9.9
		C39.5,15.9,38.6,12.6,36.8,9.7z M33.6,27.5c-1.4,2.4-3.3,4.3-5.8,5.7c-2.4,1.4-5.1,2.1-8,2.1c-2.9,0-5.6-0.7-8.1-2.1
		c-2.4-1.4-4.3-3.3-5.7-5.7c-1.4-2.5-2.1-5.2-2.1-8.1c0-2.9,0.7-5.5,2.1-7.9c1.4-2.4,3.3-4.3,5.7-5.7c2.5-1.4,5.2-2.1,8.1-2.1
		c2.9,0,5.6,0.7,8,2.1c2.5,1.4,4.4,3.3,5.8,5.7c1.4,2.4,2.1,5,2.1,7.9C35.7,22.3,35,25,33.6,27.5z"/>
	<path d="M20.1,8.5c-3.6,0-6.5,2.8-6.5,6.2c0,0.8,0.7,1.5,1.5,1.5s1.5-0.7,1.5-1.5c0-1.8,1.6-3.2,3.5-3.2s3.5,1.4,3.5,3.2
		c0,1.8-1.6,3.2-3.5,3.2c-0.8,0-1.5,0.7-1.5,1.5V23c0,0.8,0.7,1.5,1.5,1.5s1.5-0.7,1.5-1.5v-2.2c2.9-0.7,5-3.1,5-6.1
		C26.6,11.3,23.7,8.5,20.1,8.5z"/>
	<path d="M20.1,26.8c-0.9,0-1.6,0.7-1.6,1.7s0.7,1.7,1.6,1.7s1.6-0.7,1.6-1.7S21,26.8,20.1,26.8z"/>
</g>
</svg>
