<svg width="1694" height="1694" viewBox="0 0 1694 1694" fill="none" xmlns="http://www.w3.org/2000/svg">
<g clip-path="url(#clip0)">
<path d="M221.785 1089.8C222.547 1089.47 223.095 1089.68 223.428 1090.45L235.257 1117.49C235.39 1117.8 235.609 1117.89 235.914 1117.75L266.917 1104.39C267.222 1104.26 267.308 1104.04 267.175 1103.74L259.588 1086.39C259.255 1085.63 259.47 1085.09 260.233 1084.76L263.321 1083.43C264.084 1083.1 264.632 1083.31 264.964 1084.08L272.551 1101.42C272.684 1101.73 272.903 1101.81 273.209 1101.68L304.325 1088.27C304.63 1088.14 304.716 1087.92 304.583 1087.62L292.754 1060.57C292.421 1059.81 292.636 1059.26 293.398 1058.94L296.487 1057.61C297.25 1057.28 297.798 1057.49 298.13 1058.25L312.306 1090.67C312.638 1091.43 312.424 1091.97 311.661 1092.3L233.869 1125.82C233.107 1126.15 232.559 1125.94 232.226 1125.18L218.051 1092.76C217.718 1092 217.933 1091.46 218.696 1091.13L221.785 1089.8Z" fill="#040404"/>
<path d="M281.434 1010.3C281.671 1011 281.513 1011.58 280.961 1012.02L247.777 1037.33C247.566 1037.49 247.5 1037.68 247.579 1037.92L251.483 1049.62C251.588 1049.93 251.799 1050.04 252.114 1049.93L289.281 1037.74C290.07 1037.48 290.596 1037.75 290.859 1038.54L292.16 1042.44C292.423 1043.22 292.16 1043.75 291.37 1044.01L210.883 1070.41C210.094 1070.67 209.568 1070.4 209.305 1069.61L203.193 1051.3C201.353 1045.78 201.919 1040.66 204.892 1035.93C207.865 1031.19 212.666 1027.74 219.294 1025.57C224.581 1023.83 229.46 1023.5 233.931 1024.57C238.402 1025.63 241.966 1027.92 244.622 1031.42C244.806 1031.71 245.042 1031.76 245.332 1031.58L278.516 1005.88L278.95 1005.6C279.502 1005.42 279.897 1005.69 280.133 1006.4L281.434 1010.3ZM213.015 1062.24C213.12 1062.55 213.33 1062.66 213.646 1062.55L245.959 1051.95C246.275 1051.85 246.38 1051.64 246.275 1051.33L242.253 1039.27C240.965 1035.41 238.427 1032.79 234.64 1031.41C230.774 1030.06 226.355 1030.2 221.384 1031.83C216.334 1033.48 212.704 1035.99 210.494 1039.33C208.205 1042.71 207.704 1046.32 208.993 1050.18L213.015 1062.24Z" fill="#040404"/>
<path d="M268.869 958.277C269.041 959.007 268.831 959.569 268.239 959.963L232.798 982.276C232.574 982.414 232.49 982.604 232.548 982.848L235.394 994.891C235.471 995.215 235.672 995.34 235.996 995.264L274.235 986.416C275.047 986.228 275.549 986.54 275.741 987.351L276.69 991.365C276.881 992.176 276.571 992.676 275.759 992.863L192.948 1012.03C192.137 1012.21 191.635 1011.9 191.443 1011.09L186.986 992.235C185.645 986.558 186.672 981.488 190.07 977.024C193.467 972.56 198.576 969.539 205.396 967.961C210.835 966.702 215.741 966.807 220.113 968.276C224.484 969.745 227.839 972.347 230.178 976.083C230.336 976.388 230.568 976.463 230.873 976.307L266.35 953.6L266.809 953.365C267.377 953.234 267.747 953.533 267.92 954.263L268.869 958.277ZM195.815 1004.05C195.892 1004.37 196.093 1004.5 196.418 1004.42L229.664 996.73C229.988 996.655 230.112 996.455 230.036 996.13L227.103 983.722C226.164 979.749 223.864 976.902 220.204 975.183C216.462 973.483 212.034 973.225 206.92 974.408C201.724 975.61 197.871 977.785 195.361 980.932C192.769 984.097 191.943 987.667 192.883 991.641L195.815 1004.05Z" fill="#040404"/>
<path d="M263.543 922.553C264.37 928.559 263.152 933.707 259.886 937.997C256.528 942.216 251.762 944.738 245.588 945.563L198.792 951.814C192.536 952.65 187.26 951.47 182.963 948.273C178.584 945.088 175.976 940.452 175.137 934.364C174.298 928.276 175.552 923.081 178.9 918.78C182.165 914.49 186.925 911.927 193.181 911.091L239.977 904.839C246.151 904.015 251.433 905.236 255.823 908.504C260.131 911.782 262.704 916.465 263.543 922.553ZM257.74 923.329C257.173 919.215 255.356 916.065 252.288 913.877C249.209 911.607 245.488 910.764 241.125 911.347L193.835 917.664C189.473 918.247 186.114 920.036 183.761 923.032C181.313 925.956 180.373 929.475 180.94 933.588C181.495 937.62 183.348 940.723 186.498 942.9C189.566 945.087 193.281 945.89 197.644 945.307L244.934 938.989C249.296 938.406 252.66 936.658 255.025 933.745C257.39 930.832 258.295 927.36 257.74 923.329Z" fill="#040404"/>
<path d="M257.166 851.013C257.202 851.757 256.895 852.267 256.245 852.544L217.591 867.912C217.347 868.006 217.231 868.177 217.243 868.425L217.825 880.697C217.841 881.027 218.014 881.185 218.345 881.171L257.275 879.455C258.101 879.418 258.534 879.813 258.574 880.64L258.768 884.731C258.807 885.557 258.413 885.988 257.587 886.025L173.28 889.741C172.453 889.777 172.021 889.382 171.981 888.556L171.069 869.342C170.794 863.557 172.721 858.793 176.85 855.05C180.98 851.307 186.516 849.282 193.459 848.976C198.996 848.732 203.765 849.723 207.763 851.948C211.762 854.174 214.562 857.321 216.163 861.392C216.261 861.718 216.474 861.833 216.801 861.736L255.561 845.991L256.051 845.845C256.63 845.819 256.937 846.179 256.972 846.922L257.166 851.013ZM177.532 882.473C177.547 882.803 177.721 882.961 178.051 882.947L211.898 881.455C212.229 881.44 212.386 881.268 212.37 880.937L211.77 868.293C211.577 864.244 209.852 861.049 206.593 858.708C203.252 856.371 198.978 855.317 193.771 855.546C188.481 855.779 184.324 857.205 181.301 859.823C178.196 862.444 176.739 865.779 176.931 869.829L177.532 882.473Z" fill="#040404"/>
<path d="M231.985 769.674C232.059 768.847 232.51 768.471 233.337 768.547L236.811 768.866C237.638 768.942 238.015 769.394 237.941 770.221L237.607 773.944C237.577 774.275 237.728 774.456 238.058 774.486L260.515 776.55C261.343 776.626 261.719 777.077 261.645 777.905L261.277 782C261.203 782.827 260.752 783.203 259.925 783.127L237.468 781.063C237.137 781.033 236.957 781.183 236.927 781.514L234.278 811.049C234.203 811.876 233.753 812.252 232.925 812.176L229.7 811.879C229.369 811.849 228.88 811.721 228.233 811.494L174.24 787.265C173.6 786.956 173.314 786.429 173.381 785.685L173.781 781.217C173.863 780.307 174.348 780.018 175.235 780.35L228.281 803.992C228.439 804.09 228.604 804.105 228.777 804.037C228.867 803.962 228.92 803.842 228.934 803.676L230.972 780.967C231.002 780.636 230.851 780.455 230.52 780.425L209.924 778.533C209.097 778.457 208.721 778.005 208.795 777.178L209.162 773.082C209.237 772.255 209.687 771.88 210.515 771.956L231.11 773.848C231.441 773.878 231.622 773.728 231.651 773.397L231.985 769.674Z" fill="#040404"/>
<path d="M267.106 742.202C266.062 748.174 263.255 752.655 258.686 755.645C254.117 758.634 248.642 759.567 242.263 758.444L196.626 750.405C190.246 749.281 185.415 746.533 182.133 742.161C178.851 737.788 177.732 732.616 178.776 726.644C179.834 720.59 182.648 716.068 187.217 713.079C191.787 710.089 197.261 709.156 203.64 710.28L249.278 718.318C255.657 719.442 260.488 722.19 263.77 726.563C267.052 730.935 268.164 736.149 267.106 742.202ZM261.217 741.165C261.932 737.075 261.155 733.565 258.885 730.635C256.548 727.609 253.13 725.7 248.631 724.908L202.013 716.697C197.514 715.904 193.694 716.538 190.552 718.599C187.342 720.563 185.38 723.591 184.665 727.681C183.964 731.689 184.782 735.207 187.119 738.232C189.389 741.162 192.774 743.023 197.272 743.815L243.89 752.027C248.389 752.819 252.243 752.233 255.453 750.269C258.595 748.208 260.516 745.173 261.217 741.165Z" fill="#040404"/>
<path d="M252.978 664.141C253.192 663.339 253.7 663.045 254.503 663.259L257.872 664.159C258.675 664.373 258.969 664.882 258.755 665.684L257.792 669.295C257.706 669.616 257.824 669.819 258.145 669.905L279.928 675.723C280.731 675.937 281.025 676.445 280.811 677.248L279.752 681.22C279.538 682.022 279.029 682.316 278.227 682.102L256.444 676.284C256.123 676.199 255.919 676.316 255.834 676.637L248.194 705.283C247.98 706.086 247.472 706.38 246.669 706.166L243.54 705.33C243.219 705.244 242.759 705.035 242.16 704.703L193.066 671.736C192.488 671.324 192.296 670.757 192.488 670.035L193.644 665.702C193.879 664.819 194.406 664.616 195.225 665.092L243.484 697.321C243.623 697.444 243.784 697.487 243.966 697.45C244.067 697.391 244.14 697.281 244.182 697.121L250.057 675.094C250.142 674.773 250.025 674.57 249.704 674.484L229.726 669.149C228.923 668.935 228.629 668.426 228.843 667.624L229.902 663.652C230.116 662.849 230.625 662.555 231.427 662.77L251.405 668.105C251.726 668.191 251.929 668.073 252.015 667.752L252.978 664.141Z" fill="#040404"/>
<path d="M322.381 423.988C323.044 424.488 323.125 425.069 322.623 425.73L304.767 449.241C304.566 449.506 304.598 449.738 304.863 449.938L331.82 470.259C332.085 470.459 332.318 470.427 332.519 470.162L343.971 455.084C344.473 454.422 345.056 454.341 345.719 454.841L348.405 456.866C349.068 457.366 349.148 457.947 348.646 458.608L337.194 473.687C336.993 473.951 337.025 474.184 337.291 474.384L364.347 494.78C364.612 494.98 364.845 494.948 365.046 494.683L382.902 471.172C383.404 470.511 383.987 470.43 384.65 470.93L387.336 472.955C387.999 473.454 388.079 474.035 387.577 474.696L366.18 502.87C365.678 503.531 365.095 503.612 364.432 503.112L296.792 452.121C296.129 451.621 296.048 451.04 296.551 450.379L317.947 422.206C318.45 421.544 319.032 421.463 319.696 421.963L322.381 423.988Z" fill="#040404"/>
<path d="M421.363 436.911C420.859 437.463 420.277 437.608 419.616 437.347L381.102 420.966C380.861 420.86 380.657 420.899 380.489 421.083L372.174 430.19C371.95 430.436 371.961 430.67 372.207 430.893L401.206 457.143C401.822 457.7 401.849 458.285 401.29 458.898L398.518 461.934C397.958 462.548 397.37 462.576 396.754 462.018L333.955 405.172C333.339 404.615 333.312 404.029 333.871 403.416L346.89 389.157C350.809 384.863 355.574 382.847 361.183 383.108C366.792 383.369 372.183 385.84 377.354 390.522C381.479 394.256 384.177 398.322 385.447 402.72C386.717 407.118 386.475 411.324 384.722 415.338C384.56 415.639 384.63 415.87 384.932 416.031L423.791 432.22L424.244 432.462C424.675 432.853 424.639 433.324 424.135 433.876L421.363 436.911ZM342.16 403.021C341.936 403.267 341.947 403.501 342.193 403.724L367.405 426.546C367.651 426.769 367.886 426.758 368.11 426.512L376.677 417.129C379.421 414.123 380.463 410.642 379.803 406.684C379.082 402.671 376.782 398.908 372.903 395.397C368.963 391.83 364.983 389.908 360.963 389.63C356.882 389.297 353.47 390.632 350.726 393.638L342.16 403.021Z" fill="#040404"/>
<path d="M460.211 400.364C459.66 400.868 459.067 400.961 458.432 400.641L421.528 380.897C421.298 380.77 421.091 380.79 420.907 380.959L411.812 389.284C411.567 389.509 411.557 389.743 411.782 389.987L438.327 418.707C438.89 419.317 438.866 419.902 438.253 420.463L435.222 423.238C434.609 423.799 434.021 423.774 433.458 423.165L375.972 360.967C375.409 360.357 375.433 359.772 376.046 359.211L390.286 346.176C394.573 342.251 399.499 340.669 405.063 341.429C410.628 342.189 415.777 345.13 420.511 350.252C424.287 354.338 426.611 358.627 427.484 363.119C428.356 367.61 427.741 371.776 425.636 375.616C425.448 375.901 425.497 376.138 425.783 376.326L463.048 395.91L463.478 396.191C463.872 396.618 463.794 397.084 463.243 397.588L460.211 400.364ZM384.337 359.557C384.092 359.782 384.082 360.016 384.308 360.26L407.386 385.23C407.612 385.474 407.847 385.484 408.092 385.26L417.463 376.682C420.464 373.935 421.812 370.561 421.508 366.562C421.148 362.502 419.192 358.551 415.642 354.71C412.035 350.807 408.242 348.538 404.263 347.903C400.227 347.207 396.709 348.232 393.708 350.979L384.337 359.557Z" fill="#040404"/>
<path d="M489.338 378.628C484.504 382.287 479.403 383.752 474.036 383.023C468.685 382.178 464.117 379.282 460.332 374.335L431.647 336.837C427.812 331.824 426.224 326.673 426.883 321.384C427.492 316.028 430.246 311.497 435.146 307.788C440.047 304.08 445.205 302.623 450.623 303.417C455.99 304.146 460.591 307.017 464.426 312.03L493.112 349.528C496.896 354.475 498.451 359.651 497.776 365.057C497.051 370.396 494.238 374.92 489.338 378.628ZM485.781 373.978C489.092 371.473 490.941 368.355 491.329 364.624C491.783 360.844 490.673 357.206 487.998 353.71L459.01 315.816C456.336 312.321 453.107 310.286 449.323 309.713C445.554 309.024 442.015 309.932 438.703 312.438C435.459 314.894 433.668 318.02 433.33 321.816C432.943 325.546 434.086 329.159 436.76 332.655L465.748 370.549C468.423 374.045 471.619 376.104 475.337 376.727C479.055 377.35 482.536 376.434 485.781 373.978Z" fill="#040404"/>
<path d="M548.688 337.742C548.054 338.136 547.453 338.118 546.888 337.687L514.233 311.484C514.03 311.316 513.823 311.299 513.611 311.43L503.135 317.936C502.853 318.112 502.8 318.34 502.977 318.621L523.792 351.737C524.234 352.44 524.102 353.011 523.397 353.449L519.905 355.618C519.199 356.056 518.626 355.923 518.184 355.22L473.105 283.504C472.664 282.801 472.795 282.23 473.501 281.792L489.903 271.605C494.842 268.539 499.977 267.891 505.308 269.663C510.64 271.436 515.162 275.275 518.874 281.181C521.835 285.891 523.331 290.534 523.363 295.11C523.394 299.685 522.022 303.665 519.245 307.051C519.007 307.297 519.012 307.538 519.259 307.776L552.298 333.887L552.669 334.244C552.978 334.736 552.816 335.179 552.181 335.573L548.688 337.742ZM481.59 283.66C481.308 283.835 481.255 284.064 481.432 284.345L499.53 313.137C499.706 313.418 499.936 313.471 500.218 313.296L511.012 306.592C514.469 304.446 516.416 301.379 516.853 297.393C517.246 293.336 516.05 289.093 513.266 284.664C510.437 280.164 507.125 277.235 503.329 275.878C499.489 274.45 495.841 274.81 492.384 276.957L481.59 283.66Z" fill="#040404"/>
<path d="M606.6 275.395C607.357 275.052 607.908 275.257 608.256 276.011L609.716 279.179C610.064 279.933 609.86 280.482 609.104 280.825L605.702 282.372C605.399 282.509 605.318 282.729 605.457 283.03L614.897 303.506C615.245 304.26 615.041 304.809 614.285 305.153L610.542 306.853C609.786 307.197 609.234 306.992 608.887 306.238L599.446 285.762C599.307 285.46 599.086 285.378 598.784 285.516L571.794 297.783C571.038 298.127 570.486 297.921 570.138 297.167L568.782 294.226C568.643 293.924 568.51 293.437 568.383 292.765L562.429 234.035C562.378 233.328 562.692 232.82 563.373 232.511L567.455 230.656C568.287 230.278 568.781 230.555 568.936 231.488L574.926 289.107C574.92 289.292 574.99 289.443 575.135 289.56C575.245 289.601 575.376 289.587 575.527 289.518L596.281 280.086C596.583 279.948 596.665 279.729 596.526 279.427L587.868 260.648C587.52 259.894 587.724 259.345 588.48 259.002L592.223 257.301C592.979 256.957 593.53 257.162 593.878 257.917L602.536 276.695C602.675 276.997 602.896 277.079 603.198 276.942L606.6 275.395Z" fill="#040404"/>
<path d="M648.679 293.407C642.961 295.423 637.668 295.177 632.798 292.668C627.928 290.158 624.4 285.855 622.214 279.757L606.573 236.137C604.387 230.04 604.383 224.493 606.562 219.498C608.741 214.503 612.689 210.997 618.406 208.98C624.201 206.936 629.534 207.169 634.404 209.678C639.274 212.187 642.802 216.491 644.988 222.588L660.629 266.209C662.815 272.306 662.819 277.852 660.64 282.848C658.461 287.843 654.474 291.363 648.679 293.407ZM646.66 287.778C650.576 286.397 653.246 284.002 654.671 280.594C656.146 277.08 656.112 273.173 654.571 268.874L638.593 224.315C637.052 220.016 634.605 217.004 631.252 215.281C627.949 213.452 624.34 213.228 620.424 214.609C616.587 215.962 613.93 218.396 612.456 221.91C611.031 225.319 611.09 229.173 612.631 233.472L628.608 278.03C630.15 282.33 632.572 285.394 635.875 287.224C639.228 288.947 642.823 289.132 646.66 287.778Z" fill="#040404"/>
<path d="M709.604 243.378C710.405 243.169 710.912 243.465 711.124 244.265L712.016 247.624C712.229 248.423 711.934 248.928 711.134 249.136L707.53 250.074C707.21 250.158 707.092 250.36 707.177 250.679L712.944 272.394C713.156 273.193 712.862 273.697 712.061 273.906L708.097 274.938C707.296 275.147 706.79 274.851 706.577 274.051L700.811 252.337C700.726 252.017 700.523 251.899 700.203 251.982L671.614 259.426C670.813 259.635 670.306 259.339 670.094 258.539L669.266 255.42C669.181 255.1 669.133 254.6 669.124 253.918L673.317 195.236C673.387 194.534 673.783 194.089 674.503 193.901L678.828 192.775C679.709 192.546 680.146 192.902 680.139 193.844L676.171 251.442C676.134 251.622 676.176 251.782 676.299 251.922C676.4 251.981 676.531 251.989 676.691 251.948L698.673 246.224C698.994 246.141 699.111 245.939 699.026 245.619L693.737 225.704C693.525 224.905 693.819 224.4 694.62 224.192L698.584 223.16C699.385 222.951 699.891 223.247 700.104 224.047L705.393 243.961C705.478 244.281 705.68 244.399 706.001 244.316L709.604 243.378Z" fill="#040404"/>
<path d="M953.425 185.059C953.323 185.883 952.86 186.244 952.036 186.14L922.744 182.458C922.414 182.417 922.229 182.561 922.188 182.89L918.038 216.393C917.997 216.722 918.141 216.908 918.471 216.949L937.258 219.311C938.082 219.414 938.443 219.878 938.341 220.702L937.927 224.04C937.825 224.864 937.362 225.225 936.538 225.121L917.751 222.76C917.422 222.718 917.237 222.862 917.196 223.192L913.03 256.818C912.989 257.147 913.134 257.333 913.463 257.374L942.756 261.056C943.58 261.16 943.941 261.624 943.839 262.448L943.425 265.786C943.323 266.61 942.86 266.97 942.036 266.867L906.935 262.455C906.111 262.351 905.75 261.887 905.852 261.063L916.265 176.998C916.367 176.174 916.83 175.814 917.654 175.918L952.756 180.33C953.58 180.433 953.941 180.897 953.839 181.721L953.425 185.059Z" fill="#040404"/>
<path d="M991.604 278.353C990.873 278.187 990.459 277.752 990.362 277.047L985.664 235.401C985.638 235.139 985.503 234.981 985.259 234.925L973.201 232.199C972.877 232.126 972.678 232.251 972.604 232.576L963.986 270.828C963.803 271.64 963.306 271.954 962.494 271.771L958.474 270.862C957.662 270.678 957.348 270.18 957.531 269.368L976.195 186.53C976.378 185.718 976.875 185.404 977.687 185.588L996.566 189.856C1002.25 191.141 1006.36 194.29 1008.9 199.303C1011.44 204.315 1011.94 210.233 1010.41 217.055C1009.18 222.496 1006.96 226.859 1003.75 230.143C1000.53 233.428 996.738 235.302 992.367 235.764C992.024 235.772 991.856 235.948 991.864 236.291L996.899 278.142L996.911 278.656C996.783 279.225 996.354 279.427 995.623 279.261L991.604 278.353ZM982.122 192.607C981.797 192.534 981.598 192.66 981.525 192.985L974.032 226.242C973.958 226.566 974.084 226.766 974.409 226.839L986.833 229.648C990.811 230.548 994.366 229.73 997.498 227.194C1000.65 224.578 1002.8 220.711 1003.95 215.595C1005.12 210.397 1004.84 205.98 1003.1 202.343C1001.37 198.625 998.524 196.316 994.545 195.416L982.122 192.607Z" fill="#040404"/>
<path d="M1042.8 293.215C1042.09 292.986 1041.72 292.517 1041.68 291.809L1040.74 250.024C1040.74 249.761 1040.62 249.592 1040.38 249.515L1028.64 245.738C1028.33 245.636 1028.12 245.743 1028.02 246.06L1016.03 283.292C1015.77 284.082 1015.25 284.35 1014.46 284.096L1010.55 282.837C1009.76 282.582 1009.49 282.06 1009.74 281.269L1035.71 200.639C1035.96 199.849 1036.48 199.581 1037.27 199.835L1055.65 205.75C1061.19 207.53 1064.99 211.023 1067.07 216.227C1069.14 221.432 1069.11 227.354 1066.97 233.994C1065.27 239.29 1062.67 243.427 1059.18 246.405C1055.69 249.382 1051.76 250.907 1047.37 250.979C1047.03 250.956 1046.85 251.116 1046.82 251.457L1048.08 293.475L1048.05 293.988C1047.87 294.541 1047.42 294.703 1046.71 294.474L1042.8 293.215ZM1041.05 207.202C1040.74 207.1 1040.53 207.207 1040.43 207.523L1030 239.894C1029.9 240.21 1030.01 240.419 1030.32 240.521L1042.42 244.413C1046.29 245.659 1049.9 245.162 1053.24 242.921C1056.6 240.602 1059.09 236.952 1060.69 231.972C1062.32 226.912 1062.43 222.499 1061.03 218.732C1059.65 214.886 1057.02 212.34 1053.15 211.094L1041.05 207.202Z" fill="#040404"/>
<path d="M1076.05 308.018C1070.49 305.656 1066.71 301.98 1064.7 296.992C1062.8 291.959 1063.07 286.589 1065.5 280.883L1083.95 237.625C1086.42 231.842 1090.11 227.929 1095.03 225.885C1099.98 223.765 1105.27 223.902 1110.91 226.297C1116.54 228.692 1120.34 232.421 1122.32 237.486C1124.33 242.475 1124.1 247.861 1121.64 253.644L1103.19 296.901C1100.75 302.608 1097.02 306.505 1091.99 308.593C1087 310.604 1081.69 310.413 1076.05 308.018ZM1078.34 302.654C1082.15 304.272 1085.77 304.327 1089.2 302.819C1092.7 301.344 1095.32 298.589 1097.04 294.557L1115.68 250.843C1117.4 246.81 1117.58 243.02 1116.21 239.474C1114.96 235.884 1112.42 233.279 1108.62 231.661C1104.89 230.076 1101.29 230.075 1097.83 231.659C1094.4 233.167 1091.82 235.937 1090.1 239.97L1071.46 283.684C1069.74 287.716 1069.52 291.49 1070.81 295.004C1072.1 298.518 1074.61 301.068 1078.34 302.654Z" fill="#040404"/>
<path d="M1141.08 339.608C1140.42 339.255 1140.14 338.727 1140.23 338.024L1146.89 296.779C1146.94 296.52 1146.85 296.332 1146.63 296.214L1135.76 290.386C1135.47 290.229 1135.24 290.297 1135.08 290.589L1116.52 325.03C1116.13 325.761 1115.57 325.93 1114.83 325.538L1111.21 323.595C1110.48 323.203 1110.31 322.641 1110.7 321.909L1150.9 247.325C1151.29 246.594 1151.85 246.425 1152.58 246.817L1169.61 255.942C1174.73 258.689 1177.84 262.808 1178.94 268.298C1180.04 273.788 1178.93 279.604 1175.62 285.746C1172.98 290.645 1169.68 294.244 1165.7 296.543C1161.73 298.841 1157.57 299.631 1153.24 298.912C1152.91 298.828 1152.7 298.952 1152.62 299.284L1146.23 340.815L1146.1 341.313C1145.83 341.824 1145.36 341.904 1144.7 341.551L1141.08 339.608ZM1154.97 254.739C1154.68 254.582 1154.45 254.65 1154.29 254.942L1138.16 284.886C1138 285.178 1138.07 285.403 1138.36 285.56L1149.56 291.565C1153.15 293.488 1156.79 293.649 1160.48 292.048C1164.21 290.373 1167.32 287.233 1169.8 282.626C1172.33 277.946 1173.24 273.628 1172.54 269.672C1171.88 265.643 1169.76 262.667 1166.17 260.744L1154.97 254.739Z" fill="#040404"/>
<path d="M1224.73 358.514C1225.4 359.001 1225.5 359.58 1225.01 360.251L1222.95 363.07C1222.46 363.741 1221.88 363.833 1221.21 363.346L1218.18 361.156C1217.91 360.961 1217.68 360.998 1217.48 361.266L1204.21 379.489C1203.72 380.16 1203.14 380.252 1202.46 379.765L1199.13 377.356C1198.46 376.869 1198.37 376.29 1198.86 375.619L1212.14 357.396C1212.33 357.128 1212.29 356.896 1212.03 356.702L1188.01 339.323C1187.33 338.836 1187.24 338.257 1187.73 337.586L1189.64 334.969C1189.83 334.7 1190.19 334.346 1190.72 333.907L1239.2 299.948C1239.79 299.557 1240.39 299.581 1241 300.019L1244.63 302.648C1245.37 303.183 1245.37 303.747 1244.63 304.339L1197.14 337.784C1196.98 337.87 1196.88 338.004 1196.85 338.187C1196.87 338.303 1196.94 338.409 1197.08 338.507L1215.55 351.869C1215.82 352.064 1216.05 352.027 1216.24 351.759L1228.42 335.047C1228.91 334.375 1229.49 334.283 1230.16 334.77L1233.49 337.18C1234.17 337.666 1234.26 338.245 1233.77 338.917L1221.59 355.629C1221.4 355.897 1221.43 356.129 1221.7 356.323L1224.73 358.514Z" fill="#040404"/>
<path d="M1229.55 403.892C1224.97 399.933 1222.58 395.234 1222.38 389.796C1222.17 384.357 1224.19 379.202 1228.44 374.329L1258.84 339.473C1263.09 334.6 1267.93 331.885 1273.37 331.327C1278.81 330.769 1283.81 332.469 1288.39 336.427C1293.03 340.44 1295.45 345.166 1295.66 350.604C1295.86 356.043 1293.84 361.199 1289.59 366.071L1259.19 400.927C1254.94 405.8 1250.1 408.515 1244.66 409.073C1239.22 409.632 1234.19 407.904 1229.55 403.892ZM1233.47 399.394C1236.61 402.105 1240.01 403.244 1243.69 402.809C1247.49 402.366 1250.88 400.427 1253.88 396.991L1284.93 361.385C1287.93 357.949 1289.36 354.36 1289.21 350.618C1289.18 346.867 1287.6 343.636 1284.47 340.925C1281.4 338.268 1277.96 337.161 1274.17 337.604C1270.49 338.038 1267.15 339.973 1264.15 343.409L1233.1 379.015C1230.1 382.451 1228.62 386.044 1228.65 389.795C1228.79 393.537 1230.4 396.737 1233.47 399.394Z" fill="#040404"/>
<path d="M1304.17 431.96C1304.74 432.557 1304.73 433.142 1304.14 433.718L1301.62 436.134C1301.02 436.709 1300.43 436.699 1299.85 436.103L1297.25 433.42C1297.02 433.182 1296.79 433.178 1296.55 433.408L1280.29 449.029C1279.69 449.604 1279.1 449.593 1278.52 448.997L1275.66 446.046C1275.08 445.45 1275.09 444.864 1275.69 444.289L1291.95 428.668C1292.19 428.438 1292.19 428.204 1291.96 427.965L1271.32 406.682C1270.75 406.086 1270.76 405.5 1271.35 404.924L1273.69 402.681C1273.93 402.45 1274.35 402.165 1274.94 401.824L1328.63 376.845C1329.28 376.564 1329.87 376.691 1330.39 377.228L1333.51 380.447C1334.15 381.103 1334.05 381.658 1333.22 382.112L1280.59 406.758C1280.42 406.813 1280.3 406.928 1280.23 407.103C1280.23 407.22 1280.29 407.338 1280.4 407.458L1296.27 423.823C1296.51 424.061 1296.74 424.065 1296.98 423.835L1311.89 409.509C1312.49 408.933 1313.08 408.944 1313.66 409.54L1316.52 412.491C1317.1 413.087 1317.09 413.673 1316.49 414.248L1301.58 428.575C1301.34 428.805 1301.33 429.039 1301.56 429.278L1304.17 431.96Z" fill="#040404"/>
<path d="M1475.55 615.036C1474.78 615.348 1474.24 615.12 1473.92 614.349L1462.66 586.974C1462.53 586.666 1462.32 586.574 1462.01 586.699L1430.63 599.407C1430.33 599.532 1430.24 599.749 1430.36 600.057L1437.58 617.614C1437.9 618.384 1437.67 618.925 1436.9 619.238L1433.78 620.504C1433 620.817 1432.46 620.588 1432.14 619.818L1424.92 602.26C1424.79 601.952 1424.58 601.861 1424.27 601.986L1392.78 614.741C1392.47 614.866 1392.38 615.082 1392.51 615.39L1403.77 642.766C1404.08 643.536 1403.86 644.078 1403.08 644.39L1399.96 645.656C1399.19 645.969 1398.64 645.74 1398.33 644.97L1384.83 612.165C1384.52 611.395 1384.74 610.854 1385.52 610.541L1464.23 578.654C1465.01 578.342 1465.55 578.571 1465.87 579.341L1479.36 612.146C1479.68 612.916 1479.45 613.457 1478.68 613.77L1475.55 615.036Z" fill="#040404"/>
<path d="M1413.63 693.027C1413.41 692.315 1413.58 691.746 1414.14 691.319L1447.83 666.993C1448.05 666.843 1448.12 666.649 1448.04 666.412L1444.46 654.666C1444.37 654.35 1444.16 654.239 1443.84 654.334L1406.53 665.502C1405.74 665.739 1405.22 665.462 1404.98 664.671L1403.79 660.756C1403.55 659.965 1403.82 659.451 1404.62 659.214L1485.42 635.029C1486.21 634.792 1486.72 635.069 1486.97 635.86L1492.57 654.249C1494.26 659.786 1493.56 664.871 1490.48 669.505C1487.4 674.139 1482.53 677.452 1475.87 679.444C1470.57 681.033 1465.7 681.237 1461.28 680.058C1456.86 678.879 1453.37 676.513 1450.82 672.961C1450.64 672.669 1450.41 672.609 1450.12 672.783L1416.42 697.5L1415.98 697.761C1415.42 697.927 1415.04 697.654 1414.82 696.942L1413.63 693.027ZM1483.08 643.107C1482.98 642.791 1482.78 642.68 1482.46 642.775L1450.02 652.485C1449.71 652.58 1449.6 652.785 1449.69 653.102L1453.38 665.203C1454.56 669.079 1457.02 671.753 1460.75 673.224C1464.56 674.673 1468.97 674.65 1473.96 673.156C1479.03 671.639 1482.71 669.243 1484.99 665.969C1487.36 662.671 1487.95 659.085 1486.77 655.209L1483.08 643.107Z" fill="#040404"/>
<path d="M1425.43 745.031C1425.28 744.3 1425.51 743.749 1426.11 743.376L1462.02 722.292C1462.24 722.163 1462.33 721.976 1462.28 721.732L1459.83 709.677C1459.76 709.352 1459.56 709.222 1459.24 709.287L1420.97 716.902C1420.15 717.064 1419.67 716.738 1419.5 715.927L1418.68 711.908C1418.52 711.096 1418.84 710.609 1419.65 710.448L1502.54 693.956C1503.35 693.794 1503.84 694.12 1504 694.931L1507.85 713.807C1509 719.489 1507.83 724.497 1504.31 728.828C1500.8 733.16 1495.63 736.005 1488.8 737.363C1483.36 738.446 1478.49 738.191 1474.19 736.596C1469.89 735.002 1466.64 732.312 1464.43 728.528C1464.28 728.22 1464.05 728.138 1463.74 728.284L1427.79 749.757L1427.32 749.976C1426.75 750.089 1426.4 749.78 1426.25 749.05L1425.43 745.031ZM1499.44 701.795C1499.37 701.47 1499.18 701.34 1498.85 701.405L1465.58 708.025C1465.25 708.09 1465.12 708.285 1465.19 708.61L1467.72 721.031C1468.53 725.009 1470.73 727.908 1474.31 729.729C1477.98 731.534 1482.37 731.928 1487.49 730.909C1492.69 729.874 1496.58 727.832 1499.18 724.782C1501.85 721.716 1502.78 718.194 1501.97 714.216L1499.44 701.795Z" fill="#040404"/>
<path d="M1429.86 781.191C1429.19 775.166 1430.54 770.051 1433.91 765.845C1437.38 761.713 1442.21 759.312 1448.4 758.645L1495.34 753.583C1501.61 752.906 1506.86 754.22 1511.07 757.525C1515.37 760.82 1517.86 765.521 1518.54 771.629C1519.22 777.736 1517.84 782.897 1514.38 787.112C1511.01 791.318 1506.18 793.76 1499.91 794.436L1452.97 799.498C1446.77 800.166 1441.53 798.811 1437.22 795.433C1433 792.046 1430.55 787.299 1429.86 781.191ZM1435.68 780.564C1436.15 784.69 1437.88 787.886 1440.89 790.15C1443.91 792.498 1447.61 793.435 1451.99 792.963L1499.42 787.848C1503.8 787.376 1507.2 785.673 1509.63 782.738C1512.15 779.877 1513.18 776.383 1512.72 772.257C1512.27 768.212 1510.49 765.063 1507.4 762.807C1504.39 760.542 1500.7 759.646 1496.32 760.118L1448.89 765.233C1444.51 765.705 1441.1 767.367 1438.66 770.219C1436.22 773.071 1435.23 776.519 1435.68 780.564Z" fill="#040404"/>
<path d="M1434.7 853.01C1434.68 852.263 1435.01 851.76 1435.67 851.501L1474.91 837.217C1475.15 837.13 1475.27 836.963 1475.27 836.713L1475.05 824.383C1475.04 824.051 1474.87 823.887 1474.54 823.892L1435.43 824.47C1434.6 824.483 1434.18 824.074 1434.16 823.243L1434.09 819.133C1434.07 818.303 1434.48 817.881 1435.31 817.869L1520.01 816.617C1520.84 816.605 1521.26 817.014 1521.28 817.845L1521.62 837.15C1521.73 842.962 1519.65 847.685 1515.4 851.319C1511.15 854.954 1505.53 856.822 1498.56 856.925C1492.99 857.008 1488.24 855.874 1484.29 853.523C1480.35 851.173 1477.63 847.932 1476.14 843.802C1476.06 843.471 1475.85 843.349 1475.52 843.437L1436.16 858.097L1435.66 858.229C1435.08 858.237 1434.78 857.868 1434.77 857.121L1434.7 853.01ZM1515.53 823.785C1515.52 823.453 1515.35 823.289 1515.02 823.294L1481.02 823.797C1480.69 823.801 1480.52 823.97 1480.53 824.302L1480.76 837.006C1480.83 841.075 1482.47 844.331 1485.67 846.776C1488.95 849.219 1493.21 850.402 1498.44 850.324C1503.75 850.246 1507.97 848.938 1511.08 846.4C1514.27 843.861 1515.83 840.557 1515.76 836.489L1515.53 823.785Z" fill="#040404"/>
<path d="M1458.65 934.806C1458.56 935.632 1458.1 935.997 1457.28 935.903L1453.81 935.509C1452.99 935.415 1452.62 934.955 1452.71 934.13L1453.13 930.416C1453.17 930.086 1453.02 929.902 1452.69 929.864L1430.29 927.313C1429.46 927.219 1429.1 926.759 1429.19 925.934L1429.65 921.849C1429.74 921.023 1430.2 920.658 1431.02 920.752L1453.42 923.303C1453.75 923.341 1453.94 923.194 1453.97 922.864L1457.27 893.401C1457.37 892.576 1457.82 892.21 1458.65 892.304L1461.87 892.67C1462.2 892.708 1462.68 892.847 1463.33 893.087L1516.76 918.481C1517.4 918.804 1517.67 919.337 1517.59 920.08L1517.09 924.536C1516.99 925.444 1516.5 925.723 1515.62 925.372L1463.11 900.585C1462.96 900.484 1462.79 900.465 1462.62 900.529C1462.53 900.602 1462.47 900.721 1462.45 900.886L1459.92 923.541C1459.88 923.871 1460.03 924.055 1460.36 924.093L1480.9 926.433C1481.73 926.527 1482.09 926.986 1482 927.812L1481.54 931.897C1481.45 932.722 1480.99 933.088 1480.17 932.994L1459.62 930.654C1459.29 930.616 1459.11 930.762 1459.07 931.093L1458.65 934.806Z" fill="#040404"/>
<path d="M1421.13 961.401C1422.35 955.438 1425.29 951.021 1429.96 948.15C1434.64 945.279 1440.16 944.498 1446.53 945.807L1492.1 955.169C1498.47 956.477 1503.24 959.372 1506.41 963.854C1509.58 968.335 1510.56 973.558 1509.34 979.521C1508.1 985.567 1505.15 990.025 1500.48 992.896C1495.8 995.766 1490.28 996.548 1483.91 995.239L1438.34 985.877C1431.97 984.568 1427.2 981.673 1424.03 977.191C1420.86 972.71 1419.89 967.447 1421.13 961.401ZM1427.01 962.609C1426.17 966.694 1426.85 970.239 1429.05 973.243C1431.31 976.346 1434.68 978.359 1439.17 979.282L1485.73 988.845C1490.22 989.768 1494.07 989.24 1497.29 987.261C1500.57 985.381 1502.62 982.398 1503.46 978.313C1504.28 974.311 1503.55 970.758 1501.3 967.655C1499.1 964.65 1495.76 962.687 1491.27 961.764L1444.71 952.2C1440.22 951.278 1436.33 951.756 1433.05 953.637C1429.84 955.616 1427.83 958.606 1427.01 962.609Z" fill="#040404"/>
<path d="M1433.9 1039.72C1433.67 1040.51 1433.15 1040.79 1432.36 1040.56L1429.01 1039.58C1428.21 1039.34 1427.93 1038.83 1428.17 1038.03L1429.22 1034.44C1429.32 1034.13 1429.2 1033.92 1428.88 1033.83L1407.25 1027.46C1406.46 1027.23 1406.17 1026.72 1406.41 1025.92L1407.57 1021.97C1407.8 1021.18 1408.32 1020.9 1409.11 1021.13L1430.75 1027.49C1431.06 1027.58 1431.27 1027.47 1431.36 1027.15L1439.73 998.709C1439.96 997.913 1440.48 997.632 1441.27 997.866L1444.38 998.779C1444.7 998.873 1445.15 999.093 1445.74 999.44L1493.99 1033.62C1494.56 1034.05 1494.74 1034.62 1494.53 1035.34L1493.26 1039.64C1493.01 1040.52 1492.47 1040.71 1491.67 1040.21L1444.23 1006.79C1444.1 1006.66 1443.94 1006.61 1443.76 1006.65C1443.65 1006.7 1443.58 1006.81 1443.53 1006.97L1437.1 1028.84C1437.01 1029.16 1437.12 1029.37 1437.44 1029.46L1457.28 1035.29C1458.07 1035.53 1458.36 1036.04 1458.12 1036.84L1456.96 1040.78C1456.73 1041.58 1456.21 1041.86 1455.42 1041.63L1435.58 1035.79C1435.26 1035.7 1435.05 1035.81 1434.96 1036.13L1433.9 1039.72Z" fill="#040404"/>
<path d="M1358.41 1278.01C1357.76 1277.49 1357.69 1276.91 1358.21 1276.26L1376.66 1253.21C1376.87 1252.95 1376.84 1252.72 1376.58 1252.51L1350.15 1231.52C1349.89 1231.31 1349.65 1231.34 1349.44 1231.59L1337.61 1246.38C1337.09 1247.03 1336.51 1247.09 1335.86 1246.58L1333.23 1244.48C1332.57 1243.97 1332.51 1243.38 1333.03 1242.74L1344.86 1227.95C1345.07 1227.69 1345.04 1227.46 1344.78 1227.25L1318.25 1206.18C1317.99 1205.98 1317.75 1206 1317.55 1206.26L1299.1 1229.31C1298.58 1229.96 1297.99 1230.03 1297.34 1229.51L1294.71 1227.42C1294.06 1226.9 1293.99 1226.32 1294.51 1225.67L1316.62 1198.05C1317.14 1197.4 1317.72 1197.34 1318.37 1197.85L1384.71 1250.53C1385.36 1251.05 1385.42 1251.63 1384.9 1252.28L1362.8 1279.9C1362.28 1280.55 1361.69 1280.61 1361.04 1280.1L1358.41 1278.01Z" fill="#040404"/>
<path d="M1259.75 1262.65C1260.27 1262.11 1260.86 1261.98 1261.51 1262.26L1299.61 1279.6C1299.84 1279.71 1300.05 1279.68 1300.22 1279.5L1308.76 1270.6C1308.99 1270.36 1308.99 1270.13 1308.75 1269.9L1280.42 1242.93C1279.81 1242.36 1279.8 1241.77 1280.38 1241.17L1283.22 1238.21C1283.8 1237.61 1284.39 1237.6 1284.99 1238.17L1346.34 1296.57C1346.95 1297.14 1346.96 1297.73 1346.38 1298.33L1333.01 1312.26C1328.98 1316.45 1324.17 1318.34 1318.57 1317.94C1312.97 1317.54 1307.64 1314.94 1302.59 1310.13C1298.56 1306.29 1295.96 1302.16 1294.8 1297.73C1293.64 1293.3 1293.99 1289.1 1295.84 1285.13C1296.01 1284.84 1295.95 1284.6 1295.65 1284.44L1257.21 1267.28L1256.76 1267.02C1256.34 1266.62 1256.39 1266.15 1256.91 1265.61L1259.75 1262.65ZM1338.09 1298.52C1338.32 1298.28 1338.31 1298.04 1338.07 1297.81L1313.44 1274.37C1313.2 1274.14 1312.96 1274.14 1312.73 1274.38L1303.93 1283.55C1301.11 1286.48 1299.98 1289.94 1300.55 1293.91C1301.17 1297.94 1303.37 1301.76 1307.16 1305.36C1311.01 1309.03 1314.94 1311.05 1318.95 1311.43C1323.02 1311.86 1326.47 1310.61 1329.29 1307.68L1338.09 1298.52Z" fill="#040404"/>
<path d="M1219.52 1297.76C1220.08 1297.26 1220.68 1297.18 1221.31 1297.52L1257.83 1318.12C1258.06 1318.25 1258.27 1318.23 1258.45 1318.07L1267.75 1309.93C1268 1309.71 1268.02 1309.48 1267.8 1309.23L1241.85 1279.87C1241.3 1279.25 1241.33 1278.66 1241.96 1278.12L1245.06 1275.4C1245.68 1274.86 1246.27 1274.89 1246.82 1275.52L1303.02 1339.09C1303.57 1339.72 1303.53 1340.3 1302.9 1340.85L1288.35 1353.59C1283.97 1357.42 1279 1358.9 1273.44 1358.01C1267.89 1357.13 1262.79 1354.07 1258.17 1348.83C1254.48 1344.66 1252.24 1340.31 1251.47 1335.79C1250.69 1331.27 1251.4 1327.11 1253.6 1323.31C1253.79 1323.03 1253.75 1322.79 1253.47 1322.6L1216.58 1302.16L1216.15 1301.86C1215.77 1301.43 1215.86 1300.96 1216.42 1300.47L1219.52 1297.76ZM1294.61 1340.32C1294.86 1340.1 1294.87 1339.87 1294.65 1339.62L1272.09 1314.09C1271.87 1313.84 1271.64 1313.83 1271.39 1314.05L1261.81 1322.43C1258.74 1325.11 1257.32 1328.46 1257.53 1332.47C1257.8 1336.55 1259.67 1340.55 1263.14 1344.48C1266.67 1348.47 1270.42 1350.82 1274.39 1351.55C1278.42 1352.33 1281.96 1351.39 1285.03 1348.7L1294.61 1340.32Z" fill="#040404"/>
<path d="M1190.13 1318.89C1195.05 1315.38 1200.19 1314.07 1205.52 1314.95C1210.83 1315.95 1215.31 1318.97 1218.94 1324.02L1246.47 1362.26C1250.16 1367.37 1251.59 1372.55 1250.78 1377.81C1250.02 1383.14 1247.14 1387.58 1242.14 1391.14C1237.15 1394.69 1231.96 1396 1226.57 1395.05C1221.24 1394.16 1216.73 1391.17 1213.05 1386.05L1185.52 1347.81C1181.89 1342.77 1180.48 1337.56 1181.31 1332.19C1182.19 1326.88 1185.13 1322.45 1190.13 1318.89ZM1193.54 1323.63C1190.16 1326.04 1188.23 1329.09 1187.73 1332.8C1187.17 1336.56 1188.17 1340.22 1190.74 1343.79L1218.56 1382.43C1221.13 1386 1224.29 1388.12 1228.05 1388.8C1231.79 1389.6 1235.35 1388.8 1238.73 1386.39C1242.04 1384.04 1243.91 1380.97 1244.36 1377.19C1244.85 1373.48 1243.82 1369.85 1241.25 1366.28L1213.43 1327.64C1210.86 1324.07 1207.73 1321.92 1204.04 1321.19C1200.35 1320.46 1196.85 1321.28 1193.54 1323.63Z" fill="#040404"/>
<path d="M1129.81 1358.09C1130.45 1357.72 1131.05 1357.75 1131.6 1358.2L1163.4 1385.29C1163.59 1385.46 1163.8 1385.49 1164.01 1385.36L1174.65 1379.18C1174.94 1379.01 1175 1378.79 1174.83 1378.5L1155.05 1344.87C1154.63 1344.15 1154.77 1343.59 1155.49 1343.17L1159.04 1341.11C1159.75 1340.7 1160.32 1340.84 1160.74 1341.56L1203.59 1414.4C1204.01 1415.11 1203.86 1415.68 1203.14 1416.1L1186.49 1425.77C1181.47 1428.68 1176.33 1429.18 1171.07 1427.25C1165.8 1425.33 1161.41 1421.37 1157.88 1415.37C1155.06 1410.59 1153.71 1405.91 1153.81 1401.35C1153.91 1396.79 1155.4 1392.86 1158.27 1389.56C1158.51 1389.32 1158.51 1389.08 1158.27 1388.84L1126.1 1361.83L1125.74 1361.46C1125.44 1360.96 1125.62 1360.52 1126.26 1360.15L1129.81 1358.09ZM1195.13 1413.99C1195.42 1413.83 1195.48 1413.6 1195.31 1413.32L1178.11 1384.07C1177.94 1383.79 1177.71 1383.73 1177.43 1383.89L1166.46 1390.26C1162.95 1392.3 1160.92 1395.3 1160.37 1399.26C1159.86 1403.3 1160.93 1407.56 1163.57 1412.06C1166.26 1416.63 1169.48 1419.65 1173.22 1421.12C1177.01 1422.65 1180.66 1422.4 1184.17 1420.36L1195.13 1413.99Z" fill="#040404"/>
<path d="M1070.43 1419.46C1069.67 1419.78 1069.12 1419.56 1068.79 1418.8L1067.41 1415.6C1067.08 1414.83 1067.3 1414.29 1068.07 1413.96L1071.51 1412.51C1071.81 1412.38 1071.9 1412.16 1071.77 1411.85L1062.85 1391.14C1062.52 1390.38 1062.74 1389.84 1063.5 1389.51L1067.29 1387.91C1068.05 1387.58 1068.6 1387.8 1068.93 1388.57L1077.85 1409.27C1077.98 1409.58 1078.2 1409.67 1078.5 1409.54L1105.79 1397.96C1106.56 1397.63 1107.1 1397.85 1107.43 1398.61L1108.71 1401.59C1108.85 1401.89 1108.97 1402.38 1109.08 1403.06L1113.54 1461.92C1113.57 1462.63 1113.25 1463.13 1112.56 1463.42L1108.43 1465.17C1107.59 1465.53 1107.1 1465.24 1106.97 1464.3L1102.44 1406.55C1102.45 1406.37 1102.39 1406.21 1102.25 1406.09C1102.14 1406.05 1102 1406.06 1101.85 1406.12L1080.87 1415.03C1080.56 1415.16 1080.47 1415.38 1080.61 1415.68L1088.78 1434.67C1089.11 1435.44 1088.9 1435.98 1088.13 1436.3L1084.35 1437.91C1083.58 1438.23 1083.04 1438.01 1082.71 1437.25L1074.53 1418.26C1074.4 1417.95 1074.18 1417.87 1073.87 1418L1070.43 1419.46Z" fill="#040404"/>
<path d="M1028.84 1400.18C1034.6 1398.32 1039.87 1398.7 1044.67 1401.33C1049.47 1403.97 1052.87 1408.35 1054.9 1414.5L1069.37 1458.45C1071.4 1464.6 1071.26 1470.14 1068.95 1475.07C1066.64 1480 1062.61 1483.39 1056.85 1485.26C1051.01 1487.15 1045.7 1486.78 1040.9 1484.14C1036.1 1481.51 1032.69 1477.12 1030.67 1470.98L1016.2 1427.03C1014.17 1420.88 1014.31 1415.34 1016.62 1410.41C1018.92 1405.48 1023 1402.07 1028.84 1400.18ZM1030.7 1405.85C1026.76 1407.13 1024.03 1409.45 1022.52 1412.82C1020.95 1416.29 1020.89 1420.19 1022.31 1424.52L1037.1 1469.42C1038.53 1473.76 1040.89 1476.83 1044.19 1478.63C1047.44 1480.55 1051.04 1480.86 1054.98 1479.59C1058.85 1478.33 1061.57 1475.97 1063.13 1472.5C1064.64 1469.14 1064.68 1465.29 1063.26 1460.96L1048.47 1416.06C1047.04 1411.72 1044.71 1408.6 1041.46 1406.69C1038.15 1404.88 1034.57 1404.6 1030.7 1405.85Z" fill="#040404"/>
<path d="M966.529 1449.3C965.719 1449.49 965.22 1449.18 965.03 1448.37L964.233 1444.97C964.043 1444.16 964.353 1443.67 965.162 1443.48L968.804 1442.64C969.128 1442.57 969.252 1442.37 969.176 1442.05L964.023 1420.1C963.833 1419.29 964.143 1418.79 964.952 1418.6L968.958 1417.68C969.768 1417.5 970.267 1417.81 970.457 1418.62L975.61 1440.57C975.686 1440.89 975.886 1441.02 976.21 1440.94L1005.1 1434.3C1005.91 1434.11 1006.41 1434.43 1006.6 1435.23L1007.34 1438.39C1007.42 1438.71 1007.45 1439.21 1007.44 1439.9L1001.53 1498.65C1001.44 1499.35 1001.03 1499.78 1000.3 1499.95L995.929 1500.96C995.039 1501.16 994.611 1500.79 994.645 1499.84L1000.3 1442.18C1000.34 1442 1000.31 1441.84 1000.19 1441.69C1000.09 1441.63 999.955 1441.62 999.793 1441.66L977.576 1446.76C977.253 1446.84 977.129 1447.04 977.205 1447.36L981.931 1467.49C982.121 1468.3 981.811 1468.8 981.001 1468.98L976.995 1469.9C976.186 1470.09 975.686 1469.78 975.496 1468.97L970.77 1448.84C970.694 1448.51 970.494 1448.39 970.171 1448.46L966.529 1449.3Z" fill="#040404"/>
<path d="M721.129 1500.83C721.257 1500.01 721.732 1499.66 722.552 1499.79L751.71 1504.42C752.039 1504.47 752.228 1504.33 752.28 1504L757.521 1470.65C757.572 1470.33 757.434 1470.13 757.106 1470.08L738.405 1467.12C737.585 1466.99 737.24 1466.51 737.369 1465.69L737.891 1462.37C738.02 1461.55 738.494 1461.2 739.314 1461.33L758.015 1464.3C758.343 1464.35 758.533 1464.21 758.585 1463.88L763.845 1430.41C763.896 1430.08 763.758 1429.89 763.43 1429.84L734.272 1425.22C733.452 1425.09 733.106 1424.61 733.235 1423.79L733.757 1420.47C733.886 1419.65 734.361 1419.3 735.181 1419.43L770.121 1424.98C770.942 1425.11 771.287 1425.58 771.158 1426.4L758.008 1510.08C757.879 1510.9 757.404 1511.25 756.584 1511.12L721.643 1505.57C720.823 1505.44 720.477 1504.97 720.606 1504.15L721.129 1500.83Z" fill="#040404"/>
<path d="M685.549 1407.58C686.274 1407.76 686.676 1408.21 686.756 1408.91L690.447 1450.55C690.467 1450.81 690.598 1450.98 690.84 1451.04L702.801 1454.04C703.123 1454.12 703.324 1454 703.405 1453.68L712.913 1415.74C713.115 1414.93 713.619 1414.63 714.424 1414.83L718.411 1415.83C719.217 1416.04 719.518 1416.54 719.317 1417.35L698.726 1499.51C698.524 1500.32 698.02 1500.62 697.215 1500.42L678.488 1495.71C672.85 1494.3 668.824 1491.06 666.41 1486C663.996 1480.94 663.637 1475.03 665.333 1468.26C666.686 1462.87 669.004 1458.57 672.289 1455.37C675.574 1452.17 679.401 1450.39 683.771 1450.03C684.114 1450.03 684.285 1449.86 684.285 1449.52L680.262 1407.67L680.263 1407.15C680.404 1406.59 680.837 1406.4 681.562 1406.58L685.549 1407.58ZM692.959 1493.31C693.282 1493.39 693.483 1493.27 693.564 1492.95L701.83 1459.96C701.911 1459.64 701.791 1459.44 701.468 1459.36L689.145 1456.26C685.198 1455.27 681.633 1456 678.45 1458.46C675.246 1460.99 673.008 1464.8 671.737 1469.87C670.445 1475.03 670.623 1479.44 672.272 1483.11C673.901 1486.86 676.689 1489.23 680.636 1490.22L692.959 1493.31Z" fill="#040404"/>
<path d="M634.824 1390.67C635.53 1390.92 635.89 1391.4 635.906 1392.11L635.776 1433.9C635.772 1434.16 635.888 1434.34 636.123 1434.42L647.763 1438.49C648.077 1438.6 648.288 1438.5 648.398 1438.19L661.337 1401.27C661.612 1400.49 662.141 1400.23 662.925 1400.51L666.805 1401.87C667.589 1402.14 667.844 1402.67 667.569 1403.45L639.548 1483.39C639.273 1484.18 638.744 1484.43 637.96 1484.16L619.736 1477.78C614.249 1475.86 610.534 1472.27 608.592 1467.02C606.65 1461.76 606.833 1455.84 609.141 1449.26C610.981 1444.01 613.684 1439.94 617.248 1437.05C620.812 1434.16 624.788 1432.74 629.174 1432.78C629.515 1432.81 629.701 1432.65 629.733 1432.31L629.55 1390.28L629.598 1389.77C629.79 1389.22 630.239 1389.07 630.944 1389.32L634.824 1390.67ZM634.371 1476.7C634.684 1476.81 634.896 1476.71 635.006 1476.39L646.255 1444.3C646.365 1443.99 646.263 1443.77 645.95 1443.66L633.957 1439.47C630.116 1438.12 626.498 1438.53 623.103 1440.68C619.68 1442.92 617.103 1446.5 615.372 1451.44C613.614 1456.45 613.389 1460.86 614.696 1464.66C615.977 1468.54 618.537 1471.16 622.378 1472.5L634.371 1476.7Z" fill="#040404"/>
<path d="M601.644 1375.37C607.156 1377.89 610.851 1381.68 612.729 1386.75C614.497 1391.85 614.08 1397.23 611.479 1402.89L591.761 1445.78C589.125 1451.52 585.31 1455.34 580.317 1457.26C575.289 1459.25 569.981 1458.97 564.394 1456.41C558.806 1453.85 555.09 1450 553.247 1444.87C551.369 1439.8 551.748 1434.41 554.384 1428.67L574.102 1385.77C576.703 1380.12 580.556 1376.31 585.659 1374.35C590.728 1372.47 596.056 1372.81 601.644 1375.37ZM599.199 1380.69C595.423 1378.96 591.793 1378.8 588.308 1380.22C584.747 1381.61 582.047 1384.3 580.209 1388.3L560.283 1431.65C558.445 1435.65 558.162 1439.44 559.433 1443.04C560.595 1446.68 563.063 1449.36 566.839 1451.09C570.539 1452.78 574.149 1452.88 577.669 1451.39C581.154 1449.97 583.816 1447.26 585.654 1443.26L605.58 1399.91C607.418 1395.91 607.739 1392.13 606.543 1388.57C605.347 1385.01 602.899 1382.38 599.199 1380.69Z" fill="#040404"/>
<path d="M537.416 1342.51C538.063 1342.88 538.329 1343.42 538.212 1344.12L530.321 1385.13C530.268 1385.39 530.35 1385.58 530.566 1385.71L541.256 1391.85C541.544 1392.02 541.771 1391.96 541.938 1391.67L561.52 1357.81C561.936 1357.09 562.504 1356.94 563.224 1357.35L566.787 1359.4C567.507 1359.82 567.659 1360.38 567.244 1361.1L524.835 1434.43C524.419 1435.15 523.851 1435.3 523.131 1434.89L506.394 1425.26C501.355 1422.36 498.368 1418.15 497.435 1412.64C496.501 1407.12 497.78 1401.34 501.273 1395.3C504.059 1390.48 507.472 1386.99 511.514 1384.81C515.556 1382.63 519.73 1381.96 524.036 1382.81C524.366 1382.91 524.578 1382.79 524.672 1382.46L532.302 1341.15L532.444 1340.66C532.735 1340.15 533.204 1340.09 533.852 1340.46L537.416 1342.51ZM520.987 1426.9C521.275 1427.07 521.502 1427 521.669 1426.72L538.695 1397.28C538.861 1396.99 538.8 1396.76 538.512 1396.6L527.498 1390.26C523.97 1388.24 520.337 1387.97 516.597 1389.46C512.816 1391.02 509.615 1394.06 506.996 1398.59C504.335 1403.19 503.295 1407.48 503.874 1411.45C504.413 1415.5 506.445 1418.54 509.973 1420.57L520.987 1426.9Z" fill="#040404"/>
<path d="M454.816 1320.58C454.151 1320.08 454.07 1319.5 454.575 1318.84L456.692 1316.05C457.196 1315.39 457.781 1315.31 458.446 1315.81L461.438 1318.07C461.704 1318.27 461.937 1318.24 462.139 1317.97L475.828 1299.97C476.332 1299.3 476.916 1299.22 477.581 1299.73L480.872 1302.21C481.537 1302.71 481.617 1303.29 481.113 1303.96L467.425 1321.96C467.223 1322.22 467.255 1322.46 467.521 1322.66L491.257 1340.57C491.922 1341.07 492.003 1341.66 491.498 1342.32L489.532 1344.91C489.33 1345.17 488.961 1345.52 488.425 1345.95L439.11 1379.02C438.507 1379.4 437.906 1379.36 437.308 1378.91L433.718 1376.2C432.986 1375.65 432.998 1375.08 433.752 1374.5L482.063 1341.93C482.23 1341.85 482.331 1341.72 482.366 1341.53C482.349 1341.42 482.275 1341.31 482.142 1341.21L463.891 1327.43C463.625 1327.23 463.391 1327.26 463.19 1327.53L450.636 1344.04C450.131 1344.7 449.547 1344.78 448.882 1344.28L445.591 1341.8C444.926 1341.3 444.846 1340.71 445.35 1340.05L457.904 1323.54C458.106 1323.27 458.073 1323.04 457.808 1322.84L454.816 1320.58Z" fill="#040404"/>
<path d="M450.928 1275.33C455.412 1279.38 457.695 1284.13 457.779 1289.57C457.863 1295.01 455.728 1300.11 451.372 1304.88L420.216 1339.03C415.86 1343.8 410.961 1346.4 405.516 1346.84C400.072 1347.28 395.108 1345.46 390.624 1341.41C386.079 1337.29 383.765 1332.52 383.681 1327.08C383.597 1321.64 385.732 1316.54 390.088 1311.77L421.244 1277.62C425.6 1272.85 430.499 1270.25 435.944 1269.81C441.388 1269.38 446.382 1271.21 450.928 1275.33ZM446.908 1279.73C443.836 1276.95 440.458 1275.74 436.773 1276.09C432.97 1276.45 429.534 1278.31 426.463 1281.68L394.636 1316.55C391.565 1319.92 390.06 1323.47 390.122 1327.21C390.066 1330.96 391.573 1334.22 394.645 1337C397.654 1339.73 401.06 1340.91 404.863 1340.55C408.548 1340.2 411.926 1338.34 414.997 1334.98L446.824 1300.1C449.895 1296.73 451.459 1293.18 451.514 1289.43C451.453 1285.69 449.917 1282.45 446.908 1279.73Z" fill="#040404"/>
<path d="M377.038 1245.42C376.475 1244.81 376.5 1244.22 377.113 1243.66L379.688 1241.31C380.301 1240.75 380.889 1240.78 381.452 1241.39L383.986 1244.13C384.212 1244.38 384.447 1244.39 384.692 1244.16L401.337 1228.95C401.95 1228.39 402.538 1228.42 403.101 1229.03L405.889 1232.05C406.452 1232.66 406.427 1233.25 405.814 1233.81L389.169 1249.02C388.924 1249.24 388.914 1249.47 389.139 1249.72L409.242 1271.51C409.805 1272.12 409.78 1272.7 409.167 1273.26L406.776 1275.45C406.531 1275.67 406.107 1275.95 405.504 1276.27L351.206 1299.9C350.546 1300.17 349.963 1300.03 349.456 1299.48L346.415 1296.18C345.796 1295.51 345.908 1294.96 346.751 1294.52L399.976 1271.2C400.155 1271.15 400.278 1271.04 400.344 1270.86C400.349 1270.75 400.295 1270.63 400.182 1270.51L384.725 1253.75C384.5 1253.51 384.264 1253.5 384.019 1253.72L368.754 1267.67C368.141 1268.23 367.552 1268.21 366.989 1267.59L364.202 1264.57C363.639 1263.96 363.664 1263.38 364.277 1262.82L379.542 1248.87C379.787 1248.64 379.797 1248.41 379.572 1248.17L377.038 1245.42Z" fill="#040404"/>
<path d="M319.108 1179.13C317.972 1178.53 316.671 1178.3 315.398 1178.49C314.125 1178.67 312.946 1179.26 312.038 1180.17C311.129 1181.07 310.537 1182.25 310.351 1183.51C310.164 1184.78 310.393 1186.08 311.002 1187.21C311.611 1188.34 312.569 1189.24 313.735 1189.79C314.9 1190.34 316.21 1190.5 317.473 1190.25C318.735 1190 319.882 1189.36 320.743 1188.41C321.605 1187.46 322.137 1186.26 322.259 1184.98C322.371 1183.81 322.132 1182.63 321.572 1181.59C321.011 1180.55 320.154 1179.69 319.108 1179.13V1179.13Z" fill="#040404"/>
<path d="M282.092 558.579C280.958 557.978 279.661 557.756 278.392 557.944C277.124 558.133 275.951 558.723 275.048 559.627C274.144 560.531 273.558 561.701 273.374 562.965C273.191 564.229 273.422 565.519 274.031 566.644C274.641 567.77 275.597 568.672 276.759 569.217C277.922 569.761 279.228 569.92 280.485 569.669C281.743 569.419 282.884 568.772 283.742 567.824C284.6 566.877 285.128 565.679 285.248 564.408C285.361 563.236 285.122 562.056 284.56 561.018C283.998 559.98 283.139 559.131 282.092 558.579V558.579Z" fill="#040404"/>
<path d="M870.05 1463.03C868.916 1462.43 867.619 1462.21 866.351 1462.4C865.082 1462.59 863.91 1463.18 863.006 1464.08C862.103 1464.99 861.516 1466.16 861.333 1467.42C861.15 1468.68 861.38 1469.97 861.99 1471.1C862.599 1472.22 863.556 1473.13 864.718 1473.67C865.88 1474.22 867.186 1474.37 868.444 1474.12C869.701 1473.87 870.843 1473.23 871.701 1472.28C872.558 1471.33 873.086 1470.13 873.206 1468.86C873.317 1467.69 873.076 1466.51 872.515 1465.47C871.953 1464.44 871.095 1463.59 870.05 1463.03V1463.03Z" fill="#040404"/>
<path d="M1379.77 501.057C1378.63 500.456 1377.34 500.234 1376.07 500.422C1374.8 500.611 1373.63 501.201 1372.72 502.105C1371.82 503.009 1371.23 504.179 1371.05 505.443C1370.87 506.707 1371.1 507.997 1371.71 509.122C1372.32 510.248 1373.27 511.15 1374.43 511.695C1375.6 512.24 1376.9 512.398 1378.16 512.148C1379.42 511.897 1380.56 511.25 1381.42 510.302C1382.27 509.355 1382.8 508.157 1382.92 506.886C1383.03 505.714 1382.79 504.535 1382.23 503.498C1381.67 502.46 1380.81 501.611 1379.77 501.057V501.057Z" fill="#040404"/>
<path d="M1406.37 1127.34C1405.23 1126.75 1403.94 1126.53 1402.67 1126.72C1401.4 1126.91 1400.23 1127.51 1399.33 1128.41C1398.43 1129.32 1397.85 1130.49 1397.67 1131.75C1397.49 1133.02 1397.72 1134.3 1398.33 1135.43C1398.94 1136.55 1399.9 1137.45 1401.06 1138C1402.23 1138.54 1403.53 1138.69 1404.79 1138.44C1406.05 1138.19 1407.19 1137.54 1408.04 1136.59C1408.9 1135.65 1409.42 1134.45 1409.54 1133.18C1409.65 1132 1409.41 1130.82 1408.84 1129.78C1408.28 1128.75 1407.42 1127.9 1406.37 1127.34Z" fill="#040404"/>
<path d="M805.931 213.396C804.797 212.795 803.5 212.572 802.232 212.761C800.963 212.95 799.791 213.54 798.887 214.444C797.984 215.348 797.397 216.518 797.214 217.782C797.031 219.046 797.261 220.336 797.871 221.461C798.48 222.587 799.437 223.489 800.599 224.034C801.761 224.578 803.067 224.737 804.325 224.486C805.582 224.236 806.724 223.589 807.581 222.641C808.439 221.694 808.967 220.496 809.087 219.225C809.198 218.053 808.957 216.874 808.396 215.837C807.834 214.799 806.976 213.95 805.931 213.396V213.396Z" fill="#040404"/>
</g>
<defs>
<clipPath id="clip0">
<rect width="1360" height="1360" fill="white" transform="translate(391.336) rotate(16.7231)"/>
</clipPath>
</defs>
</svg>
