<svg width="152" height="30" viewBox="0 0 152 30" fill="none" xmlns="http://www.w3.org/2000/svg">
<g clip-path="url(#clip0_14_373)">
<path d="M17.14 0H17.48C17.5728 0.020947 17.6632 0.0510964 17.75 0.0900002L33.75 8.42C33.9499 8.48557 34.1268 8.6071 34.2597 8.77016C34.3927 8.93322 34.4761 9.13099 34.5 9.34C34.5 12.83 34.5 16.34 34.44 19.82C34.4484 19.9957 34.4103 20.1705 34.3295 20.3268C34.2487 20.483 34.1282 20.6152 33.98 20.71L17.54 29.06L17.27 29.13H17.22H17.15C16.8892 29.0795 16.641 28.9775 16.42 28.83L0.89 20.77C0.667225 20.682 0.460972 20.5569 0.28 20.4C0.14069 20.2478 0.0440922 20.0615 0 19.86L0 14.13C0.00988631 14.0236 0.00988631 13.9164 0 13.81C0 12.28 0 10.81 0 9.23C0.00587713 9.00894 0.078852 8.7949 0.209236 8.61629C0.33962 8.43768 0.521246 8.30296 0.73 8.23L16.87 0.0400009L17.14 0ZM17.23 2.25L3.42 9.25L17.23 16.45L31.16 9.37L17.46 2.23C17.39 2.26 17.31 2.19 17.23 2.25ZM2.09 18C4.35 16.85 6.63 15.71 8.89 14.54L2.12 11L2.09 18ZM25.59 14.63L32.36 18.15V11.15C30.13 12.3 27.86 13.44 25.59 14.6V14.63ZM3.33 19.69L16.14 26.36C16.14 23.68 16.14 21 16.19 18.36L11.19 15.75C8.56 17 5.94 18.34 3.33 19.69ZM18.27 18.32C18.27 21.01 18.27 23.69 18.22 26.38L24 23.44C26.37 22.23 28.74 21.04 31.1 19.82L23.3 15.76C21.62 16.62 19.94 17.46 18.27 18.32Z" />
<path d="M48.9999 6.81001C50.4305 6.42014 51.9394 6.42014 53.3699 6.81001C54.8242 7.23335 56.0994 8.12214 56.9999 9.34001L53.9999 11.34C53.5097 10.674 52.8023 10.2001 51.9999 10C51.4891 9.88626 50.9607 9.87542 50.4456 9.96814C49.9305 10.0609 49.4391 10.2553 48.9999 10.54C48.2626 11.0556 47.7285 11.8125 47.4899 12.68C47.2944 13.3209 47.2387 13.9962 47.3267 14.6604C47.4147 15.3246 47.6443 15.9622 47.9999 16.53C48.256 16.9296 48.5898 17.2736 48.9815 17.5416C49.3732 17.8096 49.8147 17.9961 50.2799 18.09C51.1561 18.2707 52.0666 18.18 52.8899 17.83C53.3183 17.6252 53.6994 17.3337 54.0093 16.9739C54.3191 16.6142 54.5509 16.194 54.6899 15.74H51.1299V12.91H57.9999V21.33H56.2999C56.1299 20.74 55.9799 20.15 55.8199 19.55C55.1489 20.3858 54.2436 21.0022 53.2199 21.32C51.8179 21.7199 50.332 21.7199 48.9299 21.32C47.1488 20.8184 45.6387 19.6319 44.7299 18.02C44.0565 16.8136 43.7117 15.4515 43.7299 14.07C43.7125 12.639 44.0896 11.2308 44.8199 10C45.7458 8.43388 47.245 7.28974 48.9999 6.81001V6.81001Z" />
<path d="M89.24 6.85999C90.2871 6.53257 91.395 6.44709 92.48 6.60999C93.6068 6.75474 94.6579 7.25577 95.48 8.03999C96.0676 8.6266 96.4827 9.36343 96.68 10.17L93.38 10.98C93.2595 10.5723 93.0015 10.219 92.65 9.97999C92.165 9.65527 91.579 9.51677 91 9.58999C90.7698 9.60493 90.5454 9.66886 90.3419 9.77751C90.1384 9.88616 89.9605 10.037 89.82 10.22C89.6811 10.4058 89.6012 10.629 89.5905 10.8608C89.5798 11.0925 89.6388 11.3221 89.76 11.52C89.9967 11.8151 90.3122 12.037 90.67 12.16C91.35 12.44 92.09 12.57 92.79 12.79C93.6873 13.0258 94.5485 13.3824 95.35 13.85C95.9049 14.1678 96.359 14.6357 96.66 15.2C96.9449 15.8264 97.0719 16.5131 97.03 17.2C97.0007 18.2187 96.5903 19.1893 95.88 19.92C94.9949 20.7958 93.8454 21.3548 92.61 21.51C91.474 21.6755 90.317 21.6246 89.2 21.36C88.1539 21.1321 87.2018 20.5915 86.47 19.81C85.9718 19.2393 85.6276 18.5509 85.47 17.81L88.76 16.81C88.8876 17.335 89.2092 17.7922 89.66 18.09C90.2913 18.4663 91.0325 18.6145 91.76 18.51C92.2158 18.4712 92.6487 18.2932 93 18C93.1685 17.8428 93.2869 17.6394 93.3402 17.4153C93.3936 17.1911 93.3796 16.9562 93.3 16.74C93.1424 16.4271 92.8701 16.1871 92.54 16.07C91.9572 15.8547 91.3588 15.6842 90.75 15.56C89.585 15.3614 88.4785 14.9072 87.51 14.23C86.8304 13.6998 86.3624 12.9445 86.19 12.1C85.9238 10.9791 86.0842 9.79919 86.64 8.78999C87.2413 7.85025 88.1664 7.16359 89.24 6.85999Z" />
<path d="M101 7.09C102.062 6.63749 103.219 6.45209 104.37 6.55C105.591 6.62967 106.751 7.1114 107.67 7.92C108.327 8.52151 108.79 9.3047 109 10.17C107.9 10.44 106.81 10.72 105.71 10.98C105.599 10.576 105.351 10.2228 105.01 9.98C104.516 9.66087 103.923 9.5296 103.34 9.61C103.11 9.6262 102.886 9.69067 102.683 9.79923C102.48 9.90778 102.301 10.058 102.16 10.24C102.021 10.4258 101.941 10.6491 101.931 10.8808C101.92 11.1125 101.979 11.3422 102.1 11.54C102.324 11.8239 102.622 12.0417 102.96 12.17C103.63 12.45 104.37 12.57 105.07 12.79C105.944 13.0206 106.787 13.3564 107.58 13.79C108.166 14.0959 108.656 14.5557 109 15.12C109.3 15.7425 109.441 16.4297 109.41 17.12C109.391 18.1605 108.976 19.1547 108.25 19.9C107.377 20.786 106.233 21.356 105 21.52C103.823 21.6955 102.623 21.6343 101.47 21.34C100.471 21.0977 99.5638 20.5695 98.86 19.82C98.3592 19.2511 98.0147 18.562 97.86 17.82C98.95 17.47 100.05 17.14 101.15 16.82C101.278 17.345 101.599 17.8022 102.05 18.1C102.678 18.4763 103.416 18.6246 104.14 18.52C104.619 18.4915 105.078 18.3131 105.45 18.01C105.612 17.8548 105.728 17.6576 105.784 17.4404C105.841 17.2232 105.836 16.9945 105.77 16.78C105.7 16.6211 105.598 16.478 105.47 16.3594C105.343 16.2408 105.193 16.1492 105.03 16.09C104.5 15.8789 103.95 15.7182 103.39 15.61C102.234 15.4132 101.13 14.9883 100.14 14.36C99.3846 13.8462 98.855 13.0625 98.66 12.17C98.3988 11.1061 98.5191 9.98431 99 9C99.4417 8.16317 100.144 7.49276 101 7.09Z" />
<path d="M129.84 6.60999C131.22 6.41088 132.628 6.56927 133.93 7.06999C135.539 7.72143 136.853 8.94234 137.62 10.5C138.173 11.6464 138.447 12.9074 138.42 14.18C138.429 16.1952 137.642 18.1325 136.23 19.57C135.303 20.4711 134.148 21.1036 132.89 21.4C131.768 21.676 130.599 21.698 129.467 21.4645C128.336 21.2309 127.271 20.7477 126.35 20.05C125.595 19.4353 124.969 18.6769 124.509 17.8186C124.049 16.9603 123.764 16.0193 123.67 15.05C123.483 13.5046 123.736 11.9378 124.4 10.53C125.189 8.90374 126.57 7.6408 128.26 6.99999C128.772 6.81518 129.301 6.68447 129.84 6.60999V6.60999ZM130.67 9.97999C129.892 10.0285 129.15 10.3305 128.56 10.84C127.804 11.5325 127.33 12.4797 127.23 13.5C127.081 14.6728 127.389 15.8582 128.09 16.81C128.59 17.4517 129.297 17.9005 130.09 18.08C130.66 18.2181 131.254 18.225 131.828 18.1003C132.401 17.9756 132.939 17.7225 133.4 17.36C133.847 16.9421 134.204 16.4376 134.45 15.8773C134.695 15.317 134.824 14.7125 134.829 14.1007C134.834 13.4889 134.714 12.8826 134.477 12.3186C134.24 11.7546 133.89 11.2447 133.45 10.82C132.668 10.1901 131.669 9.89531 130.67 9.99999V9.97999Z" />
<path d="M60.3 6.78H63.8801V18C65.6901 18 67.5 18 69.31 18V21.35H60.3101L60.3 6.78Z" />
<path d="M75.35 6.78C76.76 6.78 78.16 6.78 79.57 6.78L84.81 21.33C83.57 21.33 82.32 21.33 81.07 21.33C80.8 20.43 80.5 19.54 80.23 18.64H75C74.91 18.64 74.81 18.64 74.73 18.64C74.44 19.53 74.17 20.42 73.88 21.31H70.12L75.35 6.78ZM77.46 9.91C76.7933 11.91 76.16 13.91 75.56 15.91H79.37C78.73 13.93 78.11 11.91 77.46 9.91Z" />
<path d="M147.62 6.78H151.62L147.29 13.85C148.86 16.34 150.41 18.85 151.97 21.33H147.97C147.02 19.83 146.09 18.33 145.14 16.79C144.21 18.3 143.28 19.79 142.34 21.33H138.34C139.89 18.83 141.46 16.33 143.02 13.85L138.69 6.78C140.03 6.78 141.38 6.78 142.69 6.78L145.15 11C145.977 9.58 146.8 8.17333 147.62 6.78Z" />
<path d="M111 6.77999H116.63C117.796 6.76235 118.945 7.05576 119.96 7.62998C120.673 8.06568 121.2 8.74944 121.44 9.54998C121.633 10.2195 121.667 10.9249 121.54 11.61C121.413 12.2722 121.059 12.8695 120.54 13.3C120.38 13.45 120.18 13.53 120.03 13.68C120.854 13.9966 121.526 14.6152 121.91 15.41C122.234 16.2058 122.307 17.0814 122.12 17.92C121.965 18.8953 121.429 19.7692 120.63 20.35C119.555 21.0483 118.291 21.3976 117.01 21.35C115.01 21.35 113.01 21.35 111.01 21.35C111 16.49 111.05 11.63 111 6.77999ZM114.58 9.58999V12.74C115.286 12.7801 115.994 12.7801 116.7 12.74C116.979 12.7032 117.242 12.5905 117.46 12.4141C117.679 12.2377 117.845 12.0045 117.94 11.74C118.044 11.4558 118.067 11.1485 118.007 10.852C117.947 10.5555 117.806 10.2814 117.6 10.06C117.201 9.74218 116.699 9.58204 116.19 9.60999L114.58 9.58999ZM114.58 15.17V18.52H116.01C116.557 18.576 117.109 18.5146 117.63 18.34C117.851 18.2434 118.047 18.0963 118.202 17.9105C118.356 17.7247 118.465 17.5054 118.52 17.27C118.597 17.0087 118.611 16.7328 118.561 16.465C118.51 16.1973 118.397 15.9454 118.23 15.73C118.034 15.5427 117.801 15.3973 117.547 15.3028C117.292 15.2082 117.021 15.1664 116.75 15.18L114.58 15.17Z" />
</g>
<defs>
<clipPath id="clip0_14_373">
<rect width="152" height="29.17" fill="white"/>
</clipPath>
</defs>
</svg>
