<svg width="94" height="34" viewBox="0 0 94 34" fill="none" xmlns="http://www.w3.org/2000/svg">
<g clip-path="url(#clip0_102_34)">
<path fill-rule="evenodd" clip-rule="evenodd" d="M33.2631 1.03403H0.415405V33.923H33.2631V1.03403ZM6.39526 7.01293V27.9439H30.2722V30.9334H3.40574V4.02342H30.2722V7.01293H6.39526ZM15.365 15.9838H27.2817H30.2713V18.9733V24.9545H27.2817H9.38379V10.0047H30.2713V12.9942H12.3755V21.965H27.2817V18.9733H15.365V15.9838Z" />
<path d="M48.403 3.76465C47.9961 3.76465 47.8569 3.89519 47.8569 4.24984V5.39865C47.2253 5.69126 46.542 5.85615 45.8464 5.88385C43.8882 5.88385 42.9548 4.79596 42.9548 3.31861C42.9548 1.90871 44.1189 0.868683 45.7616 0.868683C46.5623 0.868683 47.1715 1.13848 47.4326 1.13848C47.4764 1.14298 47.5206 1.13613 47.561 1.1186C47.6014 1.10108 47.6366 1.07345 47.6632 1.0384H47.8678V2.44395H47.5588C47.4831 2.08107 47.2814 1.75666 46.9896 1.52811C46.6977 1.29956 46.3344 1.18159 45.9639 1.19505C44.8761 1.19505 44.1145 2.06536 44.1145 3.30556C44.1145 4.54575 44.9087 5.50961 45.9792 5.50961C46.2664 5.51267 46.5499 5.44386 46.8038 5.30944V4.24984C46.8038 3.86472 46.6428 3.77988 45.8573 3.76465V3.47309H48.4139L48.403 3.76465Z" />
<path d="M52.9655 5.77736H48.8315V5.47711H48.9621C49.456 5.47711 49.6018 5.2987 49.6018 4.92229V1.83921C49.6018 1.38448 49.3407 1.28439 48.9925 1.28439H48.8467V0.984131H51.4576V1.28439H51.2401C50.8398 1.28439 50.6701 1.46063 50.6701 1.82398V4.99844C50.6701 5.28347 50.7549 5.35309 51.0551 5.35309H52.0342C52.5499 5.35309 52.7044 5.09852 53.2201 4.43491H53.5247L52.9655 5.77736Z" />
<path d="M57.1975 1.40841H55.5091V3.14903H56.758C57.1801 3.14903 57.3346 3.00325 57.3346 2.59421H57.6435V4.11725H57.3346C57.3346 3.70167 57.2345 3.56243 56.6426 3.56243H55.5091V4.95057C55.5091 5.28129 55.57 5.35092 55.7941 5.35092H57.08C57.5826 5.35092 57.8197 5.21166 57.9677 4.56545H58.2593L58.1679 5.77519H53.5248V5.47711H53.8403C54.2863 5.47711 54.4407 5.2987 54.4407 4.92229V1.84574C54.4407 1.43017 54.3015 1.28439 53.7707 1.28439H53.6945V0.984131H57.9394L58.0177 2.1003H57.724C57.6588 1.57377 57.5499 1.40841 57.1975 1.40841Z" />
<path d="M59.9627 4.85266C59.9627 5.32263 60.1085 5.47711 60.7264 5.47711V5.77736H58.8618V5.47711H58.9074C59.3774 5.47711 59.4928 5.3074 59.4928 4.98974V1.4541C59.3095 1.33619 59.0948 1.27698 58.877 1.28439V0.984131H60.4631L63.6072 4.2652V1.9393C63.6072 1.38448 63.4918 1.28657 62.8761 1.28657H62.7977V0.984131H64.7864V1.28439H64.7103C64.2316 1.28439 64.0771 1.38448 64.0771 1.67821V5.79912H63.655L59.9562 1.9393L59.9627 4.85266Z" />
<path d="M65.2561 0.984242C65.6738 0.960304 66.1503 0.945075 66.4984 0.921146C66.8835 0.899385 67.1751 0.884155 67.5537 0.884155C69.0942 0.884155 69.8186 1.07562 70.3822 1.64567C70.594 1.85797 70.7609 2.11067 70.873 2.38876C70.9851 2.66686 71.0402 2.96465 71.0349 3.26446C71.0318 3.91162 70.7738 4.5315 70.3169 4.98984C69.9253 5.38366 69.2856 5.77747 67.706 5.77747H65.2561V5.47721C65.7652 5.47721 65.9741 5.37496 65.9741 4.93762V1.96334C65.9741 1.41504 65.85 1.28449 65.2561 1.28449V0.984242ZM67.0359 4.88323C67.0359 5.39889 67.1142 5.46851 67.7081 5.46851C69.4488 5.46851 69.8839 4.28053 69.8839 3.36453C69.9049 2.78691 69.7023 2.22346 69.3182 1.79145C68.9396 1.41504 68.424 1.23663 67.6386 1.23663C67.437 1.23498 67.2356 1.24806 67.0359 1.27579V4.88323Z" />
<path d="M72.8166 3.99758L72.4924 4.89835C72.3531 5.28999 72.3619 5.4771 73.1016 5.4771H73.2017V5.77736H71.1587V5.4771H71.2761C71.646 5.4771 71.8375 5.3074 72.0311 4.7678L73.3475 1.09074L73.2627 0.873169H74.4114L75.9541 4.78956C76.1543 5.29651 76.324 5.44229 76.7243 5.48363V5.78389H74.2113V5.4771H74.4811C74.9511 5.4771 75.0207 5.25953 74.8661 4.88964L74.5028 3.99758H72.8166ZM73.6173 1.76959L72.9646 3.5733H74.3201L73.6173 1.76959Z" />
<path d="M47.9719 13.7165C47.8854 14.1998 47.7392 14.6704 47.5367 15.1177C47.3884 15.0791 47.2353 15.0615 47.082 15.0655C46.7186 15.0655 46.3335 15.2026 45.757 15.2026C44.1773 15.2026 42.9502 14.1147 42.9502 12.7135C42.9502 11.3123 44.2557 10.1875 45.9028 10.1875C46.7034 10.1875 47.2278 10.5029 47.3823 10.5029C47.4121 10.5027 47.4415 10.4957 47.4682 10.4826C47.495 10.4693 47.5184 10.4503 47.5367 10.4268H47.7282L47.7978 11.7736H47.4976C47.2517 11.012 46.7034 10.5791 45.9746 10.5791C44.8736 10.5791 44.1099 11.4124 44.1099 12.6287C44.1099 13.8449 44.9584 14.8261 46.0681 14.8261C46.4168 14.8237 46.7567 14.7166 47.0437 14.5188C47.3307 14.321 47.5518 14.0415 47.6782 13.7165H47.9719Z" />
<path d="M51.7708 10.1573C53.3809 10.1573 54.5232 11.1668 54.5232 12.6072C54.5232 13.9779 53.4657 15.2029 51.625 15.2029C49.8517 15.2029 48.8204 14.0715 48.8204 12.777C48.8204 11.2496 50.0432 10.1573 51.7708 10.1573ZM51.8013 14.8722C52.8739 14.8722 53.3744 13.9475 53.3744 12.8836C53.3744 11.6433 52.7564 10.4902 51.5859 10.4902C50.6068 10.4902 49.9671 11.2452 49.9671 12.4092C49.9671 13.8779 50.7156 14.8722 51.8013 14.8722Z" />
<path d="M60.4862 13.7165C60.3996 14.1998 60.2535 14.6704 60.0509 15.1177C59.9026 15.0791 59.7495 15.0615 59.5962 15.0655C59.2329 15.0655 58.8477 15.2026 58.269 15.2026C56.6894 15.2026 55.4645 14.1147 55.4645 12.7135C55.4645 11.3123 56.7699 10.1875 58.4169 10.1875C59.2176 10.1875 59.742 10.5029 59.8965 10.5029C59.9263 10.5027 59.9557 10.4957 59.9825 10.4826C60.0092 10.4693 60.0326 10.4503 60.0509 10.4268H60.2424L60.3121 11.7736H60.0118C59.7659 11.012 59.2176 10.5791 58.4888 10.5791C57.3878 10.5791 56.6241 11.4124 56.6241 12.6287C56.6241 13.8449 57.4727 14.8261 58.5823 14.8261C58.931 14.8237 59.2709 14.7166 59.5579 14.5188C59.845 14.321 60.066 14.0415 60.1924 13.7165H60.4862Z" />
<path d="M64.8384 14.7959C65.2474 14.7959 65.4171 14.6175 65.4171 14.2019V12.8312H62.8671V14.2171C62.8671 14.6262 63.0303 14.7959 63.4611 14.7959H63.5763V15.0961H61.1025V14.7959H61.2352C61.6269 14.7959 61.8053 14.6175 61.8053 14.2323V11.1667C61.8053 10.7794 61.6356 10.6032 61.2266 10.6032H61.1025V10.3029H63.5763V10.6032H63.4698C63.0672 10.6032 62.8671 10.7337 62.8671 11.1667V12.3764H65.4106V11.1884C65.4106 10.7533 65.2409 10.6032 64.7948 10.6032H64.7252V10.3029H67.1903V10.6032H67.0511C66.6594 10.6032 66.4745 10.749 66.4745 11.1667V14.2128C66.4745 14.6131 66.6203 14.7916 67.0685 14.7916H67.1903V15.0918H64.7252V14.7959H64.8384Z" />
<path d="M69.44 14.2322C69.44 14.626 69.6096 14.7957 70.0492 14.7957H70.2776V15.096H67.5797V14.7957H67.7037C68.1736 14.7957 68.3738 14.6804 68.3738 14.2322V11.1861C68.3738 10.8163 68.2737 10.6008 67.756 10.6008H67.5949V10.3027C67.98 10.2788 68.2737 10.2636 68.5893 10.2418C69.0244 10.2092 69.5749 10.1875 69.8534 10.1875C70.9847 10.1875 71.5939 10.3332 71.9878 10.7183C72.1053 10.8307 72.1987 10.9657 72.2623 11.1154C72.3259 11.265 72.3583 11.426 72.3577 11.5886C72.3577 12.1739 71.9334 12.6373 71.2176 12.8288C71.7245 13.2531 71.9943 13.8623 72.5426 14.4085C72.6706 14.5513 72.8272 14.6656 73.0022 14.744C73.1773 14.8223 73.3669 14.8629 73.5587 14.8632V15.1721C73.389 15.1721 73.3128 15.1721 73.0822 15.1721C72.1271 15.1721 71.7332 15.0329 71.3699 14.6717C71.0065 14.3105 70.5387 13.4751 70.0448 13.0529H69.4356L69.44 14.2322ZM69.44 12.7374H69.7424C70.6736 12.7374 71.2132 12.4524 71.2132 11.6278C71.2132 10.8032 70.5887 10.5182 69.8425 10.5182H69.44V12.7374Z" />
<path d="M75.3268 13.3229L75.0048 14.2236C74.8655 14.6175 74.8742 14.8024 75.6118 14.8024H75.7162V15.1026H73.671V14.7959H73.7863C74.1562 14.7959 74.3499 14.6261 74.5413 14.0865L75.8598 10.4095L75.775 10.1919H76.9151L78.4555 14.1083C78.6557 14.6175 78.8254 14.761 79.2257 14.8024V15.1026H76.7214V14.7959H76.9912C77.4612 14.7959 77.5309 14.5783 77.3763 14.2084L77.0217 13.3229H75.3268ZM76.1296 11.0948L75.4769 12.8986H76.8346L76.1296 11.0948Z" />
<path d="M80.7452 14.1714C80.7452 14.6414 80.8932 14.7959 81.509 14.7959V15.0961H79.6443V14.7959H79.69C80.16 14.7959 80.2753 14.6262 80.2753 14.3085V10.7729C80.0921 10.655 79.8773 10.5958 79.6595 10.6032V10.3029H81.2478L84.3896 13.5862V11.2581C84.3896 10.7033 84.2745 10.6053 83.659 10.6053H83.5823V10.3029H85.569V10.6032H85.4931C85.0143 10.6032 84.8601 10.7033 84.8601 10.997V15.1179H84.4372L80.7387 11.2581L80.7452 14.1714Z" />
<path d="M44.2874 22.6351L43.9632 23.5359C43.8261 23.9297 43.8326 24.1146 44.5724 24.1146H44.6725V24.4192H42.6316V24.1146H42.7469C43.1168 24.1146 43.3083 23.9449 43.5019 23.4053L44.8205 19.7282L44.7356 19.5107H45.8757L47.4161 23.4271C47.6163 23.9362 47.7861 24.0798 48.1864 24.1212V24.4192H45.6907V24.1146H45.9606C46.4305 24.1146 46.5002 23.8971 46.3456 23.5272L45.9845 22.6351H44.2874ZM45.088 20.4071L44.4353 22.2108H45.7908L45.088 20.4071Z" />
<path d="M48.8656 22.9964H49.1724C49.427 23.7601 49.8817 24.1517 50.4909 24.1517C50.9979 24.1517 51.3852 23.8297 51.3852 23.3968C51.3852 22.2501 48.9113 22.287 48.9113 20.7619C48.9113 20.0221 49.564 19.5065 50.4757 19.5065C50.8721 19.5296 51.2647 19.5967 51.6463 19.7066C51.6791 19.7062 51.7115 19.6983 51.7408 19.6836C51.7702 19.6689 51.7959 19.6478 51.816 19.6217H51.977L52.1249 20.8706H51.816C51.7544 20.5817 51.5969 20.3223 51.3688 20.1346C51.1408 19.9469 50.8558 19.842 50.5606 19.8372C50.1254 19.8372 49.8056 20.0678 49.8056 20.3702C49.8056 21.0773 51.0827 21.21 51.9465 22.0717C52.0858 22.2019 52.1964 22.3597 52.2713 22.535C52.3462 22.7103 52.3838 22.8993 52.3816 23.0899C52.3816 23.8906 51.6571 24.5216 50.7411 24.5216C50.1232 24.5216 49.5619 24.2758 49.4226 24.2758C49.3861 24.2769 49.351 24.2895 49.3222 24.3118C49.2932 24.3341 49.272 24.3648 49.2616 24.3998H49.0614L48.8656 22.9964Z" />
<path d="M53.359 22.9964H53.6593C53.9138 23.7601 54.3685 24.1517 54.9778 24.1517C55.4848 24.1517 55.8698 23.8297 55.8698 23.3968C55.8698 22.2501 53.3982 22.287 53.3982 20.7619C53.3982 20.0221 54.0509 19.5065 54.9604 19.5065C55.3575 19.5294 55.7508 19.5965 56.1332 19.7066C56.166 19.7062 56.1983 19.6983 56.2277 19.6836C56.2571 19.6689 56.2828 19.6478 56.3028 19.6217H56.4639L56.6097 20.8706H56.3028C56.2413 20.5817 56.0837 20.3223 55.8557 20.1346C55.6276 19.9469 55.3427 19.842 55.0474 19.8372C54.6123 19.8372 54.2924 20.0678 54.2924 20.3702C54.2924 21.0773 55.5718 21.21 56.4356 22.0717C56.5748 22.2019 56.6855 22.3597 56.7604 22.535C56.8353 22.7103 56.8729 22.8993 56.8707 23.0899C56.8707 23.8906 56.1462 24.5216 55.228 24.5216C54.6123 24.5216 54.0509 24.2758 53.9117 24.2758C53.875 24.2771 53.8397 24.2898 53.8105 24.312C53.7813 24.3341 53.7596 24.3648 53.7485 24.3998H53.5483L53.359 22.9964Z" />
<path d="M60.757 19.4759C62.3671 19.4759 63.5071 20.4855 63.5071 21.9258C63.5071 23.2966 62.4519 24.5215 60.6112 24.5215C58.8379 24.5215 57.8044 23.3901 57.8044 22.0955C57.8044 20.5703 59.0381 19.4759 60.757 19.4759ZM60.7874 24.1908C61.8579 24.1908 62.3606 23.2661 62.3606 22.2021C62.3606 20.962 61.7426 19.8088 60.5721 19.8088C59.5929 19.8088 58.9533 20.5638 58.9533 21.7278C58.9641 23.1965 59.7018 24.2017 60.7874 24.2017V24.1908Z" />
<path d="M69.4725 23.0355C69.3848 23.5185 69.2387 23.9891 69.0373 24.4367C68.889 24.3978 68.7359 24.3802 68.5826 24.3845C68.2214 24.3845 67.8363 24.5216 67.2575 24.5216C65.678 24.5216 64.453 23.4337 64.453 22.0325C64.453 20.6313 65.7585 19.5065 67.4033 19.5065C68.2062 19.5065 68.7305 19.8219 68.8828 19.8219C68.9128 19.8222 68.9423 19.8154 68.9692 19.8022C68.9959 19.789 69.0193 19.7696 69.0373 19.7458H69.231L69.3006 21.0926H69.0003C68.7523 20.331 68.2062 19.8981 67.4664 19.8981C66.3633 19.8981 65.6018 20.7314 65.6018 21.9498C65.6018 23.1682 66.4481 24.1451 67.56 24.1451C67.9087 24.1427 68.2485 24.0356 68.5355 23.8378C68.8226 23.64 69.0437 23.3605 69.1701 23.0355H69.4725Z" />
<path d="M70.0967 19.6325H72.5466V19.9327H72.416C71.9982 19.9327 71.8286 20.1111 71.8286 20.5115V23.5575C71.8286 23.9361 71.9613 24.1211 72.4313 24.1211H72.5466V24.4192H70.0967V24.1145H70.2033C70.6123 24.1145 70.7668 23.9209 70.7668 23.5815V20.5027C70.7668 20.1024 70.6276 19.924 70.1968 19.924H70.0967V19.6325Z" />
<path d="M74.6119 22.6351L74.2877 23.5359C74.1485 23.9297 74.1572 24.1146 74.8969 24.1146H74.997V24.4192H72.9562V24.1146H73.0714C73.4413 24.1146 73.6328 23.9449 73.8264 23.4053L75.1428 19.7282L75.058 19.5107H76.2002L77.7406 23.4271C77.9408 23.9362 78.1105 24.0798 78.5109 24.1212V24.4192H76.0066V24.1146H76.2764C76.7464 24.1146 76.816 23.8971 76.6615 23.5272L76.3003 22.6351H74.6119ZM75.4126 20.4071L74.7599 22.2108H76.1154L75.4126 20.4071Z" />
<path d="M81.5007 23.5361C81.5007 23.9365 81.6248 24.1149 82.1709 24.1149H82.3558V24.4195H79.5817V24.1149H79.8515C80.2758 24.1149 80.4455 23.9451 80.4455 23.5361V20.0222H79.536C78.942 20.0222 78.8484 20.1158 78.7027 20.9317H78.3872L78.5264 19.4914H78.7636C78.8049 19.5359 78.8544 19.5721 78.9094 19.598C78.9805 19.616 79.0537 19.6241 79.1269 19.6219H82.7953C82.863 19.6337 82.9326 19.6279 82.9974 19.605C83.0621 19.5822 83.1199 19.543 83.1652 19.4914H83.4113L83.5506 20.9383H83.2348C83.0869 20.1288 82.9954 20.0287 82.4015 20.0287H81.4921L81.5007 23.5361Z" />
<path d="M87.5883 20.0458H85.9018V21.7865H87.1487C87.5733 21.7865 87.7276 21.6385 87.7276 21.2316H88.037V22.7547H87.7276C87.7276 22.3392 87.6275 22.1999 87.0336 22.1999H85.9018V23.588C85.9018 23.9188 85.9635 23.9883 86.1871 23.9883H87.4665C87.9669 23.9883 88.2063 23.8491 88.3523 23.2029H88.6459L88.5541 24.4192H83.9226V24.1145H84.2379C84.6733 24.1145 84.8384 23.9361 84.8384 23.5597V20.4854C84.8384 20.0676 84.6991 19.9218 84.1678 19.9218H84.0894V19.6325H88.3373L88.4132 20.7486H88.1196C88.0428 20.2156 87.9427 20.0458 87.5883 20.0458Z" />
<path d="M89.5149 22.9964H89.8152C90.0704 23.7601 90.5249 24.1517 91.1338 24.1517C91.6409 24.1517 92.0262 23.8297 92.0262 23.3968C92.0262 22.2501 89.5541 22.287 89.5541 20.7619C89.5541 20.0221 90.2072 19.5065 91.1163 19.5065C91.5141 19.5294 91.907 19.5965 92.289 19.7066C92.3232 19.7091 92.3574 19.7038 92.3882 19.691C92.4199 19.6781 92.4474 19.6582 92.4699 19.6327H92.6309L92.7769 20.8815H92.4699C92.4082 20.5922 92.2506 20.3325 92.0221 20.1448C91.7935 19.957 91.5083 19.8524 91.2122 19.848C90.7768 19.848 90.4574 20.0786 90.4574 20.3811C90.4574 21.0883 91.7368 21.221 92.6009 22.0825C92.7394 22.2127 92.8503 22.3705 92.9253 22.5458C93.0004 22.7212 93.0379 22.9102 93.0354 23.1008C93.0354 23.9015 92.3115 24.5325 91.3932 24.5325C90.7768 24.5325 90.2155 24.2866 90.0879 24.2866C90.0512 24.288 90.0153 24.3006 89.9861 24.3229C89.9569 24.3451 89.9353 24.3757 89.9244 24.4106H89.7242L89.5149 22.9964Z" />
<path d="M42.6086 32.7418C42.9219 32.7418 42.9829 32.6874 43.1112 32.3241L43.9511 30.0156L43.9141 29.8981H44.4341L45.3414 32.3241C45.4763 32.6874 45.5242 32.7418 45.8179 32.7418V32.868H44.4341V32.7418C44.8018 32.7418 44.904 32.7049 44.904 32.5699C44.8965 32.4848 44.8744 32.4017 44.8387 32.3241L44.6212 31.7475H43.555L43.3266 32.3654C43.2997 32.4275 43.2836 32.4938 43.2787 32.5612C43.2787 32.6961 43.3723 32.7571 43.7444 32.7418V32.868H42.6086V32.7418ZM44.532 31.5147L44.0968 30.3354L43.6617 31.5147H44.532Z" />
<path d="M45.7911 29.8936H45.9085C45.9281 29.9262 45.9411 29.9502 45.9825 29.9589C46.0581 29.9702 46.1345 29.9745 46.2109 29.9719H48.1691C48.4063 29.9719 48.4433 29.9719 48.4715 29.8936H48.5977L48.6826 30.6943H48.5455C48.4825 30.2113 48.3889 30.183 48.1104 30.183H47.4577V32.374C47.4577 32.6917 47.5077 32.7417 47.9972 32.7417V32.8679H46.4002V32.7417C46.8658 32.7417 46.9398 32.6829 46.9398 32.374V30.183H46.2741C45.9999 30.183 45.9063 30.2113 45.8388 30.6943H45.704L45.7911 29.8936Z" />
<path d="M49.0677 29.8936H49.1939C49.2135 29.9262 49.2265 29.9502 49.2678 29.9589C49.3434 29.9702 49.4199 29.9745 49.4963 29.9719H51.4545C51.6916 29.9719 51.7286 29.9719 51.7569 29.8936H51.8831L51.9658 30.6943H51.8309C51.7656 30.2113 51.6743 30.183 51.3958 30.183H50.7386V32.374C50.7386 32.6917 50.7909 32.7417 51.2804 32.7417V32.8679H49.6834V32.7417C50.149 32.7417 50.223 32.6829 50.223 32.374V30.183H49.5572C49.283 30.183 49.1895 30.2113 49.1221 30.6943H48.9872L49.0677 29.8936Z" />
<path d="M53.9089 29.8981C54.9141 29.8981 55.6082 30.4986 55.6082 31.3689C55.6082 32.2066 54.9381 32.942 53.8893 32.942C52.9168 32.942 52.2097 32.3328 52.2097 31.4995C52.2184 30.5683 52.9212 29.8981 53.9089 29.8981ZM53.9655 32.794C54.6182 32.794 55.0534 32.2675 55.0534 31.4886C55.0534 30.6466 54.5638 30.0504 53.8807 30.0504C53.1975 30.0504 52.7928 30.5617 52.7928 31.3755C52.7732 32.3089 53.3737 32.794 53.959 32.794H53.9655Z" />
<path d="M57.0051 32.2823C57.0051 32.6827 57.0573 32.7567 57.4794 32.7414V32.8676H56.0565V32.7414C56.4459 32.7567 56.4916 32.6478 56.4916 32.341V30.4743C56.4916 30.1718 56.4394 30.0979 56.0565 30.0979V29.9717C56.1631 29.9717 56.4002 29.9542 56.7223 29.9391C56.9681 29.9391 57.1966 29.9391 57.2902 29.9391C58.2301 29.9391 58.5499 30.3481 58.5499 30.7724C58.5499 31.1161 58.3563 31.3685 57.9647 31.5317C58.0865 31.6317 58.2028 31.7385 58.3127 31.8515L58.6151 32.1561C59.0308 32.5695 59.3463 32.7545 59.7335 32.7979V32.9286C58.8153 32.9503 58.5869 32.7871 58.1692 32.3693L57.9233 32.1213C57.7694 31.958 57.6012 31.8087 57.4207 31.6753C57.2824 31.6872 57.1434 31.6872 57.0051 31.6753V32.2823ZM57.0051 31.536C57.0378 31.536 57.1269 31.5513 57.1552 31.5513C57.7732 31.523 57.9864 31.2858 57.9864 30.8093C57.9864 30.3328 57.7361 30.0608 57.2292 30.0608C57.1563 30.0611 57.0835 30.0677 57.0117 30.0804L57.0051 31.536Z" />
<path d="M60.5002 30.4981V32.2866C60.5002 32.6478 60.5458 32.7653 60.9658 32.7414V32.8676H59.8518V32.7414C60.1868 32.7522 60.2434 32.6435 60.2434 32.3411V30.2479C60.1354 30.1521 59.9962 30.0988 59.8518 30.0978V29.9716H60.7047L62.7803 32.1648V30.4981C62.7803 30.15 62.7238 30.0934 62.3191 30.0978V29.9716H63.4462V30.0978C63.1329 30.0978 63.035 30.1543 63.035 30.5091V32.9024H62.7848L60.5002 30.4981Z" />
<path d="M63.6914 32.8676V32.7414C64.0678 32.7414 64.1614 32.6826 64.1614 32.4215V30.4155C64.1614 30.1087 64.0091 30.0978 63.6914 30.0978V29.9716H66.0695L66.1131 30.67H65.9869L65.963 30.5721C65.8694 30.1914 65.7954 30.1827 65.4973 30.1827H64.6793V31.2705H65.3994C65.6692 31.2705 65.7214 31.2379 65.7497 30.9181H65.8737V31.8536H65.7497C65.7171 31.5229 65.6561 31.4794 65.3994 31.4794H64.6793V32.328C64.6793 32.6152 64.7162 32.663 64.9534 32.663H65.469C65.939 32.663 66.0326 32.5978 66.1588 32.1409H66.285L66.2153 32.8719L63.6914 32.8676Z" />
<path d="M67.0577 30.4744C66.8249 30.1393 66.7639 30.1132 66.4746 30.098V29.9718H67.8845V30.098C67.6343 30.098 67.5581 30.1502 67.5581 30.2329C67.5581 30.3155 67.5951 30.3722 67.7169 30.5462L68.3261 31.4165L68.8571 30.5724C68.9332 30.4762 68.986 30.3638 69.0116 30.2437C69.0116 30.1393 68.9223 30.098 68.7135 30.098V29.9718H69.8013V30.098C69.4598 30.135 69.377 30.1959 69.0789 30.6746L68.4502 31.6907V32.3434C68.4502 32.6893 68.5068 32.7481 68.8854 32.7481V32.8743H67.4798V32.7481C67.8345 32.7481 67.928 32.7155 67.928 32.3304V31.7385L67.0577 30.4744Z" />
<path d="M69.9927 32.1043H70.1319C70.1655 32.2918 70.2638 32.4616 70.4098 32.584C70.5557 32.7065 70.7399 32.7739 70.9304 32.7744C71.2698 32.7744 71.507 32.5743 71.507 32.2958C71.507 31.643 70.0405 31.3885 70.0405 30.5791C70.0405 30.1788 70.3952 29.8981 70.8912 29.8981C71.0118 29.8985 71.1321 29.9109 71.2503 29.9351C71.3314 29.956 71.4145 29.9684 71.4983 29.9721C71.5225 29.9743 71.5469 29.9704 71.5693 29.9609C71.5916 29.9515 71.6114 29.9366 71.6267 29.9177H71.7441L71.8464 30.6378H71.7072C71.6575 30.4729 71.5578 30.3274 71.4217 30.2217C71.2856 30.116 71.12 30.0554 70.9478 30.0482C70.6497 30.0482 70.4909 30.2245 70.4909 30.429C70.4909 31.0534 71.9617 31.2383 71.9617 32.137C71.9617 32.6178 71.557 32.942 70.963 32.942C70.7532 32.9298 70.5444 32.9022 70.3386 32.8593C70.3151 32.8572 70.2914 32.8606 70.2695 32.8693C70.2476 32.8779 70.228 32.8917 70.2124 32.9094H70.1014L69.9927 32.1043Z" />
<path d="M73.5154 32.7418C73.8287 32.7418 73.8896 32.6874 74.0202 32.3241L74.8622 30.0156L74.8252 29.8981H75.3452L76.2525 32.3241C76.3874 32.6874 76.4352 32.7418 76.729 32.7418V32.868H75.3452V32.7418C75.7129 32.7418 75.8152 32.7049 75.8152 32.5699C75.8076 32.4848 75.7855 32.4017 75.7499 32.3241L75.5323 31.7475H74.4662L74.2378 32.3654C74.2114 32.4275 74.1959 32.4938 74.1921 32.5612C74.1921 32.6961 74.2834 32.7571 74.6555 32.7418V32.868H73.5197L73.5154 32.7418ZM75.4388 31.5147L74.9927 30.3354L74.5575 31.5147H75.4388Z" />
<path d="M76.7007 29.8936H76.8247C76.8443 29.9262 76.8574 29.9502 76.9009 29.9589C76.9729 29.9698 77.0457 29.9741 77.1185 29.9719H79.0767C79.3139 29.9719 79.3508 29.9719 79.3791 29.8936H79.5053L79.5902 30.6943H79.4552C79.39 30.2113 79.2964 30.183 79.0201 30.183H78.3717V32.374C78.3717 32.6917 78.4218 32.7417 78.9114 32.7417V32.8679H77.3143V32.7417C77.7799 32.7417 77.8539 32.6829 77.8539 32.374V30.183H77.1881C76.914 30.183 76.8204 30.2113 76.753 30.6943H76.618L76.7007 29.8936Z" />
<path d="M80.9751 32.8676V32.7414C81.3472 32.7414 81.4277 32.7087 81.4277 32.3411V30.4981C81.4277 30.1827 81.395 30.0891 80.9751 30.0978V29.9716H82.4982V30.0978C81.9956 30.0978 81.939 30.1174 81.939 30.4655V32.4237C81.939 32.6151 81.976 32.6522 82.1914 32.6522H82.6787C83.0747 32.6522 83.103 32.6326 83.4513 32.1582H83.5906L83.2336 32.861L80.9751 32.8676Z" />
<path d="M83.7091 32.7418C84.0202 32.7418 84.0811 32.6874 84.2121 32.3241L85.0536 30.0156L85.0169 29.8981H85.539L86.4465 32.3241C86.5816 32.6874 86.6266 32.7418 86.9211 32.7418V32.868H85.539V32.7418C85.9069 32.7418 86.0094 32.7049 86.0094 32.5699C86.0003 32.4851 85.9786 32.4021 85.9436 32.3241L85.7259 31.7475H84.6599L84.4206 32.3654C84.3947 32.4275 84.3789 32.4938 84.3747 32.5612C84.3747 32.6961 84.4689 32.7571 84.8409 32.7418V32.868H83.705L83.7091 32.7418ZM85.6308 31.5147L85.1846 30.3354L84.7492 31.5147H85.6308Z" />
<path d="M86.9819 30.4895C86.8185 30.1348 86.7484 30.0978 86.3939 30.0978V29.9716H87.7451V30.0978C87.5057 30.1087 87.4407 30.1348 87.4407 30.2522C87.4698 30.4043 87.5224 30.5509 87.595 30.6875L88.4048 32.4041L88.8944 31.3946L88.459 30.4916C88.2831 30.1152 88.2414 30.0956 87.9328 30.0999V29.9738H90.108V30.0999C89.786 30.0999 89.7401 30.1413 89.5683 30.4916L89.2664 31.0965L89.8928 32.3911L90.6976 30.4677C90.7343 30.4 90.7577 30.3262 90.7677 30.2501C90.7677 30.1478 90.6801 30.1109 90.4282 30.1109V29.9847H91.4333V30.1109C91.1747 30.1109 91.0938 30.1304 90.8936 30.6091L89.912 32.9546H89.6142L89.0053 31.6709L88.389 32.9546H88.1196L86.9819 30.4895ZM89.3923 30.3393C89.4199 30.2914 89.4374 30.2379 89.4424 30.1827C89.4424 30.1217 89.3965 30.0978 89.2422 30.0978H89.0704C88.9069 30.0978 88.8661 30.1174 88.8661 30.1783C88.8736 30.2549 88.8969 30.3291 88.9353 30.3959L89.153 30.831L89.3923 30.3393Z" />
</g>
<defs>
<clipPath id="clip0_102_34">
<rect width="93.7576" height="34" fill="white"/>
</clipPath>
</defs>
</svg>
