<svg width="169" height="39" viewBox="0 0 169 39" fill="none" xmlns="http://www.w3.org/2000/svg">
<g clip-path="url(#clip0_14_254)">
<path d="M143.7 31.17H143.98C144.09 31.42 144.07 31.71 143.72 31.67C143.72 31.57 143.71 31.3 143.7 31.17Z" />
<path d="M10.34 0C10.5419 0.611718 10.6101 1.25965 10.54 1.9C10.54 4.71 10.54 7.52 10.54 10.32C10.54 10.55 10.54 10.77 10.49 11C8.67 11 6.86 11 5.05 11C4.85855 10.9863 4.66615 11.0032 4.48 11.05C3.94 11.63 3.37 12.18 2.83 12.76C5.15 12.82 7.48 12.76 9.83 12.76C9.44243 13.3912 8.98267 13.9752 8.46 14.5C7.17 15.7 5.61 16.71 4.75 18.3C4.56004 19.1866 4.56004 20.1034 4.75 20.99C5.0836 21.7508 5.57434 22.4323 6.19 22.99C7.32 23.99 8.85 24.5 9.91 25.63C10.3794 26.0851 10.7238 26.6533 10.91 27.28C11.18 27.82 11.03 28.45 11.18 29.03C11.2657 29.2181 11.3068 29.4234 11.3 29.63C11.36 31.54 11.3 33.46 11.3 35.38C11.3 36.49 11.3 37.6 11.3 38.7L10.87 38.6C10.87 37.44 10.87 36.28 10.79 35.12C10.7278 34.7026 10.6308 34.2912 10.5 33.89C10.1856 33.2914 9.73981 32.7718 9.19601 32.37C8.65221 31.9682 8.02453 31.6947 7.36 31.57C6.03717 31.3012 4.75133 30.8749 3.53 30.3C2.88482 29.932 2.32837 29.4268 1.9 28.82C1.2481 27.9658 0.735121 27.0141 0.38 26C0.215074 25.6167 0.120239 25.2068 0.1 24.79C0.11 24 0 23.16 0 22.35C0 20.66 0.05 18.96 0.09 17.27C0.0193227 16.3447 0.0901363 15.414 0.3 14.51C0.283147 15.2804 0.363786 16.0498 0.54 16.8C0.699402 17.6578 0.930205 18.5007 1.23 19.32C1.70469 20.8742 2.63479 22.2502 3.9 23.27C4.44166 23.6416 5.0258 23.9471 5.64 24.18C6.39131 24.4082 7.12084 24.7027 7.82 25.06C8.53663 25.4007 9.17631 25.8839 9.7 26.48C9.92 26.77 10.18 27.04 10.43 27.31C10.2238 26.7129 9.88144 26.1719 9.43 25.73C8.09 24.73 6.43 24.12 5.08 23.19C3.3794 21.9016 2.22624 20.0201 1.85 17.92C1.70003 16.3469 1.70003 14.7631 1.85 13.19C2.33691 11.523 3.19504 9.98795 4.36 8.7C5.28 7.7 6.36 6.89 7.36 5.94C8.471 4.87539 9.33762 3.58228 9.9 2.15C10.1447 1.45695 10.2928 0.733476 10.34 0V0Z" />
<path d="M12.4101 2.32001C12.3601 1.86001 12.8901 1.67001 13.1701 1.39001C13.1701 4.74001 13.1701 8.09001 13.1701 11.39C15.9101 11.39 18.6501 11.39 21.3801 11.39C21.1815 11.655 20.9607 11.9026 20.7201 12.13H13.1501C13.1501 19.87 13.1501 27.61 13.1501 35.34C13.2101 35.8 12.6801 35.98 12.4201 36.27C12.4201 28.27 12.4201 20.18 12.4201 12.13C9.68005 12.13 6.93005 12.13 4.18005 12.13C4.48005 11.88 4.67005 11.38 5.18005 11.41H12.4701L12.4101 2.32001Z" />
<path d="M79.85 11.07C80.35 11.07 80.85 11.07 81.37 11.07C81.2329 11.2805 81.1473 11.5203 81.12 11.77C80 15.52 78.9 19.25 77.76 23C77.27 23 76.76 23 76.27 23C76.405 22.322 76.5854 21.6538 76.81 21C77.77 17.8067 78.7267 14.61 79.68 11.41C79.7271 11.2921 79.784 11.1784 79.85 11.07V11.07Z" />
<path d="M26.8199 11.27H28.6899C28.6899 12.79 28.6899 14.27 28.6899 15.83C29.4265 15.9184 30.1693 15.9418 30.9099 15.9C30.9099 14.35 30.9099 12.81 30.9099 11.27H32.7799V22.73H30.8999C30.8999 21.04 30.8999 19.36 30.8999 17.67C30.1606 17.625 29.4193 17.625 28.6799 17.67C28.6799 19.35 28.6799 21.03 28.6799 22.67H26.8199V11.27Z" />
<path d="M35 11.27H36.64C36.64 11.78 36.64 12.27 36.64 12.82H35V11.27Z" />
<path d="M66.55 11.27H68.19V12.82H66.55V11.27Z" />
<path d="M82.09 11.27H84V21C85.07 21 86.14 21 87.21 21C87.21 21.56 87.21 22.12 87.21 22.67C85.51 22.78 83.81 22.67 82.11 22.72L82.09 11.27Z" />
<path d="M100.44 11.27H102.08C102.08 11.78 102.08 12.27 102.08 12.82H100.44V11.27Z" />
<path d="M121.94 11.27C122.844 11.2333 123.749 11.2567 124.65 11.34C124.65 12.11 124.97 12.81 125.02 13.56C125.152 14.0051 125.249 14.4598 125.31 14.92C125.54 15.35 125.41 15.92 125.62 16.32C125.699 16.5201 125.733 16.7352 125.72 16.95C125.72 17.25 125.72 17.56 125.72 17.87H126.17V16.95C126.155 16.7202 126.196 16.4903 126.29 16.28C126.46 15.91 126.37 15.48 126.51 15.1C126.65 14.72 126.62 14.1 126.86 13.6C126.92 12.83 127.24 12.12 127.24 11.35C128.141 11.2667 129.046 11.2433 129.95 11.28C129.95 15.1 129.95 18.91 129.95 22.72C129.37 22.72 128.78 22.72 128.19 22.72V16.12C128.227 15.4173 128.183 14.7128 128.06 14.02C128.014 14.6205 127.917 15.2159 127.77 15.8C127.719 16.211 127.642 16.6184 127.54 17.02C127.38 17.4 127.47 17.83 127.32 18.21C127.208 18.5922 127.131 18.9838 127.09 19.38C126.85 19.9 126.97 20.49 126.72 21C126.65 21.5802 126.539 22.1549 126.39 22.72H125.39C125.373 22.4147 125.319 22.1126 125.23 21.82C125.07 21.41 125.14 20.95 124.98 20.54C124.82 20.13 124.89 19.68 124.72 19.27C124.55 18.86 124.63 18.41 124.47 18C124.31 17.59 124.37 17.14 124.21 16.73C124.05 16.32 124.12 15.84 123.97 15.41C123.84 14.8708 123.749 14.3226 123.7 13.77C123.577 14.3784 123.533 15.0003 123.57 15.62V22.73C122.98 22.73 122.39 22.73 121.81 22.73C122 18.9 121.93 15.09 121.94 11.27Z" />
<path d="M132 11.27H133.64C133.64 11.78 133.64 12.27 133.64 12.82H132V11.27Z" />
<path d="M143 11.27H144.64V12.82H143C143 12.3 143 11.78 143 11.27Z" />
<path d="M96.11 11.84C96.7 11.84 97.29 11.84 97.89 11.84C97.89 12.6 97.89 13.35 97.89 14.11H99V15.6H97.88C97.88 17.46 97.81 19.34 97.94 21.2C98.2715 21.2431 98.6059 21.2598 98.94 21.25C99.0264 21.7552 99.0465 22.2696 99 22.78C98.1772 22.9549 97.3194 22.842 96.57 22.46C96.4028 22.3007 96.2745 22.1052 96.1947 21.8885C96.115 21.6718 96.086 21.4397 96.11 21.21C96.11 19.36 96.11 17.51 96.11 15.66C95.7778 15.6248 95.444 15.6081 95.11 15.61C95.11 15.12 95.11 14.61 95.11 14.13C95.4453 14.1409 95.7807 14.114 96.11 14.05C96.09 13.31 96.11 12.57 96.11 11.84Z" />
<path d="M153.19 11.84C153.78 11.84 154.37 11.84 154.97 11.84C154.97 12.6 154.97 13.35 154.97 14.11H156.09V15.6H155C155 17.46 154.93 19.34 155.06 21.2C155.392 21.2429 155.726 21.2596 156.06 21.25C156.146 21.7484 156.173 22.2553 156.14 22.76C155.286 22.9491 154.393 22.8174 153.63 22.39C153.373 22.0937 153.238 21.7117 153.25 21.32C153.25 19.42 153.25 17.53 153.25 15.64C152.918 15.6048 152.584 15.5881 152.25 15.59V14.13C152.585 14.1409 152.921 14.114 153.25 14.05C153.18 13.31 153.19 12.57 153.19 11.84Z" />
<path d="M35 14.13H36.77C36.77 16.98 36.77 19.83 36.77 22.68C36.1737 22.7099 35.5763 22.7099 34.98 22.68C35 19.86 34.94 17 35 14.13Z" />
<path d="M38.26 16.12C38.2666 15.8262 38.3342 15.537 38.4584 15.2707C38.5827 15.0045 38.761 14.7669 38.982 14.5732C39.203 14.3795 39.4618 14.2339 39.7421 14.1455C40.0223 14.0572 40.3179 14.028 40.61 14.06C40.9221 14.039 41.2351 14.0834 41.5291 14.1902C41.8231 14.2971 42.0916 14.464 42.3175 14.6805C42.5433 14.8969 42.7215 15.158 42.8408 15.4472C42.96 15.7364 43.0177 16.0473 43.01 16.36C42.57 16.36 42.14 16.42 41.7 16.47C41.5905 16.1809 41.4601 15.9002 41.31 15.63C40.9 15.58 40.31 15.39 40.03 15.8C39.9438 15.8986 39.8884 16.0203 39.8706 16.15C39.8529 16.2798 39.8735 16.4119 39.93 16.53C40.5032 17.1591 41.1476 17.7195 41.85 18.2C42.2567 18.4773 42.5889 18.8503 42.8174 19.2863C43.0458 19.7223 43.1635 20.2078 43.16 20.7C43.1628 21.0939 43.0616 21.4816 42.8668 21.824C42.6719 22.1664 42.3902 22.4513 42.05 22.65C41.5684 22.8822 41.0354 22.9875 40.5016 22.956C39.9679 22.9245 39.451 22.7572 39 22.47C38.6889 22.2377 38.4365 21.9358 38.2629 21.5886C38.0892 21.2413 37.9992 20.8582 38 20.47C38.54 20.47 39 20.1 39.55 20.2C39.5447 20.3736 39.5747 20.5464 39.6383 20.708C39.702 20.8696 39.7978 21.0166 39.92 21.14C40.0137 21.2431 40.128 21.3255 40.2554 21.3819C40.3828 21.4383 40.5207 21.4674 40.66 21.4674C40.7994 21.4674 40.9372 21.4383 41.0646 21.3819C41.192 21.3255 41.3063 21.2431 41.4 21.14C41.45 20.832 41.45 20.518 41.4 20.21C40.67 19.15 39.31 18.72 38.64 17.6C38.3283 17.1736 38.1923 16.6438 38.26 16.12V16.12Z" />
<path d="M44.89 14.12H46.5C46.5 14.39 46.5 14.66 46.5 14.93C46.8561 14.6278 47.2375 14.3568 47.64 14.12C47.9769 13.9985 48.3402 13.9697 48.692 14.0365C49.0438 14.1033 49.3712 14.2634 49.64 14.5C50.1 14.87 50.09 15.5 50.27 16.02C50.27 17.67 50.27 19.31 50.27 20.96C50.1998 21.4712 50.0227 21.9619 49.75 22.4C49.5018 22.6534 49.1836 22.8268 48.8362 22.8981C48.4887 22.9693 48.1279 22.9352 47.8 22.8C47.3441 22.589 46.9172 22.3201 46.53 22V25.47H44.89C44.8833 21.6967 44.8833 17.9133 44.89 14.12ZM46.78 15.69C46.6573 16.1151 46.6166 16.5597 46.66 17C46.66 18.3 46.66 19.61 46.66 20.92C46.82 21.43 47.5 21.47 47.96 21.43C48.49 20.95 48.28 20.17 48.33 19.54C48.3869 18.2286 48.3435 16.9148 48.2 15.61C47.728 15.5098 47.2378 15.5374 46.78 15.69V15.69Z" />
<path d="M53.47 14.32C54.1207 14.0486 54.8354 13.9688 55.53 14.09C56.0212 14.1393 56.4855 14.3382 56.86 14.66C57.2468 15.0933 57.4511 15.6595 57.43 16.24V21.72C57.43 22.06 57.43 22.39 57.5 22.72H55.88C55.88 22.54 55.88 22.36 55.88 22.19C55.39 22.27 55.05 22.74 54.54 22.77C53.9269 22.8655 53.3008 22.8349 52.7 22.68C52.5165 22.5065 52.3429 22.3229 52.18 22.13C52.0362 21.6677 51.9753 21.1835 52 20.7C51.9726 20.2436 52.0767 19.789 52.3 19.39C53.1543 18.2956 54.3289 17.495 55.66 17.1C55.757 16.5819 55.6456 16.0464 55.35 15.61C54.9 15.61 54.26 15.39 53.99 15.88C53.8815 16.1259 53.8237 16.3912 53.82 16.66H52C51.9917 16.1694 52.1263 15.687 52.3873 15.2716C52.6483 14.8561 53.0244 14.5255 53.47 14.32V14.32ZM53.88 19.86C53.71 20.3627 53.71 20.9073 53.88 21.41L54.35 21.46C54.89 21.55 55.35 21.09 55.6 20.68C55.65 19.9141 55.65 19.1458 55.6 18.38C54.9415 18.7648 54.3587 19.2663 53.88 19.86V19.86Z" />
<path d="M59.41 14.12H61C61 14.38 61 14.65 61 14.92C61.45 14.7 61.8 14.31 62.27 14.12C62.7466 14.04 63.2333 14.04 63.71 14.12C63.9599 14.2511 64.1694 14.448 64.3156 14.6895C64.4619 14.9309 64.5395 15.2077 64.54 15.49C64.54 17.91 64.54 20.33 64.54 22.74C63.94 22.74 63.34 22.74 62.75 22.74C62.75 20.93 62.75 19.11 62.75 17.3C62.7699 16.7459 62.7499 16.1912 62.69 15.64C62.4192 15.5618 62.133 15.5538 61.8584 15.6168C61.5837 15.6798 61.3296 15.8117 61.12 16C61.12 18.24 61.12 20.48 61.12 22.72C60.5237 22.75 59.9262 22.75 59.33 22.72L59.41 14.12Z" />
<path d="M66.55 14.13C67.14 14.13 67.73 14.13 68.32 14.13C68.32 16.98 68.32 19.82 68.32 22.67C67.7272 22.705 67.1329 22.705 66.54 22.67C66.55 19.86 66.54 17 66.55 14.13Z" />
<path d="M71.22 14.51C72.0195 14.042 72.9694 13.9022 73.87 14.12C74.346 14.2442 74.7693 14.5185 75.0773 14.9021C75.3853 15.2858 75.5615 15.7584 75.58 16.25C75.58 16.55 75.58 16.84 75.58 17.14H74C74.043 16.8628 74.0192 16.5793 73.9305 16.3131C73.8418 16.047 73.6907 15.8059 73.4899 15.61C73.1097 15.4877 72.6966 15.5201 72.3399 15.7C72.1345 15.9183 72.0109 16.2009 71.9899 16.5C71.9899 17.86 71.9899 19.22 71.9899 20.57C71.9899 20.96 72.34 21.16 72.54 21.44C72.91 21.44 73.39 21.57 73.62 21.2C73.9568 20.6867 74.0921 20.067 74 19.46H75.7699C75.7938 20.1134 75.7059 20.7662 75.51 21.39C75.2593 21.9594 74.817 22.4229 74.26 22.7C73.3988 22.8751 72.5111 22.8751 71.65 22.7C71.1705 22.4284 70.779 22.0249 70.522 21.5374C70.265 21.05 70.1532 20.4991 70.1999 19.95C70.1999 18.73 70.1999 17.51 70.1999 16.3C70.2981 15.5947 70.6632 14.954 71.22 14.51V14.51Z" />
<path d="M89.6601 14.32C90.2922 14.0584 90.985 13.9787 91.6601 14.09C92.1523 14.1354 92.6177 14.3348 92.99 14.66C93.3752 15.095 93.5823 15.6591 93.57 16.24C93.57 18.07 93.57 19.89 93.57 21.72C93.5705 22.0542 93.5905 22.3881 93.63 22.72H92.06V22.19C91.56 22.27 91.2301 22.74 90.7201 22.77C90.107 22.8655 89.4809 22.8349 88.88 22.68C88.6933 22.5066 88.5164 22.323 88.35 22.13C88.2186 21.662 88.1712 21.1745 88.21 20.69C88.1782 20.2377 88.2789 19.7859 88.5 19.39C89.3548 18.2938 90.5289 17.4901 91.8601 17.09C91.9516 16.5733 91.8444 16.041 91.56 15.6C91.11 15.6 90.46 15.38 90.2 15.87C90.0873 16.1145 90.0293 16.3807 90.03 16.65H88.2201C88.2098 16.1641 88.3404 15.6857 88.5958 15.2723C88.8513 14.8589 89.2209 14.5282 89.6601 14.32V14.32ZM90.49 19.32C90.2591 19.5047 90.0778 19.7441 89.9626 20.0164C89.8474 20.2888 89.8018 20.5856 89.8301 20.88C89.9701 21.11 90.1201 21.42 90.4401 21.41C90.7212 21.4384 91.0044 21.3798 91.2512 21.2421C91.498 21.1044 91.6966 20.8942 91.82 20.64C91.8701 19.8741 91.8701 19.1058 91.82 18.34C91.359 18.6562 90.915 18.9967 90.49 19.36V19.32Z" />
<path d="M100.44 14.13C101.03 14.13 101.62 14.13 102.22 14.13C102.22 16.98 102.22 19.82 102.22 22.67C101.627 22.705 101.033 22.705 100.44 22.67C100.44 19.86 100.43 17 100.44 14.13Z" />
<path d="M104 14.12H105.61C105.61 14.38 105.61 14.65 105.61 14.92C106.06 14.7 106.42 14.31 106.89 14.12C107.367 14.04 107.853 14.04 108.33 14.12C108.579 14.2528 108.787 14.4501 108.933 14.6912C109.079 14.9322 109.157 15.2082 109.16 15.49C109.16 17.91 109.16 20.33 109.16 22.74C108.57 22.74 107.97 22.74 107.37 22.74C107.37 20.93 107.37 19.11 107.37 17.3C107.395 16.746 107.375 16.1908 107.31 15.64C107.041 15.5617 106.756 15.5537 106.483 15.6167C106.21 15.6797 105.958 15.8117 105.75 16C105.75 18.24 105.75 20.48 105.75 22.72C105.157 22.75 104.563 22.75 103.97 22.72C104 19.86 104 17 104 14.12Z" />
<path d="M112.56 14.19C113.072 14.0601 113.604 14.0195 114.13 14.07C114.603 14.0856 115.061 14.2438 115.443 14.524C115.825 14.8041 116.113 15.1931 116.27 15.64C116.39 16.6017 116.43 17.5717 116.39 18.54C116.433 19.4956 116.387 20.4532 116.25 21.4C115.999 21.9694 115.557 22.433 115 22.71C114.174 22.865 113.326 22.865 112.5 22.71C112.087 22.5183 111.731 22.2217 111.468 21.8498C111.204 21.4779 111.043 21.0436 111 20.59C110.93 19.78 111 18.97 111 18.16C110.953 17.4941 110.953 16.8259 111 16.16C111.107 15.7803 111.251 15.412 111.43 15.06C111.712 14.6644 112.105 14.3615 112.56 14.19V14.19ZM112.78 16.19C112.735 17.0594 112.735 17.9306 112.78 18.8C112.743 19.4907 112.767 20.1833 112.85 20.87C113.01 21.08 113.19 21.26 113.36 21.45C113.648 21.4948 113.942 21.4948 114.23 21.45C114.409 21.3046 114.552 21.1197 114.647 20.9097C114.743 20.6998 114.788 20.4705 114.78 20.24C114.78 19.05 114.78 17.86 114.78 16.66C114.78 16.26 114.5 15.95 114.3 15.66C113.969 15.5987 113.63 15.5987 113.3 15.66C113 15.69 112.91 16 112.78 16.18V16.19Z" />
<path d="M132 14.13C132.59 14.13 133.18 14.13 133.78 14.13C133.78 16.98 133.78 19.82 133.78 22.67C133.187 22.705 132.593 22.705 132 22.67C132 19.86 132 17 132 14.13Z" />
<path d="M135.86 14.12H137.47C137.47 14.38 137.47 14.65 137.47 14.91C138.03 14.67 138.47 14.09 139.07 14.07C139.54 14.07 140.14 13.93 140.5 14.33C140.668 14.4701 140.802 14.6463 140.892 14.8455C140.982 15.0446 141.026 15.2615 141.02 15.48C141.02 17.89 141.02 20.31 141.02 22.72C140.42 22.72 139.82 22.72 139.23 22.72C139.23 20.91 139.23 19.09 139.23 17.28C139.25 16.7259 139.23 16.1712 139.17 15.62C138.899 15.5418 138.613 15.5338 138.338 15.5968C138.064 15.6598 137.81 15.7917 137.6 15.98C137.6 18.22 137.6 20.46 137.6 22.7C137.007 22.735 136.413 22.735 135.82 22.7L135.86 14.12Z" />
<path d="M143 14.13C143.59 14.13 144.18 14.13 144.77 14.13C144.77 16.98 144.77 19.82 144.77 22.67C144.177 22.705 143.583 22.705 142.99 22.67C143 19.86 143 17 143 14.13Z" />
<path d="M146.84 15.08C147.137 14.6669 147.554 14.3557 148.035 14.1887C148.516 14.0218 149.036 14.0074 149.525 14.1475C150.014 14.2876 150.448 14.5753 150.768 14.9713C151.087 15.3673 151.277 15.8523 151.31 16.36C150.87 16.36 150.44 16.42 150.01 16.47C149.894 16.1835 149.764 15.9032 149.62 15.63C149.2 15.58 148.62 15.39 148.33 15.8C148.246 15.8998 148.192 16.0213 148.174 16.1505C148.157 16.2797 148.176 16.4113 148.23 16.53C148.94 17.53 150.13 17.95 150.85 18.9C151.076 19.1664 151.246 19.4752 151.351 19.8084C151.456 20.1415 151.493 20.4923 151.46 20.84C151.437 21.2095 151.324 21.5678 151.131 21.8835C150.937 22.1991 150.669 22.4623 150.35 22.65C149.866 22.8858 149.329 22.9931 148.791 22.9615C148.254 22.93 147.733 22.7607 147.28 22.47C146.967 22.2399 146.712 21.9385 146.539 21.5907C146.365 21.243 146.276 20.8588 146.28 20.47C146.82 20.47 147.28 20.09 147.82 20.2C147.814 20.3745 147.845 20.5483 147.91 20.7102C147.976 20.8722 148.075 21.0185 148.2 21.14C148.294 21.2415 148.407 21.3225 148.534 21.3779C148.66 21.4333 148.797 21.4619 148.935 21.4619C149.073 21.4619 149.21 21.4333 149.336 21.3779C149.463 21.3225 149.576 21.2415 149.67 21.14C149.725 20.8324 149.725 20.5175 149.67 20.21C149.03 19.27 147.89 18.85 147.18 17.97C146.844 17.6459 146.631 17.2142 146.58 16.75C146.481 16.1799 146.573 15.5931 146.84 15.08Z" />
<path d="M157.52 14.12H159.13C159.13 14.45 159.13 14.79 159.13 15.12C159.32 14.8261 159.573 14.5778 159.87 14.3929C160.168 14.2079 160.502 14.0908 160.85 14.05C161.09 14.05 161.34 14.05 161.58 14.05C161.58 14.65 161.58 15.25 161.58 15.85C160.974 15.7548 160.356 15.7548 159.75 15.85C159.583 15.9173 159.443 16.0384 159.352 16.1942C159.262 16.3499 159.226 16.5314 159.25 16.71C159.25 18.71 159.25 20.71 159.25 22.64C158.655 22.6915 158.057 22.7082 157.46 22.69L157.52 14.12Z" />
<path d="M162.37 14.13H164.15C164.22 14.8 164.48 15.43 164.52 16.13C164.657 16.5739 164.754 17.029 164.81 17.49C165.03 17.92 164.92 18.44 165.13 18.88C165.225 19.1588 165.305 19.4426 165.37 19.73C165.4 19.2046 165.49 18.6845 165.64 18.18C165.69 17.7899 165.76 17.4027 165.85 17.02C166.02 16.59 165.94 16.12 166.09 15.69C166.237 15.1999 166.314 14.6916 166.32 14.18C166.91 14.18 167.51 14.18 168.11 14.18C168 15.59 167.46 16.91 167.22 18.29C166.98 19.67 166.64 20.79 166.27 22.02C166.27 22.49 165.99 22.91 165.97 23.38C165.92 23.7784 165.774 24.1589 165.546 24.4895C165.318 24.8201 165.014 25.0912 164.66 25.28C164.032 25.456 163.381 25.5336 162.73 25.51C162.73 25.02 162.73 24.51 162.73 24.03C163.231 24.07 163.733 23.9585 164.17 23.71C164.422 22.7162 164.363 21.6689 164 20.71C163.66 19.15 163.19 17.63 162.86 16.08C162.627 15.4496 162.462 14.7958 162.37 14.13V14.13Z" />
<path d="M26.62 29.61C27.7133 29.61 28.8033 29.61 29.89 29.61C29.89 29.78 29.89 29.95 29.89 30.13H28.61C28.61 31.98 28.61 33.82 28.61 35.67H27.9C27.9 33.82 27.9 31.98 27.9 30.13H26.63C26.63 30 26.62 29.78 26.62 29.61Z" />
<path d="M30.6199 29.59H31.1799C31.1799 30.29 31.1799 31 31.1799 31.7C31.365 31.5125 31.6009 31.3832 31.8586 31.3281C32.1162 31.273 32.3844 31.2945 32.6299 31.39C32.7387 31.4515 32.8298 31.5399 32.8945 31.6467C32.9593 31.7535 32.9956 31.8752 32.9999 32C32.9999 33.23 32.9999 34.46 32.9999 35.69H32.4199C32.4199 34.55 32.4199 33.42 32.4199 32.28C32.4224 32.2067 32.4077 32.1339 32.3769 32.0674C32.3462 32.0008 32.3004 31.9424 32.2431 31.8967C32.1857 31.8511 32.1185 31.8194 32.0468 31.8044C31.9751 31.7893 31.9008 31.7912 31.8299 31.81C31.5599 31.81 31.3899 32.04 31.1999 32.19C31.1999 33.36 31.1999 34.52 31.1999 35.69H30.6399C30.6133 33.65 30.6066 31.6167 30.6199 29.59Z" />
<path d="M39.5601 29.59H40.5601C40.8601 30.21 41.0501 30.88 41.3101 31.52C41.5344 32.078 41.7247 32.649 41.8801 33.23C41.9651 33.5251 42.1078 33.8005 42.3001 34.04C42.4018 32.559 42.4285 31.0737 42.3801 29.59H42.9001C42.9001 31.59 42.9001 33.6233 42.9001 35.69H42.1801C41.4701 33.98 40.9001 32.23 40.1801 30.53C40.0601 32.24 40.1801 33.97 40.1801 35.69H39.6001L39.5601 29.59Z" />
<path d="M50.53 29.6H51.07C51.07 29.82 51.07 30.03 51.07 30.25L50.63 30.08C50.57 29.91 50.55 29.75 50.53 29.6Z" />
<path d="M63.49 29.59H64.06V35.69H63.49V29.59Z" />
<path d="M67.34 29.59C67.95 29.59 68.56 29.59 69.17 29.59C69.5423 29.6622 69.8755 29.8674 70.1074 30.1674C70.3393 30.4674 70.454 30.8416 70.43 31.22C70.4462 31.5581 70.3591 31.8931 70.1806 32.1806C70.002 32.4681 69.7402 32.6946 69.43 32.83C68.9136 32.9052 68.3917 32.9353 67.87 32.92C67.87 33.83 67.87 34.75 67.87 35.67H67.3L67.34 29.59ZM67.92 30.14C67.92 30.88 67.92 31.62 67.92 32.36C68.5114 32.4881 69.1293 32.3881 69.65 32.08C69.7949 31.5429 69.7949 30.9771 69.65 30.44C69.43 30.36 69.22 30.25 69.01 30.16C68.648 30.1209 68.2832 30.1142 67.92 30.14V30.14Z" />
<path d="M71.39 29.59H72C72 31.59 72 33.65 72 35.69H71.43L71.39 29.59Z" />
<path d="M83.64 29.58H84.64C84.64 29.74 84.64 29.9 84.59 30.06L84.23 29.84C84.05 29.84 83.85 29.84 83.77 30.05C83.6165 30.4512 83.5716 30.8859 83.64 31.31H84.4C84.4 31.36 84.4 31.46 84.4 31.51C84.1699 31.5902 83.9459 31.6871 83.73 31.8C83.6502 32.127 83.6165 32.4636 83.63 32.8C83.63 33.73 83.63 34.66 83.63 35.6H83.37C83.37 34.66 83.37 33.73 83.37 32.8C83.3821 32.4642 83.3519 32.1282 83.28 31.8C83.0597 31.6889 82.8326 31.5921 82.6 31.51C82.605 31.4434 82.605 31.3766 82.6 31.31H83.1H83.32C83.32 30.81 83.32 30.31 83.37 29.81C83.63 29.86 83.7 29.78 83.64 29.58Z" />
<path d="M93.14 29.6H93.84C93.84 30.45 93.84 31.3 93.84 32.15H95.66C95.66 31.3 95.66 30.44 95.66 29.58H96.23C96.23 31.58 96.23 33.6133 96.23 35.68H95.66C95.66 34.68 95.66 33.77 95.66 32.82H93.84C93.84 33.76 93.84 34.71 93.84 35.66H93.14C93.1533 33.6467 93.1533 31.6267 93.14 29.6Z" />
<path d="M97.67 29.6H98.22C98.22 29.82 98.22 30.03 98.16 30.25L97.73 30.08L97.67 29.6Z" />
<path d="M114.49 29.6H115.04L114.98 30.25L114.55 30.08L114.49 29.6Z" />
<path d="M132.08 29.6H132.62C132.62 29.82 132.62 30.03 132.56 30.25L132.13 30.08C132.11 29.91 132.09 29.75 132.08 29.6Z" />
<path d="M143 29.59H144C144.031 29.8751 144.102 30.1545 144.21 30.42C144.264 30.7912 144.355 31.1563 144.48 31.51C144.645 32.2015 144.765 32.903 144.84 33.61C144.954 33.8411 145.088 34.062 145.24 34.27C145.24 34.06 145.24 33.84 145.24 33.63C145.18 33.1 145.51 32.63 145.52 32.13C145.52 31.8 145.71 31.53 145.75 31.21C145.883 30.6829 145.987 30.1487 146.06 29.61C146.41 29.61 146.75 29.61 147.06 29.61V35.71H146.49V32.71C146.537 31.9309 146.493 31.149 146.36 30.38C146.324 30.9218 146.216 31.4564 146.04 31.97C146.04 32.58 145.75 33.13 145.7 33.73C145.48 34.4 145.41 35.09 145.18 35.73H144.74C144.729 35.3888 144.665 35.0514 144.55 34.73C144.33 33.92 144.21 33.1 143.96 32.3C143.96 32.22 143.96 32.06 143.96 31.98L143.62 31.75C143.51 33.05 143.62 34.35 143.57 35.65C143.336 35.6987 143.099 35.7321 142.86 35.75L143 29.59ZM143.68 31.16C143.68 31.3 143.68 31.57 143.68 31.7C144.03 31.7 144.05 31.45 143.94 31.2L143.68 31.16Z" />
<path d="M148.64 29.6H149.18C149.18 29.82 149.18 30.03 149.13 30.25L148.69 30.08C148.67 29.91 148.66 29.75 148.64 29.6Z" />
<path d="M154.5 29.6H155.04C155.04 29.82 155.04 30.03 155.04 30.25L154.61 30.08C154.53 29.91 154.52 29.75 154.5 29.6Z" />
<path d="M48.0601 29.89L48.76 29.83C48.76 30.33 48.76 30.83 48.76 31.34H49.5401C49.5401 31.51 49.5401 31.68 49.5401 31.85H48.75C48.75 32.97 48.75 34.09 48.75 35.21H49.44C49.44 35.37 49.5101 35.52 49.5401 35.68C49.208 35.7218 48.8721 35.7218 48.5401 35.68C48.2301 35.56 48.2001 35.17 48.0801 34.91C48.0801 33.91 48.0801 32.91 48.0801 31.91H47.55C47.55 31.7633 47.55 31.6233 47.55 31.49L48.1101 31.39C48.0701 30.84 48.0801 30.36 48.0601 29.89Z" />
<path d="M129.6 29.89C129.84 29.89 130.07 29.84 130.31 29.83C130.31 30.33 130.31 30.83 130.31 31.34H131.09C131.09 31.51 131.09 31.68 131.09 31.85H130.3C130.3 32.97 130.3 34.09 130.3 35.21C130.53 35.21 130.76 35.21 131 35.21C131 35.37 131.06 35.52 131.1 35.68C130.7 35.68 130.23 35.8 129.88 35.55C129.769 35.3331 129.672 35.1093 129.59 34.88C129.59 33.88 129.59 32.88 129.59 31.88H129.07V31.46L129.62 31.36C129.61 30.84 129.62 30.36 129.6 29.89Z" />
<path d="M159.67 29.89C159.91 29.89 160.14 29.84 160.38 29.83C160.38 30.33 160.38 30.83 160.38 31.34H161.16C161.16 31.51 161.16 31.68 161.16 31.85H160.37C160.37 32.97 160.37 34.09 160.37 35.21C160.6 35.21 160.83 35.21 161.07 35.21C161.07 35.37 161.13 35.52 161.17 35.68C160.838 35.7218 160.502 35.7218 160.17 35.68C159.86 35.56 159.83 35.17 159.7 34.91C159.7 33.91 159.7 32.91 159.7 31.91H159.18V31.48L159.73 31.39C159.68 30.84 159.69 30.36 159.67 29.89Z" />
<path d="M34.49 31.61C34.75 31.25 35.25 31.3 35.64 31.31C36.03 31.32 36.43 31.79 36.64 32.19C36.64 32.62 36.64 33.06 36.64 33.49H34.82C34.7126 33.769 34.673 34.0694 34.7042 34.3667C34.7355 34.6639 34.8369 34.9495 35 35.2C35.3 35.2 35.6 35.2 35.9 35.15C36.01 34.9 36.13 34.65 36.25 34.41C36.4277 34.4196 36.6046 34.4396 36.78 34.47C36.7165 34.6859 36.6363 34.8966 36.54 35.1C36.4504 35.2129 36.3499 35.3168 36.24 35.41C36.0396 35.5755 35.7988 35.6849 35.5424 35.7271C35.2859 35.7692 35.0228 35.7427 34.78 35.65C34.52 35.42 34.2 35.17 34.18 34.79C34.1017 34.1264 34.0816 33.4571 34.12 32.79C34.0888 32.3639 34.2211 31.942 34.49 31.61V31.61ZM35.03 31.83C34.7651 32.2008 34.6508 32.6582 34.71 33.11H36.07C36.07 32.71 36.01 32.32 35.97 31.92C35.6568 31.8208 35.326 31.7901 35 31.83H35.03Z" />
<path d="M44.5 31.4C44.9697 31.2847 45.4603 31.2847 45.93 31.4C46.073 31.5021 46.1944 31.6316 46.2871 31.7809C46.3798 31.9303 46.4419 32.0965 46.47 32.27C46.47 32.99 46.47 33.71 46.47 34.44C46.4348 34.8489 46.4652 35.2607 46.56 35.66L46.08 35.73C45.97 35.58 45.83 35.4 45.62 35.49C45.3788 35.665 45.083 35.748 44.786 35.7242C44.4889 35.7004 44.2102 35.5712 44 35.36C43.8727 34.9156 43.8727 34.4444 44 34C44.4466 33.4443 45.066 33.0536 45.76 32.89C45.91 32.59 45.76 32.23 45.76 31.89C45.4293 31.8302 45.0906 31.8302 44.76 31.89C44.64 32.14 44.49 32.38 44.38 32.65C44.2368 32.6401 44.0932 32.6401 43.95 32.65C43.9243 32.4117 43.9616 32.1709 44.0581 31.9516C44.1546 31.7322 44.307 31.542 44.5 31.4ZM44.5 34.24C44.45 34.5312 44.45 34.8288 44.5 35.12C44.7098 35.2092 44.9406 35.2369 45.1655 35.1997C45.3904 35.1625 45.6001 35.062 45.77 34.91C45.77 34.39 45.77 33.91 45.77 33.35C45.2498 33.488 44.7937 33.8027 44.48 34.24H44.5Z" />
<path d="M50.49 31.33H51.06V35.69H50.49V31.33Z" />
<path d="M52.71 31.47C53.0712 31.2986 53.4784 31.2494 53.87 31.33C54.23 31.33 54.42 31.66 54.6 31.92C54.735 32.8753 54.735 33.8448 54.6 34.8C54.6 35.17 54.27 35.41 54.02 35.66C53.6894 35.7198 53.3507 35.7198 53.02 35.66C52.67 35.66 52.51 35.29 52.3 35.07C52.1203 34.1307 52.0899 33.1688 52.21 32.22C52.2729 31.9145 52.4522 31.6455 52.71 31.47V31.47ZM52.91 31.95C52.7902 32.8081 52.7701 33.6773 52.85 34.54C52.8883 34.7795 52.9844 35.0061 53.13 35.2H53.83C54.0058 34.9797 54.1104 34.7112 54.13 34.43C54.1835 33.6801 54.1667 32.9268 54.08 32.18C53.92 31.66 53.3 31.78 52.91 32V31.95Z" />
<path d="M55.85 31.31H56.13C56.23 31.57 56.34 31.83 56.42 32.1C56.42 33.29 56.42 34.48 56.42 35.67H55.85C55.84 34.23 55.84 32.77 55.85 31.31Z" />
<path d="M56.84 31.33C57.32 31.33 58.01 31.21 58.18 31.79C58.29 33.08 58.18 34.39 58.18 35.69H57.6C57.6 34.55 57.6 33.42 57.6 32.29C57.6 32.1 57.49 31.96 57.37 31.83C57.2022 31.6542 57.0253 31.4873 56.84 31.33V31.33Z" />
<path d="M60.05 31.4C60.5166 31.2863 61.0035 31.2863 61.47 31.4C61.6159 31.4991 61.7394 31.6278 61.8324 31.7777C61.9254 31.9275 61.9859 32.0953 62.01 32.27C62.01 32.99 62.01 33.71 62.01 34.43C61.9699 34.8421 62.0003 35.2581 62.1 35.66L61.62 35.73C61.51 35.58 61.37 35.4 61.16 35.49C60.9188 35.6758 60.618 35.7671 60.3142 35.7468C60.0104 35.7266 59.7245 35.5961 59.51 35.38C59.38 34.9224 59.38 34.4376 59.51 33.98C59.9973 33.425 60.6318 33.0193 61.34 32.81C61.342 32.5019 61.3185 32.1942 61.27 31.89C60.9394 31.8302 60.6007 31.8302 60.27 31.89C60.15 32.14 60 32.38 59.9 32.65H59.47C59.4445 32.4086 59.4849 32.1649 59.587 31.9447C59.6892 31.7246 59.8492 31.5363 60.05 31.4ZM60.05 34.24C59.9951 34.5307 59.9951 34.8292 60.05 35.12C60.43 35.19 60.94 35.34 61.21 34.97C61.66 34.58 61.4 33.97 61.48 33.43C60.83 33.3 60.4 33.84 60 34.24H60.05Z" />
<path d="M73.81 31.4C74.2766 31.2863 74.7635 31.2863 75.2301 31.4C75.3759 31.4991 75.4994 31.6278 75.5924 31.7777C75.6854 31.9275 75.7459 32.0953 75.77 32.27C75.77 32.99 75.77 33.71 75.77 34.44C75.7302 34.8488 75.7607 35.2614 75.8601 35.66L75.38 35.73C75.27 35.58 75.13 35.4 74.92 35.49C74.6788 35.6758 74.3781 35.7671 74.0743 35.7468C73.7705 35.7266 73.4845 35.5961 73.27 35.38C73.14 34.9224 73.14 34.4376 73.27 33.98C73.7074 33.424 74.3152 33.0271 75.0001 32.85C75.1501 32.55 75.0001 32.19 75.0001 31.85C74.6693 31.7915 74.3308 31.7915 74.0001 31.85C73.8801 32.1 73.73 32.34 73.63 32.61H73.2C73.185 32.3723 73.2336 32.1349 73.3408 31.9222C73.4481 31.7095 73.61 31.5293 73.81 31.4V31.4ZM73.81 34.24C73.7551 34.5307 73.7551 34.8292 73.81 35.12C74.0198 35.2092 74.2507 35.2369 74.4756 35.1997C74.7005 35.1625 74.9102 35.062 75.0801 34.91C75.0801 34.39 75.0801 33.91 75.0801 33.35C74.5558 33.4851 74.0957 33.8002 73.78 34.24H73.81Z" />
<path d="M77.25 31.31H77.5401C77.6482 31.5678 77.7417 31.8316 77.82 32.1C77.82 33.29 77.82 34.48 77.82 35.67H77.25C77.25 34.23 77.24 32.77 77.25 31.31Z" />
<path d="M78.25 31.33C78.73 31.33 79.41 31.21 79.59 31.79C79.69 33.08 79.59 34.39 79.59 35.69H79.01C79.01 34.55 79.01 33.42 79.01 32.29C79.01 32.09 78.89 31.96 78.78 31.83C78.6122 31.6542 78.4353 31.4873 78.25 31.33V31.33Z" />
<path d="M85.58 31.47C85.9396 31.2934 86.3486 31.244 86.74 31.33C87.1 31.33 87.3 31.66 87.47 31.92C87.6249 32.8724 87.6451 33.8419 87.53 34.8C87.53 35.17 87.19 35.41 86.94 35.66C86.6093 35.7198 86.2706 35.7198 85.94 35.66C85.6 35.66 85.43 35.29 85.22 35.07C85.0402 34.1306 85.0098 33.1688 85.13 32.22C85.1847 31.924 85.3445 31.6576 85.58 31.47V31.47ZM85.76 32.18C85.6494 33.0331 85.6494 33.8969 85.76 34.75C85.7908 34.8875 85.8675 35.0103 85.9774 35.0984C86.0874 35.1865 86.2241 35.2344 86.365 35.2344C86.5058 35.2344 86.6425 35.1865 86.7525 35.0984C86.8625 35.0103 86.9392 34.8875 86.97 34.75C87.0948 33.8208 87.0948 32.8791 86.97 31.95C86.54 31.78 85.91 31.66 85.76 32.18Z" />
<path d="M89 31.35C89.22 31.43 89.44 31.53 89.68 31.6L89.84 31.45L89.99 31.38H90.56C90.56 31.46 90.56 31.63 90.56 31.71C90.4 31.63 90.29 31.71 90.22 31.85C89.9681 32.0202 89.7306 32.2108 89.51 32.42C89.4247 32.5013 89.3568 32.599 89.3103 32.7073C89.2639 32.8156 89.24 32.9322 89.24 33.05C89.24 33.94 89.24 34.83 89.24 35.73H89C89 34.24 89 32.79 89 31.35Z" />
<path d="M97.6399 31.33H98.1999V35.69H97.6399C97.6299 34.24 97.6299 32.78 97.6399 31.33Z" />
<path d="M99.8 31.41C100.152 31.3198 100.518 31.2893 100.88 31.32C101.4 31.32 101.67 31.9 101.79 32.32L101.3 32.39C101.19 32.2 101.07 32.03 100.96 31.84C100.645 31.7811 100.32 31.8088 100.02 31.92C100 32.1229 100 32.3271 100.02 32.53C100.39 33.02 101.02 33.2 101.46 33.64C101.9 34.08 101.8 34.64 101.72 35.14C101.584 35.3482 101.391 35.5128 101.164 35.6139C100.937 35.7151 100.686 35.7484 100.44 35.71C100.292 35.7141 100.144 35.688 100.007 35.6332C99.8688 35.5784 99.7437 35.496 99.6388 35.3912C99.534 35.2863 99.4516 35.1612 99.3968 35.0235C99.342 34.8857 99.3159 34.7382 99.32 34.59H99.84C99.97 34.85 100.13 35.2 100.48 35.19C100.83 35.18 101.01 35.02 101.21 34.83C101.23 34.6272 101.23 34.4229 101.21 34.22C100.72 33.62 99.86 33.39 99.48 32.71C99.4241 32.4836 99.424 32.247 99.4797 32.0206C99.5355 31.7941 99.6454 31.5846 99.8 31.41V31.41Z" />
<path d="M103 31.27C103.191 31.3631 103.375 31.4701 103.55 31.59C103.753 31.4327 103.995 31.3322 104.249 31.2988C104.504 31.2654 104.763 31.3003 105 31.4C105.387 31.8001 105.605 32.3335 105.61 32.89C105.755 33.7198 105.61 34.5743 105.2 35.31C105.113 35.4422 104.996 35.5519 104.858 35.63C104.72 35.7081 104.566 35.7524 104.408 35.7592C104.25 35.7661 104.092 35.7352 103.948 35.6693C103.804 35.6034 103.678 35.5042 103.58 35.38C103.58 35.98 103.58 36.58 103.58 37.18H103C103 35.21 103 33.24 103 31.27ZM103.56 32.16C103.56 33.07 103.56 33.97 103.56 34.87C103.85 35.27 104.56 35.4 104.81 34.87C105.012 33.8802 105.012 32.8598 104.81 31.87C104.37 31.79 103.79 31.7 103.57 32.16H103.56Z" />
<path d="M107.19 31.4C107.659 31.2798 108.151 31.2798 108.62 31.4C108.764 31.4994 108.885 31.6268 108.978 31.7746C109.071 31.9225 109.133 32.0876 109.16 32.26C109.16 33.26 109.16 34.26 109.16 35.26C109.171 35.41 109.201 35.5579 109.25 35.7L108.77 35.77C108.66 35.62 108.52 35.44 108.31 35.54C108.067 35.7225 107.766 35.8108 107.463 35.7887C107.159 35.7667 106.874 35.6357 106.66 35.42C106.53 34.9624 106.53 34.4776 106.66 34.02C107.116 33.4657 107.742 33.0759 108.44 32.91C108.508 32.5801 108.508 32.2399 108.44 31.91C108.109 31.8515 107.771 31.8515 107.44 31.91C107.32 32.16 107.18 32.4 107.07 32.67C106.927 32.6601 106.783 32.6601 106.64 32.67C106.611 32.4286 106.646 32.1837 106.743 31.9605C106.84 31.7373 106.994 31.5438 107.19 31.4V31.4ZM107.19 34.24C107.14 34.5312 107.14 34.8288 107.19 35.12C107.57 35.19 108.08 35.34 108.36 34.97C108.81 34.58 108.54 33.97 108.62 33.43C108 33.3 107.55 33.84 107.16 34.24H107.19Z" />
<path d="M110.64 31.31H110.92C111.033 31.5661 111.126 31.8302 111.2 32.1V35.67H110.63C110.63 34.23 110.63 32.77 110.64 31.31Z" />
<path d="M111.63 31.33C112.11 31.33 112.8 31.21 112.97 31.79C113.07 33.08 112.97 34.39 112.97 35.69H112.39V32.29C112.39 32.1 112.28 31.96 112.16 31.83C111.992 31.6542 111.815 31.4873 111.63 31.33Z" />
<path d="M114.45 31.33H115V35.69H114.43L114.45 31.33Z" />
<path d="M126.05 31.4C126.516 31.2802 127.004 31.2802 127.47 31.4C127.617 31.4962 127.741 31.6228 127.834 31.7712C127.927 31.9196 127.987 32.0863 128.01 32.26C128.01 32.98 128.01 33.7 128.01 34.43C127.975 34.8389 128.005 35.2507 128.1 35.65L127.62 35.72C127.51 35.57 127.37 35.39 127.16 35.49C126.917 35.6724 126.616 35.7608 126.313 35.7387C126.009 35.7167 125.724 35.5857 125.51 35.37C125.38 34.9124 125.38 34.4276 125.51 33.97C125.963 33.417 126.585 33.0272 127.28 32.86C127.43 32.57 127.28 32.2 127.28 31.86C126.949 31.8015 126.611 31.8015 126.28 31.86C126.16 32.11 126.02 32.35 125.91 32.62H125.48C125.459 32.3844 125.501 32.1475 125.601 31.9332C125.701 31.7189 125.856 31.535 126.05 31.4ZM126.05 34.24C125.995 34.5308 125.995 34.8292 126.05 35.12C126.352 35.2064 126.67 35.2235 126.98 35.17C127.178 35.0274 127.342 34.8431 127.46 34.63C127.46 34.23 127.46 33.83 127.46 33.43C126.83 33.3 126.4 33.84 126 34.24H126.05Z" />
<path d="M132 31.33H132.57C132.57 32.79 132.57 34.24 132.57 35.69H132V31.33Z" />
<path d="M134.08 31.31H134.37C134.478 31.5882 134.572 31.8719 134.65 32.16C134.65 33.33 134.65 34.5 134.65 35.67H134.09C134.08 34.23 134.07 32.77 134.08 31.31Z" />
<path d="M135.08 31.33C135.55 31.33 136.24 31.21 136.42 31.79C136.52 33.08 136.42 34.39 136.42 35.69H135.84C135.84 34.55 135.84 33.42 135.84 32.29C135.84 32.09 135.73 31.96 135.62 31.83C135.51 31.7 135.27 31.49 135.08 31.33Z" />
<path d="M148.6 31.33H149.17V35.69H148.6V31.33Z" />
<path d="M150.39 31.31H150.67C150.783 31.5661 150.876 31.8302 150.95 32.1C150.95 33.29 150.95 34.48 150.95 35.67H150.39C150.39 34.23 150.38 32.77 150.39 31.31Z" />
<path d="M151.39 31.33C151.86 31.33 152.55 31.21 152.73 31.79C152.83 33.08 152.73 34.39 152.73 35.69H152.15C152.15 34.55 152.15 33.42 152.15 32.29C152.15 32.09 152.04 31.96 151.93 31.83C151.82 31.7 151.58 31.49 151.39 31.33Z" />
<path d="M154.46 31.33H155V35.69H154.43L154.46 31.33Z" />
<path d="M156.37 31.41C156.722 31.3201 157.088 31.2897 157.45 31.32C157.97 31.32 158.24 31.9 158.37 32.32L157.88 32.39C157.76 32.2 157.64 32.03 157.53 31.84C157.215 31.7811 156.89 31.8088 156.59 31.92C156.57 32.1229 156.57 32.3272 156.59 32.53C157.05 33.11 157.87 33.29 158.29 33.93C158.36 34.42 158.5 35.09 158.03 35.42C157.56 35.75 157.12 35.72 156.65 35.67C156.428 35.5899 156.236 35.4432 156.1 35.25C155.964 35.0567 155.89 34.8263 155.89 34.59H156.42C156.54 34.85 156.71 35.2 157.05 35.19C157.39 35.18 157.58 35.02 157.79 34.83C157.788 34.6257 157.772 34.4218 157.74 34.22C157.25 33.62 156.4 33.39 156.01 32.71C155.959 32.4804 155.966 32.2419 156.028 32.0152C156.091 31.7886 156.208 31.5808 156.37 31.41V31.41Z" />
<path d="M162.16 31.35C162.39 31.43 162.61 31.53 162.84 31.6L163.01 31.44L163.16 31.38C163.34 31.38 163.52 31.38 163.7 31.38V31.66C163.54 31.6 163.44 31.66 163.4 31.84C163.145 32.0101 162.904 32.2007 162.68 32.41C162.514 32.5778 162.421 32.804 162.42 33.04C162.42 33.93 162.42 34.82 162.42 35.72H162.17C162.16 34.24 162.18 32.79 162.16 31.35Z" />
<path d="M164 31.4H164.68C164.713 31.74 164.784 32.0753 164.89 32.4C165.03 32.73 164.98 33.1 165.12 33.4C165.253 33.8365 165.34 34.2856 165.38 34.74C165.48 34.3409 165.6 33.9471 165.74 33.56C165.74 32.84 166.1 32.17 166.08 31.44L166.82 31.36C166.42 32.68 166.21 34.04 165.82 35.36C165.769 35.9333 165.538 36.4758 165.16 36.91C164.86 37.15 164.44 37.07 164.09 37.08C164.09 36.65 164.63 36.59 164.95 36.4C165.115 35.5387 165.021 34.6478 164.68 33.84C164.42 33.12 164.31 32.35 164.04 31.63L164 31.4Z" />
<path d="M125.72 16.94H126.24V17.86H125.79C125.74 17.56 125.72 17.25 125.72 16.94Z" />
<path d="M83.64 29.58C83.87 29.22 84.33 29.36 84.64 29.33C84.64 29.4 84.64 29.54 84.64 29.61L83.64 29.58Z" />
<path d="M114.27 29.61H114.49L114.55 30.07L114.98 30.24L115.11 30.35C114.837 30.365 114.563 30.365 114.29 30.35C114.28 30.1 114.27 29.86 114.27 29.61Z" />
<path d="M131.85 29.61H132.08C132.08 29.76 132.08 29.92 132.08 30.07L132.51 30.24L132.65 30.35C132.374 30.365 132.097 30.365 131.82 30.35C131.87 30.1 131.86 29.86 131.85 29.61Z" />
<path d="M148.41 29.61H148.64C148.64 29.76 148.64 29.92 148.69 30.07L149.13 30.24L149.26 30.35C148.987 30.365 148.713 30.365 148.44 30.35L148.41 29.61Z" />
<path d="M83.43 29.83C83.35 29.62 83.43 29.54 83.64 29.58C83.7 29.78 83.63 29.86 83.43 29.83Z" />
<path d="M88.85 31.23L89.02 31.35C89.02 32.79 89.02 34.24 89.02 35.69H88.77C88.77 34.46 88.77 33.23 88.77 32.01C88.7669 31.7478 88.7937 31.4861 88.85 31.23V31.23Z" />
<path d="M162 31.23L162.17 31.35C162.17 32.79 162.17 34.24 162.17 35.69H161.91V32.69C161.876 32.2015 161.906 31.7106 162 31.23Z" />
<path d="M83.76 31.85C83.9759 31.7371 84.1999 31.6402 84.43 31.56C84.43 31.62 84.43 31.76 84.43 31.82L83.9 31.9V35.69H83.65C83.65 34.75 83.65 33.82 83.65 32.89C83.636 32.5398 83.673 32.1895 83.76 31.85V31.85Z" />
<path d="M97.45 29.61H97.67L97.73 30.07L98.16 30.24L98.29 30.35C98.0168 30.365 97.7431 30.365 97.47 30.35C97.46 30.1 97.46 29.86 97.45 29.61Z" />
<path d="M154.28 29.61H154.5L154.56 30.07L154.99 30.24L155.12 30.35C154.847 30.365 154.573 30.365 154.3 30.35C154.29 30.1 154.28 29.86 154.28 29.61Z" />
<path d="M121.19 29.59L121.72 29.54C121.54 30.59 121.05 31.54 120.81 32.6C120.57 33.66 120.17 34.66 119.81 35.68C119.635 35.7104 119.458 35.7305 119.28 35.74C119.46 34.74 119.95 33.74 120.18 32.74C120.41 31.74 120.83 30.63 121.19 29.59Z" />
<path d="M122.18 29.61H122.89C122.89 31.45 122.89 33.3 122.89 35.15H124.76V35.7C123.9 35.7 123.04 35.7 122.18 35.7C122.2 33.65 122.19 31.63 122.18 29.61Z" />
<path d="M83.23 29.93L83.43 29.83C83.43 30.33 83.43 30.83 83.38 31.33H83.16V31.07C83.1397 30.6886 83.1632 30.3061 83.23 29.93V29.93Z" />
<path d="M83.8 30.08C83.89 29.91 84.09 29.89 84.27 29.87C83.82 30.14 83.93 30.65 83.93 31.09V31.35H83.68C83.6117 30.9233 83.653 30.4863 83.8 30.08V30.08Z" />
<path d="M82.36 31.35C82.53 31.07 82.88 31.13 83.16 31.09V31.35H82.36Z" />
<path d="M83.9301 31.09C84.2101 31.09 84.5601 31.09 84.7401 31.35H83.9301V31.09Z" />
<path d="M88.7 31.12C88.9072 31.0828 89.1203 31.0931 89.3229 31.1503C89.5256 31.2075 89.7127 31.31 89.87 31.45L89.7 31.6C89.47 31.53 89.25 31.43 89.02 31.35L88.85 31.23L88.7 31.12Z" />
<path d="M161.84 31.12C162.047 31.0836 162.259 31.0935 162.461 31.1488C162.663 31.2041 162.851 31.3036 163.01 31.44L162.84 31.6C162.61 31.53 162.39 31.43 162.16 31.35L161.99 31.23L161.84 31.12Z" />
<path d="M90 31.38C90.06 31.11 90.34 31.13 90.55 31.07C90.55 31.14 90.55 31.27 90.55 31.34L90 31.38Z" />
<path d="M163.16 31.38C163.16 31.11 163.49 31.13 163.69 31.08C163.695 31.1699 163.695 31.2601 163.69 31.35C163.52 31.36 163.34 31.36 163.16 31.38Z" />
<path d="M163.69 31.08C164.05 31.08 164.41 31.13 164.77 31.17L164.64 31.36H163.96V31.55C163.96 31.62 164.01 31.76 164.02 31.82H163.58L163.66 31.58V31.3C163.7 31.28 163.69 31.15 163.69 31.08Z" />
<path d="M56.13 31.33C56.2816 31.4126 56.4227 31.5133 56.55 31.63L56.84 31.33C57.0424 31.4858 57.236 31.6528 57.42 31.83C57.2348 31.803 57.0457 31.8237 56.8707 31.8902C56.6957 31.9567 56.5406 32.0668 56.42 32.21V32.12C56.34 31.85 56.23 31.59 56.13 31.33Z" />
<path d="M77.54 31.33C77.6886 31.4175 77.8291 31.5179 77.96 31.63L78.25 31.33C78.4524 31.4858 78.6461 31.6528 78.83 31.83C78.6448 31.803 78.4557 31.8237 78.2807 31.8902C78.1057 31.9567 77.9506 32.0668 77.83 32.21V32.12C77.7484 31.8514 77.6516 31.5876 77.54 31.33V31.33Z" />
<path d="M110.92 31.33C111.07 31.415 111.211 31.5156 111.34 31.63L111.63 31.33C111.832 31.4858 112.026 31.6528 112.21 31.83C112.025 31.803 111.836 31.8237 111.661 31.8902C111.486 31.9567 111.331 32.0668 111.21 32.21V32.12C111.133 31.8499 111.036 31.5858 110.92 31.33V31.33Z" />
<path d="M134.37 31.33C134.516 31.4208 134.657 31.521 134.79 31.63C134.881 31.525 134.978 31.4249 135.08 31.33C135.27 31.49 135.48 31.65 135.66 31.83C135.478 31.8173 135.296 31.8418 135.124 31.902C134.952 31.9621 134.794 32.0567 134.66 32.18C134.578 31.8917 134.482 31.608 134.37 31.33V31.33Z" />
<path d="M150.67 31.33C150.825 31.4114 150.97 31.5122 151.1 31.63C151.191 31.525 151.288 31.4249 151.39 31.33C151.58 31.49 151.78 31.65 151.97 31.83C151.785 31.802 151.595 31.8223 151.42 31.8889C151.245 31.9554 151.09 32.066 150.97 32.21V32.12C150.89 31.8496 150.789 31.5855 150.67 31.33V31.33Z" />
<path d="M82.36 31.35H82.66C82.66 31.4 82.66 31.5 82.66 31.55C82.66 31.6 82.66 31.75 82.66 31.81L82.46 31.93C82.41 31.74 82.39 31.55 82.36 31.35Z" />
<path d="M84.4399 31.36H84.7399C84.7399 31.56 84.7399 31.75 84.6599 31.95L84.4599 31.84C84.4599 31.77 84.4599 31.63 84.4599 31.57C84.4599 31.51 84.4399 31.41 84.4399 31.36Z" />
<path d="M116.64 31.44C117.19 31.27 118.02 31.12 118.37 31.71C118.61 31.96 118.57 32.32 118.76 32.6H118.1C118.1 32.35 118.1 32.04 117.87 31.88C117.64 31.72 117.18 31.79 116.87 31.88C116.715 32.8224 116.695 33.7819 116.81 34.73C116.81 35.2 117.42 35.24 117.81 35.12C118.017 34.8939 118.144 34.6056 118.17 34.3H118.71C118.715 34.5643 118.646 34.8247 118.512 35.0524C118.378 35.2801 118.183 35.4662 117.95 35.59C117.5 35.66 116.95 35.77 116.6 35.35C116.361 35.0032 116.193 34.6127 116.106 34.2008C116.018 33.789 116.013 33.3639 116.09 32.95C116.1 32.3994 116.293 31.868 116.64 31.44Z" />
<path d="M138.07 31.47C138.435 31.2985 138.845 31.2493 139.24 31.33C139.6 31.33 139.79 31.66 139.97 31.92C140.115 32.8738 140.125 33.8433 140 34.8C140 35.17 139.67 35.42 139.42 35.66C139.09 35.7237 138.75 35.7237 138.42 35.66C138.08 35.66 137.91 35.29 137.71 35.07C137.53 34.1306 137.5 33.1688 137.62 32.22C137.673 31.9233 137.833 31.6564 138.07 31.47V31.47ZM138.25 32.18C138.163 32.9268 138.147 33.6801 138.2 34.43C138.22 34.7111 138.324 34.9797 138.5 35.2H139.2C139.343 35.007 139.442 34.7852 139.49 34.55C139.562 33.6834 139.538 32.8115 139.42 31.95C139 31.78 138.41 31.66 138.25 32.18Z" />
<path d="M82.67 31.56C82.9001 31.6402 83.1241 31.7371 83.34 31.85C83.4198 32.177 83.4535 32.5136 83.44 32.85C83.44 33.78 83.44 34.72 83.44 35.65H83.19V31.9L82.66 31.83C82.65 31.76 82.66 31.62 82.67 31.56Z" />
<path d="M90.26 31.81C90.33 31.63 90.44 31.59 90.6 31.67C90.56 31.9 90.45 32 90.26 31.81Z" />
<path d="M163.4 31.81C163.44 31.63 163.54 31.57 163.7 31.63L163.62 31.87L163.4 31.81Z" />
<path d="M89.28 33C89.28 32.8822 89.3039 32.7656 89.3503 32.6573C89.3967 32.549 89.4647 32.4513 89.55 32.37C89.55 33.47 89.55 34.57 89.55 35.68H89.29C89.3 34.79 89.25 33.9 89.28 33Z" />
<path d="M162.42 33C162.421 32.764 162.514 32.5378 162.68 32.37C162.68 33.47 162.68 34.57 162.68 35.68H162.43C162.43 34.79 162.38 33.9 162.42 33Z" />
<path d="M144.89 33.61H145.33C145.33 33.82 145.33 34.04 145.33 34.25C145.165 34.0499 145.018 33.8357 144.89 33.61V33.61Z" />
</g>
<defs>
<clipPath id="clip0_14_254">
<rect width="168.11" height="38.75" fill="white"/>
</clipPath>
</defs>
</svg>
