<svg width="157" height="14" viewBox="0 0 157 14" fill="none" xmlns="http://www.w3.org/2000/svg">
<g clip-path="url(#clip0_14_246)">
<path d="M46.15 3.66H56.51V10.21H46.15V3.66ZM67.66 3.66H77.43V6.42H67.66V3.66ZM62.71 13.66H67.66V9.7H77.43V13.58H82V9.1C81.92 8.28 81.44 8.1 81.58 7.58C81.7743 7.0329 81.9379 6.47537 82.07 5.91C82.49 3.24 81.07 0.959999 79.07 0.429999C78.5611 0.342012 78.0463 0.291874 77.53 0.279999H62.71V13.66ZM15.11 13.66H19.69V0.289999H15.11V5.17H4.44V0.289999H0V13.58H4.44V8.29H15.11V13.66ZM26.57 0.289999H21.5L24.57 4.38L28.49 9.6V13.6H33.19V9.6L37.1 4.38L40.18 0.289999H35L33.09 2.72L30.79 5.62L28.5 2.72L26.57 0.289999ZM41.67 13.58H57.91C58.6313 13.2879 59.2774 12.8366 59.8 12.26C60.2046 11.9316 60.5369 11.5232 60.7761 11.0603C61.0153 10.5973 61.1562 10.09 61.19 9.57C61.19 8.24 61.12 6.88 61.12 5.57C61.12 3.42 61.25 2.72 59.52 1.16C58.8411 0.661049 58.039 0.356788 57.2 0.279999H41.68V13.58H41.67Z" />
<path fill-rule="evenodd" clip-rule="evenodd" d="M91.4301 8.31H96.7801C96.6401 7.81 95.1801 5.53 94.7801 4.82C94.5701 4.46 94.3601 3.91 94.0101 3.71C93.7401 4.01 93.0101 5.46 92.7001 5.89C92.1474 6.62193 91.7184 7.43941 91.4301 8.31V8.31ZM83.4301 13.56C84.8856 13.6398 86.3445 13.6398 87.8001 13.56C88.4301 13.51 88.9901 11.87 89.6101 11H98.3601C99.0501 11.75 99.3601 12.86 100.03 13.6H104.68C104.75 13.2 104.19 12.48 103.84 11.95C103.22 10.88 102.04 8.76 101.41 7.79C100.78 6.82 97.2601 0.669999 96.8501 0.279999H91.1501C90.6001 1.33 89.8301 2.5 89.2101 3.57C88.5901 4.64 88.0001 5.75 87.2601 6.88L86.2601 8.51C85.9201 9.08 85.5701 9.64 85.2601 10.21C84.9501 10.78 84.6401 11.3 84.2601 11.86C83.8801 12.42 83.4501 13.07 83.4501 13.56H83.4301Z" />
<path d="M120.41 12.11H111.22C110.811 12.1141 110.402 12.0773 110 12C109.639 11.9316 109.298 11.7848 109 11.57C108.701 11.3466 108.463 11.0506 108.31 10.71C108.104 10.2614 107.999 9.77349 108 9.28001V4.28001C107.981 3.79427 108.066 3.31011 108.25 2.86001C108.417 2.51047 108.676 2.21313 109 2.00001C109.298 1.78525 109.639 1.63847 110 1.57001C110.408 1.48807 110.824 1.44787 111.24 1.45001H120.43V1.11728e-05H111C110.219 -0.0204146 109.44 0.0807961 108.69 0.300011C108.121 0.476275 107.608 0.796657 107.2 1.23001C106.808 1.67162 106.533 2.20456 106.4 2.78001C106.244 3.50908 106.18 4.25497 106.21 5.00001V8.60001C106.195 9.34006 106.272 10.0791 106.44 10.8C106.575 11.3747 106.85 11.9072 107.24 12.35C107.646 12.7834 108.161 13.1009 108.73 13.27C109.479 13.4931 110.259 13.5977 111.04 13.58H120.41V12.11Z" />
<path d="M122.87 0.140015H124.71V10.07C124.708 10.3636 124.745 10.6561 124.82 10.94C124.897 11.1938 125.051 11.4174 125.26 11.58C125.521 11.774 125.821 11.9072 126.14 11.97C126.636 12.0729 127.143 12.1199 127.65 12.11H134C134.507 12.1199 135.013 12.0729 135.51 11.97C135.831 11.9049 136.134 11.7719 136.4 11.58C136.603 11.4138 136.753 11.1911 136.83 10.94C136.905 10.6561 136.942 10.3636 136.94 10.07V0.140015H138.78V10.14C138.798 10.713 138.703 11.284 138.5 11.82C138.333 12.2523 138.04 12.6248 137.66 12.89C137.206 13.1849 136.695 13.3793 136.16 13.46C135.429 13.5774 134.69 13.6309 133.95 13.62H127.69C126.953 13.6309 126.217 13.5774 125.49 13.46C124.956 13.3763 124.445 13.1822 123.99 12.89C123.607 12.6254 123.311 12.253 123.14 11.82C122.941 11.2828 122.846 10.7127 122.86 10.14V0.140015H122.87Z" />
<path d="M141.33 0.140013H152.49C153.043 0.138709 153.594 0.182185 154.14 0.270013C154.582 0.339032 155.001 0.514017 155.36 0.780013C155.703 1.07205 155.959 1.45254 156.1 1.88001C156.295 2.48338 156.383 3.11628 156.36 3.75001C156.366 4.39812 156.333 5.046 156.26 5.69001C156.206 6.18958 156.027 6.66754 155.74 7.08001C155.416 7.48461 154.971 7.77533 154.47 7.91001C153.709 8.12445 152.92 8.21892 152.13 8.19001H143.13V13.42H141.3V0.140013H141.33ZM154.53 3.58001C154.544 3.24017 154.493 2.90075 154.38 2.58001C154.276 2.34648 154.11 2.14589 153.9 2.00001C153.661 1.8526 153.396 1.75088 153.12 1.70001C152.77 1.64009 152.415 1.61331 152.06 1.62001H143.16V6.74001H152.21C152.809 6.77421 153.405 6.6279 153.92 6.32001C154.135 6.14393 154.303 5.9177 154.409 5.66131C154.515 5.40493 154.557 5.12629 154.53 4.85001V3.58001V3.58001Z" />
</g>
<defs>
<clipPath id="clip0_14_246">
<rect width="156.36" height="13.63" fill="white"/>
</clipPath>
</defs>
</svg>
