<svg width="115" height="35" viewBox="0 0 115 35" fill="none" xmlns="http://www.w3.org/2000/svg">
<g clip-path="url(#clip0_14_214)">
<path d="M79.3201 8.63999C79.3397 8.85328 79.3124 9.06828 79.2403 9.26995C79.1681 9.47161 79.0527 9.65507 78.9022 9.80747C78.7517 9.95988 78.5697 10.0776 78.369 10.1523C78.1682 10.227 77.9536 10.2569 77.7401 10.24C77.5969 10.2499 77.4532 10.2499 77.3101 10.24V9.39999C77.4131 9.41028 77.517 9.41028 77.6201 9.39999C78.1101 9.39999 78.4201 9.17999 78.4201 8.50999V2.68999H79.3201V8.63999ZM78.2301 0.639986C78.2159 0.557255 78.2159 0.472716 78.2301 0.389986C78.2677 0.314354 78.3147 0.243792 78.3701 0.179986C78.4323 0.125194 78.5033 0.0812489 78.5801 0.0499856C78.6622 0.0300504 78.7479 0.0300504 78.8301 0.0499856C78.9124 0.052193 78.9937 0.0691269 79.0701 0.0999856C79.1492 0.131235 79.2208 0.178958 79.2801 0.239986C79.3349 0.302209 79.3788 0.373197 79.4101 0.449986C79.442 0.526016 79.459 0.607511 79.4601 0.689986C79.4744 0.772699 79.4744 0.857272 79.4601 0.939986C79.4288 1.01912 79.3811 1.0907 79.3201 1.14999C79.2582 1.20788 79.1873 1.25519 79.1101 1.28999C79.0308 1.30512 78.9493 1.30512 78.8701 1.28999C78.7874 1.30521 78.7027 1.30521 78.6201 1.28999C78.5409 1.25874 78.4693 1.21101 78.4101 1.14999C78.349 1.0907 78.3013 1.01912 78.2701 0.939986C78.235 0.844099 78.2214 0.741706 78.2301 0.639986V0.639986Z" />
<path d="M80.38 5.32C80.3722 4.82338 80.5015 4.33422 80.7537 3.90635C81.006 3.47848 81.3713 3.12848 81.8096 2.89485C82.2479 2.66122 82.7422 2.55303 83.238 2.58217C83.7339 2.6113 84.2121 2.77665 84.62 3.06C85.0706 3.35884 85.4194 3.7879 85.62 4.29C85.8297 4.79303 85.8846 5.34715 85.7777 5.88154C85.6708 6.41593 85.407 6.90631 85.02 7.29C84.6315 7.65671 84.1453 7.90328 83.62 8C83.0923 8.10299 82.546 8.04732 82.05 7.84C81.5584 7.63081 81.138 7.28342 80.84 6.84C80.5383 6.39064 80.3781 5.86124 80.38 5.32V5.32ZM84.92 5.32C84.92 4.83996 84.7293 4.37958 84.3898 4.04014C84.0504 3.7007 83.59 3.51 83.11 3.51C82.6299 3.51 82.1696 3.7007 81.8301 4.04014C81.4907 4.37958 81.3 4.83996 81.3 5.32C81.3 5.80004 81.4907 6.26042 81.8301 6.59986C82.1696 6.9393 82.6299 7.13 83.11 7.13C83.59 7.13 84.0504 6.9393 84.3898 6.59986C84.7293 6.26042 84.92 5.80004 84.92 5.32V5.32Z" />
<path d="M86.91 7.94V0.0599976H87.81V3.5C87.9762 3.20954 88.2188 2.97019 88.5114 2.80798C88.8041 2.64578 89.1357 2.56692 89.47 2.58C89.7461 2.56861 90.0214 2.61664 90.2773 2.72083C90.5333 2.82503 90.7638 2.98296 90.9534 3.18395C91.1431 3.38494 91.2873 3.62431 91.3764 3.88586C91.4655 4.14741 91.4975 4.42505 91.47 4.7V7.94H90.58V4.84C90.58 3.96 90.09 3.41 89.35 3.41C88.61 3.41 87.84 4.1 87.84 5.33V7.94H86.91Z" />
<path d="M92.84 2.69001H93.74V3.49001C93.9061 3.19955 94.1487 2.9602 94.4414 2.798C94.7341 2.63579 95.0656 2.55694 95.4 2.57001C95.677 2.55844 95.9532 2.60668 96.2099 2.71147C96.4666 2.81625 96.6977 2.9751 96.8875 3.17722C97.0773 3.37934 97.2213 3.61998 97.3097 3.88276C97.3982 4.14553 97.4289 4.42427 97.4 4.70001V7.93001H96.52V4.83001C96.5445 4.65002 96.5298 4.46685 96.477 4.29306C96.4241 4.11927 96.3342 3.95896 96.2136 3.82314C96.093 3.68731 95.9444 3.57918 95.7781 3.50614C95.6118 3.43311 95.4316 3.39691 95.25 3.40001C94.42 3.40001 93.74 4.09001 93.74 5.33001V7.93001H92.84V2.69001Z" />
<path d="M98.33 6.42001H99.25C99.3079 6.68856 99.4642 6.92574 99.6881 7.08489C99.912 7.24404 100.187 7.31364 100.46 7.28001C101.03 7.28001 101.46 7.05001 101.46 6.59001C101.46 6.13001 101.22 5.92001 100.6 5.75001L99.84 5.55001C99.4663 5.49892 99.1241 5.31332 98.8774 5.02799C98.6307 4.74266 98.4966 4.37717 98.5 4.00001C98.5 3.12001 99.26 2.58001 100.3 2.58001C100.75 2.53446 101.199 2.66551 101.554 2.94545C101.908 3.22538 102.14 3.63225 102.2 4.08001H101.31C101.251 3.86184 101.121 3.66995 100.939 3.53558C100.758 3.40121 100.536 3.33227 100.31 3.34001C99.81 3.34001 99.42 3.58001 99.42 3.99001C99.42 4.40001 99.66 4.59001 100.21 4.74001L101 5.00001C101.376 5.04921 101.721 5.23565 101.969 5.52356C102.216 5.81147 102.348 6.18056 102.34 6.56001C102.34 7.56001 101.5 8.08001 100.41 8.08001C100.164 8.11225 99.9147 8.0956 99.6755 8.03103C99.4363 7.96646 99.2122 7.85524 99.0161 7.70376C98.82 7.55228 98.6558 7.36353 98.5329 7.14836C98.41 6.9332 98.3309 6.69586 98.3 6.45001" />
<path d="M103 5.32C102.993 4.95831 103.059 4.59897 103.195 4.26347C103.33 3.92797 103.532 3.62321 103.787 3.36741C104.043 3.11161 104.348 2.91004 104.683 2.77474C105.019 2.63945 105.378 2.57321 105.74 2.58C106.461 2.58177 107.151 2.8695 107.66 3.38C108.168 3.89619 108.452 4.59111 108.452 5.315C108.452 6.0389 108.168 6.73381 107.66 7.25C107.151 7.76051 106.461 8.04824 105.74 8.05C105.379 8.05675 105.021 7.99082 104.686 7.85614C104.351 7.72147 104.047 7.52079 103.791 7.26606C103.535 7.01134 103.334 6.70777 103.198 6.37345C103.062 6.03912 102.995 5.68086 103 5.32V5.32ZM107.54 5.32C107.54 4.83996 107.349 4.37958 107.01 4.04014C106.67 3.7007 106.21 3.51 105.73 3.51C105.25 3.51 104.79 3.7007 104.45 4.04014C104.111 4.37958 103.92 4.83996 103.92 5.32C103.92 5.80004 104.111 6.26042 104.45 6.59987C104.79 6.93931 105.25 7.13 105.73 7.13C106.21 7.13 106.67 6.93931 107.01 6.59987C107.349 6.26042 107.54 5.80004 107.54 5.32Z" />
<path d="M109.54 2.69001H110.44V3.49001C110.606 3.19955 110.849 2.9602 111.141 2.798C111.434 2.63579 111.766 2.55694 112.1 2.57001C112.377 2.55844 112.653 2.60668 112.91 2.71147C113.167 2.81625 113.398 2.9751 113.588 3.17722C113.777 3.37934 113.921 3.61998 114.01 3.88276C114.098 4.14553 114.129 4.42427 114.1 4.70001V7.93001H113.21V4.83001C113.21 3.95001 112.72 3.40001 111.98 3.40001C111.24 3.40001 110.47 4.09001 110.47 5.33001V7.93001H109.57L109.54 2.69001Z" />
<path d="M79.23 17.35V20H78.34V12.1H79.23V16.77L81.51 14.77H82.7L80.13 17.09L83.28 20H82.06L79.23 17.35Z" />
<path d="M83 17.35C82.9817 16.9878 83.0393 16.6258 83.1692 16.2872C83.2992 15.9486 83.4985 15.6409 83.7544 15.3839C84.0103 15.1269 84.3171 14.9263 84.6552 14.795C84.9932 14.6637 85.355 14.6045 85.7173 14.6213C86.0795 14.6381 86.4343 14.7306 86.7587 14.8927C87.0832 15.0547 87.3701 15.2829 87.6011 15.5625C87.8321 15.8421 88.002 16.1669 88.1 16.5161C88.198 16.8652 88.2218 17.2311 88.17 17.59H83.92C83.9226 17.8137 83.9696 18.0346 84.0582 18.2399C84.1468 18.4453 84.2753 18.631 84.4362 18.7864C84.5971 18.9417 84.7873 19.0636 84.9956 19.1449C85.204 19.2262 85.4264 19.2653 85.65 19.26C85.9608 19.2808 86.2707 19.2082 86.5398 19.0513C86.8089 18.8945 87.025 18.6607 87.16 18.38H88.08C87.9252 18.8973 87.5997 19.347 87.1566 19.6557C86.7135 19.9644 86.179 20.114 85.64 20.08C85.284 20.0859 84.9306 20.0187 84.6016 19.8824C84.2727 19.7461 83.9752 19.5437 83.7277 19.2878C83.4802 19.0318 83.2879 18.7278 83.1627 18.3944C83.0376 18.0611 82.9822 17.7056 83 17.35V17.35ZM84 16.88H87.26C87.2296 16.4804 87.0484 16.1072 86.7532 15.8361C86.458 15.5651 86.0708 15.4163 85.67 15.42C85.2588 15.4077 84.8581 15.5513 84.5484 15.8221C84.2386 16.0929 84.0428 16.4708 84 16.88V16.88Z" />
<path d="M89.24 14.72H90.14V15.53C90.3061 15.2395 90.5487 15.0002 90.8414 14.838C91.1341 14.6758 91.4656 14.5969 91.8 14.61C92.077 14.5984 92.3533 14.6467 92.61 14.7514C92.8666 14.8562 93.0978 15.0151 93.2875 15.2172C93.4773 15.4193 93.6213 15.66 93.7098 15.9227C93.7982 16.1855 93.829 16.4643 93.8 16.74V20H92.91V16.88C92.91 15.99 92.42 15.45 91.68 15.45C90.94 15.45 90.17 16.14 90.17 17.37V20H89.27L89.24 14.72Z" />
<path d="M94.76 17.35C94.7453 17.0018 94.8002 16.6541 94.9215 16.3274C95.0428 16.0007 95.2281 15.7014 95.4665 15.4472C95.7049 15.193 95.9917 14.9889 96.3099 14.8468C96.6282 14.7048 96.9716 14.6277 97.32 14.62C97.6776 14.6168 98.0309 14.6986 98.3508 14.8585C98.6706 15.0184 98.948 15.252 99.16 15.54V12.1H100.06V20H99.16V19.2C98.9463 19.4862 98.6686 19.7185 98.3491 19.8783C98.0297 20.038 97.6772 20.1208 97.32 20.12C96.9716 20.1123 96.6282 20.0352 96.3099 19.8932C95.9917 19.7511 95.7049 19.547 95.4665 19.2928C95.2281 19.0386 95.0428 18.7393 94.9215 18.4126C94.8002 18.0859 94.7453 17.7382 94.76 17.39V17.35ZM99.23 17.35C99.23 16.8779 99.0425 16.4252 98.7087 16.0914C98.3749 15.7575 97.9221 15.57 97.45 15.57C96.9779 15.57 96.5252 15.7575 96.1914 16.0914C95.8576 16.4252 95.67 16.8779 95.67 17.35C95.67 17.8221 95.8576 18.2748 96.1914 18.6087C96.5252 18.9425 96.9779 19.13 97.45 19.13C97.9221 19.13 98.3749 18.9425 98.7087 18.6087C99.0425 18.2748 99.23 17.8221 99.23 17.35V17.35Z" />
<path d="M101.12 17.35C101.105 17.0018 101.16 16.6541 101.282 16.3274C101.403 16.0007 101.588 15.7014 101.827 15.4472C102.065 15.193 102.352 14.9889 102.67 14.8468C102.988 14.7048 103.332 14.6277 103.68 14.62C104.038 14.6168 104.391 14.6986 104.711 14.8585C105.031 15.0184 105.308 15.252 105.52 15.54V14.73H106.42V20H105.52V19.2C105.306 19.4856 105.028 19.7175 104.709 19.8772C104.389 20.0369 104.037 20.12 103.68 20.12C103.331 20.111 102.987 20.0327 102.669 19.8896C102.351 19.7464 102.064 19.5414 101.826 19.2864C101.588 19.0313 101.403 18.7314 101.281 18.4041C101.16 18.0768 101.105 17.7287 101.12 17.38V17.35ZM105.59 17.35C105.59 16.8779 105.402 16.4252 105.069 16.0913C104.735 15.7575 104.282 15.57 103.81 15.57C103.338 15.57 102.885 15.7575 102.551 16.0913C102.218 16.4252 102.03 16.8779 102.03 17.35C102.03 17.8221 102.218 18.2748 102.551 18.6086C102.885 18.9425 103.338 19.13 103.81 19.13C104.282 19.13 104.735 18.9425 105.069 18.6086C105.402 18.2748 105.59 17.8221 105.59 17.35Z" />
<path d="M108.79 12.1H107.89V20H108.79V12.1Z" />
<path d="M111.17 12.1H110.27V20H111.17V12.1Z" />
<path d="M79.3201 32.71C79.3412 32.9241 79.3152 33.1402 79.2437 33.3431C79.1722 33.546 79.0571 33.7308 78.9064 33.8843C78.7557 34.0378 78.5731 34.1564 78.3716 34.2317C78.1701 34.307 77.9545 34.3371 77.7401 34.32C77.5969 34.3299 77.4532 34.3299 77.3101 34.32V33.51C77.4131 33.5203 77.517 33.5203 77.6201 33.51C78.1101 33.51 78.4201 33.29 78.4201 32.62V26.77H79.3201V32.71ZM78.2301 24.71C78.2151 24.6273 78.2151 24.5427 78.2301 24.46C78.2649 24.3828 78.3122 24.3118 78.3701 24.25C78.4293 24.189 78.5009 24.1412 78.5801 24.11C78.6596 24.0782 78.7444 24.0612 78.8301 24.06C78.9124 24.0622 78.9937 24.0791 79.0701 24.11C79.1473 24.1448 79.2182 24.1921 79.2801 24.25C79.3349 24.3122 79.3788 24.3832 79.4101 24.46C79.4419 24.5396 79.4588 24.6243 79.4601 24.71C79.4745 24.7893 79.4745 24.8707 79.4601 24.95C79.4279 25.0287 79.3804 25.1001 79.3203 25.1602C79.2602 25.2203 79.1887 25.2678 79.1101 25.3C79.034 25.332 78.9525 25.349 78.8701 25.35C78.7844 25.3488 78.6996 25.3318 78.6201 25.3C78.5414 25.2725 78.4697 25.2282 78.4101 25.17C78.3488 25.107 78.3011 25.0322 78.2701 24.95C78.2427 24.8764 78.2292 24.7985 78.2301 24.72V24.71Z" />
<path d="M80.38 29.39C80.3814 28.8476 80.5375 28.3168 80.83 27.86C81.1343 27.4144 81.5617 27.0669 82.06 26.86C82.5548 26.6478 83.1026 26.592 83.63 26.7C84.1625 26.8028 84.6529 27.0602 85.04 27.44C85.4211 27.8276 85.6817 28.3173 85.79 28.85C85.9009 29.383 85.8486 29.9371 85.64 30.44C85.4347 30.9405 85.0858 31.369 84.6374 31.6715C84.1889 31.974 83.661 32.137 83.12 32.14C82.7604 32.1526 82.4024 32.0879 82.07 31.95C81.7316 31.8193 81.4248 31.6182 81.17 31.36C80.9185 31.1036 80.7182 30.8015 80.58 30.47C80.4419 30.127 80.3739 29.7597 80.38 29.39V29.39ZM84.93 29.39C84.9163 29.0329 84.7977 28.6878 84.5891 28.3976C84.3805 28.1075 84.0911 27.8852 83.757 27.7584C83.4229 27.6316 83.0589 27.606 82.7103 27.6848C82.3617 27.7635 82.0441 27.9431 81.7969 28.2012C81.5498 28.4593 81.384 28.7844 81.3204 29.1361C81.2568 29.4877 81.2981 29.8503 81.4392 30.1786C81.5803 30.5069 81.8149 30.7864 82.1138 30.9823C82.4127 31.1782 82.7627 31.2817 83.12 31.28C83.365 31.2817 83.6078 31.2333 83.8334 31.1379C84.059 31.0424 84.2628 30.902 84.4323 30.725C84.6017 30.5481 84.7333 30.3384 84.8189 30.1089C84.9045 29.8793 84.9423 29.6347 84.93 29.39V29.39Z" />
<path d="M86.91 32V24.14H87.81V27.57C87.9762 27.2796 88.2188 27.0402 88.5114 26.878C88.8041 26.7158 89.1357 26.6369 89.47 26.65C89.747 26.6384 90.0233 26.6867 90.28 26.7915C90.5367 26.8963 90.7678 27.0551 90.9576 27.2572C91.1474 27.4593 91.2914 27.7 91.3798 27.9628C91.4682 28.2255 91.499 28.5043 91.47 28.78V32H90.58V28.9C90.58 28.02 90.09 27.47 89.35 27.47C88.61 27.47 87.84 28.16 87.84 29.4V32H86.91Z" />
<path d="M92.84 26.76H93.74V27.57C93.9061 27.2795 94.1487 27.0402 94.4414 26.878C94.7341 26.7158 95.0656 26.6369 95.4 26.65C95.6761 26.6386 95.9514 26.6866 96.2073 26.7908C96.4632 26.895 96.6938 27.053 96.8834 27.2539C97.073 27.4549 97.2172 27.6943 97.3064 27.9558C97.3955 28.2174 97.4274 28.495 97.4 28.77V32H96.52V28.9C96.5441 28.7225 96.5302 28.5419 96.4791 28.3703C96.4279 28.1986 96.3408 28.0398 96.2234 27.9045C96.1061 27.7692 95.9613 27.6604 95.7986 27.5855C95.6359 27.5106 95.4591 27.4712 95.28 27.47C94.45 27.47 93.77 28.16 93.77 29.39V32H92.87L92.84 26.76Z" />
<path d="M98.33 30.49H99.25C99.3078 30.7585 99.4641 30.9957 99.688 31.1549C99.9119 31.314 100.187 31.3836 100.46 31.35C101.03 31.35 101.46 31.13 101.46 30.67C101.46 30.21 101.22 29.99 100.6 29.82L99.84 29.63C99.4662 29.5789 99.124 29.3933 98.8773 29.108C98.6307 28.8226 98.4965 28.4571 98.5 28.08C98.5 27.21 99.26 26.66 100.3 26.66C100.751 26.6146 101.202 26.747 101.557 27.029C101.912 27.3111 102.142 27.7204 102.2 28.17H101.31C101.255 27.9463 101.12 27.7506 100.93 27.62C100.749 27.4838 100.527 27.4133 100.3 27.42C99.8 27.42 99.41 27.66 99.41 28.07C99.41 28.48 99.65 28.67 100.2 28.83L101.04 29.05C101.415 29.0969 101.76 29.2813 102.008 29.5676C102.255 29.8538 102.388 30.2217 102.38 30.6C102.38 31.6 101.54 32.13 100.45 32.13C100.204 32.1622 99.9546 32.1456 99.7154 32.081C99.4762 32.0164 99.2521 31.9052 99.056 31.7537C98.8599 31.6023 98.6957 31.4135 98.5728 31.1983C98.4499 30.9832 98.3708 30.7458 98.34 30.5" />
<path d="M103 29.39C103 28.8502 103.16 28.3225 103.46 27.8737C103.76 27.4249 104.187 27.0751 104.685 26.8686C105.184 26.662 105.733 26.6079 106.262 26.7132C106.792 26.8185 107.278 27.0784 107.66 27.46C108.041 27.8412 108.301 28.3266 108.406 28.8552C108.512 29.3837 108.459 29.9317 108.253 30.43C108.048 30.9283 107.7 31.3548 107.253 31.6555C106.805 31.9562 106.279 32.1179 105.74 32.12C105.379 32.1267 105.021 32.0608 104.686 31.9261C104.351 31.7915 104.047 31.5908 103.791 31.3361C103.535 31.0813 103.334 30.7778 103.198 30.4434C103.062 30.1091 102.995 29.7509 103 29.39ZM107.54 29.39C107.524 29.0358 107.405 28.6941 107.197 28.4071C106.989 28.1202 106.701 27.9007 106.369 27.7759C106.037 27.6511 105.676 27.6264 105.33 27.7051C104.985 27.7837 104.67 27.9621 104.425 28.2181C104.179 28.4741 104.015 28.7965 103.951 29.1453C103.888 29.494 103.928 29.8538 104.067 30.1799C104.206 30.506 104.438 30.7841 104.733 30.9796C105.029 31.1752 105.376 31.2796 105.73 31.28C105.975 31.2831 106.219 31.2358 106.445 31.1408C106.672 31.0459 106.876 30.9055 107.046 30.7282C107.215 30.551 107.347 30.3407 107.432 30.1105C107.517 29.8803 107.554 29.635 107.54 29.39Z" />
<path d="M109.54 26.76H110.44V27.57C110.606 27.2795 110.849 27.0402 111.141 26.878C111.434 26.7158 111.766 26.6369 112.1 26.65C112.376 26.6386 112.651 26.6866 112.907 26.7908C113.163 26.895 113.394 27.053 113.583 27.2539C113.773 27.4549 113.917 27.6943 114.006 27.9558C114.096 28.2174 114.127 28.495 114.1 28.77V32H113.21V28.9C113.21 28.02 112.72 27.47 111.98 27.47C111.24 27.47 110.47 28.16 110.47 29.39V32H109.57L109.54 26.76Z" />
<path d="M0 28.42V27C2.58318 26.9935 5.05799 25.9612 6.88 24.13C8.70342 22.2881 9.72741 19.8018 9.73 17.21V0H11.19V17.16C11.1963 18.6437 10.9098 20.114 10.3469 21.4867C9.78411 22.8595 8.95598 24.1078 7.91 25.16C6.87076 26.197 5.63714 27.0187 4.2798 27.5781C2.92246 28.1375 1.46809 28.4236 0 28.42H0Z" />
<path d="M0 34.32V32.84C4.14543 32.8241 8.11522 31.1642 11.0381 28.2244C13.9609 25.2847 15.598 21.3055 15.59 17.16V0H17.05V17.16C17.058 21.6945 15.2677 26.0472 12.0717 29.2639C8.87558 32.4806 4.53448 34.2988 0 34.32H0Z" />
<path d="M52.7 28.42V27C55.2831 26.9935 57.7579 25.9612 59.58 24.13C61.4034 22.2881 62.4274 19.8018 62.43 17.21V0H63.8899V17.16C63.8962 18.6437 63.6097 20.114 63.0469 21.4867C62.4841 22.8595 61.6559 24.1078 60.61 25.16C59.5707 26.197 58.3371 27.0187 56.9798 27.5781C55.6224 28.1375 54.168 28.4236 52.7 28.42Z" />
<path d="M52.7 34.32V32.84C56.8454 32.8241 60.8152 31.1642 63.738 28.2244C66.6608 25.2847 68.2979 21.3055 68.29 17.16V0H69.75V17.16C69.7579 21.6945 67.9677 26.0472 64.7716 29.2639C61.5755 32.4806 57.2344 34.2988 52.7 34.32V34.32Z" />
<path d="M24.75 0.0599976H23.29V34.32H24.75V0.0599976Z" />
<path d="M30.52 14.75H30.67C33.6233 14.7002 36.4387 13.4919 38.5095 11.3856C40.5802 9.27931 41.7404 6.44371 41.74 3.49V0H40.28V3.49C40.2838 6.03537 39.2962 8.48218 37.5265 10.3116C35.7568 12.1411 33.3441 13.2094 30.8 13.29H30.67V0.09H29.22V14.74H30.52V14.75Z" />
<path d="M47.56 3.57V0H46.1V3.57C46.107 6.02521 45.5349 8.44746 44.43 10.64C43.3294 12.8245 41.7337 14.7216 39.77 16.18C39.3531 16.4907 38.919 16.7779 38.47 17.04C38.77 17.25 39.04 17.46 39.32 17.68L39.7 18L39.76 18.06C41.7069 19.5588 43.2825 21.4858 44.3647 23.6917C45.4468 25.8975 46.0063 28.323 46 30.78V34.26H47.5V30.78C47.5018 28.1557 46.9121 25.5648 45.7746 23.1999C44.6372 20.8349 42.9812 18.7568 40.93 17.12C42.9943 15.5157 44.6647 13.461 45.8138 11.1126C46.9628 8.76425 47.5601 6.1844 47.56 3.57V3.57Z" />
<path d="M35.78 20.65C35.4563 20.4881 35.1222 20.3478 34.78 20.23C33.5832 19.7707 32.3118 19.5367 31.03 19.54H29.22V34.32H30.67V21H31.07C32.2745 20.9962 33.4678 21.232 34.5803 21.6938C35.6928 22.1557 36.7023 22.8342 37.55 23.69C39.2692 25.4209 40.2359 27.7604 40.24 30.2V34.3H41.69V30.2C41.6919 28.2144 41.1398 26.2677 40.0957 24.5788C39.0517 22.8899 37.557 21.5258 35.78 20.64V20.65Z" />
</g>
<defs>
<clipPath id="clip0_14_214">
<rect width="114.07" height="34.32" fill="white"/>
</clipPath>
</defs>
</svg>
