<svg width="152" height="19" viewBox="0 0 152 19" fill="none" xmlns="http://www.w3.org/2000/svg">
<g clip-path="url(#clip0_14_160)">
<path d="M122.83 0C125.83 5.77 128.83 11.52 131.75 17.3C131.167 17.3401 130.583 17.3401 130 17.3C129.29 16 128.64 14.66 128 13.3H117.71C117.01 14.63 116.34 15.97 115.63 17.3H113.91C116.87 11.5333 119.843 5.76667 122.83 0ZM122.83 3.41C121.38 6.19 119.95 8.98 118.51 11.76H127.17C125.7 9 124.3 6.17 122.82 3.41H122.83Z" />
<path d="M137.9 0.26001C139.06 1.52001 140.16 2.82001 141.28 4.10001C144.17 7.38001 147.03 10.69 149.93 13.95C149.93 9.67001 149.93 5.39001 149.93 1.10001H151.56V18.21C147.52 13.62 143.52 9.00001 139.45 4.40001C139.45 8.70001 139.45 13 139.45 17.3H137.89C137.9 11.62 137.87 5.94001 137.9 0.26001Z" />
<path d="M34.33 0.659997C36.396 0.295694 38.5241 0.68231 40.33 1.75C41.7303 2.62419 42.8755 3.85212 43.65 5.31C44.4876 7.02122 44.754 8.95608 44.41 10.83C44.1339 12.2403 43.5136 13.5605 42.6042 14.6732C41.6947 15.7859 40.5244 16.6565 39.1973 17.2078C37.8702 17.759 36.4274 17.9737 34.9972 17.8328C33.5671 17.6919 32.194 17.1997 31 16.4C29.2586 15.2118 28.0022 13.4372 27.46 11.4C27.1515 10.0872 27.1242 8.72405 27.38 7.4C27.7429 5.71558 28.5967 4.17644 29.8337 2.97688C31.0706 1.77731 32.6352 0.971093 34.33 0.659997V0.659997ZM34.89 2.11C33.7274 2.26903 32.6215 2.71059 31.6691 3.39602C30.7166 4.08145 29.9467 4.98987 29.4267 6.04177C28.9067 7.09367 28.6524 8.25699 28.6861 9.42994C28.7198 10.6029 29.0404 11.7497 29.62 12.77C30.5247 14.3523 31.9966 15.5319 33.7379 16.0703C35.4793 16.6086 37.3601 16.4656 39 15.67C40.5577 14.8938 41.7931 13.5948 42.49 12C43.0104 10.6996 43.1592 9.28011 42.92 7.9C42.5848 6.09307 41.5668 4.48457 40.0772 3.40832C38.5876 2.33206 36.7407 1.87071 34.92 2.12L34.89 2.11Z" />
<path d="M50.32 2.07999C51.432 1.30429 52.7096 0.798875 54.0513 0.603982C55.393 0.409089 56.7617 0.530098 58.0484 0.957375C59.3351 1.38465 60.5042 2.1064 61.4628 3.06516C62.4214 4.02392 63.143 5.19322 63.57 6.47999H61.92C61.1756 4.72072 59.7668 3.32637 58 2.59999C56.7285 2.10265 55.3448 1.96428 54 2.19999C52.5748 2.47231 51.2661 3.17182 50.2479 4.2056C49.2297 5.23938 48.5501 6.55849 48.2994 7.98769C48.0487 9.4169 48.2388 10.8885 48.8445 12.2071C49.4501 13.5257 50.4425 14.6289 51.69 15.37C52.8447 16.0716 54.1798 16.4192 55.53 16.37C57.0002 16.3363 58.4242 15.8495 59.6073 14.976C60.7904 14.1026 61.6749 12.8851 62.14 11.49H63.77C63.4089 12.8353 62.7307 14.0745 61.7923 15.1039C60.8539 16.1333 59.6826 16.9229 58.3764 17.4066C57.0701 17.8903 55.667 18.0541 54.2845 17.8842C52.902 17.7142 51.5803 17.2156 50.43 16.43C48.6491 15.2044 47.379 13.3687 46.86 11.27C46.4882 9.58484 46.5921 7.82952 47.16 6.19999C47.7919 4.54948 48.8897 3.11813 50.32 2.07999V2.07999Z" />
<path d="M83.23 1.59C84.3498 0.976871 85.5905 0.617108 86.8646 0.536119C88.1387 0.455131 89.4151 0.654893 90.6035 1.12129C91.7919 1.5877 92.8634 2.30936 93.7423 3.23531C94.6212 4.16126 95.2861 5.2689 95.69 6.48C95.1263 6.52837 94.5588 6.50822 94 6.42C93.3264 4.90191 92.1649 3.65242 90.7 2.87C89.2125 2.11552 87.5114 1.89319 85.88 2.24C84.0871 2.63301 82.514 3.70046 81.4865 5.22132C80.4589 6.74218 80.0556 8.59996 80.36 10.41C80.5979 11.9456 81.3486 13.3555 82.49 14.41C83.1535 15.0694 83.9443 15.5868 84.8142 15.9306C85.6841 16.2745 86.615 16.4376 87.55 16.41C89.0288 16.3866 90.4639 15.9044 91.6569 15.0303C92.8499 14.1561 93.742 12.933 94.21 11.53H95.84C95.4806 12.8648 94.809 14.0951 93.8807 15.1193C92.9523 16.1436 91.7937 16.9324 90.5005 17.4208C89.2073 17.9092 87.8165 18.0831 86.4428 17.9282C85.0691 17.7733 83.752 17.2941 82.6 16.53C80.8632 15.3687 79.5891 13.6345 79 11.63C78.4198 9.54794 78.6189 7.32575 79.56 5.38C80.3773 3.77842 81.6555 2.45836 83.23 1.59V1.59Z" />
<path d="M0 1.10001H1.55V17.27H0V1.10001Z" />
<path d="M11 1.34999C11.11 1.25999 11.2 1.10999 11.35 1.10999C12.04 1.10999 12.72 1.10999 13.35 1.10999C12.11 2.40999 10.81 3.64999 9.56 4.92999C8.31 6.20999 6.88 7.63999 5.53 8.99999L13.19 17.3C12.5 17.3 11.81 17.35 11.13 17.3C10.8847 17.0997 10.6602 16.8753 10.46 16.63C8.1 14 5.71 11.51 3.37 8.92999C5.91 6.40999 8.45333 3.88332 11 1.34999Z" />
<path d="M15.94 1.10001H17.5C17.5 5.97001 17.5 10.84 17.5 15.72H27.27V17.3H16C15.94 11.9 16 6.50001 15.94 1.10001Z" />
<path d="M65.91 1.10001H67.46V17.27H65.91V1.10001Z" />
<path d="M76.44 1.79C76.656 1.54916 76.89 1.32518 77.14 1.12C77.85 1.07 78.57 1.12 79.29 1.12C77.99 2.47 76.64 3.77 75.29 5.12C73.94 6.47 72.74 7.71 71.44 9C73.99 11.76 76.55 14.52 79.09 17.29C78.47 17.29 77.85 17.29 77.23 17.29C77.01 17.29 76.88 17.14 76.74 17C74.25 14.31 71.74 11.63 69.27 9C71.65 6.56 74.06 4.19 76.44 1.79Z" />
<path d="M98 1.10001H99.59C99.59 4.02001 99.59 6.94001 99.59 9.86001C103.26 9.86001 106.94 9.86001 110.59 9.86001C110.59 6.95001 110.59 4.03001 110.59 1.11001H112.14C112.14 6.51001 112.14 11.91 112.14 17.31H110.59V11.4H99.59C99.59 13.4 99.59 15.33 99.59 17.29H98C98 11.9 98 6.50001 98 1.10001Z" />
<path d="M133.49 1.10999C134 1.10999 134.49 1.10999 135.04 1.10999C135.04 6.49999 135.04 11.9 135.04 17.3H133.49C133.48 11.9 133.49 6.49999 133.49 1.10999Z" />
</g>
<defs>
<clipPath id="clip0_14_160">
<rect width="151.58" height="18.21" fill="white"/>
</clipPath>
</defs>
</svg>
