<svg width="800" height="800" viewBox="0 0 800 800" xmlns="http://www.w3.org/2000/svg">
<path d="M685.896 172.157C685.527 172.463 685.189 172.432 684.882 172.063L673.975 158.94C673.852 158.793 673.717 158.78 673.57 158.903L658.564 171.375C658.416 171.498 658.404 171.633 658.527 171.781L665.522 180.197C665.829 180.566 665.798 180.904 665.429 181.211L663.934 182.453C663.564 182.76 663.226 182.729 662.92 182.36L655.924 173.944C655.801 173.796 655.666 173.783 655.519 173.906L640.458 186.424C640.31 186.547 640.298 186.682 640.42 186.83L651.328 199.953C651.635 200.322 651.603 200.66 651.234 200.967L649.739 202.209C649.37 202.516 649.032 202.485 648.725 202.116L635.655 186.391C635.348 186.021 635.379 185.683 635.748 185.377L673.401 154.081C673.77 153.774 674.108 153.806 674.414 154.175L687.485 169.9C687.792 170.269 687.76 170.607 687.391 170.914L685.896 172.157Z"/>
<path d="M705.273 199.604C704.879 199.878 704.545 199.818 704.271 199.424L694.613 185.53C694.504 185.373 694.37 185.349 694.213 185.458L678.191 196.595C678.033 196.705 678.009 196.838 678.119 196.996L684.324 205.923C684.598 206.317 684.538 206.651 684.144 206.925L682.548 208.035C682.154 208.309 681.82 208.249 681.546 207.855L675.34 198.928C675.231 198.77 675.097 198.746 674.94 198.855L656.435 211.718C656.041 211.992 655.707 211.932 655.433 211.538L654.077 209.587C653.803 209.193 653.863 208.859 654.257 208.585L694.458 180.64C694.853 180.366 695.187 180.426 695.461 180.82L707.05 197.492C707.324 197.886 707.263 198.22 706.869 198.494L705.273 199.604Z"/>
<path d="M669.429 232.857C669.184 232.444 669.268 232.116 669.681 231.871L711.793 206.897C712.206 206.652 712.535 206.736 712.78 207.149L713.992 209.193C714.236 209.606 714.152 209.935 713.74 210.18L671.628 235.153C671.215 235.398 670.886 235.314 670.641 234.901L669.429 232.857Z"/>
<path d="M685.324 262.783C685.129 262.398 685.17 262.054 685.448 261.752L702.243 244.386C702.35 244.278 702.371 244.16 702.306 244.031L699.089 237.67C699.003 237.499 698.874 237.457 698.702 237.543L678.527 247.744C678.098 247.961 677.776 247.855 677.559 247.427L676.487 245.306C676.271 244.878 676.377 244.556 676.805 244.339L720.497 222.247C720.926 222.031 721.248 222.137 721.465 222.565L726.501 232.524C728.017 235.523 728.127 238.506 726.83 241.474C725.534 244.442 723.087 246.836 719.489 248.656C716.619 250.107 713.863 250.72 711.222 250.496C708.58 250.271 706.354 249.273 704.543 247.499C704.414 247.349 704.274 247.339 704.124 247.469L687.363 265.06L687.138 265.255C686.838 265.406 686.591 265.289 686.396 264.904L685.324 262.783ZM719.972 227.112C719.885 226.94 719.756 226.898 719.585 226.985L702.044 235.854C701.872 235.941 701.83 236.069 701.917 236.241L705.23 242.795C706.292 244.894 707.961 246.174 710.239 246.636C712.559 247.077 715.068 246.615 717.767 245.25C720.509 243.864 722.368 242.117 723.346 240.009C724.367 237.879 724.347 235.765 723.286 233.666L719.972 227.112Z"/>
<path d="M748.683 289.948C749.047 289.982 749.288 290.182 749.406 290.547L750.158 292.877C750.305 293.333 750.151 293.635 749.694 293.783L703.104 308.831C702.647 308.979 702.345 308.824 702.198 308.367L701.467 306.106C701.32 305.65 701.474 305.347 701.931 305.2L740.779 292.652C740.916 292.608 740.97 292.54 740.94 292.449C740.911 292.358 740.843 292.304 740.737 292.288L721.585 290.151C721.175 290.132 720.919 289.962 720.816 289.643C720.698 289.277 720.776 288.974 721.052 288.734L735.245 275.751C735.306 275.63 735.323 275.524 735.293 275.433C735.278 275.387 735.202 275.387 735.065 275.431L696.354 287.934C695.898 288.082 695.596 287.927 695.448 287.47L694.718 285.209C694.57 284.753 694.725 284.45 695.182 284.303L741.772 269.255C742.228 269.107 742.531 269.262 742.678 269.718L743.431 272.048C743.549 272.413 743.47 272.716 743.194 272.957L727.943 287.113C727.867 287.189 727.843 287.272 727.873 287.363C727.902 287.455 727.97 287.508 728.076 287.524L748.683 289.948Z"/>
<path d="M756.273 330.168C755.804 330.268 755.519 330.084 755.418 329.615L751.843 312.93C751.803 312.742 751.689 312.668 751.501 312.708L732.422 316.797C732.234 316.837 732.161 316.951 732.201 317.139L734.494 327.84C734.595 328.309 734.41 328.594 733.941 328.694L732.04 329.102C731.571 329.202 731.286 329.018 731.185 328.549L728.892 317.848C728.852 317.66 728.738 317.586 728.55 317.626L709.401 321.73C709.213 321.77 709.139 321.884 709.18 322.072L712.755 338.757C712.856 339.226 712.671 339.511 712.202 339.612L710.301 340.019C709.832 340.12 709.547 339.935 709.446 339.466L705.162 319.472C705.061 319.003 705.245 318.718 705.715 318.617L753.588 308.358C754.057 308.258 754.342 308.442 754.443 308.912L758.727 328.906C758.828 329.375 758.643 329.66 758.174 329.761L756.273 330.168Z"/>
<path d="M710.6 348.529C710.547 348.052 710.759 347.787 711.236 347.733L759.895 342.318C760.372 342.265 760.637 342.477 760.69 342.954L761.861 353.473C762.254 357.004 761.372 359.927 759.215 362.244C757.106 364.555 754.023 365.937 749.968 366.388L726.211 369.032C722.156 369.483 718.822 368.816 716.208 367.03C713.643 365.239 712.163 362.578 711.77 359.048L710.6 348.529ZM714.592 351.2C714.401 351.221 714.316 351.327 714.337 351.518L715.134 358.673C715.441 361.006 716.528 362.744 718.394 363.889C720.313 365.076 722.8 365.499 725.853 365.16L749.395 362.54C752.496 362.195 754.852 361.232 756.463 359.652C758.08 358.12 758.755 356.161 758.49 353.776L757.702 346.692C757.68 346.501 757.574 346.416 757.383 346.437L714.592 351.2Z"/>
<path d="M713.405 380.814C713.387 380.334 713.618 380.085 714.098 380.068L763.025 378.282C763.505 378.265 763.754 378.496 763.771 378.976L763.858 381.35C763.875 381.83 763.644 382.078 763.165 382.096L714.237 383.881C713.757 383.899 713.509 383.668 713.491 383.188L713.405 380.814Z"/>
<path d="M713.201 412.981C713.214 412.549 713.438 412.292 713.873 412.209L723.36 410.554C723.456 410.557 723.529 410.511 723.58 410.416C723.63 410.37 723.656 410.299 723.659 410.203L724.09 396.097C724.093 396.001 724.072 395.905 724.027 395.807C723.98 395.758 723.909 395.732 723.813 395.729L714.445 393.498C714.014 393.436 713.806 393.166 713.821 392.686L713.894 390.311C713.901 390.071 713.979 389.882 714.127 389.742C714.274 389.651 714.467 389.632 714.705 389.688L763.308 402.122C763.737 402.231 763.945 402.501 763.932 402.933L763.844 405.812C763.829 406.292 763.605 406.549 763.172 406.584L713.898 416.099L713.754 416.095C713.322 416.082 713.113 415.859 713.126 415.428L713.201 412.981ZM727.531 396.635C727.339 396.629 727.241 396.698 727.236 396.842L726.847 409.58C726.843 409.724 726.937 409.799 727.129 409.805L757.766 404.33C757.911 404.286 757.985 404.24 757.986 404.192C757.988 404.144 757.917 404.094 757.775 404.042L727.531 396.635Z"/>
<path d="M683.583 525.205C685.096 521.991 687.419 519.928 690.554 519.016C693.732 518.124 697.189 518.557 700.924 520.315L734.084 535.919C734.518 536.123 734.633 536.442 734.429 536.877L733.417 539.026C733.213 539.461 732.893 539.576 732.459 539.371L698.908 523.583C696.259 522.337 693.802 521.977 691.539 522.503C689.298 523.093 687.667 524.474 686.645 526.646C685.623 528.817 685.599 530.954 686.573 533.057C687.569 535.223 689.392 536.93 692.041 538.176L725.592 553.964C726.027 554.169 726.141 554.488 725.937 554.922L724.925 557.072C724.721 557.507 724.402 557.622 723.967 557.417L690.807 541.813C687.116 540.076 684.611 537.677 683.292 534.617C681.974 531.556 682.071 528.419 683.583 525.205Z"/>
<path d="M669.263 552.194C671.001 549.263 673.4 547.477 676.459 546.835C679.559 546.218 682.72 546.865 685.94 548.774L687.24 549.546C687.653 549.791 687.737 550.119 687.492 550.532L686.317 552.514C686.072 552.927 685.744 553.011 685.331 552.766L684.154 552.068C681.718 550.624 679.402 550.059 677.206 550.375C674.985 550.732 673.299 551.881 672.148 553.822C670.998 555.762 670.765 557.801 671.451 559.938C672.137 562.074 673.636 563.828 675.948 565.199C677.476 566.105 678.981 566.579 680.463 566.621C681.92 566.704 683.323 566.503 684.67 566.019C686.035 565.6 688.146 564.816 691.005 563.665C693.888 562.473 696.189 561.605 697.907 561.061C699.641 560.583 701.451 560.401 703.337 560.514C705.264 560.653 707.239 561.322 709.262 562.521C712.441 564.407 714.413 566.776 715.176 569.628C715.94 572.481 715.49 575.311 713.825 578.118C712.037 581.132 709.594 582.947 706.493 583.564C703.393 584.181 700.191 583.51 696.888 581.552L695.34 580.634C694.927 580.389 694.843 580.06 695.088 579.647L696.3 577.603C696.545 577.19 696.874 577.106 697.287 577.351L698.835 578.269C701.271 579.714 703.599 580.258 705.82 579.9C708.058 579.609 709.776 578.452 710.976 576.429C712.053 574.612 712.286 572.714 711.675 570.733C711.105 568.776 709.644 567.101 707.29 565.705C705.887 564.873 704.522 564.398 703.196 564.281C701.845 564.206 700.435 564.374 698.963 564.785C697.467 565.237 695.388 566.013 692.727 567.113C689.466 568.472 686.923 569.42 685.098 569.956C683.273 570.492 681.517 570.678 679.828 570.514C678.115 570.391 676.33 569.779 674.472 568.677C671.087 566.669 668.933 564.137 668.012 561.079C667.108 558.087 667.525 555.126 669.263 552.194Z"/>
<path d="M685.53 614.138C685.142 613.856 685.089 613.521 685.371 613.132L695.401 599.327C695.514 599.172 695.493 599.038 695.337 598.925L679.552 587.456C679.396 587.343 679.262 587.364 679.15 587.52L672.717 596.374C672.435 596.762 672.099 596.815 671.711 596.533L670.138 595.39C669.75 595.108 669.697 594.773 669.979 594.385L676.412 585.531C676.525 585.375 676.503 585.241 676.348 585.128L660.504 573.617C660.349 573.504 660.215 573.526 660.102 573.681L650.072 587.486C649.79 587.874 649.455 587.927 649.066 587.645L647.494 586.503C647.105 586.22 647.052 585.885 647.334 585.497L659.353 568.954C659.636 568.566 659.971 568.513 660.359 568.795L699.969 597.573C700.357 597.855 700.41 598.19 700.128 598.579L688.109 615.121C687.827 615.51 687.491 615.563 687.103 615.281L685.53 614.138Z"/>
<path d="M628.557 607.227C628.842 606.903 629.177 606.814 629.56 606.959L651.927 616.092C652.066 616.151 652.184 616.126 652.279 616.018L656.988 610.667C657.115 610.523 657.106 610.388 656.962 610.261L639.99 595.325C639.629 595.008 639.608 594.669 639.925 594.309L641.495 592.525C641.812 592.165 642.15 592.143 642.511 592.461L679.266 624.805C679.626 625.122 679.648 625.461 679.331 625.821L671.958 634.199C669.738 636.721 667.01 637.933 663.772 637.833C660.535 637.734 657.403 636.352 654.376 633.689C651.962 631.564 650.368 629.234 649.594 626.699C648.82 624.163 648.919 621.725 649.892 619.385C649.983 619.209 649.94 619.075 649.764 618.985L627.201 609.967L626.938 609.83C626.685 609.609 626.702 609.335 626.987 609.011L628.557 607.227ZM674.555 626.126C674.681 625.982 674.673 625.846 674.529 625.719L659.773 612.734C659.628 612.607 659.493 612.616 659.366 612.76L654.515 618.273C652.961 620.039 652.393 622.065 652.811 624.351C653.265 626.669 654.627 628.826 656.897 630.824C659.203 632.853 661.517 633.93 663.837 634.054C666.194 634.21 668.149 633.405 669.703 631.639L674.555 626.126Z"/>
<path d="M625.97 674.404C625.658 674.039 625.684 673.7 626.049 673.388L639.018 662.297C639.164 662.172 639.174 662.037 639.049 661.891L626.367 647.062C626.242 646.916 626.106 646.905 625.961 647.03L617.643 654.144C617.278 654.456 616.94 654.429 616.628 654.064L615.364 652.587C615.052 652.222 615.079 651.884 615.443 651.572L623.761 644.458C623.907 644.333 623.917 644.198 623.793 644.052L611.063 629.168C610.938 629.022 610.803 629.012 610.657 629.137L597.688 640.228C597.323 640.54 596.985 640.514 596.673 640.149L595.409 638.672C595.097 638.307 595.124 637.968 595.489 637.656L611.029 624.365C611.394 624.053 611.732 624.08 612.044 624.444L643.868 661.654C644.18 662.019 644.154 662.357 643.789 662.669L628.249 675.96C627.884 676.272 627.545 676.246 627.233 675.881L625.97 674.404Z"/>
<path d="M590.514 641.518C590.711 641.38 590.909 641.329 591.11 641.364C591.299 641.466 591.423 641.642 591.482 641.894L596.982 667.508C596.986 667.681 597.069 667.798 597.23 667.861L619.462 681.72L619.686 681.914C619.907 682.228 619.841 682.51 619.487 682.758L617.366 684.248C617.052 684.469 616.726 684.463 616.387 684.232L597.934 672.119C597.812 672.028 597.711 672.011 597.633 672.066C597.554 672.121 597.537 672.221 597.58 672.367L602.719 693.834C602.822 694.231 602.716 694.54 602.402 694.761L600.34 696.21C600.144 696.348 599.951 696.366 599.762 696.264C599.562 696.229 599.432 696.085 599.372 695.834L593.831 670.161C593.787 670.016 593.705 669.898 593.583 669.808L571.392 656.008L571.168 655.814C570.947 655.5 571.014 655.218 571.367 654.97L573.429 653.521C573.743 653.301 574.07 653.306 574.408 653.537L592.82 665.592C592.942 665.682 593.029 665.68 593.08 665.585C593.158 665.53 593.19 665.45 593.174 665.343L588.135 643.893C588.032 643.496 588.138 643.188 588.452 642.967L590.514 641.518Z"/>
<path d="M578.914 708.967C575.986 710.615 572.999 710.838 569.952 709.634C566.929 708.472 564.416 706.114 562.414 702.559C560.412 699.004 559.709 695.654 560.306 692.508C560.861 689.386 562.582 687.012 565.468 685.386L572.431 681.464C572.598 681.37 572.635 681.239 572.541 681.072L561.552 661.562C561.317 661.144 561.408 660.817 561.826 660.581L563.896 659.415C564.315 659.18 564.641 659.271 564.877 659.689L588.974 702.474C589.21 702.892 589.118 703.219 588.7 703.455L578.914 708.967ZM567.524 687.864C565.475 689.018 564.282 690.764 563.946 693.102C563.61 695.44 564.196 697.947 565.703 700.624C567.234 703.342 569.087 705.164 571.26 706.088C573.433 707.012 575.545 706.897 577.594 705.743L584.056 702.104C584.223 702.01 584.259 701.879 584.165 701.712L574.378 684.334C574.284 684.167 574.153 684.131 573.986 684.225L567.524 687.864Z"/>
<path d="M537.492 726.191C537.296 725.753 537.418 725.436 537.856 725.24L553.437 718.283C553.613 718.205 553.661 718.078 553.583 717.903L545.628 700.086C545.55 699.911 545.423 699.862 545.248 699.941L535.254 704.402C534.816 704.598 534.499 704.477 534.303 704.038L533.511 702.263C533.315 701.825 533.437 701.508 533.875 701.312L543.868 696.851C544.043 696.772 544.092 696.645 544.014 696.47L536.029 678.588C535.951 678.412 535.824 678.364 535.649 678.442L520.067 685.399C519.629 685.595 519.312 685.473 519.116 685.035L518.324 683.26C518.128 682.822 518.25 682.505 518.688 682.309L537.359 673.972C537.798 673.777 538.115 673.898 538.31 674.336L558.271 719.043C558.467 719.481 558.345 719.798 557.907 719.994L539.236 728.33C538.797 728.526 538.48 728.405 538.285 727.966L537.492 726.191Z"/>
<path d="M491.556 691.76C491.965 691.623 492.3 691.714 492.558 692.032L507.321 711.156C507.412 711.277 507.526 711.315 507.663 711.269L514.421 709.004C514.603 708.943 514.664 708.821 514.603 708.639L507.418 687.203C507.265 686.748 507.417 686.444 507.872 686.292L510.125 685.536C510.58 685.384 510.884 685.535 511.036 685.99L526.596 732.412C526.748 732.867 526.597 733.171 526.142 733.324L515.56 736.87C512.374 737.938 509.406 737.617 506.656 735.906C503.906 734.195 501.89 731.429 500.609 727.606C499.587 724.556 499.377 721.741 499.98 719.16C500.583 716.578 501.893 714.519 503.909 712.983C504.076 712.876 504.106 712.74 503.999 712.573L489.009 693.449L488.849 693.199C488.742 692.881 488.893 692.653 489.303 692.515L491.556 691.76ZM521.858 731.19C522.04 731.129 522.1 731.008 522.039 730.826L515.793 712.189C515.732 712.007 515.61 711.946 515.428 712.007L508.465 714.341C506.235 715.089 504.727 716.556 503.941 718.743C503.171 720.976 503.266 723.526 504.227 726.393C505.203 729.306 506.664 731.398 508.609 732.67C510.569 733.987 512.664 734.272 514.894 733.524L521.858 731.19Z"/>
<path d="M481.005 694.668C481.47 694.548 481.762 694.72 481.882 695.185L494.101 742.596C494.221 743.061 494.048 743.353 493.584 743.473L491.283 744.066C490.818 744.186 490.526 744.013 490.406 743.548L478.187 696.138C478.067 695.673 478.239 695.381 478.704 695.261L481.005 694.668Z"/>
<path d="M454.815 748.487C454.728 748.015 454.921 747.735 455.393 747.649L472.176 744.566C472.365 744.531 472.442 744.42 472.407 744.231L468.882 725.04C468.848 724.851 468.736 724.774 468.547 724.808L457.783 726.786C457.311 726.872 457.032 726.68 456.945 726.207L456.594 724.295C456.507 723.823 456.7 723.544 457.172 723.457L467.936 721.48C468.125 721.445 468.202 721.334 468.167 721.145L464.629 701.883C464.594 701.694 464.483 701.617 464.294 701.652L447.511 704.735C447.038 704.821 446.759 704.629 446.672 704.156L446.321 702.244C446.234 701.772 446.427 701.493 446.899 701.406L467.011 697.712C467.483 697.626 467.762 697.818 467.849 698.29L476.694 746.445C476.78 746.917 476.588 747.196 476.116 747.283L456.004 750.977C455.532 751.064 455.253 750.871 455.166 750.399L454.815 748.487Z"/>
<path d="M422.749 753.91C422.788 754.389 422.568 754.647 422.09 754.686L419.793 754.873C419.315 754.912 419.056 754.692 419.017 754.214L415.048 705.415C415.009 704.937 415.229 704.678 415.707 704.639L418.506 704.411C418.889 704.38 419.168 704.55 419.342 704.921L437.896 743.865C437.956 744.005 438.032 744.047 438.123 743.991C438.219 743.983 438.261 743.908 438.249 743.764L434.926 703.798C434.888 703.32 435.107 703.061 435.586 703.022L437.954 702.829C438.432 702.791 438.691 703.01 438.73 703.489L442.699 752.288C442.738 752.766 442.518 753.025 442.04 753.064L439.313 753.285C438.93 753.317 438.651 753.147 438.477 752.775L419.868 714.053C419.809 713.913 419.731 713.847 419.635 713.855C419.544 713.91 419.504 714.01 419.515 714.154L422.749 753.91Z"/>
<path d="M394.501 704.111C398.004 704.188 400.812 705.33 402.924 707.537C404.986 709.791 405.978 712.742 405.898 716.389L405.29 744.03C405.21 747.629 404.091 750.485 401.932 752.598C399.725 754.71 396.87 755.728 393.367 755.651C389.816 755.572 387.009 754.43 384.945 752.225C382.833 750.018 381.816 747.115 381.895 743.515L381.925 742.148C381.931 741.908 382.007 741.717 382.154 741.577C382.301 741.436 382.471 741.368 382.663 741.372L385.041 741.28C385.521 741.291 385.756 741.536 385.745 742.016L385.706 743.815C385.651 746.311 386.327 748.318 387.734 749.837C389.14 751.405 391.042 752.215 393.442 752.267C395.793 752.319 397.705 751.593 399.179 750.089C400.651 748.633 401.415 746.657 401.47 744.162L402.089 716.017C402.144 713.521 401.468 711.49 400.062 709.923C398.656 708.355 396.778 707.546 394.426 707.494C392.075 707.443 390.163 708.169 388.689 709.673C387.168 711.176 386.38 713.175 386.325 715.67L386.288 717.326C386.278 717.806 386.032 718.04 385.553 718.03L383.18 717.833C382.7 717.823 382.466 717.578 382.476 717.098L382.503 715.874C382.583 712.227 383.728 709.323 385.936 707.163C388.095 705.05 390.95 704.033 394.501 704.111Z"/>
<path d="M346.891 748.524C346.948 748.047 347.215 747.837 347.692 747.894L364.635 749.921C364.825 749.943 364.932 749.859 364.955 749.669L367.272 730.295C367.295 730.104 367.211 729.998 367.02 729.975L356.154 728.675C355.677 728.618 355.467 728.351 355.524 727.875L355.755 725.944C355.812 725.468 356.079 725.258 356.556 725.315L367.422 726.615C367.613 726.637 367.719 726.554 367.742 726.363L370.068 706.918C370.091 706.727 370.007 706.62 369.816 706.597L352.873 704.571C352.396 704.514 352.186 704.247 352.243 703.771L352.474 701.84C352.531 701.364 352.798 701.154 353.275 701.211L373.578 703.639C374.055 703.696 374.264 703.963 374.207 704.44L368.393 753.053C368.336 753.53 368.07 753.74 367.593 753.683L347.29 751.254C346.813 751.197 346.603 750.931 346.66 750.454L346.891 748.524Z"/>
<path d="M244.361 661.346C247.423 663.146 249.265 665.648 249.886 668.853C250.484 672.1 249.736 675.502 247.644 679.061L229.071 710.654C228.828 711.068 228.5 711.153 228.086 710.91L226.038 709.706C225.624 709.462 225.539 709.134 225.782 708.72L244.573 676.754C246.057 674.23 246.641 671.817 246.324 669.515C245.941 667.23 244.715 665.479 242.646 664.263C240.577 663.047 238.451 662.827 236.268 663.604C234.02 664.398 232.154 666.057 230.67 668.581L211.878 700.547C211.635 700.96 211.306 701.046 210.893 700.802L208.844 699.598C208.431 699.355 208.345 699.027 208.589 698.613L227.161 667.02C229.229 663.502 231.847 661.227 235.015 660.195C238.184 659.162 241.299 659.545 244.361 661.346Z"/>
<path d="M225.008 649.694C225.402 649.968 225.462 650.302 225.188 650.696L197.253 690.904C196.979 691.299 196.645 691.359 196.251 691.085L194.3 689.729C193.906 689.455 193.846 689.121 194.119 688.727L222.055 648.519C222.328 648.124 222.662 648.064 223.057 648.338L225.008 649.694Z"/>
<path d="M202.487 632.836C202.846 633.155 202.866 633.494 202.548 633.853L170.048 670.471C169.729 670.83 169.391 670.85 169.032 670.531L161.116 663.506C158.459 661.148 157.156 658.386 157.205 655.221C157.223 652.092 158.585 649.002 161.294 645.95L177.161 628.072C179.869 625.021 182.792 623.283 185.929 622.858C189.034 622.469 191.914 623.453 194.571 625.811L202.487 632.836ZM197.734 633.528C197.861 633.384 197.853 633.249 197.71 633.121L192.325 628.342C190.534 626.816 188.562 626.254 186.41 626.654C184.19 627.058 182.06 628.409 180.021 630.707L164.297 648.424C162.226 650.757 161.122 653.05 160.984 655.302C160.81 657.523 161.621 659.429 163.416 661.023L168.747 665.754C168.891 665.882 169.026 665.873 169.154 665.73L197.734 633.528Z"/>
<path d="M130.009 628.364C130.361 628.037 130.7 628.049 131.027 628.4L142.658 640.886C142.789 641.026 142.924 641.031 143.065 640.9L157.342 627.601C157.483 627.47 157.488 627.334 157.357 627.194L149.897 619.186C149.57 618.835 149.582 618.495 149.933 618.168L151.356 616.843C151.707 616.516 152.046 616.528 152.373 616.879L159.833 624.887C159.964 625.028 160.099 625.033 160.24 624.902L174.57 611.553C174.71 611.422 174.715 611.287 174.584 611.146L162.953 598.66C162.626 598.309 162.638 597.97 162.99 597.642L164.412 596.317C164.763 595.99 165.102 596.002 165.43 596.353L179.367 611.316C179.694 611.667 179.682 612.006 179.331 612.333L143.506 645.705C143.155 646.032 142.815 646.02 142.488 645.669L128.551 630.706C128.224 630.355 128.236 630.016 128.587 629.689L130.009 628.364Z"/>
<path d="M154.948 582.413C157.024 585.115 157.792 588.005 157.252 591.084C156.674 594.192 154.901 596.886 151.932 599.167L150.733 600.089C150.353 600.381 150.016 600.337 149.724 599.956L148.32 598.13C148.027 597.749 148.071 597.412 148.452 597.12L149.537 596.286C151.782 594.561 153.166 592.62 153.688 590.463C154.181 588.268 153.74 586.277 152.365 584.488C150.991 582.699 149.184 581.726 146.945 581.57C144.706 581.414 142.521 582.155 140.39 583.792C138.982 584.875 137.983 586.096 137.394 587.457C136.776 588.779 136.442 590.156 136.391 591.587C136.273 593.009 136.218 595.261 136.225 598.343C136.262 601.463 136.214 603.921 136.081 605.718C135.881 607.506 135.379 609.254 134.573 610.963C133.729 612.701 132.375 614.287 130.51 615.72C127.579 617.972 124.648 618.923 121.715 618.573C118.783 618.224 116.323 616.755 114.334 614.166C112.199 611.388 111.42 608.445 111.998 605.337C112.576 602.229 114.388 599.506 117.433 597.166L118.86 596.069C119.241 595.777 119.577 595.821 119.87 596.201L121.317 598.085C121.61 598.466 121.566 598.802 121.185 599.095L119.758 600.192C117.512 601.917 116.143 603.877 115.65 606.072C115.09 608.258 115.527 610.283 116.96 612.148C118.247 613.823 119.923 614.744 121.989 614.912C124.017 615.109 126.116 614.374 128.286 612.707C129.58 611.713 130.527 610.622 131.128 609.434C131.699 608.208 132.067 606.835 132.231 605.317C132.367 603.76 132.418 601.541 132.384 598.662C132.333 595.129 132.397 592.416 132.577 590.523C132.756 588.629 133.236 586.929 134.015 585.422C134.765 583.877 135.996 582.447 137.709 581.131C140.83 578.733 143.981 577.673 147.162 577.953C150.276 578.224 152.871 579.71 154.948 582.413Z"/>
<path d="M142.899 566.077C143.164 566.477 143.097 566.81 142.696 567.075L101.884 594.119C101.484 594.385 101.151 594.317 100.886 593.917L99.5734 591.936C99.3083 591.536 99.3757 591.204 99.7759 590.938L140.589 563.894C140.989 563.629 141.321 563.696 141.586 564.096L142.899 566.077Z"/>
<path d="M130.697 545.535C132.416 548.588 132.886 551.573 132.106 554.492C131.26 557.392 129.311 559.702 126.258 561.421L101.666 575.272C98.6128 576.992 95.6479 577.449 92.7713 576.646C89.8293 575.824 87.4985 573.886 85.779 570.833C84.0594 567.78 83.6107 564.782 84.4327 561.84C85.2129 558.922 87.1295 556.603 90.1826 554.883L92.9429 553.329C93.3611 553.093 93.688 553.185 93.9236 553.603L95.0896 555.673C95.3251 556.091 95.2338 556.418 94.8156 556.654L91.9925 558.244C89.8177 559.469 88.4354 561.073 87.8456 563.058C87.2557 565.043 87.5497 567.081 88.7275 569.172C89.9052 571.264 91.4957 572.571 93.4989 573.096C95.502 573.62 97.591 573.27 99.7658 572.045L124.483 558.124C126.658 556.899 128.04 555.294 128.63 553.309C129.22 551.324 128.926 549.286 127.748 547.195C126.57 545.104 124.98 543.796 122.977 543.272C120.974 542.747 118.885 543.098 116.71 544.322L107.864 549.304C107.697 549.399 107.66 549.529 107.755 549.697L111.076 555.594C111.312 556.012 111.22 556.339 110.802 556.574L109.108 557.528C108.69 557.764 108.363 557.673 108.127 557.254L103.146 548.409C102.91 547.991 103.001 547.664 103.42 547.428L114.774 541.033C117.827 539.313 120.825 538.865 123.767 539.687C126.667 540.532 128.977 542.482 130.697 545.535Z"/>
<path d="M66.8807 529.061C66.44 529.252 66.1245 529.127 65.9342 528.686L65.0207 526.571C64.8303 526.13 64.9555 525.815 65.3962 525.624L110.343 506.211C110.784 506.021 111.099 506.146 111.289 506.587L112.403 509.165C112.555 509.517 112.484 509.836 112.188 510.12L81.2539 540.186C81.1407 540.287 81.1252 540.372 81.2073 540.442C81.2454 540.53 81.3305 540.545 81.4627 540.488L118.251 524.52C118.692 524.33 119.007 524.455 119.197 524.896L120.139 527.077C120.33 527.518 120.205 527.833 119.764 528.024L74.8172 547.437C74.3765 547.627 74.061 547.502 73.8707 547.061L72.7859 544.549C72.6336 544.197 72.7052 543.878 73.0006 543.594L103.708 513.547C103.821 513.446 103.859 513.352 103.821 513.263C103.738 513.194 103.631 513.188 103.499 513.245L66.8807 529.061Z"/>
<path d="M76.4115 377.768C80.7315 377.72 84.0915 378.824 86.4915 381.08C88.8435 383.336 90.0195 386.408 90.0195 390.296V400.592C90.0195 401.072 89.7795 401.312 89.2995 401.312H40.3395C39.8595 401.312 39.6195 401.072 39.6195 400.592V390.728C39.6195 386.744 40.7475 383.624 43.0035 381.368C45.2595 379.112 48.4755 377.984 52.6515 377.984C58.1715 377.984 61.8915 380.048 63.8115 384.176C63.8595 384.272 63.9075 384.344 63.9555 384.392C64.0035 384.392 64.0515 384.368 64.0995 384.32C65.1555 382.208 66.7395 380.6 68.8515 379.496C70.9155 378.344 73.4355 377.768 76.4115 377.768ZM43.0035 397.208C43.0035 397.4 43.0995 397.496 43.2915 397.496H62.1555C62.3475 397.496 62.4435 397.4 62.4435 397.208V390.656C62.4435 387.824 61.6035 385.64 59.9235 384.104C58.2435 382.52 55.8915 381.728 52.8675 381.728C49.7475 381.728 47.3235 382.52 45.5955 384.104C43.8675 385.688 43.0035 387.872 43.0035 390.656V397.208ZM86.5635 390.512C86.5635 387.68 85.6515 385.496 83.8275 383.96C82.0035 382.376 79.4355 381.584 76.1235 381.584C72.7635 381.584 70.1475 382.376 68.2755 383.96C66.4035 385.544 65.4675 387.728 65.4675 390.512V397.208C65.4675 397.4 65.5635 397.496 65.7555 397.496H86.2755C86.4675 397.496 86.5635 397.4 86.5635 397.208V390.512Z"/>
<path d="M92.8053 350.416C92.7608 350.846 92.5402 351.113 92.1434 351.216L68.6252 356.744C68.4771 356.777 68.3956 356.865 68.3807 357.008L67.6468 364.098C67.627 364.289 67.7126 364.395 67.9036 364.415L90.3914 366.742C90.8689 366.792 91.0829 367.055 91.0335 367.533L90.7888 369.896C90.7394 370.374 90.476 370.588 89.9985 370.538L41.2988 365.497C40.8213 365.447 40.6073 365.184 40.6567 364.707L41.8058 353.606C42.1518 350.264 43.6724 347.695 46.3677 345.899C49.0629 344.103 52.4158 343.412 56.4264 343.827C59.6253 344.158 62.2751 345.132 64.3758 346.749C66.4765 348.366 67.8091 350.41 68.3736 352.882C68.4016 353.078 68.5135 353.162 68.7095 353.134L92.3215 347.398L92.6154 347.356C92.9496 347.391 93.0945 347.623 93.05 348.053L92.8053 350.416ZM44.3712 361.689C44.3514 361.88 44.437 361.985 44.628 362.005L64.1795 364.029C64.3705 364.049 64.4759 363.963 64.4956 363.772L65.2518 356.467C65.494 354.128 64.7821 352.148 63.116 350.528C61.4023 348.903 59.0414 347.934 56.0335 347.623C52.9778 347.307 50.4687 347.771 48.5061 349.015C46.4958 350.255 45.3695 352.045 45.1273 354.384L44.3712 361.689Z"/>
<path d="M98.2525 321.414C98.1661 321.837 97.9017 322.052 97.4592 322.06L87.8289 322.079C87.7349 322.06 87.6547 322.092 87.5885 322.177C87.5319 322.214 87.494 322.28 87.4748 322.374L84.6529 336.201C84.6337 336.295 84.6381 336.394 84.6659 336.498C84.7033 336.554 84.7691 336.592 84.8631 336.611L93.7159 340.402C94.1296 340.535 94.2885 340.837 94.1925 341.308L93.7174 343.636C93.6694 343.871 93.5604 344.045 93.3906 344.157C93.2303 344.222 93.0373 344.207 92.8118 344.112L47.0289 323.599C46.6249 323.419 46.466 323.117 46.5524 322.694L47.1283 319.872C47.2243 319.401 47.4887 319.186 47.9216 319.225L98.0955 318.222L98.2366 318.251C98.6599 318.337 98.8283 318.592 98.742 319.015L98.2525 321.414ZM81.3531 335.087C81.5412 335.125 81.6497 335.074 81.6785 334.933L84.2268 322.446C84.2556 322.305 84.1759 322.215 83.9878 322.177L52.8655 322.365C52.7148 322.384 52.6347 322.416 52.6251 322.463C52.6155 322.51 52.6765 322.572 52.808 322.648L81.3531 335.087Z"/>
<path d="M58.2193 279.599C57.7598 279.46 57.5995 279.161 57.7383 278.701L58.4046 276.496C58.5434 276.036 58.8425 275.876 59.302 276.015L106.17 290.173C106.63 290.311 106.79 290.611 106.651 291.07L105.839 293.758C105.728 294.126 105.468 294.323 105.059 294.35L62.0266 297.371C61.8749 297.375 61.8081 297.43 61.8263 297.536C61.7986 297.628 61.8536 297.695 61.9915 297.736L100.403 309.265C100.862 309.403 101.023 309.703 100.884 310.162L100.197 312.437C100.058 312.896 99.7589 313.056 99.2994 312.918L52.4311 298.759C51.9717 298.621 51.8113 298.321 51.9501 297.862L52.7413 295.243C52.8524 294.875 53.1125 294.678 53.5217 294.651L96.368 291.499C96.5197 291.494 96.6094 291.446 96.6372 291.354C96.619 291.249 96.541 291.175 96.4031 291.133L58.2193 279.599Z"/>
<path d="M110.966 280.336C110.777 280.778 110.463 280.904 110.021 280.716L64.9899 261.499C64.5484 261.311 64.4219 260.996 64.6103 260.554L68.7645 250.82C70.1586 247.553 72.3645 245.441 75.382 244.485C78.3554 243.509 81.7184 243.823 85.471 245.424L107.457 254.806C111.209 256.408 113.784 258.629 115.182 261.469C116.535 264.29 116.514 267.335 115.12 270.602L110.966 280.336ZM108.804 276.047C108.98 276.123 109.106 276.072 109.182 275.896L112.008 269.273C112.887 267.091 112.795 265.043 111.733 263.129C110.646 261.151 108.69 259.56 105.864 258.354L84.0774 249.056C81.2077 247.832 78.683 247.511 76.5032 248.094C74.3422 248.634 72.7907 250.007 71.8487 252.214L69.051 258.77C68.9756 258.947 69.0262 259.073 69.2028 259.148L108.804 276.047Z"/>
<path d="M124.398 250.85C124.177 251.277 123.854 251.379 123.427 251.158L79.956 228.635C79.5299 228.414 79.4272 228.09 79.648 227.664L80.7411 225.554C80.9619 225.128 81.2854 225.026 81.7116 225.246L125.183 247.77C125.609 247.991 125.712 248.315 125.491 248.741L124.398 250.85Z"/>
<path d="M98.9789 195.625C98.5711 195.372 98.4937 195.042 98.7468 194.634L99.9616 192.676C100.215 192.268 100.545 192.191 100.953 192.444L142.555 218.258C142.963 218.511 143.04 218.842 142.787 219.25L141.306 221.636C141.104 221.962 140.802 222.085 140.399 222.005L98.0531 213.777C97.9055 213.742 97.8267 213.778 97.8169 213.885C97.7663 213.966 97.8021 214.045 97.9245 214.121L132.039 235.205C132.447 235.458 132.524 235.788 132.271 236.196L131.019 238.215C130.766 238.623 130.435 238.7 130.027 238.447L88.4254 212.633C88.0176 212.38 87.9402 212.049 88.1933 211.642L89.6358 209.317C89.8383 208.99 90.1406 208.867 90.5429 208.947L132.743 217C132.891 217.035 132.99 217.012 133.041 216.93C133.051 216.824 132.994 216.732 132.872 216.656L98.9789 195.625Z"/>
<path d="M155.824 202.516C153.679 205.286 151.111 206.88 148.118 207.295C145.118 207.643 142.232 206.745 139.461 204.6L117.141 187.325C114.37 185.18 112.796 182.626 112.419 179.663C112.033 176.633 112.912 173.733 115.057 170.962C117.201 168.191 119.789 166.612 122.819 166.226C125.811 165.811 128.693 166.675 131.464 168.82L133.969 170.759C134.349 171.053 134.392 171.39 134.098 171.769L132.644 173.648C132.35 174.028 132.013 174.071 131.634 173.777L129.071 171.794C127.098 170.266 125.082 169.616 123.023 169.844C120.965 170.072 119.202 171.135 117.733 173.033C116.264 174.931 115.677 176.905 115.972 178.954C116.268 181.004 117.402 182.792 119.376 184.32L141.809 201.683C143.783 203.211 145.799 203.861 147.857 203.633C149.915 203.405 151.679 202.342 153.148 200.444C154.617 198.546 155.204 196.573 154.908 194.523C154.613 192.474 153.478 190.685 151.505 189.157L143.476 182.943C143.325 182.826 143.19 182.843 143.072 182.995L138.93 188.347C138.636 188.727 138.299 188.769 137.92 188.476L136.383 187.286C136.003 186.992 135.96 186.655 136.254 186.276L142.468 178.247C142.761 177.868 143.098 177.825 143.478 178.119L153.783 186.095C156.554 188.24 158.133 190.828 158.519 193.858C158.867 196.859 157.969 199.745 155.824 202.516Z"/>
<path d="M243.455 124.2C243.034 124.43 242.708 124.334 242.478 123.913L219.019 80.9388C218.789 80.5175 218.885 80.1919 219.306 79.9619L228.596 74.8905C231.714 73.1886 234.753 72.8964 237.715 74.014C240.654 75.0895 243.1 77.4178 245.055 80.9989L256.509 101.98C258.464 105.561 259.111 108.9 258.449 111.995C257.764 115.049 255.863 117.426 252.745 119.128L243.455 124.2ZM244.413 119.493C244.505 119.662 244.636 119.7 244.804 119.608L251.124 116.158C253.165 114.989 254.362 113.324 254.714 111.163C255.084 108.937 254.534 106.476 253.062 103.78L241.712 82.9883C240.217 80.2497 238.433 78.4345 236.36 77.5427C234.33 76.6278 232.261 76.7453 230.154 77.8953L223.898 81.3107C223.729 81.4027 223.691 81.5329 223.783 81.7015L244.413 119.493Z"/>
<path d="M272.32 57.4569C272.507 57.8989 272.38 58.2135 271.938 58.4008L256.227 65.0608C256.051 65.1357 256 65.2616 256.075 65.4384L263.69 83.4029C263.765 83.5796 263.891 83.6306 264.068 83.5556L274.144 79.2843C274.586 79.0969 274.9 79.2242 275.088 79.6662L275.846 81.456C276.034 81.8979 275.906 82.2125 275.464 82.3999L265.388 86.6712C265.212 86.7462 265.161 86.872 265.236 87.0488L272.879 105.08C272.954 105.256 273.08 105.307 273.257 105.232L288.967 98.5724C289.409 98.3851 289.724 98.5124 289.911 98.9543L290.67 100.744C290.857 101.186 290.73 101.501 290.288 101.688L271.462 109.669C271.02 109.856 270.705 109.729 270.518 109.287L251.409 64.2098C251.222 63.7679 251.349 63.4533 251.791 63.2659L270.617 55.2852C271.059 55.0979 271.374 55.2252 271.561 55.6671L272.32 57.4569Z"/>
<path d="M306.155 96.2541C305.743 96.3844 305.427 96.2581 305.205 95.8752L280.411 52.3682L280.368 52.2309C280.237 51.819 280.378 51.5479 280.79 51.4176L283.33 50.6139C283.787 50.469 284.104 50.5953 284.28 50.9927L305.154 88.7926C305.243 88.9154 305.31 88.9696 305.356 88.9551C305.402 88.9406 305.426 88.8575 305.428 88.7057L300.618 45.8227C300.579 45.3819 300.766 45.0963 301.178 44.9659L303.58 44.2057C304.084 44.0464 304.369 44.2329 304.437 44.7652L309.255 94.5936C309.339 95.0199 309.153 95.3055 308.695 95.4503L306.155 96.2541Z"/>
<path d="M337.919 39.0323C338.02 39.5015 337.836 39.7866 337.367 39.8876L320.685 43.4762C320.497 43.5165 320.423 43.6306 320.464 43.8183L324.567 62.8939C324.607 63.0817 324.721 63.1553 324.909 63.1149L335.608 60.8134C336.078 60.7125 336.363 60.8966 336.464 61.3659L336.873 63.2664C336.973 63.7357 336.789 64.0208 336.32 64.1217L325.621 66.4233C325.433 66.4636 325.359 66.5777 325.4 66.7654L329.518 85.9114C329.559 86.0991 329.673 86.1728 329.86 86.1324L346.543 82.5438C347.012 82.4429 347.297 82.6271 347.398 83.0963L347.807 84.9968C347.908 85.4661 347.724 85.7512 347.255 85.8522L327.264 90.1524C326.795 90.2533 326.509 90.0692 326.408 89.5999L316.112 41.7348C316.011 41.2656 316.195 40.9805 316.665 40.8795L336.655 36.5793C337.125 36.4783 337.41 36.6625 337.511 37.1317L337.919 39.0323Z"/>
<path d="M356.359 84.4957C355.883 84.5545 355.615 84.3457 355.557 83.8693L349.564 35.2773C349.506 34.8009 349.715 34.5334 350.191 34.4746L352.549 34.1838C353.025 34.1251 353.293 34.3339 353.352 34.8103L358.983 80.4724C359.006 80.663 359.113 80.7465 359.304 80.723L376.025 78.661C376.501 78.6023 376.769 78.8111 376.828 79.2875L377.066 81.2169C377.124 81.6932 376.916 81.9608 376.439 82.0196L356.359 84.4957Z"/>
<path d="M392.76 81.9238C389.257 82.0302 386.369 81.0135 384.095 78.8735C381.867 76.6841 380.699 73.7903 380.59 70.192L379.761 42.9165C379.65 39.2702 380.641 36.3108 382.733 34.0382C384.823 31.7177 387.644 30.5035 391.194 30.3956C394.745 30.2878 397.657 31.3278 399.933 33.5157C402.207 35.6556 403.399 38.5488 403.51 42.1951L404.339 69.4705C404.448 73.0688 403.433 76.029 401.295 78.351C399.155 80.625 396.31 81.816 392.76 81.9238ZM392.657 78.5414C395.056 78.4685 396.975 77.6179 398.414 75.9894C399.901 74.3595 400.606 72.2731 400.529 69.7303L399.692 42.167C399.614 39.6242 398.784 37.5845 397.201 36.0478C395.664 34.4618 393.696 33.7052 391.297 33.778C388.946 33.8495 387.052 34.7234 385.614 36.3998C384.175 38.0283 383.494 40.1139 383.571 42.6567L384.408 70.22C384.486 72.7628 385.292 74.8033 386.827 76.3414C388.363 77.8795 390.306 78.6128 392.657 78.5414Z"/>
<path d="M428.822 31.6252C432.174 31.8549 434.793 33.3094 436.678 35.9885C438.566 38.6198 439.371 41.9706 439.092 46.0411C438.813 50.1116 437.561 53.2974 435.334 55.5985C433.156 57.903 430.414 58.942 427.11 58.7156L419.137 58.1692C418.945 58.1561 418.843 58.2453 418.829 58.4369L417.299 80.7765C417.266 81.2554 417.01 81.4784 416.531 81.4456L414.161 81.2831C413.682 81.2503 413.459 80.9945 413.492 80.5156L416.849 31.5265C416.881 31.0476 417.137 30.8246 417.616 30.8574L428.822 31.6252ZM426.752 55.5156C429.098 55.6764 431.054 54.8722 432.618 53.103C434.183 51.3339 435.07 48.9169 435.28 45.8521C435.494 42.7394 434.946 40.2 433.637 38.2339C432.329 36.2678 430.501 35.2044 428.155 35.0436L420.756 34.5366C420.564 34.5235 420.462 34.6127 420.449 34.8043L419.085 54.7016C419.072 54.8932 419.162 54.9955 419.353 55.0086L426.752 55.5156Z"/>
<path d="M473.577 38.3218C473.777 38.0159 474.066 37.8964 474.444 37.9631L476.855 38.3886C477.328 38.472 477.522 38.7501 477.439 39.2228L468.929 87.4375C468.845 87.9102 468.567 88.1048 468.094 88.0214L465.755 87.6084C465.282 87.525 465.087 87.2469 465.171 86.7742L472.267 46.5717C472.292 46.4298 472.257 46.3506 472.162 46.3339C472.068 46.3172 471.989 46.352 471.925 46.4382L461.072 62.3621C460.863 62.7152 460.593 62.8626 460.262 62.8042C459.884 62.7374 459.653 62.5261 459.57 62.1702L454.741 43.5513C454.663 43.4401 454.577 43.3762 454.482 43.3595C454.435 43.3511 454.399 43.4179 454.374 43.5597L447.303 83.6204C447.219 84.0931 446.941 84.2877 446.469 84.2043L444.129 83.7913C443.656 83.7079 443.461 83.4298 443.545 82.9571L452.055 34.7424C452.139 34.2697 452.417 34.0751 452.889 34.1585L455.3 34.584C455.678 34.6508 455.909 34.8621 455.992 35.218L461.364 55.3217C461.394 55.4246 461.457 55.4844 461.551 55.5011C461.646 55.5177 461.725 55.483 461.789 55.3968L473.577 38.3218Z"/>
<path d="M512.782 50.7519C512.65 51.2132 512.353 51.3775 511.892 51.2449L495.492 46.53C495.307 46.4769 495.189 46.5427 495.136 46.7272L489.744 65.4796C489.691 65.6641 489.757 65.7829 489.941 65.8359L500.459 68.8599C500.921 68.9925 501.085 69.2895 500.952 69.7508L500.415 71.6191C500.283 72.0804 499.986 72.2447 499.524 72.1121L489.006 69.0882C488.822 69.0351 488.703 69.1009 488.65 69.2854L483.239 88.107C483.186 88.2915 483.251 88.4103 483.436 88.4633L499.836 93.1783C500.297 93.3109 500.461 93.6079 500.329 94.0692L499.792 95.9375C499.659 96.3988 499.362 96.5632 498.901 96.4305L479.249 90.7806C478.787 90.6479 478.623 90.351 478.756 89.8897L492.284 42.8357C492.416 42.3744 492.713 42.2101 493.175 42.3427L512.827 47.9926C513.288 48.1253 513.452 48.4222 513.32 48.8836L512.782 50.7519Z"/>
<path d="M543.893 60.495C544.072 60.0496 544.384 59.9164 544.829 60.0953L546.967 60.9543C547.412 61.1333 547.546 61.4454 547.367 61.8908L529.113 107.321C528.934 107.766 528.622 107.9 528.177 107.721L525.571 106.674C525.215 106.53 525.041 106.254 525.051 105.844L525.853 62.7133C525.862 62.5617 525.813 62.4904 525.706 62.4991C525.617 62.4633 525.546 62.5122 525.492 62.6459L510.607 99.8853C510.428 100.331 510.116 100.464 509.671 100.285L507.466 99.3991C507.02 99.2201 506.887 98.9079 507.066 98.4626L525.32 53.0325C525.499 52.5871 525.811 52.4539 526.256 52.6328L528.795 53.6529C529.151 53.7961 529.325 54.0726 529.315 54.4826L528.66 97.4397C528.651 97.5912 528.691 97.6849 528.78 97.7207C528.887 97.7119 528.968 97.6407 529.021 97.5071L543.893 60.495Z"/>
<path d="M579.63 77.2408C580.055 77.4631 580.157 77.787 579.934 78.2124L579.034 79.9352C578.811 80.3606 578.487 80.462 578.062 80.2397L569.576 75.8031C569.406 75.7142 569.276 75.7548 569.187 75.9249L547.872 116.697C547.649 117.123 547.326 117.224 546.9 117.002L544.795 115.901C544.369 115.679 544.268 115.355 544.49 114.929L565.805 74.157C565.894 73.9869 565.854 73.8573 565.684 73.7683L557.708 69.5987C557.282 69.3763 557.181 69.0524 557.403 68.627L558.304 66.9043C558.526 66.4789 558.85 66.3774 559.276 66.5998L579.63 77.2408Z"/>
<path d="M186.141 136.05C186.768 136.05 187.381 135.864 187.902 135.516C188.423 135.167 188.829 134.672 189.069 134.093C189.309 133.514 189.372 132.876 189.25 132.262C189.127 131.647 188.826 131.082 188.382 130.638C187.939 130.195 187.374 129.893 186.759 129.771C186.144 129.649 185.507 129.711 184.928 129.951C184.348 130.191 183.853 130.598 183.505 131.119C183.157 131.64 182.971 132.253 182.971 132.88C182.971 133.721 183.305 134.527 183.899 135.122C184.494 135.716 185.3 136.05 186.141 136.05V136.05Z"/>
<path d="M297.34 718.8C297.967 718.8 298.58 718.614 299.101 718.266C299.622 717.917 300.029 717.422 300.269 716.843C300.509 716.264 300.571 715.626 300.449 715.011C300.327 714.397 300.025 713.832 299.581 713.388C299.138 712.945 298.573 712.643 297.958 712.521C297.343 712.399 296.706 712.461 296.127 712.701C295.548 712.941 295.052 713.347 294.704 713.869C294.356 714.39 294.17 715.003 294.17 715.63C294.17 716.471 294.504 717.277 295.098 717.871C295.693 718.466 296.499 718.8 297.34 718.8V718.8Z"/>
<path d="M68.8204 463.71C69.4474 463.71 70.0602 463.524 70.5815 463.176C71.1028 462.827 71.5092 462.332 71.7491 461.753C71.989 461.174 72.0518 460.536 71.9295 459.922C71.8072 459.307 71.5053 458.742 71.0619 458.298C70.6186 457.855 70.0537 457.553 69.4388 457.431C68.8239 457.309 68.1865 457.371 67.6073 457.611C67.028 457.851 66.533 458.258 66.1846 458.779C65.8363 459.3 65.6504 459.913 65.6504 460.54C65.6504 461.381 65.9844 462.187 66.5789 462.782C67.1733 463.376 67.9797 463.71 68.8204 463.71Z"/>
<path d="M611.561 131.38C612.188 131.38 612.8 131.194 613.322 130.846C613.843 130.497 614.249 130.002 614.489 129.423C614.729 128.844 614.792 128.206 614.67 127.592C614.547 126.977 614.245 126.412 613.802 125.968C613.359 125.525 612.794 125.223 612.179 125.101C611.564 124.979 610.927 125.041 610.348 125.281C609.768 125.521 609.273 125.928 608.925 126.449C608.577 126.97 608.391 127.583 608.391 128.21C608.391 129.051 608.725 129.857 609.319 130.452C609.914 131.046 610.72 131.38 611.561 131.38V131.38Z"/>
<path d="M731.18 476.06C731.807 476.06 732.42 475.874 732.941 475.526C733.462 475.177 733.869 474.682 734.108 474.103C734.348 473.524 734.411 472.886 734.289 472.272C734.167 471.657 733.865 471.092 733.421 470.648C732.978 470.205 732.413 469.903 731.798 469.781C731.183 469.659 730.546 469.721 729.967 469.961C729.387 470.201 728.892 470.608 728.544 471.129C728.196 471.65 728.01 472.263 728.01 472.89C728.01 473.731 728.344 474.537 728.938 475.131C729.533 475.726 730.339 476.06 731.18 476.06V476.06Z"/>
</svg>
