<svg width="130" height="15" viewBox="0 0 130 15" fill="none" xmlns="http://www.w3.org/2000/svg">
<g clip-path="url(#clip0_14_205)">
<path d="M16 14.64V12.48H3V0H0V14.64H16Z" />
<path d="M33.21 14.64C36.85 14.64 38.21 13.21 38.21 11.1V3.53C38.21 1.43 36.82 0 33.21 0H22.63C19 0 17.63 1.43 17.63 3.53V11.1C17.63 13.21 19.02 14.64 22.63 14.64H33.21ZM35.21 11.13C35.21 12 34.57 12.48 33.21 12.48H22.63C21.27 12.48 20.63 12 20.63 11.13V3.51C20.63 2.64 21.27 2.16 22.63 2.16H33.21C34.57 2.16 35.21 2.64 35.21 3.51V11.13Z" />
<path d="M55.21 14.64C58.85 14.64 60.21 13.21 60.21 11.1V9.3C60.21 7.19 58.83 5.76 55.21 5.76H45.79C44.43 5.76 43.79 5.28 43.79 4.41V3.51C43.79 2.64 44.43 2.16 45.79 2.16H59.35V0H45.79C42.15 0 40.79 1.43 40.79 3.53V4.39C40.79 6.49 42.17 7.92 45.79 7.92H55.21C56.57 7.92 57.21 8.4 57.21 9.27V11.13C57.21 12 56.57 12.48 55.21 12.48H41.29V14.64H55.21Z" />
<path d="M83.8599 14.64L73.2899 0H71.0799L60.4399 14.64H63.7999L72.1999 2.85L80.4499 14.64H83.8599Z" />
<path d="M106.54 14.64V0H103.9V10.88L88 0H85.35V14.64H88V3.24L105.07 14.64H106.54Z" />
<path d="M125 14.64C128.64 14.64 130 13.21 130 11.1V3.53C130 1.43 128.61 0 125 0H114.4C110.76 0 109.4 1.43 109.4 3.53V11.1C109.4 13.21 110.79 14.64 114.4 14.64H125ZM127 11.13C127 12 126.36 12.48 125 12.48H114.4C113.04 12.48 112.4 12 112.4 11.13V3.51C112.4 2.64 113.04 2.16 114.4 2.16H125C126.37 2.16 127 2.64 127 3.51V11.13Z" />
</g>
<defs>
<clipPath id="clip0_14_205">
<rect width="130" height="14.64" fill="white"/>
</clipPath>
</defs>
</svg>
