<svg width="121" height="34" viewBox="0 0 121 34" fill="none" xmlns="http://www.w3.org/2000/svg">
<path fill-rule="evenodd" clip-rule="evenodd" d="M73.1822 0.931225C73.0335 0.998176 72.8026 1.17034 72.6694 1.3138C71.773 2.27926 72.3125 3.88613 73.6092 4.11281C74.3547 4.24304 75.1886 3.74695 75.4322 3.02832L75.5553 2.66492L81.2225 2.64321C84.3396 2.6313 86.9304 2.65175 86.98 2.68863C87.0296 2.72552 87.1697 2.95482 87.2913 3.19821C87.9003 4.41644 89.6196 4.43756 90.2373 3.23455C90.6083 2.51175 90.2931 1.43689 89.5883 1.02071L89.2187 0.80249L81.3357 0.806029C74.9504 0.808937 73.4014 0.832743 73.1822 0.931225ZM36.7038 1.19378C36.7038 1.35422 30.8609 16.5933 30.5672 17.1991C29.9307 18.5118 29.2572 19.1186 28.2493 19.2876L27.8661 19.3519V19.9799V20.6079H31.1126H34.3591V19.983V19.358L33.6779 19.256C32.8084 19.1257 32.4871 18.9566 32.3134 18.5376C32.1286 18.0919 32.1957 17.6776 32.6653 16.3691L33.0515 15.2931H36.1172H39.1829L39.6651 16.4741C40.2669 17.9485 40.3628 18.6302 40.0145 18.9567C39.834 19.1257 39.6162 19.1887 38.9227 19.2717L38.0566 19.3754V19.9916V20.6079H42.5205H46.9845V19.988V19.368L46.426 19.2634C45.5087 19.0915 45.1121 18.7814 44.6569 17.8799C44.443 17.4566 42.8784 13.5329 41.1799 9.16068L38.0917 1.21131L37.3978 1.18479C37.0162 1.17016 36.7038 1.17424 36.7038 1.19378ZM0 2.16415C0 2.70925 0.0228159 2.80156 0.157817 2.80401C0.723345 2.8141 1.6909 3.00961 1.97714 3.17159C2.16345 3.27707 2.39341 3.49247 2.4881 3.65009C2.65296 3.92456 2.66152 4.23276 2.68768 10.8414C2.70644 15.5923 2.68461 17.8511 2.61761 18.0826C2.39927 18.8376 1.84647 19.1715 0.608725 19.296L0 19.3571V19.9824V20.6079H3.51707H7.03415V19.9824V19.3571L6.42542 19.296C5.22294 19.1751 4.77006 18.9242 4.44603 18.1991C4.29634 17.8641 4.282 17.3644 4.2553 11.5363C4.23933 8.07109 4.25954 5.25723 4.30012 5.28335C4.34061 5.30938 5.97677 8.76747 7.93597 12.9681L11.4981 20.6053L11.949 20.604L12.4 20.6025L15.917 12.96L19.4341 5.31735L19.4573 11.5651C19.4722 15.6047 19.4479 17.9346 19.3884 18.1573C19.2769 18.5747 18.7996 19.0209 18.3306 19.1466C18.1438 19.1967 17.7173 19.2654 17.3824 19.2993L16.7738 19.361V19.9845V20.6079H21.5534H26.333V19.9902V19.3727L25.5194 19.2693C24.5664 19.148 24.0393 18.8948 23.7674 18.4275C23.5853 18.1143 23.5824 18.0036 23.5824 11.114V4.11855L23.7866 3.73359C24.0443 3.24763 24.4983 3.00561 25.3651 2.89214C25.7239 2.84516 26.0884 2.80556 26.1752 2.80401C26.3101 2.80156 26.333 2.70925 26.333 2.16525V1.52929H22.9218H19.5106L16.404 8.17104C14.6954 11.824 13.2629 14.8107 13.2208 14.8082C13.179 14.8059 11.7558 11.8273 10.0585 8.18928L6.97247 1.57471L3.48623 1.55092L0 1.5272V2.16415ZM48.6078 2.1587V2.78811L49.1263 2.84444C50.5054 2.99416 50.9768 3.24336 51.8406 4.27982C52.1831 4.69081 53.5831 6.51132 54.9516 8.32563L57.4399 11.6241L55.8105 13.5495C54.9143 14.6083 53.7578 15.9528 53.2403 16.5372C52.3505 17.5422 51.2319 18.5498 50.6963 18.8287C50.3817 18.9927 49.5784 19.2154 49.0362 19.289L48.6078 19.3471V19.9774V20.6079H52.7561H56.9045V19.985V19.3621L56.1654 19.2999C55.3345 19.2302 54.7183 18.9984 54.5573 18.6953C54.3745 18.3512 54.4961 17.6905 54.8338 17.1934C55.2072 16.6435 58.3293 12.9747 58.4183 12.981C58.5258 12.9888 61.7595 17.3632 62.0165 17.8487L62.2564 18.302L62.0829 18.6538C61.8616 19.1027 61.4891 19.2407 60.3088 19.3104L59.4295 19.3624V19.985V20.6079H64.9757H70.5218V19.9784V19.349L70.0033 19.2855C68.6434 19.119 67.8716 18.6541 66.8006 17.3561C66.2906 16.738 62.6931 12.0296 61.2976 10.1539L61.0565 9.82982L63.0462 7.51921C65.4274 4.75407 66.1642 3.9788 66.8317 3.53636C67.35 3.19276 68.0807 2.93983 68.831 2.84453L69.2593 2.79002V2.1597V1.52929H65.3364H61.4135V2.16525V2.80119L61.8419 2.80174C62.0775 2.80201 62.5138 2.8418 62.8114 2.89013C63.8417 3.05757 64.0331 3.70588 63.3295 4.64459C62.9284 5.1797 60.186 8.43141 60.1114 8.46041C60.042 8.48745 57.6913 5.43054 57.1626 4.62625C56.6821 3.89494 56.5861 3.64129 56.6672 3.31641C56.7426 3.01305 57.081 2.8934 58.043 2.82972L58.8885 2.77376V2.15153V1.52929H53.7482H48.6078V2.1587ZM93.1571 2.16415C93.1571 2.70925 93.1803 2.80156 93.3155 2.80401C93.8805 2.8141 94.8485 3.00961 95.1347 3.17159C95.3209 3.27707 95.5506 3.49247 95.6451 3.65009C95.81 3.92456 95.8192 4.23276 95.8452 10.8414C95.8637 15.5923 95.8424 17.8511 95.7748 18.0826C95.5571 18.8376 95.0041 19.1715 93.7657 19.296L93.1571 19.3571V19.9824V20.6079H96.6742H100.191V19.9824V19.3571L99.5827 19.296C98.3804 19.1751 97.9275 18.9242 97.6033 18.1991C97.4541 17.8641 97.4393 17.3644 97.4125 11.5363C97.3967 8.07109 97.4171 5.25723 97.4578 5.28335C97.4977 5.30938 99.1344 8.76747 101.093 12.9681L104.656 20.6053L105.106 20.604L105.557 20.6025L109.074 12.96L112.591 5.31735L112.615 11.5651C112.629 15.6047 112.605 17.9346 112.546 18.1573C112.434 18.5747 111.957 19.0209 111.488 19.1466C111.301 19.1967 110.875 19.2654 110.54 19.2993L109.931 19.361V19.9845V20.6079H114.711H119.49V19.9902V19.3727L118.677 19.2693C117.724 19.148 117.197 18.8948 116.925 18.4275C116.743 18.1143 116.74 18.0036 116.74 11.114V4.11855L116.944 3.73359C117.202 3.24763 117.655 3.00561 118.522 2.89214C118.881 2.84516 119.246 2.80556 119.333 2.80401C119.467 2.80156 119.49 2.70925 119.49 2.16525V1.52929H116.079H112.668L109.562 8.17104C107.853 11.824 106.421 14.8107 106.378 14.8082C106.336 14.8059 104.913 11.8273 103.216 8.18928L100.13 1.57471L96.6436 1.55092L93.1571 1.5272V2.16415ZM75.8126 3.5886C75.7794 3.62184 75.7524 4.03068 75.7524 4.49712V5.34504H81.3887H87.025V4.43654V3.52799H81.4489C78.3819 3.52799 75.8455 3.55525 75.8126 3.5886ZM75.7524 7.02986C75.7524 7.63648 75.7778 7.74096 75.9737 7.93835C76.1555 8.12148 76.2844 8.1614 76.6948 8.1614H77.1945L77.2174 17.6325C77.2402 27.0454 77.2415 27.1038 77.4219 27.1298C77.5578 27.1494 77.6974 27.0122 77.9775 26.5829C78.1831 26.2677 78.5784 25.7936 78.8555 25.5295L79.3597 25.0493V16.6006V8.15186L79.8331 8.17937L80.3065 8.20679L80.3176 13.8849C80.3237 17.008 80.3338 20.6544 80.3401 21.9883L80.3516 24.4136L80.8251 24.2042C81.0855 24.089 81.5217 23.9431 81.7945 23.8799C82.0674 23.8165 82.3413 23.7507 82.4033 23.7336C82.4924 23.709 82.516 22.0712 82.516 15.9319V8.1614H82.9669H83.4178V15.929V23.6967H84.5451H85.6724V15.929V8.1614H86.1111C86.4184 8.1614 86.6211 8.1049 86.7874 7.973C87.0084 7.79793 87.025 7.73439 87.025 7.0645V6.34431H81.3887H75.7524V7.02986ZM37.9481 12.0452L38.6695 13.8849H36.1535C34.7698 13.8849 33.6377 13.8705 33.6377 13.8529C33.6377 13.8257 35.6772 8.36574 35.9844 7.57081C36.0866 7.30635 36.1066 7.34146 36.6581 8.75191C36.9708 9.55138 37.5513 11.0334 37.9481 12.0452ZM83.1409 26.6312C82.2035 26.8999 81.428 27.5496 80.9509 28.4664C80.6829 28.9816 80.6673 29.0663 80.6673 30.0108C80.6673 30.9007 80.6933 31.066 80.9049 31.5208C81.5414 32.8883 82.8113 33.5907 84.4549 33.4843C85.2531 33.4327 85.8987 33.2184 86.577 32.7799L87.025 32.4903V31.0007V29.5112H85.5822H84.1393V30.1472V30.7831H84.8607H85.5822V31.2659C85.5822 31.7341 85.572 31.7537 85.2452 31.9106C84.0071 32.5054 82.5456 31.8622 82.2425 30.5892C81.7661 28.5881 83.8062 27.1553 85.4654 28.3257L85.8449 28.5933L86.2997 28.045C86.5499 27.7433 86.7543 27.4695 86.7539 27.4364C86.7529 27.3417 86.2111 26.9952 85.7289 26.781C85.1764 26.5354 83.7611 26.4534 83.1409 26.6312ZM99.1844 26.6817C98.9038 26.7753 98.5333 26.9395 98.3619 27.0466C97.8876 27.3414 97.317 28.0113 97.0494 28.5868C96.8372 29.0429 96.8094 29.2125 96.8104 30.0563C96.8113 30.9171 96.8354 31.061 97.0642 31.5315C97.3995 32.2203 97.9858 32.796 98.7268 33.1636C99.2956 33.4457 99.3864 33.4631 100.279 33.4609C101.056 33.4592 101.323 33.4207 101.747 33.2501C102.47 32.959 103.181 32.2783 103.549 31.5269C103.826 30.9597 103.844 30.863 103.844 29.9669C103.843 29.1045 103.818 28.9607 103.589 28.4902C103.257 27.807 102.669 27.2264 101.947 26.868C101.445 26.6196 101.245 26.5738 100.529 26.545C99.8865 26.5189 99.5781 26.5503 99.1844 26.6817ZM89.2796 30.0108V33.4178H90.0011H90.7225V32.3275V31.2373L91.3312 31.2407L91.94 31.2443L92.6616 32.3302L93.3831 33.4163L94.2677 33.417L95.1523 33.4178L94.3409 32.2185L93.5295 31.0194L93.8166 30.8462C94.49 30.4407 94.8198 29.9394 94.9217 29.168C95.0189 28.4313 94.8309 27.8365 94.34 27.3267C93.7221 26.6845 93.3627 26.604 91.1119 26.604H89.2796V30.0108ZM105.873 28.8107C105.873 31.228 105.948 31.7609 106.379 32.4178C106.881 33.1815 107.853 33.5681 109.072 33.4885C110.207 33.4144 111.062 32.8609 111.481 31.9284C111.679 31.4871 111.691 31.3453 111.719 29.0342L111.748 26.604H111.029H110.31L110.279 28.8071C110.25 30.8159 110.23 31.0422 110.061 31.3736C109.851 31.7837 109.261 32.1471 108.808 32.1439C108.309 32.1402 107.797 31.8329 107.572 31.4031C107.378 31.0323 107.365 30.8864 107.332 28.8071L107.298 26.604H106.585H105.873V28.8107ZM114.079 30.0028V33.4178H114.801H115.522V32.43V31.4424L116.492 31.3935C117.644 31.3353 118.005 31.2376 118.519 30.8433C119.037 30.4451 119.321 29.9042 119.376 29.2082C119.459 28.1556 119.049 27.3474 118.207 26.9028C117.742 26.6577 117.694 26.6518 115.906 26.6202L114.079 26.5878V30.0028ZM101.357 28.2167C101.598 28.3672 101.876 28.6531 102.038 28.916C102.275 29.303 102.311 29.4441 102.309 30.0038C102.304 31.2758 101.533 32.0873 100.32 32.0963C99.8625 32.0997 99.6985 32.0547 99.3299 31.8255C98.298 31.1826 98.0006 29.7904 98.6805 28.7838C99.2826 27.8926 100.441 27.647 101.357 28.2167ZM93.1645 28.3089C93.46 28.6421 93.5045 29.0082 93.297 29.4121C93.1006 29.794 92.7005 29.919 91.6694 29.9196L90.7676 29.92L90.7419 28.9356L90.7163 27.9513L91.8092 27.9817L92.9024 28.0122L93.1645 28.3089ZM117.325 28.1025C117.682 28.2888 117.868 28.583 117.866 28.9637C117.863 29.7429 117.404 30.0559 116.266 30.0561L115.522 30.0563V29.0115V27.9667H116.294C116.801 27.9667 117.153 28.013 117.325 28.1025Z" />
</svg>
