<svg width="130" height="43" viewBox="0 0 130 43" fill="none" xmlns="http://www.w3.org/2000/svg">
<g clip-path="url(#clip0_14_151)">
<path d="M58.46 26.63C57.6827 25.8608 57.0713 24.9403 56.6637 23.9256C56.2561 22.9108 56.0608 21.8232 56.09 20.73C56.0627 19.6474 56.2554 18.5705 56.6565 17.5646C57.0577 16.5587 57.6589 15.6447 58.4237 14.878C59.1885 14.1113 60.1011 13.5078 61.106 13.1042C62.1109 12.7006 63.1873 12.5053 64.27 12.53C65.3544 12.5024 66.4331 12.6956 67.4405 13.0978C68.4479 13.5001 69.3629 14.103 70.13 14.87C70.9129 15.6272 71.529 16.5395 71.9389 17.5486C72.3487 18.5578 72.5433 19.6413 72.51 20.73C72.5433 21.8246 72.349 22.9142 71.9393 23.9298C71.5296 24.9454 70.9135 25.8649 70.13 26.63C69.3633 27.3995 68.4491 28.0062 67.442 28.4134C66.435 28.8207 65.3561 29.0202 64.27 29C63.1918 29.0169 62.1214 28.8157 61.123 28.4084C60.1245 28.0011 59.2187 27.3962 58.46 26.63V26.63ZM60.86 17.16C59.9946 18.1444 59.5338 19.4198 59.57 20.73C59.5376 22.0456 59.9976 23.3259 60.86 24.32C61.3012 24.8038 61.8435 25.1845 62.4484 25.4351C63.0533 25.6857 63.7059 25.8 64.36 25.77C65.004 25.8023 65.647 25.6887 66.241 25.4376C66.8349 25.1865 67.3644 24.8045 67.79 24.32C68.6524 23.3259 69.1124 22.0456 69.08 20.73C69.1145 19.42 68.6333 18.1488 67.74 17.19C67.3195 16.7107 66.7988 16.3296 66.2147 16.0739C65.6306 15.8181 64.9974 15.6939 64.36 15.71C63.7065 15.6847 63.0553 15.8012 62.4512 16.0515C61.847 16.3018 61.3042 16.68 60.86 17.16V17.16Z" />
<path d="M81.41 23.66H78.34V28.66H75V12.78H81.45C83.0848 12.6955 84.6935 13.2152 85.97 14.24C86.5331 14.7121 86.9795 15.3079 87.2743 15.9809C87.5692 16.654 87.7046 17.386 87.67 18.12C87.6956 18.8723 87.5547 19.6209 87.2574 20.3124C86.96 21.0039 86.5136 21.6211 85.95 22.12C84.6847 23.1869 83.0633 23.7368 81.41 23.66V23.66ZM80.82 15.89H78.34V20.55H80.82C83.12 20.55 84.27 19.76 84.27 18.19C84.2981 17.85 84.2351 17.5086 84.0874 17.201C83.9398 16.8935 83.7129 16.6308 83.43 16.44C82.6289 16.0153 81.7244 15.8247 80.82 15.89V15.89Z" />
<path d="M100.47 28.7H89.82V12.78H93.2V25.59H100.47V28.7Z" />
<path d="M107.83 12.78H111.06L117.28 28.7H113.78L112.51 25.57H106.36L105.11 28.7H101.61L107.83 12.78ZM111.42 22.57L109.42 17.37L107.42 22.57H111.42Z" />
<path d="M115.2 12.78H118.88L122.15 19.48L125.45 12.78H129.12L123.81 23.14V28.7H120.47V23.14L115.2 12.78Z" />
<path fill-rule="evenodd" clip-rule="evenodd" d="M13.8202 13.8402L14.2702 14.2802C13.3403 15.1871 12.6101 16.2782 12.1262 17.4835C11.6424 18.6889 11.4155 19.9821 11.4602 21.2802C11.4276 22.5768 11.66 23.8664 12.1431 25.07C12.6263 26.2737 13.3501 27.366 14.2702 28.2802V28.2802C15.1798 29.1827 16.2628 29.8916 17.4538 30.3642C18.6448 30.8369 19.9192 31.0634 21.2002 31.0302C22.4916 31.0637 23.7767 30.8376 24.9791 30.3652C26.1815 29.8928 27.2769 29.1838 28.2002 28.2802V28.2802C29.1315 27.3729 29.8646 26.2825 30.3534 25.0777C30.8422 23.8729 31.0761 22.5799 31.0402 21.2802C31.0841 19.9795 30.854 18.6841 30.3647 17.4781C29.8754 16.2722 29.1379 15.1826 28.2002 14.2802V14.2802C27.2854 13.3623 26.1925 12.6412 24.9886 12.1614C23.7848 11.6816 22.4956 11.4532 21.2002 11.4902C19.9165 11.4562 18.6394 11.6853 17.4476 12.1634C16.2558 12.6415 15.1745 13.3585 14.2702 14.2702L13.8202 13.8402ZM16.8702 16.7702L16.3902 16.3402C17.0123 15.6618 17.7747 15.1271 18.6243 14.773C19.4739 14.419 20.3904 14.2543 21.3102 14.2902C22.2083 14.2719 23.0997 14.4483 23.9232 14.8074C24.7466 15.1664 25.4825 15.6996 26.0802 16.3702C27.3249 17.7009 28.012 19.4581 28.0002 21.2802C28.0497 23.1138 27.4071 24.8989 26.2002 26.2802C25.6016 26.9644 24.8565 27.5049 24.0203 27.8615C23.1841 28.2181 22.2783 28.3818 21.3702 28.3402C20.4491 28.3796 19.5306 28.2155 18.6802 27.8594C17.8298 27.5034 17.0684 26.9641 16.4502 26.2802V26.2802C15.2406 24.8998 14.5944 23.115 14.6402 21.2802C14.5834 19.4436 15.2309 17.6548 16.4502 16.2802V16.2802L16.8702 16.7702ZM22.3602 21.3202C21.969 21.0502 21.6301 20.7114 21.3602 20.3202C21.0859 20.7078 20.7478 21.0459 20.3602 21.3202C20.7536 21.5874 21.0929 21.9267 21.3602 22.3202C21.6225 21.9171 21.9624 21.5704 22.3602 21.3002V21.3202ZM0.000179876 7.05018C-0.00647038 6.12251 0.171343 5.20276 0.523283 4.34441C0.875224 3.48606 1.39427 2.70623 2.05025 2.05025C2.70623 1.39427 3.48606 0.875224 4.34441 0.523283C5.20276 0.171343 6.12251 -0.00647038 7.05018 0.000179876H35.2302C36.1579 -0.00647038 37.0776 0.171343 37.9359 0.523283C38.7943 0.875224 39.5741 1.39427 40.2301 2.05025C40.8861 2.70623 41.4051 3.48606 41.7571 4.34441C42.109 5.20276 42.2868 6.12251 42.2802 7.05018V35.2302C42.2868 36.1579 42.109 37.0776 41.7571 37.9359C41.4051 38.7943 40.8861 39.5741 40.2301 40.2301C39.5741 40.8861 38.7943 41.4051 37.9359 41.7571C37.0776 42.109 36.1579 42.2868 35.2302 42.2802H7.05018C6.1267 42.2802 5.21235 42.0975 4.3598 41.7426C3.50724 41.3877 2.73334 40.8676 2.08267 40.2123C1.432 39.557 0.917432 38.7794 0.568604 37.9243C0.219775 37.0693 0.0435836 36.1536 0.0501799 35.2302L0.000179876 7.05018Z" />
</g>
<defs>
<clipPath id="clip0_14_151">
<rect width="129.13" height="42.28" fill="white"/>
</clipPath>
</defs>
</svg>
