<svg width="87" height="39" viewBox="0 0 87 39" fill="none" xmlns="http://www.w3.org/2000/svg">
<g clip-path="url(#clip0_14_75)">
<path d="M13.94 0C14.04 0.33 14.12 0.62 14.2 0.91V1L14.03 1.05C13.36 1.14391 12.7278 1.41683 12.2 1.84C11.5096 2.38364 10.8972 3.01959 10.38 3.73C9.19261 5.36267 8.20554 7.132 7.44 9C6.44009 11.2627 5.69873 13.631 5.23 16.06C4.85557 17.9012 4.85557 19.7988 5.23 21.64C5.34322 22.1689 5.54254 22.6757 5.82 23.14C6.05091 23.5221 6.36863 23.8443 6.7474 24.0806C7.12617 24.3169 7.55531 24.4606 8 24.5C8.91485 24.6255 9.84281 24.3926 10.59 23.85C11.3566 23.2914 12.0314 22.6166 12.59 21.85C13.7922 20.3133 14.7999 18.6339 15.59 16.85C15.93 16.11 16.24 15.35 16.59 14.6C16.64 14.49 16.67 14.37 16.72 14.24C16.6632 14.2012 16.6029 14.1677 16.54 14.14C15.1793 13.4704 14.1118 12.3246 13.54 10.92C12.9965 9.70383 12.7606 8.37265 12.8531 7.04379C12.9455 5.71493 13.3634 4.42922 14.07 3.3C14.5704 2.44783 15.3211 1.77045 16.22 1.36C16.6023 1.14947 17.0258 1.02487 17.4612 0.994891C17.8966 0.964911 18.3332 1.03027 18.7407 1.18642C19.1482 1.34256 19.5167 1.58573 19.8206 1.89896C20.1245 2.21219 20.3563 2.58794 20.5 3C20.9195 3.87314 21.1317 4.83138 21.12 5.8C21.1481 8.26602 20.8111 10.7226 20.12 13.09L20.03 13.41V13.52C20.5584 13.5818 21.0936 13.5479 21.61 13.42C22.5632 13.1912 23.4329 12.6992 24.12 12C24.1864 11.9172 24.2775 11.8576 24.38 11.83C24.4804 11.7949 24.5896 11.7949 24.69 11.83C25.1289 11.9838 25.5142 12.2609 25.7997 12.628C26.0852 12.9951 26.2589 13.4367 26.3 13.9C26.2685 14.5889 26.1127 15.2665 25.84 15.9C25.52 16.61 25.17 17.31 24.84 18.01C24.42 18.9 23.98 19.79 23.58 20.7C23.3056 21.3334 23.1464 22.0107 23.11 22.7C23.0847 22.8825 23.0847 23.0675 23.11 23.25C23.1183 23.3548 23.1483 23.4567 23.1979 23.5493C23.2476 23.6419 23.316 23.7231 23.3987 23.788C23.4814 23.8528 23.5766 23.8998 23.6784 23.926C23.7802 23.9522 23.8863 23.9569 23.99 23.94C24.25 23.9092 24.5014 23.8277 24.73 23.7C25.2231 23.4057 25.6544 23.0186 26 22.56C26.7846 21.6041 27.4558 20.5605 28 19.45C28.38 18.67 28.71 17.88 29.07 17.09C29.1178 17.0046 29.142 16.9079 29.14 16.81C29.1395 16.7111 29.1118 16.6142 29.06 16.53C28.577 15.4441 28.4441 14.2348 28.68 13.07C28.7752 12.7211 28.9129 12.3853 29.09 12.07C29.2127 11.8311 29.4192 11.646 29.67 11.55C29.869 11.4578 30.0964 11.4481 30.3025 11.5231C30.5086 11.598 30.6767 11.7515 30.77 11.95C30.9013 12.2333 30.9793 12.5384 31 12.85C31.0761 13.9636 30.9334 15.0813 30.58 16.14C30.5062 16.337 30.4965 16.5523 30.5522 16.7552C30.6078 16.958 30.726 17.1382 30.89 17.27C31.337 17.6878 31.8794 17.99 32.47 18.15C32.53 18 32.59 17.87 32.64 17.73C33.372 15.7742 34.7614 14.1339 36.57 13.09C37.2409 12.698 37.9873 12.4526 38.76 12.37C39.1819 12.3198 39.6095 12.3504 40.02 12.46C40.2691 12.5039 40.5063 12.5993 40.7165 12.7401C40.9266 12.8808 41.1052 13.0638 41.2407 13.2774C41.3762 13.491 41.4656 13.7305 41.5034 13.9806C41.5412 14.2307 41.5264 14.4859 41.46 14.73C41.1924 15.9912 40.4831 17.1154 39.46 17.9C38.4893 18.6975 37.3218 19.2191 36.08 19.41C35.61 19.49 35.14 19.53 34.64 19.6C34.475 20.5495 34.475 21.5205 34.64 22.47C34.6586 22.5579 34.682 22.6447 34.71 22.73C34.7641 22.9542 34.8646 23.1646 35.005 23.3476C35.1455 23.5305 35.3227 23.682 35.5253 23.7923C35.7279 23.9025 35.9513 23.9691 36.1812 23.9876C36.4111 24.0062 36.6424 23.9763 36.86 23.9C37.4177 23.7546 37.9367 23.4883 38.38 23.12C39.1173 22.5139 39.758 21.799 40.28 21C41.3712 19.4086 42.2834 17.7016 43 15.91C43.37 15 43.7 14.06 44 13.13C44 13.04 44.07 12.95 44.11 12.85H51.11C51.01 13.01 50.94 13.14 50.86 13.26C49.7337 14.9875 48.776 16.8193 48 18.73C47.5839 19.7009 47.337 20.7358 47.27 21.79C47.2586 22.1925 47.2921 22.595 47.37 22.99C47.4043 23.1961 47.4909 23.39 47.6216 23.553C47.7523 23.716 47.9226 23.8427 48.1163 23.921C48.3101 23.9993 48.5206 24.0265 48.7279 24.0001C48.9352 23.9737 49.1321 23.8944 49.3 23.77C49.5621 23.5981 49.7951 23.3854 49.99 23.14C50.5282 22.4749 50.9446 21.72 51.22 20.91C51.2818 20.6813 51.3186 20.4466 51.33 20.21C51.6648 17.5399 53.0149 15.1012 55.1 13.4C55.7571 12.8301 56.5609 12.4559 57.42 12.32C57.8635 12.253 58.316 12.2768 58.75 12.39C59.1566 12.4932 59.5179 12.7273 59.7781 13.0562C60.0384 13.3852 60.1831 13.7906 60.19 14.21C60.19 14.37 60.19 14.51 60.19 14.73C60.3953 14.4354 60.5695 14.1204 60.71 13.79C60.87 13.5 61.02 13.19 61.16 12.9H63.37L63.17 13.34C62.17 15.34 61.24 17.39 60.29 19.43C59.9188 20.2136 59.6886 21.0565 59.61 21.92C59.5595 22.3206 59.6005 22.7275 59.73 23.11C59.7685 23.2499 59.8353 23.3804 59.9263 23.4934C60.0172 23.6064 60.1305 23.6996 60.2589 23.7671C60.3873 23.8346 60.5282 23.875 60.6729 23.8858C60.8176 23.8966 60.963 23.8776 61.1 23.83C61.4288 23.7165 61.7388 23.5547 62.02 23.35C62.641 22.8391 63.2013 22.2586 63.69 21.62C63.8613 21.4369 63.9833 21.2133 64.0445 20.9702C64.1057 20.7271 64.1042 20.4724 64.04 20.23C63.8266 18.9263 63.8131 17.5977 64 16.29C64.3964 13.2143 65.381 10.2436 66.9 7.54C67.378 6.65424 67.9551 5.8256 68.62 5.07C69.0154 4.61515 69.4813 4.22686 70 3.92C70.3032 3.73971 70.6474 3.63989 71 3.63C71.2597 3.61911 71.5158 3.6928 71.73 3.84C71.9441 3.98309 72.1084 4.1893 72.2 4.43C72.3743 4.89218 72.436 5.38923 72.38 5.88C72.2445 6.94722 71.9827 7.99457 71.6 9C70.4579 12.2175 68.9973 15.3128 67.24 18.24C66.89 18.82 66.53 19.39 66.16 19.96C66.0482 20.1244 65.9953 20.3217 66.01 20.52C66.0506 21.1708 66.1784 21.8132 66.39 22.43C66.5177 22.804 66.7259 23.1453 67 23.43C67.2841 23.7154 67.6531 23.9008 68.0516 23.9585C68.4502 24.0163 68.8566 23.9431 69.21 23.75C69.5335 23.5608 69.8324 23.3324 70.1 23.07C70.58 22.55 71.01 21.99 71.46 21.46C71.508 21.403 71.5392 21.3337 71.55 21.26C71.5752 21.1888 71.5752 21.1112 71.55 21.04C71.0547 19.3086 70.9353 17.4913 71.2 15.71C71.5017 13.1257 72.2175 10.6068 73.32 8.25C73.8426 7.02308 74.5696 5.89373 75.47 4.91C75.8173 4.56779 76.1993 4.26281 76.61 4C76.965 3.75765 77.3911 3.64145 77.82 3.67C78.0672 3.6612 78.3106 3.73234 78.5142 3.87285C78.7177 4.01336 78.8706 4.21575 78.95 4.45C79.0644 4.77197 79.1318 5.10878 79.15 5.45C79.1642 6.58 79.0263 7.70677 78.74 8.8C77.7309 13.0764 75.9702 17.1395 73.54 20.8C73.4623 20.8952 73.4106 21.0089 73.39 21.13C73.3595 21.2481 73.3595 21.3719 73.39 21.49C73.5908 22.1101 73.9331 22.6751 74.39 23.14C74.702 23.49 75.1177 23.7312 75.5764 23.8283C76.0351 23.9254 76.5129 23.8735 76.94 23.68C77.3518 23.4931 77.7438 23.2653 78.11 23C78.64 22.65 79.11 22.25 79.69 21.91C80.3274 21.5014 81.0423 21.229 81.79 21.11C82.5422 20.9881 83.3115 21.0221 84.05 21.21C84.7594 21.3704 85.4029 21.7436 85.8943 22.2798C86.3858 22.8159 86.7018 23.4894 86.8 24.21C87.1588 25.9065 87.0199 27.6706 86.4 29.29C85.5556 31.5685 84.0164 33.524 82 34.88C80.2333 36.0965 78.2668 36.9934 76.19 37.53C74.524 37.989 72.8207 38.3002 71.1 38.46C69.5814 38.61 68.056 38.6801 66.53 38.67H0C0 38.51 0.07 38.4 0.12 38.29C1.39333 35.93 2.66333 33.5967 3.93 31.29C4.2 30.79 4.48 30.29 4.73 29.8C4.74714 29.7306 4.78058 29.6663 4.82753 29.6124C4.87448 29.5585 4.93361 29.5165 5 29.49C5.09921 29.431 5.21636 29.4097 5.33 29.43H74.71C76.8548 29.4552 78.9743 28.9648 80.89 28C81.5858 27.6508 82.2206 27.1916 82.77 26.64C83.2706 26.1696 83.6189 25.5601 83.77 24.89C83.8232 24.5588 83.8232 24.2212 83.77 23.89C83.7299 23.55 83.57 23.2354 83.3189 23.0027C83.0678 22.77 82.742 22.6343 82.4 22.62C81.8473 22.5604 81.29 22.6796 80.81 22.96C80.4 23.2 80 23.46 79.6 23.72C78.8689 24.2691 78.0412 24.6761 77.16 24.92C76.1342 25.2028 75.0409 25.107 74.08 24.65C73.4387 24.2998 72.8955 23.7944 72.5 23.18C72.39 23.03 72.28 22.85 72.19 22.72C71.99 22.9 71.79 23.05 71.61 23.22C71.1278 23.7196 70.5872 24.1595 70 24.53C69.2707 24.9855 68.399 25.1557 67.552 25.0081C66.7049 24.8605 65.9422 24.4053 65.41 23.73C65.1488 23.3624 64.9116 22.9783 64.7 22.58C64.64 22.48 64.59 22.36 64.52 22.22C64.38 22.37 64.28 22.52 64.15 22.64C63.63 23.17 63.15 23.64 62.59 24.2C62.4194 24.35 62.2353 24.4839 62.04 24.6C61.6874 24.8421 61.2825 24.9973 60.8584 25.0529C60.4343 25.1086 60.0031 25.063 59.6 24.92C59.1563 24.7955 58.7546 24.5531 58.4376 24.2185C58.1207 23.884 57.9003 23.4698 57.8 23.02C57.8 22.87 57.73 22.71 57.68 22.51L57.3 23C56.7249 23.7447 55.9947 24.3555 55.16 24.79C54.6128 25.0531 53.9937 25.1269 53.4 25C53.0014 24.9299 52.6295 24.7522 52.3246 24.4861C52.0197 24.2199 51.7933 23.8755 51.67 23.49C51.57 23.25 51.5 23 51.41 22.71C51.33 22.8 51.25 22.88 51.19 22.96C50.7266 23.5702 50.1697 24.1034 49.54 24.54C49.1527 24.7969 48.713 24.9642 48.2528 25.03C47.7927 25.0957 47.3238 25.0581 46.88 24.92C46.4058 24.7842 45.9848 24.5062 45.6736 24.1235C45.3624 23.7408 45.1762 23.2719 45.14 22.78C44.9936 21.7287 45.1069 20.6575 45.47 19.66C46.04 17.9611 46.791 16.3284 47.71 14.79C47.83 14.58 47.95 14.38 48.07 14.16C48.07 14.16 48.07 14.11 48.07 14.06H45.5L45.38 14.46C44.5701 17.5047 43.013 20.2992 40.85 22.59C40.0575 23.4435 39.0975 24.1243 38.03 24.59C37.021 25.0554 35.8787 25.1441 34.81 24.84C34.1658 24.6543 33.5852 24.2948 33.1318 23.8009C32.6785 23.307 32.3699 22.6977 32.24 22.04C32.0403 21.1949 31.9996 20.32 32.12 19.46C32.12 19.39 32.12 19.32 32.12 19.21C31.3267 18.982 30.5997 18.5671 30 18C29.87 18.31 29.76 18.58 29.64 18.84C28.98 20.3888 28.0789 21.8232 26.97 23.09C26.4058 23.7037 25.7392 24.2147 25 24.6C24.3898 24.9375 23.6959 25.0936 23 25.05C22.4415 25.0407 21.904 24.8353 21.4817 24.4696C21.0594 24.104 20.7791 23.6015 20.69 23.05C20.538 22.1519 20.6313 21.2295 20.96 20.38C21.3673 19.3345 21.8729 18.33 22.47 17.38C22.89 16.66 23.32 15.96 23.71 15.22C23.9165 14.7947 24.0968 14.3572 24.25 13.91C24.2812 13.8027 24.298 13.6917 24.3 13.58C22.888 14.5228 21.2171 15.0017 19.52 14.95L19.35 15.35C18.3544 17.8185 16.8985 20.0752 15.06 22C13.8797 23.2987 12.429 24.3228 10.81 25C9.54112 25.5147 8.14457 25.6264 6.81 25.32C5.95054 25.1237 5.14831 24.7308 4.46639 24.1721C3.78447 23.6134 3.24144 22.9041 2.88 22.1C2.36282 21.0155 2.06382 19.8398 2 18.64C1.79587 15.1003 2.55623 11.5715 4.2 8.43C5.21443 6.38173 6.56669 4.51899 8.2 2.92C9.08328 2.03951 10.0947 1.29778 11.2 0.72C11.916 0.332531 12.7006 0.0879928 13.51 0H13.94ZM59.19 14.6C59.1988 14.4368 59.1988 14.2732 59.19 14.11C59.1797 14.0083 59.1596 13.9078 59.13 13.81C59.1084 13.7031 59.0603 13.6034 58.99 13.52C58.924 13.4291 58.8386 13.3539 58.74 13.3C58.6439 13.2492 58.5384 13.2186 58.43 13.21C58.3211 13.2062 58.2125 13.2232 58.11 13.26C57.9159 13.3138 57.7331 13.4019 57.57 13.52C57.2615 13.7326 56.9736 13.9737 56.71 14.24C55.5169 15.5047 54.6247 17.0224 54.1 18.68C53.6801 19.8672 53.4802 21.1211 53.51 22.38C53.5216 22.7026 53.5893 23.0207 53.71 23.32C53.7411 23.4274 53.7957 23.5265 53.87 23.61C53.9457 23.6966 54.0374 23.7679 54.14 23.82C54.243 23.87 54.3555 23.8973 54.47 23.9C54.5828 23.9013 54.6949 23.881 54.8 23.84C55.1121 23.7447 55.4037 23.5921 55.66 23.39C55.9824 23.1157 56.2741 22.8072 56.53 22.47C57.3156 21.367 57.9261 20.1494 58.34 18.86C58.8261 17.4881 59.1124 16.0534 59.19 14.6V14.6ZM73.07 18.73C73.13 18.68 73.16 18.67 73.17 18.65L73.39 18.26C74.5471 16.0625 75.5495 13.787 76.39 11.45C77.0403 9.76339 77.5291 8.01892 77.85 6.24C77.9163 5.86009 77.9531 5.4756 77.96 5.09C77.96 4.68 77.67 4.52 77.32 4.74C77.1319 4.8646 76.9662 5.02013 76.83 5.2C76.5918 5.51473 76.3811 5.84929 76.2 6.2C75.7118 7.09141 75.2971 8.02116 74.96 8.98C74.1379 11.2432 73.5711 13.591 73.27 15.98C73.1401 16.9008 73.0799 17.8301 73.09 18.76L73.07 18.73ZM17.38 12.47L17.46 12.24C17.9217 10.8538 18.2859 9.43701 18.55 8C18.8198 6.68486 18.9006 5.33796 18.79 4C18.7803 3.60815 18.6775 3.22424 18.49 2.88C18.4166 2.7571 18.3177 2.65139 18.2 2.57C18.0809 2.48642 17.9439 2.43165 17.8 2.41C17.6616 2.38027 17.5184 2.38027 17.38 2.41C17.2395 2.45133 17.1098 2.52302 17 2.62C16.8335 2.77141 16.6947 2.95078 16.59 3.15C16.3966 3.53927 16.2361 3.94401 16.11 4.36C15.6781 5.95245 15.5727 7.61577 15.8 9.25C15.8962 10.086 16.1726 10.8911 16.61 11.61C16.8104 11.9425 17.0716 12.2342 17.38 12.47V12.47ZM17.22 36.38V33.67L17.47 33.99L18.85 36.06C18.8906 36.1393 18.941 36.2132 19 36.28C19.12 36.43 19.21 36.43 19.33 36.28L19.49 36.07L20.88 34.07L21.1 33.78H21.18V36.39H23V31.65H21.63C21.5327 31.6364 21.4336 31.6543 21.3473 31.7011C21.2609 31.7479 21.1918 31.8211 21.15 31.91C20.81 32.48 20.45 33.04 20.15 33.6C20.0914 33.6869 20.028 33.7703 19.96 33.85L19.73 33.51C19.38 32.96 19.03 32.41 18.73 31.85C18.6962 31.7861 18.6439 31.7338 18.58 31.7C18.5176 31.6603 18.4436 31.6427 18.37 31.65H16.56H16.37V36.4H16.88H17.23L17.22 36.38ZM66 18C66.07 18 66.1 17.94 66.11 17.92L66.26 17.66C67.5698 15.2907 68.7094 12.8311 69.67 10.3C70.2539 8.88301 70.6993 7.41282 71 5.91C71.0523 5.61283 71.0791 5.31173 71.08 5.01C71.0928 4.95406 71.0928 4.89594 71.08 4.84C71.056 4.78734 71.022 4.7398 70.98 4.7C70.85 4.61 70.71 4.7 70.61 4.8C70.4657 4.92296 70.338 5.06414 70.23 5.22C69.9152 5.6846 69.6248 6.16525 69.36 6.66C68.1965 8.95229 67.3135 11.3764 66.73 13.88C66.3748 15.2311 66.1306 16.6091 66 18V18ZM35.7 31.65V36.36C36.3069 36.4468 36.9231 36.4468 37.53 36.36C37.53 35.87 37.53 35.36 37.53 34.88H38C38.23 35.41 38.46 35.88 38.67 36.41H40.55L39.72 34.62C39.7517 34.5816 39.7887 34.5479 39.83 34.52C40.0911 34.3728 40.2981 34.1457 40.4205 33.8721C40.543 33.5985 40.5743 33.2928 40.51 33C40.4762 32.7124 40.3527 32.4426 40.1571 32.2291C39.9614 32.0155 39.7036 31.8689 39.42 31.81C39.0931 31.7255 38.7576 31.6786 38.42 31.67H35.7V31.65ZM49.62 36.37C48.98 34.78 48.37 33.22 47.75 31.66H45.85C45.27 33.23 44.68 34.78 44.12 36.37H45L45.25 35.73H47.25L47.51 36.36L49.62 36.37ZM61.43 35.59L61.15 36.12C61.3326 36.2003 61.5196 36.2705 61.71 36.33C62.487 36.5333 63.2987 36.5674 64.09 36.43C64.3476 36.3907 64.5994 36.3202 64.84 36.22C65.0613 36.1467 65.2578 36.0128 65.4071 35.8337C65.5563 35.6546 65.6526 35.4373 65.6848 35.2063C65.717 34.9754 65.6841 34.74 65.5895 34.5268C65.495 34.3137 65.3428 34.1312 65.15 34C64.83 33.75 64.46 33.55 64.15 33.33C63.84 33.11 63.72 33.07 63.52 32.92C63.4414 32.8801 63.3782 32.8153 63.3402 32.7357C63.3022 32.6561 63.2916 32.5662 63.31 32.48C63.3393 32.3891 63.3994 32.3113 63.48 32.26C63.5545 32.2023 63.6458 32.1707 63.74 32.17C64.129 32.126 64.5229 32.1739 64.89 32.31L65.21 32.41L65.47 31.93L65.33 31.83L65 31.73C64.2985 31.5307 63.5649 31.4695 62.84 31.55C62.4272 31.5843 62.0274 31.7107 61.67 31.92C61.5105 32.004 61.3744 32.1262 61.2737 32.2757C61.1731 32.4251 61.111 32.5973 61.0932 32.7766C61.0754 32.9559 61.1023 33.1369 61.1715 33.3033C61.2408 33.4696 61.3502 33.6163 61.49 33.73C61.6983 33.91 61.9226 34.0706 62.16 34.21C62.42 34.37 62.7 34.51 62.97 34.68C63.1087 34.7635 63.2335 34.8681 63.34 34.99C63.3914 35.0397 63.4292 35.1016 63.45 35.17C63.4648 35.2426 63.4648 35.3174 63.45 35.39C63.4329 35.4606 63.3985 35.5259 63.35 35.58C63.3015 35.6374 63.2397 35.682 63.17 35.71C63.0273 35.7801 62.8686 35.8112 62.71 35.8C62.28 35.8 61.87 35.67 61.4 35.59H61.43ZM34.87 18.32C34.9696 18.3327 35.0704 18.3327 35.17 18.32C36.3306 18.1663 37.4162 17.6602 38.28 16.87C38.9438 16.2906 39.4293 15.5346 39.68 14.69C39.7662 14.4187 39.8034 14.1343 39.79 13.85C39.7946 13.7359 39.7728 13.6222 39.7261 13.518C39.6795 13.4137 39.6094 13.3217 39.5212 13.249C39.4331 13.1764 39.3294 13.1251 39.2181 13.0993C39.1069 13.0734 38.9911 13.0737 38.88 13.1C38.6224 13.1397 38.3747 13.2279 38.15 13.36C37.79 13.5684 37.4545 13.8166 37.15 14.1C36.1745 15.0797 35.4565 16.2855 35.06 17.61C34.99 17.84 34.94 18.07 34.86 18.34L34.87 18.32ZM27 31.66V32.42C27 33.12 27 33.83 27 34.53C27.0003 34.9421 27.1396 35.3421 27.3955 35.6651C27.6514 35.9882 28.0089 36.2154 28.41 36.31C29.0595 36.5051 29.7484 36.5292 30.41 36.38C30.812 36.3141 31.1778 36.1085 31.4431 35.7993C31.7083 35.4902 31.8559 35.0973 31.86 34.69C31.86 34.51 31.86 34.32 31.86 34.13C31.86 33.38 31.86 32.62 31.86 31.87C31.8647 31.8001 31.8647 31.7299 31.86 31.66H31C31 31.78 31 31.88 31 31.98V34.35C31.0262 34.5659 31.0262 34.7841 31 35C30.9541 35.2154 30.8422 35.4111 30.68 35.56C30.5121 35.7042 30.301 35.7886 30.08 35.8C29.8526 35.8259 29.6231 35.7729 29.43 35.65C29.2382 35.5283 29.0936 35.3449 29.02 35.13C28.9396 34.8778 28.8991 34.6147 28.9 34.35C28.9 33.57 28.9 32.77 28.9 31.98C28.9 31.89 28.9 31.79 28.9 31.68L27 31.66ZM53.33 31.66V36.36H57.41V35.74H55.11V31.65L53.33 31.66Z" />
<path d="M37.5601 34.18V32.29C37.9701 32.29 38.3501 32.21 38.6201 32.58C38.7288 32.7704 38.786 32.9858 38.786 33.205C38.786 33.4242 38.7288 33.6397 38.6201 33.83C38.4101 34.25 38.0001 34.21 37.5601 34.18Z" />
<path d="M47.1 35.1H45.49C45.6998 34.3667 45.9673 33.6511 46.29 32.96L47.1 35.1Z" />
</g>
<defs>
<clipPath id="clip0_14_75">
<rect width="87" height="38.67" fill="white"/>
</clipPath>
</defs>
</svg>
