<svg width="721" height="724" viewBox="0 0 721 724" xmlns="http://www.w3.org/2000/svg">
<g clip-path="url(#clip0)">
<path d="M657.672 176.096C659.364 178.78 659.713 181.588 658.72 184.518C657.765 187.424 655.657 189.904 652.397 191.959C649.137 194.013 646.01 194.832 643.014 194.416C640.043 194.037 637.724 192.525 636.056 189.879L632.032 183.493C631.935 183.34 631.81 183.312 631.656 183.408L613.765 194.684C613.382 194.925 613.069 194.855 612.827 194.471L611.631 192.573C611.389 192.189 611.46 191.876 611.843 191.635L651.078 166.908C651.461 166.667 651.774 166.738 652.016 167.121L657.672 176.096ZM638.297 187.824C639.481 189.703 641.184 190.746 643.405 190.954C645.626 191.162 647.963 190.493 650.418 188.946C652.911 187.375 654.543 185.543 655.313 183.449C656.084 181.356 655.877 179.37 654.693 177.491L650.958 171.565C650.862 171.412 650.737 171.383 650.583 171.48L634.648 181.523C634.494 181.62 634.466 181.745 634.563 181.898L638.297 187.824Z"/>
<path d="M627.819 219.692C627.616 219.287 627.717 218.982 628.123 218.779L669.472 198.082C669.877 197.879 670.182 197.981 670.385 198.386L671.389 200.393C671.592 200.798 671.491 201.102 671.085 201.305L632.229 220.754C632.067 220.836 632.026 220.957 632.108 221.119L639.23 235.348C639.433 235.754 639.332 236.058 638.926 236.261L637.284 237.083C636.879 237.286 636.575 237.184 636.372 236.779L627.819 219.692Z"/>
<path d="M647.029 263.997C646.885 263.615 646.989 263.31 647.339 263.082L655.031 258.229C655.116 258.197 655.164 258.131 655.174 258.03C655.201 257.971 655.198 257.9 655.166 257.815L650.477 245.339C650.445 245.254 650.392 245.177 650.317 245.108C650.259 245.082 650.187 245.085 650.102 245.117L641.118 246.532C640.72 246.633 640.442 246.472 640.282 246.047L639.492 243.947C639.413 243.735 639.413 243.541 639.492 243.366C639.587 243.233 639.749 243.148 639.977 243.111L686.897 236.517C687.311 236.458 687.59 236.62 687.733 237.001L688.69 239.548C688.85 239.972 688.747 240.277 688.381 240.463L648.758 266.471L648.631 266.519C648.249 266.662 647.986 266.543 647.842 266.161L647.029 263.997ZM653.676 244.573C653.506 244.636 653.445 244.732 653.493 244.859L657.727 256.126C657.775 256.253 657.884 256.285 658.054 256.221L682.849 240.435C682.961 240.345 683.008 240.279 682.992 240.236C682.976 240.194 682.897 240.175 682.754 240.181L653.676 244.573Z"/>
<path d="M651.789 279.869C651.669 279.432 651.827 279.153 652.264 279.032L672.584 273.424C672.759 273.376 672.862 273.324 672.894 273.268L694.191 257.655L694.435 257.517C694.785 257.42 695.014 257.569 695.123 257.962L695.756 260.256C695.864 260.649 695.762 260.96 695.449 261.187L677.345 273.803C677.269 273.871 677.244 273.948 677.268 274.036C677.292 274.123 677.354 274.177 677.453 274.196L699.447 275.674C699.833 275.708 700.08 275.922 700.188 276.316L700.822 278.61C700.882 278.828 700.837 279.005 700.686 279.141C700.591 279.308 700.422 279.378 700.18 279.351L673.889 276.873C673.833 276.841 673.718 276.85 673.543 276.898L653.223 282.507C652.786 282.627 652.507 282.469 652.386 282.032L651.789 279.869Z"/>
<path d="M660.183 325.819C659.796 322.624 660.562 319.905 662.483 317.663C664.448 315.416 667.186 314.079 670.696 313.654L672.113 313.482C672.564 313.427 672.816 313.625 672.87 314.075L673.132 316.235C673.187 316.685 672.989 316.938 672.539 316.992L671.256 317.148C668.601 317.47 666.543 318.381 665.081 319.883C663.624 321.429 663.024 323.26 663.28 325.375C663.537 327.491 664.537 329.15 666.281 330.354C668.026 331.559 670.158 332.008 672.678 331.702C674.343 331.501 675.742 330.989 676.876 330.166C678.014 329.389 678.949 328.431 679.678 327.292C680.458 326.193 681.587 324.389 683.064 321.881C684.535 319.328 685.757 317.354 686.73 315.957C687.752 314.6 689.002 313.421 690.479 312.42C692.001 311.414 693.865 310.777 696.07 310.51C699.535 310.09 702.375 310.727 704.59 312.422C706.805 314.118 708.098 316.495 708.468 319.556C708.867 322.841 708.083 325.607 706.118 327.855C704.153 330.102 701.37 331.444 697.77 331.88L696.082 332.085C695.632 332.14 695.38 331.942 695.325 331.492L695.055 329.264C695.001 328.814 695.198 328.562 695.648 328.507L697.336 328.303C699.991 327.981 702.047 327.047 703.504 325.5C705.011 323.993 705.631 322.137 705.363 319.932C705.123 317.952 704.204 316.396 702.606 315.266C701.052 314.13 698.993 313.717 696.428 314.028C694.898 314.214 693.603 314.645 692.543 315.321C691.489 316.042 690.53 316.981 689.665 318.136C688.806 319.336 687.697 321.114 686.339 323.471C684.68 326.366 683.323 328.54 682.266 329.992C681.209 331.445 680.001 332.596 678.643 333.445C677.29 334.34 675.601 334.91 673.576 335.156C669.886 335.603 666.815 334.948 664.365 333.19C661.964 331.471 660.571 329.015 660.183 325.819Z"/>
<path d="M710.017 363.589C710.47 363.582 710.701 363.805 710.708 364.258L710.744 366.502C710.752 366.955 710.529 367.186 710.076 367.193L663.842 367.944C663.388 367.951 663.158 367.728 663.151 367.275L663.114 365.031C663.107 364.578 663.33 364.347 663.783 364.34L685.064 363.995C685.246 363.992 685.335 363.899 685.332 363.718L685.113 350.256C685.11 350.075 685.018 349.985 684.837 349.988L663.556 350.334C663.102 350.341 662.872 350.118 662.865 349.665L662.828 347.421C662.821 346.968 663.044 346.738 663.497 346.73L709.731 345.98C710.184 345.972 710.415 346.195 710.422 346.649L710.459 348.892C710.466 349.346 710.243 349.576 709.79 349.583L688.576 349.928C688.395 349.931 688.306 350.023 688.309 350.204L688.527 363.666C688.53 363.848 688.623 363.937 688.804 363.934L710.017 363.589Z"/>
<path d="M661.49 390.344C661.787 387.048 663.067 384.455 665.331 382.565C667.636 380.724 670.482 379.956 673.868 380.261L699.536 382.571C702.968 382.88 705.63 384.144 707.525 386.363C709.464 388.585 710.283 391.367 709.982 394.709C709.682 398.05 708.377 400.663 706.068 402.549C703.804 404.439 700.956 405.23 697.525 404.921L671.857 402.611C668.47 402.306 665.809 401.02 663.874 398.752C661.984 396.488 661.19 393.685 661.49 390.344ZM664.673 390.631C664.47 392.888 665.051 394.784 666.415 396.318C667.775 397.897 669.651 398.794 672.044 399.009L697.983 401.344C700.376 401.559 702.383 401.011 704.003 399.701C705.664 398.439 706.596 396.68 706.799 394.422C706.998 392.21 706.393 390.335 704.984 388.797C703.62 387.263 701.742 386.388 699.349 386.173L673.41 383.838C671.017 383.623 669.012 384.148 667.396 385.414C665.78 386.679 664.873 388.418 664.673 390.631Z"/>
<path d="M657.914 418.594C658.001 418.195 658.254 417.995 658.671 417.993L705.748 419.14L705.881 419.169C706.279 419.256 706.435 419.499 706.348 419.898L705.841 422.223C705.745 422.666 705.492 422.866 705.084 422.824L665.921 421.453C665.823 421.478 665.769 421.513 665.759 421.557C665.749 421.601 665.784 421.655 665.863 421.719L702.274 435.713C702.663 435.844 702.814 436.109 702.727 436.507L702.278 438.567C702.191 438.966 701.943 439.144 701.535 439.101L662.531 437C662.433 437.025 662.379 437.059 662.369 437.104C662.36 437.148 662.394 437.202 662.473 437.266L698.782 451.725C699.162 451.9 699.313 452.165 699.236 452.519L698.729 454.845C698.68 455.066 698.58 455.207 698.428 455.266C698.266 455.37 698.079 455.376 697.867 455.283L654.485 437.194C654.096 437.063 653.95 436.776 654.046 436.333L654.51 434.207C654.587 433.853 654.835 433.675 655.253 433.673L694.161 435.893C694.259 435.868 694.313 435.833 694.323 435.789C694.333 435.744 694.298 435.69 694.219 435.627L657.904 421.515C657.515 421.383 657.364 421.119 657.451 420.72L657.914 418.594Z"/>
<path d="M642.925 471.498C643.059 471.113 643.32 470.916 643.707 470.907L666.524 470.944C666.667 470.946 666.761 470.883 666.806 470.754L669.024 464.398C669.083 464.227 669.028 464.111 668.856 464.052L648.696 457.019C648.268 456.87 648.128 456.581 648.278 456.153L649.017 454.034C649.166 453.606 649.455 453.467 649.883 453.616L693.543 468.846C693.971 468.995 694.11 469.284 693.961 469.712L690.489 479.664C689.444 482.66 687.488 484.69 684.62 485.754C681.752 486.819 678.52 486.724 674.925 485.469C672.057 484.469 669.834 482.997 668.255 481.054C666.676 479.111 665.896 476.943 665.915 474.549C665.932 474.362 665.847 474.261 665.661 474.244L642.713 474.377L642.434 474.352C642.134 474.247 642.051 474.002 642.186 473.617L642.925 471.498ZM689.89 471.677C689.95 471.506 689.894 471.39 689.723 471.331L672.195 465.216C672.024 465.157 671.908 465.212 671.849 465.384L669.564 471.933C668.833 474.03 669.056 476.004 670.235 477.856C671.456 479.722 673.415 481.126 676.112 482.066C678.851 483.022 681.258 483.141 683.333 482.425C685.45 481.723 686.874 480.323 687.606 478.226L689.89 471.677Z"/>
<path d="M670.306 520.715C669.896 520.522 669.787 520.221 669.979 519.81L676.823 505.22C676.9 505.056 676.857 504.935 676.693 504.858L660.009 497.032C659.845 496.955 659.724 496.999 659.647 497.163L655.258 506.52C655.065 506.931 654.764 507.04 654.353 506.847L652.691 506.068C652.281 505.875 652.172 505.574 652.364 505.163L656.754 495.806C656.831 495.641 656.787 495.521 656.623 495.444L639.878 487.589C639.713 487.512 639.593 487.556 639.516 487.72L632.672 502.31C632.479 502.721 632.178 502.83 631.767 502.637L630.105 501.858C629.695 501.665 629.586 501.364 629.778 500.953L637.98 483.469C638.172 483.059 638.474 482.95 638.884 483.142L680.747 502.779C681.158 502.972 681.267 503.273 681.074 503.683L672.873 521.168C672.68 521.578 672.379 521.687 671.968 521.494L670.306 520.715Z"/>
<path d="M652.61 551.442C652.222 551.209 652.144 550.898 652.377 550.509L660.665 536.688C660.759 536.532 660.727 536.408 660.572 536.314L644.768 526.837C644.612 526.744 644.488 526.775 644.395 526.931L639.079 535.795C638.846 536.184 638.535 536.261 638.146 536.028L636.571 535.084C636.183 534.851 636.105 534.54 636.338 534.151L641.654 525.287C641.747 525.131 641.716 525.007 641.56 524.914L625.698 515.401C625.542 515.308 625.418 515.339 625.325 515.495L617.036 529.316C616.803 529.705 616.492 529.783 616.103 529.55L614.529 528.605C614.14 528.372 614.062 528.061 614.295 527.672L624.227 511.11C624.46 510.721 624.771 510.644 625.16 510.877L664.816 534.657C665.205 534.891 665.283 535.202 665.05 535.59L655.118 552.153C654.885 552.541 654.574 552.619 654.185 552.386L652.61 551.442Z"/>
<path d="M607.709 537.214C607.979 536.85 608.296 536.803 608.661 537.072L645.826 564.584C646.19 564.853 646.238 565.17 645.968 565.535L644.633 567.338C644.363 567.703 644.046 567.75 643.682 567.48L608.757 541.628C608.611 541.52 608.485 541.539 608.377 541.685L598.91 554.474C598.64 554.838 598.323 554.886 597.959 554.616L596.483 553.524C596.118 553.254 596.071 552.937 596.341 552.573L607.709 537.214Z"/>
<path d="M548.095 658.717C545.426 660.433 542.622 660.807 539.683 659.84C536.768 658.911 534.269 656.826 532.185 653.585C530.101 650.344 529.254 647.224 529.644 644.225C529.995 641.25 531.487 638.917 534.118 637.226L540.467 633.144C540.62 633.046 540.647 632.921 540.549 632.768L529.113 614.979C528.868 614.598 528.936 614.284 529.317 614.039L531.205 612.826C531.586 612.581 531.899 612.649 532.144 613.03L557.223 652.041C557.468 652.422 557.4 652.735 557.018 652.98L548.095 658.717ZM536.193 639.448C534.325 640.65 533.297 642.361 533.109 644.584C532.921 646.807 533.611 649.138 535.18 651.579C536.773 654.058 538.62 655.673 540.72 656.425C542.82 657.176 544.805 656.952 546.673 655.75L552.565 651.963C552.717 651.865 552.745 651.74 552.647 651.587L542.461 635.743C542.363 635.59 542.237 635.563 542.085 635.661L536.193 639.448Z"/>
<path d="M504.432 629.53C504.834 629.322 505.14 629.419 505.348 629.822L526.579 670.9C526.787 671.303 526.69 671.608 526.287 671.816L524.294 672.847C523.891 673.055 523.586 672.957 523.377 672.555L503.426 633.954C503.343 633.793 503.221 633.754 503.06 633.837L488.924 641.143C488.522 641.351 488.216 641.254 488.008 640.851L487.165 639.22C486.957 638.817 487.054 638.512 487.457 638.304L504.432 629.53Z"/>
<path d="M460.271 649.176C460.651 649.028 460.958 649.127 461.19 649.474L466.136 657.108C466.168 657.192 466.235 657.239 466.336 657.249C466.395 657.274 466.467 657.271 466.551 657.238L478.969 652.399C479.054 652.366 479.13 652.312 479.198 652.237C479.224 652.178 479.22 652.106 479.188 652.022L477.664 643.055C477.558 642.658 477.716 642.378 478.139 642.213L480.229 641.398C480.441 641.316 480.634 641.314 480.81 641.391C480.944 641.485 481.031 641.646 481.071 641.873L488.23 688.71C488.294 689.123 488.135 689.404 487.755 689.552L485.221 690.54C484.798 690.704 484.492 690.605 484.302 690.241L457.818 650.934L457.769 650.808C457.621 650.428 457.737 650.163 458.117 650.015L460.271 649.176ZM479.774 655.588C479.709 655.419 479.612 655.359 479.486 655.409L468.271 659.779C468.144 659.828 468.114 659.937 468.18 660.106L484.263 684.71C484.354 684.82 484.421 684.867 484.463 684.851C484.506 684.834 484.523 684.754 484.516 684.611L479.774 655.588Z"/>
<path d="M444.464 654.128C444.899 654.003 445.18 654.157 445.306 654.593L451.158 674.844C451.209 675.018 451.262 675.121 451.318 675.152L467.187 696.26L467.328 696.502C467.428 696.851 467.283 697.082 466.891 697.195L464.604 697.856C464.212 697.969 463.901 697.87 463.669 697.56L450.837 679.609C450.768 679.534 450.69 679.51 450.603 679.535C450.516 679.56 450.463 679.622 450.445 679.722L449.232 701.732C449.202 702.118 448.991 702.368 448.599 702.481L446.313 703.142C446.095 703.205 445.918 703.162 445.78 703.013C445.612 702.92 445.54 702.752 445.564 702.509L447.725 676.19C447.756 676.134 447.747 676.019 447.696 675.845L441.843 655.594C441.717 655.158 441.872 654.877 442.308 654.751L444.464 654.128Z"/>
<path d="M398.645 663.234C401.836 662.816 404.562 663.555 406.823 665.454C409.09 667.397 410.453 670.121 410.912 673.627L411.098 675.043C411.157 675.493 410.962 675.747 410.512 675.806L408.355 676.089C407.905 676.148 407.651 675.952 407.592 675.503L407.424 674.222C407.076 671.57 406.145 669.52 404.629 668.073C403.068 666.632 401.232 666.05 399.119 666.327C397.007 666.604 395.357 667.62 394.17 669.376C392.982 671.132 392.554 673.268 392.884 675.786C393.102 677.449 393.628 678.843 394.461 679.968C395.25 681.099 396.217 682.024 397.362 682.742C398.469 683.512 400.284 684.623 402.806 686.075C405.373 687.521 407.36 688.724 408.765 689.683C410.132 690.692 411.323 691.931 412.339 693.398C413.36 694.91 414.015 696.767 414.304 698.97C414.758 702.431 414.148 705.277 412.474 707.508C410.801 709.739 408.436 711.055 405.379 711.456C402.098 711.886 399.324 711.13 397.058 709.186C394.791 707.243 393.422 704.474 392.951 700.878L392.73 699.192C392.671 698.743 392.866 698.489 393.316 698.43L395.54 698.138C395.99 698.079 396.244 698.274 396.303 698.724L396.524 700.409C396.872 703.061 397.826 705.108 399.387 706.549C400.908 708.041 402.77 708.643 404.973 708.354C406.95 708.095 408.497 707.161 409.612 705.551C410.733 703.987 411.125 701.924 410.789 699.362C410.589 697.834 410.145 696.543 409.458 695.49C408.727 694.443 407.779 693.493 406.616 692.639C405.407 691.792 403.618 690.701 401.248 689.365C398.337 687.735 396.15 686.399 394.688 685.356C393.225 684.314 392.062 683.117 391.199 681.767C390.292 680.423 389.705 678.74 389.44 676.717C388.957 673.031 389.582 669.955 391.316 667.487C393.011 665.07 395.454 663.652 398.645 663.234Z"/>
<path d="M361.374 713.355C361.386 713.808 361.165 714.04 360.712 714.053L358.469 714.113C358.016 714.126 357.783 713.905 357.771 713.452L356.52 667.229C356.508 666.776 356.728 666.543 357.182 666.531L359.425 666.47C359.878 666.458 360.111 666.678 360.123 667.132L360.699 688.408C360.704 688.589 360.797 688.677 360.978 688.672L374.437 688.308C374.618 688.303 374.706 688.21 374.701 688.029L374.126 666.753C374.113 666.299 374.334 666.067 374.787 666.054L377.03 665.994C377.483 665.981 377.716 666.202 377.728 666.655L378.979 712.878C378.991 713.331 378.771 713.564 378.318 713.576L376.075 713.637C375.621 713.649 375.389 713.429 375.377 712.976L374.803 691.767C374.798 691.586 374.705 691.498 374.523 691.503L361.064 691.867C360.883 691.872 360.795 691.965 360.8 692.146L361.374 713.355Z"/>
<path d="M334.162 664.846C337.461 665.11 340.066 666.365 341.978 668.61C343.842 670.897 344.638 673.735 344.366 677.124L342.308 702.814C342.033 706.248 340.796 708.923 338.596 710.839C336.392 712.8 333.618 713.646 330.274 713.379C326.93 713.111 324.304 711.832 322.396 709.541C320.483 707.296 319.665 704.456 319.94 701.022L321.998 675.332C322.269 671.943 323.53 669.27 325.778 667.312C328.024 665.4 330.818 664.578 334.162 664.846ZM333.907 668.032C331.647 667.851 329.758 668.45 328.237 669.829C326.672 671.204 325.793 673.089 325.601 675.484L323.522 701.445C323.33 703.84 323.897 705.841 325.224 707.448C326.501 709.097 328.27 710.012 330.53 710.193C332.744 710.37 334.613 709.747 336.137 708.322C337.657 706.943 338.513 705.056 338.705 702.661L340.785 676.701C340.976 674.306 340.432 672.306 339.15 670.703C337.869 669.1 336.121 668.209 333.907 668.032Z"/>
<path d="M305.836 661.922C306.236 662.005 306.439 662.255 306.446 662.672L305.866 709.759L305.839 709.892C305.756 710.292 305.516 710.451 305.116 710.369L302.785 709.89C302.341 709.798 302.137 709.548 302.175 709.14L303.074 669.963C303.048 669.865 303.012 669.812 302.968 669.802C302.923 669.793 302.87 669.829 302.807 669.908L289.253 706.485C289.126 706.875 288.863 707.03 288.464 706.947L286.399 706.523C285.999 706.441 285.818 706.196 285.856 705.787L287.487 666.761C287.461 666.663 287.426 666.609 287.381 666.6C287.337 666.591 287.284 666.626 287.221 666.706L273.2 703.187C273.029 703.568 272.766 703.722 272.411 703.649L270.08 703.17C269.858 703.125 269.716 703.026 269.655 702.875C269.549 702.714 269.541 702.527 269.631 702.315L287.196 658.718C287.323 658.327 287.608 658.177 288.052 658.269L290.183 658.707C290.539 658.779 290.72 659.025 290.726 659.443L288.975 698.375C289.002 698.473 289.037 698.526 289.081 698.536C289.126 698.545 289.179 698.509 289.242 698.43L302.916 661.947C303.042 661.557 303.305 661.402 303.705 661.485L305.836 661.922Z"/>
<path d="M252.745 647.569C253.132 647.698 253.332 647.957 253.346 648.344L253.587 671.159C253.587 671.303 253.651 671.396 253.78 671.439L260.163 673.579C260.335 673.636 260.45 673.579 260.508 673.407L267.293 653.162C267.437 652.732 267.724 652.589 268.154 652.734L270.282 653.447C270.712 653.591 270.855 653.878 270.711 654.308L256.015 698.15C255.871 698.58 255.584 698.723 255.155 698.579L245.161 695.229C242.152 694.221 240.098 692.289 238.999 689.435C237.9 686.58 237.956 683.347 239.166 679.737C240.131 676.857 241.575 674.616 243.499 673.013C245.423 671.411 247.582 670.605 249.976 670.594C250.162 670.609 250.262 670.523 250.277 670.337L249.864 647.392L249.886 647.112C249.986 646.811 250.23 646.726 250.617 646.855L252.745 647.569ZM253.14 694.533C253.312 694.591 253.427 694.533 253.484 694.362L259.384 676.76C259.442 676.588 259.384 676.473 259.212 676.416L252.636 674.211C250.53 673.505 248.558 673.753 246.721 674.954C244.87 676.198 243.49 678.174 242.583 680.882C241.661 683.633 241.571 686.041 242.313 688.107C243.04 690.216 244.457 691.623 246.564 692.329L253.14 694.533Z"/>
<path d="M204.008 675.558C204.194 675.145 204.494 675.031 204.907 675.218L219.601 681.838C219.766 681.912 219.886 681.867 219.961 681.701L227.531 664.9C227.605 664.735 227.56 664.615 227.394 664.54L217.971 660.294C217.557 660.108 217.444 659.808 217.63 659.395L218.384 657.721C218.57 657.308 218.87 657.194 219.283 657.381L228.707 661.626C228.872 661.701 228.992 661.655 229.067 661.49L236.665 644.627C236.739 644.461 236.694 644.341 236.528 644.267L221.835 637.647C221.422 637.461 221.308 637.161 221.494 636.748L222.248 635.074C222.435 634.66 222.734 634.547 223.148 634.733L240.755 642.666C241.168 642.852 241.282 643.152 241.096 643.565L222.101 685.724C221.915 686.137 221.615 686.251 221.202 686.064L203.595 678.131C203.181 677.945 203.068 677.645 203.254 677.232L204.008 675.558Z"/>
<path d="M172.956 658.237C173.184 657.845 173.494 657.764 173.886 657.992L187.806 666.114C187.963 666.205 188.087 666.172 188.178 666.016L197.464 650.098C197.556 649.942 197.523 649.818 197.366 649.726L188.439 644.518C188.047 644.289 187.966 643.979 188.194 643.588L189.119 642.002C189.348 641.61 189.658 641.529 190.049 641.757L198.977 646.966C199.134 647.057 199.258 647.025 199.349 646.868L208.67 630.892C208.761 630.736 208.728 630.612 208.572 630.52L194.652 622.399C194.26 622.17 194.178 621.86 194.407 621.469L195.332 619.883C195.561 619.492 195.871 619.41 196.262 619.638L212.943 629.37C213.334 629.599 213.416 629.909 213.187 630.3L189.886 670.24C189.658 670.631 189.348 670.713 188.956 670.485L172.275 660.753C171.884 660.524 171.802 660.214 172.031 659.823L172.956 658.237Z"/>
<path d="M186.564 613.252C186.931 613.519 186.98 613.836 186.713 614.202L159.489 651.578C159.222 651.945 158.905 651.994 158.539 651.727L156.725 650.406C156.359 650.139 156.309 649.823 156.576 649.456L182.159 614.334C182.266 614.187 182.246 614.061 182.099 613.954L169.237 604.585C168.871 604.318 168.821 604.002 169.088 603.635L170.169 602.151C170.436 601.785 170.753 601.735 171.119 602.002L186.564 613.252Z"/>
<path d="M64.3801 555.235C62.6235 552.593 62.2062 549.794 63.1282 546.841C64.0124 543.913 66.0591 541.382 69.2682 539.249C72.4774 537.116 75.5842 536.222 78.5887 536.565C81.5682 536.871 83.9236 538.327 85.6551 540.932L89.8332 547.218C89.9335 547.369 90.0592 547.394 90.2103 547.294L107.823 535.588C108.2 535.337 108.515 535.4 108.766 535.778L110.008 537.646C110.259 538.024 110.195 538.338 109.818 538.589L71.1947 564.26C70.8172 564.511 70.5029 564.448 70.252 564.07L64.3801 555.235ZM83.4644 543.041C82.2348 541.191 80.5074 540.189 78.2821 540.035C76.0569 539.881 73.7361 540.607 71.3198 542.213C68.8658 543.844 67.2789 545.715 66.5593 547.827C65.8397 549.938 66.0947 551.918 67.3242 553.768L71.2012 559.602C71.3016 559.753 71.4273 559.778 71.5783 559.678L87.2654 549.251C87.4164 549.151 87.4417 549.025 87.3414 548.874L83.4644 543.041Z"/>
<path d="M93.1805 510.945C93.3931 511.346 93.2993 511.652 92.899 511.865L52.0639 533.559C51.6636 533.772 51.357 533.678 51.1444 533.278L50.0916 531.296C49.8789 530.896 49.9727 530.589 50.373 530.376L88.746 509.99C88.9061 509.905 88.9437 509.783 88.8586 509.622L81.3933 495.57C81.1806 495.17 81.2744 494.864 81.6747 494.651L83.2961 493.789C83.6965 493.577 84.003 493.671 84.2157 494.071L93.1805 510.945Z"/>
<path d="M72.8848 467.084C73.0376 467.462 72.9418 467.77 72.5974 468.007L65.025 473.045C64.9409 473.079 64.8948 473.146 64.8868 473.247C64.8617 473.306 64.8661 473.378 64.9001 473.462L69.8907 485.82C69.9246 485.904 69.9796 485.98 70.0556 486.047C70.1146 486.072 70.1861 486.068 70.2702 486.034L79.2176 484.401C79.6129 484.29 79.8954 484.445 80.0652 484.865L80.9054 486.946C80.9903 487.156 80.9952 487.35 80.92 487.527C80.8278 487.662 80.6682 487.751 80.441 487.793L33.6948 495.524C33.2825 495.592 33 495.438 32.8472 495.059L31.8287 492.537C31.659 492.117 31.7548 491.809 32.1161 491.614L71.0964 464.653L71.2225 464.602C71.6008 464.449 71.8663 464.562 72.0191 464.94L72.8848 467.084ZM66.7114 486.664C66.8795 486.596 66.9381 486.499 66.8872 486.373L62.3804 475.213C62.3295 475.087 62.2199 475.058 62.0518 475.126L37.6465 491.508C37.5374 491.601 37.4913 491.668 37.5083 491.71C37.5253 491.752 37.6053 491.769 37.7484 491.76L66.7114 486.664Z"/>
<path d="M67.7411 451.348C67.8722 451.782 67.7209 452.064 67.2869 452.196L47.1088 458.295C46.9352 458.348 46.8333 458.402 46.803 458.459L25.8904 474.584L25.6497 474.728C25.3026 474.833 25.07 474.69 24.9519 474.299L24.2632 472.021C24.1452 471.631 24.24 471.318 24.5478 471.083L42.3405 458.032C42.4142 457.962 42.4379 457.884 42.4117 457.797C42.3854 457.71 42.3224 457.658 42.2225 457.641L20.1992 456.698C19.8127 456.672 19.5604 456.465 19.4424 456.074L18.7537 453.796C18.6881 453.579 18.729 453.401 18.8763 453.262C18.9671 453.092 19.1342 453.018 19.3774 453.039L45.7208 454.879C45.7773 454.909 45.8923 454.898 46.0659 454.846L66.2441 448.746C66.678 448.615 66.9606 448.766 67.0917 449.2L67.7411 451.348Z"/>
<path d="M58.1266 405.627C58.5772 408.814 57.865 411.547 55.9897 413.827C54.0695 416.113 51.3589 417.504 47.8577 417.999L46.4438 418.199C45.9949 418.262 45.7387 418.069 45.6753 417.621L45.3706 415.466C45.3071 415.017 45.4998 414.761 45.9487 414.698L47.2279 414.517C49.8762 414.142 51.9163 413.19 53.3482 411.66C54.7737 410.084 55.3372 408.242 55.0389 406.132C54.7406 404.023 53.7075 402.383 51.9397 401.214C50.1719 400.045 48.0311 399.638 45.5175 399.993C43.8567 400.228 42.4679 400.768 41.3512 401.612C40.2281 402.412 39.3131 403.389 38.6063 404.542C37.8482 405.656 36.7557 407.482 35.3289 410.018C33.9084 412.6 32.7259 414.599 31.7815 416.014C30.7858 417.391 29.5596 418.595 28.1028 419.625C26.6011 420.661 24.7506 421.335 22.5511 421.646C19.0948 422.135 16.2427 421.554 13.9947 419.903C11.7468 418.252 10.407 415.901 9.97534 412.848C9.51197 409.572 10.2404 406.79 12.1605 404.504C14.0807 402.218 16.8362 400.821 20.4271 400.313L22.1104 400.075C22.5593 400.012 22.8154 400.205 22.8789 400.653L23.1931 402.875C23.2566 403.324 23.0639 403.58 22.615 403.644L20.9318 403.882C18.2835 404.256 16.2466 405.231 14.8211 406.806C13.3443 408.343 12.7615 410.211 13.0725 412.41C13.3518 414.385 14.3017 415.922 15.9222 417.021C17.4977 418.126 19.5648 418.497 22.1233 418.135C23.6495 417.92 24.9355 417.463 25.9815 416.766C27.0212 416.024 27.9618 415.066 28.8033 413.894C29.6384 412.677 30.7117 410.877 32.0229 408.494C33.6234 405.567 34.9376 403.366 35.9654 401.893C36.9933 400.42 38.1778 399.245 39.519 398.369C40.8538 397.448 42.5311 396.844 44.551 396.559C48.2318 396.038 51.3147 396.632 53.7998 398.341C56.2336 400.011 57.6759 402.44 58.1266 405.627Z"/>
<path d="M7.44433 369.032C6.99136 369.05 6.75582 368.833 6.7377 368.38L6.64801 366.137C6.62989 365.684 6.84732 365.449 7.30029 365.431L53.5033 363.583C53.9563 363.565 54.1919 363.782 54.21 364.235L54.2997 366.477C54.3178 366.93 54.1004 367.166 53.6474 367.184L32.3804 368.034C32.1992 368.042 32.1122 368.136 32.1195 368.317L32.6576 381.77C32.6649 381.952 32.7591 382.039 32.9403 382.031L54.2073 381.181C54.6602 381.162 54.8958 381.38 54.9139 381.833L55.0036 384.075C55.0217 384.528 54.8043 384.764 54.3513 384.782L8.14825 386.63C7.69528 386.648 7.45973 386.431 7.44161 385.978L7.35193 383.735C7.33381 383.282 7.55123 383.047 8.0042 383.029L29.2033 382.181C29.3844 382.174 29.4714 382.079 29.4642 381.898L28.926 368.445C28.9188 368.264 28.8246 368.177 28.6434 368.184L7.44433 369.032Z"/>
<path d="M55.6935 341.152C55.4684 344.454 54.2447 347.074 52.0223 349.013C49.7579 350.903 46.9296 351.733 43.5374 351.502L17.8251 349.749C14.3878 349.514 11.6982 348.309 9.75645 346.131C7.76947 343.951 6.89006 341.188 7.11823 337.841C7.3464 334.494 8.59427 331.853 10.8618 329.917C13.0842 327.978 15.914 327.126 19.3514 327.361L45.0637 329.113C48.4558 329.345 51.1438 330.573 53.1277 332.798C55.0664 335.021 55.9217 337.805 55.6935 341.152ZM52.5049 340.935C52.6591 338.674 52.0377 336.791 50.6407 335.287C49.2468 333.738 47.3514 332.882 44.9543 332.718L18.9706 330.947C16.5735 330.784 14.5793 331.375 12.9881 332.72C11.3548 334.017 10.461 335.797 10.3068 338.058C10.1557 340.274 10.8013 342.136 12.2435 343.643C13.6404 345.147 15.5375 345.98 17.9346 346.144L43.9182 347.915C46.3153 348.079 48.308 347.51 49.8961 346.21C51.4842 344.909 52.3538 343.151 52.5049 340.935Z"/>
<path d="M58.2768 312.809C58.1996 313.209 57.9521 313.415 57.5343 313.427L10.444 313.422L10.3105 313.397C9.90986 313.319 9.74816 313.081 9.82538 312.68L10.2758 310.343C10.3616 309.898 10.6091 309.692 11.0183 309.724L50.2031 310.144C50.3007 310.117 50.3538 310.081 50.3624 310.036C50.371 309.992 50.335 309.939 50.2546 309.877L13.5152 296.771C13.1231 296.649 12.9657 296.388 13.0429 295.987L13.4419 293.917C13.5191 293.517 13.7623 293.333 14.1715 293.365L53.2147 294.52C53.3123 294.493 53.3654 294.457 53.374 294.412C53.3826 294.368 53.3466 294.314 53.2662 294.253L16.6169 280.679C16.2334 280.513 16.076 280.252 16.1446 279.895L16.5951 277.558C16.638 277.336 16.7348 277.193 16.8855 277.13C17.0448 277.022 17.2314 277.012 17.4454 277.099L61.2537 294.13C61.6458 294.252 61.7989 294.536 61.7131 294.981L61.3013 297.117C61.2326 297.473 60.9894 297.657 60.5716 297.669L21.621 296.394C21.5233 296.421 21.4702 296.457 21.4617 296.502C21.4531 296.546 21.489 296.6 21.5695 296.661L58.2164 309.888C58.6084 310.01 58.7658 310.271 58.6886 310.672L58.2768 312.809Z"/>
<path d="M71.9764 259.551C71.8515 259.94 71.5956 260.143 71.2087 260.161L48.3977 260.682C48.2544 260.683 48.1619 260.749 48.1202 260.878L46.0589 267.287C46.0034 267.46 46.062 267.574 46.2346 267.629L66.561 274.167C66.9926 274.306 67.139 274.591 67.0002 275.023L66.3131 277.159C66.1743 277.59 65.8891 277.737 65.4575 277.598L21.4385 263.439C21.0069 263.301 20.8605 263.015 20.9993 262.584L24.2266 252.55C25.1983 249.529 27.1046 247.452 29.9456 246.318C32.7866 245.184 36.0196 245.2 39.6447 246.366C42.5361 247.296 44.7948 248.713 46.4205 250.617C48.0463 252.521 48.879 254.67 48.9186 257.063C48.9063 257.25 48.9933 257.349 49.1798 257.362L72.118 256.668L72.3978 256.687C72.6999 256.784 72.7885 257.026 72.6635 257.415L71.9764 259.551ZM25.0204 260.52C24.9649 260.693 25.0234 260.807 25.1961 260.862L42.8684 266.546C43.0411 266.602 43.1551 266.543 43.2106 266.371L45.3344 259.768C46.0146 257.653 45.7429 255.685 44.5194 253.863C43.2527 252.027 41.26 250.671 38.5412 249.797C35.7792 248.909 33.37 248.848 31.3137 249.615C29.2142 250.369 27.8243 251.803 27.1442 253.917L25.0204 260.52Z"/>
<path d="M43.4257 210.999C43.8407 211.182 43.9569 211.481 43.7744 211.896L37.2863 226.648C37.2133 226.814 37.2598 226.933 37.4258 227.006L54.2945 234.425C54.4605 234.498 54.58 234.452 54.653 234.286L58.8141 224.824C58.9966 224.41 59.2953 224.293 59.7103 224.476L61.391 225.215C61.8059 225.397 61.9222 225.696 61.7397 226.111L57.5785 235.573C57.5055 235.739 57.552 235.858 57.718 235.931L74.6489 243.377C74.8149 243.45 74.9344 243.404 75.0074 243.238L81.4955 228.486C81.678 228.071 81.9767 227.954 82.3917 228.137L84.0723 228.876C84.4873 229.058 84.6035 229.357 84.421 229.772L76.6463 247.45C76.4638 247.865 76.165 247.981 75.7501 247.799L33.4228 229.183C33.0078 229.001 32.8916 228.702 33.0741 228.287L40.8489 210.609C41.0314 210.194 41.3301 210.078 41.7451 210.26L43.4257 210.999Z"/>
<path d="M60.3427 179.894C60.737 180.118 60.8224 180.427 60.5987 180.821L52.6481 194.84C52.5587 194.997 52.5928 195.121 52.7505 195.21L68.7799 204.302C68.9377 204.391 69.0613 204.357 69.1507 204.199L74.2498 195.208C74.4735 194.814 74.7825 194.729 75.1768 194.952L76.7738 195.858C77.1681 196.082 77.2535 196.391 77.0298 196.785L71.9307 205.776C71.8413 205.934 71.8754 206.057 72.0331 206.147L88.1217 215.271C88.2794 215.361 88.403 215.327 88.4925 215.169L96.4431 201.151C96.6667 200.756 96.9757 200.671 97.37 200.895L98.967 201.8C99.3614 202.024 99.4467 202.333 99.2231 202.727L89.6958 219.526C89.4721 219.92 89.1632 220.005 88.7688 219.782L48.5474 196.97C48.1531 196.746 48.0678 196.437 48.2914 196.043L57.8187 179.245C58.0423 178.85 58.3513 178.765 58.7457 178.989L60.3427 179.894Z"/>
<path d="M105.351 192.867C105.089 193.237 104.773 193.291 104.403 193.029L66.652 166.327C66.2819 166.065 66.2278 165.749 66.4895 165.379L67.7854 163.547C68.0472 163.177 68.3631 163.123 68.7332 163.385L104.208 188.477C104.356 188.582 104.483 188.56 104.587 188.412L113.776 175.421C114.038 175.051 114.354 174.997 114.724 175.259L116.223 176.319C116.593 176.581 116.647 176.897 116.385 177.267L105.351 192.867Z"/>
<path d="M162.046 70.0853C164.668 68.2971 167.461 67.8461 170.425 68.7325C173.364 69.5814 175.919 71.5974 178.09 74.7806C180.262 77.9639 181.194 81.0597 180.886 84.0682C180.616 87.051 179.189 89.4239 176.605 91.1866L170.37 95.4401C170.22 95.5422 170.196 95.6682 170.298 95.818L182.216 113.288C182.471 113.663 182.412 113.978 182.037 114.233L180.184 115.498C179.809 115.753 179.494 115.694 179.239 115.319L153.105 77.0082C152.849 76.6337 152.909 76.3187 153.283 76.0632L162.046 70.0853ZM174.47 89.0214C176.305 87.7697 177.286 86.0303 177.413 83.8034C177.54 81.5764 176.786 79.2646 175.151 76.8678C173.491 74.4335 171.601 72.8693 169.481 72.1752C167.361 71.4811 165.384 71.7599 163.549 73.0116L157.763 76.9586C157.613 77.0608 157.589 77.1868 157.691 77.3366L168.306 92.8969C168.408 93.0467 168.534 93.0706 168.684 92.9684L174.47 89.0214Z"/>
<path d="M206.595 98.2188C206.197 98.4359 205.89 98.3454 205.673 97.9475L183.53 57.3536C183.313 56.9556 183.404 56.6481 183.802 56.431L185.772 55.3564C186.17 55.1394 186.477 55.2298 186.694 55.6278L207.501 93.7741C207.588 93.9333 207.711 93.9695 207.871 93.8826L221.84 86.2631C222.238 86.0461 222.545 86.1365 222.762 86.5345L223.641 88.1463C223.858 88.5443 223.768 88.8518 223.37 89.0689L206.595 98.2188Z"/>
<path d="M250.28 77.5265C249.903 77.6838 249.594 77.5918 249.353 77.2504L244.223 69.74C244.188 69.6564 244.12 69.6111 244.019 69.6043C243.96 69.5799 243.888 69.5852 243.805 69.6202L231.508 74.7614C231.425 74.7964 231.35 74.8523 231.283 74.9291C231.259 74.9884 231.264 75.0599 231.299 75.1435L233.042 84.0703C233.157 84.4642 233.006 84.7486 232.588 84.9235L230.517 85.7891C230.308 85.8765 230.115 85.8838 229.937 85.8107C229.801 85.7202 229.71 85.5617 229.664 85.3351L221.363 38.6867C221.29 38.2753 221.441 37.9909 221.817 37.8336L224.327 36.7843C224.745 36.6095 225.054 36.7015 225.253 37.0604L252.689 75.7084L252.741 75.8339C252.899 76.2103 252.789 76.4772 252.413 76.6346L250.28 77.5265ZM230.626 71.5927C230.695 71.76 230.793 71.8174 230.919 71.7649L242.023 67.1221C242.149 67.0696 242.176 66.9597 242.106 66.7924L225.427 42.5892C225.333 42.4812 225.265 42.4359 225.223 42.4534C225.181 42.4709 225.166 42.5511 225.176 42.6941L230.626 71.5927Z"/>
<path d="M266.022 72.4334C265.59 72.57 265.306 72.4221 265.169 71.9898L258.821 51.8882C258.767 51.7153 258.711 51.6141 258.654 51.5845L242.273 30.8721L242.126 30.6332C242.017 30.2874 242.157 30.053 242.546 29.9302L244.815 29.2135C245.204 29.0906 245.518 29.1816 245.757 29.4865L259.026 47.1171C259.097 47.1899 259.175 47.2127 259.262 47.1854C259.348 47.1581 259.399 47.0944 259.415 46.9943L260.088 24.9611C260.108 24.5743 260.313 24.3195 260.702 24.1966L262.971 23.4799C263.187 23.4117 263.366 23.4503 263.507 23.596C263.678 23.6847 263.754 23.8508 263.736 24.0942L262.221 50.4583C262.191 50.5152 262.203 50.6301 262.258 50.803L268.606 70.9045C268.742 71.3368 268.595 71.6212 268.162 71.7577L266.022 72.4334Z"/>
<path d="M311.56 61.9709C308.38 62.4666 305.637 61.7931 303.331 59.9503C301.018 58.0627 299.589 55.372 299.044 51.8781L298.824 50.4672C298.754 50.0193 298.944 49.7604 299.391 49.6906L301.541 49.3554C301.989 49.2856 302.248 49.4746 302.318 49.9226L302.517 51.1992C302.929 53.8419 303.91 55.8683 305.461 57.2783C307.056 58.6814 308.906 59.2188 311.011 58.8907C313.116 58.5625 314.741 57.5063 315.885 55.7222C317.029 53.938 317.406 51.7917 317.015 49.2833C316.757 47.626 316.197 46.245 315.337 45.1403C314.521 44.0287 313.532 43.1276 312.369 42.4372C311.244 41.6949 309.403 40.6284 306.846 39.2376C304.245 37.8538 302.23 36.6997 300.801 35.7754C299.41 34.7993 298.189 33.5903 297.139 32.1482C296.081 30.6614 295.381 28.8205 295.039 26.6257C294.501 23.1767 295.042 20.3166 296.661 18.0455C298.28 15.7744 300.612 14.4015 303.658 13.9267C306.928 13.417 309.719 14.1059 312.032 15.9935C314.345 17.8811 315.781 20.6166 316.34 24.2L316.601 25.8798C316.671 26.3277 316.482 26.5865 316.034 26.6564L313.817 27.002C313.369 27.0718 313.11 26.8828 313.04 26.4348L312.779 24.7551C312.367 22.1124 311.363 20.0895 309.768 18.6864C308.211 17.2316 306.335 16.6752 304.14 17.0174C302.169 17.3246 300.646 18.2961 299.57 19.932C298.488 21.523 298.145 23.5951 298.543 26.1483C298.781 27.6712 299.255 28.9507 299.968 29.9867C300.724 31.0158 301.695 31.9427 302.879 32.7675C304.107 33.5854 305.922 34.633 308.324 35.9104C311.274 37.4693 313.492 38.7522 314.98 39.7591C316.467 40.766 317.659 41.9338 318.554 43.2624C319.494 44.5841 320.121 46.2527 320.435 48.2684C321.008 51.9414 320.458 55.0324 318.784 57.5414C317.148 59.9986 314.74 61.4751 311.56 61.9709Z"/>
<path d="M347.638 10.9159C347.615 10.4632 347.83 10.2255 348.283 10.2028L350.524 10.0908C350.977 10.0681 351.215 10.2832 351.237 10.736L353.547 56.9183C353.569 57.371 353.354 57.6087 352.901 57.6314L350.66 57.7434C350.207 57.7661 349.97 57.551 349.947 57.0983L348.884 35.8408C348.875 35.6597 348.78 35.5737 348.599 35.5827L335.152 36.2551C334.971 36.2641 334.885 36.3592 334.894 36.5403L335.956 57.7978C335.979 58.2505 335.764 58.4882 335.311 58.5109L333.07 58.6229C332.617 58.6456 332.38 58.4305 332.357 57.9778L330.048 11.7954C330.025 11.3427 330.24 11.105 330.693 11.0823L332.934 10.9703C333.387 10.9476 333.625 11.1627 333.647 11.6155L334.707 32.805C334.716 32.9861 334.811 33.0721 334.992 33.0631L348.439 32.3907C348.62 32.3817 348.706 32.2866 348.697 32.1055L347.638 10.9159Z"/>
<path d="M375.966 58.8198C372.662 58.6345 370.027 57.4424 368.062 55.2436C366.144 53.002 365.28 50.1839 365.471 46.7893L366.914 21.0577C367.107 17.6178 368.28 14.9139 370.434 12.9461C372.59 10.933 375.343 10.0203 378.692 10.2082C382.041 10.396 384.697 11.612 386.66 13.8561C388.626 16.0549 389.512 18.8743 389.319 22.3142L387.876 48.0458C387.685 51.4405 386.489 54.1431 384.288 56.1536C382.089 58.1189 379.315 59.0077 375.966 58.8198ZM376.145 55.6288C378.408 55.7557 380.283 55.1117 381.77 53.6968C383.302 52.2843 384.135 50.3787 384.27 47.9798L385.728 21.9766C385.863 19.5777 385.248 17.5909 383.883 16.016C382.566 14.3984 380.776 13.5261 378.513 13.3992C376.295 13.2748 374.442 13.9427 372.952 15.4029C371.465 16.8179 370.654 18.7248 370.52 21.1237L369.062 47.1269C368.927 49.5258 369.519 51.5114 370.839 53.0837C372.158 54.6561 373.927 55.5044 376.145 55.6288Z"/>
<path d="M404.367 61.0572C403.966 60.9848 403.756 60.7398 403.74 60.3222L403.177 13.2353L403.201 13.1015C403.274 12.6999 403.511 12.5354 403.912 12.6078L406.255 13.03C406.701 13.1105 406.91 13.3555 406.882 13.765L406.934 52.952C406.963 53.0493 406.999 53.1019 407.044 53.11C407.088 53.118 407.141 53.0815 407.202 53.0003L419.865 16.1057C419.982 15.7122 420.241 15.5516 420.643 15.624L422.717 15.9981C423.119 16.0704 423.306 16.3114 423.278 16.721L422.594 55.7753C422.622 55.8725 422.659 55.9252 422.703 55.9332C422.748 55.9413 422.801 55.9047 422.861 55.8235L435.993 19.0134C436.154 18.6279 436.414 18.4674 436.771 18.5317L439.113 18.954C439.336 18.9942 439.48 19.0893 439.545 19.2392C439.655 19.3972 439.667 19.5837 439.582 19.7987L423.08 63.809C422.963 64.2025 422.681 64.359 422.235 64.2786L420.094 63.8925C419.737 63.8281 419.55 63.5872 419.533 63.1696L420.339 24.2063C420.31 24.1091 420.274 24.0564 420.229 24.0484C420.185 24.0403 420.132 24.0769 420.071 24.1581L407.286 60.9616C407.169 61.3551 406.91 61.5157 406.509 61.4433L404.367 61.0572Z"/>
<path d="M457.885 73.7936C457.494 73.6756 457.286 73.4233 457.261 73.0368L456.334 50.2388C456.33 50.0955 456.263 50.0041 456.133 49.9648L449.688 48.0181C449.515 47.9656 449.402 48.0262 449.349 48.1998L443.175 68.6395C443.044 69.0735 442.761 69.2249 442.327 69.0939L440.179 68.4449C439.745 68.3138 439.594 68.0313 439.725 67.5974L453.096 23.3329C453.228 22.899 453.51 22.7475 453.944 22.8786L464.034 25.9265C467.071 26.8442 469.183 28.7132 470.367 31.5335C471.551 34.3538 471.593 37.5866 470.492 41.2319C469.613 44.1395 468.237 46.423 466.362 48.0825C464.488 49.742 462.354 50.6128 459.961 50.6951C459.775 50.6861 459.677 50.7749 459.668 50.9616L460.77 73.8837L460.757 74.1638C460.665 74.4676 460.424 74.5605 460.033 74.4425L457.885 73.7936ZM456.079 26.8623C455.906 26.8098 455.793 26.8704 455.74 27.044L450.372 44.8149C450.32 44.9885 450.38 45.1015 450.554 45.1539L457.193 47.1596C459.32 47.802 461.283 47.4953 463.083 46.2395C464.896 44.9403 466.216 42.9237 467.042 40.1898C467.881 37.4124 467.898 35.0025 467.095 32.9602C466.304 30.8744 464.845 29.5104 462.719 28.868L456.079 26.8623Z"/>
<path d="M505.905 44.9533C505.728 45.3707 505.431 45.4909 505.013 45.3139L490.175 39.024C490.008 38.9532 489.89 39.0013 489.819 39.1683L482.626 56.1347C482.556 56.3017 482.604 56.4206 482.771 56.4913L492.287 60.5254C492.704 60.7023 492.825 60.9995 492.648 61.4169L491.931 63.1073C491.754 63.5246 491.457 63.6449 491.04 63.4679L481.523 59.4339C481.356 59.3631 481.237 59.4112 481.167 59.5781L473.948 76.6072C473.877 76.7742 473.925 76.893 474.092 76.9638L488.93 83.2538C489.347 83.4307 489.468 83.7279 489.291 84.1452L488.574 85.8356C488.397 86.253 488.1 86.3732 487.683 86.1963L469.902 78.659C469.485 78.482 469.365 78.1849 469.542 77.7675L487.589 35.1948C487.766 34.7774 488.063 34.6571 488.48 34.8341L506.261 42.3714C506.678 42.5484 506.798 42.8455 506.621 43.2629L505.905 44.9533Z"/>
<path d="M537.261 61.1692C537.044 61.5671 536.736 61.6576 536.338 61.4405L522.19 53.7233C522.031 53.6365 521.908 53.6727 521.821 53.8319L512.997 70.0097C512.91 70.1689 512.946 70.2919 513.105 70.3788L522.179 75.3282C522.577 75.5453 522.667 75.8528 522.45 76.2508L521.571 77.8626C521.354 78.2606 521.047 78.351 520.649 78.1339L511.575 73.1845C511.416 73.0977 511.293 73.1339 511.206 73.2931L502.349 89.5306C502.262 89.6898 502.298 89.8128 502.457 89.8996L516.606 97.6168C517.004 97.8339 517.094 98.1414 516.877 98.5394L515.998 100.151C515.781 100.549 515.473 100.64 515.075 100.423L498.121 91.175C497.723 90.9579 497.633 90.6504 497.85 90.2524L519.992 49.6585C520.209 49.2605 520.517 49.1701 520.915 49.3872L537.868 58.6348C538.266 58.8518 538.357 59.1594 538.14 59.5573L537.261 61.1692Z"/>
<path d="M524.731 106.913C524.357 106.656 524.298 106.341 524.555 105.967L550.706 67.8323C550.962 67.4585 551.277 67.3997 551.651 67.6561L553.502 68.9252C553.875 69.1816 553.934 69.4967 553.678 69.8706L529.104 105.706C529.001 105.856 529.025 105.982 529.174 106.084L542.297 115.083C542.671 115.34 542.73 115.655 542.474 116.029L541.435 117.543C541.179 117.917 540.864 117.976 540.49 117.719L524.731 106.913Z"/>
<path d="M595.22 136.89C596.971 136.89 598.39 135.471 598.39 133.72C598.39 131.969 596.971 130.55 595.22 130.55C593.469 130.55 592.05 131.969 592.05 133.72C592.05 135.471 593.469 136.89 595.22 136.89Z"/>
<path d="M587.57 602.19C589.321 602.19 590.74 600.771 590.74 599.02C590.74 597.269 589.321 595.85 587.57 595.85C585.819 595.85 584.4 597.269 584.4 599.02C584.4 600.771 585.819 602.19 587.57 602.19Z"/>
<path d="M128.48 134.83C130.231 134.83 131.65 133.411 131.65 131.66C131.65 129.909 130.231 128.49 128.48 128.49C126.729 128.49 125.31 129.909 125.31 131.66C125.31 133.411 126.729 134.83 128.48 134.83Z"/>
<path d="M122.96 601.28C124.711 601.28 126.13 599.861 126.13 598.11C126.13 596.359 124.711 594.94 122.96 594.94C121.209 594.94 119.79 596.359 119.79 598.11C119.79 599.861 121.209 601.28 122.96 601.28Z"/>
</g>
<defs>
<clipPath id="clip0">
<rect width="721" height="724" fill="white"/>
</clipPath>
</defs>
</svg>
