<svg width="106" height="34" viewBox="0 0 106 34" fill="none" xmlns="http://www.w3.org/2000/svg">
<g clip-path="url(#clip0_14_142)">
<path d="M86.79 19.28H83.91C83.6925 20.9556 83.2098 22.586 82.48 24.11C82.29 24.52 82.08 24.92 81.85 25.32C78.25 31.57 71.43 34.32 66.63 31.6C62.08 29 61 22.24 63.93 16.23H86.2C86.2 16.06 86.1 15.9 86.04 15.74C85.1026 13.0666 83.3579 10.7505 81.0469 9.1119C78.7359 7.47329 75.973 6.59314 73.14 6.59314C70.3071 6.59314 67.5441 7.47329 65.2331 9.1119C62.9222 10.7505 61.1774 13.0666 60.24 15.74C60.19 15.9 60.13 16.06 60.08 16.23C59.2081 19.067 59.2797 22.1102 60.2839 24.9031C61.2882 27.696 63.1711 30.0879 65.65 31.72C67.2938 32.8016 69.1522 33.5145 71.0977 33.8097C73.0431 34.1049 75.0294 33.9754 76.92 33.43C79.7713 32.6085 82.2785 30.8829 84.064 28.513C85.8496 26.1431 86.8168 23.2572 86.82 20.29C86.82 20 86.81 19.61 86.79 19.28ZM64.45 15.28C68.05 8.99999 74.86 6.19999 79.67 8.99999C80.8483 9.72703 81.843 10.7161 82.5767 11.8903C83.3103 13.0646 83.7632 14.3922 83.9 15.77H64.18L64.45 15.28Z" />
<path d="M0 33.29V7.28999H3.3V33.29H0ZM5.88 7.75999H2.88V7.27999H7.35C8.6194 7.25729 9.87426 7.55296 11 8.13999C12.0721 8.69019 12.9667 9.53232 13.5807 10.5692C14.1947 11.6061 14.503 12.7954 14.47 14C14.4903 15.2069 14.1716 16.3953 13.55 17.43C12.9252 18.412 12.0432 19.204 11 19.72C9.86421 20.2982 8.60432 20.59 7.33 20.57H3.12V20.08H5.88C6.86143 20.1004 7.82526 19.8176 8.64 19.27C9.4363 18.7269 10.0691 17.9765 10.47 17.1C10.9221 16.13 11.1478 15.07 11.13 14C11.1408 12.921 10.9156 11.8527 10.47 10.87C10.0749 9.96273 9.44277 9.1786 8.64 8.59999C7.82934 8.04062 6.86484 7.74708 5.88 7.75999V7.75999ZM5.88 20.34L9 20.08L16.13 33.3H11.77L5.88 20.34Z" />
<path d="M42.85 7.28H47.22L53.07 33.28H49.73L42.85 7.28ZM59.07 7.28L53.18 33.28H52.66L57.66 7.28H59.07Z" />
<path d="M89.17 33.29V7.28998H92.46V33.29H89.17ZM95.05 7.75998H92.05V7.27998H96.47C97.7465 7.2513 99.0093 7.54722 100.14 8.13998C101.217 8.68549 102.118 9.526 102.735 10.5635C103.353 11.6011 103.664 12.7929 103.63 14C103.665 15.1893 103.359 16.3638 102.747 17.3845C102.136 18.4052 101.245 19.2296 100.18 19.76C99.045 20.3401 97.7846 20.632 96.51 20.61H92.28V20.12H95.05C96.0315 20.1404 96.9953 19.8575 97.81 19.31C98.6047 18.7608 99.2368 18.0078 99.64 17.13C100.099 16.1516 100.325 15.0803 100.3 14C100.313 12.9208 100.088 11.852 99.64 10.87C99.2417 9.97289 98.6096 9.19928 97.81 8.62998C97 8.07048 96.0344 7.7801 95.05 7.79998V7.75998ZM95.05 20.34L98.2 20.08L105.3 33.3H100.93L95.05 20.34Z" />
<path d="M43.0001 19.58H39.8001C40.1708 21.0629 40.2991 22.5961 40.1801 24.12C40.1257 25.6236 39.7046 27.0912 38.9535 28.3949C38.2023 29.6986 37.1437 30.7989 35.8701 31.6C31.0601 34.38 24.2501 31.6 20.6501 25.32C19.0217 22.5819 18.2844 19.4054 18.5401 16.23H42.4301C42.4301 16.07 42.3301 15.9 42.2701 15.74C41.3327 13.0666 39.5879 10.7505 37.2769 9.1119C34.966 7.47329 32.203 6.59314 29.3701 6.59314C26.5371 6.59314 23.7741 7.47329 21.4632 9.1119C19.1522 10.7505 17.4074 13.0666 16.4701 15.74L16.3101 16.23C15.7211 18.1121 15.5461 20.0993 15.7969 22.0554C16.0477 24.0114 16.7185 25.8902 17.7633 27.5628C18.8081 29.2354 20.2022 30.6623 21.85 31.7458C23.4978 32.8292 25.3603 33.5436 27.3101 33.84C29.263 34.1395 31.2577 34.0121 33.1567 33.4666C35.0557 32.9211 36.8138 31.9704 38.3101 30.68C39.7914 29.3859 40.9769 27.7883 41.7861 25.9955C42.5954 24.2028 43.0094 22.2569 43.0001 20.29C43.0001 20.05 43.0001 19.82 43.0001 19.58ZM22.8501 8.99999C27.6601 6.21999 34.4701 8.99999 38.0701 15.28C38.1701 15.44 38.2501 15.6 38.3401 15.76H18.6301C18.7672 14.3848 19.2193 13.0598 19.9511 11.8875C20.6829 10.7152 21.6749 9.72714 22.8501 8.99999V8.99999Z" />
<path d="M22.85 4.99999L23.06 4.79999L28.83 0.0999904L28.93 0.0299904C28.9695 0.020989 29.0105 0.020989 29.05 0.0299904C29.0893 0.0198291 29.1306 0.0198291 29.17 0.0299904C29.2084 0.0450575 29.2427 0.0690521 29.27 0.0999904L35.07 4.82999C35.1586 4.88013 35.2525 4.92037 35.35 4.94999L35.22 5.10999L34.9 4.99999L29.4 2.49999C29.2963 2.44112 29.1792 2.41012 29.06 2.40999C28.944 2.41047 28.8302 2.44151 28.73 2.49999C26.89 3.34999 25 4.17999 23.2 4.99999L22.9 5.10999L22.85 4.99999Z" />
</g>
<defs>
<clipPath id="clip0_14_142">
<rect width="105.3" height="34" fill="white"/>
</clipPath>
</defs>
</svg>
