<svg width="161" height="52" viewBox="0 0 161 52" fill="none" xmlns="http://www.w3.org/2000/svg">
<g clip-path="url(#clip0_14_94)">
<path d="M68.5899 26.51C67.4599 26.51 66.4599 26.51 65.4599 26.51C65.2799 26.51 65.0499 26.24 64.9699 26.04C64.4199 24.67 63.8799 23.29 63.3799 21.91C63.3434 21.7154 63.2315 21.5431 63.0685 21.4307C62.9056 21.3183 62.7048 21.2749 62.5099 21.31C62.0299 21.31 61.5099 21.31 60.9799 21.31V26.48H57.9099V13.34H61.2399C62.4799 13.34 63.7299 13.34 64.9599 13.44C65.7864 13.4619 66.5786 13.7748 67.197 14.3236C67.8153 14.8725 68.2201 15.622 68.3399 16.44C68.5605 17.2427 68.4944 18.0971 68.1531 18.8563C67.8118 19.6156 67.2166 20.2321 66.4699 20.6L66.1999 20.78C66.9999 22.61 67.7499 24.49 68.5899 26.51ZM60.9999 18.94C61.9999 18.94 62.9999 19 63.9999 18.94C64.3615 18.8686 64.6854 18.6699 64.9129 18.38C65.1405 18.09 65.2565 17.7282 65.2399 17.36C65.2732 17.0061 65.1725 16.6525 64.9577 16.3692C64.7429 16.0859 64.4297 15.8935 64.0799 15.83C63.0799 15.75 62.0799 15.83 61.0299 15.83L60.9999 18.94Z" />
<path d="M108.32 26.46V21.13H104.32V26.45H101.32V13.38H104.32V18.38H108.32V13.38H111.32V26.46H108.32Z" />
<path d="M124.56 20C124.582 21.4169 124.237 22.8153 123.56 24.06C123.104 24.8718 122.441 25.5476 121.638 26.018C120.835 26.4884 119.921 26.7363 118.99 26.7363C118.059 26.7363 117.145 26.4884 116.342 26.018C115.539 25.5476 114.875 24.8718 114.42 24.06C113.715 22.8534 113.322 21.4905 113.275 20.0941C113.228 18.6977 113.528 17.3114 114.15 16.06C114.575 15.0662 115.31 14.2368 116.245 13.696C117.181 13.1551 118.267 12.932 119.34 13.06C120.359 13.0687 121.348 13.4021 122.165 14.0118C122.981 14.6214 123.582 15.4755 123.88 16.45C124.29 17.5906 124.52 18.7885 124.56 20V20ZM121.42 20C121.385 19.0568 121.213 18.1237 120.91 17.23C120.829 16.7871 120.591 16.3881 120.241 16.1055C119.89 15.8229 119.45 15.6754 119 15.69C118.554 15.6537 118.11 15.775 117.744 16.0327C117.379 16.2903 117.115 16.668 117 17.1C116.33 18.9478 116.33 20.9722 117 22.82C117.143 23.2302 117.415 23.5829 117.776 23.8246C118.137 24.0664 118.566 24.1841 119 24.16C119.416 24.1728 119.825 24.0429 120.158 23.792C120.49 23.5411 120.728 23.184 120.83 22.78C121.15 21.884 121.349 20.9489 121.42 20V20Z" />
<path d="M99.68 26.5C98.57 26.5 97.54 26.5 96.52 26.5C96.36 26.5 96.15 26.2 96.05 25.99C95.36 24.53 94.69 23.05 94.05 21.59C93.96 21.38 93.85 21.18 93.75 20.99C92.9793 21.6566 92.4066 22.5221 92.0945 23.492C91.7823 24.462 91.7427 25.4991 91.98 26.49H88.86V13.37H91.86V19.37C92.0174 19.2096 92.1644 19.0392 92.3 18.86C93.41 17.21 94.54 15.56 95.61 13.86C95.7036 13.681 95.8493 13.5345 96.0278 13.4399C96.2063 13.3453 96.4093 13.307 96.61 13.33C97.33 13.33 98.05 13.33 98.91 13.33C98.64 13.74 98.44 14.07 98.23 14.39C97.52 15.45 96.83 16.51 96.1 17.54C95.9835 17.6769 95.9123 17.8466 95.8962 18.0257C95.8801 18.2048 95.9198 18.3844 96.01 18.54C97.15 20.93 98.26 23.34 99.37 25.74C99.46 26 99.54 26.18 99.68 26.5Z" />
<path d="M160.09 26.47H150.78V13.39H160.09V15.86H153.92V18.52H158.75V21.07H153.92V23.86H160.09V26.47Z" />
<path d="M138 23L140.84 22.36C141.37 23.96 142.58 24.31 144.04 24.14C144.399 24.0937 144.741 23.9635 145.04 23.76C145.216 23.6587 145.359 23.5089 145.453 23.3284C145.546 23.148 145.586 22.9445 145.567 22.7422C145.548 22.5398 145.471 22.3472 145.346 22.1873C145.221 22.0273 145.052 21.9068 144.86 21.84C144.313 21.6385 143.756 21.4682 143.19 21.33C142.45 21.11 141.7 20.91 140.97 20.66C137.84 19.59 138.22 15.66 139.97 14.21C142.44 12.15 146.89 12.99 148.15 15.79C148.208 15.934 148.258 16.0808 148.3 16.23L145.71 17.1C145.505 16.508 145.076 16.0202 144.515 15.7415C143.954 15.4628 143.306 15.4156 142.71 15.61C142.14 15.71 141.71 15.99 141.63 16.61C141.609 16.8848 141.692 17.1576 141.862 17.3742C142.032 17.5909 142.278 17.7357 142.55 17.78C143.72 18.1 144.93 18.33 146.07 18.78C146.637 18.9673 147.151 19.2855 147.572 19.7087C147.993 20.132 148.308 20.6484 148.492 21.2161C148.676 21.7839 148.724 22.387 148.631 22.9766C148.539 23.5663 148.309 24.1258 147.96 24.61C147.448 25.4081 146.679 26.0077 145.78 26.31C144.133 26.91 142.327 26.91 140.68 26.31C139.985 26.0376 139.372 25.5894 138.903 25.0092C138.433 24.4289 138.122 23.7366 138 23Z" />
<path d="M126.53 13.36H129.74V14.19C129.74 16.8 129.74 19.41 129.74 22.02C129.74 22.82 129.89 23.59 130.74 23.93C131.181 24.1296 131.664 24.215 132.147 24.1783C132.629 24.1416 133.095 23.984 133.5 23.72C133.755 23.5083 133.949 23.2332 134.063 22.9224C134.177 22.6116 134.207 22.2761 134.15 21.95C134.15 19.36 134.15 16.78 134.15 14.19V13.38H136.77C136.8 13.552 136.82 13.7256 136.83 13.9C136.83 16.63 136.83 19.36 136.83 22.08C136.822 22.597 136.768 23.1123 136.67 23.62C136.532 24.3187 136.188 24.96 135.681 25.4609C135.175 25.9619 134.53 26.2994 133.83 26.43C132.396 26.8202 130.884 26.8202 129.45 26.43C128.67 26.3132 127.953 25.9332 127.418 25.353C126.883 24.7728 126.563 24.0272 126.51 23.24C126.43 20 126.53 16.7 126.53 13.36Z" />
<path d="M87 18.26L83.85 18.46C83.77 18.03 83.72 17.61 83.61 17.22C83.5351 16.8307 83.339 16.4751 83.0499 16.2039C82.7607 15.9327 82.3932 15.7598 82 15.71C81.5698 15.6141 81.1195 15.674 80.7294 15.8791C80.3393 16.0843 80.0347 16.4212 79.87 16.83C79.073 18.7632 79.0266 20.9244 79.74 22.89C79.8816 23.2816 80.1461 23.6168 80.4939 23.8457C80.8418 24.0746 81.2543 24.1848 81.67 24.16C82.079 24.2 82.4905 24.113 82.8484 23.9108C83.2062 23.7086 83.4931 23.4011 83.67 23.03C83.8723 22.5952 84.046 22.1475 84.19 21.69L87.03 21.86C87.0308 22.9766 86.6415 24.0583 85.9294 24.9183C85.2172 25.7783 84.2271 26.3626 83.13 26.57C82.3125 26.7792 81.4589 26.8053 80.6301 26.6464C79.8014 26.4875 79.018 26.1475 78.3359 25.6508C77.6538 25.154 77.0898 24.5127 76.6843 23.7727C76.2787 23.0327 76.0417 22.2123 75.99 21.37C75.6573 19.4309 76.011 17.4365 76.99 15.73C77.818 14.4755 79.095 13.5857 80.5587 13.2435C82.0224 12.9013 83.5615 13.1327 84.86 13.89C85.5308 14.4028 86.0733 15.0646 86.4447 15.8229C86.8161 16.5813 87.0062 17.4156 87 18.26V18.26Z" />
<path d="M70.83 13.36H73.83V26.47H70.83V13.36Z" />
<path d="M87.8899 33.06V39.16H87.0699V31.58C87.1299 31.58 87.1699 31.51 87.2099 31.51C88.4499 31.45 88.4499 31.45 88.8899 32.6L90.7699 37.6C91.2499 36.32 91.6799 35.17 92.0999 34.03L92.6399 32.58C93.0799 31.39 93.0799 31.39 94.4499 31.58V39.16H93.5299V33H93.3899C93.2999 33.22 93.1899 33.43 93.1099 33.65C92.4899 35.32 91.8799 37 91.2399 38.65C91.1841 38.7729 91.1039 38.8833 91.0042 38.9743C90.9045 39.0654 90.7874 39.1354 90.66 39.18C90.53 39.18 90.2399 38.89 90.1499 38.67C89.5099 37.04 88.9099 35.38 88.2899 33.74C88.1999 33.51 88.0999 33.28 87.9999 33.06H87.8899Z" />
<path d="M107.33 39.21V31.56C108.495 31.4697 109.665 31.4697 110.83 31.56C112.45 31.81 113.47 33.56 113.37 35.56C113.26 37.95 111.94 39.21 109.59 39.21H107.33ZM108.33 38.35C109.67 38.35 111.03 38.66 111.86 37.26C112.204 36.6291 112.371 35.9174 112.345 35.1994C112.318 34.4815 112.099 33.7839 111.71 33.18C110.8 31.98 109.53 32.41 108.33 32.36V38.35Z" />
<path d="M99.69 35.57V38.31H103.69V39.17H98.72V31.54H103.52C103.52 31.79 103.52 32.02 103.52 32.33H99.71V34.76H102.76V35.58L99.69 35.57Z" />
<path d="M121.38 39.11C122.18 36.66 122.95 34.25 123.75 31.86C123.82 31.759 123.912 31.6758 124.02 31.6167C124.127 31.5577 124.247 31.5246 124.37 31.52C124.479 31.5243 124.586 31.5558 124.68 31.6117C124.775 31.6676 124.854 31.746 124.91 31.84C125.74 34.25 126.53 36.67 127.32 39.09C126.32 39.32 126.52 39.32 126.21 38.42C125.71 36.95 125.71 36.95 124.21 36.95C122.93 36.95 122.95 36.95 122.54 38.2C122.35 38.69 122.4 39.5 121.38 39.11ZM124.38 32.6L123.25 36.17H125.54" />
<path d="M117.1 31.52H118V39.15H117.06L117.1 31.52Z" />
<path d="M31.9299 5.84001C31.9299 6.23001 31.7699 6.26001 31.4499 6.16001C29.2099 5.48001 26.9099 5.85001 24.6299 5.82001C24.5465 5.83374 24.4675 5.86722 24.3997 5.91767C24.3318 5.96812 24.2771 6.03407 24.2399 6.11001C23.3099 9.36001 22.3999 12.61 21.4699 15.9L22.2799 16.23L21.9999 17.51L21.0799 17.35C20.9799 17.72 20.8799 18.07 20.7599 18.49L37.8599 23.49C37.9699 23.1 38.0799 22.76 38.1999 22.37L37.4699 22.03L37.8199 20.77L38.6099 20.92L41.9099 9.25001L41.1599 9.00001L41.5099 7.74001L42.2999 7.87001L42.5499 6.87001L41.7599 6.54001V6.46001L44.8799 6.84001C44.5599 8.75001 44.2599 10.59 43.9599 12.44L40.6499 32.87C40.5723 33.7007 40.2437 34.4881 39.7079 35.1276C39.172 35.7671 38.4542 36.2283 37.6499 36.45C35.8699 36.9517 34.0548 37.3194 32.2199 37.55C25.5268 38.4085 18.7365 38.1211 12.1399 36.7C11.4166 36.5576 10.7494 36.2104 10.2176 35.6999C9.68578 35.1894 9.31173 34.5369 9.13989 33.82C8.77568 32.4392 8.48197 31.0407 8.25989 29.63C6.92655 22.2967 5.62655 14.9633 4.35989 7.63001C4.35989 7.38001 4.29989 7.13001 4.25989 6.80001C6.65989 6.61001 8.98989 6.37001 11.3199 6.25001C15.4699 6.04001 19.6099 5.90001 23.7599 5.75001C24.1299 5.75001 24.3199 5.63001 24.3999 5.27001C24.4799 4.91001 24.5999 4.56001 24.7099 4.17001L25.5799 4.36001C25.6899 3.98001 25.8099 3.59001 25.9299 3.17001L25.1099 2.83001L25.3899 1.73001L40.7999 6.25001V6.37001L36.4399 6.05001C36.2799 6.52001 36.1399 6.95001 35.9799 7.45001L34.9799 7.18001L35.2199 6.00001H34.2199L33.8899 6.85001L32.9999 6.61001C32.9999 6.39001 32.9999 6.19001 32.9999 5.86001H31.8999C31.9799 5.58001 32.0599 5.29001 32.1499 4.95001L31.2199 4.69001L30.9299 5.77001L31.9299 5.84001ZM19.9999 19C20.4299 17.4 20.8199 15.89 21.2399 14.37C21.5099 13.43 21.9599 12.49 20.8599 11.57L22.1799 11.06C22.3299 10.56 22.5299 9.85001 22.7699 8.99001L7.86989 18.9L8.48989 19.9L9.28989 19.47L9.93989 20.47L9.22989 21L15.8099 31.27L16.5999 30.81L17.2499 31.86L16.5499 32.43L17.2399 33.5L32.1699 23.57L31.4699 22.51L30.6999 22.88C30.4699 21.88 29.6999 21.75 28.9499 21.54C25.9999 20.73 23.0599 19.87 19.9999 19ZM30.1099 4.35001L29.1599 4.09001C29.0399 4.52001 28.9299 4.90001 28.7999 5.34001L29.7999 5.57001C29.8799 5.14001 29.9999 4.79001 30.1099 4.35001ZM28.0499 3.74001L27.0499 3.49001C26.9299 3.94001 26.8299 4.30001 26.7099 4.72001L27.6399 5.00001L28.0499 3.74001Z" />
<path d="M0.0699412 0C1.28327 7.12 2.49661 14.2367 3.70994 21.35C4.52994 26.19 5.34661 31.0267 6.15994 35.86C6.18161 36.0821 6.26529 36.2937 6.40145 36.4705C6.5376 36.6473 6.72074 36.7823 6.92994 36.86C10.995 38.5908 15.3083 39.6674 19.7099 40.05C27.4457 40.7771 35.2442 39.6812 42.4799 36.85C42.7301 36.7742 42.9507 36.6231 43.1118 36.4173C43.2728 36.2115 43.3665 35.961 43.3799 35.7C44.5999 28.36 45.8599 21.02 47.1099 13.7C47.8399 9.35 48.5699 5.01 49.4299 0.7C47.3499 15.62 45.2666 30.5367 43.1799 45.45C44.4399 45.75 45.6299 45.99 46.7999 46.33C47.474 46.5246 48.1195 46.807 48.7199 47.17C49.3299 47.55 49.3499 48.17 48.7199 48.52C47.9244 48.956 47.078 49.2919 46.1999 49.52C42.9001 50.3773 39.517 50.8735 36.1099 51C31.7299 51.19 27.3399 51.33 22.9599 51.26C17.7724 51.2748 12.5997 50.7045 7.53994 49.56C6.72378 49.3494 5.93508 49.044 5.18994 48.65C4.35994 48.21 4.32994 47.45 5.18994 47.11C6.29994 46.67 6.18994 45.99 6.08994 45.03C5.13994 38.52 4.27994 32 3.39994 25.48C2.61994 19.76 1.84994 14.0333 1.08994 8.3L-5.87683e-05 0.42C-0.0100716 0.280179 -0.0100716 0.139821 -5.87688e-05 0L0.0699412 0ZM6.99994 40.22C6.99994 40.46 6.99994 40.6 6.99994 40.74C7.11994 42.14 7.20994 43.55 7.35994 44.95C7.38233 45.8096 7.7231 46.6303 8.31618 47.253C8.90927 47.8756 9.71243 48.2559 10.5699 48.32C15.2318 49.0182 19.9364 49.3925 24.6499 49.44C29.5511 49.6301 34.4566 49.2001 39.2499 48.16C40.0073 48.0241 40.6977 47.6395 41.2121 47.0672C41.7264 46.4949 42.0353 45.7675 42.0899 45C42.2199 43.72 42.2799 42.43 42.3699 41.14C42.3699 40.82 42.3699 40.51 42.3699 40.14C38.6499 42.27 30.9099 42.92 29.3699 42.76C30.9799 42.48 32.9299 42.22 34.8499 41.76C37.4669 41.2978 39.9656 40.3188 42.1999 38.88C42.4558 38.7128 42.6561 38.4733 42.7754 38.192C42.8947 37.9106 42.9276 37.6001 42.8699 37.3C37.207 39.811 31.1022 41.1737 24.9091 41.3093C18.7159 41.4449 12.5574 40.3507 6.78994 38.09C11.4599 41.47 16.9399 42.09 22.3999 42.73C17.2099 42.66 11.9999 42.36 6.99994 40.22Z" />
<path d="M7 30.85C7.77 33.1 8.1 35.57 10.25 37.26C8.21 36.7 7.2 34.67 7 30.85Z" />
<path d="M39.8199 37.22C40.4847 36.3075 41.0829 35.3483 41.6099 34.35C42.0619 33.1919 42.4393 32.0062 42.7399 30.8C42.5899 34.24 42.0999 36 39.8199 37.22Z" />
<path d="M37 7.76999L37.37 6.45999L38.37 6.74999L38 8.08999L37 7.76999Z" />
<path d="M36.7799 20.45C36.6399 20.93 36.5199 21.34 36.3999 21.8L35.3999 21.5C35.5099 21.05 35.6199 20.64 35.7399 20.17L36.7799 20.45Z" />
<path d="M31.6199 18.93L32.6199 19.25L32.2599 20.56L31.2599 20.29C31.3699 19.83 31.4899 19.42 31.6199 18.93Z" />
<path d="M30.59 18.63C30.45 19.13 30.33 19.52 30.2 19.96L29.2 19.69L29.52 18.35L30.59 18.63Z" />
<path d="M26.08 18.75L25.08 18.47L25.44 17.12L26.44 17.43C26.32 17.88 26.21 18.27 26.08 18.75Z" />
<path d="M24 18.16L23 17.86C23.12 17.4 23.24 16.98 23.36 16.51L24.36 16.83C24.25 17.29 24.14 17.68 24 18.16Z" />
<path d="M40.12 8.7L39.12 8.39L39.49 7.06L40.49 7.34C40.35 7.78 40.25 8.19 40.12 8.7Z" />
<path d="M33.2999 20.89L33.6899 19.58L34.6899 19.85C34.5699 20.31 34.4599 20.71 34.3299 21.18L33.2999 20.89Z" />
<path d="M27.4899 17.74L28.4899 18.03L28.1299 19.38L27.1299 19.05L27.4899 17.74Z" />
<path d="M21.1399 27.78L21.9499 27.24L22.6499 28.33L21.8399 28.88L21.1399 27.78Z" />
<path d="M25.53 24.86L26.23 25.93L25.43 26.5L24.72 25.4L25.53 24.86Z" />
<path d="M10.23 18.75L11 18.2L11.7 19.28L10.91 19.84L10.23 18.75Z" />
<path d="M12.85 17L13.54 18.06L12.73 18.61L12 17.56L12.85 17Z" />
<path d="M15.34 16.91L14.53 17.44C14.29 17.08 14.07 16.74 13.83 16.36L14.63 15.81L15.34 16.91Z" />
<path d="M17.5499 30.16L18.3599 29.63L19.0599 30.71L18.2599 31.26L17.5499 30.16Z" />
<path d="M20.87 29.52L20.05 30.05L19.35 29L20.16 28.45L20.87 29.52Z" />
<path d="M22.9299 26.6L23.7199 26.06L24.4399 27.06L23.6499 27.65L22.9299 26.6Z" />
<path d="M17.13 15.7L16.33 16.25L15.61 15.18L16.4 14.63L17.13 15.7Z" />
<path d="M27.2099 25.3L26.5199 24.23L27.3299 23.67L27.9999 24.75L27.2099 25.3Z" />
<path d="M29.8299 23.57L28.9999 24.1C28.7599 23.75 28.5499 23.42 28.2899 23.03L29.0999 22.48L29.8299 23.57Z" />
<path d="M18.9199 14.52L18.1199 15.07C17.8699 14.7 17.6499 14.37 17.3999 13.98L18.2099 13.44L18.9199 14.52Z" />
<path d="M19.1899 12.79L20.0199 12.25L20.7099 13.33L19.8999 13.87L19.1899 12.79Z" />
</g>
<defs>
<clipPath id="clip0_14_94">
<rect width="160.09" height="51.22" fill="white"/>
</clipPath>
</defs>
</svg>
