<svg width="713" height="711" viewBox="0 0 713 711" xmlns="http://www.w3.org/2000/svg">
<path d="M593.486 153.992C591.545 151.729 590.738 149.24 591.065 146.524C591.424 143.782 592.847 141.344 595.333 139.211L596.337 138.35C596.656 138.077 596.952 138.099 597.226 138.418L598.538 139.948C598.812 140.267 598.789 140.563 598.47 140.837L597.562 141.616C595.681 143.229 594.563 144.99 594.208 146.899C593.881 148.84 594.36 150.559 595.645 152.058C596.93 153.556 598.554 154.321 600.518 154.352C602.481 154.383 604.356 153.633 606.141 152.102C607.32 151.091 608.135 149.976 608.586 148.76C609.064 147.575 609.291 146.357 609.268 145.104C609.304 143.856 609.247 141.885 609.095 139.193C608.917 136.469 608.843 134.319 608.875 132.743C608.965 131.171 609.322 129.62 609.946 128.089C610.601 126.531 611.71 125.082 613.272 123.742C615.727 121.636 618.244 120.667 620.822 120.835C623.401 121.003 625.62 122.171 627.479 124.338C629.475 126.666 630.294 129.2 629.935 131.943C629.576 134.686 628.121 137.151 625.571 139.338L624.375 140.363C624.056 140.637 623.76 140.614 623.487 140.295L622.133 138.717C621.86 138.399 621.882 138.102 622.201 137.829L623.397 136.804C625.278 135.19 626.382 133.413 626.709 131.473C627.096 129.536 626.619 127.787 625.279 126.225C624.076 124.822 622.568 124.096 620.755 124.047C618.974 123.97 617.174 124.711 615.357 126.269C614.273 127.199 613.497 128.197 613.028 129.263C612.587 130.361 612.33 131.578 612.257 132.912C612.212 134.279 612.272 136.22 612.437 138.734C612.647 141.818 612.719 144.192 612.651 145.854C612.583 147.517 612.244 149.025 611.634 150.378C611.052 151.764 610.043 153.071 608.608 154.302C605.994 156.544 603.291 157.618 600.498 157.523C597.765 157.433 595.428 156.256 593.486 153.992Z"/>
<path d="M649.433 157.364C649.093 157.611 648.8 157.564 648.553 157.225L639.772 145.148C639.673 145.013 639.556 144.994 639.42 145.093L625.611 155.133C625.475 155.232 625.457 155.349 625.556 155.485L631.187 163.23C631.434 163.57 631.388 163.863 631.048 164.11L629.672 165.11C629.332 165.357 629.039 165.311 628.792 164.971L623.161 157.226C623.062 157.09 622.945 157.072 622.809 157.171L608.949 167.248C608.813 167.346 608.795 167.464 608.893 167.6L617.674 179.676C617.921 180.016 617.874 180.309 617.535 180.556L616.159 181.556C615.819 181.803 615.526 181.757 615.279 181.417L604.757 166.946C604.51 166.606 604.557 166.313 604.896 166.066L639.546 140.873C639.885 140.626 640.179 140.673 640.426 141.012L650.947 155.484C651.194 155.823 651.148 156.117 650.808 156.364L649.433 157.364Z"/>
<path d="M665.674 180.487C666.035 180.273 666.323 180.346 666.537 180.707L667.565 182.442C667.78 182.803 667.706 183.09 667.345 183.305L630.497 205.156C630.136 205.371 629.848 205.297 629.634 204.936L628.38 202.823C628.209 202.534 628.236 202.249 628.46 201.969L651.961 172.432C652.048 172.331 652.052 172.256 651.973 172.205C651.93 172.133 651.855 172.129 651.746 172.193L621.596 190.146C621.234 190.361 620.947 190.287 620.732 189.926L619.672 188.138C619.458 187.776 619.531 187.489 619.892 187.274L656.74 165.423C657.102 165.208 657.389 165.282 657.604 165.643L658.825 167.702C658.996 167.991 658.969 168.276 658.745 168.555L635.439 198.051C635.352 198.151 635.33 198.238 635.373 198.31C635.452 198.361 635.545 198.354 635.654 198.29L665.674 180.487Z"/>
<path d="M634.361 213.969C634.18 213.59 634.279 213.31 634.658 213.129L673.313 194.66C673.692 194.479 673.972 194.578 674.153 194.957L678.145 203.313C679.485 206.118 679.597 208.787 678.481 211.322C677.402 213.839 675.252 215.867 672.031 217.406L653.159 226.423C649.937 227.962 646.99 228.369 644.317 227.645C641.681 226.903 639.693 225.129 638.354 222.325L634.361 213.969ZM638.428 215.028C638.276 215.1 638.237 215.212 638.309 215.364L641.025 221.048C641.95 222.887 643.349 224.011 645.22 224.42C647.147 224.85 649.323 224.485 651.749 223.326L670.451 214.39C672.914 213.214 674.584 211.741 675.461 209.972C676.357 208.241 676.352 206.428 675.446 204.533L672.757 198.905C672.685 198.754 672.573 198.714 672.421 198.786L638.428 215.028Z"/>
<path d="M697.781 255.042C698.1 255.072 698.31 255.248 698.413 255.568L699.067 257.607C699.195 258.007 699.059 258.271 698.659 258.4L657.863 271.474C657.463 271.602 657.199 271.466 657.071 271.067L656.436 269.087C656.308 268.687 656.444 268.423 656.844 268.295L690.861 257.393C690.981 257.354 691.028 257.295 691.002 257.215C690.976 257.135 690.917 257.088 690.824 257.073L674.071 255.165C673.712 255.148 673.488 254.999 673.399 254.719C673.296 254.399 673.365 254.135 673.607 253.925L686.051 242.593C686.106 242.488 686.12 242.395 686.094 242.315C686.082 242.275 686.015 242.274 685.895 242.312L651.999 253.176C651.599 253.304 651.334 253.168 651.206 252.768L650.572 250.788C650.444 250.389 650.579 250.124 650.979 249.996L691.776 236.922C692.175 236.793 692.44 236.929 692.568 237.329L693.221 239.369C693.324 239.689 693.255 239.954 693.013 240.164L679.64 252.521C679.573 252.586 679.552 252.659 679.578 252.739C679.604 252.819 679.663 252.866 679.756 252.88L697.781 255.042Z"/>
<path d="M704.394 289.98C703.984 290.071 703.734 289.911 703.643 289.501L700.408 274.924C700.372 274.76 700.272 274.697 700.108 274.733L683.44 278.431C683.276 278.468 683.212 278.568 683.249 278.732L685.323 288.081C685.414 288.491 685.254 288.741 684.844 288.832L683.184 289.2C682.774 289.291 682.523 289.132 682.432 288.722L680.358 279.373C680.322 279.209 680.221 279.145 680.057 279.182L663.328 282.894C663.164 282.93 663.1 283.03 663.137 283.194L666.371 297.771C666.462 298.181 666.303 298.431 665.893 298.522L664.232 298.891C663.822 298.982 663.571 298.822 663.48 298.412L659.605 280.945C659.514 280.535 659.673 280.284 660.083 280.193L701.906 270.914C702.316 270.823 702.567 270.982 702.658 271.392L706.533 288.86C706.624 289.27 706.465 289.52 706.055 289.611L704.394 289.98Z"/>
<path d="M665.294 313.631C664.892 310.677 665.564 308.148 667.312 306.044C669.102 303.935 671.621 302.66 674.867 302.217L676.177 302.039C676.593 301.982 676.83 302.162 676.887 302.578L677.158 304.576C677.215 304.992 677.035 305.228 676.619 305.285L675.434 305.446C672.979 305.781 671.083 306.654 669.749 308.065C668.421 309.517 667.892 311.222 668.158 313.178C668.425 315.134 669.374 316.657 671.007 317.749C672.639 318.84 674.619 319.227 676.95 318.91C678.49 318.7 679.779 318.207 680.817 317.429C681.861 316.693 682.714 315.793 683.374 314.728C684.082 313.699 685.103 312.013 686.437 309.669C687.765 307.284 688.87 305.438 689.752 304.131C690.68 302.86 691.821 301.751 693.176 300.803C694.572 299.85 696.289 299.234 698.328 298.957C701.533 298.52 704.172 299.072 706.247 300.611C708.322 302.151 709.554 304.336 709.939 307.166C710.353 310.204 709.664 312.778 707.875 314.886C706.085 316.995 703.527 318.277 700.197 318.73L698.637 318.943C698.221 319 697.983 318.82 697.927 318.404L697.646 316.344C697.589 315.928 697.769 315.691 698.185 315.635L699.747 315.422C702.202 315.087 704.093 314.194 705.421 312.741C706.796 311.325 707.345 309.597 707.067 307.557C706.817 305.726 705.944 304.298 704.448 303.273C702.994 302.242 701.08 301.888 698.708 302.211C697.293 302.404 696.1 302.821 695.127 303.462C694.161 304.145 693.285 305.027 692.5 306.109C691.72 307.233 690.718 308.895 689.492 311.097C687.995 313.802 686.768 315.834 685.809 317.194C684.85 318.554 683.746 319.637 682.5 320.443C681.259 321.29 679.703 321.841 677.83 322.096C674.418 322.561 671.564 321.997 669.27 320.402C667.023 318.843 665.697 316.586 665.294 313.631Z"/>
<path d="M667.755 338.429C667.579 335.453 668.443 332.982 670.346 331.019C672.292 329.053 674.9 327.973 678.17 327.78L679.491 327.702C679.91 327.677 680.132 327.874 680.157 328.294L680.276 330.306C680.3 330.725 680.103 330.947 679.684 330.972L678.489 331.043C676.015 331.189 674.06 331.914 672.622 333.219C671.187 334.566 670.528 336.225 670.644 338.196C670.76 340.166 671.591 341.758 673.135 342.971C674.679 344.184 676.625 344.721 678.973 344.583C680.524 344.491 681.848 344.097 682.942 343.402C684.04 342.748 684.958 341.915 685.698 340.904C686.482 339.932 687.628 338.328 689.137 336.094C690.644 333.817 691.886 332.061 692.865 330.825C693.888 329.628 695.111 328.609 696.534 327.768C697.999 326.924 699.759 326.442 701.813 326.32C705.042 326.13 707.631 326.881 709.583 328.575C711.534 330.269 712.594 332.542 712.762 335.393C712.943 338.453 712.06 340.967 710.115 342.933C708.17 344.899 705.52 345.981 702.166 346.179L700.593 346.272C700.174 346.297 699.952 346.099 699.927 345.68L699.805 343.605C699.78 343.185 699.977 342.963 700.396 342.939L701.969 342.846C704.442 342.7 706.397 341.953 707.832 340.606C709.311 339.299 709.99 337.618 709.869 335.563C709.76 333.719 708.999 332.228 707.585 331.091C706.214 329.952 704.333 329.453 701.943 329.594C700.518 329.678 699.296 330.003 698.277 330.568C697.261 331.175 696.321 331.988 695.455 333.007C694.592 334.067 693.466 335.649 692.075 337.75C690.376 340.333 688.997 342.266 687.937 343.548C686.877 344.831 685.694 345.827 684.39 346.535C683.088 347.285 681.493 347.716 679.606 347.827C676.168 348.03 673.367 347.249 671.201 345.483C669.079 343.758 667.931 341.406 667.755 338.429Z"/>
<path d="M668.574 371.635C668.581 371.257 668.775 371.03 669.154 370.953L677.438 369.411C677.522 369.412 677.586 369.372 677.63 369.289C677.673 369.247 677.695 369.185 677.696 369.101L677.933 356.755C677.935 356.671 677.916 356.587 677.875 356.502C677.834 356.459 677.771 356.437 677.687 356.435L669.469 354.576C669.092 354.527 668.907 354.292 668.915 353.872L668.955 351.794C668.959 351.584 669.025 351.417 669.154 351.293C669.281 351.212 669.45 351.194 669.659 351.24L712.307 361.637C712.683 361.728 712.868 361.963 712.861 362.341L712.812 364.86C712.804 365.28 712.611 365.507 712.232 365.542L669.215 374.357L669.089 374.354C668.711 374.347 668.526 374.155 668.533 373.777L668.574 371.635ZM680.95 357.191C680.782 357.188 680.696 357.249 680.694 357.375L680.48 368.524C680.477 368.65 680.56 368.715 680.728 368.718L707.48 363.624C707.607 363.584 707.671 363.543 707.671 363.501C707.672 363.459 707.61 363.416 707.485 363.372L680.95 357.191Z"/>
<path d="M666.771 387.598C667.076 384.547 668.242 382.174 670.269 380.477C672.333 378.826 674.891 378.153 677.942 378.458L702.515 380.915C705.566 381.22 707.919 382.384 709.574 384.407C711.266 386.476 711.96 389.035 711.655 392.086C711.35 395.137 710.163 397.509 708.094 399.201C706.067 400.898 703.529 401.594 700.478 401.289L697.72 401.013C697.302 400.971 697.114 400.741 697.155 400.323L697.362 398.255C697.404 397.837 697.634 397.649 698.052 397.691L700.873 397.973C703.046 398.19 704.843 397.736 706.264 396.612C707.685 395.488 708.5 393.881 708.709 391.792C708.918 389.702 708.437 387.966 707.267 386.582C706.097 385.199 704.425 384.399 702.252 384.181L677.553 381.712C675.38 381.494 673.583 381.948 672.162 383.072C670.741 384.196 669.926 385.803 669.717 387.893C669.508 389.982 669.989 391.719 671.159 393.102C672.329 394.485 674.001 395.286 676.174 395.503L685.013 396.387C685.18 396.403 685.272 396.328 685.289 396.161L685.878 390.268C685.92 389.851 686.15 389.662 686.567 389.704L688.26 389.874C688.678 389.915 688.866 390.145 688.824 390.563L687.94 399.402C687.899 399.82 687.669 400.008 687.251 399.966L675.904 398.832C672.854 398.527 670.482 397.34 668.789 395.271C667.139 393.207 666.466 390.649 666.771 387.598Z"/>
<path d="M702.458 432.037C702.045 431.961 701.876 431.716 701.952 431.303L704.649 416.618C704.679 416.453 704.612 416.355 704.447 416.324L687.655 413.24C687.489 413.21 687.392 413.277 687.361 413.443L685.631 422.861C685.555 423.274 685.311 423.443 684.898 423.367L683.225 423.059C682.812 422.984 682.643 422.739 682.719 422.326L684.449 412.908C684.479 412.742 684.412 412.645 684.247 412.614L667.393 409.519C667.227 409.488 667.13 409.556 667.099 409.721L664.402 424.406C664.326 424.819 664.082 424.988 663.668 424.912L661.995 424.605C661.582 424.529 661.414 424.284 661.49 423.871L664.722 406.274C664.798 405.861 665.042 405.692 665.455 405.768L707.59 413.507C708.004 413.583 708.172 413.827 708.096 414.24L704.864 431.838C704.788 432.251 704.544 432.42 704.131 432.344L702.458 432.037Z"/>
<path d="M623.877 516.625C625.413 514.069 627.521 512.518 630.201 511.973C632.917 511.449 635.679 512.031 638.487 513.719L639.621 514.401C639.981 514.617 640.052 514.905 639.836 515.265L638.797 516.993C638.581 517.353 638.293 517.425 637.933 517.209L636.907 516.592C634.783 515.315 632.759 514.809 630.836 515.074C628.891 515.375 627.41 516.372 626.393 518.064C625.376 519.755 625.162 521.538 625.751 523.411C626.34 525.284 627.643 526.827 629.659 528.039C630.991 528.839 632.305 529.262 633.601 529.306C634.876 529.386 636.104 529.218 637.286 528.801C638.482 528.442 640.334 527.766 642.841 526.774C645.37 525.746 647.388 524.999 648.893 524.532C650.414 524.123 651.998 523.973 653.648 524.082C655.333 524.213 657.058 524.809 658.822 525.869C661.593 527.535 663.306 529.618 663.959 532.118C664.613 534.618 664.204 537.092 662.733 539.54C661.153 542.167 659.005 543.743 656.289 544.267C653.573 544.79 650.775 544.187 647.896 542.456L646.546 541.644C646.186 541.428 646.114 541.14 646.33 540.78L647.402 538.998C647.618 538.638 647.906 538.566 648.266 538.782L649.616 539.594C651.74 540.871 653.774 541.358 655.719 541.057C657.679 540.814 659.188 539.81 660.249 538.047C661.201 536.463 661.415 534.803 660.89 533.066C660.402 531.352 659.132 529.878 657.08 528.644C655.856 527.909 654.664 527.486 653.505 527.377C652.323 527.304 651.088 527.444 649.798 527.796C648.487 528.184 646.664 528.852 644.33 529.801C641.469 530.973 639.239 531.788 637.64 532.248C636.04 532.708 634.502 532.861 633.026 532.709C631.528 532.592 629.969 532.047 628.349 531.074C625.397 529.299 623.526 527.072 622.736 524.392C621.96 521.769 622.34 519.18 623.877 516.625Z"/>
<path d="M638.359 570.744C638.017 570.499 637.969 570.206 638.213 569.865L646.898 557.72C646.996 557.583 646.976 557.466 646.84 557.368L632.953 547.437C632.816 547.339 632.699 547.359 632.601 547.495L627.031 555.284C626.786 555.626 626.493 555.675 626.152 555.43L624.768 554.441C624.427 554.197 624.378 553.904 624.622 553.562L630.193 545.773C630.29 545.636 630.271 545.519 630.134 545.421L616.196 535.453C616.059 535.356 615.942 535.375 615.844 535.512L607.159 547.657C606.914 547.998 606.621 548.047 606.28 547.803L604.896 546.813C604.555 546.569 604.506 546.276 604.75 545.934L615.158 531.381C615.402 531.039 615.695 530.99 616.037 531.235L650.883 556.155C651.225 556.399 651.273 556.692 651.029 557.034L640.621 571.587C640.377 571.929 640.084 571.977 639.742 571.733L638.359 570.744Z"/>
<path d="M621.827 593.379C622.146 593.652 622.169 593.948 621.896 594.267L620.586 595.799C620.313 596.118 620.017 596.141 619.698 595.868L587.139 568.022C586.82 567.749 586.797 567.453 587.07 567.134L588.667 565.267C588.885 565.011 589.163 564.945 589.501 565.068L625.036 577.801C625.159 577.851 625.232 577.831 625.254 577.74C625.309 577.676 625.288 577.603 625.193 577.521L598.482 554.76C598.163 554.487 598.14 554.191 598.413 553.871L599.765 552.291C600.038 551.972 600.334 551.949 600.653 552.222L633.211 580.068C633.53 580.341 633.554 580.637 633.281 580.956L631.724 582.776C631.506 583.031 631.228 583.097 630.891 582.975L595.458 570.412C595.335 570.362 595.247 570.369 595.192 570.433C595.169 570.524 595.206 570.61 595.302 570.692L621.827 593.379Z"/>
<path d="M580.196 574.697C580.497 574.404 580.794 574.408 581.087 574.709L610.949 605.425C611.242 605.727 611.238 606.024 610.937 606.316L604.297 612.772C602.068 614.939 599.575 615.898 596.816 615.652C594.087 615.435 591.478 614.047 588.989 611.487L574.409 596.49C571.92 593.931 570.592 591.269 570.423 588.504C570.283 585.77 571.327 583.319 573.556 581.153L580.196 574.697ZM580.493 578.889C580.376 578.768 580.257 578.767 580.137 578.884L575.62 583.276C574.173 584.74 573.556 586.425 573.766 588.328C573.976 590.292 575.018 592.237 576.892 594.164L591.34 609.025C593.243 610.983 595.173 612.094 597.13 612.359C599.056 612.654 600.772 612.069 602.278 610.605L606.75 606.257C606.87 606.14 606.872 606.021 606.755 605.901L580.493 578.889Z"/>
<path d="M561.097 647.583C561.17 647.894 561.071 648.15 560.8 648.349L559.074 649.618C558.736 649.866 558.442 649.822 558.194 649.483L532.815 614.971C532.566 614.632 532.61 614.339 532.948 614.09L534.623 612.858C534.961 612.609 535.256 612.654 535.505 612.992L556.666 641.77C556.741 641.871 556.813 641.897 556.88 641.848C556.948 641.798 556.973 641.727 556.957 641.634L553.433 625.145C553.336 624.799 553.406 624.539 553.643 624.365C553.914 624.166 554.186 624.148 554.462 624.31L569.165 632.5C569.282 632.518 569.375 632.502 569.443 632.452C569.476 632.428 569.456 632.364 569.381 632.263L548.294 603.587C548.045 603.249 548.09 602.955 548.428 602.706L550.104 601.474C550.442 601.226 550.735 601.27 550.984 601.609L576.364 636.121C576.612 636.46 576.568 636.753 576.229 637.002L574.505 638.271C574.234 638.47 573.96 638.489 573.684 638.327L557.713 629.582C557.63 629.54 557.554 629.543 557.486 629.593C557.419 629.643 557.393 629.714 557.409 629.806L561.097 647.583Z"/>
<path d="M530.092 664.949C529.876 664.589 529.948 664.301 530.307 664.084L543.1 656.385C543.244 656.299 543.273 656.183 543.186 656.039L534.383 641.411C534.296 641.267 534.181 641.238 534.037 641.325L525.832 646.263C525.472 646.479 525.184 646.408 524.968 646.048L524.091 644.59C523.874 644.231 523.946 643.942 524.305 643.726L532.51 638.788C532.654 638.701 532.683 638.586 532.596 638.442L523.76 623.76C523.674 623.616 523.558 623.587 523.414 623.674L510.621 631.373C510.262 631.589 509.973 631.518 509.757 631.158L508.88 629.701C508.663 629.341 508.735 629.052 509.095 628.836L524.425 619.61C524.784 619.394 525.073 619.465 525.289 619.825L547.379 656.531C547.596 656.891 547.524 657.179 547.164 657.395L531.834 666.621C531.474 666.838 531.186 666.766 530.97 666.406L530.092 664.949Z"/>
<path d="M495.187 635.41C497.859 634.087 500.471 633.919 503.021 634.906C505.591 635.931 507.602 637.912 509.055 640.848L509.641 642.034C509.828 642.41 509.733 642.691 509.356 642.878L507.549 643.772C507.173 643.958 506.892 643.863 506.705 643.487L506.174 642.414C505.075 640.193 503.645 638.675 501.882 637.86C500.082 637.064 498.298 637.104 496.529 637.979C494.759 638.855 493.617 640.24 493.102 642.135C492.588 644.03 492.852 646.031 493.895 648.139C494.584 649.532 495.463 650.597 496.53 651.334C497.56 652.089 498.685 652.611 499.905 652.897C501.105 653.24 503.029 653.671 505.675 654.189C508.359 654.688 510.461 655.148 511.981 655.567C513.481 656.043 514.897 656.772 516.226 657.754C517.574 658.774 518.705 660.206 519.618 662.05C521.052 664.949 521.37 667.627 520.571 670.084C519.772 672.541 518.093 674.404 515.533 675.67C512.785 677.03 510.126 677.198 507.557 676.173C504.988 675.148 502.959 673.13 501.468 670.118L500.77 668.707C500.583 668.33 500.678 668.049 501.055 667.863L502.918 666.941C503.295 666.754 503.576 666.849 503.762 667.226L504.461 668.638C505.56 670.858 507.009 672.367 508.809 673.163C510.59 674.016 512.403 673.986 514.247 673.073C515.904 672.253 516.98 670.971 517.475 669.226C517.989 667.519 517.715 665.593 516.654 663.447C516.02 662.167 515.245 661.168 514.327 660.451C513.372 659.752 512.257 659.203 510.981 658.803C509.668 658.422 507.773 658.001 505.295 657.54C502.255 656.983 499.937 656.466 498.342 655.99C496.748 655.514 495.37 654.813 494.209 653.888C493.011 652.982 491.993 651.682 491.154 649.988C489.627 646.901 489.254 644.016 490.035 641.333C490.797 638.707 492.514 636.732 495.187 635.41Z"/>
<path d="M472.494 645.528C475.264 644.424 477.881 644.467 480.344 645.656C482.822 646.884 484.668 649.02 485.88 652.063L486.37 653.292C486.525 653.682 486.408 653.955 486.017 654.111L484.145 654.857C483.754 655.012 483.482 654.895 483.326 654.505L482.883 653.393C481.966 651.091 480.662 649.463 478.971 648.509C477.241 647.57 475.459 647.466 473.625 648.197C471.791 648.927 470.541 650.216 469.876 652.064C469.21 653.911 469.313 655.928 470.183 658.113C470.758 659.556 471.548 660.688 472.553 661.509C473.519 662.344 474.598 662.954 475.791 663.338C476.96 663.777 478.843 664.36 481.439 665.089C484.074 665.803 486.132 666.429 487.614 666.969C489.071 667.564 490.423 668.405 491.669 669.491C492.931 670.616 493.943 672.134 494.705 674.046C495.901 677.051 496.003 679.745 495.009 682.13C494.015 684.516 492.192 686.237 489.538 687.294C486.69 688.428 484.027 688.381 481.548 687.153C479.07 685.925 477.209 683.751 475.966 680.629L475.383 679.166C475.227 678.776 475.345 678.503 475.735 678.348L477.666 677.578C478.056 677.423 478.329 677.54 478.485 677.93L479.067 679.394C479.984 681.696 481.308 683.316 483.038 684.254C484.745 685.247 486.554 685.363 488.466 684.601C490.183 683.917 491.358 682.726 491.992 681.026C492.642 679.366 492.524 677.424 491.638 675.2C491.109 673.873 490.417 672.816 489.56 672.027C488.664 671.253 487.597 670.616 486.357 670.115C485.079 669.63 483.224 669.058 480.791 668.399C477.805 667.599 475.537 666.898 473.985 666.295C472.434 665.693 471.117 664.884 470.035 663.868C468.913 662.868 468.002 661.49 467.303 659.735C466.028 656.535 465.888 653.63 466.883 651.018C467.853 648.462 469.724 646.631 472.494 645.528Z"/>
<path d="M441.243 656.747C441.604 656.635 441.88 656.747 442.072 657.083L446.14 664.463C446.165 664.543 446.224 664.59 446.317 664.606C446.369 664.633 446.436 664.635 446.516 664.61L458.31 660.954C458.391 660.93 458.465 660.885 458.532 660.82C458.56 660.767 458.561 660.701 458.537 660.62L457.718 652.234C457.646 651.86 457.811 651.611 458.212 651.487L460.198 650.872C460.399 650.809 460.578 650.82 460.735 650.903C460.853 650.998 460.923 651.153 460.945 651.366L464.48 695.12C464.512 695.506 464.347 695.755 463.986 695.867L461.579 696.613C461.178 696.737 460.902 696.625 460.75 696.277L438.86 658.21L438.823 658.09C438.711 657.729 438.836 657.493 439.197 657.381L441.243 656.747ZM458.845 663.955C458.795 663.794 458.71 663.733 458.589 663.77L447.938 667.071C447.818 667.108 447.783 667.207 447.832 667.368L461.077 691.162C461.155 691.27 461.213 691.318 461.253 691.306C461.294 691.293 461.315 691.221 461.318 691.088L458.845 663.955Z"/>
<path d="M425.501 660.055C428.493 659.383 431.113 659.742 433.362 661.132C435.579 662.571 437.023 664.786 437.694 667.778L443.103 691.875C443.774 694.866 443.411 697.466 442.012 699.674C440.582 701.932 438.371 703.396 435.38 704.068C432.388 704.739 429.763 704.36 427.505 702.93C425.256 701.54 423.796 699.35 423.125 696.358L422.518 693.654C422.426 693.244 422.585 692.993 422.994 692.901L425.023 692.446C425.433 692.354 425.684 692.513 425.776 692.923L426.397 695.689C426.875 697.82 427.871 699.382 429.386 700.377C430.9 701.371 432.682 701.639 434.731 701.179C436.78 700.719 438.277 699.716 439.221 698.169C440.165 696.623 440.398 694.784 439.92 692.653L434.484 668.434C434.006 666.303 433.01 664.74 431.495 663.746C429.98 662.751 428.199 662.484 426.15 662.944C424.101 663.404 422.604 664.407 421.66 665.953C420.715 667.5 420.482 669.338 420.961 671.469L422.906 680.137C422.943 680.301 423.043 680.364 423.207 680.327L428.985 679.03C429.395 678.938 429.646 679.097 429.738 679.507L430.11 681.167C430.202 681.577 430.044 681.828 429.634 681.92L420.966 683.865C420.557 683.957 420.306 683.798 420.214 683.388L417.716 672.262C417.045 669.27 417.424 666.646 418.855 664.388C420.294 662.171 422.51 660.726 425.501 660.055Z"/>
<path d="M394.512 708.095C394.456 707.679 394.635 707.443 395.052 707.386L409.846 705.37C410.012 705.347 410.084 705.253 410.061 705.086L407.756 688.17C407.734 688.003 407.639 687.931 407.473 687.954L397.984 689.247C397.568 689.304 397.332 689.124 397.275 688.708L397.045 687.022C396.989 686.606 397.168 686.37 397.584 686.313L407.073 685.02C407.239 684.998 407.311 684.903 407.288 684.736L404.975 667.757C404.952 667.591 404.857 667.519 404.691 667.542L389.897 669.558C389.48 669.614 389.244 669.435 389.187 669.019L388.958 667.333C388.901 666.917 389.081 666.681 389.497 666.624L407.225 664.208C407.641 664.151 407.878 664.331 407.934 664.747L413.719 707.195C413.775 707.611 413.596 707.847 413.18 707.904L395.451 710.32C395.035 710.377 394.799 710.197 394.742 709.781L394.512 708.095Z"/>
<path d="M289.504 660.339C292.415 660.986 294.554 662.494 295.92 664.864C297.277 667.274 297.6 670.078 296.889 673.276L296.601 674.567C296.51 674.977 296.26 675.136 295.85 675.045L293.882 674.607C293.472 674.516 293.312 674.266 293.404 673.856L293.663 672.687C294.201 670.268 294.04 668.189 293.179 666.448C292.278 664.699 290.864 663.61 288.937 663.181C287.01 662.753 285.251 663.114 283.661 664.267C282.071 665.419 281.021 667.143 280.51 669.439C280.173 670.956 280.188 672.336 280.557 673.58C280.885 674.814 281.433 675.926 282.203 676.915C282.923 677.935 284.15 679.478 285.885 681.542C287.662 683.615 289.01 685.292 289.93 686.572C290.8 687.884 291.444 689.34 291.863 690.939C292.272 692.579 292.254 694.403 291.807 696.412C291.105 699.569 289.672 701.853 287.507 703.265C285.343 704.677 282.867 705.073 280.079 704.453C277.087 703.787 274.912 702.249 273.555 699.839C272.197 697.429 271.884 694.584 272.613 691.304L272.955 689.766C273.046 689.357 273.297 689.197 273.707 689.288L275.736 689.74C276.146 689.831 276.306 690.081 276.215 690.491L275.873 692.029C275.335 694.448 275.516 696.532 276.418 698.281C277.27 700.063 278.7 701.177 280.709 701.624C282.513 702.025 284.155 701.702 285.636 700.654C287.107 699.648 288.103 697.976 288.623 695.639C288.933 694.245 288.956 692.981 288.692 691.847C288.387 690.703 287.863 689.576 287.121 688.464C286.338 687.343 285.126 685.826 283.486 683.912C281.469 681.57 279.989 679.714 279.046 678.342C278.103 676.971 277.47 675.561 277.147 674.112C276.783 672.654 276.806 671.003 277.216 669.158C277.964 665.796 279.484 663.316 281.776 661.717C284.017 660.151 286.594 659.691 289.504 660.339Z"/>
<path d="M242.731 691.192C242.855 690.79 243.117 690.652 243.518 690.775L257.785 695.181C257.945 695.23 258.05 695.175 258.1 695.014L263.137 678.701C263.187 678.541 263.131 678.436 262.971 678.386L253.821 675.561C253.42 675.437 253.281 675.174 253.405 674.773L253.907 673.148C254.031 672.746 254.293 672.608 254.695 672.732L263.844 675.557C264.005 675.607 264.11 675.551 264.159 675.391L269.215 659.017C269.265 658.857 269.209 658.752 269.049 658.702L254.783 654.297C254.381 654.173 254.243 653.91 254.366 653.509L254.868 651.884C254.992 651.483 255.255 651.344 255.656 651.468L272.752 656.747C273.153 656.871 273.292 657.133 273.168 657.534L260.528 698.467C260.404 698.869 260.142 699.007 259.74 698.884L242.645 693.605C242.244 693.481 242.105 693.218 242.229 692.817L242.731 691.192Z"/>
<path d="M215.878 682.865C215.719 683.254 215.445 683.369 215.056 683.21L213.19 682.447C212.801 682.288 212.686 682.014 212.845 681.626L229.049 641.968C229.208 641.58 229.482 641.465 229.871 641.624L232.145 642.553C232.456 642.68 232.606 642.923 232.596 643.282L231.673 681.016C231.665 681.149 231.707 681.211 231.801 681.204C231.878 681.236 231.941 681.194 231.989 681.077L245.204 648.569C245.362 648.18 245.636 648.065 246.025 648.224L247.95 649.011C248.338 649.17 248.453 649.443 248.294 649.832L232.09 689.489C231.932 689.878 231.658 689.993 231.269 689.834L229.053 688.929C228.742 688.802 228.591 688.559 228.602 688.2L229.395 650.617C229.403 650.484 229.369 650.402 229.291 650.37C229.197 650.377 229.127 650.439 229.079 650.556L215.878 682.865Z"/>
<path d="M220.686 637.109C221.059 637.302 221.149 637.585 220.956 637.958L201.286 676.015C201.093 676.388 200.81 676.478 200.437 676.286L192.21 672.033C189.449 670.606 187.748 668.545 187.108 665.851C186.449 663.193 186.939 660.279 188.578 657.107L198.182 638.526C199.821 635.355 201.925 633.251 204.493 632.215C207.042 631.216 209.698 631.43 212.459 632.857L220.686 637.109ZM216.804 638.719C216.881 638.57 216.845 638.457 216.696 638.38L211.099 635.487C209.252 634.58 207.458 634.527 205.719 635.331C203.924 636.152 202.409 637.756 201.175 640.144L191.658 658.557C190.404 660.983 189.962 663.165 190.33 665.105C190.662 667.025 191.76 668.468 193.626 669.432L199.166 672.296C199.316 672.373 199.429 672.337 199.506 672.187L216.804 638.719Z"/>
<path d="M145.454 642.105C145.181 642.272 144.908 642.259 144.633 642.065L142.885 640.828C142.542 640.585 142.492 640.293 142.734 639.95L167.471 604.974C167.714 604.631 168.006 604.58 168.349 604.823L170.047 606.023C170.39 606.266 170.44 606.559 170.197 606.902L149.571 636.066C149.498 636.168 149.496 636.244 149.565 636.293C149.633 636.341 149.709 636.343 149.792 636.299L164.326 627.75C164.623 627.549 164.891 627.533 165.131 627.703C165.406 627.897 165.509 628.15 165.442 628.463L162.312 645C162.332 645.117 162.376 645.199 162.445 645.248C162.479 645.272 162.533 645.233 162.605 645.13L183.159 616.069C183.402 615.726 183.694 615.676 184.037 615.918L185.735 617.119C186.077 617.361 186.128 617.654 185.885 617.997L161.148 652.973C160.906 653.316 160.613 653.366 160.27 653.124L158.521 651.887C158.247 651.693 158.143 651.439 158.21 651.127L161.466 633.212C161.48 633.12 161.453 633.049 161.384 633C161.316 632.952 161.24 632.95 161.157 632.994L145.454 642.105Z"/>
<path d="M119.207 618.22C119.48 617.901 119.776 617.877 120.095 618.15L131.449 627.847C131.577 627.956 131.695 627.947 131.804 627.819L142.892 614.837C143.001 614.709 142.992 614.59 142.864 614.481L135.583 608.262C135.263 607.989 135.24 607.693 135.513 607.374L136.618 606.081C136.89 605.761 137.186 605.738 137.506 606.011L144.787 612.23C144.915 612.339 145.034 612.33 145.143 612.202L156.272 599.171C156.381 599.044 156.371 598.925 156.244 598.816L144.89 589.119C144.571 588.846 144.547 588.55 144.82 588.231L145.925 586.938C146.198 586.618 146.494 586.595 146.813 586.868L160.418 598.488C160.738 598.76 160.761 599.056 160.488 599.376L132.666 631.952C132.393 632.271 132.097 632.294 131.778 632.022L118.172 620.402C117.853 620.129 117.83 619.833 118.103 619.513L119.207 618.22Z"/>
<path d="M135.967 575.967C138.075 578.076 139.07 580.496 138.951 583.228C138.803 585.99 137.57 588.53 135.254 590.846L134.318 591.782C134.022 592.079 133.725 592.079 133.428 591.782L132.002 590.356C131.705 590.059 131.705 589.762 132.002 589.465L132.848 588.619C134.601 586.866 135.581 585.025 135.789 583.095C135.967 581.135 135.358 579.457 133.962 578.061C132.566 576.665 130.888 576.027 128.928 576.145C126.968 576.264 125.157 577.155 123.493 578.818C122.395 579.917 121.667 581.09 121.311 582.337C120.924 583.555 120.791 584.788 120.91 586.035C120.969 587.282 121.177 589.242 121.533 591.915C121.919 594.618 122.157 596.756 122.246 598.33C122.276 599.904 122.038 601.478 121.533 603.052C120.999 604.656 120.004 606.185 118.549 607.641C116.262 609.927 113.827 611.086 111.243 611.115C108.659 611.145 106.357 610.15 104.338 608.131C102.17 605.963 101.16 603.498 101.309 600.736C101.457 597.974 102.719 595.405 105.095 593.029L106.209 591.915C106.506 591.618 106.803 591.618 107.1 591.915L108.57 593.385C108.867 593.682 108.867 593.979 108.57 594.276L107.456 595.39C105.704 597.142 104.739 598.998 104.561 600.958C104.323 602.918 104.932 604.626 106.387 606.081C107.694 607.388 109.253 607.997 111.065 607.908C112.846 607.848 114.584 606.972 116.277 605.28C117.286 604.27 117.984 603.215 118.37 602.117C118.727 600.988 118.89 599.756 118.86 598.419C118.801 597.053 118.593 595.123 118.237 592.628C117.791 589.569 117.539 587.208 117.479 585.545C117.42 583.882 117.643 582.352 118.148 580.956C118.623 579.531 119.529 578.15 120.865 576.814C123.3 574.378 125.914 573.101 128.705 572.982C131.438 572.864 133.858 573.859 135.967 575.967Z"/>
<path d="M119.349 557.438C121.276 559.713 122.068 562.209 121.725 564.922C121.349 567.662 119.911 570.09 117.411 572.208L116.402 573.063C116.082 573.334 115.786 573.31 115.514 572.989L114.211 571.451C113.94 571.131 113.964 570.835 114.284 570.563L115.198 569.789C117.089 568.188 118.217 566.433 118.583 564.527C118.923 562.588 118.454 560.866 117.178 559.359C115.902 557.853 114.283 557.078 112.319 557.035C110.356 556.992 108.477 557.731 106.683 559.251C105.497 560.255 104.675 561.364 104.217 562.578C103.732 563.76 103.497 564.977 103.513 566.23C103.469 567.478 103.515 569.45 103.649 572.143C103.811 574.868 103.872 577.017 103.831 578.593C103.731 580.165 103.364 581.715 102.731 583.242C102.066 584.796 100.948 586.237 99.3777 587.567C96.9107 589.658 94.3876 590.611 91.8106 590.428C89.2326 590.244 87.0206 589.063 85.1746 586.884C83.1936 584.544 82.3897 582.005 82.7657 579.264C83.1417 576.524 84.6116 574.068 87.1746 571.896L88.3767 570.878C88.6977 570.607 88.9937 570.631 89.2647 570.951L90.6087 572.539C90.8797 572.859 90.8556 573.155 90.5346 573.427L89.3336 574.444C87.4426 576.045 86.3277 577.817 85.9887 579.755C85.5897 581.689 86.0557 583.44 87.3867 585.011C88.5807 586.421 90.0847 587.156 91.8977 587.217C93.6777 587.304 95.4817 586.574 97.3087 585.027C98.3977 584.104 99.1807 583.111 99.6557 582.048C100.104 580.952 100.369 579.737 100.449 578.403C100.503 577.037 100.455 575.096 100.305 572.58C100.114 569.495 100.057 567.121 100.135 565.459C100.213 563.796 100.561 562.29 101.179 560.941C101.77 559.56 102.787 558.258 104.229 557.036C106.857 554.81 109.566 553.753 112.358 553.865C115.091 553.972 117.421 555.163 119.349 557.438Z"/>
<path d="M98.7711 531.389C98.9921 531.696 98.9741 531.995 98.7161 532.284L93.0171 538.49C92.9481 538.539 92.9221 538.61 92.9371 538.703C92.9271 538.762 92.9471 538.825 92.9961 538.893L100.218 548.909C100.267 548.978 100.333 549.033 100.416 549.077C100.475 549.087 100.538 549.067 100.606 549.018L108.296 545.571C108.627 545.384 108.915 545.461 109.161 545.801L110.377 547.488C110.499 547.658 110.547 547.831 110.518 548.007C110.465 548.149 110.341 548.264 110.146 548.353L69.7961 565.639C69.4401 565.792 69.1511 565.715 68.9301 565.408L67.4571 563.363C67.2111 563.022 67.2291 562.726 67.5111 562.47L96.6251 529.598L96.7271 529.524C97.0331 529.303 97.2971 529.345 97.5181 529.652L98.7711 531.389ZM97.5441 550.371C97.6801 550.273 97.7111 550.173 97.6371 550.071L91.1161 541.025C91.0431 540.923 90.9381 540.921 90.8011 541.019L72.4641 561.152C72.3861 561.26 72.3591 561.331 72.3841 561.365C72.4081 561.399 72.4841 561.396 72.6111 561.357L97.5441 550.371Z"/>
<path d="M90.6185 517.519C92.2055 520.143 92.6976 522.741 92.0956 525.315C91.4356 527.874 89.7936 529.948 87.1706 531.535L66.0416 544.321C63.4186 545.908 60.8386 546.39 58.3006 545.766C55.7046 545.127 53.6136 543.496 52.0266 540.873C50.4388 538.25 49.9644 535.641 50.6029 533.045C51.2056 530.472 52.8186 528.391 55.4416 526.804L57.8126 525.369C58.1726 525.151 58.4606 525.222 58.6776 525.581L59.7546 527.36C59.9716 527.719 59.9006 528.008 59.5416 528.225L57.1166 529.693C55.2476 530.824 54.0826 532.265 53.6206 534.017C53.1596 535.769 53.4726 537.544 54.5596 539.34C55.6466 541.137 57.0736 542.237 58.8396 542.641C60.6056 543.045 62.4236 542.682 64.2916 541.551L85.5286 528.7C87.3966 527.569 88.5615 526.128 89.0235 524.376C89.4845 522.623 89.1716 520.849 88.0846 519.052C86.9976 517.256 85.5706 516.156 83.8046 515.752C82.0386 515.348 80.2206 515.711 78.3526 516.842L70.7526 521.441C70.6086 521.528 70.5806 521.643 70.6676 521.787L73.7336 526.853C73.9506 527.213 73.8796 527.501 73.5206 527.719L72.0656 528.599C71.7056 528.817 71.4176 528.746 71.2006 528.386L66.6016 520.787C66.3836 520.427 66.4546 520.139 66.8136 519.921L76.5696 514.018C79.1926 512.43 81.8026 511.956 84.3976 512.595C86.9576 513.255 89.0305 514.896 90.6185 517.519Z"/>
<path d="M35.2067 503.322C35.5834 503.137 35.8646 503.232 36.0504 503.609L42.6542 517C42.7285 517.151 42.841 517.189 42.9917 517.114L58.3043 509.563C58.4543 509.489 58.4933 509.376 58.4183 509.226L54.1833 500.637C53.9973 500.261 54.0933 499.979 54.4693 499.794L55.9953 499.041C56.3723 498.856 56.6533 498.951 56.8393 499.328L61.0743 507.916C61.1483 508.067 61.2613 508.105 61.4113 508.031L76.7803 500.452C76.9313 500.377 76.9693 500.265 76.8953 500.114L70.2913 486.723C70.1053 486.346 70.2013 486.065 70.5773 485.879L72.1033 485.127C72.4803 484.941 72.7613 485.037 72.9473 485.413L80.8603 501.46C81.0463 501.837 80.9503 502.118 80.5743 502.304L42.1518 521.252C41.7752 521.437 41.4939 521.342 41.3082 520.965L33.3947 504.918C33.209 504.542 33.3044 504.26 33.6811 504.075L35.2067 503.322Z"/>
<path d="M47.8018 388.551C48.1015 391.518 47.3413 394.022 45.5213 396.063C43.6594 398.109 41.0988 399.296 37.8394 399.625L36.523 399.758C36.1052 399.8 35.8751 399.613 35.8329 399.195L35.6303 397.189C35.5881 396.771 35.7759 396.541 36.1938 396.499L37.3848 396.379C39.8502 396.129 41.7739 395.323 43.1558 393.959C44.5336 392.554 45.1232 390.869 44.9248 388.905C44.7265 386.941 43.8305 385.385 42.2371 384.237C40.6436 383.09 38.6769 382.634 36.3368 382.87C34.7907 383.027 33.4852 383.475 32.4203 384.216C31.3511 384.915 30.4681 385.785 29.7712 386.826C29.0283 387.83 27.9497 389.48 26.5352 391.776C25.125 394.113 23.9567 395.92 23.0302 397.195C22.0577 398.433 20.8781 399.502 19.4915 400.402C18.0632 401.306 16.3252 401.862 14.2776 402.069C11.06 402.394 8.44105 401.75 6.42095 400.139C4.40075 398.528 3.24715 396.302 2.96015 393.46C2.65205 390.41 3.42885 387.862 5.29075 385.816C7.15265 383.771 9.75505 382.579 13.0981 382.242L14.6651 382.083C15.083 382.041 15.313 382.229 15.3552 382.647L15.5642 384.715C15.6064 385.133 15.4185 385.363 15.0007 385.406L13.4336 385.564C10.9682 385.813 9.04655 386.64 7.66885 388.046C6.24505 389.414 5.63665 391.122 5.84345 393.169C6.02915 395.008 6.85185 396.465 8.31145 397.542C9.72925 398.623 11.6292 399.043 14.0111 398.803C15.4318 398.659 16.6392 398.284 17.6333 397.677C18.6231 397.028 19.5291 396.177 20.3513 395.123C21.1694 394.027 22.2292 392.4 23.531 390.243C25.1206 387.592 26.4183 385.603 27.4242 384.277C28.43 382.951 29.5699 381.908 30.8438 381.146C32.1134 380.342 33.6885 379.845 35.5689 379.655C38.9955 379.309 41.8275 379.973 44.065 381.647C46.2565 383.283 47.5022 385.584 47.8018 388.551Z"/>
<path d="M3.31126 354.046C3.73116 354.036 3.94626 354.241 3.95656 354.66L4.32396 369.587C4.32816 369.755 4.41416 369.837 4.58216 369.833L21.65 369.412C21.8179 369.408 21.8998 369.322 21.8957 369.154L21.6601 359.581C21.6497 359.161 21.8545 358.946 22.2744 358.936L23.9749 358.894C24.3947 358.884 24.6099 359.089 24.6202 359.508L24.8558 369.081C24.86 369.249 24.946 369.331 25.1139 369.327L42.2448 368.906C42.4127 368.901 42.4946 368.815 42.4905 368.647L42.1231 353.721C42.1127 353.301 42.3175 353.086 42.7374 353.076L44.4379 353.034C44.8577 353.023 45.0728 353.228 45.0832 353.648L45.5234 371.535C45.5338 371.955 45.329 372.17 44.9091 372.18L2.08206 373.234C1.66216 373.244 1.44706 373.04 1.43676 372.62L0.996464 354.733C0.986164 354.313 1.19096 354.098 1.61076 354.088L3.31126 354.046Z"/>
<path d="M2.95285 325.699C2.53395 325.669 2.33905 325.445 2.36845 325.026L2.50915 323.015C2.53855 322.596 2.76265 322.401 3.18165 322.431L45.917 325.422C46.336 325.451 46.5308 325.676 46.5015 326.095L46.3299 328.546C46.3065 328.881 46.1227 329.1 45.7788 329.202L9.64785 340.124C9.51925 340.158 9.47295 340.217 9.50905 340.304C9.50315 340.388 9.56305 340.434 9.68875 340.443L44.6984 342.831C45.1174 342.86 45.3123 343.084 45.283 343.503L45.1377 345.577C45.1084 345.996 44.8843 346.191 44.4653 346.161L1.72995 343.17C1.31095 343.141 1.11615 342.916 1.14545 342.497L1.31265 340.109C1.33605 339.774 1.51975 339.555 1.86375 339.453L37.8105 328.454C37.9391 328.421 38.0065 328.363 38.0123 328.279C37.9763 328.192 37.8953 328.145 37.7696 328.136L2.95285 325.699Z"/>
<path d="M47.5374 315.926C47.4704 316.341 47.2296 316.515 46.8149 316.448L4.52366 309.613C4.10906 309.546 3.93526 309.305 4.00226 308.89L5.47976 299.748C5.97566 296.68 7.40426 294.422 9.76546 292.974C12.0853 291.519 15.0073 291.077 18.5316 291.646L39.1797 294.984C42.7039 295.553 45.3585 296.897 47.1435 299.015C48.887 301.126 49.5108 303.716 49.0149 306.784L47.5374 315.926ZM44.7978 312.739C44.9636 312.766 45.0599 312.697 45.0867 312.531L46.0919 306.311C46.3788 304.273 45.8697 302.553 44.5647 301.151C43.2249 299.7 41.2283 298.761 38.5747 298.332L18.1132 295.025C15.4182 294.589 13.2064 294.849 11.478 295.803C9.75626 296.716 8.72786 298.209 8.39286 300.283L7.39776 306.44C7.37096 306.605 7.44046 306.702 7.60626 306.729L44.7978 312.739Z"/>
<path d="M18.8161 246.115C18.5711 245.91 18.4971 245.646 18.5943 245.325L19.2137 243.274C19.3352 242.872 19.5969 242.732 19.999 242.853L61.0089 255.242C61.4109 255.363 61.5509 255.625 61.4299 256.027L60.8279 258.017C60.7069 258.419 60.4449 258.559 60.0429 258.438L25.8483 248.108C25.7276 248.072 25.6552 248.094 25.6309 248.174C25.6066 248.255 25.6286 248.327 25.6969 248.391L38.4081 259.471C38.6933 259.688 38.7934 259.938 38.7084 260.219C38.6112 260.541 38.4037 260.72 38.0858 260.755L21.4087 263.023C21.304 263.079 21.2395 263.147 21.2152 263.227C21.2031 263.268 21.2573 263.306 21.3779 263.342L55.4519 273.636C55.8539 273.757 55.9949 274.019 55.8729 274.421L55.2719 276.411C55.1499 276.813 54.8889 276.953 54.4869 276.832L13.4769 264.444C13.0748 264.322 12.9345 264.06 13.056 263.658L13.6754 261.608C13.7726 261.286 13.9801 261.108 14.298 261.072L32.3214 258.487C32.4139 258.472 32.4723 258.423 32.4966 258.343C32.5209 258.263 32.4989 258.19 32.4307 258.126L18.8161 246.115Z"/>
<path d="M33.3996 213.659C33.7887 213.817 33.9043 214.091 33.7461 214.48L28.1239 228.312C28.0607 228.467 28.1067 228.577 28.2624 228.64L44.0788 235.069C44.2344 235.132 44.3438 235.086 44.4071 234.93L48.0129 226.059C48.1711 225.67 48.4447 225.555 48.8338 225.713L50.4096 226.353C50.7987 226.511 50.9141 226.785 50.756 227.174L47.1502 236.045C47.0869 236.201 47.1331 236.31 47.2887 236.374L63.1632 242.826C63.3192 242.889 63.4281 242.843 63.4921 242.688L69.1141 228.856C69.2721 228.467 69.5461 228.351 69.9351 228.509L71.5112 229.15C71.9002 229.308 72.0152 229.581 71.8572 229.971L65.1202 246.546C64.9622 246.935 64.6882 247.05 64.2992 246.892L24.6122 230.761C24.2231 230.603 24.1076 230.329 24.2658 229.94L31.003 213.365C31.1611 212.976 31.4348 212.86 31.8238 213.018L33.3996 213.659Z"/>
<path d="M79.0544 216.366C77.7094 219.027 75.7214 220.729 73.0884 221.469C70.4184 222.191 67.6214 221.813 64.6964 220.336L63.5164 219.739C63.1414 219.55 63.0484 219.268 63.2374 218.893L64.1464 217.093C64.3364 216.719 64.6184 216.626 64.9934 216.815L66.0614 217.355C68.2734 218.472 70.3284 218.828 72.2274 218.423C74.1454 217.98 75.5484 216.877 76.4394 215.115C77.3294 213.353 77.4114 211.56 76.6864 209.735C75.9614 207.91 74.5494 206.467 72.4494 205.407C71.0624 204.706 69.7214 204.381 68.4244 204.432C67.1474 204.446 65.9344 204.704 64.7874 205.206C63.6204 205.652 61.8234 206.462 59.3954 207.635C56.9494 208.846 54.9914 209.74 53.5244 210.316C52.0384 210.836 50.4689 211.102 48.8159 211.114C47.1255 211.107 45.3618 210.64 43.5248 209.712C40.6382 208.254 38.7773 206.302 37.9421 203.857C37.1069 201.411 37.3331 198.914 38.6208 196.365C40.0032 193.628 42.0295 191.899 44.6997 191.178C47.3698 190.456 50.2044 190.853 53.2034 192.368L54.6094 193.078C54.9844 193.267 55.0774 193.549 54.8874 193.924L53.9504 195.78C53.7604 196.155 53.4784 196.247 53.1034 196.058L51.6984 195.348C49.4862 194.231 47.4215 193.893 45.5038 194.336C43.5675 194.723 42.1354 195.835 41.2075 197.672C40.3743 199.321 40.2829 200.992 40.9334 202.686C41.5464 204.36 42.9213 205.737 45.0581 206.816C46.3328 207.46 47.5523 207.794 48.7168 207.817C49.9001 207.803 51.1224 207.573 52.3824 207.128C53.6614 206.645 55.4304 205.844 57.6894 204.726C60.4554 203.348 62.6194 202.371 64.1814 201.795C65.7424 201.219 67.2654 200.953 68.7484 200.996C70.2514 201.003 71.8464 201.432 73.5334 202.284C76.6074 203.837 78.6364 205.921 79.6214 208.535C80.5874 211.094 80.3984 213.704 79.0544 216.366Z"/>
<path d="M91.138 194.648C89.586 197.194 87.469 198.732 84.785 199.261C82.066 199.768 79.308 199.169 76.511 197.464L75.381 196.775C75.022 196.557 74.952 196.268 75.171 195.91L76.22 194.188C76.438 193.829 76.727 193.759 77.086 193.978L78.108 194.601C80.224 195.891 82.244 196.409 84.169 196.155C86.116 195.866 87.603 194.879 88.631 193.193C89.658 191.508 89.883 189.727 89.305 187.85C88.727 185.973 87.434 184.423 85.426 183.199C84.099 182.39 82.787 181.959 81.491 181.907C80.217 181.819 78.988 181.98 77.803 182.39C76.605 182.741 74.749 183.406 72.236 184.382C69.701 185.395 67.679 186.13 66.17 186.588C64.647 186.988 63.062 187.128 61.413 187.009C59.729 186.867 58.008 186.261 56.25 185.19C53.489 183.507 51.789 181.414 51.151 178.91C50.5125 176.406 50.9366 173.935 52.423 171.496C54.018 168.878 56.176 167.315 58.895 166.808C61.614 166.301 64.408 166.922 67.277 168.67L68.622 169.49C68.981 169.709 69.051 169.997 68.832 170.356L67.75 172.131C67.532 172.49 67.243 172.56 66.885 172.341L65.54 171.522C63.424 170.232 61.392 169.732 59.445 170.021C57.484 170.252 55.969 171.247 54.898 173.004C53.936 174.582 53.712 176.241 54.226 177.98C54.704 179.698 55.965 181.18 58.009 182.426C59.228 183.169 60.417 183.598 61.576 183.714C62.757 183.795 63.993 183.663 65.285 183.319C66.599 182.939 68.426 182.281 70.766 181.347C73.634 180.193 75.868 179.39 77.471 178.941C79.073 178.491 80.612 178.346 82.087 178.508C83.585 178.633 85.14 179.188 86.754 180.172C89.695 181.964 91.552 184.203 92.326 186.887C93.086 189.515 92.69 192.101 91.138 194.648Z"/>
<path d="M109.362 166.9C109.141 167.207 108.853 167.284 108.497 167.131L100.808 163.683C100.74 163.634 100.664 163.631 100.581 163.674C100.523 163.684 100.469 163.723 100.42 163.791L93.197 173.806C93.147 173.874 93.115 173.954 93.1 174.047C93.11 174.106 93.149 174.16 93.217 174.209L98.915 180.416C99.197 180.671 99.216 180.969 98.97 181.31L97.754 182.996C97.631 183.166 97.482 183.266 97.306 183.294C97.154 183.289 97.006 183.207 96.86 183.05L67.716 150.224C67.458 149.935 67.44 149.637 67.661 149.33L69.135 147.286C69.381 146.946 69.669 146.869 70 147.056L110.385 164.298L110.487 164.372C110.794 164.593 110.836 164.857 110.615 165.163L109.362 166.9ZM90.965 171.73C91.101 171.829 91.206 171.827 91.28 171.724L97.803 162.68C97.877 162.578 97.845 162.478 97.709 162.38L72.815 151.339C72.688 151.299 72.613 151.296 72.588 151.33C72.564 151.364 72.59 151.435 72.668 151.543L90.965 171.73Z"/>
<path d="M119.986 154.801C117.993 157.132 115.68 158.414 113.047 158.649C110.409 158.825 107.925 157.917 105.595 155.924L86.8256 139.872C84.4956 137.879 83.2286 135.579 83.0256 132.974C82.8176 130.309 83.7106 127.811 85.7036 125.481C87.6966 123.151 90.0246 121.882 92.6896 121.674C95.3226 121.439 97.8046 122.318 100.135 124.311L102.242 126.112C102.561 126.385 102.584 126.682 102.311 127.001L100.96 128.581C100.687 128.9 100.391 128.923 100.071 128.65L97.9166 126.807C96.2566 125.388 94.5226 124.734 92.7136 124.845C90.9056 124.956 89.3186 125.81 87.9536 127.406C86.5886 129.002 85.9916 130.702 86.1616 132.506C86.3326 134.31 87.2476 135.921 88.9076 137.341L107.773 153.475C109.432 154.895 111.167 155.549 112.975 155.438C114.784 155.326 116.37 154.473 117.735 152.877C119.1 151.281 119.698 149.581 119.527 147.777C119.357 145.973 118.441 144.361 116.782 142.942L110.03 137.168C109.903 137.058 109.784 137.068 109.675 137.195L105.826 141.696C105.553 142.015 105.257 142.038 104.938 141.765L103.645 140.66C103.326 140.387 103.302 140.091 103.575 139.771L109.349 133.02C109.622 132.701 109.919 132.678 110.238 132.951L118.904 140.363C121.234 142.356 122.503 144.685 122.711 147.35C122.887 149.987 121.979 152.471 119.986 154.801Z"/>
<path d="M116.107 97.8079C116.401 98.1069 116.399 98.4039 116.1 98.6989L105.468 109.182C105.348 109.3 105.347 109.419 105.465 109.538L117.452 121.696C117.57 121.816 117.689 121.817 117.808 121.699L124.627 114.976C124.926 114.681 125.223 114.683 125.518 114.982L126.713 116.193C127.007 116.492 127.005 116.789 126.706 117.084L119.887 123.807C119.767 123.925 119.767 124.044 119.885 124.163L131.915 136.366C132.033 136.486 132.152 136.487 132.272 136.369L142.904 125.886C143.203 125.591 143.5 125.593 143.795 125.892L144.989 127.104C145.284 127.403 145.282 127.7 144.983 127.995L132.242 140.556C131.943 140.851 131.646 140.849 131.351 140.55L101.274 110.043C100.979 109.744 100.981 109.447 101.28 109.152L114.021 96.5909C114.321 96.2959 114.618 96.2979 114.912 96.5969L116.107 97.8079Z"/>
<path d="M228.565 73.0091C225.846 74.2341 223.23 74.3071 220.717 73.2281C218.187 72.1111 216.249 70.0591 214.903 67.0724L214.359 65.8662C214.187 65.4833 214.292 65.2056 214.675 65.033L216.513 64.2049C216.896 64.0324 217.174 64.1376 217.346 64.5205L217.838 65.6118C218.856 67.8711 220.231 69.4401 221.962 70.3181C223.732 71.1791 225.517 71.2041 227.317 70.3931C229.117 69.5821 230.308 68.2393 230.891 66.3642C231.474 64.4891 231.283 62.4794 230.317 60.335C229.678 58.9182 228.839 57.8222 227.799 57.0471C226.797 56.2547 225.692 55.6932 224.483 55.3624C223.296 54.9761 221.389 54.4762 218.763 53.8627C216.099 53.2664 214.015 52.7311 212.512 52.2569C211.029 51.7271 209.642 50.9474 208.349 49.9177C207.038 48.8497 205.96 47.3775 205.115 45.5012C203.786 42.5526 203.566 39.865 204.453 37.4382C205.341 35.0115 207.087 33.2115 209.69 32.0383C212.486 30.7788 215.149 30.7077 217.679 31.8249C220.209 32.9422 222.164 35.0325 223.545 38.0959L224.192 39.5319C224.364 39.9148 224.259 40.1926 223.876 40.3651L221.981 41.2191C221.598 41.3916 221.32 41.2864 221.147 40.9035L220.5 39.4675C219.482 37.2082 218.089 35.6481 216.319 34.7872C214.57 33.8707 212.757 33.8351 210.881 34.6805C209.196 35.4396 208.074 36.682 207.516 38.4077C206.94 40.0951 207.144 42.0302 208.128 44.2129C208.714 45.5148 209.453 46.541 210.344 47.2912C211.273 48.0243 212.368 48.6136 213.628 49.0592C214.926 49.4876 216.805 49.977 219.265 50.5274C222.283 51.1944 224.58 51.7946 226.157 52.3282C227.733 52.8618 229.084 53.6119 230.211 54.5785C231.376 55.5278 232.346 56.864 233.123 58.5872C234.537 61.7272 234.806 64.6236 233.928 67.2763C233.071 69.8731 231.283 71.7841 228.565 73.0091Z"/>
<path d="M247.402 20.1274C247.544 20.5228 247.417 20.7913 247.022 20.9331L232.968 25.9736C232.809 26.0304 232.759 26.1378 232.815 26.2959L238.579 42.3666C238.636 42.5248 238.743 42.5755 238.901 42.5188L247.915 39.286C248.31 39.1442 248.579 39.271 248.721 39.6664L249.295 41.2675C249.437 41.6628 249.31 41.9314 248.915 42.0732L239.901 45.3059C239.743 45.3627 239.692 45.4701 239.749 45.6282L245.534 61.7582C245.59 61.9164 245.698 61.9671 245.856 61.9104L259.91 56.8698C260.306 56.7281 260.574 56.8548 260.716 57.2502L261.29 58.8513C261.432 59.2467 261.305 59.5152 260.91 59.657L244.068 65.6971C243.673 65.8389 243.404 65.7121 243.263 65.3168L228.8 24.9918C228.659 24.5964 228.785 24.3279 229.181 24.1861L246.022 18.1459C246.418 18.0042 246.686 18.1309 246.828 18.5263L247.402 20.1274Z"/>
<path d="M273.987 10.9735C273.882 10.5671 274.032 10.3109 274.438 10.205L276.389 9.69689C276.796 9.59099 277.052 9.7413 277.158 10.1477L287.956 51.6044C288.062 52.0108 287.912 52.267 287.506 52.3728L285.128 52.9922C284.803 53.0769 284.537 52.9725 284.33 52.6791L262.451 21.9209C262.379 21.8095 262.308 21.7848 262.237 21.8466C262.156 21.8677 262.131 21.9393 262.163 22.0612L271.069 56.0032C271.175 56.4097 271.024 56.6658 270.618 56.7717L268.606 57.2957C268.2 57.4016 267.944 57.2513 267.838 56.8449L257.039 15.3882C256.933 14.9818 257.083 14.7256 257.49 14.6198L259.807 14.0163C260.132 13.9316 260.398 14.036 260.604 14.3294L282.496 44.8888C282.569 45.0002 282.646 45.0453 282.727 45.0241C282.798 44.9623 282.817 44.8704 282.785 44.7485L273.987 10.9735Z"/>
<path d="M297.589 50.3248C297.174 50.3949 296.933 50.2229 296.863 49.8088L289.71 7.56992C289.64 7.15582 289.813 6.91372 290.227 6.84362L299.359 5.29762C302.423 4.77872 305.021 5.40382 307.152 7.17282C309.276 8.90052 310.635 11.5242 311.231 15.0441L314.723 35.6666C315.319 39.1865 314.902 42.1325 313.472 44.5045C312.035 46.8351 309.785 48.2599 306.721 48.7787L297.589 50.3248ZM299.723 46.7046C299.751 46.8702 299.849 46.939 300.015 46.911L306.226 45.8593C308.248 45.4743 309.712 44.4383 310.619 42.7511C311.561 41.0156 311.808 38.8227 311.359 36.1724L307.899 15.7363C307.443 13.0446 306.484 11.0343 305.024 9.70552C303.605 8.36962 301.861 7.87702 299.791 8.22752L293.641 9.26872C293.476 9.29682 293.406 9.39362 293.434 9.55932L299.723 46.7046Z"/>
<path d="M354.602 0.881818C354.72 0.584218 354.946 0.430319 355.282 0.420219L357.423 0.356019C357.843 0.343419 358.059 0.547019 358.072 0.966819L359.356 43.7876C359.369 44.2074 359.165 44.4236 358.745 44.4362L356.667 44.4985C356.248 44.5111 356.031 44.3075 356.019 43.8877L354.948 8.18282C354.944 8.05682 354.9 7.99512 354.816 7.99762C354.732 8.00012 354.67 8.04402 354.631 8.12922L348.165 23.7021C348.049 24.0418 347.844 24.216 347.55 24.2248C347.214 24.2349 346.979 24.0949 346.844 23.8048L339.395 8.71232C339.309 8.63092 339.224 8.59142 339.14 8.59402C339.098 8.59522 339.079 8.65882 339.082 8.78482L340.15 44.3638C340.162 44.7836 339.959 44.9998 339.539 45.0124L337.461 45.0747C337.041 45.0873 336.825 44.8837 336.812 44.4639L335.528 1.64312C335.515 1.22332 335.719 1.00712 336.139 0.994518L338.28 0.930318C338.615 0.920218 338.851 1.06022 338.985 1.35032L347.163 17.6184C347.207 17.7011 347.272 17.7412 347.356 17.7387C347.44 17.7362 347.501 17.6923 347.541 17.6071L354.602 0.881818Z"/>
<path d="M389.994 4.22428C389.967 4.64348 389.745 4.83998 389.326 4.81388L374.424 3.88408C374.256 3.87368 374.167 3.95228 374.156 4.11998L373.093 21.1598C373.083 21.3275 373.161 21.4166 373.329 21.427L382.886 22.0233C383.306 22.0495 383.502 22.2721 383.476 22.6913L383.37 24.389C383.344 24.8082 383.121 25.0047 382.702 24.9786L373.145 24.3823C372.977 24.3718 372.888 24.4504 372.877 24.6181L371.81 41.7209C371.8 41.8885 371.879 41.9776 372.046 41.9881L386.948 42.9178C387.368 42.9439 387.564 43.1666 387.538 43.5858L387.432 45.2835C387.406 45.7027 387.183 45.8992 386.764 45.873L368.907 44.7589C368.487 44.7328 368.291 44.5101 368.317 44.0909L370.985 1.33408C371.011 0.914884 371.233 0.718383 371.653 0.744483L389.51 1.85858C389.929 1.88478 390.126 2.10738 390.1 2.52658L389.994 4.22428Z"/>
<path d="M401.922 48.3281C398.97 47.9106 396.72 46.5744 395.172 44.3195C393.631 42.023 393.09 39.2529 393.549 36.0092L393.734 34.6992C393.793 34.2833 394.03 34.1048 394.446 34.1636L396.441 34.4459C396.857 34.5047 397.036 34.742 396.977 35.1579L396.809 36.3431C396.462 38.7967 396.786 40.8573 397.78 42.525C398.816 44.1985 400.311 45.1735 402.266 45.4499C404.22 45.7263 405.946 45.2279 407.441 43.9547C408.936 42.6814 409.848 40.8804 410.178 38.5516C410.395 37.0129 410.27 35.638 409.805 34.427C409.382 33.2218 408.748 32.1565 407.903 31.2312C407.106 30.27 405.762 28.8286 403.87 26.9068C401.937 24.9791 400.462 23.4131 399.444 22.2088C398.474 20.9688 397.718 19.5681 397.175 18.0067C396.638 16.4038 396.515 14.5834 396.803 12.5457C397.256 9.34358 398.506 6.95398 400.553 5.37708C402.6 3.80018 405.036 3.21168 407.864 3.61158C410.9 4.04088 413.189 5.40378 414.73 7.70028C416.272 9.99678 416.808 12.8084 416.338 16.1353L416.116 17.6948C416.058 18.1107 415.82 18.2892 415.404 18.2304L413.346 17.9393C412.93 17.8805 412.752 17.6432 412.81 17.2273L413.032 15.6678C413.379 13.2142 413.033 11.1507 411.998 9.47708C411.009 7.76788 409.497 6.76918 407.459 6.48098C405.63 6.22228 404.017 6.67298 402.622 7.83318C401.234 8.95178 400.372 10.6964 400.037 13.0668C399.837 14.4807 399.913 15.7428 400.265 16.853C400.659 17.9691 401.269 19.0523 402.096 20.1024C402.965 21.1585 404.291 22.5762 406.076 24.3556C408.271 26.5323 409.892 28.2674 410.939 29.5608C411.986 30.8541 412.728 32.2103 413.163 33.6293C413.64 35.0541 413.747 36.7023 413.482 38.5736C413 41.9837 411.679 44.5753 409.519 46.3484C407.407 48.0858 404.875 48.7457 401.922 48.3281Z"/>
<path d="M426.356 52.9289C423.449 52.2637 421.32 50.7424 419.968 48.3649C418.626 45.9465 418.32 43.1406 419.051 39.9472L419.346 38.6575C419.44 38.2481 419.691 38.0902 420.1 38.1839L422.066 38.6336C422.475 38.7273 422.633 38.9789 422.539 39.3883L422.272 40.5551C421.719 42.9707 421.868 45.0513 422.718 46.7969C423.609 48.5519 425.017 49.6495 426.941 50.0899C428.865 50.5303 430.626 50.1792 432.223 49.0367C433.82 47.8942 434.881 46.1766 435.406 43.8838C435.752 42.369 435.745 40.9886 435.384 39.7426C435.064 38.506 434.522 37.391 433.758 36.3977C433.045 35.3727 431.827 33.8229 430.104 31.7484C428.341 29.6644 427.003 27.9795 426.091 26.6937C425.229 25.3762 424.593 23.9167 424.184 22.3151C423.785 20.6725 423.814 18.8482 424.274 16.842C424.995 13.6895 426.442 11.414 428.615 10.0155C430.788 8.61691 433.266 8.23621 436.05 8.87331C439.039 9.55731 441.204 11.1085 442.547 13.5268C443.889 15.9452 444.185 18.7921 443.436 22.0674L443.084 23.6027C442.991 24.0122 442.739 24.17 442.33 24.0763L440.303 23.6125C439.894 23.5188 439.736 23.2673 439.83 22.8579L440.181 21.3226C440.734 18.907 440.565 16.8217 439.674 15.0668C438.833 13.2802 437.41 12.1574 435.404 11.6983C433.602 11.286 431.958 11.5991 430.471 12.6375C428.993 13.635 427.987 15.3006 427.453 17.6343C427.134 19.0263 427.104 20.2903 427.361 21.4262C427.659 22.5716 428.176 23.7024 428.911 24.8186C429.688 25.9442 430.89 27.4688 432.518 29.3924C434.521 31.7466 435.99 33.6123 436.924 34.9894C437.858 36.3666 438.483 37.7805 438.797 39.2311C439.152 40.6912 439.119 42.3424 438.697 44.1848C437.929 47.542 436.394 50.0128 434.093 51.5973C431.842 53.1503 429.263 53.5942 426.356 52.9289Z"/>
<path d="M458.45 61.4573C458.089 61.3443 457.925 61.0949 457.958 60.7091L458.801 52.3249C458.826 52.2448 458.805 52.1721 458.737 52.1069C458.71 52.0543 458.656 52.0154 458.576 51.9903L446.792 48.2998C446.712 48.2747 446.626 48.2696 446.533 48.2846C446.48 48.3121 446.441 48.366 446.416 48.4461L442.326 55.8135C442.173 56.1617 441.896 56.273 441.496 56.1475L439.512 55.5261C439.311 55.4634 439.17 55.353 439.087 55.1951C439.045 55.0498 439.075 54.8832 439.178 54.6953L461.12 16.6755C461.313 16.3398 461.59 16.2285 461.95 16.3415L464.355 17.0947C464.756 17.2202 464.92 17.4696 464.847 17.8429L461.242 61.6056L461.204 61.7258C461.091 62.0866 460.854 62.2104 460.494 62.0975L458.45 61.4573ZM448.057 45.527C448.006 45.6873 448.041 45.7863 448.162 45.824L458.803 49.1567C458.923 49.1944 459.008 49.133 459.059 48.9727L461.673 21.866C461.67 21.7332 461.649 21.6605 461.609 21.648C461.569 21.6354 461.51 21.683 461.432 21.7907L448.057 45.527Z"/>
<path d="M473.269 67.6674C470.426 66.5194 468.474 64.7347 467.414 62.3135C466.408 59.869 466.479 57.2253 467.627 54.3823L476.874 31.483C478.022 28.64 479.799 26.7078 482.204 25.6862C484.665 24.6414 487.316 24.693 490.159 25.8411C493.002 26.9891 494.946 28.7932 495.991 31.2534C497.051 33.6747 497.008 36.3068 495.86 39.1497L494.822 41.7201C494.664 42.1095 494.391 42.2256 494.001 42.0683L492.074 41.2899C491.684 41.1326 491.568 40.8593 491.725 40.4698L492.787 37.8411C493.605 35.8159 493.673 33.9638 492.992 32.2848C492.312 30.6057 490.998 29.373 489.05 28.5867C487.103 27.8003 485.302 27.7749 483.646 28.5104C481.99 29.2458 480.753 30.6261 479.935 32.6512L470.641 55.6674C469.823 57.6925 469.755 59.5446 470.435 61.2237C471.116 62.9028 472.43 64.1355 474.377 64.9218C476.325 65.7082 478.126 65.7336 479.782 64.9981C481.438 64.2626 482.675 62.8823 483.493 60.8572L486.819 52.6205C486.882 52.4647 486.835 52.3554 486.679 52.2925L481.188 50.075C480.799 49.9177 480.683 49.6444 480.84 49.2549L481.477 47.6777C481.634 47.2882 481.908 47.1721 482.297 47.3294L490.534 50.6556C490.923 50.8129 491.039 51.0862 490.882 51.4757L486.612 62.0491C485.464 64.892 483.66 66.8359 481.2 67.8807C478.755 68.8866 476.112 68.8155 473.269 67.6674Z"/>
<path d="M526.112 45.7866C525.922 46.1613 525.64 46.2537 525.265 46.0639L511.946 39.3156C511.796 39.2396 511.683 39.2766 511.607 39.4264L503.891 54.6562C503.815 54.806 503.852 54.9189 504.002 54.9948L512.544 59.3229C512.919 59.5127 513.011 59.795 512.821 60.1696L512.052 61.687C511.863 62.0616 511.58 62.154 511.206 61.9642L502.664 57.6362C502.514 57.5602 502.401 57.5972 502.325 57.7471L494.58 73.0325C494.504 73.1825 494.541 73.2955 494.691 73.3715L508.01 80.1195C508.384 80.3095 508.477 80.5925 508.287 80.9665L507.518 82.4845C507.328 82.8585 507.046 82.9515 506.672 82.7615L490.711 74.6745C490.337 74.4845 490.244 74.2025 490.434 73.8275L509.796 35.6132C509.986 35.2385 510.268 35.1461 510.643 35.336L526.603 43.4226C526.978 43.6124 527.07 43.8946 526.881 44.2693L526.112 45.7866Z"/>
<path d="M168.18 85.9293C168.847 86.0623 169.539 85.9773 170.154 85.6863C170.769 85.3953 171.274 84.9143 171.594 84.3153C171.915 83.7153 172.034 83.0283 171.935 82.3553C171.835 81.6823 171.521 81.0593 171.04 80.5783C170.56 80.0983 169.937 79.7843 169.264 79.6843C168.591 79.5853 167.904 79.7043 167.304 80.0243C166.705 80.3453 166.224 80.8503 165.933 81.4653C165.642 82.0803 165.557 82.7723 165.69 83.4393C165.811 84.0543 166.113 84.6203 166.556 85.0633C166.999 85.5063 167.565 85.8083 168.18 85.9293Z"/>
<path d="M32.5797 451C33.2487 451.135 33.9434 451.051 34.5611 450.761C35.1789 450.471 35.6869 449.99 36.0101 449.389C36.3333 448.788 36.4546 448.099 36.3559 447.423C36.2573 446.748 35.944 446.122 35.4624 445.639C34.9808 445.155 34.3564 444.84 33.6815 444.738C33.0066 444.637 32.317 444.755 31.7146 445.076C31.1122 445.397 30.629 445.903 30.3364 446.52C30.0438 447.136 29.9573 447.83 30.0897 448.5C30.2116 449.116 30.5131 449.682 30.9562 450.127C31.3993 450.572 31.9642 450.876 32.5797 451Z"/>
<path d="M561.799 97.4391C562.466 97.5721 563.158 97.4871 563.773 97.1961C564.388 96.9051 564.893 96.4241 565.214 95.8251C565.534 95.2251 565.654 94.5381 565.554 93.8651C565.454 93.1921 565.141 92.5691 564.66 92.0881C564.179 91.6081 563.556 91.2941 562.883 91.1941C562.21 91.0951 561.523 91.2141 560.924 91.5341C560.324 91.8551 559.843 92.3601 559.552 92.9751C559.262 93.5901 559.176 94.2821 559.309 94.9491C559.433 95.5631 559.735 96.1271 560.178 96.5701C560.621 97.0131 561.185 97.3151 561.799 97.4391Z"/>
<path d="M668.179 475.139C668.849 475.274 669.544 475.189 670.162 474.899C670.779 474.608 671.287 474.126 671.61 473.524C671.932 472.922 672.053 472.232 671.953 471.557C671.853 470.881 671.538 470.256 671.056 469.773C670.573 469.29 669.947 468.975 669.272 468.876C668.596 468.776 667.907 468.896 667.305 469.219C666.703 469.541 666.221 470.049 665.93 470.667C665.639 471.285 665.555 471.98 665.689 472.649C665.812 473.264 666.114 473.828 666.557 474.272C667 474.715 667.565 475.017 668.179 475.139Z"/>
<path d="M343.311 693.291C343.978 693.424 344.67 693.339 345.285 693.048C345.9 692.757 346.405 692.276 346.725 691.677C347.046 691.077 347.165 690.39 347.065 689.717C346.966 689.044 346.652 688.421 346.171 687.941C345.69 687.46 345.068 687.146 344.395 687.046C343.722 686.947 343.035 687.066 342.435 687.386C341.835 687.707 341.355 688.212 341.064 688.827C340.773 689.442 340.688 690.134 340.821 690.801C340.944 691.415 341.247 691.979 341.69 692.422C342.133 692.865 342.697 693.167 343.311 693.291Z"/>
</svg>
