<svg width="155" height="42" viewBox="0 0 155 42" fill="none" xmlns="http://www.w3.org/2000/svg">
<g clip-path="url(#clip0_14_175)">
<path d="M28.83 16.64V25L21.62 20.85L28.83 16.64Z" />
<path d="M28.83 16.64L21.62 20.81V12.49L28.83 16.64Z" />
<path d="M28.83 25L21.62 29.17V20.81L28.83 25Z" />
<path d="M21.62 29.13V37.47L14.41 33.3L21.62 29.13Z" />
<path d="M21.62 12.49V20.81L14.41 16.64L21.62 12.49Z" />
<path d="M21.62 4.14999V12.49L14.41 8.31999L21.62 4.14999Z" />
<path d="M21.62 4.15L14.41 8.32V0L21.62 4.15Z" />
<path d="M21.62 37.47L14.41 41.62V33.3L21.62 37.47Z" />
<path d="M14.41 33.3V41.62L7.20001 37.47L14.41 33.3Z" />
<path d="M14.41 0V8.32L7.20001 4.15L14.41 0Z" />
<path d="M14.41 8.31999L7.20001 12.49V4.14999L14.41 8.31999Z" />
<path d="M14.41 25L7.20001 29.13V20.81L14.41 25Z" />
<path d="M14.41 33.3L7.20001 37.47V29.13L14.41 33.3Z" />
<path d="M7.19 20.81V29.13L0 25L7.19 20.81Z" />
<path d="M7.19 12.49V20.81L0 16.64L7.19 12.49Z" />
<path d="M7.19 20.81L0 25V16.64L7.19 20.81Z" />
<path d="M44.92 29.2C43.7554 29.2294 42.6015 28.9719 41.56 28.45C40.6278 27.9504 39.821 27.2461 39.2 26.39L40.64 25.17C41.1492 25.8697 41.7957 26.4584 42.54 26.9C43.287 27.3087 44.1288 27.5123 44.98 27.49C45.9396 27.5581 46.8895 27.2617 47.64 26.66C47.9487 26.3795 48.1914 26.0339 48.3505 25.6483C48.5096 25.2627 48.5811 24.8466 48.56 24.43C48.5774 24.099 48.5239 23.7681 48.4032 23.4594C48.2825 23.1508 48.0973 22.8714 47.86 22.64C47.1815 22.1324 46.394 21.79 45.56 21.64L44.24 21.34C42.9966 21.1123 41.8267 20.5874 40.83 19.81C40.4321 19.4415 40.1208 18.9894 39.9185 18.4863C39.7162 17.9831 39.6279 17.4414 39.66 16.9C39.6455 16.2432 39.7859 15.5923 40.07 15C40.3276 14.4627 40.7037 13.9909 41.17 13.62C41.6823 13.2329 42.2622 12.9447 42.88 12.77C43.5856 12.5683 44.3162 12.4673 45.05 12.47C46.1391 12.4437 47.2188 12.6768 48.2 13.15C49.0932 13.6202 49.8533 14.308 50.41 15.15L48.94 16.21C48.5111 15.6126 47.9586 15.1147 47.32 14.75C46.6092 14.3629 45.8091 14.1698 45 14.19C44.1334 14.1383 43.2734 14.3699 42.55 14.85C42.2498 15.0855 42.0118 15.3909 41.8567 15.7395C41.7016 16.0881 41.6341 16.4693 41.66 16.85C41.6399 17.18 41.6973 17.5101 41.8275 17.8139C41.9577 18.1178 42.1572 18.387 42.41 18.6C43.0902 19.0711 43.8648 19.3884 44.68 19.53L46 19.83C47.2813 20.029 48.4786 20.5912 49.45 21.45C49.8088 21.8378 50.0872 22.2929 50.2691 22.7889C50.4511 23.285 50.5329 23.8121 50.51 24.34C50.5204 25.0255 50.3911 25.706 50.13 26.34C49.8785 26.9344 49.4916 27.4618 49 27.88C48.4881 28.3199 47.8978 28.6592 47.26 28.88C46.5004 29.1032 45.7116 29.211 44.92 29.2Z" />
<path d="M53.65 17H55.5V18.91H55.58C55.8416 18.2266 56.3191 17.6472 56.94 17.26C57.5915 16.881 58.3368 16.6939 59.09 16.72C59.7825 16.713 60.4672 16.8671 61.09 17.17C61.6942 17.4648 62.2215 17.8961 62.63 18.43C63.0857 19.0281 63.425 19.7066 63.63 20.43C63.8756 21.2646 64.0002 22.1301 64 23C64.0128 23.8785 63.8983 24.7543 63.66 25.6C63.4438 26.3191 63.1055 26.9956 62.66 27.6C62.2428 28.1228 61.7175 28.5492 61.12 28.85C60.498 29.155 59.8128 29.3092 59.12 29.3C58.3672 29.3293 57.6238 29.1237 56.9931 28.7116C56.3624 28.2994 55.8755 27.7013 55.6 27H55.52V32.5L53.67 33.56V17H53.65ZM58.58 27.6C59.0425 27.6215 59.5042 27.5433 59.9338 27.3708C60.3634 27.1983 60.7509 26.9354 61.07 26.6C61.7003 25.8837 62.033 24.9536 62 24V22C62.0433 21.0502 61.7213 20.1198 61.1 19.4C60.7834 19.0614 60.3963 18.7963 59.966 18.6235C59.5358 18.4508 59.0729 18.3745 58.61 18.4C58.2076 18.4046 57.8076 18.4617 57.42 18.57C57.0635 18.6716 56.7258 18.8303 56.42 19.04C56.155 19.2345 55.9308 19.4791 55.76 19.76C55.6025 20.0406 55.5231 20.3583 55.53 20.68V25.15C55.5318 25.4962 55.6103 25.8378 55.76 26.15C55.9294 26.446 56.1534 26.7073 56.42 26.92C56.7192 27.1387 57.0593 27.2951 57.42 27.38C57.7926 27.5097 58.1857 27.5707 58.58 27.56V27.6Z" />
<path d="M68 14.15C67.8421 14.1638 67.683 14.1443 67.5331 14.0926C67.3832 14.0409 67.2459 13.9582 67.13 13.85C66.9473 13.6471 66.8474 13.383 66.85 13.11V12.81C66.8401 12.6737 66.86 12.5369 66.9084 12.4091C66.9567 12.2813 67.0324 12.1656 67.13 12.07C67.2444 11.9596 67.3815 11.8755 67.5318 11.8237C67.6821 11.7718 67.8419 11.7535 68 11.77C68.1581 11.7542 68.3177 11.7728 68.4679 11.8246C68.6181 11.8764 68.7553 11.9601 68.87 12.07C69.0527 12.2729 69.1527 12.537 69.15 12.81V13.11C69.1561 13.2459 69.1345 13.3816 69.0863 13.5089C69.0382 13.6361 68.9646 13.7522 68.87 13.85C68.7528 13.9562 68.6153 14.0376 68.4658 14.0891C68.3162 14.1407 68.1578 14.1614 68 14.15V14.15ZM67.09 17H68.94V29H67.09V17Z" />
<path d="M72.88 28.92V17H74.73V19.19H74.84C75.0752 18.5701 75.4765 18.0269 76 17.62C76.6642 17.1326 77.4776 16.8921 78.3 16.94H79V18.79H77.93C77.1015 18.7463 76.2781 18.9443 75.56 19.36C75.307 19.5048 75.0958 19.7126 74.9469 19.9632C74.7979 20.2137 74.7163 20.4986 74.71 20.79V28.9H72.88V28.92Z" />
<path d="M90 28.92C89.7263 28.9462 89.4502 28.9103 89.1923 28.8151C88.9343 28.7199 88.7011 28.5677 88.51 28.37C88.1958 27.9745 87.9953 27.5009 87.93 27H87.82C87.6018 27.6924 87.1399 28.2822 86.52 28.66C85.7202 29.0902 84.8129 29.2795 83.9079 29.2049C83.0028 29.1304 82.1387 28.7952 81.42 28.24C81.0635 27.9019 80.7835 27.4913 80.5989 27.036C80.4144 26.5806 80.3295 26.0909 80.35 25.6C80.3209 25.0983 80.4182 24.5973 80.6331 24.143C80.848 23.6887 81.1736 23.2957 81.58 23C82.7483 22.3228 84.0932 22.0127 85.44 22.11H87.8V20.9C87.8284 20.5363 87.7809 20.1707 87.6604 19.8264C87.5399 19.4821 87.349 19.1666 87.1 18.9C86.5125 18.4168 85.7572 18.1866 85 18.26C84.3612 18.2383 83.7307 18.409 83.19 18.75C82.6989 19.0863 82.2917 19.5311 82 20.05L80.84 19C81.1982 18.3175 81.7336 17.744 82.39 17.34C83.2017 16.8659 84.1305 16.6302 85.07 16.66C86.2929 16.5894 87.4992 16.9701 88.46 17.73C88.8683 18.1008 89.1888 18.5581 89.3981 19.0684C89.6074 19.5787 89.7003 20.1293 89.67 20.68V27.26H91V28.9H90V28.92ZM84.66 27.62C85.0925 27.623 85.5233 27.5658 85.94 27.45C86.3005 27.3591 86.64 27.1995 86.94 26.98C87.2065 26.7953 87.4314 26.5569 87.6 26.28C87.7514 26.0223 87.8308 25.7288 87.83 25.43V23.43H85.37C84.568 23.3671 83.7643 23.5299 83.05 23.9C82.8263 24.044 82.6428 24.2426 82.5169 24.477C82.391 24.7114 82.3267 24.9739 82.33 25.24V25.73C82.3118 26.0013 82.3639 26.2727 82.4813 26.5179C82.5986 26.7632 82.7773 26.974 83 27.13C83.4781 27.4767 84.0603 27.6495 84.65 27.62H84.66Z" />
<path d="M95.65 28.92C95.3797 28.9403 95.1083 28.9017 94.8545 28.8067C94.6007 28.7117 94.3705 28.5627 94.18 28.37C93.8504 27.991 93.6755 27.502 93.69 27V13L95.55 11.81V27.28H97.31V28.92H95.65Z" />
<path d="M104.72 29.2C103.608 29.2461 102.502 29.0132 101.503 28.5223C100.504 28.0315 99.6432 27.2985 99 26.39L100.45 25.17C100.953 25.8716 101.597 26.4607 102.34 26.9C103.091 27.3087 103.936 27.5122 104.79 27.49C105.749 27.5561 106.699 27.26 107.45 26.66C107.756 26.3781 107.997 26.0321 108.154 25.6466C108.311 25.2612 108.382 24.8458 108.36 24.43C108.38 24.0987 108.328 23.7671 108.207 23.458C108.086 23.1489 107.899 22.8698 107.66 22.64C106.983 22.1305 106.195 21.7878 105.36 21.64L104.05 21.34C102.807 21.1124 101.637 20.5874 100.64 19.81C100.24 19.4428 99.9279 18.991 99.7255 18.4875C99.5231 17.984 99.4358 17.4416 99.47 16.9C99.4555 16.2432 99.5959 15.5923 99.88 15C100.128 14.4565 100.505 13.9825 100.98 13.62C101.489 13.233 102.065 12.9447 102.68 12.77C103.386 12.5691 104.116 12.4681 104.85 12.47C105.939 12.4414 107.02 12.6746 108 13.15C108.897 13.6188 109.661 14.3068 110.22 15.15L108.75 16.21C108.321 15.6126 107.769 15.1147 107.13 14.75C106.405 14.3639 105.591 14.1775 104.77 14.21C103.903 14.1583 103.043 14.3899 102.32 14.87C102.02 15.1055 101.782 15.4109 101.627 15.7595C101.472 16.1081 101.404 16.4893 101.43 16.87C101.408 17.1992 101.463 17.5291 101.592 17.833C101.72 18.1369 101.918 18.4065 102.17 18.62C102.854 19.091 103.632 19.4083 104.45 19.55L105.77 19.85C107.05 20.0533 108.246 20.615 109.22 21.47C109.579 21.8578 109.857 22.3129 110.039 22.8089C110.221 23.305 110.303 23.8321 110.28 24.36C110.286 25.0451 110.156 25.7247 109.9 26.36C109.651 26.9505 109.271 27.4769 108.79 27.9C108.281 28.344 107.69 28.6838 107.05 28.9C106.293 29.1197 105.507 29.2209 104.72 29.2V29.2Z" />
<path d="M117.89 29.2C117.113 29.2104 116.343 29.057 115.63 28.75C114.993 28.4679 114.434 28.0356 114 27.49C113.533 26.8992 113.192 26.2183 113 25.49C112.755 24.6488 112.633 23.7763 112.64 22.9C112.633 22.0205 112.755 21.1447 113 20.3C113.205 19.5766 113.544 18.8981 114 18.3C114.461 17.764 115.034 17.3371 115.68 17.05C116.392 16.7391 117.163 16.5857 117.94 16.6C118.885 16.5316 119.826 16.7649 120.63 17.2663C121.433 17.7678 122.057 18.5114 122.41 19.39L120.85 20.18C120.664 19.5941 120.292 19.0849 119.79 18.73C119.241 18.3736 118.595 18.1954 117.94 18.22C117.437 18.2062 116.936 18.2982 116.47 18.49C116.08 18.6543 115.737 18.9118 115.47 19.24C115.184 19.5673 114.972 19.9529 114.85 20.37C114.701 20.835 114.63 21.3217 114.64 21.81V23.81C114.594 24.7425 114.897 25.6586 115.49 26.38C115.799 26.7285 116.185 27.0003 116.617 27.1739C117.049 27.3475 117.516 27.418 117.98 27.38C118.666 27.405 119.344 27.2191 119.922 26.8472C120.499 26.4753 120.949 25.9353 121.21 25.3L122.55 26.19C122.193 27.0314 121.594 27.7482 120.83 28.25C119.998 28.9133 118.953 29.251 117.89 29.2V29.2Z" />
<path d="M129.49 29.2C128.733 29.2095 127.983 29.056 127.29 28.75C126.639 28.4577 126.059 28.0279 125.59 27.49C125.097 26.901 124.723 26.2217 124.49 25.49C124.212 24.662 124.073 23.7935 124.08 22.92C124.066 22.0427 124.204 21.1696 124.49 20.34C124.721 19.6072 125.095 18.9274 125.59 18.34C126.048 17.7903 126.631 17.3582 127.29 17.08C127.983 16.7758 128.733 16.6224 129.49 16.63C130.244 16.6204 130.991 16.7739 131.68 17.08C132.331 17.3723 132.911 17.8021 133.38 18.34C133.875 18.9293 134.252 19.6083 134.49 20.34C134.758 21.1737 134.893 22.0444 134.89 22.92C134.905 23.7933 134.77 24.6626 134.49 25.49C134.245 26.2185 133.868 26.8963 133.38 27.49C132.918 28.0353 132.336 28.4665 131.68 28.75C130.991 29.0561 130.244 29.2096 129.49 29.2V29.2ZM129.49 27.56C129.939 27.5778 130.387 27.5036 130.807 27.342C131.227 27.1803 131.609 26.9347 131.93 26.62C132.282 26.2422 132.553 25.796 132.725 25.3091C132.897 24.8222 132.967 24.3051 132.93 23.79V22.07C132.968 21.5548 132.898 21.0374 132.726 20.5503C132.554 20.0632 132.283 19.6171 131.93 19.24C131.259 18.635 130.388 18.3001 129.485 18.3001C128.582 18.3001 127.711 18.635 127.04 19.24C126.687 19.6171 126.416 20.0632 126.244 20.5503C126.072 21.0374 126.002 21.5548 126.04 22.07V23.79C126.003 24.3051 126.073 24.8222 126.245 25.3091C126.417 25.796 126.688 26.2422 127.04 26.62C127.364 26.934 127.748 27.1791 128.169 27.3407C128.59 27.5022 129.039 27.5768 129.49 27.56V27.56Z" />
<path d="M145.32 27H145.21C145.082 27.2816 144.931 27.5525 144.76 27.81C144.591 28.0869 144.366 28.3254 144.1 28.51C143.818 28.7339 143.496 28.9004 143.15 29C142.73 29.136 142.291 29.2003 141.85 29.19C141.303 29.2145 140.758 29.1208 140.25 28.9155C139.743 28.7101 139.286 28.3979 138.91 28C138.136 27.0578 137.75 25.8565 137.83 24.64V17H139.68V24.36C139.68 26.51 140.59 27.6 142.42 27.6C142.788 27.6005 143.155 27.55 143.51 27.45C143.845 27.3605 144.163 27.2151 144.45 27.02C144.731 26.828 144.959 26.5674 145.111 26.2629C145.263 25.9584 145.335 25.6201 145.32 25.28V16.98H147.17V28.98H145.32V27Z" />
<path d="M152.49 28.92C152.22 28.9383 151.949 28.8988 151.696 28.8039C151.442 28.709 151.212 28.5611 151.02 28.37C150.683 27.9717 150.508 27.4613 150.53 26.94V14.75L152.38 13.64V17H155V18.6H152.38V27.26H154.81V28.9H152.49V28.92Z" />
</g>
<defs>
<clipPath id="clip0_14_175">
<rect width="155" height="41.62" fill="white"/>
</clipPath>
</defs>
</svg>
