<svg width="85" height="34" viewBox="0 0 85 34" fill="none" xmlns="http://www.w3.org/2000/svg">
<g clip-path="url(#clip0_102_73)">
<path d="M0.00113675 0.00580549C4.71638 0.00429042 9.43235 0.00429042 14.1476 0.00580549C14.1484 0.84818 14.1484 1.6898 14.1469 2.53217C12.2288 2.53368 10.3107 2.53218 8.39186 2.53293C8.38432 10.2946 8.40248 18.057 8.38282 25.8187C7.50597 25.8066 6.62992 25.827 5.7531 25.8073C5.76371 18.0495 5.75462 10.2916 5.75764 2.53445C3.83881 2.53066 1.91997 2.53445 0.00113675 2.53217C-0.000378917 1.6898 -0.000378917 0.84818 0.00113675 0.00580549Z" />
<path d="M56.4992 0.00681751C56.7068 0.00530245 56.9145 0.00378766 57.1236 0C60.2535 6.67083 63.3553 13.3545 66.4745 20.0306C67.371 21.9594 68.2789 23.8827 69.1679 25.8144C68.2395 25.816 67.3112 25.8167 66.3836 25.8136C65.0317 22.9835 63.6782 20.1541 62.3254 17.3247C58.6173 17.3247 54.9092 17.3225 51.2019 17.3255C49.8666 20.1541 48.5192 22.9767 47.1907 25.8083C46.2275 25.8242 45.2643 25.8114 44.3019 25.8152C48.3669 17.2119 52.4319 8.60855 56.4992 0.00681751ZM55.5497 8.14498C54.497 10.3736 53.4353 12.597 52.3887 14.8286C55.3268 14.8295 58.2642 14.8286 61.2023 14.8286C59.745 11.7228 58.2794 8.62074 56.816 5.51786C56.3589 6.37539 55.9778 7.27231 55.5497 8.14498Z" />
<path d="M75.7384 0.306071C77.5049 -0.258291 79.5109 -0.0234557 81.094 0.945431C82.3407 1.7219 83.2942 2.87107 84.1666 4.03237C83.4982 4.54674 82.8333 5.06564 82.1466 5.55576C81.4782 4.6793 80.7749 3.79299 79.8496 3.1756C78.8947 2.56881 77.686 2.39761 76.5955 2.6832C75.7361 2.90668 74.9851 3.51346 74.5842 4.30508C74.1969 5.08004 74.1969 6.00498 74.4531 6.82008C74.838 7.99577 75.7671 8.89273 76.7349 9.6161C78.6431 11.1115 80.7068 12.4379 82.3634 14.2273C83.2254 15.1423 83.927 16.2256 84.3051 17.4301C84.7032 18.6822 84.6725 20.0617 84.2454 21.3026C83.8175 22.5366 82.975 23.5957 81.9587 24.4001C81.0637 25.1084 79.986 25.5803 78.8592 25.7569C77.1161 26.0364 75.2648 25.7311 73.7559 24.7978C72.2258 23.8691 71.1528 22.373 70.2774 20.8458C70.2501 20.77 70.1236 20.6443 70.2607 20.5996C70.9246 20.1936 71.5968 19.7989 72.263 19.3967C72.8093 20.3761 73.4338 21.3298 74.2553 22.1033C74.8828 22.6964 75.6437 23.1745 76.4947 23.363C77.8391 23.6501 79.2926 23.2805 80.3763 22.445C81.4684 21.6048 82.0731 20.1678 81.889 18.7997C81.7677 17.8384 81.2433 16.9847 80.6226 16.2619C79.0425 14.4136 76.9956 13.0674 75.1253 11.5426C74.1788 10.7517 73.1913 9.94947 72.5774 8.85707C71.4491 6.99356 71.4278 4.48916 72.6221 2.65063C73.3315 1.52342 74.4781 0.710593 75.7384 0.306071Z" />
<path d="M39.1872 31.5701C39.3994 30.8807 40.0874 30.3883 40.8059 30.3815C41.3993 30.3391 41.9957 30.5989 42.361 31.0709C42.2738 31.1383 42.1867 31.2057 42.1011 31.2746C41.5781 30.5989 40.4808 30.5103 39.8745 31.1194C39.3676 31.6019 39.3205 32.4799 39.7654 33.0192C40.1769 33.5457 40.9612 33.6828 41.5577 33.4131C41.7684 33.3193 41.9366 33.1564 42.1056 33.0033C42.1897 33.0768 42.2738 33.1511 42.358 33.2276C41.6562 34.0382 40.2239 34.1048 39.5191 33.2693C39.1228 32.8102 39.0189 32.1435 39.1872 31.5701Z" />
<path d="M51.7028 31.4997C51.9407 30.843 52.6107 30.3847 53.3079 30.3816C53.8975 30.3415 54.4878 30.6021 54.8516 31.0679C54.766 31.1369 54.6796 31.2059 54.5947 31.2763C54.0725 30.5998 52.9768 30.5104 52.369 31.1172C51.8711 31.5899 51.8135 32.4421 52.2302 32.9845C52.6365 33.5391 53.4481 33.6921 54.0582 33.4095C54.2635 33.3163 54.4272 33.158 54.5924 33.0088C54.6773 33.0724 54.7629 33.1375 54.8501 33.2027C54.1809 34.0512 52.7175 34.1019 52.015 33.2724C51.6005 32.7944 51.5012 32.0907 51.7028 31.4997Z" />
<path d="M66.993 31.4899C66.774 31.0497 67.0658 30.4649 67.5568 30.3967C67.9903 30.2907 68.3669 30.5899 68.6064 30.9179C68.5155 30.9861 68.4268 31.0558 68.3381 31.1255C68.1805 30.9626 68.029 30.7467 67.7827 30.7278C67.5311 30.6824 67.2552 30.88 67.2673 31.1459C67.2689 31.4626 67.5652 31.6475 67.7902 31.8194C68.1548 32.0921 68.5921 32.3959 68.6512 32.8867C68.7216 33.4427 68.1669 33.9313 67.6258 33.8587C67.2052 33.842 66.9066 33.5064 66.7065 33.1716C66.7974 33.1109 66.8877 33.0504 66.9801 32.9913C67.1476 33.2284 67.3363 33.5253 67.6614 33.5374C68.0418 33.5731 68.4124 33.1791 68.2632 32.8026C67.9971 32.2269 67.284 32.0443 66.993 31.4899Z" />
<path d="M80.1671 30.4239C80.7355 30.2967 81.3722 30.4399 81.7935 30.8527C82.1671 31.1928 82.3611 31.7057 82.3286 32.2072C82.3179 32.7655 81.9997 33.2927 81.5343 33.5927C81.1259 33.8624 80.6022 33.9215 80.1323 33.8086C79.3881 33.6291 78.8099 32.9034 78.8357 32.1321C78.8183 31.3458 79.3927 30.5899 80.1671 30.4239ZM80.3172 30.7284C79.8004 30.8292 79.3532 31.2368 79.2282 31.7512C79.088 32.2678 79.2479 32.8625 79.6685 33.2049C80.1854 33.6699 81.0463 33.6382 81.5465 33.1632C81.9512 32.7942 82.0814 32.1821 81.9177 31.6671C81.717 31.0133 80.9849 30.5914 80.3172 30.7284Z" />
<path d="M2.24353 30.4656C2.85359 30.4596 3.46365 30.4634 4.0737 30.4634C4.07295 30.571 4.07295 30.6793 4.07295 30.7884C3.82665 30.7884 3.58035 30.7891 3.33481 30.7899C3.32875 31.7883 3.34618 32.7875 3.32648 33.786C3.21583 33.7829 3.10595 33.7799 2.9953 33.7783C2.99 32.7815 2.99909 31.7838 2.99076 30.7869C2.75886 30.7877 2.5262 30.8027 2.29431 30.7793C2.22004 30.7051 2.26854 30.5634 2.24353 30.4656Z" />
<path d="M4.56026 30.4626C4.67091 30.4618 4.78155 30.4626 4.8922 30.4633C4.89371 30.9254 4.8922 31.3883 4.89371 31.8511C5.45526 31.8526 6.01682 31.8526 6.57837 31.8511C6.58064 31.389 6.57989 30.9262 6.57837 30.4641C6.68902 30.4633 6.80042 30.4633 6.91182 30.4641C6.90879 31.5693 6.91182 32.6746 6.9103 33.779C6.79966 33.7783 6.68978 33.7775 6.57989 33.7783C6.57914 33.245 6.58064 32.7124 6.57837 32.1791C6.01682 32.1783 5.45526 32.1776 4.89295 32.1799C4.8922 32.7124 4.89522 33.2457 4.89143 33.779C4.78079 33.7783 4.67091 33.7783 4.56102 33.7798C4.55798 32.6738 4.5595 31.5678 4.56026 30.4626Z" />
<path d="M7.76211 30.4634C8.39493 30.4618 9.02841 30.4618 9.66197 30.4634C9.66197 30.571 9.66197 30.6793 9.66197 30.7883C9.13912 30.7899 8.61618 30.7876 8.09328 30.7899C8.09176 31.1345 8.09252 31.4792 8.09176 31.8239C8.61087 31.8285 9.12999 31.8239 9.64912 31.8277C9.64837 31.9345 9.64837 32.0428 9.64837 32.1511C9.12999 32.1542 8.61162 32.1511 8.09328 32.1535C8.09176 32.586 8.091 33.0193 8.09403 33.4526C8.61311 33.4533 9.13223 33.4496 9.65136 33.4548C9.64912 33.5625 9.64762 33.6708 9.64688 33.7791C9.01862 33.7783 8.39037 33.7798 7.76211 33.7783C7.76059 32.6731 7.76134 31.5686 7.76211 30.4634Z" />
<path d="M32.8365 33.7792C33.3708 32.6588 33.8817 31.5255 34.4386 30.4165C35.0086 31.5172 35.4966 32.6603 36.0316 33.7799C35.9104 33.7784 35.7907 33.7784 35.6709 33.7784C35.4966 33.4155 35.3238 33.0527 35.151 32.6898C34.6744 32.6868 34.1985 32.6868 33.7225 32.6898C33.552 33.0527 33.38 33.4155 33.2079 33.7784C33.0837 33.7777 32.9601 33.7784 32.8365 33.7792ZM33.8794 32.3641C34.2538 32.3672 34.6281 32.3672 35.0025 32.3641C34.8183 31.9694 34.6356 31.5732 34.4424 31.1824C34.2477 31.5732 34.0643 31.9694 33.8794 32.3641Z" />
<path d="M36.5455 30.4633C37.0517 30.4815 37.5746 30.4088 38.0694 30.5429C38.6561 30.7194 38.8053 31.5625 38.3749 31.9701C38.1415 32.2065 37.7921 32.2193 37.4822 32.2503C37.8808 32.7572 38.2749 33.2678 38.6674 33.7791C38.5287 33.7776 38.3923 33.7783 38.2551 33.7783C37.8565 33.2662 37.4632 32.7503 37.0616 32.2405C37.0176 32.2382 36.929 32.2337 36.885 32.2314C36.8706 32.7473 36.8827 33.2632 36.8766 33.7783C36.7667 33.7783 36.6569 33.7791 36.5477 33.7798C36.5417 32.6746 36.5455 31.5686 36.5455 30.4633ZM36.8797 30.7891C36.8774 31.1633 36.8774 31.5375 36.8789 31.9125C37.2359 31.9072 37.6072 31.9603 37.9535 31.8489C38.3642 31.6966 38.3832 31.036 37.98 30.8633C37.6284 30.7398 37.2442 30.8035 36.8797 30.7891Z" />
<path d="M42.9704 30.4619C43.081 30.4619 43.1917 30.4619 43.3039 30.4633C43.3039 30.9255 43.3024 31.3883 43.3046 31.8511C43.8654 31.8527 44.4278 31.8527 44.9893 31.8511C44.9908 31.3883 44.9893 30.9255 44.9893 30.4626C45.1007 30.4626 45.2128 30.4641 45.325 30.4664C45.3212 31.5701 45.3243 32.6738 45.3235 33.7776C45.2121 33.7776 45.1007 33.7783 44.9908 33.7798C44.9885 33.2465 44.9916 32.7132 44.9893 32.1799C44.4278 32.1777 43.8662 32.1777 43.3046 32.1792C43.3016 32.7125 43.3046 33.2458 43.3024 33.7791C43.1925 33.7791 43.0826 33.7798 42.9735 33.7813C42.9651 32.6753 42.9712 31.5686 42.9704 30.4619Z" />
<path d="M46.1418 30.4657C46.2525 30.4641 46.3638 30.4626 46.4768 30.4619C46.4768 31.5671 46.4768 32.6731 46.4768 33.7791C46.3646 33.7783 46.2532 33.7776 46.1433 33.7783C46.1426 32.6738 46.1448 31.5701 46.1418 30.4657Z" />
<path d="M46.9414 30.4634C47.5477 30.4618 48.154 30.4618 48.7602 30.4634C48.7595 30.571 48.7595 30.6793 48.7595 30.7883C48.5132 30.7883 48.2677 30.7891 48.0221 30.7891C48.0183 31.7853 48.0229 32.7822 48.0198 33.7791C47.9062 33.7783 47.794 33.7791 47.6819 33.7798C47.678 32.7829 47.6819 31.7868 47.6803 30.7899C47.4332 30.7891 47.1877 30.7883 46.9422 30.7883C46.9407 30.6793 46.9407 30.571 46.9414 30.4634Z" />
<path d="M49.2467 30.465C49.8818 30.4604 50.5169 30.4628 51.1519 30.4635C51.1505 30.5711 51.1505 30.6794 51.1505 30.7885C50.6283 30.7892 50.1069 30.7885 49.5847 30.7885C49.5802 31.1339 49.5802 31.4801 49.5825 31.8255C50.1009 31.8271 50.6191 31.8247 51.1375 31.8271C51.136 31.9346 51.136 32.0429 51.1368 32.1521C50.6207 32.1528 50.1046 32.1543 49.5885 32.1505C49.5748 32.5839 49.5825 33.0179 49.5825 33.4519C50.1016 33.4558 50.6207 33.4474 51.1406 33.4572C51.1375 33.5641 51.136 33.6709 51.1353 33.7792C50.5055 33.7784 49.8765 33.7807 49.2475 33.7777C49.2475 32.6732 49.249 31.5695 49.2467 30.465Z" />
<path d="M55.1761 30.4634C55.7839 30.4634 56.3916 30.4596 57.0001 30.4656C56.9941 30.5733 56.9895 30.6823 56.985 30.7914C56.7432 30.7891 56.5023 30.7884 56.2613 30.7869C56.2461 31.7845 56.2598 32.7822 56.2545 33.7799C56.14 33.7783 56.0271 33.7776 55.915 33.7783C55.9165 32.7844 55.9104 31.7906 55.918 30.7967C55.6702 30.7884 55.4231 30.7869 55.1768 30.7877C55.1753 30.6793 55.1753 30.571 55.1761 30.4634Z" />
<path d="M57.4875 30.461C57.5981 30.4625 57.7103 30.4648 57.8224 30.4671C57.8277 31.2708 57.8027 32.0761 57.8353 32.8791C57.8398 33.4556 58.6197 33.7343 59.0449 33.3988C59.2798 33.2336 59.3518 32.9336 59.3494 32.6616C59.3555 31.9291 59.3479 31.1958 59.3518 30.4626C59.4616 30.4626 59.5723 30.4626 59.6836 30.4626C59.6836 31.1428 59.686 31.8231 59.6836 32.5033C59.6753 32.8556 59.6549 33.2502 59.4003 33.523C58.9418 34.0532 57.9672 33.9487 57.6239 33.3419C57.486 33.0881 57.4958 32.7904 57.4875 32.5109C57.486 31.8276 57.4875 31.1443 57.4875 30.461Z" />
<path d="M60.5385 30.4649C60.9772 30.4664 61.4176 30.4444 61.8548 30.4929C62.1542 30.5248 62.4376 30.7157 62.5513 30.9997C62.6892 31.3482 62.6096 31.7997 62.2982 32.0315C62.067 32.2141 61.7601 32.2186 61.4812 32.2504C61.8722 32.7602 62.2701 33.2655 62.6596 33.7768C62.5256 33.7783 62.3929 33.7807 62.2603 33.7836C61.8533 33.2746 61.4584 32.7564 61.0606 32.2398C60.9962 32.2429 60.9325 32.2466 60.8704 32.2512C60.8757 32.761 60.8726 33.2701 60.8726 33.7798C60.7605 33.7783 60.6499 33.7776 60.5399 33.7783C60.5392 32.6738 60.5408 31.5694 60.5385 30.4649ZM60.8803 30.7868C60.8689 31.1618 60.8719 31.5376 60.875 31.9126C61.2364 31.9058 61.6153 31.9641 61.9647 31.8421C62.352 31.68 62.3725 31.0618 61.9973 30.874C61.6434 30.7338 61.2508 30.8066 60.8803 30.7868Z" />
<path d="M63.306 30.4634C63.9395 30.4618 64.5738 30.4618 65.2081 30.4634C65.2066 30.571 65.2059 30.6793 65.2066 30.7883C64.6845 30.7899 64.1623 30.7883 63.6402 30.7891C63.6387 31.1338 63.6387 31.4792 63.6387 31.8246C64.1563 31.8285 64.6747 31.8239 65.193 31.8277C65.193 31.9329 65.1945 32.039 65.1968 32.1458C64.6776 32.1595 64.1585 32.1489 63.6402 32.1526C63.6379 32.5837 63.6417 33.0147 63.6357 33.4458C64.154 33.4601 64.6732 33.4495 65.1915 33.4526C65.1915 33.5601 65.1915 33.6693 65.1938 33.7783C64.5648 33.7798 63.9358 33.7791 63.3068 33.7791C63.3037 32.6738 63.3052 31.5686 63.306 30.4634Z" />
<path d="M69.042 30.4633C69.6505 30.4648 70.2599 30.455 70.8691 30.4694C70.8616 30.5755 70.857 30.683 70.8525 30.7906C70.61 30.7891 70.3683 30.7883 70.1273 30.7876C70.1128 31.7845 70.1257 32.7821 70.1205 33.7798C70.006 33.7783 69.8923 33.7783 69.7809 33.7783C69.7756 32.7807 69.7908 31.783 69.7726 30.7853C69.5285 30.7891 69.2853 30.7891 69.042 30.7883C69.0405 30.6792 69.0405 30.5709 69.042 30.4633Z" />
<path d="M71.3535 30.4633C71.4635 30.4618 71.5741 30.4618 71.6862 30.4625C71.6886 31.1701 71.6855 31.8784 71.687 32.5859C71.6923 32.8079 71.6862 33.0526 71.8219 33.242C72.0925 33.5912 72.6813 33.657 72.9942 33.326C73.1898 33.1351 73.2163 32.8465 73.2171 32.5882C73.2178 31.8792 73.2148 31.1709 73.2178 30.4625C73.3278 30.4618 73.4384 30.4625 73.5498 30.4633C73.5498 31.1429 73.5521 31.8231 73.5505 32.5034C73.5422 32.854 73.5217 33.2465 73.2694 33.5192C72.8131 34.0533 71.8356 33.9503 71.4908 33.3427C71.3513 33.0874 71.3619 32.7875 71.3535 32.5056C71.3513 31.8246 71.3535 31.1436 71.3535 30.4633Z" />
<path d="M74.3962 30.4641C75.0373 30.483 75.7164 30.3868 76.3226 30.6466C77.4526 31.1641 77.4973 33.0404 76.3946 33.6093C75.7664 33.8836 75.0608 33.7449 74.397 33.779C74.3955 32.6738 74.397 31.5686 74.3962 30.4641ZM74.7183 30.7883C74.7175 31.6799 74.7175 32.5722 74.7183 33.4639C75.148 33.4571 75.5852 33.4858 76.0082 33.3889C76.4219 33.2867 76.7425 32.9215 76.819 32.5064C76.9327 31.9784 76.7811 31.3504 76.3105 31.0413C75.8383 30.7391 75.2511 30.8072 74.7183 30.7883Z" />
<path d="M77.8475 30.4634C77.9573 30.4627 78.068 30.4627 78.1793 30.4627C78.1802 31.5687 78.1816 32.6739 78.1793 33.7792C78.0672 33.7783 77.9573 33.7783 77.8475 33.7792C77.8459 32.6739 77.8467 31.5687 77.8475 30.4634Z" />
<path d="M25.8781 0.396995C28.7018 -0.241604 31.7088 -0.106763 34.453 0.825758C36.7894 1.61283 38.8522 3.05214 40.6309 4.73614C39.9951 5.33686 39.3661 5.94516 38.7219 6.53679C36.7902 4.60963 34.3151 3.20669 31.6331 2.6605C28.7867 2.06356 25.744 2.69686 23.3053 4.25813C21.3053 5.49594 19.7821 7.4534 19.0303 9.67756C18.1338 12.2766 18.4263 15.234 19.7503 17.6369C20.793 19.6209 22.5012 21.2261 24.5148 22.2026C25.9713 22.9268 27.5832 23.3245 29.2065 23.3956C30.8018 23.4714 32.4281 23.2684 33.9111 22.6586C35.8118 21.876 37.4669 20.4481 38.424 18.6194C38.8939 17.7263 39.1834 16.7461 39.3289 15.7499C36.7227 15.7491 34.1165 15.7499 31.5096 15.7499C31.5118 14.9597 31.5065 14.1704 31.5126 13.3811C35.035 13.3849 38.5582 13.3803 42.0806 13.3834C42.0707 15.9059 41.5349 18.4922 40.1421 20.6284C38.8735 22.5957 36.9516 24.1312 34.7493 24.9289C33.1048 25.5349 31.3398 25.7606 29.5938 25.7441C27.174 25.7304 24.7209 25.2372 22.5891 24.0608C20.396 22.8563 18.5892 20.9837 17.3942 18.7921C16.0846 16.3854 15.6867 13.5402 16.0975 10.8457C16.4582 8.50182 17.5109 6.27771 19.0516 4.47858C20.8113 2.43248 23.2537 1.00605 25.8781 0.396995Z" />
<path d="M11.7241 31.0087C12.4061 30.146 13.8536 30.1838 14.5584 30.999C14.4091 31.1481 14.2591 31.2959 14.109 31.4444C13.7983 31.1353 13.3587 30.9315 12.9147 31.0179C12.3319 31.0951 11.8787 31.689 11.9855 32.2739C12.0613 32.9798 12.876 33.4329 13.5301 33.1973C13.7831 33.1276 13.9445 32.9087 14.0749 32.6958C13.7528 32.6905 13.4307 32.6927 13.1087 32.692C13.1079 32.492 13.1079 32.2928 13.1087 32.0943C13.6702 32.0936 14.2325 32.0913 14.7941 32.0958C14.8062 32.5639 14.6569 33.042 14.3265 33.3828C13.7619 33.9912 12.7524 34.0041 12.0848 33.5631C11.2657 33.023 11.0747 31.7519 11.7241 31.0087Z" />
<path d="M16.1999 30.4626C16.4166 30.4618 16.6333 30.4618 16.8501 30.4626C17.2737 31.5702 17.7057 32.6738 18.1248 33.7837C17.9043 33.7837 17.6837 33.7837 17.4639 33.7844C17.376 33.5602 17.2904 33.3352 17.2101 33.1087C16.7599 33.095 16.309 33.1056 15.8589 33.1003C15.7657 33.3284 15.6747 33.5572 15.5815 33.7859C15.3617 33.7836 15.1427 33.7829 14.9237 33.7829C15.3435 32.6738 15.7778 31.5709 16.1999 30.4626ZM16.5265 31.3565C16.384 31.7307 16.2354 32.1026 16.093 32.4769C16.3817 32.4769 16.6712 32.4769 16.9615 32.4769C16.8228 32.1011 16.6758 31.7285 16.5265 31.3565Z" />
<path d="M18.5695 30.4626C18.7825 30.4618 18.9962 30.4618 19.2091 30.4626C19.2091 31.3663 19.2084 32.2708 19.2099 33.1746C19.5145 33.1738 19.82 33.1738 20.1261 33.1746C20.1253 33.3776 20.1253 33.5806 20.1253 33.7837C19.6078 33.7837 19.0894 33.7837 18.5717 33.7837C18.5673 32.6769 18.5703 31.5693 18.5695 30.4626Z" />
<path d="M21.7154 30.4626C21.9314 30.4618 22.1481 30.4618 22.3649 30.4626C22.7862 31.5709 23.2189 32.6746 23.6388 33.7837C23.4152 33.7844 23.1924 33.7837 22.9696 33.7783C22.8886 33.5495 22.8021 33.3231 22.7104 33.0996C22.2596 33.1071 21.8086 33.0928 21.3585 33.1109C21.2766 33.3374 21.188 33.5609 21.097 33.7844C20.8765 33.7837 20.6559 33.7837 20.4362 33.7829C20.8583 32.6746 21.2887 31.5693 21.7154 30.4626ZM22.0443 31.3557C21.8965 31.7277 21.7502 32.1004 21.6063 32.4739C21.8965 32.4776 22.1867 32.4776 22.477 32.4769C22.3345 32.1026 22.1875 31.73 22.0443 31.3557Z" />
<path d="M24.0836 30.4625C24.286 30.4618 24.4883 30.461 24.6914 30.458C25.1711 31.1678 25.6198 31.8988 26.1025 32.6063C26.1123 31.892 26.1048 31.1769 26.107 30.4625C26.32 30.4625 26.5337 30.4618 26.7474 30.4625C26.7466 31.5693 26.7489 32.6768 26.7459 33.7843C26.5412 33.7836 26.3367 33.7828 26.1328 33.7813C25.6667 33.0654 25.2052 32.3458 24.73 31.6352C24.7217 32.3511 24.7308 33.0669 24.7255 33.7828C24.5118 33.7836 24.2981 33.7836 24.0851 33.7828C24.0829 32.6761 24.0851 31.5693 24.0836 30.4625Z" />
<path d="M27.1665 30.4627C27.7788 30.4627 28.3904 30.4627 29.0027 30.4627C29.0027 30.671 29.0027 30.8793 29.0027 31.0884C28.8011 31.0884 28.6003 31.0891 28.3995 31.0891C28.398 31.9875 28.401 32.8852 28.398 33.7836C28.1835 33.7836 27.9698 33.7836 27.7561 33.7836C27.7531 32.886 27.7561 31.9875 27.7546 31.0899C27.5583 31.0891 27.362 31.0884 27.1665 31.0884C27.1657 30.8793 27.1657 30.671 27.1665 30.4627Z" />
<path d="M29.4279 30.4626C30.0334 30.4626 30.6389 30.4618 31.2444 30.4626C31.2444 30.6694 31.2436 30.8754 31.2444 31.083C30.8488 31.0845 30.454 31.083 30.0592 31.0838C30.0584 31.28 30.0584 31.4769 30.0584 31.6739C30.4533 31.6746 30.8481 31.6731 31.2429 31.6761C31.2436 31.8791 31.2444 32.083 31.2444 32.2875C30.8496 32.2882 30.454 32.2875 30.0592 32.2882C30.0584 32.5769 30.0584 32.8655 30.0599 33.1541C30.4547 33.1541 30.8496 33.1526 31.2452 33.1564C31.2444 33.3647 31.2436 33.573 31.2429 33.7821C30.6382 33.7851 30.0326 33.7828 29.4279 33.7836C29.4264 32.6768 29.4271 31.5693 29.4279 30.4626Z" />
</g>
<defs>
<clipPath id="clip0_102_73">
<rect width="84.5856" height="34" fill="white"/>
</clipPath>
</defs>
</svg>
