<svg width="1639" height="1639" viewBox="0 0 1639 1639" fill="none" xmlns="http://www.w3.org/2000/svg">
<g clip-path="url(#clip0)">
<path d="M361.951 1341.55C361.292 1341.02 361.229 1340.43 361.762 1339.77L363.923 1337.11C364.457 1336.46 365.053 1336.4 365.712 1336.93L378.858 1347.5C379.121 1347.71 379.36 1347.69 379.573 1347.42L430.713 1284.54C431.247 1283.88 431.843 1283.82 432.502 1284.35L435.764 1286.97C436.423 1287.5 436.485 1288.1 435.952 1288.75L384.812 1351.64C384.598 1351.9 384.623 1352.14 384.887 1352.35L397.242 1362.29C397.901 1362.82 397.964 1363.41 397.43 1364.06L395.269 1366.72C394.736 1367.38 394.14 1367.44 393.481 1366.91L361.951 1341.55Z" fill="#FEFEFE"/>
<path d="M321.989 1301.37C321.394 1301.96 320.795 1301.97 320.193 1301.37L317.215 1298.44C316.613 1297.85 316.61 1297.25 317.205 1296.66L377.948 1235.59C378.543 1234.99 379.142 1234.99 379.744 1235.58L382.722 1238.51C383.324 1239.1 383.327 1239.7 382.732 1240.3L354.772 1268.41C354.534 1268.65 354.535 1268.88 354.776 1269.12L372.648 1286.72C372.889 1286.95 373.128 1286.95 373.366 1286.71L401.326 1258.6C401.921 1258 402.52 1258 403.122 1258.59L406.1 1261.53C406.702 1262.12 406.705 1262.71 406.11 1263.31L345.367 1324.38C344.772 1324.98 344.173 1324.98 343.571 1324.39L340.593 1321.46C339.991 1320.87 339.988 1320.27 340.583 1319.67L368.453 1291.65C368.692 1291.41 368.69 1291.17 368.45 1290.94L350.578 1273.34C350.337 1273.1 350.097 1273.11 349.859 1273.35L321.989 1301.37Z" fill="#FEFEFE"/>
<path d="M343.899 1196.09C344.395 1196.67 344.407 1197.27 343.934 1197.89L333.441 1211.28C333.311 1211.39 333.269 1211.54 333.315 1211.72C333.305 1211.84 333.355 1211.96 333.466 1212.09L349.673 1231.06C349.783 1231.18 349.925 1231.29 350.1 1231.36C350.22 1231.37 350.345 1231.32 350.475 1231.21L365.433 1223.05C366.071 1222.62 366.666 1222.73 367.217 1223.37L369.946 1226.57C370.221 1226.89 370.345 1227.23 370.316 1227.59C370.232 1227.88 370 1228.13 369.621 1228.34L290.994 1269.55C290.301 1269.92 289.707 1269.81 289.211 1269.23L285.903 1265.36C285.352 1264.71 285.34 1264.11 285.868 1263.55L339.275 1192.83L339.469 1192.67C340.052 1192.18 340.591 1192.22 341.087 1192.8L343.899 1196.09ZM344.514 1234.42C344.773 1234.2 344.819 1234 344.654 1233.8L330.018 1216.68C329.853 1216.48 329.641 1216.5 329.382 1216.72L295.649 1260.11C295.51 1260.34 295.468 1260.49 295.523 1260.55C295.578 1260.62 295.73 1260.6 295.98 1260.5L344.514 1234.42Z" fill="#FEFEFE"/>
<path d="M242.233 1204.54C241.539 1205.02 240.949 1204.92 240.462 1204.23L238.125 1200.91C237.638 1200.22 237.741 1199.63 238.434 1199.15L309.148 1149.77C309.841 1149.28 310.432 1149.38 310.919 1150.08L313.767 1154.12C314.157 1154.67 314.148 1155.25 313.739 1155.84L271.063 1218.6C270.904 1218.81 270.908 1218.96 271.075 1219.05C271.172 1219.19 271.325 1219.19 271.533 1219.04L329.383 1178.49C330.076 1178 330.666 1178.11 331.153 1178.8L333.564 1182.22C334.051 1182.91 333.948 1183.5 333.254 1183.98L262.54 1233.37C261.847 1233.85 261.257 1233.75 260.77 1233.05L257.994 1229.11C257.604 1228.56 257.614 1227.99 258.022 1227.39L300.313 1164.75C300.472 1164.54 300.503 1164.36 300.406 1164.22C300.239 1164.13 300.052 1164.16 299.844 1164.31L242.233 1204.54Z" fill="#FEFEFE"/>
<path d="M299.202 1131.86C299.616 1132.6 299.452 1133.17 298.711 1133.59L223.103 1175.52C222.362 1175.94 221.784 1175.77 221.37 1175.03L219.323 1171.37C218.909 1170.63 219.073 1170.05 219.814 1169.64L257.952 1148.49C258.174 1148.36 258.281 1148.21 258.273 1148.02C258.19 1147.87 258.017 1147.82 257.753 1147.87L206.204 1146.08C205.478 1145.99 204.97 1145.69 204.681 1145.18L202.323 1140.96C202.075 1140.52 202.058 1140.14 202.272 1139.83C202.411 1139.55 202.728 1139.43 203.223 1139.44L242.602 1140.57C242.949 1140.67 243.192 1140.58 243.331 1140.31L277.394 1095.97L277.776 1095.62C278.369 1095.29 278.852 1095.46 279.224 1096.12L281.582 1100.34C281.913 1100.93 281.844 1101.5 281.375 1102.05L250.902 1141.35C250.647 1141.59 250.75 1141.77 251.212 1141.9L267.452 1143.07C267.568 1143.11 267.774 1143.04 268.07 1142.88L295.423 1127.7C296.164 1127.29 296.741 1127.46 297.155 1128.2L299.202 1131.86Z" fill="#FEFEFE"/>
<path d="M257.686 1048.24C258.003 1049.02 257.769 1049.57 256.984 1049.88L220.496 1064.53C220.182 1064.66 220.002 1064.78 219.955 1064.89L183.784 1098.27L183.36 1098.58C182.733 1098.83 182.276 1098.6 181.991 1097.9L180.328 1093.78C180.043 1093.08 180.167 1092.48 180.7 1091.99L211.587 1064.83C211.712 1064.69 211.743 1064.54 211.68 1064.38C211.617 1064.23 211.491 1064.14 211.302 1064.13L170.201 1066C169.478 1066.02 168.974 1065.67 168.689 1064.97L167.026 1060.85C166.868 1060.46 166.914 1060.12 167.164 1059.84C167.305 1059.51 167.603 1059.35 168.059 1059.34L217.342 1058.42C217.452 1058.47 217.664 1058.43 217.978 1058.3L254.467 1043.65C255.251 1043.34 255.802 1043.57 256.119 1044.35L257.686 1048.24Z" fill="#FEFEFE"/>
<path d="M240.772 996.065C242.556 1001.95 242.156 1007.3 239.572 1012.13C236.882 1016.9 232.513 1020.2 226.466 1022.03L180.626 1035.87C174.498 1037.72 169.029 1037.39 164.22 1034.88C159.331 1032.4 155.981 1028.18 154.173 1022.21C152.364 1016.25 152.792 1010.84 155.457 1005.99C158.042 1001.16 162.398 997.821 168.526 995.971L214.366 982.13C220.413 980.304 225.894 980.672 230.808 983.236C235.642 985.824 238.963 990.1 240.772 996.065ZM235.087 997.781C233.865 993.751 231.545 990.888 228.126 989.193C224.683 987.417 220.825 987.174 216.551 988.465L170.228 1002.45C165.954 1003.74 162.878 1006.08 160.999 1009.46C159.016 1012.79 158.635 1016.47 159.857 1020.5C161.055 1024.45 163.403 1027.26 166.903 1028.93C170.321 1030.62 174.167 1030.83 178.441 1029.53L224.764 1015.55C229.038 1014.26 232.126 1011.96 234.029 1008.66C235.932 1005.36 236.285 1001.73 235.087 997.781Z" fill="#FEFEFE"/>
<path d="M225.924 940.291C227.187 946.421 226.091 951.785 222.635 956.382C219.096 960.997 213.764 964.037 206.64 965.504L143.393 978.528C142.565 978.698 142.066 978.369 141.895 977.541L141.05 973.441C140.879 972.612 141.208 972.113 142.036 971.942L206.028 958.766C211.081 957.725 214.925 955.638 217.561 952.505C220.097 949.306 220.938 945.636 220.084 941.494C219.23 937.352 217.006 934.313 213.412 932.376C209.717 930.374 205.344 929.893 200.291 930.933L136.299 944.11C135.47 944.281 134.971 943.952 134.8 943.123L133.955 939.023C133.784 938.195 134.113 937.695 134.941 937.525L198.188 924.502C205.229 923.052 211.296 923.788 216.389 926.712C221.482 929.635 224.66 934.162 225.924 940.291Z" fill="#FEFEFE"/>
<path d="M141.346 670.862C141.512 670.032 142.011 669.698 142.841 669.861L146.205 670.521C147.035 670.683 147.368 671.18 147.202 672.01L143.891 688.567C143.825 688.899 143.958 689.097 144.29 689.162L223.897 704.769C224.727 704.932 225.06 705.428 224.894 706.258L224.072 710.366C223.906 711.196 223.408 711.529 222.578 711.367L142.971 695.76C142.638 695.695 142.439 695.828 142.373 696.16L139.261 711.721C139.095 712.551 138.597 712.885 137.767 712.722L134.403 712.063C133.572 711.9 133.24 711.403 133.406 710.573L141.346 670.862Z" fill="#FEFEFE"/>
<path d="M158.013 617.811C157.203 617.575 156.918 617.053 157.157 616.245L158.339 612.241C158.578 611.432 159.102 611.146 159.912 611.381L242.513 635.379C243.323 635.614 243.608 636.136 243.37 636.945L242.187 640.949C241.949 641.757 241.424 642.044 240.614 641.809L202.594 630.763C202.27 630.669 202.06 630.783 201.964 631.107L194.871 655.127C194.775 655.451 194.889 655.66 195.213 655.754L233.234 666.8C234.044 667.035 234.329 667.557 234.091 668.366L232.908 672.369C232.67 673.178 232.145 673.465 231.335 673.23L148.734 649.231C147.924 648.996 147.639 648.474 147.878 647.665L149.06 643.662C149.299 642.853 149.823 642.566 150.633 642.802L188.532 653.813C188.856 653.907 189.066 653.792 189.162 653.469L196.255 629.448C196.351 629.125 196.237 628.916 195.913 628.822L158.013 617.811Z" fill="#FEFEFE"/>
<path d="M262.017 587.054C261.736 587.762 261.211 588.056 260.44 587.936L243.701 585.075C243.543 585.014 243.394 585.046 243.253 585.173C243.143 585.22 243.057 585.323 242.995 585.48L233.837 608.592C233.774 608.749 233.752 608.922 233.768 609.11C233.816 609.219 233.918 609.305 234.076 609.366L248.291 618.595C248.969 618.95 249.152 619.521 248.841 620.307L247.299 624.199C247.143 624.592 246.9 624.86 246.571 625.004C246.272 625.068 245.941 624.985 245.579 624.752L172.341 575.451C171.694 575.017 171.511 574.446 171.792 573.739L173.661 569.022C173.972 568.236 174.498 567.942 175.238 568.14L262.726 581.476L262.963 581.569C263.671 581.845 263.886 582.338 263.605 583.045L262.017 587.054ZM228.446 605.67C228.761 605.793 228.965 605.736 229.059 605.501L237.329 584.629C237.422 584.393 237.312 584.214 236.996 584.091L182.862 575.067C182.595 575.053 182.445 575.086 182.414 575.164C182.383 575.243 182.47 575.368 182.675 575.539L228.446 605.67Z" fill="#FEFEFE"/>
<path d="M205.762 502.032C205.003 501.659 204.813 501.094 205.19 500.337L207.003 496.705C207.38 495.949 207.949 495.757 208.707 496.131L286.08 534.243C286.838 534.616 287.029 535.182 286.651 535.938L284.442 540.364C284.14 540.969 283.629 541.236 282.909 541.164L207.125 533.951C206.86 533.914 206.727 533.99 206.727 534.179C206.652 534.33 206.728 534.462 206.955 534.574L270.389 565.679C271.148 566.052 271.338 566.617 270.961 567.374L269.091 571.119C268.714 571.876 268.146 572.067 267.387 571.694L190.015 533.582C189.256 533.208 189.066 532.643 189.443 531.886L191.596 527.574C191.898 526.969 192.409 526.702 193.129 526.774L268.628 533.706C268.893 533.742 269.064 533.685 269.139 533.533C269.139 533.345 269.025 533.194 268.798 533.082L205.762 502.032Z" fill="#FEFEFE"/>
<path d="M297.778 517.343C297.326 518.057 296.741 518.19 296.024 517.741L222.927 471.962C222.21 471.513 222.078 470.931 222.531 470.217L224.772 466.682C225.224 465.968 225.809 465.835 226.526 466.284L263.397 489.376C263.612 489.51 263.801 489.529 263.963 489.431C264.053 489.288 264.014 489.113 263.844 488.907L240.736 443.157C240.46 442.485 240.481 441.9 240.798 441.4L243.378 437.329C243.65 436.9 243.975 436.705 244.352 436.741C244.657 436.733 244.921 436.948 245.144 437.387L263.008 472.221C263.088 472.57 263.28 472.74 263.585 472.732L318.898 481.183L319.396 481.345C319.969 481.704 320.052 482.205 319.645 482.848L317.064 486.919C316.702 487.49 316.166 487.703 315.457 487.559L266.301 479.82C265.969 479.712 265.856 479.891 265.961 480.356L272.71 495.058C272.736 495.175 272.893 495.322 273.179 495.502L299.623 512.063C300.34 512.512 300.472 513.094 300.019 513.808L297.778 517.343Z" fill="#FEFEFE"/>
<path d="M351.914 441.019C351.37 441.668 350.773 441.723 350.12 441.183L319.794 416.079C319.533 415.863 319.343 415.76 319.223 415.771L272.464 399.815L271.991 399.589C271.47 399.157 271.453 398.649 271.942 398.064L274.795 394.656C275.284 394.071 275.871 393.898 276.556 394.135L315.294 408.397C315.478 408.44 315.625 408.396 315.734 408.267C315.842 408.137 315.859 407.985 315.783 407.812L294.569 372.611C294.21 371.985 294.275 371.379 294.764 370.795L297.617 367.386C297.888 367.062 298.209 366.942 298.579 367.028C298.937 366.996 299.225 367.179 299.443 367.579L323.706 410.415C323.717 410.534 323.853 410.701 324.114 410.917L354.44 436.021C355.092 436.561 355.147 437.156 354.604 437.805L351.914 441.019Z" fill="#FEFEFE"/>
<path d="M389.917 401.244C385.569 405.615 380.642 407.815 375.135 407.843C369.627 407.753 364.616 405.486 360.103 401.043L325.893 367.363C321.32 362.86 318.989 357.899 318.901 352.48C318.753 347.001 320.882 342.047 325.289 337.617C329.695 333.186 334.683 330.986 340.25 331.017C345.758 330.988 350.798 333.225 355.371 337.727L389.581 371.407C394.094 375.85 396.395 380.841 396.484 386.38C396.512 391.859 394.323 396.814 389.917 401.244ZM385.674 397.068C388.652 394.074 390.071 390.672 389.931 386.861C389.851 382.99 388.216 379.484 385.027 376.345L350.456 342.309C347.267 339.169 343.727 337.58 339.835 337.54C335.943 337.382 332.509 338.8 329.531 341.793C326.613 344.727 325.254 348.129 325.454 351.999C325.593 355.81 327.258 359.286 330.447 362.425L365.018 396.461C368.207 399.601 371.718 401.22 375.549 401.319C379.381 401.419 382.756 400.001 385.674 397.068Z" fill="#FEFEFE"/>
<path d="M432.637 362.358C427.807 366.336 422.545 367.878 416.851 366.981C411.102 366.02 405.903 362.744 401.253 357.153L359.971 307.516C359.431 306.865 359.487 306.272 360.139 305.734L363.37 303.072C364.022 302.535 364.619 302.591 365.16 303.241L406.928 353.464C410.227 357.429 413.882 359.841 417.894 360.699C421.918 361.437 425.562 360.463 428.825 357.774C432.088 355.086 433.731 351.706 433.754 347.633C433.787 343.442 432.155 339.364 428.857 335.398L387.088 285.176C386.548 284.526 386.604 283.932 387.256 283.394L390.487 280.733C391.14 280.195 391.736 280.251 392.277 280.901L433.559 330.539C438.155 336.065 440.357 341.755 440.167 347.609C439.976 353.463 437.466 358.379 432.637 362.358Z" fill="#FEFEFE"/>
<path d="M630.751 160.267C631.558 160.017 632.088 160.295 632.339 161.103L633.355 164.373C633.606 165.181 633.327 165.71 632.52 165.959L616.404 170.945C616.08 171.045 615.969 171.256 616.069 171.579L640.121 248.978C640.372 249.785 640.093 250.314 639.285 250.564L635.287 251.801C634.479 252.051 633.949 251.772 633.699 250.965L609.647 173.566C609.547 173.243 609.335 173.131 609.012 173.231L593.866 177.917C593.058 178.167 592.528 177.888 592.277 177.081L591.261 173.81C591.01 173.003 591.289 172.474 592.097 172.224L630.751 160.267Z" fill="#FEFEFE"/>
<path d="M685.728 148.817C685.552 147.99 685.878 147.489 686.705 147.313L690.799 146.444C691.626 146.268 692.128 146.594 692.304 147.421L710.242 231.785C710.418 232.612 710.092 233.113 709.265 233.289L705.171 234.158C704.344 234.334 703.842 234.008 703.666 233.181L695.409 194.349C695.339 194.018 695.138 193.888 694.808 193.958L670.241 199.174C669.911 199.244 669.78 199.445 669.851 199.776L678.107 238.608C678.283 239.435 677.958 239.936 677.131 240.112L673.036 240.981C672.209 241.157 671.708 240.831 671.532 240.004L653.593 155.64C653.418 154.813 653.743 154.312 654.57 154.136L658.665 153.267C659.492 153.091 659.993 153.417 660.169 154.244L668.4 192.952C668.47 193.283 668.671 193.413 669.002 193.343L693.568 188.127C693.899 188.057 694.029 187.856 693.959 187.525L685.728 148.817Z" fill="#FEFEFE"/>
<path d="M762.105 225.766C761.348 225.86 760.839 225.539 760.577 224.804L755.132 208.706C755.111 208.538 755.011 208.423 754.833 208.359C754.738 208.286 754.607 208.259 754.439 208.28L729.724 211.35C729.556 211.371 729.393 211.434 729.235 211.539C729.161 211.634 729.135 211.765 729.156 211.933L727.792 228.876C727.802 229.643 727.386 230.079 726.545 230.183L722.384 230.7C721.964 230.752 721.612 230.668 721.329 230.447C721.129 230.216 721.046 229.885 721.078 229.454L729.65 141.32C729.724 140.543 730.14 140.107 730.896 140.013L735.94 139.387C736.781 139.282 737.29 139.603 737.468 140.349L767.355 223.706L767.387 223.958C767.48 224.714 767.149 225.14 766.392 225.234L762.105 225.766ZM729.733 205.203C729.774 205.54 729.921 205.692 730.173 205.661L752.492 202.888C752.745 202.857 752.85 202.673 752.808 202.337L734.995 150.388C734.88 150.146 734.78 150.03 734.696 150.041C734.612 150.051 734.543 150.188 734.491 150.45L729.733 205.203Z" fill="#FEFEFE"/>
<path d="M811.754 135.883C811.735 135.036 812.15 134.602 812.998 134.581L817.067 134.484C817.915 134.464 818.348 134.878 818.366 135.726L820.277 222.2C820.296 223.048 819.881 223.482 819.034 223.502L814.074 223.62C813.396 223.636 812.922 223.308 812.653 222.636L783.994 152.067C783.903 151.815 783.774 151.733 783.607 151.822C783.437 151.826 783.355 151.955 783.361 152.209L785.053 223.039C785.072 223.887 784.657 224.321 783.809 224.341L779.613 224.441C778.765 224.461 778.332 224.047 778.313 223.199L776.403 136.725C776.384 135.878 776.799 135.444 777.646 135.423L782.478 135.308C783.157 135.292 783.63 135.62 783.9 136.292L812.678 206.477C812.768 206.729 812.898 206.853 813.068 206.849C813.235 206.76 813.316 206.589 813.311 206.334L811.754 135.883Z" fill="#FEFEFE"/>
<path d="M840.743 223.996C839.898 223.939 839.505 223.488 839.564 222.643L845.64 136.461C845.7 135.616 846.152 135.222 846.997 135.279L851.18 135.563C852.025 135.62 852.418 136.071 852.358 136.916L849.294 180.388C849.276 180.641 849.348 180.816 849.512 180.912C849.681 180.923 849.816 180.805 849.919 180.558L879.512 138.377C879.977 137.814 880.504 137.552 881.096 137.593L885.913 137.919C886.42 137.954 886.746 138.146 886.891 138.495C887.042 138.76 886.976 139.095 886.693 139.5L864.288 171.854C864.017 172.09 863.956 172.341 864.108 172.606L882.681 225.313L882.772 225.829C882.725 226.505 882.321 226.817 881.56 226.766L876.743 226.439C876.067 226.393 875.626 226.023 875.42 225.33L859.115 178.38C859.055 178.036 858.843 178.022 858.481 178.337L848.652 191.296C848.562 191.375 848.505 191.583 848.481 191.921L846.283 223.099C846.223 223.944 845.771 224.338 844.926 224.28L840.743 223.996Z" fill="#FEFEFE"/>
<path d="M933.731 235.548C932.902 235.379 932.574 234.881 932.745 234.053L940.735 195.553C940.804 195.222 940.805 195.007 940.74 194.907L932.943 146.334L932.922 145.812C933.059 145.15 933.501 144.895 934.247 145.046L938.597 145.932C939.343 146.084 939.771 146.516 939.882 147.229L945.419 187.964C945.467 188.146 945.575 188.254 945.74 188.288C945.906 188.322 946.047 188.264 946.165 188.116L967.35 152.82C967.736 152.208 968.302 151.978 969.048 152.13L973.398 153.015C973.812 153.1 974.068 153.324 974.165 153.689C974.362 153.988 974.335 154.328 974.083 154.708L947.575 196.298C947.475 196.364 947.391 196.563 947.322 196.894L939.333 235.394C939.161 236.222 938.661 236.551 937.832 236.383L933.731 235.548Z" fill="#FEFEFE"/>
<path d="M986.949 249.732C981.032 247.974 976.772 244.679 974.167 239.848C971.669 234.96 971.336 229.48 973.169 223.409L987.065 177.389C988.922 171.237 992.237 166.841 997.009 164.201C1001.81 161.48 1007.2 161.011 1013.2 162.793C1019.2 164.575 1023.49 167.922 1026.07 172.835C1028.67 177.666 1029.05 183.158 1027.19 189.31L1013.29 235.33C1011.46 241.401 1008.1 245.785 1003.23 248.482C998.373 251.097 992.948 251.514 986.949 249.732ZM988.673 244.025C992.726 245.229 996.412 244.869 999.731 242.944C1003.13 241.044 1005.48 237.948 1006.77 233.658L1020.82 187.153C1022.11 182.862 1021.87 178.996 1020.08 175.554C1018.4 172.056 1015.53 169.704 1011.48 168.5C1007.51 167.32 1003.85 167.733 1000.5 169.738C997.185 171.663 994.877 174.771 993.582 179.061L979.54 225.566C978.244 229.856 978.45 233.711 980.156 237.128C981.862 240.546 984.701 242.845 988.673 244.025Z" fill="#FEFEFE"/>
<path d="M1041.4 268.936C1035.61 266.585 1031.77 262.704 1029.89 257.293C1028.04 251.803 1028.5 245.701 1031.27 238.986L1055.82 179.373C1056.14 178.592 1056.69 178.361 1057.47 178.678L1061.34 180.251C1062.13 180.568 1062.36 181.118 1062.04 181.898L1037.2 242.214C1035.24 246.977 1034.82 251.319 1035.94 255.238C1037.18 259.112 1039.75 261.843 1043.66 263.431C1047.58 265.019 1051.34 264.861 1054.95 262.957C1058.68 261.007 1061.52 257.65 1063.48 252.887L1088.32 192.571C1088.64 191.791 1089.2 191.559 1089.98 191.877L1093.85 193.449C1094.63 193.767 1094.86 194.316 1094.54 195.097L1069.99 254.71C1067.26 261.347 1063.26 265.964 1057.99 268.563C1052.72 271.162 1047.19 271.286 1041.4 268.936Z" fill="#FEFEFE"/>
<path d="M1292.91 325.435C1293.54 325.996 1293.57 326.59 1293 327.217L1290.72 329.758C1290.15 330.386 1289.56 330.419 1288.93 329.858L1276.35 318.661C1276.1 318.437 1275.86 318.45 1275.63 318.701L1221.52 378.835C1220.96 379.462 1220.36 379.495 1219.73 378.934L1216.61 376.156C1215.98 375.595 1215.95 375.001 1216.51 374.373L1270.62 314.24C1270.85 313.989 1270.83 313.751 1270.58 313.526L1258.76 303.004C1258.13 302.442 1258.1 301.848 1258.66 301.221L1260.95 298.68C1261.52 298.053 1262.11 298.02 1262.74 298.581L1292.91 325.435Z" fill="#FEFEFE"/>
<path d="M1331.7 366.977C1332.33 366.407 1332.93 366.433 1333.5 367.057L1336.34 370.144C1336.91 370.768 1336.89 371.365 1336.26 371.935L1272.36 430.08C1271.73 430.651 1271.13 430.624 1270.56 430L1267.72 426.913C1267.15 426.289 1267.18 425.692 1267.8 425.122L1297.22 398.358C1297.47 398.13 1297.48 397.891 1297.25 397.642L1280.23 379.119C1280 378.869 1279.76 378.859 1279.51 379.087L1250.09 405.851C1249.47 406.421 1248.87 406.394 1248.29 405.77L1245.46 402.683C1244.88 402.059 1244.91 401.462 1245.54 400.892L1309.44 342.747C1310.06 342.177 1310.66 342.204 1311.24 342.827L1314.07 345.914C1314.65 346.538 1314.62 347.135 1313.99 347.705L1284.67 374.384C1284.42 374.612 1284.41 374.85 1284.64 375.1L1301.66 393.623C1301.89 393.872 1302.13 393.883 1302.38 393.655L1331.7 366.977Z" fill="#FEFEFE"/>
<path d="M1303.48 471.564C1303.02 470.961 1303.03 470.361 1303.54 469.766L1314.66 456.978C1314.8 456.876 1314.85 456.732 1314.81 456.546C1314.83 456.428 1314.78 456.302 1314.68 456.168L1299.52 436.464C1299.42 436.33 1299.28 436.222 1299.11 436.139C1298.99 436.123 1298.86 436.167 1298.73 436.269L1283.43 443.628C1282.77 444.023 1282.18 443.885 1281.67 443.214L1279.12 439.897C1278.86 439.562 1278.75 439.217 1278.8 438.862C1278.9 438.574 1279.14 438.336 1279.53 438.146L1359.88 401.137C1360.59 400.81 1361.17 400.948 1361.64 401.551L1364.73 405.572C1365.25 406.242 1365.23 406.842 1364.67 407.37L1307.91 475.041L1307.71 475.194C1307.11 475.656 1306.57 475.585 1306.11 474.982L1303.48 471.564ZM1304.83 433.376C1304.56 433.581 1304.5 433.784 1304.65 433.985L1318.34 451.779C1318.5 451.98 1318.71 451.978 1318.98 451.773L1354.76 410.299C1354.91 410.078 1354.96 409.934 1354.91 409.867C1354.86 409.8 1354.71 409.81 1354.45 409.897L1304.83 433.376Z" fill="#FEFEFE"/>
<path d="M1406.09 467.979C1406.81 467.529 1407.39 467.662 1407.85 468.378L1410.02 471.812C1410.47 472.527 1410.34 473.109 1409.62 473.559L1336.48 519.412C1335.76 519.861 1335.18 519.728 1334.72 519.013L1332.08 514.828C1331.72 514.256 1331.75 513.682 1332.19 513.108L1377.98 452.49C1378.15 452.284 1378.15 452.131 1377.99 452.033C1377.9 451.89 1377.75 451.886 1377.53 452.021L1317.69 489.687C1316.97 490.137 1316.38 490.004 1315.93 489.288L1313.69 485.747C1313.24 485.032 1313.37 484.449 1314.09 484L1387.23 438.147C1387.95 437.697 1388.54 437.83 1388.99 438.546L1391.57 442.623C1391.93 443.196 1391.89 443.769 1391.45 444.343L1346.06 504.866C1345.89 505.073 1345.85 505.248 1345.94 505.391C1346.1 505.489 1346.29 505.47 1346.5 505.336L1406.09 467.979Z" fill="#FEFEFE"/>
<path d="M1345.12 537.871C1344.74 537.116 1344.93 536.549 1345.68 536.17L1422.76 497.454C1423.51 497.074 1424.08 497.262 1424.46 498.016L1426.35 501.751C1426.73 502.505 1426.55 503.072 1425.79 503.452L1386.92 522.981C1386.69 523.095 1386.58 523.246 1386.58 523.435C1386.65 523.586 1386.82 523.642 1387.09 523.604L1438.39 527.5C1439.11 527.612 1439.6 527.932 1439.87 528.46L1442.04 532.76C1442.27 533.213 1442.28 533.591 1442.05 533.894C1441.9 534.158 1441.58 534.272 1441.09 534.236L1401.89 531.499C1401.55 531.387 1401.3 531.463 1401.15 531.728L1365.38 574.535L1364.99 574.876C1364.38 575.179 1363.91 574.992 1363.56 574.313L1361.39 570.012C1361.08 569.408 1361.18 568.842 1361.67 568.312L1393.65 530.386C1393.91 530.159 1393.82 529.97 1393.36 529.82L1377.23 527.99C1377.11 527.953 1376.9 528.01 1376.6 528.162L1348.72 542.168C1347.96 542.548 1347.4 542.36 1347.01 541.606L1345.12 537.871Z" fill="#FEFEFE"/>
<path d="M1382.63 623.37C1382.36 622.567 1382.63 622.034 1383.43 621.769L1420.78 609.479C1421.1 609.374 1421.29 609.267 1421.34 609.161L1459.58 578.151L1460.03 577.872C1460.67 577.66 1461.11 577.916 1461.35 578.638L1462.74 582.853C1462.98 583.576 1462.82 584.163 1462.26 584.616L1429.69 609.753C1429.56 609.886 1429.52 610.033 1429.57 610.193C1429.62 610.354 1429.74 610.448 1429.93 610.475L1471.06 611.229C1471.78 611.259 1472.26 611.635 1472.5 612.357L1473.89 616.572C1474.03 616.974 1473.96 617.307 1473.69 617.574C1473.53 617.894 1473.22 618.04 1472.77 618.011L1423.53 615.784C1423.43 615.73 1423.21 615.756 1422.89 615.862L1385.54 628.152C1384.74 628.416 1384.21 628.147 1383.94 627.344L1382.63 623.37Z" fill="#FEFEFE"/>
<path d="M1397.48 676.329C1395.98 670.343 1396.63 664.991 1399.46 660.272C1402.38 655.615 1406.92 652.514 1413.07 650.971L1459.7 639.271C1465.93 637.707 1471.4 638.297 1476.1 641.04C1480.89 643.763 1484.04 648.158 1485.57 654.227C1487.09 660.295 1486.41 665.699 1483.5 670.438C1480.68 675.157 1476.15 678.298 1469.92 679.862L1423.29 691.562C1417.14 693.105 1411.66 692.475 1406.86 689.67C1402.13 686.844 1399.01 682.398 1397.48 676.329ZM1403.26 674.879C1404.3 678.979 1406.49 681.96 1409.83 683.823C1413.2 685.768 1417.06 686.195 1421.4 685.104L1468.52 673.281C1472.87 672.19 1476.06 669.994 1478.11 666.69C1480.26 663.449 1480.82 659.778 1479.79 655.678C1478.77 651.659 1476.55 648.729 1473.13 646.887C1469.78 645.024 1465.93 644.638 1461.59 645.729L1414.47 657.552C1410.12 658.642 1406.92 660.798 1404.85 664.02C1402.78 667.241 1402.25 670.86 1403.26 674.879Z" fill="#FEFEFE"/>
<path d="M1408.98 732.741C1408.03 726.554 1409.39 721.25 1413.08 716.829C1416.84 712.394 1422.32 709.622 1429.51 708.51L1493.34 698.644C1494.18 698.514 1494.66 698.868 1494.79 699.704L1495.43 703.842C1495.56 704.679 1495.2 705.161 1494.37 705.29L1429.78 715.273C1424.68 716.062 1420.74 717.955 1417.95 720.955C1415.25 724.025 1414.23 727.65 1414.88 731.83C1415.52 736.011 1417.59 739.158 1421.08 741.271C1424.67 743.456 1429.02 744.154 1434.12 743.366L1498.7 733.383C1499.54 733.254 1500.02 733.607 1500.15 734.443L1500.79 738.582C1500.91 739.418 1500.56 739.9 1499.73 740.03L1435.89 749.896C1428.79 750.995 1422.76 749.957 1417.82 746.783C1412.88 743.609 1409.94 738.928 1408.98 732.741Z" fill="#FEFEFE"/>
<path d="M1487.11 977.46C1486.94 978.288 1486.44 978.618 1485.61 978.451L1482.26 977.775C1481.43 977.608 1481.1 977.11 1481.27 976.282L1484.66 959.758C1484.73 959.426 1484.6 959.227 1484.27 959.16L1404.82 943.147C1403.99 942.98 1403.66 942.482 1403.83 941.654L1404.67 937.554C1404.84 936.725 1405.34 936.395 1406.17 936.562L1485.62 952.576C1485.95 952.642 1486.15 952.51 1486.22 952.179L1489.41 936.649C1489.58 935.82 1490.08 935.49 1490.91 935.657L1494.27 936.334C1495.1 936.501 1495.43 936.998 1495.26 937.827L1487.11 977.46Z" fill="#FEFEFE"/>
<path d="M1470.62 1030.93C1471.43 1031.17 1471.71 1031.7 1471.47 1032.5L1470.25 1036.51C1470 1037.32 1469.48 1037.6 1468.67 1037.36L1386.03 1012.67C1385.22 1012.42 1384.93 1011.9 1385.18 1011.09L1386.4 1007.08C1386.64 1006.28 1387.17 1005.99 1387.98 1006.23L1426.02 1017.6C1426.34 1017.7 1426.55 1017.58 1426.65 1017.26L1433.95 993.23C1434.05 992.906 1433.93 992.696 1433.61 992.599L1395.57 981.233C1394.76 980.99 1394.48 980.465 1394.73 979.656L1395.94 975.651C1396.19 974.842 1396.72 974.558 1397.53 974.8L1480.16 999.494C1480.97 999.736 1481.26 1000.26 1481.01 1001.07L1479.8 1005.08C1479.55 1005.88 1479.02 1006.17 1478.21 1005.93L1440.29 994.596C1439.97 994.499 1439.76 994.613 1439.66 994.936L1432.36 1018.97C1432.27 1019.29 1432.38 1019.5 1432.7 1019.6L1470.62 1030.93Z" fill="#FEFEFE"/>
<path d="M1365.52 1060.37C1365.8 1059.66 1366.33 1059.38 1367.1 1059.51L1383.78 1062.59C1383.93 1062.65 1384.08 1062.62 1384.23 1062.5C1384.34 1062.45 1384.42 1062.35 1384.49 1062.19L1393.94 1039.24C1394.01 1039.08 1394.03 1038.91 1394.02 1038.72C1393.97 1038.61 1393.87 1038.52 1393.71 1038.46L1379.64 1029.06C1378.97 1028.69 1378.79 1028.12 1379.12 1027.34L1380.71 1023.47C1380.87 1023.08 1381.11 1022.82 1381.45 1022.68C1381.74 1022.62 1382.07 1022.71 1382.43 1022.94L1454.9 1073.15C1455.54 1073.59 1455.72 1074.16 1455.43 1074.86L1453.5 1079.55C1453.18 1080.33 1452.65 1080.62 1451.91 1080.41L1364.73 1065.93L1364.5 1065.83C1363.79 1065.55 1363.59 1065.05 1363.88 1064.35L1365.52 1060.37ZM1399.29 1042.23C1398.97 1042.1 1398.77 1042.15 1398.67 1042.39L1390.13 1063.12C1390.04 1063.35 1390.15 1063.53 1390.46 1063.66L1444.39 1073.39C1444.66 1073.41 1444.81 1073.38 1444.84 1073.3C1444.87 1073.22 1444.79 1073.09 1444.59 1072.92L1399.29 1042.23Z" fill="#FEFEFE"/>
<path d="M1421.08 1146.35C1421.83 1146.74 1422.01 1147.31 1421.62 1148.06L1419.77 1151.66C1419.38 1152.42 1418.81 1152.6 1418.05 1152.22L1341.18 1113.11C1340.43 1112.73 1340.24 1112.16 1340.63 1111.41L1342.9 1107.01C1343.21 1106.41 1343.72 1106.15 1344.44 1106.23L1420.12 1114.42C1420.39 1114.46 1420.52 1114.39 1420.53 1114.2C1420.6 1114.05 1420.53 1113.92 1420.3 1113.8L1357.27 1081.88C1356.52 1081.5 1356.34 1080.93 1356.73 1080.18L1358.64 1076.46C1359.03 1075.71 1359.6 1075.52 1360.35 1075.9L1437.23 1115.01C1437.98 1115.39 1438.17 1115.96 1437.78 1116.71L1435.57 1121C1435.26 1121.6 1434.75 1121.86 1434.03 1121.78L1358.62 1113.87C1358.36 1113.83 1358.19 1113.89 1358.11 1114.04C1358.11 1114.23 1358.22 1114.38 1358.44 1114.49L1421.08 1146.35Z" fill="#FEFEFE"/>
<path d="M1329.61 1130.06C1330.07 1129.35 1330.66 1129.22 1331.37 1129.67L1404.13 1175.98C1404.84 1176.44 1404.97 1177.02 1404.51 1177.73L1402.25 1181.25C1401.79 1181.96 1401.2 1182.09 1400.49 1181.64L1363.79 1158.27C1363.57 1158.14 1363.39 1158.12 1363.22 1158.22C1363.13 1158.36 1363.17 1158.53 1363.34 1158.74L1386.11 1204.66C1386.38 1205.33 1386.36 1205.92 1386.04 1206.41L1383.42 1210.47C1383.15 1210.89 1382.82 1211.09 1382.45 1211.05C1382.14 1211.05 1381.88 1210.84 1381.66 1210.4L1364.05 1175.43C1363.97 1175.08 1363.78 1174.91 1363.48 1174.92L1308.23 1166.06L1307.73 1165.89C1307.16 1165.53 1307.08 1165.03 1307.49 1164.39L1310.1 1160.34C1310.47 1159.77 1311.01 1159.56 1311.72 1159.71L1360.81 1167.81C1361.15 1167.92 1361.26 1167.74 1361.16 1167.28L1354.52 1152.52C1354.49 1152.41 1354.34 1152.26 1354.05 1152.08L1327.73 1135.32C1327.02 1134.87 1326.89 1134.29 1327.35 1133.57L1329.61 1130.06Z" fill="#FEFEFE"/>
<path d="M1328.4 1280C1327.85 1280.65 1327.25 1280.7 1326.6 1280.15L1323.98 1277.95C1323.33 1277.41 1323.28 1276.81 1323.83 1276.17L1334.75 1263.31C1334.96 1263.05 1334.94 1262.81 1334.68 1262.59L1272.61 1210.49C1271.96 1209.94 1271.91 1209.35 1272.46 1208.7L1275.16 1205.51C1275.71 1204.87 1276.31 1204.82 1276.96 1205.36L1339.03 1257.47C1339.29 1257.69 1339.53 1257.67 1339.75 1257.41L1350.01 1245.32C1350.56 1244.67 1351.15 1244.62 1351.8 1245.17L1354.43 1247.37C1355.07 1247.91 1355.12 1248.51 1354.58 1249.15L1328.4 1280Z" fill="#FEFEFE"/>
<path d="M1239.15 1243.15C1243.52 1238.79 1248.46 1236.6 1253.98 1236.59C1259.49 1236.71 1264.5 1238.99 1269 1243.46L1303.13 1277.31C1307.69 1281.84 1310.01 1286.82 1310.08 1292.24C1310.21 1297.73 1308.06 1302.68 1303.63 1307.1C1299.2 1311.52 1294.2 1313.71 1288.62 1313.66C1283.11 1313.66 1278.07 1311.41 1273.5 1306.88L1239.37 1273.03C1234.87 1268.56 1232.59 1263.55 1232.52 1258.01C1232.51 1252.52 1234.72 1247.57 1239.15 1243.15ZM1243.38 1247.35C1240.39 1250.33 1238.96 1253.73 1239.08 1257.55C1239.15 1261.43 1240.77 1264.94 1243.95 1268.1L1278.44 1302.31C1281.62 1305.47 1285.16 1307.07 1289.06 1307.13C1292.96 1307.3 1296.4 1305.89 1299.39 1302.91C1302.33 1299.98 1303.7 1296.58 1303.52 1292.7C1303.39 1288.88 1301.74 1285.4 1298.55 1282.24L1264.06 1248.03C1260.88 1244.87 1257.37 1243.24 1253.54 1243.13C1249.7 1243.01 1246.32 1244.42 1243.38 1247.35Z" fill="#FEFEFE"/>
<path d="M1201.84 1278.62C1202.49 1278.08 1203.08 1278.13 1203.63 1278.78L1228.94 1308.86C1229.16 1309.12 1229.33 1309.25 1229.45 1309.26L1272.54 1333.29L1272.96 1333.59C1273.4 1334.11 1273.32 1334.61 1272.74 1335.1L1269.33 1337.94C1268.75 1338.43 1268.14 1338.5 1267.51 1338.14L1232 1317.21C1231.82 1317.14 1231.67 1317.16 1231.54 1317.26C1231.41 1317.37 1231.37 1317.52 1231.41 1317.7L1245.98 1356.09C1246.22 1356.77 1246.04 1357.35 1245.46 1357.84L1242.05 1360.68C1241.72 1360.95 1241.39 1361.01 1241.04 1360.86C1240.68 1360.83 1240.43 1360.6 1240.29 1360.17L1224.09 1313.73C1224.1 1313.61 1224 1313.42 1223.78 1313.16L1198.46 1283.08C1197.92 1282.43 1197.97 1281.84 1198.62 1281.3L1201.84 1278.62Z" fill="#FEFEFE"/>
<path d="M1034.95 1472.3C1034.15 1472.59 1033.61 1472.34 1033.31 1471.55L1032.12 1468.34C1031.83 1467.55 1032.08 1467 1032.87 1466.71L1048.7 1460.87C1049.02 1460.75 1049.12 1460.54 1049 1460.22L1020.8 1384.23C1020.51 1383.44 1020.76 1382.9 1021.55 1382.61L1025.48 1381.16C1026.27 1380.86 1026.81 1381.11 1027.11 1381.91L1055.3 1457.89C1055.42 1458.21 1055.64 1458.31 1055.96 1458.19L1070.83 1452.7C1071.62 1452.41 1072.17 1452.66 1072.46 1453.45L1073.65 1456.67C1073.95 1457.46 1073.7 1458 1072.91 1458.29L1034.95 1472.3Z" fill="#FEFEFE"/>
<path d="M980.774 1486.68C980.995 1487.5 980.697 1488.01 979.881 1488.23L975.84 1489.32C975.023 1489.54 974.505 1489.25 974.284 1488.43L951.741 1405.18C951.52 1404.36 951.817 1403.84 952.634 1403.62L956.675 1402.53C957.491 1402.31 958.01 1402.61 958.231 1403.43L968.607 1441.75C968.696 1442.07 968.903 1442.19 969.23 1442.11L993.477 1435.56C993.803 1435.47 993.922 1435.27 993.834 1434.94L983.457 1396.62C983.236 1395.8 983.534 1395.29 984.351 1395.07L988.392 1393.98C989.208 1393.75 989.727 1394.05 989.948 1394.87L1012.49 1478.12C1012.71 1478.94 1012.41 1479.46 1011.6 1479.68L1007.56 1480.77C1006.74 1480.99 1006.22 1480.69 1006 1479.87L995.657 1441.67C995.569 1441.35 995.361 1441.23 995.035 1441.32L970.788 1447.86C970.461 1447.95 970.342 1448.15 970.431 1448.48L980.774 1486.68Z" fill="#FEFEFE"/>
<path d="M900.321 1413.61C901.07 1413.48 901.594 1413.77 901.893 1414.49L908.149 1430.26C908.178 1430.43 908.284 1430.54 908.465 1430.59C908.563 1430.66 908.695 1430.68 908.862 1430.65L933.344 1426.33C933.511 1426.3 933.67 1426.23 933.822 1426.12C933.89 1426.02 933.91 1425.89 933.881 1425.72L934.37 1408.77C934.321 1408 934.713 1407.55 935.546 1407.4L939.668 1406.67C940.084 1406.6 940.44 1406.67 940.733 1406.87C940.944 1407.09 941.044 1407.42 941.034 1407.85L937.015 1496.14C936.98 1496.92 936.588 1497.37 935.839 1497.5L930.842 1498.38C930.009 1498.53 929.485 1498.24 929.27 1497.5L895.192 1415.93L895.148 1415.68C895.016 1414.93 895.324 1414.49 896.074 1414.36L900.321 1413.61ZM933.651 1432.46C933.593 1432.13 933.438 1431.98 933.188 1432.03L911.079 1435.93C910.829 1435.97 910.734 1436.16 910.792 1436.49L931.22 1487.37C931.347 1487.61 931.452 1487.72 931.536 1487.7C931.619 1487.69 931.68 1487.55 931.719 1487.28L933.651 1432.46Z" fill="#FEFEFE"/>
<path d="M856.349 1505.95C856.418 1506.79 856.033 1507.25 855.195 1507.32L851.17 1507.65C850.332 1507.72 849.878 1507.34 849.809 1506.5L842.782 1420.96C842.713 1420.12 843.098 1419.67 843.937 1419.6L848.842 1419.19C849.513 1419.14 850.001 1419.43 850.308 1420.08L882.885 1488.29C882.989 1488.54 883.122 1488.61 883.283 1488.51C883.45 1488.5 883.524 1488.37 883.503 1488.11L877.622 1418.06C877.553 1417.22 877.937 1416.77 878.776 1416.7L882.926 1416.35C883.765 1416.28 884.219 1416.67 884.288 1417.51L891.314 1503.04C891.383 1503.88 890.998 1504.33 890.16 1504.4L885.381 1504.8C884.71 1504.86 884.221 1504.56 883.914 1503.91L851.243 1436.09C851.139 1435.85 851.002 1435.73 850.835 1435.74C850.674 1435.84 850.604 1436.02 850.625 1436.27L856.349 1505.95Z" fill="#FEFEFE"/>
<path d="M821.891 1419.85C822.737 1419.87 823.152 1420.3 823.135 1421.15L821.479 1507.4C821.462 1508.24 821.031 1508.66 820.186 1508.64L816 1508.57C815.154 1508.56 814.74 1508.13 814.756 1507.28L815.592 1463.78C815.596 1463.52 815.515 1463.35 815.348 1463.26C815.178 1463.26 815.049 1463.39 814.96 1463.64L787.604 1507.2C787.17 1507.78 786.657 1508.07 786.065 1508.06L781.244 1507.98C780.737 1507.97 780.402 1507.79 780.239 1507.45C780.075 1507.2 780.124 1506.86 780.386 1506.44L801.075 1473.04C801.334 1472.79 801.381 1472.54 801.217 1472.28L780.003 1420.66L779.886 1420.15C779.899 1419.48 780.286 1419.15 781.047 1419.16L785.867 1419.24C786.544 1419.25 787.002 1419.6 787.243 1420.28L805.9 1466.27C805.978 1466.61 806.19 1466.62 806.534 1466.29L815.674 1452.86C815.76 1452.78 815.807 1452.57 815.813 1452.23L816.413 1421.03C816.429 1420.18 816.86 1419.77 817.705 1419.78L821.891 1419.85Z" fill="#FEFEFE"/>
<path d="M728.275 1414.08C729.114 1414.2 729.474 1414.68 729.352 1415.52L723.72 1454.53C723.672 1454.86 723.684 1455.08 723.756 1455.17L734.535 1503.31L734.589 1503.83C734.492 1504.5 734.065 1504.78 733.31 1504.67L728.903 1504.05C728.148 1503.95 727.693 1503.54 727.538 1502.83L719.5 1462.41C719.44 1462.23 719.326 1462.13 719.158 1462.1C718.99 1462.08 718.852 1462.14 718.744 1462.3L699.713 1498.91C699.365 1499.54 698.813 1499.81 698.057 1499.7L693.651 1499.08C693.231 1499.02 692.961 1498.81 692.842 1498.45C692.626 1498.17 692.633 1497.83 692.861 1497.43L716.831 1454.2C716.927 1454.13 716.999 1453.92 717.048 1453.59L722.68 1414.58C722.801 1413.74 723.281 1413.38 724.12 1413.49L728.275 1414.08Z" fill="#FEFEFE"/>
<path d="M674.462 1402.37C680.466 1403.81 684.901 1406.86 687.765 1411.55C690.528 1416.29 691.16 1421.75 689.662 1427.91L678.309 1474.62C676.791 1480.86 673.723 1485.44 669.103 1488.33C664.463 1491.31 659.1 1492.07 653.014 1490.62C646.927 1489.17 642.462 1486.06 639.617 1481.29C636.752 1476.61 636.079 1471.14 637.597 1464.9L648.95 1418.19C650.448 1412.03 653.558 1407.47 658.28 1404.51C662.982 1401.63 668.376 1400.92 674.462 1402.37ZM673.054 1408.16C668.942 1407.18 665.282 1407.74 662.073 1409.85C658.782 1411.93 656.607 1415.15 655.549 1419.5L644.075 1466.71C643.017 1471.06 643.474 1474.91 645.447 1478.25C647.318 1481.65 650.309 1483.84 654.422 1484.83C658.452 1485.79 662.081 1485.18 665.31 1482.99C668.518 1480.89 670.652 1477.66 671.711 1473.31L683.184 1426.1C684.242 1421.75 683.826 1417.91 681.936 1414.59C680.045 1411.27 677.085 1409.13 673.054 1408.16Z" fill="#FEFEFE"/>
<path d="M618.91 1386.33C624.829 1388.36 628.88 1392.02 631.062 1397.33C633.216 1402.72 633.098 1408.85 630.708 1415.71L609.488 1476.69C609.21 1477.49 608.671 1477.75 607.871 1477.47L603.912 1476.12C603.112 1475.84 602.851 1475.31 603.129 1474.51L624.599 1412.81C626.294 1407.94 626.47 1403.58 625.127 1399.72C623.675 1395.92 620.95 1393.33 616.95 1391.96C612.951 1390.59 609.197 1390.95 605.689 1393.06C602.073 1395.22 599.418 1398.73 597.722 1403.6L576.252 1465.29C575.974 1466.09 575.435 1466.36 574.635 1466.08L570.676 1464.72C569.876 1464.45 569.615 1463.91 569.893 1463.11L591.113 1402.14C593.475 1395.35 597.219 1390.51 602.344 1387.62C607.469 1384.73 612.991 1384.3 618.91 1386.33Z" fill="#FEFEFE"/>
<path d="M492.642 1372.04C491.325 1372.02 490.037 1372.42 488.967 1373.19C487.897 1373.95 487.103 1375.04 486.701 1376.29C486.3 1377.54 486.313 1378.88 486.738 1380.12C487.163 1381.36 487.979 1382.43 489.063 1383.17C490.147 1383.91 491.443 1384.28 492.759 1384.24C494.075 1384.19 495.341 1383.72 496.37 1382.9C497.398 1382.08 498.135 1380.95 498.471 1379.68C498.807 1378.42 498.724 1377.08 498.234 1375.86C497.787 1374.74 497.017 1373.78 496.022 1373.1C495.027 1372.42 493.851 1372.05 492.642 1372.04V1372.04Z" fill="#FEFEFE"/>
<path d="M169.097 815.648C167.781 815.628 166.493 816.03 165.423 816.794C164.353 817.558 163.558 818.644 163.155 819.892C162.752 821.139 162.763 822.481 163.186 823.72C163.609 824.959 164.421 826.029 165.504 826.772C166.586 827.515 167.88 827.891 169.196 827.845C170.511 827.799 171.777 827.334 172.808 826.517C173.838 825.7 174.577 824.576 174.917 823.31C175.256 822.044 175.178 820.704 174.693 819.488C174.246 818.369 173.477 817.407 172.481 816.724C171.485 816.04 170.308 815.666 169.097 815.648Z" fill="#FEFEFE"/>
<path d="M1137.51 1370.38C1136.2 1370.36 1134.91 1370.76 1133.85 1371.53C1132.79 1372.29 1132 1373.38 1131.6 1374.62C1131.2 1375.86 1131.21 1377.2 1131.64 1378.44C1132.06 1379.67 1132.87 1380.73 1133.95 1381.47C1135.03 1382.21 1136.32 1382.58 1137.63 1382.54C1138.95 1382.49 1140.21 1382.02 1141.23 1381.21C1142.26 1380.39 1142.99 1379.27 1143.33 1378.01C1143.67 1376.74 1143.59 1375.41 1143.1 1374.2C1142.65 1373.08 1141.88 1372.12 1140.89 1371.44C1139.89 1370.77 1138.72 1370.39 1137.51 1370.38Z" fill="#FEFEFE"/>
<path d="M1161.28 275.601C1159.96 275.582 1158.68 275.985 1157.61 276.751C1156.54 277.516 1155.74 278.604 1155.34 279.852C1154.94 281.101 1154.95 282.444 1155.38 283.683C1155.8 284.922 1156.62 285.991 1157.7 286.732C1158.79 287.473 1160.08 287.846 1161.4 287.797C1162.71 287.748 1163.98 287.279 1165.01 286.459C1166.04 285.639 1166.77 284.512 1167.11 283.245C1167.44 281.978 1167.36 280.637 1166.87 279.422C1166.42 278.306 1165.66 277.347 1164.66 276.667C1163.66 275.986 1162.49 275.616 1161.28 275.601V275.601Z" fill="#FEFEFE"/>
<path d="M1458 835.792C1456.69 835.775 1455.4 836.179 1454.34 836.944C1453.27 837.708 1452.48 838.792 1452.09 840.036C1451.69 841.28 1451.7 842.617 1452.13 843.851C1452.55 845.085 1453.36 846.149 1454.44 846.888C1455.52 847.626 1456.81 847.998 1458.12 847.95C1459.43 847.902 1460.69 847.435 1461.72 846.62C1462.75 845.804 1463.48 844.683 1463.82 843.421C1464.15 842.159 1464.07 840.824 1463.59 839.613C1463.14 838.497 1462.37 837.538 1461.38 836.857C1460.38 836.177 1459.21 835.806 1458 835.792V835.792Z" fill="#FEFEFE"/>
<path d="M517.48 247.12C516.167 247.106 514.883 247.512 513.819 248.279C512.755 249.047 511.967 250.134 511.572 251.38C511.176 252.626 511.194 253.966 511.623 255.199C512.052 256.433 512.869 257.496 513.953 258.23C515.037 258.965 516.331 259.332 517.643 259.278C518.955 259.223 520.215 258.75 521.237 257.928C522.259 257.106 522.989 255.98 523.318 254.714C523.647 253.449 523.558 252.113 523.065 250.904C522.61 249.797 521.839 248.848 520.846 248.175C519.852 247.503 518.682 247.136 517.48 247.12V247.12Z" fill="#FEFEFE"/>
</g>
<defs>
<clipPath id="clip0">
<rect width="1406" height="1406" fill="white" transform="translate(0 256.121) rotate(-10.4958)"/>
</clipPath>
</defs>
</svg>
