<svg width="105" height="34" viewBox="0 0 105 34" fill="none" xmlns="http://www.w3.org/2000/svg">
<g clip-path="url(#clip0_102_2)">
<mask id="mask0_102_2" style="mask-type:luminance" maskUnits="userSpaceOnUse" x="0" y="0" width="105" height="34">
<path d="M104.429 0H0V34H104.429V0Z" fill="white"/>
</mask>
<g mask="url(#mask0_102_2)">
<path d="M47.537 33.7465C45.4157 33.7465 43.4076 32.891 41.8838 31.3416C40.3601 29.7923 39.5221 27.75 39.5221 25.588V16.236C37.7439 16.0141 36.1035 15.2113 34.8272 13.9156C33.3352 12.405 32.515 10.4156 32.515 8.31696C32.515 6.16204 33.3352 4.13386 34.8237 2.60569C36.3333 1.0564 38.359 0.204285 40.5297 0.204285H54.5016C56.6759 0.204285 58.7229 1.05288 60.2644 2.59865C61.8023 4.13738 62.6472 6.16908 62.6472 8.32048C62.6472 10.4191 61.8271 12.4085 60.3351 13.9191C59.0587 15.2113 57.4218 16.0177 55.6436 16.2395L55.6824 25.588C55.6824 27.7571 54.8305 29.8028 53.2819 31.3522C51.737 32.8944 49.6971 33.7465 47.537 33.7465ZM40.5297 2.20428C38.907 2.20428 37.3939 2.84162 36.2661 4.00007C35.1453 5.15148 34.5267 6.68669 34.5267 8.31696C34.5267 9.88738 35.1418 11.3803 36.2625 12.5141C37.3974 13.662 38.9106 14.2958 40.5297 14.2958H41.5338V25.5917C41.5338 27.2254 42.1666 28.7713 43.3191 29.9437C44.4611 31.1057 45.9601 31.7465 47.537 31.7465C49.1562 31.7465 50.6941 31.1057 51.8572 29.9367C53.0273 28.7676 53.6709 27.2219 53.6709 25.5917L53.6214 14.2958H54.6324C56.2516 14.2958 57.7649 13.662 58.8998 12.5141C60.0204 11.3803 60.6356 9.8909 60.6356 8.31696C60.6356 6.69725 59.9957 5.16908 58.8397 4.01063C57.6764 2.84866 56.1351 2.2078 54.5016 2.2078H40.5297V2.20428Z" />
<path d="M96.2653 34C94.1018 34 92.0617 33.1408 90.5204 31.581L85.2702 26.2571C85.3197 26.8486 85.2915 27.4437 85.1784 28.0353C84.892 29.5282 84.0789 30.926 82.891 31.9719C81.7137 33.0071 80.2429 33.6338 78.7475 33.7289C77.0752 33.8381 75.4525 33.2993 74.0631 32.1726C73.8367 31.9895 73.614 31.7888 73.4055 31.581L68.3039 26.5C68.3358 26.7359 68.3569 26.9755 68.364 27.2148C68.3959 28.3451 68.1377 29.4789 67.6074 30.4895C66.5115 32.5915 64.4503 33.9014 62.0957 33.9895C61.9932 33.9929 61.8872 33.9965 61.7847 33.9965C59.6068 33.9965 57.5599 33.1514 56.0219 31.6198C54.484 30.0881 53.6356 28.0493 53.6356 25.8804V8.43312C53.6356 6.31692 54.4806 4.30636 56.0184 2.76763C57.5668 1.21834 59.6139 0.362701 61.781 0.362701C64.0191 0.362701 66.1792 1.31693 67.8691 3.04933L71.1711 6.40144C71.5353 5.03524 72.253 3.78875 73.2677 2.77819C74.809 1.24298 76.8418 0.397913 78.9913 0.397913C81.1409 0.397913 83.1738 1.24298 84.7152 2.77819L101.964 20.0458C103.552 21.581 104.425 23.6303 104.425 25.8169C104.425 27.9999 103.552 30.0493 101.968 31.5846C100.455 33.1338 98.4431 33.9895 96.2936 34C96.2866 34 96.2759 34 96.2653 34ZM83.5803 22.2394C83.789 22.2394 83.9975 22.2852 84.1885 22.3803L84.3369 22.4543L91.9557 30.1761C93.1153 31.3521 94.6461 31.9966 96.2653 31.9966C96.2724 31.9966 96.283 31.9966 96.2901 31.9966C97.8988 31.9895 99.4082 31.3451 100.54 30.1796L100.561 30.1585C101.759 29.0035 102.417 27.4613 102.417 25.8205C102.417 24.1797 101.759 22.6373 100.561 21.4825L100.547 21.4683L83.294 4.19368C82.1344 3.03875 80.6071 2.40143 78.995 2.40143C77.3828 2.40143 75.8555 3.03875 74.6924 4.19368C73.5221 5.35919 72.9035 6.87326 72.9035 8.56693V11.0176L66.4301 4.45073C65.5039 3.50003 63.9482 2.36974 61.7847 2.36974C60.1583 2.36974 58.6168 3.0141 57.4467 4.18312C56.287 5.34157 55.6508 6.85213 55.6508 8.43664V25.8873C55.6508 27.5212 56.287 29.0564 57.4467 30.2113C58.6063 31.3663 60.1478 32 61.7882 32C61.8659 32 61.9437 32 62.0214 31.9966C63.6443 31.9331 65.0654 31.0282 65.8255 29.574C66.6104 28.0705 66.5292 26.3276 65.6065 24.9154L65.1255 24.1795L65.1008 24.1303C64.8533 23.6338 64.9489 23.0563 65.3519 22.655C65.7762 22.2324 66.4124 22.1267 66.9393 22.3874L67.0842 22.4612L74.8338 30.1796C74.9929 30.338 75.159 30.4895 75.3323 30.6304C76.3222 31.4331 77.4606 31.8169 78.6167 31.7431C79.6702 31.6726 80.7131 31.2255 81.5581 30.4825C82.4172 29.7253 83.0005 28.729 83.2021 27.6691C83.4213 26.5283 83.1879 25.3592 82.5303 24.2817C82.1768 23.845 82.1521 23.257 82.4808 22.8028C82.7353 22.4367 83.1525 22.2394 83.5803 22.2394Z" />
<path d="M55.8629 16.074L60.7417 22.1267H57.2945L53.678 17.6408L52.2143 15.8275L51.8961 15.4331C51.4505 14.9015 51.1785 14.2183 51.1785 13.4683C51.1785 11.7324 52.6315 10.331 54.3957 10.412C55.9654 10.4824 57.2416 11.75 57.3193 13.3169C57.3654 14.2571 56.9835 15.1127 56.3507 15.7007L54.7597 13.7289C54.8163 13.6233 54.8374 13.5 54.8163 13.3662C54.7739 13.1268 54.5794 12.9367 54.3356 12.9014C54.3214 12.8979 54.3072 12.8979 54.2966 12.8979C53.8971 12.8662 53.6602 13.3416 53.9147 13.655L54.2223 14.0352L55.8629 16.074Z"  stroke-width="9.1862" stroke-miterlimit="10"/>
<path d="M51.7335 16.1866C50.853 16.8204 50.2769 17.8521 50.2769 19.0212C50.2769 20.9507 51.8466 22.514 53.784 22.514C54.6784 22.514 55.4986 22.1796 56.1172 21.6268L51.7335 16.1866Z"  stroke-width="9.1862" stroke-miterlimit="10"/>
<path d="M59.2003 19.2466C59.5466 18.9613 59.7659 18.5283 59.7659 18.0459C59.7659 17.1832 59.0624 16.486 58.1996 16.486C57.8391 16.486 57.5067 16.6093 57.2416 16.8135L59.2003 19.2466Z"  stroke-width="9.1862" stroke-miterlimit="10"/>
<path d="M96.2689 0L97.3153 3.48944L100.819 4.53168L97.3153 5.57395L96.2689 9.06338L95.2224 5.57395L91.7188 4.53168L95.2224 3.48944L96.2689 0Z" />
<path d="M55.8629 16.074L60.7417 22.1267H57.2945L53.678 17.6408L52.2143 15.8275L51.8961 15.4331C51.4505 14.9015 51.1785 14.2183 51.1785 13.4683C51.1785 11.7324 52.6315 10.331 54.3957 10.412C55.9654 10.4824 57.2416 11.75 57.3193 13.3169C57.3654 14.2571 56.9835 15.1127 56.3507 15.7007L54.7597 13.7289C54.8163 13.6233 54.8374 13.5 54.8163 13.3662C54.7739 13.1268 54.5794 12.9367 54.3356 12.9014C54.3214 12.8979 54.3072 12.8979 54.2966 12.8979C53.8971 12.8662 53.6602 13.3416 53.9147 13.655L54.2223 14.0352L55.8629 16.074Z" />
<path d="M59.1966 19.2466C59.4689 19.0177 59.6457 18.6762 59.6457 18.296C59.6457 17.6129 59.0872 17.0565 58.4012 17.0565C58.1149 17.0565 57.8498 17.1551 57.6411 17.317L59.1966 19.2466Z" />
<path d="M54.5723 19.7078C54.378 19.9261 54.0986 20.0635 53.7874 20.0635C53.2042 20.0635 52.734 19.5951 52.734 19.0141C52.734 18.6198 52.9532 18.2782 53.2784 18.1022L51.7335 16.1866C50.853 16.8204 50.2769 17.8521 50.2769 19.0212C50.2769 20.9507 51.8466 22.514 53.784 22.514C54.6784 22.514 55.4986 22.1796 56.1172 21.6268L54.5723 19.7078Z" />
<path d="M3.546 9.34854H2.51366V11.6549C2.51366 12.0563 2.75054 12.1443 3.11116 12.1443C3.25964 12.1443 3.39398 12.1232 3.54247 12.1232V13.345C3.23843 13.3556 2.93437 13.3943 2.63034 13.3943C1.20557 13.3943 0.84496 12.9753 0.84496 11.6056V9.34854H0V8.27459H0.84496V6.73938H2.51366V8.27459H3.546V9.34854Z" />
<path d="M4.34851 8.27477H5.96772V9.16562H5.98894C6.23288 8.51068 6.80208 8.17969 7.51976 8.17969C7.64705 8.17969 7.78492 8.19025 7.91219 8.21843V9.7325C7.68593 9.66561 7.49855 9.63392 7.27229 9.63392C6.44855 9.63392 6.01722 10.2008 6.01722 10.8381V13.3522H4.34851V8.27477Z" />
<path d="M10.1996 7.63738H8.53088V6.36624H10.1996V7.63738ZM8.53088 8.27469H10.1996V13.3486H8.53088V8.27469Z" />
<path d="M14.3042 10.1303C14.3042 9.70071 13.9117 9.3979 13.491 9.3979C12.5577 9.3979 12.4127 10.1902 12.4127 10.8944C12.4127 11.5493 12.6955 12.2254 13.4026 12.2254C13.993 12.2254 14.2759 11.9014 14.3537 11.3556H15.9729C15.8173 12.7254 14.7744 13.4965 13.4097 13.4965C11.8789 13.4965 10.7405 12.4613 10.7405 10.8944C10.7405 9.2817 11.7728 8.12677 13.4097 8.12677C14.686 8.12677 15.7961 8.80284 15.9234 10.1303H14.3042Z" />
<path d="M16.6234 6.36624H18.2921V9.96484L19.8159 8.27469H21.7497L19.8831 10.1902L21.9831 13.3486H19.9715L18.7235 11.3064L18.2921 11.7254V13.3486H16.6234V6.36624Z" />
<path d="M0.40305 17.2572C0.431334 16.5917 0.735379 16.1621 1.19852 15.898C1.66165 15.6339 2.23084 15.5459 2.81772 15.5459C4.02684 15.5459 5.19352 15.81 5.19352 17.2466V19.4649C5.19352 19.8945 5.19352 20.3664 5.3915 20.7642H3.71219C3.64501 20.6094 3.64501 20.4508 3.6132 20.2854C3.18187 20.7431 2.55258 20.9121 1.93387 20.9121C0.951037 20.9121 0.197998 20.4226 0.197998 19.3769C0.197998 17.7325 2.00458 17.8523 3.16419 17.6163C3.44703 17.5494 3.60611 17.4613 3.60611 17.148C3.60611 16.7677 3.14299 16.6199 2.80006 16.6199C2.31924 16.6199 2.04348 16.8346 1.9657 17.2536H0.40305V17.2572ZM2.56318 19.8874C3.35864 19.8874 3.6238 19.4473 3.58492 18.3909C3.34804 18.5388 2.91671 18.5564 2.55258 18.6657C2.17075 18.7537 1.86671 18.9085 1.86671 19.3099C1.86671 19.7324 2.18135 19.8874 2.56318 19.8874Z" />
<path d="M6.03845 15.6938H7.65765V16.3874H7.67886C7.99352 15.8698 8.67232 15.5459 9.2804 15.5459C10.9809 15.5459 11.1153 16.7783 11.1153 17.5107V20.7678H9.44656V18.3136V17.8065C9.44656 17.3171 9.2804 16.9156 8.61221 16.9156C7.98292 16.9156 7.70714 17.4543 7.70714 18.0002V20.7678H6.03845V15.6938Z" />
<path d="M17.0159 20.7676H15.4249V20.1796H15.4037C15.0679 20.6691 14.5977 20.9121 14.0002 20.9121C12.3986 20.9121 11.7234 19.5529 11.7234 18.1163C11.7234 16.7958 12.4305 15.5458 13.8729 15.5458C14.4916 15.5458 14.983 15.7818 15.3259 16.2395H15.3472V13.7853H17.0159V20.7676ZM13.3921 18.1762C13.3921 18.8698 13.6573 19.6444 14.4138 19.6444C15.227 19.6444 15.4073 18.8733 15.4073 18.2254C15.4073 17.4931 15.1421 16.817 14.4138 16.817C13.6573 16.817 13.3921 17.5318 13.3921 18.1762Z" />
<path d="M0.470215 23.1126H2.08943V23.8064H2.11065C2.41469 23.2993 2.94499 22.9648 3.57429 22.9648C4.21067 22.9648 4.7834 23.169 5.05562 23.7852C5.45867 23.2394 5.95009 22.9648 6.64655 22.9648C8.26577 22.9648 8.44253 24.1866 8.44253 25.1548V28.1865H6.77382V25.2042C6.77382 24.6548 6.50867 24.3345 6.07736 24.3345C5.35967 24.3345 5.2925 24.8802 5.2925 25.7042V28.1865H3.62379V25.3027C3.62379 24.7076 3.45762 24.3345 2.99448 24.3345C2.397 24.3345 2.13893 24.6866 2.13893 25.7147V28.1901H0.470215V23.1126Z" />
<path d="M11.6067 22.9648C13.1871 22.9648 14.2972 24.1267 14.2972 25.655C14.2972 27.1796 13.1871 28.3344 11.6067 28.3344C10.0264 28.3344 8.92689 27.1796 8.92689 25.655C8.92336 24.1303 10.0264 22.9648 11.6067 22.9648ZM11.6067 27.0633C12.3916 27.0633 12.6285 26.3098 12.6285 25.655C12.6285 25.0105 12.3916 24.236 11.6067 24.236C10.8325 24.236 10.5956 25.0071 10.5956 25.655C10.5956 26.3098 10.8289 27.0633 11.6067 27.0633Z" />
<path d="M14.8345 23.1128H16.4537V24.0037H16.4749C16.7188 23.3487 17.288 23.0177 18.0057 23.0177C18.1329 23.0177 18.2708 23.0282 18.3981 23.0565V24.5705C18.1719 24.5037 17.9845 24.4719 17.7582 24.4719C16.9345 24.4719 16.5032 25.0389 16.5032 25.6762V28.1902H14.8345V23.1128Z" />
<path d="M22.4249 24.1868H21.3926V26.4931C21.3926 26.8945 21.6295 26.9825 21.9901 26.9825C22.1387 26.9825 22.2729 26.9613 22.4215 26.9613V28.1832C22.1174 28.1938 21.8134 28.2324 21.5093 28.2324C20.0845 28.2324 19.724 27.8136 19.724 26.4437V24.1868H18.879V23.1128H19.724V21.5776H21.3926V23.1128H22.4249V24.1868Z" />
<path d="M23.1038 24.6761C23.132 24.0106 23.4361 23.581 23.8992 23.3169C24.3625 23.0529 24.9315 22.9648 25.5184 22.9648C26.7276 22.9648 27.8942 23.2289 27.8942 24.6655V26.8838C27.8942 27.3134 27.8942 27.7853 28.0923 28.1831H26.4093C26.3423 28.0281 26.3423 27.8696 26.3104 27.7041C25.879 28.162 25.2498 28.331 24.6311 28.331C23.6483 28.331 22.8953 27.8415 22.8953 26.7958C22.8953 25.1514 24.7017 25.2711 25.8613 25.0352C26.1442 24.9683 26.3033 24.8802 26.3033 24.5668C26.3033 24.1866 25.8402 24.0387 25.4973 24.0387C25.0164 24.0387 24.7407 24.2536 24.6629 24.6724H23.1038V24.6761ZM25.2604 27.3063C26.0558 27.3063 26.321 26.8662 26.2822 25.8098C26.0453 25.9577 25.6139 25.9753 25.2498 26.0846C24.868 26.1726 24.5639 26.3274 24.5639 26.7288C24.5639 27.1513 24.8785 27.3063 25.2604 27.3063Z" />
<path d="M28.5625 23.1128H30.1818V24.0037H30.2029C30.4469 23.3487 31.016 23.0177 31.7338 23.0177C31.8609 23.0177 31.9989 23.0282 32.1262 23.0565V24.5705C31.8999 24.5037 31.7125 24.4719 31.4863 24.4719C30.6625 24.4719 30.2311 25.0389 30.2311 25.6762V28.1902H28.5625V23.1128Z" />
</g>
</g>
<defs>
<clipPath id="clip0_102_2">
<rect width="104.429" height="34" fill="white"/>
</clipPath>
</defs>
</svg>
