<svg width="145" height="46" viewBox="0 0 145 46" fill="none" xmlns="http://www.w3.org/2000/svg">
<g clip-path="url(#clip0_14_25)">
<path d="M60.6 16.9V13.83L60.8 14.37L57.3 8.63999H58.23L61.31 13.64H60.81L63.89 8.63999H64.76L61.26 14.37L61.46 13.83V16.9H60.6ZM67.4 16.96C66.8368 16.9656 66.2819 16.8243 65.79 16.55C65.3212 16.2861 64.9338 15.8988 64.67 15.43C64.3864 14.9309 64.2447 14.3638 64.26 13.79C64.2445 13.2193 64.3863 12.6554 64.67 12.16C64.9315 11.692 65.3197 11.3073 65.79 11.05C66.2896 10.7872 66.8455 10.6499 67.41 10.6499C67.9744 10.6499 68.5304 10.7872 69.03 11.05C69.5047 11.3013 69.8944 11.6875 70.15 12.16C70.4367 12.6546 70.582 13.2184 70.57 13.79C70.5823 14.3647 70.437 14.9319 70.15 15.43C69.8837 15.9072 69.4841 16.2964 69 16.55C68.5145 16.8357 67.9632 16.9908 67.4 17V16.96ZM67.4 16.21C67.818 16.216 68.2308 16.1163 68.6 15.92C68.9396 15.7122 69.2188 15.4192 69.41 15.07C69.6202 14.6765 69.7269 14.236 69.72 13.79C69.7265 13.3472 69.6198 12.91 69.41 12.52C69.2213 12.1716 68.9413 11.8812 68.6 11.68C68.2402 11.4772 67.833 11.3736 67.42 11.38C67.0068 11.3722 66.5992 11.4758 66.24 11.68C65.8929 11.8803 65.6061 12.1705 65.41 12.52C65.2032 12.9108 65.1 13.348 65.11 13.79C65.1 14.2352 65.2032 14.6756 65.41 15.07C65.6047 15.4269 65.8949 15.7226 66.2481 15.924C66.6013 16.1253 67.0037 16.2244 67.41 16.21H67.4ZM74.48 16.96C74.0027 16.9712 73.5296 16.8684 73.1 16.66C72.7122 16.4652 72.3918 16.1587 72.18 15.78C71.9546 15.32 71.8447 14.812 71.86 14.3V10.71H72.7V14.21C72.6604 14.7532 72.8324 15.2907 73.18 15.71C73.3649 15.8808 73.5825 16.0123 73.8197 16.0965C74.0569 16.1807 74.3088 16.2159 74.56 16.2C74.9494 16.21 75.3348 16.1205 75.68 15.94C76.0024 15.7641 76.2613 15.4912 76.42 15.16C76.5903 14.7973 76.6758 14.4006 76.67 14V10.71H77.51V16.9H76.71V15.2L76.84 15.51C76.6507 15.9528 76.3295 16.3265 75.92 16.58C75.4891 16.8527 74.9899 16.9983 74.48 17V16.96ZM79.48 16.9V10.71H80.28V12.39L80.2 12.1C80.3502 11.6387 80.663 11.2478 81.08 11C81.5459 10.7375 82.0756 10.6094 82.61 10.63V11.44H82.42C82.1354 11.4245 81.8507 11.47 81.5851 11.5735C81.3195 11.677 81.0791 11.836 80.88 12.04C80.4844 12.5107 80.2872 13.1166 80.33 13.73V16.9H79.48ZM89.06 16.98C88.57 16.9894 88.0843 16.8868 87.64 16.68C87.2212 16.4864 86.8721 16.1687 86.64 15.77C86.3962 15.2836 86.2793 14.7436 86.3 14.2V10.6H87.77V14C87.7358 14.4588 87.871 14.9142 88.15 15.28C88.2946 15.4212 88.4672 15.5307 88.6566 15.6013C88.8461 15.6719 89.0482 15.7021 89.25 15.69C89.5598 15.6978 89.8663 15.6254 90.14 15.48C90.4043 15.3376 90.6149 15.1129 90.74 14.84C90.9143 14.5141 91.0037 14.1496 91 13.78V10.6H92.5V16.9H91.1V15.2L91.35 15.72C91.139 16.1212 90.8112 16.449 90.41 16.66C89.9976 16.8804 89.5376 16.9971 89.07 17L89.06 16.98ZM97.64 10.53C98.106 10.5243 98.5674 10.6234 98.99 10.82C99.3895 11.0194 99.7177 11.3372 99.93 11.73C100.177 12.2115 100.294 12.7493 100.27 13.29V16.9H98.81V13.48C98.8439 13.0272 98.7004 12.579 98.41 12.23C98.267 12.0859 98.0949 11.9739 97.9052 11.9015C97.7156 11.8291 97.5126 11.7979 97.31 11.81C96.9894 11.8019 96.6722 11.8777 96.39 12.03C96.1199 12.1698 95.8998 12.3899 95.76 12.66C95.6098 12.9891 95.5379 13.3485 95.55 13.71V16.9H94.08V10.6H95.48V12.3L95.23 11.78C95.4573 11.3751 95.8075 11.0529 96.23 10.86C96.6705 10.639 97.1572 10.5259 97.65 10.53H97.64ZM101.79 16.9V10.6H103.26V16.9H101.79ZM102.53 9.55999C102.405 9.56405 102.281 9.54314 102.164 9.4985C102.047 9.45385 101.94 9.38637 101.85 9.29999C101.767 9.21818 101.702 9.12082 101.657 9.01355C101.613 8.90628 101.589 8.79121 101.589 8.67499C101.589 8.55878 101.613 8.44371 101.657 8.33643C101.702 8.22916 101.767 8.13181 101.85 8.04999C102.034 7.88134 102.275 7.78781 102.525 7.78781C102.775 7.78781 103.016 7.88134 103.2 8.04999C103.287 8.12385 103.356 8.21596 103.402 8.3197C103.449 8.42345 103.472 8.53625 103.47 8.64999C103.474 8.77195 103.453 8.89348 103.409 9.00702C103.364 9.12056 103.296 9.22368 103.21 9.30999C103.12 9.39381 103.015 9.45906 102.9 9.50197C102.785 9.54487 102.663 9.5646 102.54 9.55999H102.53ZM107.73 16.98C107.115 16.9889 106.508 16.8481 105.96 16.57C105.456 16.2936 105.037 15.8849 104.748 15.388C104.459 14.8911 104.311 14.3248 104.32 13.75C104.31 13.1665 104.462 12.5917 104.76 12.09C105.047 11.6043 105.462 11.2065 105.96 10.94C106.508 10.6618 107.115 10.5211 107.73 10.53C108.294 10.5158 108.851 10.6466 109.35 10.91C109.82 11.1441 110.2 11.5274 110.43 12L109.3 12.66C109.132 12.3793 108.89 12.1507 108.6 12C108.332 11.8591 108.033 11.7869 107.73 11.79C107.383 11.7832 107.039 11.8622 106.73 12.02C106.44 12.1778 106.204 12.4179 106.05 12.71C105.872 13.0305 105.786 13.3937 105.8 13.76C105.789 14.1292 105.875 14.4948 106.05 14.82C106.208 15.104 106.444 15.3366 106.73 15.49C107.037 15.6558 107.381 15.7385 107.73 15.73C108.033 15.7331 108.332 15.6609 108.6 15.52C108.888 15.3624 109.13 15.1312 109.3 14.85L110.43 15.52C110.193 15.9837 109.819 16.364 109.36 16.61C108.861 16.8724 108.304 17.0064 107.74 17L107.73 16.98ZM115.22 16.9V15.62L115.14 15.35V13.12C115.151 12.9351 115.121 12.7501 115.054 12.5775C114.987 12.4049 114.883 12.2489 114.75 12.12C114.417 11.8547 113.995 11.726 113.57 11.76C113.231 11.7643 112.894 11.8182 112.57 11.92C112.256 12.0161 111.964 12.1723 111.71 12.38L111.13 11.31C111.487 11.0382 111.895 10.841 112.33 10.73C112.808 10.593 113.303 10.5256 113.8 10.53C114.561 10.4813 115.313 10.7165 115.91 11.19C116.174 11.4481 116.378 11.761 116.507 12.1066C116.637 12.4522 116.689 12.822 116.66 13.19V16.9H115.22ZM113.22 16.98C112.794 16.9889 112.372 16.9071 111.98 16.74C111.651 16.5944 111.368 16.3629 111.16 16.07C110.965 15.7735 110.864 15.4249 110.87 15.07C110.869 14.7369 110.955 14.4093 111.12 14.12C111.317 13.8092 111.613 13.5733 111.96 13.45C112.447 13.2627 112.968 13.1776 113.49 13.2H115.32V14.2H113.6C113.249 14.1647 112.897 14.2493 112.6 14.44C112.518 14.5145 112.452 14.6056 112.407 14.7073C112.362 14.8089 112.339 14.9189 112.34 15.03C112.337 15.1547 112.364 15.2784 112.42 15.39C112.476 15.5016 112.558 15.5978 112.66 15.67C112.923 15.8447 113.235 15.9289 113.55 15.91C113.9 15.9199 114.246 15.8334 114.55 15.66C114.839 15.4983 115.062 15.2398 115.18 14.93L115.43 15.81C115.288 16.182 115.014 16.4884 114.66 16.67C114.229 16.9059 113.741 17.0199 113.25 17L113.22 16.98ZM118.13 16.9V8.14999H119.61V16.9H118.13ZM61.82 27.53C62.2864 27.5204 62.7487 27.6197 63.17 27.82C63.5695 28.0194 63.8977 28.3372 64.11 28.73C64.3571 29.2115 64.4743 29.7493 64.45 30.29V33.9H63V30.48C63.0189 30.2556 62.9933 30.0296 62.9247 29.8151C62.856 29.6006 62.7457 29.4017 62.6 29.23C62.457 29.0859 62.2849 28.9739 62.0952 28.9015C61.9056 28.8291 61.7026 28.7979 61.5 28.81C61.1795 28.8033 60.8627 28.879 60.58 29.03C60.3151 29.1735 60.0992 29.3929 59.96 29.66C59.8098 29.9891 59.7379 30.3485 59.75 30.71V33.9H58.25V27.6H59.65V29.3L59.41 28.78C59.639 28.3763 59.9887 28.0546 60.41 27.86C60.8479 27.6416 61.3307 27.5286 61.82 27.53ZM66.17 33.9V27.24C66.1566 26.9513 66.201 26.6628 66.3006 26.3915C66.4002 26.1201 66.553 25.8715 66.75 25.66C66.9725 25.451 67.2355 25.2899 67.5227 25.1867C67.81 25.0835 68.1154 25.0404 68.42 25.06C68.6662 25.0579 68.9117 25.0881 69.15 25.15C69.3667 25.1915 69.5715 25.2803 69.75 25.41L69.34 26.51C69.2305 26.425 69.1045 26.3637 68.97 26.33C68.8287 26.2792 68.6801 26.2522 68.53 26.25C68.4016 26.2414 68.2728 26.2601 68.1521 26.3049C68.0314 26.3497 67.9216 26.4196 67.83 26.51C67.6622 26.7263 67.5803 26.997 67.6 27.27V28V28.66V33.9H66.17ZM65.17 28.83V27.65H69.37V28.83H65.17ZM72.34 34C71.7581 34.0373 71.1845 33.8473 70.74 33.47C70.5396 33.2592 70.3854 33.0089 70.2872 32.7351C70.1891 32.4614 70.1491 32.1701 70.17 31.88V26.21H71.64V31.82C71.6248 32.0741 71.707 32.3244 71.87 32.52C71.9553 32.6042 72.057 32.6698 72.1689 32.7129C72.2807 32.7559 72.4003 32.7753 72.52 32.77C72.8149 32.7789 73.1041 32.6872 73.34 32.51L73.76 33.51C73.5721 33.6614 73.3538 33.7705 73.12 33.83C72.8691 33.9226 72.6066 33.9798 72.34 34ZM69.13 28.85V27.65H73.33V28.83L69.13 28.85ZM74.23 28.74L74.91 26.12L75.11 27.01C74.8553 27.0144 74.6085 26.9214 74.42 26.75C74.2368 26.5631 74.1341 26.3117 74.1341 26.05C74.1341 25.7882 74.2368 25.5369 74.42 25.35C74.6049 25.1785 74.8478 25.0832 75.1 25.0832C75.3522 25.0832 75.5951 25.1785 75.78 25.35C75.9574 25.5394 76.0543 25.7905 76.05 26.05C76.0599 26.1397 76.0599 26.2303 76.05 26.32C76.0379 26.4255 76.0144 26.5295 75.98 26.63C75.9332 26.7771 75.8764 26.9207 75.81 27.06L75.2 28.74H74.23ZM78.89 34C78.3768 34.0001 77.8657 33.9328 77.37 33.8C76.9622 33.6917 76.574 33.5196 76.22 33.29L76.79 32.17C77.4545 32.5712 78.2138 32.7887 78.99 32.8C79.3339 32.8209 79.6777 32.7556 79.99 32.61C80.0842 32.5615 80.1636 32.4886 80.2199 32.3989C80.2762 32.3091 80.3073 32.2059 80.31 32.1C80.3127 32.021 80.2936 31.9429 80.2548 31.8741C80.2159 31.8053 80.1589 31.7485 80.09 31.71C79.9206 31.6078 79.7344 31.5367 79.54 31.5C79.31 31.45 79.06 31.41 78.77 31.37L77.94 31.22C77.6756 31.1505 77.4205 31.0498 77.18 30.92C76.9553 30.792 76.7662 30.6098 76.63 30.39C76.4752 30.1269 76.3988 29.825 76.41 29.52C76.4121 29.157 76.5352 28.8051 76.76 28.52C77.0019 28.2038 77.3327 27.9671 77.71 27.84C78.1826 27.6621 78.6852 27.5772 79.19 27.59C79.6203 27.5926 80.0493 27.6395 80.47 27.73C80.8466 27.8024 81.2083 27.9376 81.54 28.13L81 29.19C80.7202 29.0173 80.4122 28.8954 80.09 28.83C79.7951 28.7593 79.4932 28.7224 79.19 28.72C78.845 28.6991 78.5004 28.768 78.19 28.92C78.0958 28.9684 78.0163 29.0414 77.96 29.1311C77.9037 29.2208 77.8726 29.3241 77.87 29.43C77.8639 29.5135 77.8813 29.5971 77.9202 29.6713C77.9591 29.7455 78.0179 29.8074 78.09 29.85C78.2579 29.9592 78.4443 30.0371 78.64 30.08C78.87 30.13 79.12 30.18 79.39 30.22C79.6734 30.2488 79.9542 30.299 80.23 30.37C80.4939 30.4362 80.7491 30.5335 80.99 30.66C81.2185 30.7774 81.4118 30.9534 81.55 31.17C81.7035 31.43 81.7798 31.7283 81.77 32.03C81.7707 32.3952 81.6433 32.7491 81.41 33.03C81.1475 33.3464 80.8008 33.5822 80.41 33.71C79.9251 33.898 79.41 33.9963 78.89 34ZM88.34 34C87.7637 34.0093 87.1949 33.868 86.69 33.59C86.2163 33.3293 85.8249 32.9414 85.56 32.47C85.273 31.9719 85.1277 31.4047 85.14 30.83C85.128 30.2584 85.2733 29.6946 85.56 29.2C85.8224 28.7293 86.2147 28.344 86.69 28.09C87.1618 27.8452 87.6824 27.7092 88.2136 27.6919C88.7449 27.6746 89.2733 27.7764 89.76 27.99C90.1763 28.192 90.5241 28.5119 90.76 28.91L90.13 29.34C89.9385 29.0364 89.6645 28.7936 89.34 28.64C89.0273 28.4928 88.6856 28.4176 88.34 28.42C87.9238 28.4133 87.5133 28.5168 87.15 28.72C86.7957 28.9142 86.5042 29.2057 86.31 29.56C86.1065 29.9542 86.0004 30.3914 86.0004 30.835C86.0004 31.2786 86.1065 31.7158 86.31 32.11C86.5066 32.4651 86.7972 32.7592 87.15 32.96C87.516 33.155 87.9253 33.2548 88.34 33.25C88.6856 33.2524 89.0273 33.1772 89.34 33.03C89.6617 32.8769 89.935 32.6382 90.13 32.34L90.76 32.77C90.5209 33.1655 90.174 33.4847 89.76 33.69C89.3157 33.8979 88.8305 34.0038 88.34 34ZM94.48 34C93.9135 34.0069 93.355 33.8655 92.86 33.59C92.3931 33.3237 92.0062 32.9369 91.74 32.47C91.4611 31.9691 91.3196 31.4033 91.33 30.83C91.3195 30.2599 91.461 29.6973 91.74 29.2C92.004 28.734 92.3916 28.3499 92.86 28.09C93.3555 27.8166 93.9142 27.6787 94.48 27.69C95.0489 27.6788 95.6109 27.8167 96.11 28.09C96.5826 28.3441 96.9716 28.7296 97.23 29.2C97.509 29.6973 97.6505 30.2599 97.64 30.83C97.6504 31.4033 97.5089 31.9691 97.23 32.47C96.9691 32.941 96.581 33.3291 96.11 33.59C95.6113 33.8655 95.0497 34.0068 94.48 34ZM94.48 33.25C94.8949 33.2561 95.3044 33.1563 95.67 32.96C96.014 32.7577 96.2945 32.4633 96.48 32.11C96.6945 31.7182 96.8015 31.2765 96.79 30.83C96.8016 30.3866 96.6946 29.9482 96.48 29.56C96.2995 29.2057 96.0175 28.9132 95.67 28.72C95.3079 28.5231 94.9022 28.4199 94.49 28.4199C94.0778 28.4199 93.6721 28.5231 93.31 28.72C92.9637 28.9181 92.6797 29.209 92.49 29.56C92.2754 29.9482 92.1684 30.3866 92.18 30.83C92.1685 31.2765 92.2755 31.7182 92.49 32.11C92.682 32.4619 92.9652 32.7555 93.31 32.96C93.6729 33.1399 94.0752 33.2259 94.48 33.21V33.25ZM99 33.9V25.15H99.84V33.9H99ZM101.82 33.9V25.15H102.66V33.9H101.82ZM107.26 33.96C106.668 33.9703 106.083 33.8291 105.56 33.55C105.083 33.2899 104.688 32.9021 104.42 32.43C104.136 31.9309 103.995 31.3638 104.01 30.79C103.999 30.2255 104.133 29.6676 104.4 29.17C104.652 28.7083 105.025 28.3244 105.48 28.06C105.953 27.7946 106.487 27.6552 107.03 27.6552C107.573 27.6552 108.107 27.7946 108.58 28.06C109.039 28.3189 109.414 28.7042 109.66 29.17C109.928 29.6707 110.062 30.2321 110.05 30.8C110.055 30.8432 110.055 30.8868 110.05 30.93V31.06H104.66V30.44H109.6L109.27 30.69C109.282 30.2745 109.182 29.8633 108.98 29.5C108.802 29.1561 108.532 28.8687 108.2 28.67C107.855 28.4662 107.46 28.3624 107.06 28.37C106.657 28.3636 106.259 28.4673 105.91 28.67C105.575 28.8685 105.302 29.1558 105.12 29.5C104.926 29.8732 104.83 30.2895 104.84 30.71V30.84C104.83 31.2769 104.937 31.7086 105.15 32.09C105.361 32.4414 105.661 32.7311 106.02 32.93C106.421 33.1264 106.863 33.2258 107.31 33.22C107.653 33.2208 107.993 33.1528 108.31 33.02C108.641 32.8924 108.933 32.6824 109.16 32.41L109.64 32.95C109.368 33.275 109.026 33.5348 108.64 33.71C108.201 33.9003 107.728 33.999 107.25 34L107.26 33.96ZM114 34C113.424 34.0093 112.855 33.868 112.35 33.59C111.876 33.3266 111.482 32.9395 111.21 32.47C110.931 31.9691 110.79 31.4033 110.8 30.83C110.789 30.2599 110.931 29.6973 111.21 29.2C111.479 28.7309 111.874 28.3465 112.35 28.09C112.822 27.8452 113.342 27.7092 113.874 27.6919C114.405 27.6746 114.933 27.7764 115.42 27.99C115.836 28.192 116.184 28.5119 116.42 28.91L115.79 29.34C115.598 29.0364 115.324 28.7936 115 28.64C114.687 28.4928 114.346 28.4176 114 28.42C113.581 28.4148 113.167 28.5182 112.8 28.72C112.451 28.9175 112.163 29.2083 111.97 29.56C111.767 29.9542 111.66 30.3914 111.66 30.835C111.66 31.2786 111.767 31.7158 111.97 32.11C112.166 32.4623 112.452 32.7557 112.8 32.96C113.17 33.1543 113.582 33.2539 114 33.25C114.346 33.2524 114.687 33.1772 115 33.03C115.322 32.8769 115.595 32.6382 115.79 32.34L116.42 32.77C116.181 33.1655 115.834 33.4847 115.42 33.69C114.976 33.8979 114.491 34.0038 114 34ZM119.74 34C119.496 34.025 119.25 33.9955 119.019 33.9133C118.788 33.8312 118.578 33.6987 118.405 33.5254C118.231 33.352 118.099 33.1422 118.017 32.9112C117.935 32.6802 117.905 32.4339 117.93 32.19V26.34H118.77V32.1C118.749 32.4042 118.846 32.7049 119.04 32.94C119.143 33.046 119.268 33.1279 119.406 33.1797C119.545 33.2316 119.693 33.2522 119.84 33.24C120.176 33.2506 120.503 33.1366 120.76 32.92L121.05 33.52C120.879 33.676 120.673 33.7891 120.45 33.85C120.21 33.9398 119.956 33.9904 119.7 34H119.74ZM116.82 28.44V27.75H120.65V28.44H116.82ZM122.22 33.94V27.71H123V33.9L122.22 33.94ZM122.65 26.38C122.568 26.3815 122.487 26.3664 122.411 26.3354C122.336 26.3045 122.267 26.2584 122.21 26.2C122.152 26.1447 122.106 26.0779 122.075 26.0039C122.044 25.9299 122.029 25.8502 122.03 25.77C122.029 25.6928 122.044 25.6162 122.075 25.5455C122.107 25.4747 122.152 25.4115 122.21 25.36C122.33 25.2494 122.487 25.1886 122.65 25.19C122.729 25.1866 122.807 25.199 122.881 25.2265C122.955 25.254 123.023 25.296 123.08 25.35C123.138 25.4015 123.183 25.4647 123.214 25.5355C123.246 25.6062 123.261 25.6828 123.26 25.76C123.262 25.8418 123.247 25.9232 123.216 25.9989C123.185 26.0747 123.139 26.1431 123.08 26.2C123.018 26.2581 122.943 26.301 122.861 26.3253C122.78 26.3496 122.694 26.3546 122.61 26.34L122.65 26.38ZM127.52 34C126.957 34.0079 126.401 33.8665 125.91 33.59C125.439 33.3291 125.051 32.941 124.79 32.47C124.503 31.9719 124.358 31.4047 124.37 30.83C124.358 30.2584 124.503 29.6946 124.79 29.2C125.048 28.7296 125.437 28.3441 125.91 28.09C126.402 27.8166 126.957 27.6785 127.52 27.69C128.089 27.6774 128.651 27.8154 129.15 28.09C129.623 28.3441 130.012 28.7296 130.27 29.2C130.549 29.6973 130.691 30.2599 130.68 30.83C130.69 31.4033 130.549 31.9691 130.27 32.47C130.009 32.941 129.621 33.3291 129.15 33.59C128.652 33.8668 128.09 34.0081 127.52 34ZM127.52 33.25C127.935 33.2574 128.345 33.1575 128.71 32.96C129.055 32.7555 129.338 32.4619 129.53 32.11C129.737 31.7156 129.84 31.2752 129.83 30.83C129.84 30.388 129.737 29.9508 129.53 29.56C129.34 29.209 129.056 28.9181 128.71 28.72C128.351 28.5158 127.943 28.4122 127.53 28.42C127.117 28.4136 126.71 28.5172 126.35 28.72C126.006 28.921 125.723 29.2112 125.53 29.56C125.315 29.9482 125.208 30.3866 125.22 30.83C125.209 31.2765 125.315 31.7182 125.53 32.11C125.725 32.4596 126.008 32.7525 126.35 32.96C126.713 33.1399 127.115 33.2259 127.52 33.21V33.25ZM135.2 27.69C135.657 27.677 136.11 27.7766 136.52 27.98C136.901 28.1718 137.215 28.4752 137.42 28.85C137.657 29.3099 137.77 29.8232 137.75 30.34V33.94H136.91V30.38C136.929 30.114 136.894 29.8469 136.808 29.5945C136.723 29.342 136.587 29.1093 136.41 28.91C136.225 28.7286 136.004 28.5892 135.761 28.5012C135.517 28.4132 135.258 28.3787 135 28.4C134.6 28.3906 134.204 28.4835 133.85 28.67C133.527 28.8466 133.262 29.1144 133.09 29.44C132.912 29.8144 132.826 30.2258 132.84 30.64V33.9H132V27.71H132.8V29.4L132.67 29.09C132.864 28.6466 133.193 28.2756 133.61 28.03C134.096 27.7619 134.645 27.6306 135.2 27.65V27.69ZM141.32 34C140.828 34.0048 140.338 33.9306 139.87 33.78C139.478 33.6671 139.112 33.4804 138.79 33.23L139.17 32.57C139.475 32.7855 139.813 32.9509 140.17 33.06C140.569 33.1984 140.988 33.2661 141.41 33.26C141.851 33.295 142.292 33.2012 142.68 32.99C142.803 32.91 142.903 32.8001 142.971 32.6706C143.039 32.5411 143.073 32.3963 143.07 32.25C143.075 32.1509 143.058 32.0519 143.02 31.9602C142.982 31.8686 142.924 31.7865 142.85 31.72C142.686 31.5787 142.491 31.4792 142.28 31.43C142.022 31.3504 141.757 31.2902 141.49 31.25C141.2 31.2 140.91 31.15 140.62 31.08C140.349 31.0264 140.086 30.9355 139.84 30.81C139.651 30.7019 139.486 30.5556 139.356 30.3804C139.227 30.2052 139.135 30.0049 139.087 29.7923C139.039 29.5797 139.036 29.3595 139.078 29.1456C139.12 28.9317 139.206 28.7289 139.33 28.55C139.538 28.2628 139.827 28.0436 140.16 27.92C140.586 27.7517 141.042 27.6734 141.5 27.69C141.905 27.689 142.309 27.7429 142.7 27.85C143.054 27.9297 143.392 28.0683 143.7 28.26L143.34 28.94C143.07 28.7515 142.769 28.6127 142.45 28.53C142.143 28.4469 141.828 28.4032 141.51 28.4C141.075 28.3676 140.642 28.4726 140.27 28.7C140.149 28.779 140.05 28.8874 139.981 29.015C139.913 29.1426 139.878 29.2853 139.88 29.43C139.875 29.5327 139.891 29.6355 139.927 29.7318C139.963 29.8282 140.018 29.916 140.09 29.99C140.26 30.1324 140.457 30.2379 140.67 30.3C140.929 30.3774 141.193 30.4376 141.46 30.48C141.75 30.48 142.04 30.59 142.32 30.66C142.594 30.7135 142.86 30.8043 143.11 30.93C143.346 31.0298 143.548 31.1967 143.69 31.41C143.852 31.6519 143.932 31.9392 143.92 32.23C143.923 32.5689 143.814 32.8993 143.61 33.17C143.38 33.448 143.08 33.6588 142.74 33.78C142.285 33.9437 141.803 34.0184 141.32 34Z" />
<path d="M26.29 43.63H26.79V0.509995H28.15V45H0.5V0.509995H1.85V43.63H26.29Z" />
<path d="M11 13V8.72H12.4V12.48C12.3816 12.7885 12.4332 13.0972 12.551 13.3829C12.6688 13.6686 12.8496 13.924 13.08 14.13C13.4251 14.4174 13.8609 14.5733 14.31 14.57C14.8027 14.5828 15.2818 14.4076 15.65 14.08C15.8546 13.8631 16.0125 13.6065 16.114 13.3262C16.2154 13.0458 16.2583 12.7476 16.24 12.45V8.72H17.61V15.72H16.24V15.13L15.3 14.89C15.1418 15.1845 14.9087 15.432 14.6243 15.6075C14.3398 15.7831 14.0141 15.8805 13.68 15.89C13.3348 15.9069 12.9898 15.8545 12.6652 15.736C12.3406 15.6175 12.043 15.4353 11.79 15.2C11.5178 14.9048 11.3076 14.558 11.1719 14.1801C11.0362 13.8022 10.9777 13.4009 11 13Z" />
<path d="M12.38 35.1V35.59H11V24.92H12.35V29.09L13.29 29.32C13.5018 29.0222 13.7874 28.7845 14.1187 28.6303C14.45 28.476 14.8157 28.4105 15.18 28.44C15.6456 28.4509 16.104 28.5564 16.5274 28.7502C16.9509 28.9441 17.3304 29.2221 17.6429 29.5673C17.9554 29.9126 18.1943 30.3178 18.3451 30.7584C18.4959 31.199 18.5554 31.6657 18.52 32.13C18.5512 32.591 18.4885 33.0534 18.3356 33.4894C18.1826 33.9253 17.9427 34.3256 17.6304 34.6661C17.318 35.0065 16.9397 35.2798 16.5185 35.4696C16.0973 35.6594 15.6419 35.7616 15.18 35.77C14.8139 35.7974 14.447 35.7288 14.1155 35.5709C13.7841 35.4131 13.4995 35.1715 13.29 34.87L12.38 35.1ZM14.77 34.51C15.2509 34.5259 15.7255 34.3981 16.1334 34.1429C16.5413 33.8877 16.8639 33.5168 17.0599 33.0774C17.2559 32.638 17.3166 32.1502 17.234 31.6762C17.1515 31.2022 16.9295 30.7635 16.5965 30.4163C16.2635 30.0691 15.8345 29.8289 15.3644 29.7267C14.8943 29.6244 14.4043 29.6645 13.9571 29.842C13.51 30.0195 13.1258 30.3263 12.8538 30.7231C12.5818 31.12 12.4342 31.5889 12.43 32.07C12.4193 32.3849 12.4718 32.6988 12.5843 32.9931C12.6969 33.2874 12.8672 33.5562 13.0853 33.7836C13.3034 34.011 13.5648 34.1924 13.8542 34.3172C14.1435 34.442 14.4549 34.5075 14.77 34.51Z" />
<path d="M44 0H43V45.49H44V0Z" />
</g>
<defs>
<clipPath id="clip0_14_25">
<rect width="144.98" height="45.49" fill="white"/>
</clipPath>
</defs>
</svg>
