<svg width="146" height="24" viewBox="0 0 146 24" fill="none" xmlns="http://www.w3.org/2000/svg">
<g clip-path="url(#clip0_14_11)">
<path fill-rule="evenodd" clip-rule="evenodd" d="M9.07001 -2.40884e-06H14.36C15.5478 -0.00924093 16.7256 0.216731 17.8257 0.664886C18.9257 1.11304 19.9261 1.77451 20.7693 2.61116C21.6124 3.44781 22.2816 4.44308 22.7383 5.5396C23.195 6.63612 23.4301 7.81219 23.43 9V14.27C23.4272 15.4572 23.1928 16.6325 22.74 17.73C22.2693 18.8269 21.5901 19.822 20.74 20.66C19.9006 21.5129 18.9016 22.1925 17.8 22.66C16.6977 23.1083 15.52 23.3424 14.33 23.35H9.07001C7.88003 23.3424 6.70237 23.1083 5.60001 22.66C4.4967 22.1902 3.49489 21.511 2.65001 20.66C1.79556 19.8257 1.11569 18.8297 0.650014 17.73C0.21005 16.6405 -0.0108275 15.4749 1.44163e-05 14.3V9.03C-0.00210741 7.84228 0.23246 6.66605 0.690014 5.57C1.15569 4.47031 1.83556 3.4743 2.69001 2.64C3.53489 1.78899 4.5367 1.1098 5.64001 0.639997C6.73185 0.209106 7.89626 -0.00815994 9.07001 -2.40884e-06V-2.40884e-06ZM8.74001 18.52C9.30517 18.548 9.87026 18.4634 10.4024 18.2712C10.9346 18.0789 11.4233 17.7828 11.84 17.4C12.2414 16.9576 12.5507 16.4398 12.7498 15.8766C12.949 15.3135 13.034 14.7163 13 14.12V13.83C13.0027 13.6484 12.9687 13.4681 12.9 13.3C12.8385 13.1301 12.7393 12.9762 12.61 12.85C12.482 12.7179 12.329 12.6125 12.16 12.54C11.9954 12.4713 11.8184 12.4373 11.64 12.44C11.4583 12.4365 11.2779 12.4705 11.11 12.54C10.941 12.6125 10.788 12.7179 10.66 12.85C10.5324 12.9828 10.4323 13.1395 10.3654 13.3111C10.2984 13.4827 10.266 13.6659 10.27 13.85V14.12C10.3023 14.6002 10.1602 15.076 9.87001 15.46C9.72767 15.6044 9.55545 15.716 9.36542 15.7868C9.1754 15.8576 8.97217 15.886 8.77001 15.87C8.56723 15.8834 8.36394 15.8528 8.17408 15.7803C7.98421 15.7078 7.81227 15.5951 7.67001 15.45C7.38209 15.0687 7.24019 14.5969 7.27001 14.12V10.34C7.27745 10.0681 7.20318 9.8002 7.0568 9.57093C6.91041 9.34167 6.69864 9.16157 6.44885 9.0539C6.19906 8.94623 5.92271 8.91594 5.65553 8.96694C5.38834 9.01794 5.14259 9.14789 4.95001 9.34C4.8173 9.46957 4.71315 9.62548 4.64426 9.7977C4.57537 9.96991 4.54327 10.1546 4.55001 10.34V14.12C4.51488 14.7095 4.59663 15.3001 4.79056 15.8578C4.98448 16.4156 5.28677 16.9295 5.68001 17.37C6.08564 17.7589 6.56602 18.0613 7.09201 18.259C7.61801 18.4567 8.17867 18.5455 8.74001 18.52V18.52ZM11.52 5.86C11.9391 5.47476 12.4311 5.17721 12.9669 4.98487C13.5027 4.79253 14.0716 4.70927 14.64 4.74C15.2068 4.71062 15.7738 4.79454 16.3078 4.98685C16.8418 5.17916 17.3321 5.47599 17.75 5.86C18.1472 6.30031 18.4526 6.81542 18.6484 7.37518C18.8441 7.93493 18.9263 8.52811 18.89 9.12V12.9C18.8961 13.0853 18.8638 13.2698 18.7949 13.442C18.7261 13.6141 18.6222 13.7701 18.49 13.9C18.359 14.0308 18.2028 14.1336 18.031 14.2024C17.8591 14.2711 17.6751 14.3043 17.49 14.3C17.1257 14.3 16.7762 14.156 16.5177 13.8993C16.2592 13.6427 16.1127 13.2943 16.11 12.93V9.18C16.1548 8.68299 16.0121 8.1872 15.71 7.79C15.5684 7.6406 15.3953 7.52453 15.2034 7.45016C15.0114 7.3758 14.8053 7.345 14.6 7.36C14.3949 7.34436 14.1888 7.37287 13.9956 7.44359C13.8024 7.51432 13.6266 7.62562 13.48 7.77C13.1946 8.15938 13.0596 8.63888 13.1 9.12V9.39C13.1101 9.57118 13.0794 9.75231 13.01 9.92C12.9411 10.0915 12.8392 10.2478 12.71 10.38C12.5814 10.5089 12.4285 10.6109 12.26 10.68C12.0909 10.7523 11.9089 10.7896 11.725 10.7896C11.5411 10.7896 11.3591 10.7523 11.19 10.68C11.0216 10.6109 10.8686 10.5089 10.74 10.38C10.6105 10.25 10.5115 10.0929 10.45 9.92C10.3824 9.75155 10.3484 9.5715 10.35 9.39V9.2C10.3121 8.59335 10.396 7.98524 10.597 7.41158C10.7979 6.83793 11.1118 6.31035 11.52 5.86V5.86Z" />
<path d="M127.06 16.47C127.056 16.7203 127.104 16.9688 127.2 17.2C127.292 17.4303 127.428 17.6408 127.6 17.82C127.778 17.9978 127.989 18.1403 128.22 18.24C128.451 18.339 128.699 18.3901 128.95 18.3901C129.201 18.3901 129.449 18.339 129.68 18.24C129.914 18.1453 130.125 18.0021 130.3 17.82C130.478 17.6438 130.617 17.4331 130.71 17.2009C130.803 16.9687 130.847 16.72 130.84 16.47V8.46998H132.84C133.312 8.46168 133.761 8.26762 134.09 7.92998C134.253 7.76545 134.382 7.57033 134.47 7.35583C134.557 7.14132 134.601 6.91165 134.6 6.67998C134.601 6.20947 134.418 5.75718 134.09 5.41998C133.757 5.0887 133.309 4.8988 132.84 4.88998H125C124.529 4.89525 124.079 5.08616 123.747 5.42128C123.416 5.7564 123.23 6.20869 123.23 6.67998C123.231 7.1491 123.418 7.59869 123.75 7.92998C124.079 8.26762 124.529 8.46168 125 8.46998H127V16.47H127.06Z" />
<path d="M115.56 18.59C116.489 18.6116 117.413 18.4458 118.276 18.1027C119.14 17.7595 119.925 17.246 120.586 16.5928C121.247 15.9395 121.769 15.1599 122.122 14.3004C122.475 13.4409 122.651 12.5191 122.64 11.59V11.59C122.571 9.76225 121.797 8.03227 120.479 6.76349C119.162 5.4947 117.404 4.78586 115.575 4.78586C113.746 4.78586 111.988 5.4947 110.671 6.76349C109.353 8.03227 108.579 9.76225 108.51 11.59V11.59C108.492 12.5184 108.663 13.4408 109.011 14.3015C109.36 15.1622 109.879 15.9432 110.538 16.5975C111.197 17.2517 111.982 17.7656 112.845 18.1081C113.708 18.4506 114.632 18.6145 115.56 18.59V18.59ZM115.56 14.97C115.131 14.9651 114.708 14.8739 114.315 14.7021C113.922 14.5302 113.567 14.281 113.272 13.9695C112.978 13.6579 112.748 13.2902 112.599 12.8883C112.449 12.4864 112.381 12.0585 112.4 11.63V11.63C112.377 11.2044 112.441 10.7786 112.588 10.3785C112.734 9.97833 112.961 9.61227 113.254 9.30259C113.547 8.99291 113.9 8.74609 114.291 8.57716C114.682 8.40824 115.104 8.32074 115.53 8.32001C115.961 8.32357 116.386 8.41402 116.781 8.58593C117.176 8.75784 117.532 9.00767 117.828 9.32047C118.124 9.63326 118.354 10.0026 118.504 10.4063C118.653 10.81 118.72 11.2398 118.7 11.67C118.722 12.0931 118.657 12.5162 118.511 12.9138C118.365 13.3114 118.14 13.6754 117.849 13.9837C117.559 14.292 117.209 14.5383 116.82 14.7078C116.432 14.8773 116.014 14.9665 115.59 14.97H115.56Z" />
<path d="M141.6 9.85998C140.91 9.72001 140.238 9.49845 139.6 9.19998C139.512 9.15599 139.436 9.09067 139.38 9.00998C139.356 8.92832 139.356 8.84164 139.38 8.75998V8.75998C139.364 8.70101 139.364 8.63896 139.38 8.57998C139.41 8.52216 139.455 8.47369 139.51 8.43998C139.773 8.28596 140.076 8.21291 140.38 8.22998C141.217 8.27025 142.028 8.53256 142.73 8.98998C143.032 9.17086 143.378 9.26433 143.73 9.25998C143.973 9.26829 144.215 9.22394 144.44 9.12998C144.665 9.04322 144.869 8.91038 145.04 8.73998C145.214 8.56992 145.35 8.36558 145.44 8.13998C145.539 7.92004 145.591 7.68135 145.59 7.43998C145.59 7.12864 145.511 6.82241 145.36 6.54998C145.202 6.27607 144.979 6.04579 144.71 5.87998C143.434 5.08111 141.955 4.66786 140.45 4.68998C139.177 4.65272 137.931 5.06323 136.93 5.84998C136.471 6.23454 136.104 6.71721 135.857 7.2624C135.609 7.80759 135.487 8.40138 135.5 8.99998V8.99998C135.463 9.57131 135.565 10.1432 135.799 10.6659C136.032 11.1887 136.39 11.6466 136.84 12C137.793 12.6565 138.867 13.1156 140 13.35C140.657 13.4842 141.292 13.7062 141.89 14.01C141.967 14.0535 142.032 14.1153 142.08 14.19C142.095 14.2592 142.095 14.3308 142.08 14.4V14.4C142.104 14.4747 142.104 14.5553 142.08 14.63C142.039 14.6977 141.98 14.7529 141.91 14.79C141.602 14.9523 141.258 15.0316 140.91 15.02C139.866 15.0152 138.853 14.6634 138.03 14.02C137.706 13.7901 137.318 13.6677 136.92 13.67C136.531 13.6708 136.151 13.7893 135.83 14.01C135.517 14.2396 135.282 14.5612 135.16 14.93C135.045 15.2978 135.045 15.6921 135.16 16.06C135.282 16.4288 135.517 16.7504 135.83 16.98C137.292 18.0137 139.039 18.5691 140.83 18.57C142.15 18.6273 143.45 18.2283 144.51 17.44C144.998 17.0391 145.386 16.5308 145.645 15.9548C145.903 15.3788 146.025 14.7508 146 14.12V14.12C146.027 13.5795 145.931 13.0399 145.718 12.5425C145.504 12.0451 145.18 11.603 144.77 11.25C143.823 10.5688 142.743 10.0951 141.6 9.85998V9.85998Z" />
<path d="M100.31 4.88999C98.7087 4.80477 97.1384 5.35455 95.94 6.41999C95.3726 7.03139 94.9355 7.75181 94.6553 8.53745C94.3751 9.32309 94.2576 10.1575 94.31 10.99V16.68C94.3176 17.1781 94.5226 17.6529 94.88 18C95.1483 18.2593 95.4861 18.4352 95.8523 18.5066C96.2186 18.5779 96.5976 18.5415 96.9436 18.4018C97.2897 18.2622 97.5878 18.0252 97.8019 17.7196C98.016 17.414 98.1369 17.0529 98.15 16.68V10.88C98.0941 10.2206 98.2947 9.56515 98.71 9.04999C99.142 8.67232 99.6962 8.46417 100.27 8.46417C100.844 8.46417 101.398 8.67232 101.83 9.04999C102.246 9.59604 102.449 10.2752 102.4 10.96V16.67C102.411 17.1693 102.62 17.6439 102.98 17.99C103.337 18.3418 103.819 18.5389 104.32 18.5389C104.821 18.5389 105.303 18.3418 105.66 17.99C106.02 17.6439 106.229 17.1693 106.24 16.67V10.9C106.293 10.0836 106.178 9.26507 105.903 8.49465C105.628 7.72423 105.198 7.01821 104.64 6.41999C104.054 5.89314 103.37 5.48685 102.627 5.22433C101.884 4.96181 101.097 4.8482 100.31 4.88999V4.88999Z" />
<path d="M71.33 16.48C71.33 16.9919 71.5334 17.4828 71.8953 17.8447C72.2572 18.2067 72.7481 18.41 73.26 18.41C73.7719 18.41 74.2628 18.2067 74.6247 17.8447C74.9867 17.4828 75.19 16.9919 75.19 16.48V6.77001C75.1792 6.26764 74.9708 5.78979 74.61 5.44001C74.2493 5.08698 73.7647 4.88928 73.26 4.88928C72.7553 4.88928 72.2707 5.08698 71.91 5.44001C71.5493 5.78979 71.3409 6.26764 71.33 6.77001V16.48Z" />
<path d="M61.9 16.47C61.8998 16.7193 61.9493 16.9662 62.0454 17.1962C62.1415 17.4263 62.2825 17.6349 62.46 17.81C62.8199 18.1684 63.3071 18.3697 63.815 18.3697C64.3229 18.3697 64.8102 18.1684 65.17 17.81C65.3475 17.6349 65.4885 17.4263 65.5846 17.1962C65.6808 16.9662 65.7302 16.7193 65.73 16.47V8.46999H67.79C68.0296 8.47239 68.2673 8.42824 68.49 8.33999C68.8254 8.21075 69.1138 7.983 69.3173 7.6867C69.5208 7.3904 69.6298 7.03943 69.63 6.67999C69.629 6.43981 69.5814 6.20209 69.49 5.97999C69.3994 5.76041 69.2631 5.56268 69.09 5.39999C68.9176 5.23177 68.7137 5.09924 68.49 5.00999C68.268 4.92026 68.0293 4.87934 67.79 4.88999H59.79C59.5508 4.87934 59.312 4.92026 59.09 5.00999C58.8653 5.102 58.6612 5.2378 58.4895 5.40949C58.3178 5.58117 58.182 5.7853 58.09 6.00999C57.9986 6.23209 57.951 6.4698 57.95 6.70999C57.9511 6.94694 57.9986 7.18137 58.09 7.39999C58.1869 7.61902 58.3224 7.81886 58.49 7.98999C58.6628 8.15525 58.8668 8.28443 59.09 8.36999C59.3127 8.45824 59.5505 8.50239 59.79 8.49999H61.9V16.47Z" />
<path d="M36.54 18.59C38.1382 18.6747 39.7052 18.1248 40.9 17.06C41.4692 16.4494 41.9081 15.7294 42.1901 14.9437C42.472 14.158 42.5911 13.3232 42.54 12.49V6.78999C42.5404 6.29615 42.3464 5.82199 42 5.46999C41.7317 5.2107 41.394 5.03474 41.0277 4.96342C40.6614 4.8921 40.2824 4.92847 39.9364 5.06815C39.5904 5.20782 39.2923 5.4448 39.0781 5.75039C38.864 6.05598 38.7431 6.41709 38.73 6.78999V12.59C38.7854 13.2524 38.585 13.9108 38.17 14.43C37.966 14.6312 37.7211 14.7862 37.452 14.8846C37.1828 14.9829 36.8957 15.0223 36.61 15C36.3147 15.0272 36.017 14.9883 35.7386 14.8863C35.4601 14.7842 35.2078 14.6216 35 14.41C34.5794 13.8701 34.376 13.1923 34.43 12.51V6.78999C34.4187 6.29064 34.2102 5.81607 33.85 5.46999C33.491 5.1176 33.008 4.92017 32.505 4.92017C32.0019 4.92017 31.519 5.1176 31.16 5.46999C30.7998 5.81607 30.5913 6.29064 30.58 6.78999V12.58C30.5336 13.3958 30.6513 14.2126 30.9261 14.9821C31.2009 15.7516 31.6273 16.4582 32.18 17.06C32.7695 17.5905 33.4584 17.9989 34.2068 18.2615C34.9552 18.5242 35.7482 18.6358 36.54 18.59Z" />
<path d="M51 4.89C49.4177 4.81097 47.8684 5.36098 46.69 6.42C46.1259 7.03319 45.6915 7.75414 45.4131 8.53949C45.1347 9.32484 45.018 10.1584 45.07 10.99V16.68C45.0663 16.9303 45.1139 17.1788 45.21 17.41C45.2999 17.6446 45.4359 17.8588 45.61 18.04C45.7884 18.2178 45.9988 18.3603 46.23 18.46C46.4643 18.5585 46.7159 18.6095 46.97 18.61C47.2211 18.6106 47.4696 18.5595 47.7 18.46C47.934 18.3653 48.1453 18.2221 48.32 18.04C48.5005 17.862 48.6403 17.6471 48.73 17.41C48.8261 17.1788 48.8738 16.9303 48.87 16.68V10.88C48.8141 10.2207 49.0147 9.56516 49.43 9.05C49.8529 8.67396 50.3991 8.46623 50.965 8.46623C51.5309 8.46623 52.0771 8.67396 52.5 9.05C52.9162 9.59605 53.1189 10.2752 53.07 10.96V16.67C53.1048 17.1488 53.3196 17.5967 53.6711 17.9236C54.0227 18.2505 54.485 18.4322 54.965 18.4322C55.4451 18.4322 55.9074 18.2505 56.2589 17.9236C56.6105 17.5967 56.8252 17.1488 56.86 16.67V10.9C56.9114 10.0854 56.798 9.26878 56.5265 8.49901C56.255 7.72925 55.8311 7.02215 55.28 6.42C54.7054 5.89137 54.0305 5.48354 53.2953 5.22072C52.5601 4.9579 51.7795 4.84543 51 4.89V4.89Z" />
<path d="M83.92 18.37C83.011 18.4009 82.105 18.2483 81.2562 17.9213C80.4075 17.5943 79.6333 17.0996 78.9799 16.4668C78.3266 15.834 77.8074 15.076 77.4535 14.2381C77.0996 13.4002 76.9182 12.4996 76.92 11.59C76.9169 10.6931 77.0944 9.80481 77.442 8.97802C77.7895 8.15123 78.3 7.4029 78.943 6.77764C79.586 6.15239 80.3483 5.66301 81.1845 5.3387C82.0207 5.01439 82.9136 4.86179 83.81 4.88999H85.28C86.43 4.88999 87.34 5.47999 87.34 6.69999C87.3248 6.9541 87.2592 7.20266 87.1471 7.43119C87.035 7.65972 86.8785 7.86367 86.6868 8.03117C86.4951 8.19867 86.272 8.32638 86.0305 8.40687C85.789 8.48735 85.5339 8.51901 85.28 8.49999H83.5C82.9809 8.50559 82.472 8.64584 82.0233 8.90701C81.5746 9.16818 81.2013 9.54134 80.94 9.98999H84.55C84.7889 9.97184 85.029 10.0032 85.2553 10.0822C85.4815 10.1612 85.689 10.286 85.8647 10.4489C86.0404 10.6118 86.1806 10.8092 86.2765 11.0288C86.3724 11.2484 86.4218 11.4854 86.4218 11.725C86.4218 11.9646 86.3724 12.2016 86.2765 12.4212C86.1806 12.6408 86.0404 12.8382 85.8647 13.0011C85.689 13.164 85.4815 13.2888 85.2553 13.3678C85.029 13.4468 84.7889 13.4781 84.55 13.46H81C81.2552 13.8625 81.6083 14.1938 82.0263 14.4229C82.4442 14.652 82.9134 14.7714 83.39 14.77H85.3C85.5566 14.7368 85.8173 14.7588 86.0647 14.8343C86.3121 14.9099 86.5406 15.0373 86.7349 15.2081C86.9292 15.3789 87.0848 15.5892 87.1914 15.8249C87.2981 16.0606 87.3532 16.3163 87.3532 16.575C87.3532 16.8337 87.2981 17.0894 87.1914 17.3251C87.0848 17.5608 86.9292 17.7711 86.7349 17.9419C86.5406 18.1127 86.3121 18.2401 86.0647 18.3157C85.8173 18.3912 85.5566 18.4131 85.3 18.38H83.92V18.37Z" />
</g>
<defs>
<clipPath id="clip0_14_11">
<rect width="146" height="23.34" fill="white"/>
</clipPath>
</defs>
</svg>
